<?xml version="1.0" encoding="utf-8" standalone="no"?>
<!DOCTYPE svg PUBLIC "-//W3C//DTD SVG 1.1//EN"
  "http://www.w3.org/Graphics/SVG/1.1/DTD/svg11.dtd">
<svg xmlns:xlink="http://www.w3.org/1999/xlink" width="480.72pt" height="495.838125pt" viewBox="0 0 480.72 495.838125" xmlns="http://www.w3.org/2000/svg" version="1.1">
 <metadata>
  <rdf:RDF xmlns:dc="http://purl.org/dc/elements/1.1/" xmlns:cc="http://creativecommons.org/ns#" xmlns:rdf="http://www.w3.org/1999/02/22-rdf-syntax-ns#">
   <cc:Work>
    <dc:type rdf:resource="http://purl.org/dc/dcmitype/StillImage"/>
    <dc:date>2026-07-07T07:11:33.446599</dc:date>
    <dc:format>image/svg+xml</dc:format>
    <dc:creator>
     <cc:Agent>
      <dc:title>Matplotlib v3.10.9, https://matplotlib.org/</dc:title>
     </cc:Agent>
    </dc:creator>
   </cc:Work>
  </rdf:RDF>
 </metadata>
 <defs>
  <style type="text/css">*{stroke-linejoin: round; stroke-linecap: butt}</style>
 </defs>
 <g id="figure_1">
  <g id="patch_1">
   <path d="M 0 495.838125 
L 480.72 495.838125 
L 480.72 0 
L 0 0 
z
" style="fill: #ffffff"/>
  </g>
  <g id="patch_2">
   <path d="M 7.2 488.638125 
L 473.52 488.638125 
L 473.52 22.318125 
L 7.2 22.318125 
z
" style="fill: #ffffff"/>
  </g>
  <g id="pane3d_1">
   <g id="patch_3">
    <path d="M 42.410376 373.658557 
L 196.404469 244.577655 
L 194.263804 58.419918 
L 32.900299 176.175654 
" style="fill: none; opacity: 0.5; stroke: #f2f2f2; stroke-linejoin: miter"/>
   </g>
  </g>
  <g id="pane3d_2">
   <g id="patch_4">
    <path d="M 196.404469 244.577655 
L 443.510044 316.40149 
L 452.32837 123.831763 
L 194.263804 58.419918 
" style="fill: none; opacity: 0.5; stroke: #e6e6e6; stroke-linejoin: miter"/>
   </g>
  </g>
  <g id="pane3d_3">
   <g id="patch_5">
    <path d="M 42.410376 373.658557 
L 304.354354 459.20946 
L 443.510044 316.40149 
L 196.404469 244.577655 
" style="fill: none; opacity: 0.5; stroke: #ececec; stroke-linejoin: miter"/>
   </g>
  </g>
  <g id="grid3d_1"/>
  <g id="grid3d_2"/>
  <g id="grid3d_3"/>
  <g id="axis3d_1">
   <g id="line2d_1">
    <path d="M 42.410376 373.658557 
L 304.354354 459.20946 
" style="fill: none; stroke: #000000; stroke-width: 0.8; stroke-linecap: square"/>
   </g>
  </g>
  <g id="axis3d_2">
   <g id="line2d_2">
    <path d="M 443.510044 316.40149 
L 304.354354 459.20946 
" style="fill: none; stroke: #000000; stroke-width: 0.8; stroke-linecap: square"/>
   </g>
  </g>
  <g id="axis3d_3">
   <g id="line2d_3">
    <path d="M 443.510044 316.40149 
L 452.32837 123.831763 
" style="fill: none; stroke: #000000; stroke-width: 0.8; stroke-linecap: square"/>
   </g>
  </g>
  <g id="axes_1">
   <g id="Path3DCollection_1">
    <defs>
     <path id="C0_0_7501417844" d="M 0 2.5 
C 0.663008 2.5 1.29895 2.236584 1.767767 1.767767 
C 2.236584 1.29895 2.5 0.663008 2.5 -0 
C 2.5 -0.663008 2.236584 -1.29895 1.767767 -1.767767 
C 1.29895 -2.236584 0.663008 -2.5 0 -2.5 
C -0.663008 -2.5 -1.29895 -2.236584 -1.767767 -1.767767 
C -2.236584 -1.29895 -2.5 -0.663008 -2.5 0 
C -2.5 0.663008 -2.236584 1.29895 -1.767767 1.767767 
C -1.29895 2.236584 -0.663008 2.5 0 2.5 
z
"/>
    </defs>
    <g clip-path="url(#pdc5fe61856)">
     <use xlink:href="#C0_0_7501417844" x="267.185379" y="215.344323" style="fill: #66bb6a; fill-opacity: 0.7; stroke: #66bb6a; stroke-opacity: 0.7"/>
    </g>
    <g clip-path="url(#pdc5fe61856)">
     <use xlink:href="#C0_0_7501417844" x="279.901061" y="201.749091" style="fill: #66bb6a; fill-opacity: 0.7; stroke: #66bb6a; stroke-opacity: 0.7"/>
    </g>
    <g clip-path="url(#pdc5fe61856)">
     <use xlink:href="#C0_0_7501417844" x="294.492842" y="214.838516" style="fill: #66bb6a; fill-opacity: 0.7; stroke: #66bb6a; stroke-opacity: 0.7"/>
    </g>
    <g clip-path="url(#pdc5fe61856)">
     <use xlink:href="#C0_0_7501417844" x="291.724967" y="204.118656" style="fill: #66bb6a; fill-opacity: 0.7; stroke: #66bb6a; stroke-opacity: 0.7"/>
    </g>
    <g clip-path="url(#pdc5fe61856)">
     <use xlink:href="#C0_0_7501417844" x="286.370162" y="192.126206" style="fill: #66bb6a; fill-opacity: 0.7; stroke: #66bb6a; stroke-opacity: 0.7"/>
    </g>
    <g clip-path="url(#pdc5fe61856)">
     <use xlink:href="#C0_0_7501417844" x="296.528589" y="200.293692" style="fill: #66bb6a; fill-opacity: 0.7; stroke: #66bb6a; stroke-opacity: 0.7"/>
    </g>
    <g clip-path="url(#pdc5fe61856)">
     <use xlink:href="#C0_0_7501417844" x="306.754679" y="228.496281" style="fill: #66bb6a; fill-opacity: 0.7; stroke: #66bb6a; stroke-opacity: 0.7"/>
    </g>
    <g clip-path="url(#pdc5fe61856)">
     <use xlink:href="#C0_0_7501417844" x="285.197892" y="188.009768" style="fill: #66bb6a; fill-opacity: 0.7; stroke: #66bb6a; stroke-opacity: 0.7"/>
    </g>
    <g clip-path="url(#pdc5fe61856)">
     <use xlink:href="#C0_0_7501417844" x="288.319511" y="183.06966" style="fill: #66bb6a; fill-opacity: 0.7; stroke: #66bb6a; stroke-opacity: 0.7"/>
    </g>
    <g clip-path="url(#pdc5fe61856)">
     <use xlink:href="#C0_0_7501417844" x="308.051718" y="200.752286" style="fill: #66bb6a; fill-opacity: 0.7; stroke: #66bb6a; stroke-opacity: 0.7"/>
    </g>
    <g clip-path="url(#pdc5fe61856)">
     <use xlink:href="#C0_0_7501417844" x="299.580378" y="190.640399" style="fill: #66bb6a; fill-opacity: 0.7; stroke: #66bb6a; stroke-opacity: 0.7"/>
    </g>
    <g clip-path="url(#pdc5fe61856)">
     <use xlink:href="#C0_0_7501417844" x="309.448011" y="199.759562" style="fill: #66bb6a; fill-opacity: 0.7; stroke: #66bb6a; stroke-opacity: 0.7"/>
    </g>
    <g clip-path="url(#pdc5fe61856)">
     <use xlink:href="#C0_0_7501417844" x="298.946309" y="187.864755" style="fill: #66bb6a; fill-opacity: 0.7; stroke: #66bb6a; stroke-opacity: 0.7"/>
    </g>
    <g clip-path="url(#pdc5fe61856)">
     <use xlink:href="#C0_0_7501417844" x="305.907239" y="194.333469" style="fill: #66bb6a; fill-opacity: 0.7; stroke: #66bb6a; stroke-opacity: 0.7"/>
    </g>
    <g clip-path="url(#pdc5fe61856)">
     <use xlink:href="#C0_0_7501417844" x="308.727529" y="197.652629" style="fill: #66bb6a; fill-opacity: 0.7; stroke: #66bb6a; stroke-opacity: 0.7"/>
    </g>
    <g clip-path="url(#pdc5fe61856)">
     <use xlink:href="#C0_0_7501417844" x="306.963925" y="193.075432" style="fill: #66bb6a; fill-opacity: 0.7; stroke: #66bb6a; stroke-opacity: 0.7"/>
    </g>
    <g clip-path="url(#pdc5fe61856)">
     <use xlink:href="#C0_0_7501417844" x="303.881266" y="188.981725" style="fill: #66bb6a; fill-opacity: 0.7; stroke: #66bb6a; stroke-opacity: 0.7"/>
    </g>
    <g clip-path="url(#pdc5fe61856)">
     <use xlink:href="#C0_0_7501417844" x="319.935754" y="212.626612" style="fill: #66bb6a; fill-opacity: 0.7; stroke: #66bb6a; stroke-opacity: 0.7"/>
    </g>
    <g clip-path="url(#pdc5fe61856)">
     <use xlink:href="#C0_0_7501417844" x="300.304862" y="185.201483" style="fill: #66bb6a; fill-opacity: 0.7; stroke: #66bb6a; stroke-opacity: 0.7"/>
    </g>
    <g clip-path="url(#pdc5fe61856)">
     <use xlink:href="#C0_0_7501417844" x="310.832657" y="195.344184" style="fill: #66bb6a; fill-opacity: 0.7; stroke: #66bb6a; stroke-opacity: 0.7"/>
    </g>
    <g clip-path="url(#pdc5fe61856)">
     <use xlink:href="#C0_0_7501417844" x="317.409995" y="204.075274" style="fill: #66bb6a; fill-opacity: 0.7; stroke: #66bb6a; stroke-opacity: 0.7"/>
    </g>
    <g clip-path="url(#pdc5fe61856)">
     <use xlink:href="#C0_0_7501417844" x="312.431171" y="193.690292" style="fill: #66bb6a; fill-opacity: 0.7; stroke: #66bb6a; stroke-opacity: 0.7"/>
    </g>
    <g clip-path="url(#pdc5fe61856)">
     <use xlink:href="#C0_0_7501417844" x="287.33094" y="174.68395" style="fill: #66bb6a; fill-opacity: 0.7; stroke: #66bb6a; stroke-opacity: 0.7"/>
    </g>
    <g clip-path="url(#pdc5fe61856)">
     <use xlink:href="#C0_0_7501417844" x="322.381844" y="205.990206" style="fill: #66bb6a; fill-opacity: 0.7; stroke: #66bb6a; stroke-opacity: 0.7"/>
    </g>
    <g clip-path="url(#pdc5fe61856)">
     <use xlink:href="#C0_0_7501417844" x="300.065779" y="177.71521" style="fill: #66bb6a; fill-opacity: 0.7; stroke: #66bb6a; stroke-opacity: 0.7"/>
    </g>
   </g>
   <g id="text_1">
    <!-- $p_1$ -->
    <g style="fill: #ef5350" transform="translate(380.621958 288.106104) scale(0.11 -0.11)">
     <defs>
      <path id="DejaVuSans-Oblique-70" d="M 3175 2156 
Q 3175 2616 2975 2859 
Q 2775 3103 2400 3103 
Q 2144 3103 1911 2972 
Q 1678 2841 1497 2591 
Q 1319 2344 1212 1994 
Q 1106 1644 1106 1300 
Q 1106 863 1306 627 
Q 1506 391 1875 391 
Q 2147 391 2380 519 
Q 2613 647 2778 891 
Q 2956 1147 3065 1494 
Q 3175 1841 3175 2156 
z
M 1394 2969 
Q 1625 3272 1939 3428 
Q 2253 3584 2638 3584 
Q 3175 3584 3472 3232 
Q 3769 2881 3769 2247 
Q 3769 1728 3584 1258 
Q 3400 788 3053 416 
Q 2822 169 2531 39 
Q 2241 -91 1919 -91 
Q 1547 -91 1294 64 
Q 1041 219 916 525 
L 556 -1331 
L -19 -1331 
L 922 3500 
L 1497 3500 
L 1394 2969 
z
" transform="scale(0.015625)"/>
      <path id="DejaVuSans-31" d="M 794 531 
L 1825 531 
L 1825 4091 
L 703 3866 
L 703 4441 
L 1819 4666 
L 2450 4666 
L 2450 531 
L 3481 531 
L 3481 0 
L 794 0 
L 794 531 
z
" transform="scale(0.015625)"/>
     </defs>
     <use xlink:href="#DejaVuSans-Oblique-70"/>
     <use xlink:href="#DejaVuSans-31" transform="translate(63.476562 -16.40625) scale(0.7)"/>
    </g>
   </g>
   <g id="text_2">
    <!-- $p_2$ -->
    <g style="fill: #66bb6a" transform="translate(317.882681 186.490138) scale(0.11 -0.11)">
     <defs>
      <path id="DejaVuSans-32" d="M 1228 531 
L 3431 531 
L 3431 0 
L 469 0 
L 469 531 
Q 828 903 1448 1529 
Q 2069 2156 2228 2338 
Q 2531 2678 2651 2914 
Q 2772 3150 2772 3378 
Q 2772 3750 2511 3984 
Q 2250 4219 1831 4219 
Q 1534 4219 1204 4116 
Q 875 4013 500 3803 
L 500 4441 
Q 881 4594 1212 4672 
Q 1544 4750 1819 4750 
Q 2544 4750 2975 4387 
Q 3406 4025 3406 3419 
Q 3406 3131 3298 2873 
Q 3191 2616 2906 2266 
Q 2828 2175 2409 1742 
Q 1991 1309 1228 531 
z
" transform="scale(0.015625)"/>
     </defs>
     <use xlink:href="#DejaVuSans-Oblique-70"/>
     <use xlink:href="#DejaVuSans-32" transform="translate(63.476562 -16.40625) scale(0.7)"/>
    </g>
   </g>
   <g id="text_3">
    <!-- $p_3$ -->
    <g style="fill: #42a5f5" transform="translate(245.506241 149.057137) scale(0.11 -0.11)">
     <defs>
      <path id="DejaVuSans-33" d="M 2597 2516 
Q 3050 2419 3304 2112 
Q 3559 1806 3559 1356 
Q 3559 666 3084 287 
Q 2609 -91 1734 -91 
Q 1441 -91 1130 -33 
Q 819 25 488 141 
L 488 750 
Q 750 597 1062 519 
Q 1375 441 1716 441 
Q 2309 441 2620 675 
Q 2931 909 2931 1356 
Q 2931 1769 2642 2001 
Q 2353 2234 1838 2234 
L 1294 2234 
L 1294 2753 
L 1863 2753 
Q 2328 2753 2575 2939 
Q 2822 3125 2822 3475 
Q 2822 3834 2567 4026 
Q 2313 4219 1838 4219 
Q 1578 4219 1281 4162 
Q 984 4106 628 3988 
L 628 4550 
Q 988 4650 1302 4700 
Q 1616 4750 1894 4750 
Q 2613 4750 3031 4423 
Q 3450 4097 3450 3541 
Q 3450 3153 3228 2886 
Q 3006 2619 2597 2516 
z
" transform="scale(0.015625)"/>
     </defs>
     <use xlink:href="#DejaVuSans-Oblique-70"/>
     <use xlink:href="#DejaVuSans-33" transform="translate(63.476562 -16.40625) scale(0.7)"/>
    </g>
   </g>
   <g id="text_4">
    <!-- Features and Prototypes Projected on Spherical manifold -->
    <g style="fill: #111111" transform="translate(46.1775 16.318125) scale(0.12 -0.12)">
     <defs>
      <path id="DejaVuSans-Bold-46" d="M 588 4666 
L 3834 4666 
L 3834 3756 
L 1791 3756 
L 1791 2888 
L 3713 2888 
L 3713 1978 
L 1791 1978 
L 1791 0 
L 588 0 
L 588 4666 
z
" transform="scale(0.015625)"/>
      <path id="DejaVuSans-Bold-65" d="M 4031 1759 
L 4031 1441 
L 1416 1441 
Q 1456 1047 1700 850 
Q 1944 653 2381 653 
Q 2734 653 3104 758 
Q 3475 863 3866 1075 
L 3866 213 
Q 3469 63 3072 -14 
Q 2675 -91 2278 -91 
Q 1328 -91 801 392 
Q 275 875 275 1747 
Q 275 2603 792 3093 
Q 1309 3584 2216 3584 
Q 3041 3584 3536 3087 
Q 4031 2591 4031 1759 
z
M 2881 2131 
Q 2881 2450 2695 2645 
Q 2509 2841 2209 2841 
Q 1884 2841 1681 2658 
Q 1478 2475 1428 2131 
L 2881 2131 
z
" transform="scale(0.015625)"/>
      <path id="DejaVuSans-Bold-61" d="M 2106 1575 
Q 1756 1575 1579 1456 
Q 1403 1338 1403 1106 
Q 1403 894 1545 773 
Q 1688 653 1941 653 
Q 2256 653 2472 879 
Q 2688 1106 2688 1447 
L 2688 1575 
L 2106 1575 
z
M 3816 1997 
L 3816 0 
L 2688 0 
L 2688 519 
Q 2463 200 2181 54 
Q 1900 -91 1497 -91 
Q 953 -91 614 226 
Q 275 544 275 1050 
Q 275 1666 698 1953 
Q 1122 2241 2028 2241 
L 2688 2241 
L 2688 2328 
Q 2688 2594 2478 2717 
Q 2269 2841 1825 2841 
Q 1466 2841 1156 2769 
Q 847 2697 581 2553 
L 581 3406 
Q 941 3494 1303 3539 
Q 1666 3584 2028 3584 
Q 2975 3584 3395 3211 
Q 3816 2838 3816 1997 
z
" transform="scale(0.015625)"/>
      <path id="DejaVuSans-Bold-74" d="M 1759 4494 
L 1759 3500 
L 2913 3500 
L 2913 2700 
L 1759 2700 
L 1759 1216 
Q 1759 972 1856 886 
Q 1953 800 2241 800 
L 2816 800 
L 2816 0 
L 1856 0 
Q 1194 0 917 276 
Q 641 553 641 1216 
L 641 2700 
L 84 2700 
L 84 3500 
L 641 3500 
L 641 4494 
L 1759 4494 
z
" transform="scale(0.015625)"/>
      <path id="DejaVuSans-Bold-75" d="M 500 1363 
L 500 3500 
L 1625 3500 
L 1625 3150 
Q 1625 2866 1622 2436 
Q 1619 2006 1619 1863 
Q 1619 1441 1641 1255 
Q 1663 1069 1716 984 
Q 1784 875 1895 815 
Q 2006 756 2150 756 
Q 2500 756 2700 1025 
Q 2900 1294 2900 1772 
L 2900 3500 
L 4019 3500 
L 4019 0 
L 2900 0 
L 2900 506 
Q 2647 200 2364 54 
Q 2081 -91 1741 -91 
Q 1134 -91 817 281 
Q 500 653 500 1363 
z
" transform="scale(0.015625)"/>
      <path id="DejaVuSans-Bold-72" d="M 3138 2547 
Q 2991 2616 2845 2648 
Q 2700 2681 2553 2681 
Q 2122 2681 1889 2404 
Q 1656 2128 1656 1613 
L 1656 0 
L 538 0 
L 538 3500 
L 1656 3500 
L 1656 2925 
Q 1872 3269 2151 3426 
Q 2431 3584 2822 3584 
Q 2878 3584 2943 3579 
Q 3009 3575 3134 3559 
L 3138 2547 
z
" transform="scale(0.015625)"/>
      <path id="DejaVuSans-Bold-73" d="M 3272 3391 
L 3272 2541 
Q 2913 2691 2578 2766 
Q 2244 2841 1947 2841 
Q 1628 2841 1473 2761 
Q 1319 2681 1319 2516 
Q 1319 2381 1436 2309 
Q 1553 2238 1856 2203 
L 2053 2175 
Q 2913 2066 3209 1816 
Q 3506 1566 3506 1031 
Q 3506 472 3093 190 
Q 2681 -91 1863 -91 
Q 1516 -91 1145 -36 
Q 775 19 384 128 
L 384 978 
Q 719 816 1070 734 
Q 1422 653 1784 653 
Q 2113 653 2278 743 
Q 2444 834 2444 1013 
Q 2444 1163 2330 1236 
Q 2216 1309 1875 1350 
L 1678 1375 
Q 931 1469 631 1722 
Q 331 1975 331 2491 
Q 331 3047 712 3315 
Q 1094 3584 1881 3584 
Q 2191 3584 2531 3537 
Q 2872 3491 3272 3391 
z
" transform="scale(0.015625)"/>
      <path id="DejaVuSans-Bold-20" transform="scale(0.015625)"/>
      <path id="DejaVuSans-Bold-6e" d="M 4056 2131 
L 4056 0 
L 2931 0 
L 2931 347 
L 2931 1631 
Q 2931 2084 2911 2256 
Q 2891 2428 2841 2509 
Q 2775 2619 2662 2680 
Q 2550 2741 2406 2741 
Q 2056 2741 1856 2470 
Q 1656 2200 1656 1722 
L 1656 0 
L 538 0 
L 538 3500 
L 1656 3500 
L 1656 2988 
Q 1909 3294 2193 3439 
Q 2478 3584 2822 3584 
Q 3428 3584 3742 3212 
Q 4056 2841 4056 2131 
z
" transform="scale(0.015625)"/>
      <path id="DejaVuSans-Bold-64" d="M 2919 2988 
L 2919 4863 
L 4044 4863 
L 4044 0 
L 2919 0 
L 2919 506 
Q 2688 197 2409 53 
Q 2131 -91 1766 -91 
Q 1119 -91 703 423 
Q 288 938 288 1747 
Q 288 2556 703 3070 
Q 1119 3584 1766 3584 
Q 2128 3584 2408 3439 
Q 2688 3294 2919 2988 
z
M 2181 722 
Q 2541 722 2730 984 
Q 2919 1247 2919 1747 
Q 2919 2247 2730 2509 
Q 2541 2772 2181 2772 
Q 1825 2772 1636 2509 
Q 1447 2247 1447 1747 
Q 1447 1247 1636 984 
Q 1825 722 2181 722 
z
" transform="scale(0.015625)"/>
      <path id="DejaVuSans-Bold-50" d="M 588 4666 
L 2584 4666 
Q 3475 4666 3951 4270 
Q 4428 3875 4428 3144 
Q 4428 2409 3951 2014 
Q 3475 1619 2584 1619 
L 1791 1619 
L 1791 0 
L 588 0 
L 588 4666 
z
M 1791 3794 
L 1791 2491 
L 2456 2491 
Q 2806 2491 2997 2661 
Q 3188 2831 3188 3144 
Q 3188 3456 2997 3625 
Q 2806 3794 2456 3794 
L 1791 3794 
z
" transform="scale(0.015625)"/>
      <path id="DejaVuSans-Bold-6f" d="M 2203 2784 
Q 1831 2784 1636 2517 
Q 1441 2250 1441 1747 
Q 1441 1244 1636 976 
Q 1831 709 2203 709 
Q 2569 709 2762 976 
Q 2956 1244 2956 1747 
Q 2956 2250 2762 2517 
Q 2569 2784 2203 2784 
z
M 2203 3584 
Q 3106 3584 3614 3096 
Q 4122 2609 4122 1747 
Q 4122 884 3614 396 
Q 3106 -91 2203 -91 
Q 1297 -91 786 396 
Q 275 884 275 1747 
Q 275 2609 786 3096 
Q 1297 3584 2203 3584 
z
" transform="scale(0.015625)"/>
      <path id="DejaVuSans-Bold-79" d="M 78 3500 
L 1197 3500 
L 2138 1125 
L 2938 3500 
L 4056 3500 
L 2584 -331 
Q 2363 -916 2067 -1148 
Q 1772 -1381 1288 -1381 
L 641 -1381 
L 641 -647 
L 991 -647 
Q 1275 -647 1404 -556 
Q 1534 -466 1606 -231 
L 1638 -134 
L 78 3500 
z
" transform="scale(0.015625)"/>
      <path id="DejaVuSans-Bold-70" d="M 1656 506 
L 1656 -1331 
L 538 -1331 
L 538 3500 
L 1656 3500 
L 1656 2988 
Q 1888 3294 2169 3439 
Q 2450 3584 2816 3584 
Q 3463 3584 3878 3070 
Q 4294 2556 4294 1747 
Q 4294 938 3878 423 
Q 3463 -91 2816 -91 
Q 2450 -91 2169 54 
Q 1888 200 1656 506 
z
M 2400 2772 
Q 2041 2772 1848 2508 
Q 1656 2244 1656 1747 
Q 1656 1250 1848 986 
Q 2041 722 2400 722 
Q 2759 722 2948 984 
Q 3138 1247 3138 1747 
Q 3138 2247 2948 2509 
Q 2759 2772 2400 2772 
z
" transform="scale(0.015625)"/>
      <path id="DejaVuSans-Bold-6a" d="M 538 3500 
L 1656 3500 
L 1656 63 
Q 1656 -641 1318 -1011 
Q 981 -1381 341 -1381 
L -213 -1381 
L -213 -647 
L -19 -647 
Q 300 -647 419 -503 
Q 538 -359 538 63 
L 538 3500 
z
M 538 4863 
L 1656 4863 
L 1656 3950 
L 538 3950 
L 538 4863 
z
" transform="scale(0.015625)"/>
      <path id="DejaVuSans-Bold-63" d="M 3366 3391 
L 3366 2478 
Q 3138 2634 2908 2709 
Q 2678 2784 2431 2784 
Q 1963 2784 1702 2511 
Q 1441 2238 1441 1747 
Q 1441 1256 1702 982 
Q 1963 709 2431 709 
Q 2694 709 2930 787 
Q 3166 866 3366 1019 
L 3366 103 
Q 3103 6 2833 -42 
Q 2563 -91 2291 -91 
Q 1344 -91 809 395 
Q 275 881 275 1747 
Q 275 2613 809 3098 
Q 1344 3584 2291 3584 
Q 2566 3584 2833 3536 
Q 3100 3488 3366 3391 
z
" transform="scale(0.015625)"/>
      <path id="DejaVuSans-Bold-53" d="M 3834 4519 
L 3834 3531 
Q 3450 3703 3084 3790 
Q 2719 3878 2394 3878 
Q 1963 3878 1756 3759 
Q 1550 3641 1550 3391 
Q 1550 3203 1689 3098 
Q 1828 2994 2194 2919 
L 2706 2816 
Q 3484 2659 3812 2340 
Q 4141 2022 4141 1434 
Q 4141 663 3683 286 
Q 3225 -91 2284 -91 
Q 1841 -91 1394 -6 
Q 947 78 500 244 
L 500 1259 
Q 947 1022 1364 901 
Q 1781 781 2169 781 
Q 2563 781 2772 912 
Q 2981 1044 2981 1288 
Q 2981 1506 2839 1625 
Q 2697 1744 2272 1838 
L 1806 1941 
Q 1106 2091 782 2419 
Q 459 2747 459 3303 
Q 459 4000 909 4375 
Q 1359 4750 2203 4750 
Q 2588 4750 2994 4692 
Q 3400 4634 3834 4519 
z
" transform="scale(0.015625)"/>
      <path id="DejaVuSans-Bold-68" d="M 4056 2131 
L 4056 0 
L 2931 0 
L 2931 347 
L 2931 1625 
Q 2931 2084 2911 2256 
Q 2891 2428 2841 2509 
Q 2775 2619 2662 2680 
Q 2550 2741 2406 2741 
Q 2056 2741 1856 2470 
Q 1656 2200 1656 1722 
L 1656 0 
L 538 0 
L 538 4863 
L 1656 4863 
L 1656 2988 
Q 1909 3294 2193 3439 
Q 2478 3584 2822 3584 
Q 3428 3584 3742 3212 
Q 4056 2841 4056 2131 
z
" transform="scale(0.015625)"/>
      <path id="DejaVuSans-Bold-69" d="M 538 3500 
L 1656 3500 
L 1656 0 
L 538 0 
L 538 3500 
z
M 538 4863 
L 1656 4863 
L 1656 3950 
L 538 3950 
L 538 4863 
z
" transform="scale(0.015625)"/>
      <path id="DejaVuSans-Bold-6c" d="M 538 4863 
L 1656 4863 
L 1656 0 
L 538 0 
L 538 4863 
z
" transform="scale(0.015625)"/>
      <path id="DejaVuSans-Bold-6d" d="M 3781 2919 
Q 3994 3244 4286 3414 
Q 4578 3584 4928 3584 
Q 5531 3584 5847 3212 
Q 6163 2841 6163 2131 
L 6163 0 
L 5038 0 
L 5038 1825 
Q 5041 1866 5042 1909 
Q 5044 1953 5044 2034 
Q 5044 2406 4934 2573 
Q 4825 2741 4581 2741 
Q 4263 2741 4089 2478 
Q 3916 2216 3909 1719 
L 3909 0 
L 2784 0 
L 2784 1825 
Q 2784 2406 2684 2573 
Q 2584 2741 2328 2741 
Q 2006 2741 1831 2477 
Q 1656 2213 1656 1722 
L 1656 0 
L 531 0 
L 531 3500 
L 1656 3500 
L 1656 2988 
Q 1863 3284 2130 3434 
Q 2397 3584 2719 3584 
Q 3081 3584 3359 3409 
Q 3638 3234 3781 2919 
z
" transform="scale(0.015625)"/>
      <path id="DejaVuSans-Bold-66" d="M 2841 4863 
L 2841 4128 
L 2222 4128 
Q 1984 4128 1890 4042 
Q 1797 3956 1797 3744 
L 1797 3500 
L 2753 3500 
L 2753 2700 
L 1797 2700 
L 1797 0 
L 678 0 
L 678 2700 
L 122 2700 
L 122 3500 
L 678 3500 
L 678 3744 
Q 678 4316 997 4589 
Q 1316 4863 1984 4863 
L 2841 4863 
z
" transform="scale(0.015625)"/>
     </defs>
     <use xlink:href="#DejaVuSans-Bold-46"/>
     <use xlink:href="#DejaVuSans-Bold-65" transform="translate(64.310547 0)"/>
     <use xlink:href="#DejaVuSans-Bold-61" transform="translate(132.132812 0)"/>
     <use xlink:href="#DejaVuSans-Bold-74" transform="translate(199.613281 0)"/>
     <use xlink:href="#DejaVuSans-Bold-75" transform="translate(247.416016 0)"/>
     <use xlink:href="#DejaVuSans-Bold-72" transform="translate(318.607422 0)"/>
     <use xlink:href="#DejaVuSans-Bold-65" transform="translate(367.923828 0)"/>
     <use xlink:href="#DejaVuSans-Bold-73" transform="translate(435.746094 0)"/>
     <use xlink:href="#DejaVuSans-Bold-20" transform="translate(495.267578 0)"/>
     <use xlink:href="#DejaVuSans-Bold-61" transform="translate(530.082031 0)"/>
     <use xlink:href="#DejaVuSans-Bold-6e" transform="translate(597.5625 0)"/>
     <use xlink:href="#DejaVuSans-Bold-64" transform="translate(668.753906 0)"/>
     <use xlink:href="#DejaVuSans-Bold-20" transform="translate(740.335938 0)"/>
     <use xlink:href="#DejaVuSans-Bold-50" transform="translate(775.150391 0)"/>
     <use xlink:href="#DejaVuSans-Bold-72" transform="translate(848.441406 0)"/>
     <use xlink:href="#DejaVuSans-Bold-6f" transform="translate(897.757812 0)"/>
     <use xlink:href="#DejaVuSans-Bold-74" transform="translate(966.458984 0)"/>
     <use xlink:href="#DejaVuSans-Bold-6f" transform="translate(1014.261719 0)"/>
     <use xlink:href="#DejaVuSans-Bold-74" transform="translate(1082.962891 0)"/>
     <use xlink:href="#DejaVuSans-Bold-79" transform="translate(1130.765625 0)"/>
     <use xlink:href="#DejaVuSans-Bold-70" transform="translate(1195.951172 0)"/>
     <use xlink:href="#DejaVuSans-Bold-65" transform="translate(1267.533203 0)"/>
     <use xlink:href="#DejaVuSans-Bold-73" transform="translate(1335.355469 0)"/>
     <use xlink:href="#DejaVuSans-Bold-20" transform="translate(1394.876953 0)"/>
     <use xlink:href="#DejaVuSans-Bold-50" transform="translate(1429.691406 0)"/>
     <use xlink:href="#DejaVuSans-Bold-72" transform="translate(1502.982422 0)"/>
     <use xlink:href="#DejaVuSans-Bold-6f" transform="translate(1552.298828 0)"/>
     <use xlink:href="#DejaVuSans-Bold-6a" transform="translate(1621 0)"/>
     <use xlink:href="#DejaVuSans-Bold-65" transform="translate(1655.277344 0)"/>
     <use xlink:href="#DejaVuSans-Bold-63" transform="translate(1723.099609 0)"/>
     <use xlink:href="#DejaVuSans-Bold-74" transform="translate(1782.376953 0)"/>
     <use xlink:href="#DejaVuSans-Bold-65" transform="translate(1830.179688 0)"/>
     <use xlink:href="#DejaVuSans-Bold-64" transform="translate(1898.001953 0)"/>
     <use xlink:href="#DejaVuSans-Bold-20" transform="translate(1969.583984 0)"/>
     <use xlink:href="#DejaVuSans-Bold-6f" transform="translate(2004.398438 0)"/>
     <use xlink:href="#DejaVuSans-Bold-6e" transform="translate(2073.099609 0)"/>
     <use xlink:href="#DejaVuSans-Bold-20" transform="translate(2144.291016 0)"/>
     <use xlink:href="#DejaVuSans-Bold-53" transform="translate(2179.105469 0)"/>
     <use xlink:href="#DejaVuSans-Bold-70" transform="translate(2251.126953 0)"/>
     <use xlink:href="#DejaVuSans-Bold-68" transform="translate(2322.708984 0)"/>
     <use xlink:href="#DejaVuSans-Bold-65" transform="translate(2393.900391 0)"/>
     <use xlink:href="#DejaVuSans-Bold-72" transform="translate(2461.722656 0)"/>
     <use xlink:href="#DejaVuSans-Bold-69" transform="translate(2511.039062 0)"/>
     <use xlink:href="#DejaVuSans-Bold-63" transform="translate(2545.316406 0)"/>
     <use xlink:href="#DejaVuSans-Bold-61" transform="translate(2604.59375 0)"/>
     <use xlink:href="#DejaVuSans-Bold-6c" transform="translate(2672.074219 0)"/>
     <use xlink:href="#DejaVuSans-Bold-20" transform="translate(2706.351562 0)"/>
     <use xlink:href="#DejaVuSans-Bold-6d" transform="translate(2741.166016 0)"/>
     <use xlink:href="#DejaVuSans-Bold-61" transform="translate(2845.365234 0)"/>
     <use xlink:href="#DejaVuSans-Bold-6e" transform="translate(2912.845703 0)"/>
     <use xlink:href="#DejaVuSans-Bold-69" transform="translate(2984.037109 0)"/>
     <use xlink:href="#DejaVuSans-Bold-66" transform="translate(3018.314453 0)"/>
     <use xlink:href="#DejaVuSans-Bold-6f" transform="translate(3061.820312 0)"/>
     <use xlink:href="#DejaVuSans-Bold-6c" transform="translate(3130.521484 0)"/>
     <use xlink:href="#DejaVuSans-Bold-64" transform="translate(3164.798828 0)"/>
    </g>
   </g>
   <g id="Line3DCollection_1">
    <path d="M 311.839409 191.719983 
L 245.532123 249.102278 
" clip-path="url(#pdc5fe61856)" style="fill: none; stroke: #66bb6a; stroke-width: 2"/>
    <path d="M 311.839409 191.719983 
L 304.387438 200.844226 
" clip-path="url(#pdc5fe61856)" style="fill: none; stroke: #66bb6a; stroke-width: 2"/>
    <path d="M 311.839409 191.719983 
L 304.458254 195.429038 
" clip-path="url(#pdc5fe61856)" style="fill: none; stroke: #66bb6a; stroke-width: 2"/>
   </g>
   <g id="Line3DCollection_2">
    <path d="M 245.508539 157.938367 
L 245.532123 249.102278 
" clip-path="url(#pdc5fe61856)" style="fill: none; stroke: #42a5f5; stroke-width: 2"/>
    <path d="M 245.508539 157.938367 
L 241.714672 167.664246 
" clip-path="url(#pdc5fe61856)" style="fill: none; stroke: #42a5f5; stroke-width: 2"/>
    <path d="M 245.508539 157.938367 
L 249.313702 169.737063 
" clip-path="url(#pdc5fe61856)" style="fill: none; stroke: #42a5f5; stroke-width: 2"/>
   </g>
   <g id="Line3DCollection_3">
    <path d="M 368.588213 284.63166 
L 245.532123 249.102278 
" clip-path="url(#pdc5fe61856)" style="fill: none; stroke: #ef5350; stroke-width: 2"/>
    <path d="M 368.588213 284.63166 
L 353.948014 283.235798 
" clip-path="url(#pdc5fe61856)" style="fill: none; stroke: #ef5350; stroke-width: 2"/>
    <path d="M 368.588213 284.63166 
L 354.087346 277.610088 
" clip-path="url(#pdc5fe61856)" style="fill: none; stroke: #ef5350; stroke-width: 2"/>
   </g>
   <g id="Path3DCollection_2">
    <defs>
     <path id="C1_0_bced1ab824" d="M 0 2.5 
C 0.663008 2.5 1.29895 2.236584 1.767767 1.767767 
C 2.236584 1.29895 2.5 0.663008 2.5 -0 
C 2.5 -0.663008 2.236584 -1.29895 1.767767 -1.767767 
C 1.29895 -2.236584 0.663008 -2.5 0 -2.5 
C -0.663008 -2.5 -1.29895 -2.236584 -1.767767 -1.767767 
C -2.236584 -1.29895 -2.5 -0.663008 -2.5 0 
C -2.5 0.663008 -2.236584 1.29895 -1.767767 1.767767 
C -1.29895 2.236584 -0.663008 2.5 0 2.5 
z
"/>
    </defs>
    <g clip-path="url(#pdc5fe61856)">
     <use xlink:href="#C1_0_bced1ab824" x="256.91695" y="144.688212" style="fill: #42a5f5; fill-opacity: 0.7; stroke: #42a5f5; stroke-opacity: 0.7"/>
    </g>
    <g clip-path="url(#pdc5fe61856)">
     <use xlink:href="#C1_0_bced1ab824" x="276.973767" y="150.161227" style="fill: #42a5f5; fill-opacity: 0.7; stroke: #42a5f5; stroke-opacity: 0.7"/>
    </g>
    <g clip-path="url(#pdc5fe61856)">
     <use xlink:href="#C1_0_bced1ab824" x="221.120847" y="152.481798" style="fill: #42a5f5; fill-opacity: 0.7; stroke: #42a5f5; stroke-opacity: 0.7"/>
    </g>
    <g clip-path="url(#pdc5fe61856)">
     <use xlink:href="#C1_0_bced1ab824" x="202.620753" y="159.257282" style="fill: #42a5f5; fill-opacity: 0.7; stroke: #42a5f5; stroke-opacity: 0.7"/>
    </g>
    <g clip-path="url(#pdc5fe61856)">
     <use xlink:href="#C1_0_bced1ab824" x="266.411348" y="155.092529" style="fill: #42a5f5; fill-opacity: 0.7; stroke: #42a5f5; stroke-opacity: 0.7"/>
    </g>
    <g clip-path="url(#pdc5fe61856)">
     <use xlink:href="#C1_0_bced1ab824" x="255.038347" y="154.991685" style="fill: #42a5f5; fill-opacity: 0.7; stroke: #42a5f5; stroke-opacity: 0.7"/>
    </g>
    <g clip-path="url(#pdc5fe61856)">
     <use xlink:href="#C1_0_bced1ab824" x="240.758198" y="155.925393" style="fill: #42a5f5; fill-opacity: 0.7; stroke: #42a5f5; stroke-opacity: 0.7"/>
    </g>
    <g clip-path="url(#pdc5fe61856)">
     <use xlink:href="#C1_0_bced1ab824" x="272.311852" y="158.19837" style="fill: #42a5f5; fill-opacity: 0.7; stroke: #42a5f5; stroke-opacity: 0.7"/>
    </g>
    <g clip-path="url(#pdc5fe61856)">
     <use xlink:href="#C1_0_bced1ab824" x="241.115642" y="157.829326" style="fill: #42a5f5; fill-opacity: 0.7; stroke: #42a5f5; stroke-opacity: 0.7"/>
    </g>
    <g clip-path="url(#pdc5fe61856)">
     <use xlink:href="#C1_0_bced1ab824" x="211.929182" y="161.630111" style="fill: #42a5f5; fill-opacity: 0.7; stroke: #42a5f5; stroke-opacity: 0.7"/>
    </g>
    <g clip-path="url(#pdc5fe61856)">
     <use xlink:href="#C1_0_bced1ab824" x="250.450536" y="159.082493" style="fill: #42a5f5; fill-opacity: 0.7; stroke: #42a5f5; stroke-opacity: 0.7"/>
    </g>
    <g clip-path="url(#pdc5fe61856)">
     <use xlink:href="#C1_0_bced1ab824" x="251.665655" y="160.802023" style="fill: #42a5f5; fill-opacity: 0.7; stroke: #42a5f5; stroke-opacity: 0.7"/>
    </g>
    <g clip-path="url(#pdc5fe61856)">
     <use xlink:href="#C1_0_bced1ab824" x="211.80694" y="166.351059" style="fill: #42a5f5; fill-opacity: 0.7; stroke: #42a5f5; stroke-opacity: 0.7"/>
    </g>
    <g clip-path="url(#pdc5fe61856)">
     <use xlink:href="#C1_0_bced1ab824" x="253.582681" y="163.196088" style="fill: #42a5f5; fill-opacity: 0.7; stroke: #42a5f5; stroke-opacity: 0.7"/>
    </g>
    <g clip-path="url(#pdc5fe61856)">
     <use xlink:href="#C1_0_bced1ab824" x="241.319469" y="164.246321" style="fill: #42a5f5; fill-opacity: 0.7; stroke: #42a5f5; stroke-opacity: 0.7"/>
    </g>
    <g clip-path="url(#pdc5fe61856)">
     <use xlink:href="#C1_0_bced1ab824" x="232.15754" y="165.526358" style="fill: #42a5f5; fill-opacity: 0.7; stroke: #42a5f5; stroke-opacity: 0.7"/>
    </g>
    <g clip-path="url(#pdc5fe61856)">
     <use xlink:href="#C1_0_bced1ab824" x="246.723787" y="165.27443" style="fill: #42a5f5; fill-opacity: 0.7; stroke: #42a5f5; stroke-opacity: 0.7"/>
    </g>
    <g clip-path="url(#pdc5fe61856)">
     <use xlink:href="#C1_0_bced1ab824" x="217.119039" y="168.362002" style="fill: #42a5f5; fill-opacity: 0.7; stroke: #42a5f5; stroke-opacity: 0.7"/>
    </g>
    <g clip-path="url(#pdc5fe61856)">
     <use xlink:href="#C1_0_bced1ab824" x="248.103618" y="165.731015" style="fill: #42a5f5; fill-opacity: 0.7; stroke: #42a5f5; stroke-opacity: 0.7"/>
    </g>
    <g clip-path="url(#pdc5fe61856)">
     <use xlink:href="#C1_0_bced1ab824" x="261.331617" y="167.773806" style="fill: #42a5f5; fill-opacity: 0.7; stroke: #42a5f5; stroke-opacity: 0.7"/>
    </g>
    <g clip-path="url(#pdc5fe61856)">
     <use xlink:href="#C1_0_bced1ab824" x="242.510996" y="167.122285" style="fill: #42a5f5; fill-opacity: 0.7; stroke: #42a5f5; stroke-opacity: 0.7"/>
    </g>
    <g clip-path="url(#pdc5fe61856)">
     <use xlink:href="#C1_0_bced1ab824" x="235.658217" y="169.956583" style="fill: #42a5f5; fill-opacity: 0.7; stroke: #42a5f5; stroke-opacity: 0.7"/>
    </g>
    <g clip-path="url(#pdc5fe61856)">
     <use xlink:href="#C1_0_bced1ab824" x="266.209519" y="172.486828" style="fill: #42a5f5; fill-opacity: 0.7; stroke: #42a5f5; stroke-opacity: 0.7"/>
    </g>
    <g clip-path="url(#pdc5fe61856)">
     <use xlink:href="#C1_0_bced1ab824" x="249.165364" y="176.417367" style="fill: #42a5f5; fill-opacity: 0.7; stroke: #42a5f5; stroke-opacity: 0.7"/>
    </g>
    <g clip-path="url(#pdc5fe61856)">
     <use xlink:href="#C1_0_bced1ab824" x="248.497855" y="179.321728" style="fill: #42a5f5; fill-opacity: 0.7; stroke: #42a5f5; stroke-opacity: 0.7"/>
    </g>
   </g>
   <g id="Path3DCollection_3">
    <defs>
     <path id="C2_0_6830a48474" d="M 0 2.5 
C 0.663008 2.5 1.29895 2.236584 1.767767 1.767767 
C 2.236584 1.29895 2.5 0.663008 2.5 -0 
C 2.5 -0.663008 2.236584 -1.29895 1.767767 -1.767767 
C 1.29895 -2.236584 0.663008 -2.5 0 -2.5 
C -0.663008 -2.5 -1.29895 -2.236584 -1.767767 -1.767767 
C -2.236584 -1.29895 -2.5 -0.663008 -2.5 0 
C -2.5 0.663008 -2.236584 1.29895 -1.767767 1.767767 
C -1.29895 2.236584 -0.663008 2.5 0 2.5 
z
"/>
    </defs>
    <g clip-path="url(#pdc5fe61856)">
     <use xlink:href="#C2_0_6830a48474" x="368.416663" y="283.066697" style="fill: #ef5350; fill-opacity: 0.7; stroke: #ef5350; stroke-opacity: 0.7"/>
    </g>
    <g clip-path="url(#pdc5fe61856)">
     <use xlink:href="#C2_0_6830a48474" x="370.321571" y="275.446747" style="fill: #ef5350; fill-opacity: 0.7; stroke: #ef5350; stroke-opacity: 0.7"/>
    </g>
    <g clip-path="url(#pdc5fe61856)">
     <use xlink:href="#C2_0_6830a48474" x="370.717546" y="269.803672" style="fill: #ef5350; fill-opacity: 0.7; stroke: #ef5350; stroke-opacity: 0.7"/>
    </g>
    <g clip-path="url(#pdc5fe61856)">
     <use xlink:href="#C2_0_6830a48474" x="370.743681" y="266.539338" style="fill: #ef5350; fill-opacity: 0.7; stroke: #ef5350; stroke-opacity: 0.7"/>
    </g>
    <g clip-path="url(#pdc5fe61856)">
     <use xlink:href="#C2_0_6830a48474" x="354.183659" y="308.079049" style="fill: #ef5350; fill-opacity: 0.7; stroke: #ef5350; stroke-opacity: 0.7"/>
    </g>
    <g clip-path="url(#pdc5fe61856)">
     <use xlink:href="#C2_0_6830a48474" x="368.656354" y="243.140881" style="fill: #ef5350; fill-opacity: 0.7; stroke: #ef5350; stroke-opacity: 0.7"/>
    </g>
    <g clip-path="url(#pdc5fe61856)">
     <use xlink:href="#C2_0_6830a48474" x="368.090825" y="274.135189" style="fill: #ef5350; fill-opacity: 0.7; stroke: #ef5350; stroke-opacity: 0.7"/>
    </g>
    <g clip-path="url(#pdc5fe61856)">
     <use xlink:href="#C2_0_6830a48474" x="365.54128" y="283.261846" style="fill: #ef5350; fill-opacity: 0.7; stroke: #ef5350; stroke-opacity: 0.7"/>
    </g>
    <g clip-path="url(#pdc5fe61856)">
     <use xlink:href="#C2_0_6830a48474" x="362.557355" y="290.416352" style="fill: #ef5350; fill-opacity: 0.7; stroke: #ef5350; stroke-opacity: 0.7"/>
    </g>
    <g clip-path="url(#pdc5fe61856)">
     <use xlink:href="#C2_0_6830a48474" x="366.641396" y="271.503588" style="fill: #ef5350; fill-opacity: 0.7; stroke: #ef5350; stroke-opacity: 0.7"/>
    </g>
    <g clip-path="url(#pdc5fe61856)">
     <use xlink:href="#C2_0_6830a48474" x="364.368283" y="276.823194" style="fill: #ef5350; fill-opacity: 0.7; stroke: #ef5350; stroke-opacity: 0.7"/>
    </g>
    <g clip-path="url(#pdc5fe61856)">
     <use xlink:href="#C2_0_6830a48474" x="360.08428" y="287.495249" style="fill: #ef5350; fill-opacity: 0.7; stroke: #ef5350; stroke-opacity: 0.7"/>
    </g>
    <g clip-path="url(#pdc5fe61856)">
     <use xlink:href="#C2_0_6830a48474" x="361.959051" y="272.366817" style="fill: #ef5350; fill-opacity: 0.7; stroke: #ef5350; stroke-opacity: 0.7"/>
    </g>
    <g clip-path="url(#pdc5fe61856)">
     <use xlink:href="#C2_0_6830a48474" x="362.273634" y="268.706786" style="fill: #ef5350; fill-opacity: 0.7; stroke: #ef5350; stroke-opacity: 0.7"/>
    </g>
    <g clip-path="url(#pdc5fe61856)">
     <use xlink:href="#C2_0_6830a48474" x="356.077629" y="292.740966" style="fill: #ef5350; fill-opacity: 0.7; stroke: #ef5350; stroke-opacity: 0.7"/>
    </g>
    <g clip-path="url(#pdc5fe61856)">
     <use xlink:href="#C2_0_6830a48474" x="361.042376" y="275.772498" style="fill: #ef5350; fill-opacity: 0.7; stroke: #ef5350; stroke-opacity: 0.7"/>
    </g>
    <g clip-path="url(#pdc5fe61856)">
     <use xlink:href="#C2_0_6830a48474" x="360.514345" y="272.680948" style="fill: #ef5350; fill-opacity: 0.7; stroke: #ef5350; stroke-opacity: 0.7"/>
    </g>
    <g clip-path="url(#pdc5fe61856)">
     <use xlink:href="#C2_0_6830a48474" x="357.227307" y="284.201866" style="fill: #ef5350; fill-opacity: 0.7; stroke: #ef5350; stroke-opacity: 0.7"/>
    </g>
    <g clip-path="url(#pdc5fe61856)">
     <use xlink:href="#C2_0_6830a48474" x="356.98834" y="283.902952" style="fill: #ef5350; fill-opacity: 0.7; stroke: #ef5350; stroke-opacity: 0.7"/>
    </g>
    <g clip-path="url(#pdc5fe61856)">
     <use xlink:href="#C2_0_6830a48474" x="357.222726" y="282.844491" style="fill: #ef5350; fill-opacity: 0.7; stroke: #ef5350; stroke-opacity: 0.7"/>
    </g>
    <g clip-path="url(#pdc5fe61856)">
     <use xlink:href="#C2_0_6830a48474" x="350.455962" y="299.450526" style="fill: #ef5350; fill-opacity: 0.7; stroke: #ef5350; stroke-opacity: 0.7"/>
    </g>
    <g clip-path="url(#pdc5fe61856)">
     <use xlink:href="#C2_0_6830a48474" x="354.60593" y="288.870746" style="fill: #ef5350; fill-opacity: 0.7; stroke: #ef5350; stroke-opacity: 0.7"/>
    </g>
    <g clip-path="url(#pdc5fe61856)">
     <use xlink:href="#C2_0_6830a48474" x="354.579563" y="266.506367" style="fill: #ef5350; fill-opacity: 0.7; stroke: #ef5350; stroke-opacity: 0.7"/>
    </g>
    <g clip-path="url(#pdc5fe61856)">
     <use xlink:href="#C2_0_6830a48474" x="350.168605" y="275.2283" style="fill: #ef5350; fill-opacity: 0.7; stroke: #ef5350; stroke-opacity: 0.7"/>
    </g>
    <g clip-path="url(#pdc5fe61856)">
     <use xlink:href="#C2_0_6830a48474" x="345.623" y="268.688189" style="fill: #ef5350; fill-opacity: 0.7; stroke: #ef5350; stroke-opacity: 0.7"/>
    </g>
   </g>
   <g id="Line3DCollection_4">
    <path d="M 245.509684 162.365748 
L 264.782345 168.809283 
L 283.64093 177.542758 
L 301.526845 188.329072 
L 317.904095 200.862291 
L 332.279448 214.777213 
L 344.221321 229.661966 
L 353.376166 245.072982 
L 359.481337 260.551471 
L 362.373672 275.640392 
L 361.993412 289.900898 
L 358.383434 302.927341 
L 351.684187 314.360049 
L 342.124962 323.895404 
L 330.012366 331.292944 
L 315.716933 336.379506 
L 299.658795 339.050632 
L 282.293209 339.269603 
L 264.096621 337.064558 
L 245.553705 332.524202 
" clip-path="url(#pdc5fe61856)" style="fill: none; stroke: #cfd8dc; stroke-opacity: 0.25; stroke-width: 0.5"/>
    <path d="M 245.509684 162.365748 
L 267.283127 165.591669 
L 288.490262 171.150964 
L 308.514177 178.886552 
L 326.773217 188.574005 
L 342.740893 199.929206 
L 355.963459 212.618373 
L 366.074301 226.269915 
L 372.804503 240.487457 
L 375.989277 254.86333 
L 375.570212 268.99185 
L 371.593579 282.481799 
L 364.205139 294.967608 
L 353.642074 306.118939 
L 340.222689 315.648452 
L 324.334598 323.317729 
L 306.422 328.941418 
L 286.972592 332.389737 
L 266.504526 333.589546 
L 245.553705 332.524202 
" clip-path="url(#pdc5fe61856)" style="fill: none; stroke: #cfd8dc; stroke-opacity: 0.25; stroke-width: 0.5"/>
    <path d="M 245.509684 162.365748 
L 267.414792 162.170939 
L 288.645392 164.387634 
L 308.597246 168.939523 
L 326.711351 175.68157 
L 342.490722 184.406361 
L 355.514121 194.852406 
L 365.446361 206.713861 
L 372.04509 219.651119 
L 375.164162 233.301739 
L 374.753896 247.291252 
L 370.858628 261.243483 
L 363.612021 274.790122 
L 353.230621 287.579379 
L 340.006084 299.283659 
L 324.29646 309.606241 
L 306.5168 318.287031 
L 287.129304 325.107441 
L 266.633099 329.894495 
L 245.553705 332.524202 
" clip-path="url(#pdc5fe61856)" style="fill: none; stroke: #cfd8dc; stroke-opacity: 0.25; stroke-width: 0.5"/>
    <path d="M 245.509684 162.365748 
L 265.180156 158.918152 
L 284.155951 157.986683 
L 301.909534 159.567188 
L 317.961763 163.582905 
L 331.89408 169.890342 
L 343.357518 178.286877 
L 352.078626 188.519494 
L 357.862579 200.29408 
L 360.593892 213.284837 
L 360.235186 227.143443 
L 356.824474 241.50774 
L 350.471362 256.009845 
L 341.352526 270.28364 
L 329.706667 283.971728 
L 315.829094 296.731929 
L 300.065958 308.243466 
L 282.808079 318.212939 
L 264.48423 326.380208 
L 245.553705 332.524202 
" clip-path="url(#pdc5fe61856)" style="fill: none; stroke: #cfd8dc; stroke-opacity: 0.25; stroke-width: 0.5"/>
    <path d="M 245.509684 162.365748 
L 260.835238 156.181187 
L 275.561568 152.623541 
L 289.288143 151.745476 
L 301.656892 153.522046 
L 312.35976 157.856786 
L 321.143598 164.589424 
L 327.81273 173.504489 
L 332.2296 184.340197 
L 334.313988 196.797158 
L 334.041218 210.546593 
L 331.439767 225.237921 
L 326.588561 240.505687 
L 319.614179 255.975918 
L 310.688047 271.272086 
L 300.023644 286.020886 
L 287.873608 299.858056 
L 274.526591 312.434477 
L 260.303621 323.422725 
L 245.553705 332.524202 
" clip-path="url(#pdc5fe61856)" style="fill: none; stroke: #cfd8dc; stroke-opacity: 0.25; stroke-width: 0.5"/>
    <path d="M 245.509684 162.365748 
L 254.855757 154.249032 
L 263.8117 148.849891 
L 272.137956 146.258792 
L 279.622794 146.484189 
L 286.08606 149.459127 
L 291.381269 155.049403 
L 295.396331 163.062436 
L 298.053238 173.256186 
L 299.307067 185.347634 
L 299.14457 199.020543 
L 297.582616 213.932383 
L 294.666646 229.720455 
L 290.469253 246.007386 
L 285.088911 262.406218 
L 278.648831 278.525407 
L 271.295843 293.974042 
L 263.199159 308.367617 
L 254.548835 321.334626 
L 245.553705 332.524202 
" clip-path="url(#pdc5fe61856)" style="fill: none; stroke: #cfd8dc; stroke-opacity: 0.25; stroke-width: 0.5"/>
    <path d="M 245.509684 162.365748 
L 247.883638 153.323647 
L 250.155927 147.046178 
L 252.266267 143.641198 
L 254.161657 143.132211 
L 255.797232 145.465322 
L 257.136686 150.517715 
L 258.152359 158.10675 
L 258.825082 167.99898 
L 259.143859 179.918595 
L 259.105481 193.555014 
L 258.714114 208.569525 
L 257.980926 224.601039 
L 256.923753 241.271149 
L 255.566832 258.188765 
L 253.940573 274.954663 
L 252.081354 291.166332 
L 250.031283 306.423471 
L 247.837896 320.334476 
L 245.553705 332.524202 
" clip-path="url(#pdc5fe61856)" style="fill: none; stroke: #cfd8dc; stroke-opacity: 0.25; stroke-width: 0.5"/>
    <path d="M 245.509684 162.365748 
L 240.660023 153.501162 
L 236.018732 147.391999 
L 231.709102 144.142818 
L 227.839585 143.774281 
L 224.502025 146.230043 
L 221.770758 151.385159 
L 219.702399 159.055132 
L 218.336142 169.004908 
L 217.694385 180.957326 
L 217.783514 194.600736 
L 218.594743 209.595697 
L 220.104884 225.580797 
L 222.277045 242.177798 
L 225.061199 258.996359 
L 228.394672 275.638678 
L 232.202606 291.704412 
L 236.398465 306.796232 
L 240.884701 320.526337 
L 245.553705 332.524202 
" clip-path="url(#pdc5fe61856)" style="fill: none; stroke: #cfd8dc; stroke-opacity: 0.25; stroke-width: 0.5"/>
    <path d="M 245.509684 162.365748 
L 233.950948 154.763167 
L 222.86788 149.853034 
L 212.558258 147.715952 
L 203.286036 148.351746 
L 195.276429 151.685905 
L 188.713042 157.577594 
L 183.736706 165.828427 
L 180.445639 176.191349 
L 178.896522 188.379162 
L 179.106142 202.07239 
L 181.053295 216.926371 
L 184.680729 232.57759 
L 189.897 248.649414 
L 196.578177 264.75742 
L 204.569449 280.514622 
L 213.68671 295.536879 
L 223.718316 309.448783 
L 234.427215 321.890279 
L 245.553705 332.524202 
" clip-path="url(#pdc5fe61856)" style="fill: none; stroke: #cfd8dc; stroke-opacity: 0.25; stroke-width: 0.5"/>
    <path d="M 245.509684 162.365748 
L 228.471287 156.978367 
L 212.081592 154.183495 
L 196.789298 154.017633 
L 182.997365 156.441285 
L 171.053997 161.344922 
L 161.246512 168.556601 
L 153.797861 177.850545 
L 148.86534 188.956093 
L 146.54106 201.566562 
L 146.853687 215.347702 
L 149.771015 229.945581 
L 155.203062 244.99385 
L 163.005405 260.12045 
L 172.982653 274.953885 
L 184.892003 289.129266 
L 198.446957 302.294294 
L 213.321357 314.115401 
L 229.153945 324.284181 
L 245.553705 332.524202 
" clip-path="url(#pdc5fe61856)" style="fill: none; stroke: #cfd8dc; stroke-opacity: 0.25; stroke-width: 0.5"/>
    <path d="M 245.509684 162.365748 
L 224.812362 159.914556 
L 204.8186 159.944314 
L 186.088393 162.429279 
L 169.133223 167.272538 
L 154.402303 174.311948 
L 142.272035 183.327854 
L 133.03874 194.052027 
L 126.914455 206.177258 
L 124.025482 219.367152 
L 124.413239 233.265724 
L 128.036974 247.506554 
L 134.777883 261.721331 
L 144.444274 275.547732 
L 156.777466 288.636648 
L 171.458246 300.658826 
L 188.113764 311.311023 
L 206.324883 320.321763 
L 225.634034 327.456783 
L 245.553705 332.524202 
" clip-path="url(#pdc5fe61856)" style="fill: none; stroke: #cfd8dc; stroke-opacity: 0.25; stroke-width: 0.5"/>
    <path d="M 245.509684 162.365748 
L 223.378975 163.260516 
L 201.897312 166.538343 
L 181.680538 172.097706 
L 163.301825 179.769114 
L 147.273664 189.321779 
L 134.032731 200.472359 
L 123.928173 212.895234 
L 117.213559 226.233741 
L 114.042531 240.111806 
L 114.467936 254.145447 
L 118.444084 267.953732 
L 125.831655 281.168852 
L 136.40473 293.445112 
L 149.859447 304.46671 
L 165.823786 313.954301 
L 183.868127 321.670361 
L 203.516254 327.42346 
L 224.256615 331.071525 
L 245.553705 332.524202 
" clip-path="url(#pdc5fe61856)" style="fill: none; stroke: #cfd8dc; stroke-opacity: 0.25; stroke-width: 0.5"/>
    <path d="M 245.509684 162.365748 
L 224.342153 166.65681 
L 203.694781 173.263631 
L 184.171961 182.003049 
L 166.346846 192.624374 
L 150.741042 204.817607 
L 137.806328 218.224218 
L 127.909365 232.449908 
L 121.320195 247.078642 
L 118.20498 261.687167 
L 118.62316 275.859249 
L 122.528855 289.198919 
L 129.776084 301.34219 
L 140.12717 311.966836 
L 153.263597 320.800035 
L 168.798533 327.623824 
L 186.290284 332.278473 
L 205.256052 334.663982 
L 225.185494 334.739962 
L 245.553705 332.524202 
" clip-path="url(#pdc5fe61856)" style="fill: none; stroke: #cfd8dc; stroke-opacity: 0.25; stroke-width: 0.5"/>
    <path d="M 245.509684 162.365748 
L 227.614068 169.733355 
L 210.080854 179.38384 
L 193.43187 191.056477 
L 178.170299 204.420736 
L 164.76131 219.086522 
L 153.613631 234.617676 
L 145.06333 250.548059 
L 139.360883 266.399242 
L 136.662381 281.698696 
L 137.02534 295.997325 
L 140.4092 308.885285 
L 146.68017 320.005242 
L 155.619795 329.062508 
L 166.936358 335.831795 
L 180.278154 340.160631 
L 195.24766 341.969739 
L 211.41576 341.250839 
L 228.335331 338.062438 
L 245.553705 332.524202 
" clip-path="url(#pdc5fe61856)" style="fill: none; stroke: #cfd8dc; stroke-opacity: 0.25; stroke-width: 0.5"/>
    <path d="M 245.509684 162.365748 
L 232.850523 172.15034 
L 220.404696 184.210822 
L 208.546931 198.223431 
L 197.643296 213.790898 
L 188.036324 230.454614 
L 180.030339 247.710875 
L 173.878053 265.030326 
L 169.769511 281.879372 
L 167.824238 297.742063 
L 168.08717 312.140855 
L 170.528558 324.654835 
L 175.047665 334.934232 
L 181.479716 342.710531 
L 189.605339 347.801928 
L 199.16157 350.114349 
L 209.853552 349.638587 
L 221.36608 346.444366 
L 233.374384 340.672237 
L 245.553705 332.524202 
" clip-path="url(#pdc5fe61856)" style="fill: none; stroke: #cfd8dc; stroke-opacity: 0.25; stroke-width: 0.5"/>
    <path d="M 245.509684 162.365748 
L 239.48377 173.637745 
L 233.547045 187.189613 
L 227.879426 202.657991 
L 222.65807 219.602837 
L 218.049963 237.520937 
L 214.204453 255.864074 
L 211.246295 274.060898 
L 209.269793 291.541032 
L 208.334563 307.75961 
L 208.463237 322.220362 
L 209.641283 334.49549 
L 211.818846 344.240973 
L 214.914341 351.20652 
L 218.819374 355.239921 
L 223.404495 356.286202 
L 228.525267 354.382351 
L 234.028219 349.648698 
L 239.756312 342.278126 
L 245.553705 332.524202 
" clip-path="url(#pdc5fe61856)" style="fill: none; stroke: #cfd8dc; stroke-opacity: 0.25; stroke-width: 0.5"/>
    <path d="M 245.509684 162.365748 
L 246.784075 174.028059 
L 248.041076 187.972333 
L 249.242545 203.824727 
L 250.350824 221.133764 
L 251.330317 239.384216 
L 252.149102 258.015808 
L 252.780436 276.445771 
L 253.204032 294.093705 
L 253.406989 310.40687 
L 253.384304 324.883921 
L 253.138923 337.095244 
L 252.681358 346.698473 
L 252.028909 353.448375 
L 251.204611 357.200876 
L 250.235984 357.911673 
L 249.153727 355.630267 
L 247.990436 350.490599 
L 246.779424 342.699509 
L 245.553705 332.524202 
" clip-path="url(#pdc5fe61856)" style="fill: none; stroke: #cfd8dc; stroke-opacity: 0.25; stroke-width: 0.5"/>
    <path d="M 245.509684 162.365748 
L 253.943427 173.277154 
L 262.249551 186.466885 
L 270.176745 201.581232 
L 277.477982 218.19064 
L 283.920777 235.802878 
L 289.297481 253.88073 
L 293.434821 271.863248 
L 296.201899 289.189175 
L 297.515964 305.320815 
L 297.345507 319.766524 
L 295.710479 332.100178 
L 292.679754 341.976285 
L 288.366207 349.13998 
L 282.919981 353.431676 
L 276.520622 354.786696 
L 269.368754 353.230608 
L 261.677915 348.871295 
L 253.667008 341.888823 
L 245.553705 332.524202 
" clip-path="url(#pdc5fe61856)" style="fill: none; stroke: #cfd8dc; stroke-opacity: 0.25; stroke-width: 0.5"/>
    <path d="M 245.509684 162.365748 
L 260.170346 171.469862 
L 274.571199 182.85015 
L 288.280027 196.200769 
L 300.876098 211.143589 
L 311.967016 227.239787 
L 321.205187 244.005272 
L 328.302704 260.929105 
L 333.043521 277.493792 
L 335.292011 293.196044 
L 334.997308 307.566571 
L 332.193283 320.18759 
L 326.994353 330.706984 
L 319.587744 338.848445 
L 310.223026 344.417362 
L 299.199914 347.302583 
L 286.855278 347.474553 
L 273.550268 344.980503 
L 259.658198 339.937509 
L 245.553705 332.524202 
" clip-path="url(#pdc5fe61856)" style="fill: none; stroke: #cfd8dc; stroke-opacity: 0.25; stroke-width: 0.5"/>
    <path d="M 245.509684 162.365748 
L 264.782345 168.809283 
L 283.64093 177.542758 
L 301.526845 188.329072 
L 317.904095 200.862291 
L 332.279448 214.777213 
L 344.221321 229.661966 
L 353.376166 245.072982 
L 359.481337 260.551471 
L 362.373672 275.640392 
L 361.993412 289.900898 
L 358.383434 302.927341 
L 351.684187 314.360049 
L 342.124962 323.895404 
L 330.012366 331.292944 
L 315.716933 336.379506 
L 299.658795 339.050632 
L 282.293209 339.269603 
L 264.096621 337.064558 
L 245.553705 332.524202 
" clip-path="url(#pdc5fe61856)" style="fill: none; stroke: #cfd8dc; stroke-opacity: 0.25; stroke-width: 0.5"/>
    <path d="M 245.509684 162.365748 
L 245.509684 162.365748 
L 245.509684 162.365748 
L 245.509684 162.365748 
L 245.509684 162.365748 
L 245.509684 162.365748 
L 245.509684 162.365748 
L 245.509684 162.365748 
L 245.509684 162.365748 
L 245.509684 162.365748 
L 245.509684 162.365748 
L 245.509684 162.365748 
L 245.509684 162.365748 
L 245.509684 162.365748 
L 245.509684 162.365748 
L 245.509684 162.365748 
L 245.509684 162.365748 
L 245.509684 162.365748 
L 245.509684 162.365748 
L 245.509684 162.365748 
" clip-path="url(#pdc5fe61856)" style="fill: none; stroke: #cfd8dc; stroke-opacity: 0.25; stroke-width: 0.5"/>
    <path d="M 264.782345 168.809283 
L 267.283127 165.591669 
L 267.414792 162.170939 
L 265.180156 158.918152 
L 260.835238 156.181187 
L 254.855757 154.249032 
L 247.883638 153.323647 
L 240.660023 153.501162 
L 233.950948 154.763167 
L 228.471287 156.978367 
L 224.812362 159.914556 
L 223.378975 163.260516 
L 224.342153 166.65681 
L 227.614068 169.733355 
L 232.850523 172.15034 
L 239.48377 173.637745 
L 246.784075 174.028059 
L 253.943427 173.277154 
L 260.170346 171.469862 
L 264.782345 168.809283 
" clip-path="url(#pdc5fe61856)" style="fill: none; stroke: #cfd8dc; stroke-opacity: 0.25; stroke-width: 0.5"/>
    <path d="M 283.64093 177.542758 
L 288.490262 171.150964 
L 288.645392 164.387634 
L 284.155951 157.986683 
L 275.561568 152.623541 
L 263.8117 148.849891 
L 250.155927 147.046178 
L 236.018732 147.391999 
L 222.86788 149.853034 
L 212.081592 154.183495 
L 204.8186 159.944314 
L 201.897312 166.538343 
L 203.694781 173.263631 
L 210.080854 179.38384 
L 220.404696 184.210822 
L 233.547045 187.189613 
L 248.041076 187.972333 
L 262.249551 186.466885 
L 274.571199 182.85015 
L 283.64093 177.542758 
" clip-path="url(#pdc5fe61856)" style="fill: none; stroke: #cfd8dc; stroke-opacity: 0.25; stroke-width: 0.5"/>
    <path d="M 301.526845 188.329072 
L 308.514177 178.886552 
L 308.597246 168.939523 
L 301.909534 159.567188 
L 289.288143 151.745476 
L 272.137956 146.258792 
L 252.266267 143.641198 
L 231.709102 144.142818 
L 212.558258 147.715952 
L 196.789298 154.017633 
L 186.088393 162.429279 
L 181.680538 172.097706 
L 184.171961 182.003049 
L 193.43187 191.056477 
L 208.546931 198.223431 
L 227.879426 202.657991 
L 249.242545 203.824727 
L 270.176745 201.581232 
L 288.280027 196.200769 
L 301.526845 188.329072 
" clip-path="url(#pdc5fe61856)" style="fill: none; stroke: #cfd8dc; stroke-opacity: 0.25; stroke-width: 0.5"/>
    <path d="M 317.904095 200.862291 
L 326.773217 188.574005 
L 326.711351 175.68157 
L 317.961763 163.582905 
L 301.656892 153.522046 
L 279.622794 146.484189 
L 254.161657 143.132211 
L 227.839585 143.774281 
L 203.286036 148.351746 
L 182.997365 156.441285 
L 169.133223 167.272538 
L 163.301825 179.769114 
L 166.346846 192.624374 
L 178.170299 204.420736 
L 197.643296 213.790898 
L 222.65807 219.602837 
L 250.350824 221.133764 
L 277.477982 218.19064 
L 300.876098 211.143589 
L 317.904095 200.862291 
" clip-path="url(#pdc5fe61856)" style="fill: none; stroke: #cfd8dc; stroke-opacity: 0.25; stroke-width: 0.5"/>
    <path d="M 332.279448 214.777213 
L 342.740893 199.929206 
L 342.490722 184.406361 
L 331.89408 169.890342 
L 312.35976 157.856786 
L 286.08606 149.459127 
L 255.797232 145.465322 
L 224.502025 146.230043 
L 195.276429 151.685905 
L 171.053997 161.344922 
L 154.402303 174.311948 
L 147.273664 189.321779 
L 150.741042 204.817607 
L 164.76131 219.086522 
L 188.036324 230.454614 
L 218.049963 237.520937 
L 251.330317 239.384216 
L 283.920777 235.802878 
L 311.967016 227.239787 
L 332.279448 214.777213 
" clip-path="url(#pdc5fe61856)" style="fill: none; stroke: #cfd8dc; stroke-opacity: 0.25; stroke-width: 0.5"/>
    <path d="M 344.221321 229.661966 
L 355.963459 212.618373 
L 355.514121 194.852406 
L 343.357518 178.286877 
L 321.143598 164.589424 
L 291.381269 155.049403 
L 257.136686 150.517715 
L 221.770758 151.385159 
L 188.713042 157.577594 
L 161.246512 168.556601 
L 142.272035 183.327854 
L 134.032731 200.472359 
L 137.806328 218.224218 
L 153.613631 234.617676 
L 180.030339 247.710875 
L 214.204453 255.864074 
L 252.149102 258.015808 
L 289.297481 253.88073 
L 321.205187 244.005272 
L 344.221321 229.661966 
" clip-path="url(#pdc5fe61856)" style="fill: none; stroke: #cfd8dc; stroke-opacity: 0.25; stroke-width: 0.5"/>
    <path d="M 353.376166 245.072982 
L 366.074301 226.269915 
L 365.446361 206.713861 
L 352.078626 188.519494 
L 327.81273 173.504489 
L 295.396331 163.062436 
L 258.152359 158.10675 
L 219.702399 159.055132 
L 183.736706 165.828427 
L 153.797861 177.850545 
L 133.03874 194.052027 
L 123.928173 212.895234 
L 127.909365 232.449908 
L 145.06333 250.548059 
L 173.878053 265.030326 
L 211.246295 274.060898 
L 252.780436 276.445771 
L 293.434821 271.863248 
L 328.302704 260.929105 
L 353.376166 245.072982 
" clip-path="url(#pdc5fe61856)" style="fill: none; stroke: #cfd8dc; stroke-opacity: 0.25; stroke-width: 0.5"/>
    <path d="M 359.481337 260.551471 
L 372.804503 240.487457 
L 372.04509 219.651119 
L 357.862579 200.29408 
L 332.2296 184.340197 
L 298.053238 173.256186 
L 258.825082 167.99898 
L 218.336142 169.004908 
L 180.445639 176.191349 
L 148.86534 188.956093 
L 126.914455 206.177258 
L 117.213559 226.233741 
L 121.320195 247.078642 
L 139.360883 266.399242 
L 169.769511 281.879372 
L 209.269793 291.541032 
L 253.204032 294.093705 
L 296.201899 289.189175 
L 333.043521 277.493792 
L 359.481337 260.551471 
" clip-path="url(#pdc5fe61856)" style="fill: none; stroke: #cfd8dc; stroke-opacity: 0.25; stroke-width: 0.5"/>
    <path d="M 362.373672 275.640392 
L 375.989277 254.86333 
L 375.164162 233.301739 
L 360.593892 213.284837 
L 334.313988 196.797158 
L 299.307067 185.347634 
L 259.143859 179.918595 
L 217.694385 180.957326 
L 178.896522 188.379162 
L 146.54106 201.566562 
L 124.025482 219.367152 
L 114.042531 240.111806 
L 118.20498 261.687167 
L 136.662381 281.698696 
L 167.824238 297.742063 
L 208.334563 307.75961 
L 253.406989 310.40687 
L 297.515964 305.320815 
L 335.292011 293.196044 
L 362.373672 275.640392 
" clip-path="url(#pdc5fe61856)" style="fill: none; stroke: #cfd8dc; stroke-opacity: 0.25; stroke-width: 0.5"/>
    <path d="M 361.993412 289.900898 
L 375.570212 268.99185 
L 374.753896 247.291252 
L 360.235186 227.143443 
L 334.041218 210.546593 
L 299.14457 199.020543 
L 259.105481 193.555014 
L 217.783514 194.600736 
L 179.106142 202.07239 
L 146.853687 215.347702 
L 124.413239 233.265724 
L 114.467936 254.145447 
L 118.62316 275.859249 
L 137.02534 295.997325 
L 168.08717 312.140855 
L 208.463237 322.220362 
L 253.384304 324.883921 
L 297.345507 319.766524 
L 334.997308 307.566571 
L 361.993412 289.900898 
" clip-path="url(#pdc5fe61856)" style="fill: none; stroke: #cfd8dc; stroke-opacity: 0.25; stroke-width: 0.5"/>
    <path d="M 358.383434 302.927341 
L 371.593579 282.481799 
L 370.858628 261.243483 
L 356.824474 241.50774 
L 331.439767 225.237921 
L 297.582616 213.932383 
L 258.714114 208.569525 
L 218.594743 209.595697 
L 181.053295 216.926371 
L 149.771015 229.945581 
L 128.036974 247.506554 
L 118.444084 267.953732 
L 122.528855 289.198919 
L 140.4092 308.885285 
L 170.528558 324.654835 
L 209.641283 334.49549 
L 253.138923 337.095244 
L 295.710479 332.100178 
L 332.193283 320.18759 
L 358.383434 302.927341 
" clip-path="url(#pdc5fe61856)" style="fill: none; stroke: #cfd8dc; stroke-opacity: 0.25; stroke-width: 0.5"/>
    <path d="M 351.684187 314.360049 
L 364.205139 294.967608 
L 363.612021 274.790122 
L 350.471362 256.009845 
L 326.588561 240.505687 
L 294.666646 229.720455 
L 257.980926 224.601039 
L 220.104884 225.580797 
L 184.680729 232.57759 
L 155.203062 244.99385 
L 134.777883 261.721331 
L 125.831655 281.168852 
L 129.776084 301.34219 
L 146.68017 320.005242 
L 175.047665 334.934232 
L 211.818846 344.240973 
L 252.681358 346.698473 
L 292.679754 341.976285 
L 326.994353 330.706984 
L 351.684187 314.360049 
" clip-path="url(#pdc5fe61856)" style="fill: none; stroke: #cfd8dc; stroke-opacity: 0.25; stroke-width: 0.5"/>
    <path d="M 342.124962 323.895404 
L 353.642074 306.118939 
L 353.230621 287.579379 
L 341.352526 270.28364 
L 319.614179 255.975918 
L 290.469253 246.007386 
L 256.923753 241.271149 
L 222.277045 242.177798 
L 189.897 248.649414 
L 163.005405 260.12045 
L 144.444274 275.547732 
L 136.40473 293.445112 
L 140.12717 311.966836 
L 155.619795 329.062508 
L 181.479716 342.710531 
L 214.914341 351.20652 
L 252.028909 353.448375 
L 288.366207 349.13998 
L 319.587744 338.848445 
L 342.124962 323.895404 
" clip-path="url(#pdc5fe61856)" style="fill: none; stroke: #cfd8dc; stroke-opacity: 0.25; stroke-width: 0.5"/>
    <path d="M 330.012366 331.292944 
L 340.222689 315.648452 
L 340.006084 299.283659 
L 329.706667 283.971728 
L 310.688047 271.272086 
L 285.088911 262.406218 
L 255.566832 258.188765 
L 225.061199 258.996359 
L 196.578177 264.75742 
L 172.982653 274.953885 
L 156.777466 288.636648 
L 149.859447 304.46671 
L 153.263597 320.800035 
L 166.936358 335.831795 
L 189.605339 347.801928 
L 218.819374 355.239921 
L 251.204611 357.200876 
L 282.919981 353.431676 
L 310.223026 344.417362 
L 330.012366 331.292944 
" clip-path="url(#pdc5fe61856)" style="fill: none; stroke: #cfd8dc; stroke-opacity: 0.25; stroke-width: 0.5"/>
    <path d="M 315.716933 336.379506 
L 324.334598 323.317729 
L 324.29646 309.606241 
L 315.829094 296.731929 
L 300.023644 286.020886 
L 278.648831 278.525407 
L 253.940573 274.954663 
L 228.394672 275.638678 
L 204.569449 280.514622 
L 184.892003 289.129266 
L 171.458246 300.658826 
L 165.823786 313.954301 
L 168.798533 327.623824 
L 180.278154 340.160631 
L 199.16157 350.114349 
L 223.404495 356.286202 
L 250.235984 357.911673 
L 276.520622 354.786696 
L 299.199914 347.302583 
L 315.716933 336.379506 
" clip-path="url(#pdc5fe61856)" style="fill: none; stroke: #cfd8dc; stroke-opacity: 0.25; stroke-width: 0.5"/>
    <path d="M 299.658795 339.050632 
L 306.422 328.941418 
L 306.5168 318.287031 
L 300.065958 308.243466 
L 287.873608 299.858056 
L 271.295843 293.974042 
L 252.081354 291.166332 
L 232.202606 291.704412 
L 213.68671 295.536879 
L 198.446957 302.294294 
L 188.113764 311.311023 
L 183.868127 321.670361 
L 186.290284 332.278473 
L 195.24766 341.969739 
L 209.853552 349.638587 
L 228.525267 354.382351 
L 249.153727 355.630267 
L 269.368754 353.230608 
L 286.855278 347.474553 
L 299.658795 339.050632 
" clip-path="url(#pdc5fe61856)" style="fill: none; stroke: #cfd8dc; stroke-opacity: 0.25; stroke-width: 0.5"/>
    <path d="M 282.293209 339.269603 
L 286.972592 332.389737 
L 287.129304 325.107441 
L 282.808079 318.212939 
L 274.526591 312.434477 
L 263.199159 308.367617 
L 250.031283 306.423471 
L 236.398465 306.796232 
L 223.718316 309.448783 
L 213.321357 314.115401 
L 206.324883 320.321763 
L 203.516254 327.42346 
L 205.256052 334.663982 
L 211.41576 341.250839 
L 221.36608 346.444366 
L 234.028219 349.648698 
L 247.990436 350.490599 
L 261.677915 348.871295 
L 273.550268 344.980503 
L 282.293209 339.269603 
" clip-path="url(#pdc5fe61856)" style="fill: none; stroke: #cfd8dc; stroke-opacity: 0.25; stroke-width: 0.5"/>
    <path d="M 264.096621 337.064558 
L 266.504526 333.589546 
L 266.633099 329.894495 
L 264.48423 326.380208 
L 260.303621 323.422725 
L 254.548835 321.334626 
L 247.837896 320.334476 
L 240.884701 320.526337 
L 234.427215 321.890279 
L 229.153945 324.284181 
L 225.634034 327.456783 
L 224.256615 331.071525 
L 225.185494 334.739962 
L 228.335331 338.062438 
L 233.374384 340.672237 
L 239.756312 342.278126 
L 246.779424 342.699509 
L 253.667008 341.888823 
L 259.658198 339.937509 
L 264.096621 337.064558 
" clip-path="url(#pdc5fe61856)" style="fill: none; stroke: #cfd8dc; stroke-opacity: 0.25; stroke-width: 0.5"/>
    <path d="M 245.553705 332.524202 
L 245.553705 332.524202 
L 245.553705 332.524202 
L 245.553705 332.524202 
L 245.553705 332.524202 
L 245.553705 332.524202 
L 245.553705 332.524202 
L 245.553705 332.524202 
L 245.553705 332.524202 
L 245.553705 332.524202 
L 245.553705 332.524202 
L 245.553705 332.524202 
L 245.553705 332.524202 
L 245.553705 332.524202 
L 245.553705 332.524202 
L 245.553705 332.524202 
L 245.553705 332.524202 
L 245.553705 332.524202 
L 245.553705 332.524202 
L 245.553705 332.524202 
" clip-path="url(#pdc5fe61856)" style="fill: none; stroke: #cfd8dc; stroke-opacity: 0.25; stroke-width: 0.5"/>
   </g>
  </g>
 </g>
 <defs>
  <clipPath id="pdc5fe61856">
   <rect x="7.2" y="22.318125" width="466.32" height="466.32"/>
  </clipPath>
 </defs>
</svg>
