<?xml version="1.0" encoding="utf-8" standalone="no"?>
<!DOCTYPE svg PUBLIC "-//W3C//DTD SVG 1.1//EN"
  "http://www.w3.org/Graphics/SVG/1.1/DTD/svg11.dtd">
<svg xmlns:xlink="http://www.w3.org/1999/xlink" width="856.433125pt" height="390.87625pt" viewBox="0 0 856.433125 390.87625" xmlns="http://www.w3.org/2000/svg" version="1.1">
 <metadata>
  <rdf:RDF xmlns:dc="http://purl.org/dc/elements/1.1/" xmlns:cc="http://creativecommons.org/ns#" xmlns:rdf="http://www.w3.org/1999/02/22-rdf-syntax-ns#">
   <cc:Work>
    <dc:type rdf:resource="http://purl.org/dc/dcmitype/StillImage"/>
    <dc:date>2026-07-07T07:11:22.060329</dc:date>
    <dc:format>image/svg+xml</dc:format>
    <dc:creator>
     <cc:Agent>
      <dc:title>Matplotlib v3.10.9, https://matplotlib.org/</dc:title>
     </cc:Agent>
    </dc:creator>
   </cc:Work>
  </rdf:RDF>
 </metadata>
 <defs>
  <style type="text/css">*{stroke-linejoin: round; stroke-linecap: butt}</style>
 </defs>
 <g id="figure_1">
  <g id="patch_1">
   <path d="M 0 390.87625 
L 856.433125 390.87625 
L 856.433125 0 
L 0 0 
z
" style="fill: #ffffff"/>
  </g>
  <g id="axes_1">
   <g id="patch_2">
    <path d="M 40.603125 353.32 
L 421.013125 353.32 
L 421.013125 48.48 
L 40.603125 48.48 
z
" style="fill: #ffffff"/>
   </g>
   <g id="FillBetweenPolyCollection_1">
    <defs>
     <path id="me2682daf1b" d="M 57.894489 -51.412614 
L 57.894489 -328.539886 
L 59.632314 -320.100649 
L 61.37014 -311.863106 
L 63.107965 -303.82371 
L 64.845791 -295.978952 
L 66.583616 -288.325357 
L 68.321442 -280.859486 
L 70.059267 -273.577939 
L 71.797093 -266.477348 
L 73.534918 -259.554385 
L 75.272744 -252.805757 
L 77.010569 -246.228205 
L 78.748395 -239.81851 
L 80.48622 -233.573486 
L 82.224046 -227.489984 
L 83.961871 -221.564893 
L 85.699696 -215.795136 
L 87.437522 -210.177674 
L 89.175347 -204.709501 
L 90.913173 -199.387651 
L 92.650998 -194.209193 
L 94.388824 -189.17123 
L 96.126649 -184.270904 
L 97.864475 -179.505393 
L 99.6023 -174.871908 
L 101.340126 -170.367701 
L 103.077951 -165.990056 
L 104.815777 -161.736295 
L 106.553602 -157.603777 
L 108.291428 -153.589896 
L 110.029253 -149.692082 
L 111.767079 -145.907801 
L 113.504904 -142.234558 
L 115.24273 -138.66989 
L 116.980555 -135.211373 
L 118.718381 -131.856619 
L 120.456206 -128.603275 
L 122.194032 -125.449024 
L 123.931857 -122.391587 
L 125.669683 -119.42872 
L 127.407508 -116.558216 
L 129.145334 -113.777902 
L 130.883159 -111.085644 
L 132.620985 -108.479343 
L 134.35881 -105.956935 
L 136.096636 -103.516395 
L 137.834461 -101.15573 
L 139.572287 -98.872988 
L 141.310112 -96.666251 
L 143.047938 -94.533635 
L 144.785763 -92.473296 
L 146.523589 -90.483424 
L 148.261414 -88.562246 
L 149.99924 -86.708024 
L 151.737065 -84.919057 
L 153.474891 -83.193681 
L 155.212716 -81.530268 
L 156.950542 -79.927224 
L 158.688367 -78.382993 
L 160.426193 -76.896057 
L 162.164018 -75.464929 
L 163.901844 -74.088164 
L 165.639669 -72.76435 
L 167.377495 -71.492111 
L 169.11532 -70.270109 
L 170.853146 -69.09704 
L 172.590971 -67.971637 
L 174.328797 -66.892672 
L 176.066622 -65.858948 
L 177.804448 -64.869308 
L 179.542273 -63.92263 
L 181.280099 -63.017828 
L 183.017924 -62.153854 
L 184.755749 -61.329692 
L 186.493575 -60.544367 
L 188.2314 -59.796937 
L 189.969226 -59.086498 
L 191.707051 -58.412181 
L 193.444877 -57.773153 
L 195.182702 -57.168619 
L 196.920528 -56.597819 
L 198.658353 -56.060027 
L 200.396179 -55.554558 
L 202.134004 -55.08076 
L 203.87183 -54.638016 
L 205.609655 -54.225749 
L 207.347481 -53.843415 
L 209.085306 -53.490508 
L 210.823132 -53.166557 
L 212.560957 -52.871128 
L 214.298783 -52.603823 
L 216.036608 -52.36428 
L 217.774434 -52.152173 
L 219.512259 -51.967213 
L 221.250085 -51.809146 
L 222.98791 -51.677756 
L 224.725736 -51.572861 
L 226.463561 -51.494316 
L 228.201387 -51.442013 
L 229.939212 -51.415879 
L 231.677038 -51.415879 
L 233.414863 -51.442013 
L 235.152689 -51.494316 
L 236.890514 -51.572861 
L 238.62834 -51.677756 
L 240.366165 -51.809146 
L 242.103991 -51.967213 
L 243.841816 -52.152173 
L 245.579642 -52.36428 
L 247.317467 -52.603823 
L 249.055293 -52.871128 
L 250.793118 -53.166557 
L 252.530944 -53.490508 
L 254.268769 -53.843415 
L 256.006595 -54.225749 
L 257.74442 -54.638016 
L 259.482246 -55.08076 
L 261.220071 -55.554558 
L 262.957897 -56.060027 
L 264.695722 -56.597819 
L 266.433548 -57.168619 
L 268.171373 -57.773153 
L 269.909199 -58.412181 
L 271.647024 -59.086498 
L 273.38485 -59.796937 
L 275.122675 -60.544367 
L 276.860501 -61.329692 
L 278.598326 -62.153854 
L 280.336151 -63.017828 
L 282.073977 -63.92263 
L 283.811802 -64.869308 
L 285.549628 -65.858948 
L 287.287453 -66.892672 
L 289.025279 -67.971637 
L 290.763104 -69.09704 
L 292.50093 -70.270109 
L 294.238755 -71.492111 
L 295.976581 -72.76435 
L 297.714406 -74.088164 
L 299.452232 -75.464929 
L 301.190057 -76.896057 
L 302.927883 -78.382993 
L 304.665708 -79.927224 
L 306.403534 -81.530268 
L 308.141359 -83.193681 
L 309.879185 -84.919057 
L 311.61701 -86.708024 
L 313.354836 -88.562246 
L 315.092661 -90.483424 
L 316.830487 -92.473296 
L 318.568312 -94.533635 
L 320.306138 -96.666251 
L 322.043963 -98.872988 
L 323.781789 -101.15573 
L 325.519614 -103.516395 
L 327.25744 -105.956935 
L 328.995265 -108.479343 
L 330.733091 -111.085644 
L 332.470916 -113.777902 
L 334.208742 -116.558216 
L 335.946567 -119.42872 
L 337.684393 -122.391587 
L 339.422218 -125.449024 
L 341.160044 -128.603275 
L 342.897869 -131.856619 
L 344.635695 -135.211373 
L 346.37352 -138.66989 
L 348.111346 -142.234558 
L 349.849171 -145.907801 
L 351.586997 -149.692082 
L 353.324822 -153.589896 
L 355.062648 -157.603777 
L 356.800473 -161.736295 
L 358.538299 -165.990056 
L 360.276124 -170.367701 
L 362.01395 -174.871908 
L 363.751775 -179.505393 
L 365.489601 -184.270904 
L 367.227426 -189.17123 
L 368.965252 -194.209193 
L 370.703077 -199.387651 
L 372.440903 -204.709501 
L 374.178728 -210.177674 
L 375.916554 -215.795136 
L 377.654379 -221.564893 
L 379.392204 -227.489984 
L 381.13003 -233.573486 
L 382.867855 -239.81851 
L 384.605681 -246.228205 
L 386.343506 -252.805757 
L 388.081332 -259.554385 
L 389.819157 -266.477348 
L 391.556983 -273.577939 
L 393.294808 -280.859486 
L 395.032634 -288.325357 
L 396.770459 -295.978952 
L 398.508285 -303.82371 
L 400.24611 -311.863106 
L 401.983936 -320.100649 
L 403.721761 -328.539886 
L 403.721761 -51.412614 
L 403.721761 -51.412614 
L 401.983936 -51.412614 
L 400.24611 -51.412614 
L 398.508285 -51.412614 
L 396.770459 -51.412614 
L 395.032634 -51.412614 
L 393.294808 -51.412614 
L 391.556983 -51.412614 
L 389.819157 -51.412614 
L 388.081332 -51.412614 
L 386.343506 -51.412614 
L 384.605681 -51.412614 
L 382.867855 -51.412614 
L 381.13003 -51.412614 
L 379.392204 -51.412614 
L 377.654379 -51.412614 
L 375.916554 -51.412614 
L 374.178728 -51.412614 
L 372.440903 -51.412614 
L 370.703077 -51.412614 
L 368.965252 -51.412614 
L 367.227426 -51.412614 
L 365.489601 -51.412614 
L 363.751775 -51.412614 
L 362.01395 -51.412614 
L 360.276124 -51.412614 
L 358.538299 -51.412614 
L 356.800473 -51.412614 
L 355.062648 -51.412614 
L 353.324822 -51.412614 
L 351.586997 -51.412614 
L 349.849171 -51.412614 
L 348.111346 -51.412614 
L 346.37352 -51.412614 
L 344.635695 -51.412614 
L 342.897869 -51.412614 
L 341.160044 -51.412614 
L 339.422218 -51.412614 
L 337.684393 -51.412614 
L 335.946567 -51.412614 
L 334.208742 -51.412614 
L 332.470916 -51.412614 
L 330.733091 -51.412614 
L 328.995265 -51.412614 
L 327.25744 -51.412614 
L 325.519614 -51.412614 
L 323.781789 -51.412614 
L 322.043963 -51.412614 
L 320.306138 -51.412614 
L 318.568312 -51.412614 
L 316.830487 -51.412614 
L 315.092661 -51.412614 
L 313.354836 -51.412614 
L 311.61701 -51.412614 
L 309.879185 -51.412614 
L 308.141359 -51.412614 
L 306.403534 -51.412614 
L 304.665708 -51.412614 
L 302.927883 -51.412614 
L 301.190057 -51.412614 
L 299.452232 -51.412614 
L 297.714406 -51.412614 
L 295.976581 -51.412614 
L 294.238755 -51.412614 
L 292.50093 -51.412614 
L 290.763104 -51.412614 
L 289.025279 -51.412614 
L 287.287453 -51.412614 
L 285.549628 -51.412614 
L 283.811802 -51.412614 
L 282.073977 -51.412614 
L 280.336151 -51.412614 
L 278.598326 -51.412614 
L 276.860501 -51.412614 
L 275.122675 -51.412614 
L 273.38485 -51.412614 
L 271.647024 -51.412614 
L 269.909199 -51.412614 
L 268.171373 -51.412614 
L 266.433548 -51.412614 
L 264.695722 -51.412614 
L 262.957897 -51.412614 
L 261.220071 -51.412614 
L 259.482246 -51.412614 
L 257.74442 -51.412614 
L 256.006595 -51.412614 
L 254.268769 -51.412614 
L 252.530944 -51.412614 
L 250.793118 -51.412614 
L 249.055293 -51.412614 
L 247.317467 -51.412614 
L 245.579642 -51.412614 
L 243.841816 -51.412614 
L 242.103991 -51.412614 
L 240.366165 -51.412614 
L 238.62834 -51.412614 
L 236.890514 -51.412614 
L 235.152689 -51.412614 
L 233.414863 -51.412614 
L 231.677038 -51.412614 
L 229.939212 -51.412614 
L 228.201387 -51.412614 
L 226.463561 -51.412614 
L 224.725736 -51.412614 
L 222.98791 -51.412614 
L 221.250085 -51.412614 
L 219.512259 -51.412614 
L 217.774434 -51.412614 
L 216.036608 -51.412614 
L 214.298783 -51.412614 
L 212.560957 -51.412614 
L 210.823132 -51.412614 
L 209.085306 -51.412614 
L 207.347481 -51.412614 
L 205.609655 -51.412614 
L 203.87183 -51.412614 
L 202.134004 -51.412614 
L 200.396179 -51.412614 
L 198.658353 -51.412614 
L 196.920528 -51.412614 
L 195.182702 -51.412614 
L 193.444877 -51.412614 
L 191.707051 -51.412614 
L 189.969226 -51.412614 
L 188.2314 -51.412614 
L 186.493575 -51.412614 
L 184.755749 -51.412614 
L 183.017924 -51.412614 
L 181.280099 -51.412614 
L 179.542273 -51.412614 
L 177.804448 -51.412614 
L 176.066622 -51.412614 
L 174.328797 -51.412614 
L 172.590971 -51.412614 
L 170.853146 -51.412614 
L 169.11532 -51.412614 
L 167.377495 -51.412614 
L 165.639669 -51.412614 
L 163.901844 -51.412614 
L 162.164018 -51.412614 
L 160.426193 -51.412614 
L 158.688367 -51.412614 
L 156.950542 -51.412614 
L 155.212716 -51.412614 
L 153.474891 -51.412614 
L 151.737065 -51.412614 
L 149.99924 -51.412614 
L 148.261414 -51.412614 
L 146.523589 -51.412614 
L 144.785763 -51.412614 
L 143.047938 -51.412614 
L 141.310112 -51.412614 
L 139.572287 -51.412614 
L 137.834461 -51.412614 
L 136.096636 -51.412614 
L 134.35881 -51.412614 
L 132.620985 -51.412614 
L 130.883159 -51.412614 
L 129.145334 -51.412614 
L 127.407508 -51.412614 
L 125.669683 -51.412614 
L 123.931857 -51.412614 
L 122.194032 -51.412614 
L 120.456206 -51.412614 
L 118.718381 -51.412614 
L 116.980555 -51.412614 
L 115.24273 -51.412614 
L 113.504904 -51.412614 
L 111.767079 -51.412614 
L 110.029253 -51.412614 
L 108.291428 -51.412614 
L 106.553602 -51.412614 
L 104.815777 -51.412614 
L 103.077951 -51.412614 
L 101.340126 -51.412614 
L 99.6023 -51.412614 
L 97.864475 -51.412614 
L 96.126649 -51.412614 
L 94.388824 -51.412614 
L 92.650998 -51.412614 
L 90.913173 -51.412614 
L 89.175347 -51.412614 
L 87.437522 -51.412614 
L 85.699696 -51.412614 
L 83.961871 -51.412614 
L 82.224046 -51.412614 
L 80.48622 -51.412614 
L 78.748395 -51.412614 
L 77.010569 -51.412614 
L 75.272744 -51.412614 
L 73.534918 -51.412614 
L 71.797093 -51.412614 
L 70.059267 -51.412614 
L 68.321442 -51.412614 
L 66.583616 -51.412614 
L 64.845791 -51.412614 
L 63.107965 -51.412614 
L 61.37014 -51.412614 
L 59.632314 -51.412614 
L 57.894489 -51.412614 
z
" style="stroke: #ffebee; stroke-opacity: 0.5"/>
    </defs>
    <g clip-path="url(#p3f4d33f51f)">
     <use xlink:href="#me2682daf1b" x="0" y="390.87625" style="fill: #ffebee; fill-opacity: 0.5; stroke: #ffebee; stroke-opacity: 0.5"/>
    </g>
   </g>
   <g id="patch_3">
    <path d="M 209.19392 353.32 
L 252.42233 353.32 
L 252.42233 48.48 
L 209.19392 48.48 
z
" clip-path="url(#p3f4d33f51f)" style="fill: #eceff1; opacity: 0.4; stroke: #eceff1; stroke-linejoin: miter"/>
   </g>
   <g id="matplotlib.axis_1">
    <g id="xtick_1">
     <g id="line2d_1">
      <defs>
       <path id="m44ca2d5680" d="M 0 0 
L 0 3.5 
" style="stroke: #111111; stroke-width: 0.8"/>
      </defs>
      <g>
       <use xlink:href="#m44ca2d5680" x="57.894489" y="353.32" style="fill: #111111; stroke: #111111; stroke-width: 0.8"/>
      </g>
     </g>
     <g id="text_1">
      <!-- −2.0 -->
      <g style="fill: #111111" transform="translate(45.753082 367.918437) scale(0.1 -0.1)">
       <defs>
        <path id="DejaVuSans-2212" d="M 678 2272 
L 4684 2272 
L 4684 1741 
L 678 1741 
L 678 2272 
z
" transform="scale(0.015625)"/>
        <path id="DejaVuSans-32" d="M 1228 531 
L 3431 531 
L 3431 0 
L 469 0 
L 469 531 
Q 828 903 1448 1529 
Q 2069 2156 2228 2338 
Q 2531 2678 2651 2914 
Q 2772 3150 2772 3378 
Q 2772 3750 2511 3984 
Q 2250 4219 1831 4219 
Q 1534 4219 1204 4116 
Q 875 4013 500 3803 
L 500 4441 
Q 881 4594 1212 4672 
Q 1544 4750 1819 4750 
Q 2544 4750 2975 4387 
Q 3406 4025 3406 3419 
Q 3406 3131 3298 2873 
Q 3191 2616 2906 2266 
Q 2828 2175 2409 1742 
Q 1991 1309 1228 531 
z
" transform="scale(0.015625)"/>
        <path id="DejaVuSans-2e" d="M 684 794 
L 1344 794 
L 1344 0 
L 684 0 
L 684 794 
z
" transform="scale(0.015625)"/>
        <path id="DejaVuSans-30" d="M 2034 4250 
Q 1547 4250 1301 3770 
Q 1056 3291 1056 2328 
Q 1056 1369 1301 889 
Q 1547 409 2034 409 
Q 2525 409 2770 889 
Q 3016 1369 3016 2328 
Q 3016 3291 2770 3770 
Q 2525 4250 2034 4250 
z
M 2034 4750 
Q 2819 4750 3233 4129 
Q 3647 3509 3647 2328 
Q 3647 1150 3233 529 
Q 2819 -91 2034 -91 
Q 1250 -91 836 529 
Q 422 1150 422 2328 
Q 422 3509 836 4129 
Q 1250 4750 2034 4750 
z
" transform="scale(0.015625)"/>
       </defs>
       <use xlink:href="#DejaVuSans-2212"/>
       <use xlink:href="#DejaVuSans-32" transform="translate(83.789062 0)"/>
       <use xlink:href="#DejaVuSans-2e" transform="translate(147.412109 0)"/>
       <use xlink:href="#DejaVuSans-30" transform="translate(179.199219 0)"/>
      </g>
     </g>
    </g>
    <g id="xtick_2">
     <g id="line2d_2">
      <g>
       <use xlink:href="#m44ca2d5680" x="101.122898" y="353.32" style="fill: #111111; stroke: #111111; stroke-width: 0.8"/>
      </g>
     </g>
     <g id="text_2">
      <!-- −1.5 -->
      <g style="fill: #111111" transform="translate(88.981491 367.918437) scale(0.1 -0.1)">
       <defs>
        <path id="DejaVuSans-31" d="M 794 531 
L 1825 531 
L 1825 4091 
L 703 3866 
L 703 4441 
L 1819 4666 
L 2450 4666 
L 2450 531 
L 3481 531 
L 3481 0 
L 794 0 
L 794 531 
z
" transform="scale(0.015625)"/>
        <path id="DejaVuSans-35" d="M 691 4666 
L 3169 4666 
L 3169 4134 
L 1269 4134 
L 1269 2991 
Q 1406 3038 1543 3061 
Q 1681 3084 1819 3084 
Q 2600 3084 3056 2656 
Q 3513 2228 3513 1497 
Q 3513 744 3044 326 
Q 2575 -91 1722 -91 
Q 1428 -91 1123 -41 
Q 819 9 494 109 
L 494 744 
Q 775 591 1075 516 
Q 1375 441 1709 441 
Q 2250 441 2565 725 
Q 2881 1009 2881 1497 
Q 2881 1984 2565 2268 
Q 2250 2553 1709 2553 
Q 1456 2553 1204 2497 
Q 953 2441 691 2322 
L 691 4666 
z
" transform="scale(0.015625)"/>
       </defs>
       <use xlink:href="#DejaVuSans-2212"/>
       <use xlink:href="#DejaVuSans-31" transform="translate(83.789062 0)"/>
       <use xlink:href="#DejaVuSans-2e" transform="translate(147.412109 0)"/>
       <use xlink:href="#DejaVuSans-35" transform="translate(179.199219 0)"/>
      </g>
     </g>
    </g>
    <g id="xtick_3">
     <g id="line2d_3">
      <g>
       <use xlink:href="#m44ca2d5680" x="144.351307" y="353.32" style="fill: #111111; stroke: #111111; stroke-width: 0.8"/>
      </g>
     </g>
     <g id="text_3">
      <!-- −1.0 -->
      <g style="fill: #111111" transform="translate(132.209901 367.918437) scale(0.1 -0.1)">
       <use xlink:href="#DejaVuSans-2212"/>
       <use xlink:href="#DejaVuSans-31" transform="translate(83.789062 0)"/>
       <use xlink:href="#DejaVuSans-2e" transform="translate(147.412109 0)"/>
       <use xlink:href="#DejaVuSans-30" transform="translate(179.199219 0)"/>
      </g>
     </g>
    </g>
    <g id="xtick_4">
     <g id="line2d_4">
      <g>
       <use xlink:href="#m44ca2d5680" x="187.579716" y="353.32" style="fill: #111111; stroke: #111111; stroke-width: 0.8"/>
      </g>
     </g>
     <g id="text_4">
      <!-- −0.5 -->
      <g style="fill: #111111" transform="translate(175.43831 367.918437) scale(0.1 -0.1)">
       <use xlink:href="#DejaVuSans-2212"/>
       <use xlink:href="#DejaVuSans-30" transform="translate(83.789062 0)"/>
       <use xlink:href="#DejaVuSans-2e" transform="translate(147.412109 0)"/>
       <use xlink:href="#DejaVuSans-35" transform="translate(179.199219 0)"/>
      </g>
     </g>
    </g>
    <g id="xtick_5">
     <g id="line2d_5">
      <g>
       <use xlink:href="#m44ca2d5680" x="230.808125" y="353.32" style="fill: #111111; stroke: #111111; stroke-width: 0.8"/>
      </g>
     </g>
     <g id="text_5">
      <!-- 0.0 -->
      <g style="fill: #111111" transform="translate(222.856562 367.918437) scale(0.1 -0.1)">
       <use xlink:href="#DejaVuSans-30"/>
       <use xlink:href="#DejaVuSans-2e" transform="translate(63.623047 0)"/>
       <use xlink:href="#DejaVuSans-30" transform="translate(95.410156 0)"/>
      </g>
     </g>
    </g>
    <g id="xtick_6">
     <g id="line2d_6">
      <g>
       <use xlink:href="#m44ca2d5680" x="274.036534" y="353.32" style="fill: #111111; stroke: #111111; stroke-width: 0.8"/>
      </g>
     </g>
     <g id="text_6">
      <!-- 0.5 -->
      <g style="fill: #111111" transform="translate(266.084972 367.918437) scale(0.1 -0.1)">
       <use xlink:href="#DejaVuSans-30"/>
       <use xlink:href="#DejaVuSans-2e" transform="translate(63.623047 0)"/>
       <use xlink:href="#DejaVuSans-35" transform="translate(95.410156 0)"/>
      </g>
     </g>
    </g>
    <g id="xtick_7">
     <g id="line2d_7">
      <g>
       <use xlink:href="#m44ca2d5680" x="317.264943" y="353.32" style="fill: #111111; stroke: #111111; stroke-width: 0.8"/>
      </g>
     </g>
     <g id="text_7">
      <!-- 1.0 -->
      <g style="fill: #111111" transform="translate(309.313381 367.918437) scale(0.1 -0.1)">
       <use xlink:href="#DejaVuSans-31"/>
       <use xlink:href="#DejaVuSans-2e" transform="translate(63.623047 0)"/>
       <use xlink:href="#DejaVuSans-30" transform="translate(95.410156 0)"/>
      </g>
     </g>
    </g>
    <g id="xtick_8">
     <g id="line2d_8">
      <g>
       <use xlink:href="#m44ca2d5680" x="360.493352" y="353.32" style="fill: #111111; stroke: #111111; stroke-width: 0.8"/>
      </g>
     </g>
     <g id="text_8">
      <!-- 1.5 -->
      <g style="fill: #111111" transform="translate(352.54179 367.918437) scale(0.1 -0.1)">
       <use xlink:href="#DejaVuSans-31"/>
       <use xlink:href="#DejaVuSans-2e" transform="translate(63.623047 0)"/>
       <use xlink:href="#DejaVuSans-35" transform="translate(95.410156 0)"/>
      </g>
     </g>
    </g>
    <g id="xtick_9">
     <g id="line2d_9">
      <g>
       <use xlink:href="#m44ca2d5680" x="403.721761" y="353.32" style="fill: #111111; stroke: #111111; stroke-width: 0.8"/>
      </g>
     </g>
     <g id="text_9">
      <!-- 2.0 -->
      <g style="fill: #111111" transform="translate(395.770199 367.918437) scale(0.1 -0.1)">
       <use xlink:href="#DejaVuSans-32"/>
       <use xlink:href="#DejaVuSans-2e" transform="translate(63.623047 0)"/>
       <use xlink:href="#DejaVuSans-30" transform="translate(95.410156 0)"/>
      </g>
     </g>
    </g>
    <g id="text_10">
     <!-- Perturbation Direction -->
     <g style="fill: #111111" transform="translate(175.668281 381.596562) scale(0.1 -0.1)">
      <defs>
       <path id="DejaVuSans-50" d="M 1259 4147 
L 1259 2394 
L 2053 2394 
Q 2494 2394 2734 2622 
Q 2975 2850 2975 3272 
Q 2975 3691 2734 3919 
Q 2494 4147 2053 4147 
L 1259 4147 
z
M 628 4666 
L 2053 4666 
Q 2838 4666 3239 4311 
Q 3641 3956 3641 3272 
Q 3641 2581 3239 2228 
Q 2838 1875 2053 1875 
L 1259 1875 
L 1259 0 
L 628 0 
L 628 4666 
z
" transform="scale(0.015625)"/>
       <path id="DejaVuSans-65" d="M 3597 1894 
L 3597 1613 
L 953 1613 
Q 991 1019 1311 708 
Q 1631 397 2203 397 
Q 2534 397 2845 478 
Q 3156 559 3463 722 
L 3463 178 
Q 3153 47 2828 -22 
Q 2503 -91 2169 -91 
Q 1331 -91 842 396 
Q 353 884 353 1716 
Q 353 2575 817 3079 
Q 1281 3584 2069 3584 
Q 2775 3584 3186 3129 
Q 3597 2675 3597 1894 
z
M 3022 2063 
Q 3016 2534 2758 2815 
Q 2500 3097 2075 3097 
Q 1594 3097 1305 2825 
Q 1016 2553 972 2059 
L 3022 2063 
z
" transform="scale(0.015625)"/>
       <path id="DejaVuSans-72" d="M 2631 2963 
Q 2534 3019 2420 3045 
Q 2306 3072 2169 3072 
Q 1681 3072 1420 2755 
Q 1159 2438 1159 1844 
L 1159 0 
L 581 0 
L 581 3500 
L 1159 3500 
L 1159 2956 
Q 1341 3275 1631 3429 
Q 1922 3584 2338 3584 
Q 2397 3584 2469 3576 
Q 2541 3569 2628 3553 
L 2631 2963 
z
" transform="scale(0.015625)"/>
       <path id="DejaVuSans-74" d="M 1172 4494 
L 1172 3500 
L 2356 3500 
L 2356 3053 
L 1172 3053 
L 1172 1153 
Q 1172 725 1289 603 
Q 1406 481 1766 481 
L 2356 481 
L 2356 0 
L 1766 0 
Q 1100 0 847 248 
Q 594 497 594 1153 
L 594 3053 
L 172 3053 
L 172 3500 
L 594 3500 
L 594 4494 
L 1172 4494 
z
" transform="scale(0.015625)"/>
       <path id="DejaVuSans-75" d="M 544 1381 
L 544 3500 
L 1119 3500 
L 1119 1403 
Q 1119 906 1312 657 
Q 1506 409 1894 409 
Q 2359 409 2629 706 
Q 2900 1003 2900 1516 
L 2900 3500 
L 3475 3500 
L 3475 0 
L 2900 0 
L 2900 538 
Q 2691 219 2414 64 
Q 2138 -91 1772 -91 
Q 1169 -91 856 284 
Q 544 659 544 1381 
z
M 1991 3584 
L 1991 3584 
z
" transform="scale(0.015625)"/>
       <path id="DejaVuSans-62" d="M 3116 1747 
Q 3116 2381 2855 2742 
Q 2594 3103 2138 3103 
Q 1681 3103 1420 2742 
Q 1159 2381 1159 1747 
Q 1159 1113 1420 752 
Q 1681 391 2138 391 
Q 2594 391 2855 752 
Q 3116 1113 3116 1747 
z
M 1159 2969 
Q 1341 3281 1617 3432 
Q 1894 3584 2278 3584 
Q 2916 3584 3314 3078 
Q 3713 2572 3713 1747 
Q 3713 922 3314 415 
Q 2916 -91 2278 -91 
Q 1894 -91 1617 61 
Q 1341 213 1159 525 
L 1159 0 
L 581 0 
L 581 4863 
L 1159 4863 
L 1159 2969 
z
" transform="scale(0.015625)"/>
       <path id="DejaVuSans-61" d="M 2194 1759 
Q 1497 1759 1228 1600 
Q 959 1441 959 1056 
Q 959 750 1161 570 
Q 1363 391 1709 391 
Q 2188 391 2477 730 
Q 2766 1069 2766 1631 
L 2766 1759 
L 2194 1759 
z
M 3341 1997 
L 3341 0 
L 2766 0 
L 2766 531 
Q 2569 213 2275 61 
Q 1981 -91 1556 -91 
Q 1019 -91 701 211 
Q 384 513 384 1019 
Q 384 1609 779 1909 
Q 1175 2209 1959 2209 
L 2766 2209 
L 2766 2266 
Q 2766 2663 2505 2880 
Q 2244 3097 1772 3097 
Q 1472 3097 1187 3025 
Q 903 2953 641 2809 
L 641 3341 
Q 956 3463 1253 3523 
Q 1550 3584 1831 3584 
Q 2591 3584 2966 3190 
Q 3341 2797 3341 1997 
z
" transform="scale(0.015625)"/>
       <path id="DejaVuSans-69" d="M 603 3500 
L 1178 3500 
L 1178 0 
L 603 0 
L 603 3500 
z
M 603 4863 
L 1178 4863 
L 1178 4134 
L 603 4134 
L 603 4863 
z
" transform="scale(0.015625)"/>
       <path id="DejaVuSans-6f" d="M 1959 3097 
Q 1497 3097 1228 2736 
Q 959 2375 959 1747 
Q 959 1119 1226 758 
Q 1494 397 1959 397 
Q 2419 397 2687 759 
Q 2956 1122 2956 1747 
Q 2956 2369 2687 2733 
Q 2419 3097 1959 3097 
z
M 1959 3584 
Q 2709 3584 3137 3096 
Q 3566 2609 3566 1747 
Q 3566 888 3137 398 
Q 2709 -91 1959 -91 
Q 1206 -91 779 398 
Q 353 888 353 1747 
Q 353 2609 779 3096 
Q 1206 3584 1959 3584 
z
" transform="scale(0.015625)"/>
       <path id="DejaVuSans-6e" d="M 3513 2113 
L 3513 0 
L 2938 0 
L 2938 2094 
Q 2938 2591 2744 2837 
Q 2550 3084 2163 3084 
Q 1697 3084 1428 2787 
Q 1159 2491 1159 1978 
L 1159 0 
L 581 0 
L 581 3500 
L 1159 3500 
L 1159 2956 
Q 1366 3272 1645 3428 
Q 1925 3584 2291 3584 
Q 2894 3584 3203 3211 
Q 3513 2838 3513 2113 
z
" transform="scale(0.015625)"/>
       <path id="DejaVuSans-20" transform="scale(0.015625)"/>
       <path id="DejaVuSans-44" d="M 1259 4147 
L 1259 519 
L 2022 519 
Q 2988 519 3436 956 
Q 3884 1394 3884 2338 
Q 3884 3275 3436 3711 
Q 2988 4147 2022 4147 
L 1259 4147 
z
M 628 4666 
L 1925 4666 
Q 3281 4666 3915 4102 
Q 4550 3538 4550 2338 
Q 4550 1131 3912 565 
Q 3275 0 1925 0 
L 628 0 
L 628 4666 
z
" transform="scale(0.015625)"/>
       <path id="DejaVuSans-63" d="M 3122 3366 
L 3122 2828 
Q 2878 2963 2633 3030 
Q 2388 3097 2138 3097 
Q 1578 3097 1268 2742 
Q 959 2388 959 1747 
Q 959 1106 1268 751 
Q 1578 397 2138 397 
Q 2388 397 2633 464 
Q 2878 531 3122 666 
L 3122 134 
Q 2881 22 2623 -34 
Q 2366 -91 2075 -91 
Q 1284 -91 818 406 
Q 353 903 353 1747 
Q 353 2603 823 3093 
Q 1294 3584 2113 3584 
Q 2378 3584 2631 3529 
Q 2884 3475 3122 3366 
z
" transform="scale(0.015625)"/>
      </defs>
      <use xlink:href="#DejaVuSans-50"/>
      <use xlink:href="#DejaVuSans-65" transform="translate(56.677734 0)"/>
      <use xlink:href="#DejaVuSans-72" transform="translate(118.201172 0)"/>
      <use xlink:href="#DejaVuSans-74" transform="translate(159.314453 0)"/>
      <use xlink:href="#DejaVuSans-75" transform="translate(198.523438 0)"/>
      <use xlink:href="#DejaVuSans-72" transform="translate(261.902344 0)"/>
      <use xlink:href="#DejaVuSans-62" transform="translate(303.015625 0)"/>
      <use xlink:href="#DejaVuSans-61" transform="translate(366.492188 0)"/>
      <use xlink:href="#DejaVuSans-74" transform="translate(427.771484 0)"/>
      <use xlink:href="#DejaVuSans-69" transform="translate(466.980469 0)"/>
      <use xlink:href="#DejaVuSans-6f" transform="translate(494.763672 0)"/>
      <use xlink:href="#DejaVuSans-6e" transform="translate(555.945312 0)"/>
      <use xlink:href="#DejaVuSans-20" transform="translate(619.324219 0)"/>
      <use xlink:href="#DejaVuSans-44" transform="translate(651.111328 0)"/>
      <use xlink:href="#DejaVuSans-69" transform="translate(728.113281 0)"/>
      <use xlink:href="#DejaVuSans-72" transform="translate(755.896484 0)"/>
      <use xlink:href="#DejaVuSans-65" transform="translate(794.759766 0)"/>
      <use xlink:href="#DejaVuSans-63" transform="translate(856.283203 0)"/>
      <use xlink:href="#DejaVuSans-74" transform="translate(911.263672 0)"/>
      <use xlink:href="#DejaVuSans-69" transform="translate(950.472656 0)"/>
      <use xlink:href="#DejaVuSans-6f" transform="translate(978.255859 0)"/>
      <use xlink:href="#DejaVuSans-6e" transform="translate(1039.4375 0)"/>
     </g>
    </g>
   </g>
   <g id="matplotlib.axis_2">
    <g id="ytick_1">
     <g id="line2d_10">
      <defs>
       <path id="ma326bbd99e" d="M 0 0 
L -3.5 0 
" style="stroke: #111111; stroke-width: 0.8"/>
      </defs>
      <g>
       <use xlink:href="#ma326bbd99e" x="40.603125" y="339.463636" style="fill: #111111; stroke: #111111; stroke-width: 0.8"/>
      </g>
     </g>
     <g id="text_11">
      <!-- 0 -->
      <g style="fill: #111111" transform="translate(27.240625 343.262855) scale(0.1 -0.1)">
       <use xlink:href="#DejaVuSans-30"/>
      </g>
     </g>
    </g>
    <g id="ytick_2">
     <g id="line2d_11">
      <g>
       <use xlink:href="#ma326bbd99e" x="40.603125" y="293.275758" style="fill: #111111; stroke: #111111; stroke-width: 0.8"/>
      </g>
     </g>
     <g id="text_12">
      <!-- 5 -->
      <g style="fill: #111111" transform="translate(27.240625 297.074976) scale(0.1 -0.1)">
       <use xlink:href="#DejaVuSans-35"/>
      </g>
     </g>
    </g>
    <g id="ytick_3">
     <g id="line2d_12">
      <g>
       <use xlink:href="#ma326bbd99e" x="40.603125" y="247.087879" style="fill: #111111; stroke: #111111; stroke-width: 0.8"/>
      </g>
     </g>
     <g id="text_13">
      <!-- 10 -->
      <g style="fill: #111111" transform="translate(20.878125 250.887098) scale(0.1 -0.1)">
       <use xlink:href="#DejaVuSans-31"/>
       <use xlink:href="#DejaVuSans-30" transform="translate(63.623047 0)"/>
      </g>
     </g>
    </g>
    <g id="ytick_4">
     <g id="line2d_13">
      <g>
       <use xlink:href="#ma326bbd99e" x="40.603125" y="200.9" style="fill: #111111; stroke: #111111; stroke-width: 0.8"/>
      </g>
     </g>
     <g id="text_14">
      <!-- 15 -->
      <g style="fill: #111111" transform="translate(20.878125 204.699219) scale(0.1 -0.1)">
       <use xlink:href="#DejaVuSans-31"/>
       <use xlink:href="#DejaVuSans-35" transform="translate(63.623047 0)"/>
      </g>
     </g>
    </g>
    <g id="ytick_5">
     <g id="line2d_14">
      <g>
       <use xlink:href="#ma326bbd99e" x="40.603125" y="154.712121" style="fill: #111111; stroke: #111111; stroke-width: 0.8"/>
      </g>
     </g>
     <g id="text_15">
      <!-- 20 -->
      <g style="fill: #111111" transform="translate(20.878125 158.51134) scale(0.1 -0.1)">
       <use xlink:href="#DejaVuSans-32"/>
       <use xlink:href="#DejaVuSans-30" transform="translate(63.623047 0)"/>
      </g>
     </g>
    </g>
    <g id="ytick_6">
     <g id="line2d_15">
      <g>
       <use xlink:href="#ma326bbd99e" x="40.603125" y="108.524242" style="fill: #111111; stroke: #111111; stroke-width: 0.8"/>
      </g>
     </g>
     <g id="text_16">
      <!-- 25 -->
      <g style="fill: #111111" transform="translate(20.878125 112.323461) scale(0.1 -0.1)">
       <use xlink:href="#DejaVuSans-32"/>
       <use xlink:href="#DejaVuSans-35" transform="translate(63.623047 0)"/>
      </g>
     </g>
    </g>
    <g id="ytick_7">
     <g id="line2d_16">
      <g>
       <use xlink:href="#ma326bbd99e" x="40.603125" y="62.336364" style="fill: #111111; stroke: #111111; stroke-width: 0.8"/>
      </g>
     </g>
     <g id="text_17">
      <!-- 30 -->
      <g style="fill: #111111" transform="translate(20.878125 66.135582) scale(0.1 -0.1)">
       <defs>
        <path id="DejaVuSans-33" d="M 2597 2516 
Q 3050 2419 3304 2112 
Q 3559 1806 3559 1356 
Q 3559 666 3084 287 
Q 2609 -91 1734 -91 
Q 1441 -91 1130 -33 
Q 819 25 488 141 
L 488 750 
Q 750 597 1062 519 
Q 1375 441 1716 441 
Q 2309 441 2620 675 
Q 2931 909 2931 1356 
Q 2931 1769 2642 2001 
Q 2353 2234 1838 2234 
L 1294 2234 
L 1294 2753 
L 1863 2753 
Q 2328 2753 2575 2939 
Q 2822 3125 2822 3475 
Q 2822 3834 2567 4026 
Q 2313 4219 1838 4219 
Q 1578 4219 1281 4162 
Q 984 4106 628 3988 
L 628 4550 
Q 988 4650 1302 4700 
Q 1616 4750 1894 4750 
Q 2613 4750 3031 4423 
Q 3450 4097 3450 3541 
Q 3450 3153 3228 2886 
Q 3006 2619 2597 2516 
z
" transform="scale(0.015625)"/>
       </defs>
       <use xlink:href="#DejaVuSans-33"/>
       <use xlink:href="#DejaVuSans-30" transform="translate(63.623047 0)"/>
      </g>
     </g>
    </g>
    <g id="text_18">
     <!-- Cross Entropy Loss -->
     <g style="fill: #111111" transform="translate(14.798438 248.172656) rotate(-90) scale(0.1 -0.1)">
      <defs>
       <path id="DejaVuSans-43" d="M 4122 4306 
L 4122 3641 
Q 3803 3938 3442 4084 
Q 3081 4231 2675 4231 
Q 1875 4231 1450 3742 
Q 1025 3253 1025 2328 
Q 1025 1406 1450 917 
Q 1875 428 2675 428 
Q 3081 428 3442 575 
Q 3803 722 4122 1019 
L 4122 359 
Q 3791 134 3420 21 
Q 3050 -91 2638 -91 
Q 1578 -91 968 557 
Q 359 1206 359 2328 
Q 359 3453 968 4101 
Q 1578 4750 2638 4750 
Q 3056 4750 3426 4639 
Q 3797 4528 4122 4306 
z
" transform="scale(0.015625)"/>
       <path id="DejaVuSans-73" d="M 2834 3397 
L 2834 2853 
Q 2591 2978 2328 3040 
Q 2066 3103 1784 3103 
Q 1356 3103 1142 2972 
Q 928 2841 928 2578 
Q 928 2378 1081 2264 
Q 1234 2150 1697 2047 
L 1894 2003 
Q 2506 1872 2764 1633 
Q 3022 1394 3022 966 
Q 3022 478 2636 193 
Q 2250 -91 1575 -91 
Q 1294 -91 989 -36 
Q 684 19 347 128 
L 347 722 
Q 666 556 975 473 
Q 1284 391 1588 391 
Q 1994 391 2212 530 
Q 2431 669 2431 922 
Q 2431 1156 2273 1281 
Q 2116 1406 1581 1522 
L 1381 1569 
Q 847 1681 609 1914 
Q 372 2147 372 2553 
Q 372 3047 722 3315 
Q 1072 3584 1716 3584 
Q 2034 3584 2315 3537 
Q 2597 3491 2834 3397 
z
" transform="scale(0.015625)"/>
       <path id="DejaVuSans-45" d="M 628 4666 
L 3578 4666 
L 3578 4134 
L 1259 4134 
L 1259 2753 
L 3481 2753 
L 3481 2222 
L 1259 2222 
L 1259 531 
L 3634 531 
L 3634 0 
L 628 0 
L 628 4666 
z
" transform="scale(0.015625)"/>
       <path id="DejaVuSans-70" d="M 1159 525 
L 1159 -1331 
L 581 -1331 
L 581 3500 
L 1159 3500 
L 1159 2969 
Q 1341 3281 1617 3432 
Q 1894 3584 2278 3584 
Q 2916 3584 3314 3078 
Q 3713 2572 3713 1747 
Q 3713 922 3314 415 
Q 2916 -91 2278 -91 
Q 1894 -91 1617 61 
Q 1341 213 1159 525 
z
M 3116 1747 
Q 3116 2381 2855 2742 
Q 2594 3103 2138 3103 
Q 1681 3103 1420 2742 
Q 1159 2381 1159 1747 
Q 1159 1113 1420 752 
Q 1681 391 2138 391 
Q 2594 391 2855 752 
Q 3116 1113 3116 1747 
z
" transform="scale(0.015625)"/>
       <path id="DejaVuSans-79" d="M 2059 -325 
Q 1816 -950 1584 -1140 
Q 1353 -1331 966 -1331 
L 506 -1331 
L 506 -850 
L 844 -850 
Q 1081 -850 1212 -737 
Q 1344 -625 1503 -206 
L 1606 56 
L 191 3500 
L 800 3500 
L 1894 763 
L 2988 3500 
L 3597 3500 
L 2059 -325 
z
" transform="scale(0.015625)"/>
       <path id="DejaVuSans-4c" d="M 628 4666 
L 1259 4666 
L 1259 531 
L 3531 531 
L 3531 0 
L 628 0 
L 628 4666 
z
" transform="scale(0.015625)"/>
      </defs>
      <use xlink:href="#DejaVuSans-43"/>
      <use xlink:href="#DejaVuSans-72" transform="translate(69.824219 0)"/>
      <use xlink:href="#DejaVuSans-6f" transform="translate(108.6875 0)"/>
      <use xlink:href="#DejaVuSans-73" transform="translate(169.869141 0)"/>
      <use xlink:href="#DejaVuSans-73" transform="translate(221.96875 0)"/>
      <use xlink:href="#DejaVuSans-20" transform="translate(274.068359 0)"/>
      <use xlink:href="#DejaVuSans-45" transform="translate(305.855469 0)"/>
      <use xlink:href="#DejaVuSans-6e" transform="translate(369.039062 0)"/>
      <use xlink:href="#DejaVuSans-74" transform="translate(432.417969 0)"/>
      <use xlink:href="#DejaVuSans-72" transform="translate(471.626953 0)"/>
      <use xlink:href="#DejaVuSans-6f" transform="translate(510.490234 0)"/>
      <use xlink:href="#DejaVuSans-70" transform="translate(571.671875 0)"/>
      <use xlink:href="#DejaVuSans-79" transform="translate(635.148438 0)"/>
      <use xlink:href="#DejaVuSans-20" transform="translate(694.328125 0)"/>
      <use xlink:href="#DejaVuSans-4c" transform="translate(726.115234 0)"/>
      <use xlink:href="#DejaVuSans-6f" transform="translate(780.078125 0)"/>
      <use xlink:href="#DejaVuSans-73" transform="translate(841.259766 0)"/>
      <use xlink:href="#DejaVuSans-73" transform="translate(893.359375 0)"/>
     </g>
    </g>
   </g>
   <g id="line2d_17">
    <path d="M 57.894489 62.336364 
L 61.37014 79.013144 
L 64.845791 94.897298 
L 68.321442 110.016764 
L 71.797093 124.398902 
L 75.272744 138.070493 
L 78.748395 151.05774 
L 82.224046 163.386266 
L 85.699696 175.081114 
L 89.175347 186.166749 
L 92.650998 196.667057 
L 96.126649 206.605346 
L 99.6023 216.004342 
L 103.077951 224.886194 
L 106.553602 233.272473 
L 110.029253 241.184168 
L 113.504904 248.641692 
L 116.980555 255.664877 
L 120.456206 262.272975 
L 123.931857 268.484663 
L 127.407508 274.318034 
L 130.883159 279.790606 
L 134.35881 284.919315 
L 137.834461 289.72052 
L 141.310112 294.209999 
L 144.785763 298.402954 
L 148.261414 302.314004 
L 151.737065 305.957193 
L 155.212716 309.345982 
L 158.688367 312.493257 
L 162.164018 315.411321 
L 165.639669 318.1119 
L 169.11532 320.606141 
L 172.590971 322.904613 
L 176.066622 325.017302 
L 181.280099 327.858422 
L 186.493575 330.331883 
L 191.707051 332.464069 
L 196.920528 334.278431 
L 202.134004 335.79549 
L 207.347481 337.032835 
L 212.560957 338.005122 
L 217.774434 338.724077 
L 222.98791 339.198494 
L 228.201387 339.434237 
L 233.414863 339.434237 
L 238.62834 339.198494 
L 243.841816 338.724077 
L 249.055293 338.005122 
L 254.268769 337.032835 
L 259.482246 335.79549 
L 264.695722 334.278431 
L 269.909199 332.464069 
L 275.122675 330.331883 
L 280.336151 327.858422 
L 283.811802 326.006942 
L 287.287453 323.983578 
L 290.763104 321.77921 
L 294.238755 319.384139 
L 297.714406 316.788086 
L 301.190057 313.980193 
L 304.665708 310.949026 
L 308.141359 307.682569 
L 311.61701 304.168226 
L 315.092661 300.392826 
L 318.568312 296.342615 
L 322.043963 292.003262 
L 325.519614 287.359855 
L 328.995265 282.396907 
L 332.470916 277.098348 
L 335.946567 271.44753 
L 339.422218 265.427226 
L 342.897869 259.019631 
L 346.37352 252.20636 
L 349.849171 244.968449 
L 353.324822 237.286354 
L 356.800473 229.139955 
L 360.276124 220.508549 
L 363.751775 211.370857 
L 367.227426 201.70502 
L 370.703077 191.488599 
L 374.178728 180.698576 
L 377.654379 169.311357 
L 381.13003 157.302764 
L 384.605681 144.648045 
L 388.081332 131.321865 
L 391.556983 117.298311 
L 395.032634 102.550893 
L 398.508285 87.05254 
L 401.983936 70.775601 
L 403.721761 62.336364 
L 403.721761 62.336364 
" clip-path="url(#p3f4d33f51f)" style="fill: none; stroke: #d32f2f; stroke-width: 2.5; stroke-linecap: square"/>
   </g>
   <g id="patch_4">
    <path d="M 40.603125 353.32 
L 40.603125 48.48 
" style="fill: none; stroke: #111111; stroke-width: 0.8; stroke-linejoin: miter; stroke-linecap: square"/>
   </g>
   <g id="patch_5">
    <path d="M 421.013125 353.32 
L 421.013125 48.48 
" style="fill: none; stroke: #111111; stroke-width: 0.8; stroke-linejoin: miter; stroke-linecap: square"/>
   </g>
   <g id="patch_6">
    <path d="M 40.603125 353.32 
L 421.013125 353.32 
" style="fill: none; stroke: #111111; stroke-width: 0.8; stroke-linejoin: miter; stroke-linecap: square"/>
   </g>
   <g id="patch_7">
    <path d="M 40.603125 48.48 
L 421.013125 48.48 
" style="fill: none; stroke: #111111; stroke-width: 0.8; stroke-linejoin: miter; stroke-linecap: square"/>
   </g>
   <g id="patch_8">
    <path d="M 294.996658 292.138541 
Q 281.893062 306.068848 268.789465 319.999155 
L 270.61044 321.712062 
Q 265.406367 325.055202 260.202293 328.398342 
Q 263.221197 322.999714 266.2401 317.601086 
L 268.061075 319.313992 
Q 281.164672 305.383685 294.268268 291.453378 
L 294.996658 292.138541 
z
" style="stroke: #000000; stroke-linecap: round"/>
   </g>
   <g id="text_19">
    <!-- Vulnerable Region -->
    <g transform="translate(299.97358 272.840369) scale(0.1 -0.1)">
     <defs>
      <path id="DejaVuSans-56" d="M 1831 0 
L 50 4666 
L 709 4666 
L 2188 738 
L 3669 4666 
L 4325 4666 
L 2547 0 
L 1831 0 
z
" transform="scale(0.015625)"/>
      <path id="DejaVuSans-6c" d="M 603 4863 
L 1178 4863 
L 1178 0 
L 603 0 
L 603 4863 
z
" transform="scale(0.015625)"/>
      <path id="DejaVuSans-52" d="M 2841 2188 
Q 3044 2119 3236 1894 
Q 3428 1669 3622 1275 
L 4263 0 
L 3584 0 
L 2988 1197 
Q 2756 1666 2539 1819 
Q 2322 1972 1947 1972 
L 1259 1972 
L 1259 0 
L 628 0 
L 628 4666 
L 2053 4666 
Q 2853 4666 3247 4331 
Q 3641 3997 3641 3322 
Q 3641 2881 3436 2590 
Q 3231 2300 2841 2188 
z
M 1259 4147 
L 1259 2491 
L 2053 2491 
Q 2509 2491 2742 2702 
Q 2975 2913 2975 3322 
Q 2975 3731 2742 3939 
Q 2509 4147 2053 4147 
L 1259 4147 
z
" transform="scale(0.015625)"/>
      <path id="DejaVuSans-67" d="M 2906 1791 
Q 2906 2416 2648 2759 
Q 2391 3103 1925 3103 
Q 1463 3103 1205 2759 
Q 947 2416 947 1791 
Q 947 1169 1205 825 
Q 1463 481 1925 481 
Q 2391 481 2648 825 
Q 2906 1169 2906 1791 
z
M 3481 434 
Q 3481 -459 3084 -895 
Q 2688 -1331 1869 -1331 
Q 1566 -1331 1297 -1286 
Q 1028 -1241 775 -1147 
L 775 -588 
Q 1028 -725 1275 -790 
Q 1522 -856 1778 -856 
Q 2344 -856 2625 -561 
Q 2906 -266 2906 331 
L 2906 616 
Q 2728 306 2450 153 
Q 2172 0 1784 0 
Q 1141 0 747 490 
Q 353 981 353 1791 
Q 353 2603 747 3093 
Q 1141 3584 1784 3584 
Q 2172 3584 2450 3431 
Q 2728 3278 2906 2969 
L 2906 3500 
L 3481 3500 
L 3481 434 
z
" transform="scale(0.015625)"/>
     </defs>
     <use xlink:href="#DejaVuSans-56"/>
     <use xlink:href="#DejaVuSans-75" transform="translate(61.658203 0)"/>
     <use xlink:href="#DejaVuSans-6c" transform="translate(125.037109 0)"/>
     <use xlink:href="#DejaVuSans-6e" transform="translate(152.820312 0)"/>
     <use xlink:href="#DejaVuSans-65" transform="translate(216.199219 0)"/>
     <use xlink:href="#DejaVuSans-72" transform="translate(277.722656 0)"/>
     <use xlink:href="#DejaVuSans-61" transform="translate(318.835938 0)"/>
     <use xlink:href="#DejaVuSans-62" transform="translate(380.115234 0)"/>
     <use xlink:href="#DejaVuSans-6c" transform="translate(443.591797 0)"/>
     <use xlink:href="#DejaVuSans-65" transform="translate(471.375 0)"/>
     <use xlink:href="#DejaVuSans-20" transform="translate(532.898438 0)"/>
     <use xlink:href="#DejaVuSans-52" transform="translate(564.685547 0)"/>
     <use xlink:href="#DejaVuSans-65" transform="translate(629.667969 0)"/>
     <use xlink:href="#DejaVuSans-67" transform="translate(691.191406 0)"/>
     <use xlink:href="#DejaVuSans-69" transform="translate(754.667969 0)"/>
     <use xlink:href="#DejaVuSans-6f" transform="translate(782.451172 0)"/>
     <use xlink:href="#DejaVuSans-6e" transform="translate(843.632812 0)"/>
    </g>
    <!-- (High Loss Spike) -->
    <g transform="translate(299.97358 284.038182) scale(0.1 -0.1)">
     <defs>
      <path id="DejaVuSans-28" d="M 1984 4856 
Q 1566 4138 1362 3434 
Q 1159 2731 1159 2009 
Q 1159 1288 1364 580 
Q 1569 -128 1984 -844 
L 1484 -844 
Q 1016 -109 783 600 
Q 550 1309 550 2009 
Q 550 2706 781 3412 
Q 1013 4119 1484 4856 
L 1984 4856 
z
" transform="scale(0.015625)"/>
      <path id="DejaVuSans-48" d="M 628 4666 
L 1259 4666 
L 1259 2753 
L 3553 2753 
L 3553 4666 
L 4184 4666 
L 4184 0 
L 3553 0 
L 3553 2222 
L 1259 2222 
L 1259 0 
L 628 0 
L 628 4666 
z
" transform="scale(0.015625)"/>
      <path id="DejaVuSans-68" d="M 3513 2113 
L 3513 0 
L 2938 0 
L 2938 2094 
Q 2938 2591 2744 2837 
Q 2550 3084 2163 3084 
Q 1697 3084 1428 2787 
Q 1159 2491 1159 1978 
L 1159 0 
L 581 0 
L 581 4863 
L 1159 4863 
L 1159 2956 
Q 1366 3272 1645 3428 
Q 1925 3584 2291 3584 
Q 2894 3584 3203 3211 
Q 3513 2838 3513 2113 
z
" transform="scale(0.015625)"/>
      <path id="DejaVuSans-53" d="M 3425 4513 
L 3425 3897 
Q 3066 4069 2747 4153 
Q 2428 4238 2131 4238 
Q 1616 4238 1336 4038 
Q 1056 3838 1056 3469 
Q 1056 3159 1242 3001 
Q 1428 2844 1947 2747 
L 2328 2669 
Q 3034 2534 3370 2195 
Q 3706 1856 3706 1288 
Q 3706 609 3251 259 
Q 2797 -91 1919 -91 
Q 1588 -91 1214 -16 
Q 841 59 441 206 
L 441 856 
Q 825 641 1194 531 
Q 1563 422 1919 422 
Q 2459 422 2753 634 
Q 3047 847 3047 1241 
Q 3047 1584 2836 1778 
Q 2625 1972 2144 2069 
L 1759 2144 
Q 1053 2284 737 2584 
Q 422 2884 422 3419 
Q 422 4038 858 4394 
Q 1294 4750 2059 4750 
Q 2388 4750 2728 4690 
Q 3069 4631 3425 4513 
z
" transform="scale(0.015625)"/>
      <path id="DejaVuSans-6b" d="M 581 4863 
L 1159 4863 
L 1159 1991 
L 2875 3500 
L 3609 3500 
L 1753 1863 
L 3688 0 
L 2938 0 
L 1159 1709 
L 1159 0 
L 581 0 
L 581 4863 
z
" transform="scale(0.015625)"/>
      <path id="DejaVuSans-29" d="M 513 4856 
L 1013 4856 
Q 1481 4119 1714 3412 
Q 1947 2706 1947 2009 
Q 1947 1309 1714 600 
Q 1481 -109 1013 -844 
L 513 -844 
Q 928 -128 1133 580 
Q 1338 1288 1338 2009 
Q 1338 2731 1133 3434 
Q 928 4138 513 4856 
z
" transform="scale(0.015625)"/>
     </defs>
     <use xlink:href="#DejaVuSans-28"/>
     <use xlink:href="#DejaVuSans-48" transform="translate(39.013672 0)"/>
     <use xlink:href="#DejaVuSans-69" transform="translate(114.208984 0)"/>
     <use xlink:href="#DejaVuSans-67" transform="translate(141.992188 0)"/>
     <use xlink:href="#DejaVuSans-68" transform="translate(205.46875 0)"/>
     <use xlink:href="#DejaVuSans-20" transform="translate(268.847656 0)"/>
     <use xlink:href="#DejaVuSans-4c" transform="translate(300.634766 0)"/>
     <use xlink:href="#DejaVuSans-6f" transform="translate(354.597656 0)"/>
     <use xlink:href="#DejaVuSans-73" transform="translate(415.779297 0)"/>
     <use xlink:href="#DejaVuSans-73" transform="translate(467.878906 0)"/>
     <use xlink:href="#DejaVuSans-20" transform="translate(519.978516 0)"/>
     <use xlink:href="#DejaVuSans-53" transform="translate(551.765625 0)"/>
     <use xlink:href="#DejaVuSans-70" transform="translate(615.242188 0)"/>
     <use xlink:href="#DejaVuSans-69" transform="translate(678.71875 0)"/>
     <use xlink:href="#DejaVuSans-6b" transform="translate(706.501953 0)"/>
     <use xlink:href="#DejaVuSans-65" transform="translate(760.787109 0)"/>
     <use xlink:href="#DejaVuSans-29" transform="translate(822.310547 0)"/>
    </g>
   </g>
   <g id="text_20">
    <!-- Standard ResNet/ViT (Sharp Loss Minimum) -->
    <g style="fill: #111111" transform="translate(94.995937 42.48) scale(0.11 -0.11)">
     <defs>
      <path id="DejaVuSans-Bold-53" d="M 3834 4519 
L 3834 3531 
Q 3450 3703 3084 3790 
Q 2719 3878 2394 3878 
Q 1963 3878 1756 3759 
Q 1550 3641 1550 3391 
Q 1550 3203 1689 3098 
Q 1828 2994 2194 2919 
L 2706 2816 
Q 3484 2659 3812 2340 
Q 4141 2022 4141 1434 
Q 4141 663 3683 286 
Q 3225 -91 2284 -91 
Q 1841 -91 1394 -6 
Q 947 78 500 244 
L 500 1259 
Q 947 1022 1364 901 
Q 1781 781 2169 781 
Q 2563 781 2772 912 
Q 2981 1044 2981 1288 
Q 2981 1506 2839 1625 
Q 2697 1744 2272 1838 
L 1806 1941 
Q 1106 2091 782 2419 
Q 459 2747 459 3303 
Q 459 4000 909 4375 
Q 1359 4750 2203 4750 
Q 2588 4750 2994 4692 
Q 3400 4634 3834 4519 
z
" transform="scale(0.015625)"/>
      <path id="DejaVuSans-Bold-74" d="M 1759 4494 
L 1759 3500 
L 2913 3500 
L 2913 2700 
L 1759 2700 
L 1759 1216 
Q 1759 972 1856 886 
Q 1953 800 2241 800 
L 2816 800 
L 2816 0 
L 1856 0 
Q 1194 0 917 276 
Q 641 553 641 1216 
L 641 2700 
L 84 2700 
L 84 3500 
L 641 3500 
L 641 4494 
L 1759 4494 
z
" transform="scale(0.015625)"/>
      <path id="DejaVuSans-Bold-61" d="M 2106 1575 
Q 1756 1575 1579 1456 
Q 1403 1338 1403 1106 
Q 1403 894 1545 773 
Q 1688 653 1941 653 
Q 2256 653 2472 879 
Q 2688 1106 2688 1447 
L 2688 1575 
L 2106 1575 
z
M 3816 1997 
L 3816 0 
L 2688 0 
L 2688 519 
Q 2463 200 2181 54 
Q 1900 -91 1497 -91 
Q 953 -91 614 226 
Q 275 544 275 1050 
Q 275 1666 698 1953 
Q 1122 2241 2028 2241 
L 2688 2241 
L 2688 2328 
Q 2688 2594 2478 2717 
Q 2269 2841 1825 2841 
Q 1466 2841 1156 2769 
Q 847 2697 581 2553 
L 581 3406 
Q 941 3494 1303 3539 
Q 1666 3584 2028 3584 
Q 2975 3584 3395 3211 
Q 3816 2838 3816 1997 
z
" transform="scale(0.015625)"/>
      <path id="DejaVuSans-Bold-6e" d="M 4056 2131 
L 4056 0 
L 2931 0 
L 2931 347 
L 2931 1631 
Q 2931 2084 2911 2256 
Q 2891 2428 2841 2509 
Q 2775 2619 2662 2680 
Q 2550 2741 2406 2741 
Q 2056 2741 1856 2470 
Q 1656 2200 1656 1722 
L 1656 0 
L 538 0 
L 538 3500 
L 1656 3500 
L 1656 2988 
Q 1909 3294 2193 3439 
Q 2478 3584 2822 3584 
Q 3428 3584 3742 3212 
Q 4056 2841 4056 2131 
z
" transform="scale(0.015625)"/>
      <path id="DejaVuSans-Bold-64" d="M 2919 2988 
L 2919 4863 
L 4044 4863 
L 4044 0 
L 2919 0 
L 2919 506 
Q 2688 197 2409 53 
Q 2131 -91 1766 -91 
Q 1119 -91 703 423 
Q 288 938 288 1747 
Q 288 2556 703 3070 
Q 1119 3584 1766 3584 
Q 2128 3584 2408 3439 
Q 2688 3294 2919 2988 
z
M 2181 722 
Q 2541 722 2730 984 
Q 2919 1247 2919 1747 
Q 2919 2247 2730 2509 
Q 2541 2772 2181 2772 
Q 1825 2772 1636 2509 
Q 1447 2247 1447 1747 
Q 1447 1247 1636 984 
Q 1825 722 2181 722 
z
" transform="scale(0.015625)"/>
      <path id="DejaVuSans-Bold-72" d="M 3138 2547 
Q 2991 2616 2845 2648 
Q 2700 2681 2553 2681 
Q 2122 2681 1889 2404 
Q 1656 2128 1656 1613 
L 1656 0 
L 538 0 
L 538 3500 
L 1656 3500 
L 1656 2925 
Q 1872 3269 2151 3426 
Q 2431 3584 2822 3584 
Q 2878 3584 2943 3579 
Q 3009 3575 3134 3559 
L 3138 2547 
z
" transform="scale(0.015625)"/>
      <path id="DejaVuSans-Bold-20" transform="scale(0.015625)"/>
      <path id="DejaVuSans-Bold-52" d="M 2297 2597 
Q 2675 2597 2839 2737 
Q 3003 2878 3003 3200 
Q 3003 3519 2839 3656 
Q 2675 3794 2297 3794 
L 1791 3794 
L 1791 2597 
L 2297 2597 
z
M 1791 1766 
L 1791 0 
L 588 0 
L 588 4666 
L 2425 4666 
Q 3347 4666 3776 4356 
Q 4206 4047 4206 3378 
Q 4206 2916 3982 2619 
Q 3759 2322 3309 2181 
Q 3556 2125 3751 1926 
Q 3947 1728 4147 1325 
L 4800 0 
L 3519 0 
L 2950 1159 
Q 2778 1509 2601 1637 
Q 2425 1766 2131 1766 
L 1791 1766 
z
" transform="scale(0.015625)"/>
      <path id="DejaVuSans-Bold-65" d="M 4031 1759 
L 4031 1441 
L 1416 1441 
Q 1456 1047 1700 850 
Q 1944 653 2381 653 
Q 2734 653 3104 758 
Q 3475 863 3866 1075 
L 3866 213 
Q 3469 63 3072 -14 
Q 2675 -91 2278 -91 
Q 1328 -91 801 392 
Q 275 875 275 1747 
Q 275 2603 792 3093 
Q 1309 3584 2216 3584 
Q 3041 3584 3536 3087 
Q 4031 2591 4031 1759 
z
M 2881 2131 
Q 2881 2450 2695 2645 
Q 2509 2841 2209 2841 
Q 1884 2841 1681 2658 
Q 1478 2475 1428 2131 
L 2881 2131 
z
" transform="scale(0.015625)"/>
      <path id="DejaVuSans-Bold-73" d="M 3272 3391 
L 3272 2541 
Q 2913 2691 2578 2766 
Q 2244 2841 1947 2841 
Q 1628 2841 1473 2761 
Q 1319 2681 1319 2516 
Q 1319 2381 1436 2309 
Q 1553 2238 1856 2203 
L 2053 2175 
Q 2913 2066 3209 1816 
Q 3506 1566 3506 1031 
Q 3506 472 3093 190 
Q 2681 -91 1863 -91 
Q 1516 -91 1145 -36 
Q 775 19 384 128 
L 384 978 
Q 719 816 1070 734 
Q 1422 653 1784 653 
Q 2113 653 2278 743 
Q 2444 834 2444 1013 
Q 2444 1163 2330 1236 
Q 2216 1309 1875 1350 
L 1678 1375 
Q 931 1469 631 1722 
Q 331 1975 331 2491 
Q 331 3047 712 3315 
Q 1094 3584 1881 3584 
Q 2191 3584 2531 3537 
Q 2872 3491 3272 3391 
z
" transform="scale(0.015625)"/>
      <path id="DejaVuSans-Bold-4e" d="M 588 4666 
L 1931 4666 
L 3628 1466 
L 3628 4666 
L 4769 4666 
L 4769 0 
L 3425 0 
L 1728 3200 
L 1728 0 
L 588 0 
L 588 4666 
z
" transform="scale(0.015625)"/>
      <path id="DejaVuSans-Bold-2f" d="M 1644 4666 
L 2338 4666 
L 691 -594 
L 0 -594 
L 1644 4666 
z
" transform="scale(0.015625)"/>
      <path id="DejaVuSans-Bold-56" d="M 31 4666 
L 1241 4666 
L 2478 1222 
L 3713 4666 
L 4922 4666 
L 3194 0 
L 1759 0 
L 31 4666 
z
" transform="scale(0.015625)"/>
      <path id="DejaVuSans-Bold-69" d="M 538 3500 
L 1656 3500 
L 1656 0 
L 538 0 
L 538 3500 
z
M 538 4863 
L 1656 4863 
L 1656 3950 
L 538 3950 
L 538 4863 
z
" transform="scale(0.015625)"/>
      <path id="DejaVuSans-Bold-54" d="M 31 4666 
L 4331 4666 
L 4331 3756 
L 2784 3756 
L 2784 0 
L 1581 0 
L 1581 3756 
L 31 3756 
L 31 4666 
z
" transform="scale(0.015625)"/>
      <path id="DejaVuSans-Bold-28" d="M 2413 -844 
L 1484 -844 
Q 1006 -72 778 623 
Q 550 1319 550 2003 
Q 550 2688 779 3389 
Q 1009 4091 1484 4856 
L 2413 4856 
Q 2013 4116 1813 3408 
Q 1613 2700 1613 2009 
Q 1613 1319 1811 609 
Q 2009 -100 2413 -844 
z
" transform="scale(0.015625)"/>
      <path id="DejaVuSans-Bold-68" d="M 4056 2131 
L 4056 0 
L 2931 0 
L 2931 347 
L 2931 1625 
Q 2931 2084 2911 2256 
Q 2891 2428 2841 2509 
Q 2775 2619 2662 2680 
Q 2550 2741 2406 2741 
Q 2056 2741 1856 2470 
Q 1656 2200 1656 1722 
L 1656 0 
L 538 0 
L 538 4863 
L 1656 4863 
L 1656 2988 
Q 1909 3294 2193 3439 
Q 2478 3584 2822 3584 
Q 3428 3584 3742 3212 
Q 4056 2841 4056 2131 
z
" transform="scale(0.015625)"/>
      <path id="DejaVuSans-Bold-70" d="M 1656 506 
L 1656 -1331 
L 538 -1331 
L 538 3500 
L 1656 3500 
L 1656 2988 
Q 1888 3294 2169 3439 
Q 2450 3584 2816 3584 
Q 3463 3584 3878 3070 
Q 4294 2556 4294 1747 
Q 4294 938 3878 423 
Q 3463 -91 2816 -91 
Q 2450 -91 2169 54 
Q 1888 200 1656 506 
z
M 2400 2772 
Q 2041 2772 1848 2508 
Q 1656 2244 1656 1747 
Q 1656 1250 1848 986 
Q 2041 722 2400 722 
Q 2759 722 2948 984 
Q 3138 1247 3138 1747 
Q 3138 2247 2948 2509 
Q 2759 2772 2400 2772 
z
" transform="scale(0.015625)"/>
      <path id="DejaVuSans-Bold-4c" d="M 588 4666 
L 1791 4666 
L 1791 909 
L 3903 909 
L 3903 0 
L 588 0 
L 588 4666 
z
" transform="scale(0.015625)"/>
      <path id="DejaVuSans-Bold-6f" d="M 2203 2784 
Q 1831 2784 1636 2517 
Q 1441 2250 1441 1747 
Q 1441 1244 1636 976 
Q 1831 709 2203 709 
Q 2569 709 2762 976 
Q 2956 1244 2956 1747 
Q 2956 2250 2762 2517 
Q 2569 2784 2203 2784 
z
M 2203 3584 
Q 3106 3584 3614 3096 
Q 4122 2609 4122 1747 
Q 4122 884 3614 396 
Q 3106 -91 2203 -91 
Q 1297 -91 786 396 
Q 275 884 275 1747 
Q 275 2609 786 3096 
Q 1297 3584 2203 3584 
z
" transform="scale(0.015625)"/>
      <path id="DejaVuSans-Bold-4d" d="M 588 4666 
L 2119 4666 
L 3181 2169 
L 4250 4666 
L 5778 4666 
L 5778 0 
L 4641 0 
L 4641 3413 
L 3566 897 
L 2803 897 
L 1728 3413 
L 1728 0 
L 588 0 
L 588 4666 
z
" transform="scale(0.015625)"/>
      <path id="DejaVuSans-Bold-6d" d="M 3781 2919 
Q 3994 3244 4286 3414 
Q 4578 3584 4928 3584 
Q 5531 3584 5847 3212 
Q 6163 2841 6163 2131 
L 6163 0 
L 5038 0 
L 5038 1825 
Q 5041 1866 5042 1909 
Q 5044 1953 5044 2034 
Q 5044 2406 4934 2573 
Q 4825 2741 4581 2741 
Q 4263 2741 4089 2478 
Q 3916 2216 3909 1719 
L 3909 0 
L 2784 0 
L 2784 1825 
Q 2784 2406 2684 2573 
Q 2584 2741 2328 2741 
Q 2006 2741 1831 2477 
Q 1656 2213 1656 1722 
L 1656 0 
L 531 0 
L 531 3500 
L 1656 3500 
L 1656 2988 
Q 1863 3284 2130 3434 
Q 2397 3584 2719 3584 
Q 3081 3584 3359 3409 
Q 3638 3234 3781 2919 
z
" transform="scale(0.015625)"/>
      <path id="DejaVuSans-Bold-75" d="M 500 1363 
L 500 3500 
L 1625 3500 
L 1625 3150 
Q 1625 2866 1622 2436 
Q 1619 2006 1619 1863 
Q 1619 1441 1641 1255 
Q 1663 1069 1716 984 
Q 1784 875 1895 815 
Q 2006 756 2150 756 
Q 2500 756 2700 1025 
Q 2900 1294 2900 1772 
L 2900 3500 
L 4019 3500 
L 4019 0 
L 2900 0 
L 2900 506 
Q 2647 200 2364 54 
Q 2081 -91 1741 -91 
Q 1134 -91 817 281 
Q 500 653 500 1363 
z
" transform="scale(0.015625)"/>
      <path id="DejaVuSans-Bold-29" d="M 513 -844 
Q 913 -100 1113 609 
Q 1313 1319 1313 2009 
Q 1313 2700 1113 3408 
Q 913 4116 513 4856 
L 1441 4856 
Q 1916 4091 2145 3389 
Q 2375 2688 2375 2003 
Q 2375 1319 2147 623 
Q 1919 -72 1441 -844 
L 513 -844 
z
" transform="scale(0.015625)"/>
     </defs>
     <use xlink:href="#DejaVuSans-Bold-53"/>
     <use xlink:href="#DejaVuSans-Bold-74" transform="translate(72.021484 0)"/>
     <use xlink:href="#DejaVuSans-Bold-61" transform="translate(119.824219 0)"/>
     <use xlink:href="#DejaVuSans-Bold-6e" transform="translate(187.304688 0)"/>
     <use xlink:href="#DejaVuSans-Bold-64" transform="translate(258.496094 0)"/>
     <use xlink:href="#DejaVuSans-Bold-61" transform="translate(330.078125 0)"/>
     <use xlink:href="#DejaVuSans-Bold-72" transform="translate(397.558594 0)"/>
     <use xlink:href="#DejaVuSans-Bold-64" transform="translate(446.875 0)"/>
     <use xlink:href="#DejaVuSans-Bold-20" transform="translate(518.457031 0)"/>
     <use xlink:href="#DejaVuSans-Bold-52" transform="translate(553.271484 0)"/>
     <use xlink:href="#DejaVuSans-Bold-65" transform="translate(630.273438 0)"/>
     <use xlink:href="#DejaVuSans-Bold-73" transform="translate(698.095703 0)"/>
     <use xlink:href="#DejaVuSans-Bold-4e" transform="translate(757.617188 0)"/>
     <use xlink:href="#DejaVuSans-Bold-65" transform="translate(841.308594 0)"/>
     <use xlink:href="#DejaVuSans-Bold-74" transform="translate(909.130859 0)"/>
     <use xlink:href="#DejaVuSans-Bold-2f" transform="translate(956.933594 0)"/>
     <use xlink:href="#DejaVuSans-Bold-56" transform="translate(993.457031 0)"/>
     <use xlink:href="#DejaVuSans-Bold-69" transform="translate(1069.099609 0)"/>
     <use xlink:href="#DejaVuSans-Bold-54" transform="translate(1103.376953 0)"/>
     <use xlink:href="#DejaVuSans-Bold-20" transform="translate(1171.589844 0)"/>
     <use xlink:href="#DejaVuSans-Bold-28" transform="translate(1206.404297 0)"/>
     <use xlink:href="#DejaVuSans-Bold-53" transform="translate(1252.107422 0)"/>
     <use xlink:href="#DejaVuSans-Bold-68" transform="translate(1324.128906 0)"/>
     <use xlink:href="#DejaVuSans-Bold-61" transform="translate(1395.320312 0)"/>
     <use xlink:href="#DejaVuSans-Bold-72" transform="translate(1462.800781 0)"/>
     <use xlink:href="#DejaVuSans-Bold-70" transform="translate(1512.117188 0)"/>
     <use xlink:href="#DejaVuSans-Bold-20" transform="translate(1583.699219 0)"/>
     <use xlink:href="#DejaVuSans-Bold-4c" transform="translate(1618.513672 0)"/>
     <use xlink:href="#DejaVuSans-Bold-6f" transform="translate(1682.234375 0)"/>
     <use xlink:href="#DejaVuSans-Bold-73" transform="translate(1750.935547 0)"/>
     <use xlink:href="#DejaVuSans-Bold-73" transform="translate(1810.457031 0)"/>
     <use xlink:href="#DejaVuSans-Bold-20" transform="translate(1869.978516 0)"/>
     <use xlink:href="#DejaVuSans-Bold-4d" transform="translate(1904.792969 0)"/>
     <use xlink:href="#DejaVuSans-Bold-69" transform="translate(2004.304688 0)"/>
     <use xlink:href="#DejaVuSans-Bold-6e" transform="translate(2038.582031 0)"/>
     <use xlink:href="#DejaVuSans-Bold-69" transform="translate(2109.773438 0)"/>
     <use xlink:href="#DejaVuSans-Bold-6d" transform="translate(2144.050781 0)"/>
     <use xlink:href="#DejaVuSans-Bold-75" transform="translate(2248.25 0)"/>
     <use xlink:href="#DejaVuSans-Bold-6d" transform="translate(2319.441406 0)"/>
     <use xlink:href="#DejaVuSans-Bold-29" transform="translate(2423.640625 0)"/>
    </g>
   </g>
  </g>
  <g id="axes_2">
   <g id="patch_9">
    <path d="M 468.823125 353.32 
L 849.233125 353.32 
L 849.233125 48.48 
L 468.823125 48.48 
z
" style="fill: #ffffff"/>
   </g>
   <g id="FillBetweenPolyCollection_2">
    <defs>
     <path id="m5400b22d69" d="M 486.114489 -51.412614 
L 486.114489 -328.539886 
L 487.852314 -322.997481 
L 489.59014 -317.511059 
L 491.327965 -312.080622 
L 493.065791 -306.706168 
L 494.803616 -301.387698 
L 496.541442 -296.125212 
L 498.279267 -290.91871 
L 500.017093 -285.768191 
L 501.754918 -280.673657 
L 503.492744 -275.635107 
L 505.230569 -270.65254 
L 506.968395 -265.725957 
L 508.70622 -260.855359 
L 510.444046 -256.040744 
L 512.181871 -251.282113 
L 513.919696 -246.579466 
L 515.657522 -241.932803 
L 517.395347 -237.342123 
L 519.133173 -232.807428 
L 520.870998 -228.328716 
L 522.608824 -223.905989 
L 524.346649 -219.539245 
L 526.084475 -215.228485 
L 527.8223 -210.973709 
L 529.560126 -206.774917 
L 531.297951 -202.632109 
L 533.035777 -198.545285 
L 534.773602 -194.514444 
L 536.511428 -190.539588 
L 538.249253 -186.620715 
L 539.987079 -182.757827 
L 541.724904 -178.950922 
L 543.46273 -175.200001 
L 545.200555 -171.505064 
L 546.938381 -167.866111 
L 548.676206 -164.283142 
L 550.414032 -160.756156 
L 552.151857 -157.285155 
L 553.889683 -153.870137 
L 555.627508 -150.511104 
L 557.365334 -147.208054 
L 559.103159 -143.960988 
L 560.840985 -140.769906 
L 562.57881 -137.634808 
L 564.316636 -134.555694 
L 566.054461 -131.532564 
L 567.792287 -128.565417 
L 569.530112 -125.654255 
L 571.267938 -122.799076 
L 573.005763 -119.999882 
L 574.743589 -117.256671 
L 576.481414 -114.569444 
L 578.21924 -111.938201 
L 579.957065 -109.362942 
L 581.694891 -106.843667 
L 583.432716 -104.380375 
L 585.170542 -101.973068 
L 586.908367 -99.621744 
L 588.646193 -97.326405 
L 590.384018 -95.087049 
L 592.121844 -92.903677 
L 593.859669 -90.776289 
L 595.597495 -88.704885 
L 597.33532 -86.689465 
L 599.073146 -84.730028 
L 600.810971 -82.826576 
L 602.548797 -80.979108 
L 604.286622 -79.187623 
L 606.024448 -77.452122 
L 607.762273 -75.772605 
L 609.500099 -74.149073 
L 611.237924 -72.581524 
L 612.975749 -71.069958 
L 614.713575 -69.614377 
L 616.4514 -68.21478 
L 618.189226 -66.871166 
L 619.927051 -65.583537 
L 621.664877 -64.351891 
L 623.402702 -63.176229 
L 625.140528 -62.056551 
L 626.878353 -60.992857 
L 628.616179 -59.985147 
L 630.354004 -59.033421 
L 632.09183 -58.137679 
L 633.829655 -57.29792 
L 635.567481 -56.514146 
L 637.305306 -55.786355 
L 639.043132 -55.114549 
L 640.780957 -54.498726 
L 642.518783 -53.938887 
L 644.256608 -53.435032 
L 645.994434 -52.987161 
L 647.732259 -52.595273 
L 649.470085 -52.25937 
L 651.20791 -51.979451 
L 652.945736 -51.755515 
L 654.683561 -51.587563 
L 656.421387 -51.475596 
L 658.159212 -51.419612 
L 659.897038 -51.419612 
L 661.634863 -51.475596 
L 663.372689 -51.587563 
L 665.110514 -51.755515 
L 666.84834 -51.979451 
L 668.586165 -52.25937 
L 670.323991 -52.595273 
L 672.061816 -52.987161 
L 673.799642 -53.435032 
L 675.537467 -53.938887 
L 677.275293 -54.498726 
L 679.013118 -55.114549 
L 680.750944 -55.786355 
L 682.488769 -56.514146 
L 684.226595 -57.29792 
L 685.96442 -58.137679 
L 687.702246 -59.033421 
L 689.440071 -59.985147 
L 691.177897 -60.992857 
L 692.915722 -62.056551 
L 694.653548 -63.176229 
L 696.391373 -64.351891 
L 698.129199 -65.583537 
L 699.867024 -66.871166 
L 701.60485 -68.21478 
L 703.342675 -69.614377 
L 705.080501 -71.069958 
L 706.818326 -72.581524 
L 708.556151 -74.149073 
L 710.293977 -75.772605 
L 712.031802 -77.452122 
L 713.769628 -79.187623 
L 715.507453 -80.979108 
L 717.245279 -82.826576 
L 718.983104 -84.730028 
L 720.72093 -86.689465 
L 722.458755 -88.704885 
L 724.196581 -90.776289 
L 725.934406 -92.903677 
L 727.672232 -95.087049 
L 729.410057 -97.326405 
L 731.147883 -99.621744 
L 732.885708 -101.973068 
L 734.623534 -104.380375 
L 736.361359 -106.843667 
L 738.099185 -109.362942 
L 739.83701 -111.938201 
L 741.574836 -114.569444 
L 743.312661 -117.256671 
L 745.050487 -119.999882 
L 746.788312 -122.799076 
L 748.526138 -125.654255 
L 750.263963 -128.565417 
L 752.001789 -131.532564 
L 753.739614 -134.555694 
L 755.47744 -137.634808 
L 757.215265 -140.769906 
L 758.953091 -143.960988 
L 760.690916 -147.208054 
L 762.428742 -150.511104 
L 764.166567 -153.870137 
L 765.904393 -157.285155 
L 767.642218 -160.756156 
L 769.380044 -164.283142 
L 771.117869 -167.866111 
L 772.855695 -171.505064 
L 774.59352 -175.200001 
L 776.331346 -178.950922 
L 778.069171 -182.757827 
L 779.806997 -186.620715 
L 781.544822 -190.539588 
L 783.282648 -194.514444 
L 785.020473 -198.545285 
L 786.758299 -202.632109 
L 788.496124 -206.774917 
L 790.23395 -210.973709 
L 791.971775 -215.228485 
L 793.709601 -219.539245 
L 795.447426 -223.905989 
L 797.185252 -228.328716 
L 798.923077 -232.807428 
L 800.660903 -237.342123 
L 802.398728 -241.932803 
L 804.136554 -246.579466 
L 805.874379 -251.282113 
L 807.612204 -256.040744 
L 809.35003 -260.855359 
L 811.087855 -265.725957 
L 812.825681 -270.65254 
L 814.563506 -275.635107 
L 816.301332 -280.673657 
L 818.039157 -285.768191 
L 819.776983 -290.91871 
L 821.514808 -296.125212 
L 823.252634 -301.387698 
L 824.990459 -306.706168 
L 826.728285 -312.080622 
L 828.46611 -317.511059 
L 830.203936 -322.997481 
L 831.941761 -328.539886 
L 831.941761 -51.412614 
L 831.941761 -51.412614 
L 830.203936 -51.412614 
L 828.46611 -51.412614 
L 826.728285 -51.412614 
L 824.990459 -51.412614 
L 823.252634 -51.412614 
L 821.514808 -51.412614 
L 819.776983 -51.412614 
L 818.039157 -51.412614 
L 816.301332 -51.412614 
L 814.563506 -51.412614 
L 812.825681 -51.412614 
L 811.087855 -51.412614 
L 809.35003 -51.412614 
L 807.612204 -51.412614 
L 805.874379 -51.412614 
L 804.136554 -51.412614 
L 802.398728 -51.412614 
L 800.660903 -51.412614 
L 798.923077 -51.412614 
L 797.185252 -51.412614 
L 795.447426 -51.412614 
L 793.709601 -51.412614 
L 791.971775 -51.412614 
L 790.23395 -51.412614 
L 788.496124 -51.412614 
L 786.758299 -51.412614 
L 785.020473 -51.412614 
L 783.282648 -51.412614 
L 781.544822 -51.412614 
L 779.806997 -51.412614 
L 778.069171 -51.412614 
L 776.331346 -51.412614 
L 774.59352 -51.412614 
L 772.855695 -51.412614 
L 771.117869 -51.412614 
L 769.380044 -51.412614 
L 767.642218 -51.412614 
L 765.904393 -51.412614 
L 764.166567 -51.412614 
L 762.428742 -51.412614 
L 760.690916 -51.412614 
L 758.953091 -51.412614 
L 757.215265 -51.412614 
L 755.47744 -51.412614 
L 753.739614 -51.412614 
L 752.001789 -51.412614 
L 750.263963 -51.412614 
L 748.526138 -51.412614 
L 746.788312 -51.412614 
L 745.050487 -51.412614 
L 743.312661 -51.412614 
L 741.574836 -51.412614 
L 739.83701 -51.412614 
L 738.099185 -51.412614 
L 736.361359 -51.412614 
L 734.623534 -51.412614 
L 732.885708 -51.412614 
L 731.147883 -51.412614 
L 729.410057 -51.412614 
L 727.672232 -51.412614 
L 725.934406 -51.412614 
L 724.196581 -51.412614 
L 722.458755 -51.412614 
L 720.72093 -51.412614 
L 718.983104 -51.412614 
L 717.245279 -51.412614 
L 715.507453 -51.412614 
L 713.769628 -51.412614 
L 712.031802 -51.412614 
L 710.293977 -51.412614 
L 708.556151 -51.412614 
L 706.818326 -51.412614 
L 705.080501 -51.412614 
L 703.342675 -51.412614 
L 701.60485 -51.412614 
L 699.867024 -51.412614 
L 698.129199 -51.412614 
L 696.391373 -51.412614 
L 694.653548 -51.412614 
L 692.915722 -51.412614 
L 691.177897 -51.412614 
L 689.440071 -51.412614 
L 687.702246 -51.412614 
L 685.96442 -51.412614 
L 684.226595 -51.412614 
L 682.488769 -51.412614 
L 680.750944 -51.412614 
L 679.013118 -51.412614 
L 677.275293 -51.412614 
L 675.537467 -51.412614 
L 673.799642 -51.412614 
L 672.061816 -51.412614 
L 670.323991 -51.412614 
L 668.586165 -51.412614 
L 666.84834 -51.412614 
L 665.110514 -51.412614 
L 663.372689 -51.412614 
L 661.634863 -51.412614 
L 659.897038 -51.412614 
L 658.159212 -51.412614 
L 656.421387 -51.412614 
L 654.683561 -51.412614 
L 652.945736 -51.412614 
L 651.20791 -51.412614 
L 649.470085 -51.412614 
L 647.732259 -51.412614 
L 645.994434 -51.412614 
L 644.256608 -51.412614 
L 642.518783 -51.412614 
L 640.780957 -51.412614 
L 639.043132 -51.412614 
L 637.305306 -51.412614 
L 635.567481 -51.412614 
L 633.829655 -51.412614 
L 632.09183 -51.412614 
L 630.354004 -51.412614 
L 628.616179 -51.412614 
L 626.878353 -51.412614 
L 625.140528 -51.412614 
L 623.402702 -51.412614 
L 621.664877 -51.412614 
L 619.927051 -51.412614 
L 618.189226 -51.412614 
L 616.4514 -51.412614 
L 614.713575 -51.412614 
L 612.975749 -51.412614 
L 611.237924 -51.412614 
L 609.500099 -51.412614 
L 607.762273 -51.412614 
L 606.024448 -51.412614 
L 604.286622 -51.412614 
L 602.548797 -51.412614 
L 600.810971 -51.412614 
L 599.073146 -51.412614 
L 597.33532 -51.412614 
L 595.597495 -51.412614 
L 593.859669 -51.412614 
L 592.121844 -51.412614 
L 590.384018 -51.412614 
L 588.646193 -51.412614 
L 586.908367 -51.412614 
L 585.170542 -51.412614 
L 583.432716 -51.412614 
L 581.694891 -51.412614 
L 579.957065 -51.412614 
L 578.21924 -51.412614 
L 576.481414 -51.412614 
L 574.743589 -51.412614 
L 573.005763 -51.412614 
L 571.267938 -51.412614 
L 569.530112 -51.412614 
L 567.792287 -51.412614 
L 566.054461 -51.412614 
L 564.316636 -51.412614 
L 562.57881 -51.412614 
L 560.840985 -51.412614 
L 559.103159 -51.412614 
L 557.365334 -51.412614 
L 555.627508 -51.412614 
L 553.889683 -51.412614 
L 552.151857 -51.412614 
L 550.414032 -51.412614 
L 548.676206 -51.412614 
L 546.938381 -51.412614 
L 545.200555 -51.412614 
L 543.46273 -51.412614 
L 541.724904 -51.412614 
L 539.987079 -51.412614 
L 538.249253 -51.412614 
L 536.511428 -51.412614 
L 534.773602 -51.412614 
L 533.035777 -51.412614 
L 531.297951 -51.412614 
L 529.560126 -51.412614 
L 527.8223 -51.412614 
L 526.084475 -51.412614 
L 524.346649 -51.412614 
L 522.608824 -51.412614 
L 520.870998 -51.412614 
L 519.133173 -51.412614 
L 517.395347 -51.412614 
L 515.657522 -51.412614 
L 513.919696 -51.412614 
L 512.181871 -51.412614 
L 510.444046 -51.412614 
L 508.70622 -51.412614 
L 506.968395 -51.412614 
L 505.230569 -51.412614 
L 503.492744 -51.412614 
L 501.754918 -51.412614 
L 500.017093 -51.412614 
L 498.279267 -51.412614 
L 496.541442 -51.412614 
L 494.803616 -51.412614 
L 493.065791 -51.412614 
L 491.327965 -51.412614 
L 489.59014 -51.412614 
L 487.852314 -51.412614 
L 486.114489 -51.412614 
z
" style="stroke: #e8f5e9; stroke-opacity: 0.5"/>
    </defs>
    <g clip-path="url(#pdc6944740e)">
     <use xlink:href="#m5400b22d69" x="0" y="390.87625" style="fill: #e8f5e9; fill-opacity: 0.5; stroke: #e8f5e9; stroke-opacity: 0.5"/>
    </g>
   </g>
   <g id="patch_10">
    <path d="M 637.41392 353.32 
L 680.64233 353.32 
L 680.64233 48.48 
L 637.41392 48.48 
z
" clip-path="url(#pdc6944740e)" style="fill: #eceff1; opacity: 0.4; stroke: #eceff1; stroke-linejoin: miter"/>
   </g>
   <g id="matplotlib.axis_3">
    <g id="xtick_10">
     <g id="line2d_18">
      <g>
       <use xlink:href="#m44ca2d5680" x="486.114489" y="353.32" style="fill: #111111; stroke: #111111; stroke-width: 0.8"/>
      </g>
     </g>
     <g id="text_21">
      <!-- −2.0 -->
      <g style="fill: #111111" transform="translate(473.973082 367.918437) scale(0.1 -0.1)">
       <use xlink:href="#DejaVuSans-2212"/>
       <use xlink:href="#DejaVuSans-32" transform="translate(83.789062 0)"/>
       <use xlink:href="#DejaVuSans-2e" transform="translate(147.412109 0)"/>
       <use xlink:href="#DejaVuSans-30" transform="translate(179.199219 0)"/>
      </g>
     </g>
    </g>
    <g id="xtick_11">
     <g id="line2d_19">
      <g>
       <use xlink:href="#m44ca2d5680" x="529.342898" y="353.32" style="fill: #111111; stroke: #111111; stroke-width: 0.8"/>
      </g>
     </g>
     <g id="text_22">
      <!-- −1.5 -->
      <g style="fill: #111111" transform="translate(517.201491 367.918437) scale(0.1 -0.1)">
       <use xlink:href="#DejaVuSans-2212"/>
       <use xlink:href="#DejaVuSans-31" transform="translate(83.789062 0)"/>
       <use xlink:href="#DejaVuSans-2e" transform="translate(147.412109 0)"/>
       <use xlink:href="#DejaVuSans-35" transform="translate(179.199219 0)"/>
      </g>
     </g>
    </g>
    <g id="xtick_12">
     <g id="line2d_20">
      <g>
       <use xlink:href="#m44ca2d5680" x="572.571307" y="353.32" style="fill: #111111; stroke: #111111; stroke-width: 0.8"/>
      </g>
     </g>
     <g id="text_23">
      <!-- −1.0 -->
      <g style="fill: #111111" transform="translate(560.429901 367.918437) scale(0.1 -0.1)">
       <use xlink:href="#DejaVuSans-2212"/>
       <use xlink:href="#DejaVuSans-31" transform="translate(83.789062 0)"/>
       <use xlink:href="#DejaVuSans-2e" transform="translate(147.412109 0)"/>
       <use xlink:href="#DejaVuSans-30" transform="translate(179.199219 0)"/>
      </g>
     </g>
    </g>
    <g id="xtick_13">
     <g id="line2d_21">
      <g>
       <use xlink:href="#m44ca2d5680" x="615.799716" y="353.32" style="fill: #111111; stroke: #111111; stroke-width: 0.8"/>
      </g>
     </g>
     <g id="text_24">
      <!-- −0.5 -->
      <g style="fill: #111111" transform="translate(603.65831 367.918437) scale(0.1 -0.1)">
       <use xlink:href="#DejaVuSans-2212"/>
       <use xlink:href="#DejaVuSans-30" transform="translate(83.789062 0)"/>
       <use xlink:href="#DejaVuSans-2e" transform="translate(147.412109 0)"/>
       <use xlink:href="#DejaVuSans-35" transform="translate(179.199219 0)"/>
      </g>
     </g>
    </g>
    <g id="xtick_14">
     <g id="line2d_22">
      <g>
       <use xlink:href="#m44ca2d5680" x="659.028125" y="353.32" style="fill: #111111; stroke: #111111; stroke-width: 0.8"/>
      </g>
     </g>
     <g id="text_25">
      <!-- 0.0 -->
      <g style="fill: #111111" transform="translate(651.076562 367.918437) scale(0.1 -0.1)">
       <use xlink:href="#DejaVuSans-30"/>
       <use xlink:href="#DejaVuSans-2e" transform="translate(63.623047 0)"/>
       <use xlink:href="#DejaVuSans-30" transform="translate(95.410156 0)"/>
      </g>
     </g>
    </g>
    <g id="xtick_15">
     <g id="line2d_23">
      <g>
       <use xlink:href="#m44ca2d5680" x="702.256534" y="353.32" style="fill: #111111; stroke: #111111; stroke-width: 0.8"/>
      </g>
     </g>
     <g id="text_26">
      <!-- 0.5 -->
      <g style="fill: #111111" transform="translate(694.304972 367.918437) scale(0.1 -0.1)">
       <use xlink:href="#DejaVuSans-30"/>
       <use xlink:href="#DejaVuSans-2e" transform="translate(63.623047 0)"/>
       <use xlink:href="#DejaVuSans-35" transform="translate(95.410156 0)"/>
      </g>
     </g>
    </g>
    <g id="xtick_16">
     <g id="line2d_24">
      <g>
       <use xlink:href="#m44ca2d5680" x="745.484943" y="353.32" style="fill: #111111; stroke: #111111; stroke-width: 0.8"/>
      </g>
     </g>
     <g id="text_27">
      <!-- 1.0 -->
      <g style="fill: #111111" transform="translate(737.533381 367.918437) scale(0.1 -0.1)">
       <use xlink:href="#DejaVuSans-31"/>
       <use xlink:href="#DejaVuSans-2e" transform="translate(63.623047 0)"/>
       <use xlink:href="#DejaVuSans-30" transform="translate(95.410156 0)"/>
      </g>
     </g>
    </g>
    <g id="xtick_17">
     <g id="line2d_25">
      <g>
       <use xlink:href="#m44ca2d5680" x="788.713352" y="353.32" style="fill: #111111; stroke: #111111; stroke-width: 0.8"/>
      </g>
     </g>
     <g id="text_28">
      <!-- 1.5 -->
      <g style="fill: #111111" transform="translate(780.76179 367.918437) scale(0.1 -0.1)">
       <use xlink:href="#DejaVuSans-31"/>
       <use xlink:href="#DejaVuSans-2e" transform="translate(63.623047 0)"/>
       <use xlink:href="#DejaVuSans-35" transform="translate(95.410156 0)"/>
      </g>
     </g>
    </g>
    <g id="xtick_18">
     <g id="line2d_26">
      <g>
       <use xlink:href="#m44ca2d5680" x="831.941761" y="353.32" style="fill: #111111; stroke: #111111; stroke-width: 0.8"/>
      </g>
     </g>
     <g id="text_29">
      <!-- 2.0 -->
      <g style="fill: #111111" transform="translate(823.990199 367.918437) scale(0.1 -0.1)">
       <use xlink:href="#DejaVuSans-32"/>
       <use xlink:href="#DejaVuSans-2e" transform="translate(63.623047 0)"/>
       <use xlink:href="#DejaVuSans-30" transform="translate(95.410156 0)"/>
      </g>
     </g>
    </g>
    <g id="text_30">
     <!-- Perturbation Direction -->
     <g style="fill: #111111" transform="translate(603.888281 381.596562) scale(0.1 -0.1)">
      <use xlink:href="#DejaVuSans-50"/>
      <use xlink:href="#DejaVuSans-65" transform="translate(56.677734 0)"/>
      <use xlink:href="#DejaVuSans-72" transform="translate(118.201172 0)"/>
      <use xlink:href="#DejaVuSans-74" transform="translate(159.314453 0)"/>
      <use xlink:href="#DejaVuSans-75" transform="translate(198.523438 0)"/>
      <use xlink:href="#DejaVuSans-72" transform="translate(261.902344 0)"/>
      <use xlink:href="#DejaVuSans-62" transform="translate(303.015625 0)"/>
      <use xlink:href="#DejaVuSans-61" transform="translate(366.492188 0)"/>
      <use xlink:href="#DejaVuSans-74" transform="translate(427.771484 0)"/>
      <use xlink:href="#DejaVuSans-69" transform="translate(466.980469 0)"/>
      <use xlink:href="#DejaVuSans-6f" transform="translate(494.763672 0)"/>
      <use xlink:href="#DejaVuSans-6e" transform="translate(555.945312 0)"/>
      <use xlink:href="#DejaVuSans-20" transform="translate(619.324219 0)"/>
      <use xlink:href="#DejaVuSans-44" transform="translate(651.111328 0)"/>
      <use xlink:href="#DejaVuSans-69" transform="translate(728.113281 0)"/>
      <use xlink:href="#DejaVuSans-72" transform="translate(755.896484 0)"/>
      <use xlink:href="#DejaVuSans-65" transform="translate(794.759766 0)"/>
      <use xlink:href="#DejaVuSans-63" transform="translate(856.283203 0)"/>
      <use xlink:href="#DejaVuSans-74" transform="translate(911.263672 0)"/>
      <use xlink:href="#DejaVuSans-69" transform="translate(950.472656 0)"/>
      <use xlink:href="#DejaVuSans-6f" transform="translate(978.255859 0)"/>
      <use xlink:href="#DejaVuSans-6e" transform="translate(1039.4375 0)"/>
     </g>
    </g>
   </g>
   <g id="matplotlib.axis_4">
    <g id="ytick_8">
     <g id="line2d_27">
      <g>
       <use xlink:href="#ma326bbd99e" x="468.823125" y="339.463636" style="fill: #111111; stroke: #111111; stroke-width: 0.8"/>
      </g>
     </g>
     <g id="text_31">
      <!-- 0.0 -->
      <g style="fill: #111111" transform="translate(445.92 343.262855) scale(0.1 -0.1)">
       <use xlink:href="#DejaVuSans-30"/>
       <use xlink:href="#DejaVuSans-2e" transform="translate(63.623047 0)"/>
       <use xlink:href="#DejaVuSans-30" transform="translate(95.410156 0)"/>
      </g>
     </g>
    </g>
    <g id="ytick_9">
     <g id="line2d_28">
      <g>
       <use xlink:href="#ma326bbd99e" x="468.823125" y="304.822727" style="fill: #111111; stroke: #111111; stroke-width: 0.8"/>
      </g>
     </g>
     <g id="text_32">
      <!-- 0.2 -->
      <g style="fill: #111111" transform="translate(445.92 308.621946) scale(0.1 -0.1)">
       <use xlink:href="#DejaVuSans-30"/>
       <use xlink:href="#DejaVuSans-2e" transform="translate(63.623047 0)"/>
       <use xlink:href="#DejaVuSans-32" transform="translate(95.410156 0)"/>
      </g>
     </g>
    </g>
    <g id="ytick_10">
     <g id="line2d_29">
      <g>
       <use xlink:href="#ma326bbd99e" x="468.823125" y="270.181818" style="fill: #111111; stroke: #111111; stroke-width: 0.8"/>
      </g>
     </g>
     <g id="text_33">
      <!-- 0.4 -->
      <g style="fill: #111111" transform="translate(445.92 273.981037) scale(0.1 -0.1)">
       <defs>
        <path id="DejaVuSans-34" d="M 2419 4116 
L 825 1625 
L 2419 1625 
L 2419 4116 
z
M 2253 4666 
L 3047 4666 
L 3047 1625 
L 3713 1625 
L 3713 1100 
L 3047 1100 
L 3047 0 
L 2419 0 
L 2419 1100 
L 313 1100 
L 313 1709 
L 2253 4666 
z
" transform="scale(0.015625)"/>
       </defs>
       <use xlink:href="#DejaVuSans-30"/>
       <use xlink:href="#DejaVuSans-2e" transform="translate(63.623047 0)"/>
       <use xlink:href="#DejaVuSans-34" transform="translate(95.410156 0)"/>
      </g>
     </g>
    </g>
    <g id="ytick_11">
     <g id="line2d_30">
      <g>
       <use xlink:href="#ma326bbd99e" x="468.823125" y="235.540909" style="fill: #111111; stroke: #111111; stroke-width: 0.8"/>
      </g>
     </g>
     <g id="text_34">
      <!-- 0.6 -->
      <g style="fill: #111111" transform="translate(445.92 239.340128) scale(0.1 -0.1)">
       <defs>
        <path id="DejaVuSans-36" d="M 2113 2584 
Q 1688 2584 1439 2293 
Q 1191 2003 1191 1497 
Q 1191 994 1439 701 
Q 1688 409 2113 409 
Q 2538 409 2786 701 
Q 3034 994 3034 1497 
Q 3034 2003 2786 2293 
Q 2538 2584 2113 2584 
z
M 3366 4563 
L 3366 3988 
Q 3128 4100 2886 4159 
Q 2644 4219 2406 4219 
Q 1781 4219 1451 3797 
Q 1122 3375 1075 2522 
Q 1259 2794 1537 2939 
Q 1816 3084 2150 3084 
Q 2853 3084 3261 2657 
Q 3669 2231 3669 1497 
Q 3669 778 3244 343 
Q 2819 -91 2113 -91 
Q 1303 -91 875 529 
Q 447 1150 447 2328 
Q 447 3434 972 4092 
Q 1497 4750 2381 4750 
Q 2619 4750 2861 4703 
Q 3103 4656 3366 4563 
z
" transform="scale(0.015625)"/>
       </defs>
       <use xlink:href="#DejaVuSans-30"/>
       <use xlink:href="#DejaVuSans-2e" transform="translate(63.623047 0)"/>
       <use xlink:href="#DejaVuSans-36" transform="translate(95.410156 0)"/>
      </g>
     </g>
    </g>
    <g id="ytick_12">
     <g id="line2d_31">
      <g>
       <use xlink:href="#ma326bbd99e" x="468.823125" y="200.9" style="fill: #111111; stroke: #111111; stroke-width: 0.8"/>
      </g>
     </g>
     <g id="text_35">
      <!-- 0.8 -->
      <g style="fill: #111111" transform="translate(445.92 204.699219) scale(0.1 -0.1)">
       <defs>
        <path id="DejaVuSans-38" d="M 2034 2216 
Q 1584 2216 1326 1975 
Q 1069 1734 1069 1313 
Q 1069 891 1326 650 
Q 1584 409 2034 409 
Q 2484 409 2743 651 
Q 3003 894 3003 1313 
Q 3003 1734 2745 1975 
Q 2488 2216 2034 2216 
z
M 1403 2484 
Q 997 2584 770 2862 
Q 544 3141 544 3541 
Q 544 4100 942 4425 
Q 1341 4750 2034 4750 
Q 2731 4750 3128 4425 
Q 3525 4100 3525 3541 
Q 3525 3141 3298 2862 
Q 3072 2584 2669 2484 
Q 3125 2378 3379 2068 
Q 3634 1759 3634 1313 
Q 3634 634 3220 271 
Q 2806 -91 2034 -91 
Q 1263 -91 848 271 
Q 434 634 434 1313 
Q 434 1759 690 2068 
Q 947 2378 1403 2484 
z
M 1172 3481 
Q 1172 3119 1398 2916 
Q 1625 2713 2034 2713 
Q 2441 2713 2670 2916 
Q 2900 3119 2900 3481 
Q 2900 3844 2670 4047 
Q 2441 4250 2034 4250 
Q 1625 4250 1398 4047 
Q 1172 3844 1172 3481 
z
" transform="scale(0.015625)"/>
       </defs>
       <use xlink:href="#DejaVuSans-30"/>
       <use xlink:href="#DejaVuSans-2e" transform="translate(63.623047 0)"/>
       <use xlink:href="#DejaVuSans-38" transform="translate(95.410156 0)"/>
      </g>
     </g>
    </g>
    <g id="ytick_13">
     <g id="line2d_32">
      <g>
       <use xlink:href="#ma326bbd99e" x="468.823125" y="166.259091" style="fill: #111111; stroke: #111111; stroke-width: 0.8"/>
      </g>
     </g>
     <g id="text_36">
      <!-- 1.0 -->
      <g style="fill: #111111" transform="translate(445.92 170.05831) scale(0.1 -0.1)">
       <use xlink:href="#DejaVuSans-31"/>
       <use xlink:href="#DejaVuSans-2e" transform="translate(63.623047 0)"/>
       <use xlink:href="#DejaVuSans-30" transform="translate(95.410156 0)"/>
      </g>
     </g>
    </g>
    <g id="ytick_14">
     <g id="line2d_33">
      <g>
       <use xlink:href="#ma326bbd99e" x="468.823125" y="131.618182" style="fill: #111111; stroke: #111111; stroke-width: 0.8"/>
      </g>
     </g>
     <g id="text_37">
      <!-- 1.2 -->
      <g style="fill: #111111" transform="translate(445.92 135.417401) scale(0.1 -0.1)">
       <use xlink:href="#DejaVuSans-31"/>
       <use xlink:href="#DejaVuSans-2e" transform="translate(63.623047 0)"/>
       <use xlink:href="#DejaVuSans-32" transform="translate(95.410156 0)"/>
      </g>
     </g>
    </g>
    <g id="ytick_15">
     <g id="line2d_34">
      <g>
       <use xlink:href="#ma326bbd99e" x="468.823125" y="96.977273" style="fill: #111111; stroke: #111111; stroke-width: 0.8"/>
      </g>
     </g>
     <g id="text_38">
      <!-- 1.4 -->
      <g style="fill: #111111" transform="translate(445.92 100.776491) scale(0.1 -0.1)">
       <use xlink:href="#DejaVuSans-31"/>
       <use xlink:href="#DejaVuSans-2e" transform="translate(63.623047 0)"/>
       <use xlink:href="#DejaVuSans-34" transform="translate(95.410156 0)"/>
      </g>
     </g>
    </g>
    <g id="ytick_16">
     <g id="line2d_35">
      <g>
       <use xlink:href="#ma326bbd99e" x="468.823125" y="62.336364" style="fill: #111111; stroke: #111111; stroke-width: 0.8"/>
      </g>
     </g>
     <g id="text_39">
      <!-- 1.6 -->
      <g style="fill: #111111" transform="translate(445.92 66.135582) scale(0.1 -0.1)">
       <use xlink:href="#DejaVuSans-31"/>
       <use xlink:href="#DejaVuSans-2e" transform="translate(63.623047 0)"/>
       <use xlink:href="#DejaVuSans-36" transform="translate(95.410156 0)"/>
      </g>
     </g>
    </g>
    <g id="text_40">
     <!-- Cross Entropy Loss -->
     <g style="fill: #111111" transform="translate(439.840312 248.172656) rotate(-90) scale(0.1 -0.1)">
      <use xlink:href="#DejaVuSans-43"/>
      <use xlink:href="#DejaVuSans-72" transform="translate(69.824219 0)"/>
      <use xlink:href="#DejaVuSans-6f" transform="translate(108.6875 0)"/>
      <use xlink:href="#DejaVuSans-73" transform="translate(169.869141 0)"/>
      <use xlink:href="#DejaVuSans-73" transform="translate(221.96875 0)"/>
      <use xlink:href="#DejaVuSans-20" transform="translate(274.068359 0)"/>
      <use xlink:href="#DejaVuSans-45" transform="translate(305.855469 0)"/>
      <use xlink:href="#DejaVuSans-6e" transform="translate(369.039062 0)"/>
      <use xlink:href="#DejaVuSans-74" transform="translate(432.417969 0)"/>
      <use xlink:href="#DejaVuSans-72" transform="translate(471.626953 0)"/>
      <use xlink:href="#DejaVuSans-6f" transform="translate(510.490234 0)"/>
      <use xlink:href="#DejaVuSans-70" transform="translate(571.671875 0)"/>
      <use xlink:href="#DejaVuSans-79" transform="translate(635.148438 0)"/>
      <use xlink:href="#DejaVuSans-20" transform="translate(694.328125 0)"/>
      <use xlink:href="#DejaVuSans-4c" transform="translate(726.115234 0)"/>
      <use xlink:href="#DejaVuSans-6f" transform="translate(780.078125 0)"/>
      <use xlink:href="#DejaVuSans-73" transform="translate(841.259766 0)"/>
      <use xlink:href="#DejaVuSans-73" transform="translate(893.359375 0)"/>
     </g>
    </g>
   </g>
   <g id="line2d_36">
    <path d="M 486.114489 62.336364 
L 493.065791 84.170082 
L 500.017093 105.108059 
L 506.968395 125.150293 
L 512.181871 139.594137 
L 517.395347 153.534127 
L 522.608824 166.970261 
L 527.8223 179.902541 
L 533.035777 192.330965 
L 538.249253 204.255535 
L 543.46273 215.676249 
L 548.676206 226.593108 
L 553.889683 237.006113 
L 559.103159 246.915262 
L 564.316636 256.320556 
L 569.530112 265.221995 
L 574.743589 273.619579 
L 579.957065 281.513308 
L 585.170542 288.903182 
L 590.384018 295.789201 
L 595.597495 302.171365 
L 600.810971 308.049674 
L 604.286622 311.688627 
L 607.762273 315.103645 
L 611.237924 318.294726 
L 614.713575 321.261873 
L 618.189226 324.005084 
L 621.664877 326.524359 
L 625.140528 328.819699 
L 628.616179 330.891103 
L 632.09183 332.738571 
L 635.567481 334.362104 
L 639.043132 335.761701 
L 642.518783 336.937363 
L 645.994434 337.889089 
L 649.470085 338.61688 
L 652.945736 339.120735 
L 656.421387 339.400654 
L 659.897038 339.456638 
L 663.372689 339.288687 
L 666.84834 338.896799 
L 670.323991 338.280977 
L 673.799642 337.441218 
L 677.275293 336.377524 
L 680.750944 335.089895 
L 684.226595 333.57833 
L 687.702246 331.842829 
L 691.177897 329.883393 
L 694.653548 327.700021 
L 698.129199 325.292713 
L 701.60485 322.66147 
L 705.080501 319.806292 
L 708.556151 316.727177 
L 712.031802 313.424128 
L 715.507453 309.897142 
L 718.983104 306.146222 
L 722.458755 302.171365 
L 727.672232 295.789201 
L 732.885708 288.903182 
L 738.099185 281.513308 
L 743.312661 273.619579 
L 748.526138 265.221995 
L 753.739614 256.320556 
L 758.953091 246.915262 
L 764.166567 237.006113 
L 769.380044 226.593108 
L 774.59352 215.676249 
L 779.806997 204.255535 
L 785.020473 192.330965 
L 790.23395 179.902541 
L 795.447426 166.970261 
L 800.660903 153.534127 
L 805.874379 139.594137 
L 811.087855 125.150293 
L 816.301332 110.202593 
L 823.252634 89.488552 
L 830.203936 67.878769 
L 831.941761 62.336364 
L 831.941761 62.336364 
" clip-path="url(#pdc6944740e)" style="fill: none; stroke: #388e3c; stroke-width: 2.5; stroke-linecap: square"/>
   </g>
   <g id="patch_11">
    <path d="M 468.823125 353.32 
L 468.823125 48.48 
" style="fill: none; stroke: #111111; stroke-width: 0.8; stroke-linejoin: miter; stroke-linecap: square"/>
   </g>
   <g id="patch_12">
    <path d="M 849.233125 353.32 
L 849.233125 48.48 
" style="fill: none; stroke: #111111; stroke-width: 0.8; stroke-linejoin: miter; stroke-linecap: square"/>
   </g>
   <g id="patch_13">
    <path d="M 468.823125 353.32 
L 849.233125 353.32 
" style="fill: none; stroke: #111111; stroke-width: 0.8; stroke-linejoin: miter; stroke-linecap: square"/>
   </g>
   <g id="patch_14">
    <path d="M 468.823125 48.48 
L 849.233125 48.48 
" style="fill: none; stroke: #111111; stroke-width: 0.8; stroke-linejoin: miter; stroke-linecap: square"/>
   </g>
   <g id="patch_15">
    <path d="M 724.392759 151.584736 
Q 706.069658 227.536151 687.746557 303.487566 
L 690.176836 304.073865 
Q 687.311839 309.553559 684.446843 315.033253 
Q 684.395505 308.85 684.344167 302.666747 
L 686.774446 303.253046 
Q 705.097547 227.301631 723.420648 151.350217 
L 724.392759 151.584736 
z
" style="stroke: #000000; stroke-linecap: round"/>
   </g>
   <g id="text_41">
    <!-- Robust Basin -->
    <g transform="translate(728.19358 120.420369) scale(0.1 -0.1)">
     <defs>
      <path id="DejaVuSans-42" d="M 1259 2228 
L 1259 519 
L 2272 519 
Q 2781 519 3026 730 
Q 3272 941 3272 1375 
Q 3272 1813 3026 2020 
Q 2781 2228 2272 2228 
L 1259 2228 
z
M 1259 4147 
L 1259 2741 
L 2194 2741 
Q 2656 2741 2882 2914 
Q 3109 3088 3109 3444 
Q 3109 3797 2882 3972 
Q 2656 4147 2194 4147 
L 1259 4147 
z
M 628 4666 
L 2241 4666 
Q 2963 4666 3353 4366 
Q 3744 4066 3744 3513 
Q 3744 3084 3544 2831 
Q 3344 2578 2956 2516 
Q 3422 2416 3680 2098 
Q 3938 1781 3938 1306 
Q 3938 681 3513 340 
Q 3088 0 2303 0 
L 628 0 
L 628 4666 
z
" transform="scale(0.015625)"/>
     </defs>
     <use xlink:href="#DejaVuSans-52"/>
     <use xlink:href="#DejaVuSans-6f" transform="translate(64.982422 0)"/>
     <use xlink:href="#DejaVuSans-62" transform="translate(126.164062 0)"/>
     <use xlink:href="#DejaVuSans-75" transform="translate(189.640625 0)"/>
     <use xlink:href="#DejaVuSans-73" transform="translate(253.019531 0)"/>
     <use xlink:href="#DejaVuSans-74" transform="translate(305.119141 0)"/>
     <use xlink:href="#DejaVuSans-20" transform="translate(344.328125 0)"/>
     <use xlink:href="#DejaVuSans-42" transform="translate(376.115234 0)"/>
     <use xlink:href="#DejaVuSans-61" transform="translate(444.71875 0)"/>
     <use xlink:href="#DejaVuSans-73" transform="translate(505.998047 0)"/>
     <use xlink:href="#DejaVuSans-69" transform="translate(558.097656 0)"/>
     <use xlink:href="#DejaVuSans-6e" transform="translate(585.880859 0)"/>
    </g>
    <!-- (Low Stable Loss) -->
    <g transform="translate(728.19358 131.618182) scale(0.1 -0.1)">
     <defs>
      <path id="DejaVuSans-77" d="M 269 3500 
L 844 3500 
L 1563 769 
L 2278 3500 
L 2956 3500 
L 3675 769 
L 4391 3500 
L 4966 3500 
L 4050 0 
L 3372 0 
L 2619 2869 
L 1863 0 
L 1184 0 
L 269 3500 
z
" transform="scale(0.015625)"/>
     </defs>
     <use xlink:href="#DejaVuSans-28"/>
     <use xlink:href="#DejaVuSans-4c" transform="translate(39.013672 0)"/>
     <use xlink:href="#DejaVuSans-6f" transform="translate(92.976562 0)"/>
     <use xlink:href="#DejaVuSans-77" transform="translate(154.158203 0)"/>
     <use xlink:href="#DejaVuSans-20" transform="translate(235.945312 0)"/>
     <use xlink:href="#DejaVuSans-53" transform="translate(267.732422 0)"/>
     <use xlink:href="#DejaVuSans-74" transform="translate(331.208984 0)"/>
     <use xlink:href="#DejaVuSans-61" transform="translate(370.417969 0)"/>
     <use xlink:href="#DejaVuSans-62" transform="translate(431.697266 0)"/>
     <use xlink:href="#DejaVuSans-6c" transform="translate(495.173828 0)"/>
     <use xlink:href="#DejaVuSans-65" transform="translate(522.957031 0)"/>
     <use xlink:href="#DejaVuSans-20" transform="translate(584.480469 0)"/>
     <use xlink:href="#DejaVuSans-4c" transform="translate(616.267578 0)"/>
     <use xlink:href="#DejaVuSans-6f" transform="translate(670.230469 0)"/>
     <use xlink:href="#DejaVuSans-73" transform="translate(731.412109 0)"/>
     <use xlink:href="#DejaVuSans-73" transform="translate(783.511719 0)"/>
     <use xlink:href="#DejaVuSans-29" transform="translate(835.611328 0)"/>
    </g>
   </g>
   <g id="text_42">
    <!-- RHAN (Flat Loss Minimum Basin) -->
    <g style="fill: #111111" transform="translate(557.316797 42.48) scale(0.11 -0.11)">
     <defs>
      <path id="DejaVuSans-Bold-48" d="M 588 4666 
L 1791 4666 
L 1791 2888 
L 3566 2888 
L 3566 4666 
L 4769 4666 
L 4769 0 
L 3566 0 
L 3566 1978 
L 1791 1978 
L 1791 0 
L 588 0 
L 588 4666 
z
" transform="scale(0.015625)"/>
      <path id="DejaVuSans-Bold-41" d="M 3419 850 
L 1538 850 
L 1241 0 
L 31 0 
L 1759 4666 
L 3194 4666 
L 4922 0 
L 3713 0 
L 3419 850 
z
M 1838 1716 
L 3116 1716 
L 2478 3572 
L 1838 1716 
z
" transform="scale(0.015625)"/>
      <path id="DejaVuSans-Bold-46" d="M 588 4666 
L 3834 4666 
L 3834 3756 
L 1791 3756 
L 1791 2888 
L 3713 2888 
L 3713 1978 
L 1791 1978 
L 1791 0 
L 588 0 
L 588 4666 
z
" transform="scale(0.015625)"/>
      <path id="DejaVuSans-Bold-6c" d="M 538 4863 
L 1656 4863 
L 1656 0 
L 538 0 
L 538 4863 
z
" transform="scale(0.015625)"/>
      <path id="DejaVuSans-Bold-42" d="M 2456 2859 
Q 2741 2859 2887 2984 
Q 3034 3109 3034 3353 
Q 3034 3594 2887 3720 
Q 2741 3847 2456 3847 
L 1791 3847 
L 1791 2859 
L 2456 2859 
z
M 2497 819 
Q 2859 819 3042 972 
Q 3225 1125 3225 1434 
Q 3225 1738 3044 1889 
Q 2863 2041 2497 2041 
L 1791 2041 
L 1791 819 
L 2497 819 
z
M 3616 2497 
Q 4003 2384 4215 2081 
Q 4428 1778 4428 1338 
Q 4428 663 3972 331 
Q 3516 0 2584 0 
L 588 0 
L 588 4666 
L 2394 4666 
Q 3366 4666 3802 4372 
Q 4238 4078 4238 3431 
Q 4238 3091 4078 2852 
Q 3919 2613 3616 2497 
z
" transform="scale(0.015625)"/>
     </defs>
     <use xlink:href="#DejaVuSans-Bold-52"/>
     <use xlink:href="#DejaVuSans-Bold-48" transform="translate(77.001953 0)"/>
     <use xlink:href="#DejaVuSans-Bold-41" transform="translate(160.693359 0)"/>
     <use xlink:href="#DejaVuSans-Bold-4e" transform="translate(238.085938 0)"/>
     <use xlink:href="#DejaVuSans-Bold-20" transform="translate(321.777344 0)"/>
     <use xlink:href="#DejaVuSans-Bold-28" transform="translate(356.591797 0)"/>
     <use xlink:href="#DejaVuSans-Bold-46" transform="translate(402.294922 0)"/>
     <use xlink:href="#DejaVuSans-Bold-6c" transform="translate(470.605469 0)"/>
     <use xlink:href="#DejaVuSans-Bold-61" transform="translate(504.882812 0)"/>
     <use xlink:href="#DejaVuSans-Bold-74" transform="translate(572.363281 0)"/>
     <use xlink:href="#DejaVuSans-Bold-20" transform="translate(620.166016 0)"/>
     <use xlink:href="#DejaVuSans-Bold-4c" transform="translate(654.980469 0)"/>
     <use xlink:href="#DejaVuSans-Bold-6f" transform="translate(718.701172 0)"/>
     <use xlink:href="#DejaVuSans-Bold-73" transform="translate(787.402344 0)"/>
     <use xlink:href="#DejaVuSans-Bold-73" transform="translate(846.923828 0)"/>
     <use xlink:href="#DejaVuSans-Bold-20" transform="translate(906.445312 0)"/>
     <use xlink:href="#DejaVuSans-Bold-4d" transform="translate(941.259766 0)"/>
     <use xlink:href="#DejaVuSans-Bold-69" transform="translate(1040.771484 0)"/>
     <use xlink:href="#DejaVuSans-Bold-6e" transform="translate(1075.048828 0)"/>
     <use xlink:href="#DejaVuSans-Bold-69" transform="translate(1146.240234 0)"/>
     <use xlink:href="#DejaVuSans-Bold-6d" transform="translate(1180.517578 0)"/>
     <use xlink:href="#DejaVuSans-Bold-75" transform="translate(1284.716797 0)"/>
     <use xlink:href="#DejaVuSans-Bold-6d" transform="translate(1355.908203 0)"/>
     <use xlink:href="#DejaVuSans-Bold-20" transform="translate(1460.107422 0)"/>
     <use xlink:href="#DejaVuSans-Bold-42" transform="translate(1494.921875 0)"/>
     <use xlink:href="#DejaVuSans-Bold-61" transform="translate(1571.142578 0)"/>
     <use xlink:href="#DejaVuSans-Bold-73" transform="translate(1638.623047 0)"/>
     <use xlink:href="#DejaVuSans-Bold-69" transform="translate(1698.144531 0)"/>
     <use xlink:href="#DejaVuSans-Bold-6e" transform="translate(1732.421875 0)"/>
     <use xlink:href="#DejaVuSans-Bold-29" transform="translate(1803.613281 0)"/>
    </g>
   </g>
  </g>
  <g id="text_43">
   <!-- Adversarial Loss Landscape: Sharp vs. Flat Minima Basin -->
   <g transform="translate(219.368906 17.077969) scale(0.13 -0.13)">
    <defs>
     <path id="DejaVuSans-Bold-76" d="M 97 3500 
L 1216 3500 
L 2088 1081 
L 2956 3500 
L 4078 3500 
L 2700 0 
L 1472 0 
L 97 3500 
z
" transform="scale(0.015625)"/>
     <path id="DejaVuSans-Bold-63" d="M 3366 3391 
L 3366 2478 
Q 3138 2634 2908 2709 
Q 2678 2784 2431 2784 
Q 1963 2784 1702 2511 
Q 1441 2238 1441 1747 
Q 1441 1256 1702 982 
Q 1963 709 2431 709 
Q 2694 709 2930 787 
Q 3166 866 3366 1019 
L 3366 103 
Q 3103 6 2833 -42 
Q 2563 -91 2291 -91 
Q 1344 -91 809 395 
Q 275 881 275 1747 
Q 275 2613 809 3098 
Q 1344 3584 2291 3584 
Q 2566 3584 2833 3536 
Q 3100 3488 3366 3391 
z
" transform="scale(0.015625)"/>
     <path id="DejaVuSans-Bold-3a" d="M 716 3500 
L 1844 3500 
L 1844 2291 
L 716 2291 
L 716 3500 
z
M 716 1209 
L 1844 1209 
L 1844 0 
L 716 0 
L 716 1209 
z
" transform="scale(0.015625)"/>
     <path id="DejaVuSans-Bold-2e" d="M 653 1209 
L 1778 1209 
L 1778 0 
L 653 0 
L 653 1209 
z
" transform="scale(0.015625)"/>
    </defs>
    <use xlink:href="#DejaVuSans-Bold-41"/>
    <use xlink:href="#DejaVuSans-Bold-64" transform="translate(77.392578 0)"/>
    <use xlink:href="#DejaVuSans-Bold-76" transform="translate(148.974609 0)"/>
    <use xlink:href="#DejaVuSans-Bold-65" transform="translate(214.160156 0)"/>
    <use xlink:href="#DejaVuSans-Bold-72" transform="translate(281.982422 0)"/>
    <use xlink:href="#DejaVuSans-Bold-73" transform="translate(331.298828 0)"/>
    <use xlink:href="#DejaVuSans-Bold-61" transform="translate(390.820312 0)"/>
    <use xlink:href="#DejaVuSans-Bold-72" transform="translate(458.300781 0)"/>
    <use xlink:href="#DejaVuSans-Bold-69" transform="translate(507.617188 0)"/>
    <use xlink:href="#DejaVuSans-Bold-61" transform="translate(541.894531 0)"/>
    <use xlink:href="#DejaVuSans-Bold-6c" transform="translate(609.375 0)"/>
    <use xlink:href="#DejaVuSans-Bold-20" transform="translate(643.652344 0)"/>
    <use xlink:href="#DejaVuSans-Bold-4c" transform="translate(678.466797 0)"/>
    <use xlink:href="#DejaVuSans-Bold-6f" transform="translate(742.1875 0)"/>
    <use xlink:href="#DejaVuSans-Bold-73" transform="translate(810.888672 0)"/>
    <use xlink:href="#DejaVuSans-Bold-73" transform="translate(870.410156 0)"/>
    <use xlink:href="#DejaVuSans-Bold-20" transform="translate(929.931641 0)"/>
    <use xlink:href="#DejaVuSans-Bold-4c" transform="translate(964.746094 0)"/>
    <use xlink:href="#DejaVuSans-Bold-61" transform="translate(1028.466797 0)"/>
    <use xlink:href="#DejaVuSans-Bold-6e" transform="translate(1095.947266 0)"/>
    <use xlink:href="#DejaVuSans-Bold-64" transform="translate(1167.138672 0)"/>
    <use xlink:href="#DejaVuSans-Bold-73" transform="translate(1238.720703 0)"/>
    <use xlink:href="#DejaVuSans-Bold-63" transform="translate(1298.242188 0)"/>
    <use xlink:href="#DejaVuSans-Bold-61" transform="translate(1357.519531 0)"/>
    <use xlink:href="#DejaVuSans-Bold-70" transform="translate(1425 0)"/>
    <use xlink:href="#DejaVuSans-Bold-65" transform="translate(1496.582031 0)"/>
    <use xlink:href="#DejaVuSans-Bold-3a" transform="translate(1564.404297 0)"/>
    <use xlink:href="#DejaVuSans-Bold-20" transform="translate(1604.394531 0)"/>
    <use xlink:href="#DejaVuSans-Bold-53" transform="translate(1639.208984 0)"/>
    <use xlink:href="#DejaVuSans-Bold-68" transform="translate(1711.230469 0)"/>
    <use xlink:href="#DejaVuSans-Bold-61" transform="translate(1782.421875 0)"/>
    <use xlink:href="#DejaVuSans-Bold-72" transform="translate(1849.902344 0)"/>
    <use xlink:href="#DejaVuSans-Bold-70" transform="translate(1899.21875 0)"/>
    <use xlink:href="#DejaVuSans-Bold-20" transform="translate(1970.800781 0)"/>
    <use xlink:href="#DejaVuSans-Bold-76" transform="translate(2005.615234 0)"/>
    <use xlink:href="#DejaVuSans-Bold-73" transform="translate(2070.800781 0)"/>
    <use xlink:href="#DejaVuSans-Bold-2e" transform="translate(2130.322266 0)"/>
    <use xlink:href="#DejaVuSans-Bold-20" transform="translate(2168.310547 0)"/>
    <use xlink:href="#DejaVuSans-Bold-46" transform="translate(2203.125 0)"/>
    <use xlink:href="#DejaVuSans-Bold-6c" transform="translate(2271.435547 0)"/>
    <use xlink:href="#DejaVuSans-Bold-61" transform="translate(2305.712891 0)"/>
    <use xlink:href="#DejaVuSans-Bold-74" transform="translate(2373.193359 0)"/>
    <use xlink:href="#DejaVuSans-Bold-20" transform="translate(2420.996094 0)"/>
    <use xlink:href="#DejaVuSans-Bold-4d" transform="translate(2455.810547 0)"/>
    <use xlink:href="#DejaVuSans-Bold-69" transform="translate(2555.322266 0)"/>
    <use xlink:href="#DejaVuSans-Bold-6e" transform="translate(2589.599609 0)"/>
    <use xlink:href="#DejaVuSans-Bold-69" transform="translate(2660.791016 0)"/>
    <use xlink:href="#DejaVuSans-Bold-6d" transform="translate(2695.068359 0)"/>
    <use xlink:href="#DejaVuSans-Bold-61" transform="translate(2799.267578 0)"/>
    <use xlink:href="#DejaVuSans-Bold-20" transform="translate(2866.748047 0)"/>
    <use xlink:href="#DejaVuSans-Bold-42" transform="translate(2901.5625 0)"/>
    <use xlink:href="#DejaVuSans-Bold-61" transform="translate(2977.783203 0)"/>
    <use xlink:href="#DejaVuSans-Bold-73" transform="translate(3045.263672 0)"/>
    <use xlink:href="#DejaVuSans-Bold-69" transform="translate(3104.785156 0)"/>
    <use xlink:href="#DejaVuSans-Bold-6e" transform="translate(3139.0625 0)"/>
   </g>
  </g>
 </g>
 <defs>
  <clipPath id="p3f4d33f51f">
   <rect x="40.603125" y="48.48" width="380.41" height="304.84"/>
  </clipPath>
  <clipPath id="pdc6944740e">
   <rect x="468.823125" y="48.48" width="380.41" height="304.84"/>
  </clipPath>
 </defs>
</svg>
