<?xml version="1.0" encoding="utf-8" standalone="no"?>
<!DOCTYPE svg PUBLIC "-//W3C//DTD SVG 1.1//EN"
  "http://www.w3.org/Graphics/SVG/1.1/DTD/svg11.dtd">
<svg xmlns:xlink="http://www.w3.org/1999/xlink" width="712.433125pt" height="351.714531pt" viewBox="0 0 712.433125 351.714531" xmlns="http://www.w3.org/2000/svg" version="1.1">
 <metadata>
  <rdf:RDF xmlns:dc="http://purl.org/dc/elements/1.1/" xmlns:cc="http://creativecommons.org/ns#" xmlns:rdf="http://www.w3.org/1999/02/22-rdf-syntax-ns#">
   <cc:Work>
    <dc:type rdf:resource="http://purl.org/dc/dcmitype/StillImage"/>
    <dc:date>2026-07-05T18:46:20.943178</dc:date>
    <dc:format>image/svg+xml</dc:format>
    <dc:creator>
     <cc:Agent>
      <dc:title>Matplotlib v3.10.9, https://matplotlib.org/</dc:title>
     </cc:Agent>
    </dc:creator>
   </cc:Work>
  </rdf:RDF>
 </metadata>
 <defs>
  <style type="text/css">*{stroke-linejoin: round; stroke-linecap: butt}</style>
 </defs>
 <g id="figure_1">
  <g id="patch_1">
   <path d="M -0 351.714531 
L 712.433125 351.714531 
L 712.433125 0 
L -0 0 
z
" style="fill: #ffffff"/>
  </g>
  <g id="axes_1">
   <g id="patch_2">
    <path d="M 40.603125 314.158281 
L 344.499365 314.158281 
L 344.499365 21.558281 
L 40.603125 21.558281 
z
" style="fill: #ffffff"/>
   </g>
   <g id="FillBetweenPolyCollection_1">
    <defs>
     <path id="m4b195cbe49" d="M 54.41659 -50.85625 
L 54.41659 -316.85625 
L 55.804878 -308.557258 
L 57.193166 -300.461852 
L 58.581454 -292.566384 
L 59.969742 -284.867245 
L 61.35803 -277.360861 
L 62.746318 -270.043697 
L 64.134606 -262.912253 
L 65.522894 -255.963069 
L 66.911182 -249.19272 
L 68.29947 -242.59782 
L 69.687758 -236.175019 
L 71.076046 -229.921004 
L 72.464334 -223.8325 
L 73.852622 -217.906269 
L 75.24091 -212.13911 
L 76.629198 -206.52786 
L 78.017486 -201.069393 
L 79.405774 -195.760618 
L 80.794062 -190.598484 
L 82.18235 -185.579977 
L 83.570638 -180.702119 
L 84.958926 -175.96197 
L 86.347214 -171.356626 
L 87.735502 -166.883221 
L 89.12379 -162.538928 
L 90.512078 -158.320955 
L 91.900366 -154.226547 
L 93.288654 -150.252987 
L 94.676942 -146.397597 
L 96.06523 -142.657732 
L 97.453518 -139.030789 
L 98.841806 -135.514198 
L 100.230094 -132.105429 
L 101.618382 -128.801989 
L 103.00667 -125.60142 
L 104.394958 -122.501304 
L 105.783246 -119.499258 
L 107.171534 -116.592938 
L 108.559822 -113.780037 
L 109.94811 -111.058283 
L 111.336398 -108.425445 
L 112.724686 -105.879325 
L 114.112974 -103.417765 
L 115.501262 -101.038644 
L 116.88955 -98.739877 
L 118.277838 -96.519418 
L 119.666126 -94.375256 
L 121.054414 -92.30542 
L 122.442702 -90.307973 
L 123.83099 -88.381017 
L 125.219278 -86.522692 
L 126.607566 -84.731174 
L 127.995854 -83.004676 
L 129.384142 -81.341449 
L 130.77243 -79.739781 
L 132.160718 -78.197997 
L 133.549006 -76.71446 
L 134.937294 -75.287569 
L 136.325581 -73.91576 
L 137.713869 -72.597509 
L 139.102157 -71.331325 
L 140.490445 -70.115759 
L 141.878733 -68.949394 
L 143.267021 -67.830855 
L 144.655309 -66.758801 
L 146.043597 -65.73193 
L 147.431885 -64.748975 
L 148.820173 -63.80871 
L 150.208461 -62.909943 
L 151.596749 -62.051521 
L 152.985037 -61.232325 
L 154.373325 -60.451279 
L 155.761613 -59.707338 
L 157.149901 -58.999498 
L 158.538189 -58.326793 
L 159.926477 -57.68829 
L 161.314765 -57.083097 
L 162.703053 -56.510358 
L 164.091341 -55.969254 
L 165.479629 -55.459004 
L 166.867917 -54.978862 
L 168.256205 -54.528123 
L 169.644493 -54.106115 
L 171.032781 -53.712207 
L 172.421069 -53.345802 
L 173.809357 -53.006343 
L 175.197645 -52.693308 
L 176.585933 -52.406214 
L 177.974221 -52.144613 
L 179.362509 -51.908097 
L 180.750797 -51.696294 
L 182.139085 -51.508868 
L 183.527373 -51.345521 
L 184.915661 -51.205994 
L 186.303949 -51.090062 
L 187.692237 -50.99754 
L 189.080525 -50.928278 
L 190.468813 -50.882166 
L 191.857101 -50.859129 
L 193.245389 -50.859129 
L 194.633677 -50.882166 
L 196.021965 -50.928278 
L 197.410253 -50.99754 
L 198.798541 -51.090062 
L 200.186829 -51.205994 
L 201.575117 -51.345521 
L 202.963405 -51.508868 
L 204.351693 -51.696294 
L 205.739981 -51.908097 
L 207.128269 -52.144613 
L 208.516557 -52.406214 
L 209.904845 -52.693308 
L 211.293133 -53.006343 
L 212.681421 -53.345802 
L 214.069709 -53.712207 
L 215.457997 -54.106115 
L 216.846285 -54.528123 
L 218.234573 -54.978862 
L 219.622861 -55.459004 
L 221.011149 -55.969254 
L 222.399436 -56.510358 
L 223.787724 -57.083097 
L 225.176012 -57.68829 
L 226.5643 -58.326793 
L 227.952588 -58.999498 
L 229.340876 -59.707338 
L 230.729164 -60.451279 
L 232.117452 -61.232325 
L 233.50574 -62.051521 
L 234.894028 -62.909943 
L 236.282316 -63.80871 
L 237.670604 -64.748975 
L 239.058892 -65.73193 
L 240.44718 -66.758801 
L 241.835468 -67.830855 
L 243.223756 -68.949394 
L 244.612044 -70.115759 
L 246.000332 -71.331325 
L 247.38862 -72.597509 
L 248.776908 -73.91576 
L 250.165196 -75.287569 
L 251.553484 -76.71446 
L 252.941772 -78.197997 
L 254.33006 -79.739781 
L 255.718348 -81.341449 
L 257.106636 -83.004676 
L 258.494924 -84.731174 
L 259.883212 -86.522692 
L 261.2715 -88.381017 
L 262.659788 -90.307973 
L 264.048076 -92.30542 
L 265.436364 -94.375256 
L 266.824652 -96.519418 
L 268.21294 -98.739877 
L 269.601228 -101.038644 
L 270.989516 -103.417765 
L 272.377804 -105.879325 
L 273.766092 -108.425445 
L 275.15438 -111.058283 
L 276.542668 -113.780037 
L 277.930956 -116.592938 
L 279.319244 -119.499258 
L 280.707532 -122.501304 
L 282.09582 -125.60142 
L 283.484108 -128.801989 
L 284.872396 -132.105429 
L 286.260684 -135.514198 
L 287.648972 -139.030789 
L 289.03726 -142.657732 
L 290.425548 -146.397597 
L 291.813836 -150.252987 
L 293.202124 -154.226547 
L 294.590412 -158.320955 
L 295.9787 -162.538928 
L 297.366988 -166.883221 
L 298.755276 -171.356626 
L 300.143564 -175.96197 
L 301.531852 -180.702119 
L 302.92014 -185.579977 
L 304.308428 -190.598484 
L 305.696716 -195.760618 
L 307.085004 -201.069393 
L 308.473291 -206.52786 
L 309.861579 -212.13911 
L 311.249867 -217.906269 
L 312.638155 -223.8325 
L 314.026443 -229.921004 
L 315.414731 -236.175019 
L 316.803019 -242.59782 
L 318.191307 -249.19272 
L 319.579595 -255.963069 
L 320.967883 -262.912253 
L 322.356171 -270.043697 
L 323.744459 -277.360861 
L 325.132747 -284.867245 
L 326.521035 -292.566384 
L 327.909323 -300.461852 
L 329.297611 -308.557258 
L 330.685899 -316.85625 
L 330.685899 -50.85625 
L 330.685899 -50.85625 
L 329.297611 -50.85625 
L 327.909323 -50.85625 
L 326.521035 -50.85625 
L 325.132747 -50.85625 
L 323.744459 -50.85625 
L 322.356171 -50.85625 
L 320.967883 -50.85625 
L 319.579595 -50.85625 
L 318.191307 -50.85625 
L 316.803019 -50.85625 
L 315.414731 -50.85625 
L 314.026443 -50.85625 
L 312.638155 -50.85625 
L 311.249867 -50.85625 
L 309.861579 -50.85625 
L 308.473291 -50.85625 
L 307.085004 -50.85625 
L 305.696716 -50.85625 
L 304.308428 -50.85625 
L 302.92014 -50.85625 
L 301.531852 -50.85625 
L 300.143564 -50.85625 
L 298.755276 -50.85625 
L 297.366988 -50.85625 
L 295.9787 -50.85625 
L 294.590412 -50.85625 
L 293.202124 -50.85625 
L 291.813836 -50.85625 
L 290.425548 -50.85625 
L 289.03726 -50.85625 
L 287.648972 -50.85625 
L 286.260684 -50.85625 
L 284.872396 -50.85625 
L 283.484108 -50.85625 
L 282.09582 -50.85625 
L 280.707532 -50.85625 
L 279.319244 -50.85625 
L 277.930956 -50.85625 
L 276.542668 -50.85625 
L 275.15438 -50.85625 
L 273.766092 -50.85625 
L 272.377804 -50.85625 
L 270.989516 -50.85625 
L 269.601228 -50.85625 
L 268.21294 -50.85625 
L 266.824652 -50.85625 
L 265.436364 -50.85625 
L 264.048076 -50.85625 
L 262.659788 -50.85625 
L 261.2715 -50.85625 
L 259.883212 -50.85625 
L 258.494924 -50.85625 
L 257.106636 -50.85625 
L 255.718348 -50.85625 
L 254.33006 -50.85625 
L 252.941772 -50.85625 
L 251.553484 -50.85625 
L 250.165196 -50.85625 
L 248.776908 -50.85625 
L 247.38862 -50.85625 
L 246.000332 -50.85625 
L 244.612044 -50.85625 
L 243.223756 -50.85625 
L 241.835468 -50.85625 
L 240.44718 -50.85625 
L 239.058892 -50.85625 
L 237.670604 -50.85625 
L 236.282316 -50.85625 
L 234.894028 -50.85625 
L 233.50574 -50.85625 
L 232.117452 -50.85625 
L 230.729164 -50.85625 
L 229.340876 -50.85625 
L 227.952588 -50.85625 
L 226.5643 -50.85625 
L 225.176012 -50.85625 
L 223.787724 -50.85625 
L 222.399436 -50.85625 
L 221.011149 -50.85625 
L 219.622861 -50.85625 
L 218.234573 -50.85625 
L 216.846285 -50.85625 
L 215.457997 -50.85625 
L 214.069709 -50.85625 
L 212.681421 -50.85625 
L 211.293133 -50.85625 
L 209.904845 -50.85625 
L 208.516557 -50.85625 
L 207.128269 -50.85625 
L 205.739981 -50.85625 
L 204.351693 -50.85625 
L 202.963405 -50.85625 
L 201.575117 -50.85625 
L 200.186829 -50.85625 
L 198.798541 -50.85625 
L 197.410253 -50.85625 
L 196.021965 -50.85625 
L 194.633677 -50.85625 
L 193.245389 -50.85625 
L 191.857101 -50.85625 
L 190.468813 -50.85625 
L 189.080525 -50.85625 
L 187.692237 -50.85625 
L 186.303949 -50.85625 
L 184.915661 -50.85625 
L 183.527373 -50.85625 
L 182.139085 -50.85625 
L 180.750797 -50.85625 
L 179.362509 -50.85625 
L 177.974221 -50.85625 
L 176.585933 -50.85625 
L 175.197645 -50.85625 
L 173.809357 -50.85625 
L 172.421069 -50.85625 
L 171.032781 -50.85625 
L 169.644493 -50.85625 
L 168.256205 -50.85625 
L 166.867917 -50.85625 
L 165.479629 -50.85625 
L 164.091341 -50.85625 
L 162.703053 -50.85625 
L 161.314765 -50.85625 
L 159.926477 -50.85625 
L 158.538189 -50.85625 
L 157.149901 -50.85625 
L 155.761613 -50.85625 
L 154.373325 -50.85625 
L 152.985037 -50.85625 
L 151.596749 -50.85625 
L 150.208461 -50.85625 
L 148.820173 -50.85625 
L 147.431885 -50.85625 
L 146.043597 -50.85625 
L 144.655309 -50.85625 
L 143.267021 -50.85625 
L 141.878733 -50.85625 
L 140.490445 -50.85625 
L 139.102157 -50.85625 
L 137.713869 -50.85625 
L 136.325581 -50.85625 
L 134.937294 -50.85625 
L 133.549006 -50.85625 
L 132.160718 -50.85625 
L 130.77243 -50.85625 
L 129.384142 -50.85625 
L 127.995854 -50.85625 
L 126.607566 -50.85625 
L 125.219278 -50.85625 
L 123.83099 -50.85625 
L 122.442702 -50.85625 
L 121.054414 -50.85625 
L 119.666126 -50.85625 
L 118.277838 -50.85625 
L 116.88955 -50.85625 
L 115.501262 -50.85625 
L 114.112974 -50.85625 
L 112.724686 -50.85625 
L 111.336398 -50.85625 
L 109.94811 -50.85625 
L 108.559822 -50.85625 
L 107.171534 -50.85625 
L 105.783246 -50.85625 
L 104.394958 -50.85625 
L 103.00667 -50.85625 
L 101.618382 -50.85625 
L 100.230094 -50.85625 
L 98.841806 -50.85625 
L 97.453518 -50.85625 
L 96.06523 -50.85625 
L 94.676942 -50.85625 
L 93.288654 -50.85625 
L 91.900366 -50.85625 
L 90.512078 -50.85625 
L 89.12379 -50.85625 
L 87.735502 -50.85625 
L 86.347214 -50.85625 
L 84.958926 -50.85625 
L 83.570638 -50.85625 
L 82.18235 -50.85625 
L 80.794062 -50.85625 
L 79.405774 -50.85625 
L 78.017486 -50.85625 
L 76.629198 -50.85625 
L 75.24091 -50.85625 
L 73.852622 -50.85625 
L 72.464334 -50.85625 
L 71.076046 -50.85625 
L 69.687758 -50.85625 
L 68.29947 -50.85625 
L 66.911182 -50.85625 
L 65.522894 -50.85625 
L 64.134606 -50.85625 
L 62.746318 -50.85625 
L 61.35803 -50.85625 
L 59.969742 -50.85625 
L 58.581454 -50.85625 
L 57.193166 -50.85625 
L 55.804878 -50.85625 
L 54.41659 -50.85625 
z
" style="stroke: #ffebee; stroke-opacity: 0.5"/>
    </defs>
    <g clip-path="url(#pd7c061c53f)">
     <use xlink:href="#m4b195cbe49" x="0" y="351.714531" style="fill: #ffebee; fill-opacity: 0.5; stroke: #ffebee; stroke-opacity: 0.5"/>
    </g>
   </g>
   <g id="patch_3">
    <path d="M 171.831047 314.158281 
L 213.271443 314.158281 
L 213.271443 21.558281 
L 171.831047 21.558281 
z
" clip-path="url(#pd7c061c53f)" style="fill: #b0bec5; opacity: 0.3; stroke: #b0bec5; stroke-linejoin: miter"/>
   </g>
   <g id="matplotlib.axis_1">
    <g id="xtick_1">
     <g id="line2d_1">
      <defs>
       <path id="m06eb60f55e" d="M 0 0 
L 0 3.5 
" style="stroke: #000000; stroke-width: 0.8"/>
      </defs>
      <g>
       <use xlink:href="#m06eb60f55e" x="54.41659" y="314.158281" style="stroke: #000000; stroke-width: 0.8"/>
      </g>
     </g>
     <g id="text_1">
      <!-- −2.0 -->
      <g transform="translate(42.275184 328.756719) scale(0.1 -0.1)">
       <defs>
        <path id="DejaVuSans-2212" d="M 678 2272 
L 4684 2272 
L 4684 1741 
L 678 1741 
L 678 2272 
z
" transform="scale(0.015625)"/>
        <path id="DejaVuSans-32" d="M 1228 531 
L 3431 531 
L 3431 0 
L 469 0 
L 469 531 
Q 828 903 1448 1529 
Q 2069 2156 2228 2338 
Q 2531 2678 2651 2914 
Q 2772 3150 2772 3378 
Q 2772 3750 2511 3984 
Q 2250 4219 1831 4219 
Q 1534 4219 1204 4116 
Q 875 4013 500 3803 
L 500 4441 
Q 881 4594 1212 4672 
Q 1544 4750 1819 4750 
Q 2544 4750 2975 4387 
Q 3406 4025 3406 3419 
Q 3406 3131 3298 2873 
Q 3191 2616 2906 2266 
Q 2828 2175 2409 1742 
Q 1991 1309 1228 531 
z
" transform="scale(0.015625)"/>
        <path id="DejaVuSans-2e" d="M 684 794 
L 1344 794 
L 1344 0 
L 684 0 
L 684 794 
z
" transform="scale(0.015625)"/>
        <path id="DejaVuSans-30" d="M 2034 4250 
Q 1547 4250 1301 3770 
Q 1056 3291 1056 2328 
Q 1056 1369 1301 889 
Q 1547 409 2034 409 
Q 2525 409 2770 889 
Q 3016 1369 3016 2328 
Q 3016 3291 2770 3770 
Q 2525 4250 2034 4250 
z
M 2034 4750 
Q 2819 4750 3233 4129 
Q 3647 3509 3647 2328 
Q 3647 1150 3233 529 
Q 2819 -91 2034 -91 
Q 1250 -91 836 529 
Q 422 1150 422 2328 
Q 422 3509 836 4129 
Q 1250 4750 2034 4750 
z
" transform="scale(0.015625)"/>
       </defs>
       <use xlink:href="#DejaVuSans-2212"/>
       <use xlink:href="#DejaVuSans-32" transform="translate(83.789062 0)"/>
       <use xlink:href="#DejaVuSans-2e" transform="translate(147.412109 0)"/>
       <use xlink:href="#DejaVuSans-30" transform="translate(179.199219 0)"/>
      </g>
     </g>
    </g>
    <g id="xtick_2">
     <g id="line2d_2">
      <g>
       <use xlink:href="#m06eb60f55e" x="88.950254" y="314.158281" style="stroke: #000000; stroke-width: 0.8"/>
      </g>
     </g>
     <g id="text_2">
      <!-- −1.5 -->
      <g transform="translate(76.808848 328.756719) scale(0.1 -0.1)">
       <defs>
        <path id="DejaVuSans-31" d="M 794 531 
L 1825 531 
L 1825 4091 
L 703 3866 
L 703 4441 
L 1819 4666 
L 2450 4666 
L 2450 531 
L 3481 531 
L 3481 0 
L 794 0 
L 794 531 
z
" transform="scale(0.015625)"/>
        <path id="DejaVuSans-35" d="M 691 4666 
L 3169 4666 
L 3169 4134 
L 1269 4134 
L 1269 2991 
Q 1406 3038 1543 3061 
Q 1681 3084 1819 3084 
Q 2600 3084 3056 2656 
Q 3513 2228 3513 1497 
Q 3513 744 3044 326 
Q 2575 -91 1722 -91 
Q 1428 -91 1123 -41 
Q 819 9 494 109 
L 494 744 
Q 775 591 1075 516 
Q 1375 441 1709 441 
Q 2250 441 2565 725 
Q 2881 1009 2881 1497 
Q 2881 1984 2565 2268 
Q 2250 2553 1709 2553 
Q 1456 2553 1204 2497 
Q 953 2441 691 2322 
L 691 4666 
z
" transform="scale(0.015625)"/>
       </defs>
       <use xlink:href="#DejaVuSans-2212"/>
       <use xlink:href="#DejaVuSans-31" transform="translate(83.789062 0)"/>
       <use xlink:href="#DejaVuSans-2e" transform="translate(147.412109 0)"/>
       <use xlink:href="#DejaVuSans-35" transform="translate(179.199219 0)"/>
      </g>
     </g>
    </g>
    <g id="xtick_3">
     <g id="line2d_3">
      <g>
       <use xlink:href="#m06eb60f55e" x="123.483918" y="314.158281" style="stroke: #000000; stroke-width: 0.8"/>
      </g>
     </g>
     <g id="text_3">
      <!-- −1.0 -->
      <g transform="translate(111.342511 328.756719) scale(0.1 -0.1)">
       <use xlink:href="#DejaVuSans-2212"/>
       <use xlink:href="#DejaVuSans-31" transform="translate(83.789062 0)"/>
       <use xlink:href="#DejaVuSans-2e" transform="translate(147.412109 0)"/>
       <use xlink:href="#DejaVuSans-30" transform="translate(179.199219 0)"/>
      </g>
     </g>
    </g>
    <g id="xtick_4">
     <g id="line2d_4">
      <g>
       <use xlink:href="#m06eb60f55e" x="158.017581" y="314.158281" style="stroke: #000000; stroke-width: 0.8"/>
      </g>
     </g>
     <g id="text_4">
      <!-- −0.5 -->
      <g transform="translate(145.876175 328.756719) scale(0.1 -0.1)">
       <use xlink:href="#DejaVuSans-2212"/>
       <use xlink:href="#DejaVuSans-30" transform="translate(83.789062 0)"/>
       <use xlink:href="#DejaVuSans-2e" transform="translate(147.412109 0)"/>
       <use xlink:href="#DejaVuSans-35" transform="translate(179.199219 0)"/>
      </g>
     </g>
    </g>
    <g id="xtick_5">
     <g id="line2d_5">
      <g>
       <use xlink:href="#m06eb60f55e" x="192.551245" y="314.158281" style="stroke: #000000; stroke-width: 0.8"/>
      </g>
     </g>
     <g id="text_5">
      <!-- 0.0 -->
      <g transform="translate(184.599682 328.756719) scale(0.1 -0.1)">
       <use xlink:href="#DejaVuSans-30"/>
       <use xlink:href="#DejaVuSans-2e" transform="translate(63.623047 0)"/>
       <use xlink:href="#DejaVuSans-30" transform="translate(95.410156 0)"/>
      </g>
     </g>
    </g>
    <g id="xtick_6">
     <g id="line2d_6">
      <g>
       <use xlink:href="#m06eb60f55e" x="227.084908" y="314.158281" style="stroke: #000000; stroke-width: 0.8"/>
      </g>
     </g>
     <g id="text_6">
      <!-- 0.5 -->
      <g transform="translate(219.133346 328.756719) scale(0.1 -0.1)">
       <use xlink:href="#DejaVuSans-30"/>
       <use xlink:href="#DejaVuSans-2e" transform="translate(63.623047 0)"/>
       <use xlink:href="#DejaVuSans-35" transform="translate(95.410156 0)"/>
      </g>
     </g>
    </g>
    <g id="xtick_7">
     <g id="line2d_7">
      <g>
       <use xlink:href="#m06eb60f55e" x="261.618572" y="314.158281" style="stroke: #000000; stroke-width: 0.8"/>
      </g>
     </g>
     <g id="text_7">
      <!-- 1.0 -->
      <g transform="translate(253.66701 328.756719) scale(0.1 -0.1)">
       <use xlink:href="#DejaVuSans-31"/>
       <use xlink:href="#DejaVuSans-2e" transform="translate(63.623047 0)"/>
       <use xlink:href="#DejaVuSans-30" transform="translate(95.410156 0)"/>
      </g>
     </g>
    </g>
    <g id="xtick_8">
     <g id="line2d_8">
      <g>
       <use xlink:href="#m06eb60f55e" x="296.152236" y="314.158281" style="stroke: #000000; stroke-width: 0.8"/>
      </g>
     </g>
     <g id="text_8">
      <!-- 1.5 -->
      <g transform="translate(288.200673 328.756719) scale(0.1 -0.1)">
       <use xlink:href="#DejaVuSans-31"/>
       <use xlink:href="#DejaVuSans-2e" transform="translate(63.623047 0)"/>
       <use xlink:href="#DejaVuSans-35" transform="translate(95.410156 0)"/>
      </g>
     </g>
    </g>
    <g id="xtick_9">
     <g id="line2d_9">
      <g>
       <use xlink:href="#m06eb60f55e" x="330.685899" y="314.158281" style="stroke: #000000; stroke-width: 0.8"/>
      </g>
     </g>
     <g id="text_9">
      <!-- 2.0 -->
      <g transform="translate(322.734337 328.756719) scale(0.1 -0.1)">
       <use xlink:href="#DejaVuSans-32"/>
       <use xlink:href="#DejaVuSans-2e" transform="translate(63.623047 0)"/>
       <use xlink:href="#DejaVuSans-30" transform="translate(95.410156 0)"/>
      </g>
     </g>
    </g>
    <g id="text_10">
     <!-- Perturbation Space -->
     <g transform="translate(144.758276 342.434844) scale(0.1 -0.1)">
      <defs>
       <path id="DejaVuSans-50" d="M 1259 4147 
L 1259 2394 
L 2053 2394 
Q 2494 2394 2734 2622 
Q 2975 2850 2975 3272 
Q 2975 3691 2734 3919 
Q 2494 4147 2053 4147 
L 1259 4147 
z
M 628 4666 
L 2053 4666 
Q 2838 4666 3239 4311 
Q 3641 3956 3641 3272 
Q 3641 2581 3239 2228 
Q 2838 1875 2053 1875 
L 1259 1875 
L 1259 0 
L 628 0 
L 628 4666 
z
" transform="scale(0.015625)"/>
       <path id="DejaVuSans-65" d="M 3597 1894 
L 3597 1613 
L 953 1613 
Q 991 1019 1311 708 
Q 1631 397 2203 397 
Q 2534 397 2845 478 
Q 3156 559 3463 722 
L 3463 178 
Q 3153 47 2828 -22 
Q 2503 -91 2169 -91 
Q 1331 -91 842 396 
Q 353 884 353 1716 
Q 353 2575 817 3079 
Q 1281 3584 2069 3584 
Q 2775 3584 3186 3129 
Q 3597 2675 3597 1894 
z
M 3022 2063 
Q 3016 2534 2758 2815 
Q 2500 3097 2075 3097 
Q 1594 3097 1305 2825 
Q 1016 2553 972 2059 
L 3022 2063 
z
" transform="scale(0.015625)"/>
       <path id="DejaVuSans-72" d="M 2631 2963 
Q 2534 3019 2420 3045 
Q 2306 3072 2169 3072 
Q 1681 3072 1420 2755 
Q 1159 2438 1159 1844 
L 1159 0 
L 581 0 
L 581 3500 
L 1159 3500 
L 1159 2956 
Q 1341 3275 1631 3429 
Q 1922 3584 2338 3584 
Q 2397 3584 2469 3576 
Q 2541 3569 2628 3553 
L 2631 2963 
z
" transform="scale(0.015625)"/>
       <path id="DejaVuSans-74" d="M 1172 4494 
L 1172 3500 
L 2356 3500 
L 2356 3053 
L 1172 3053 
L 1172 1153 
Q 1172 725 1289 603 
Q 1406 481 1766 481 
L 2356 481 
L 2356 0 
L 1766 0 
Q 1100 0 847 248 
Q 594 497 594 1153 
L 594 3053 
L 172 3053 
L 172 3500 
L 594 3500 
L 594 4494 
L 1172 4494 
z
" transform="scale(0.015625)"/>
       <path id="DejaVuSans-75" d="M 544 1381 
L 544 3500 
L 1119 3500 
L 1119 1403 
Q 1119 906 1312 657 
Q 1506 409 1894 409 
Q 2359 409 2629 706 
Q 2900 1003 2900 1516 
L 2900 3500 
L 3475 3500 
L 3475 0 
L 2900 0 
L 2900 538 
Q 2691 219 2414 64 
Q 2138 -91 1772 -91 
Q 1169 -91 856 284 
Q 544 659 544 1381 
z
M 1991 3584 
L 1991 3584 
z
" transform="scale(0.015625)"/>
       <path id="DejaVuSans-62" d="M 3116 1747 
Q 3116 2381 2855 2742 
Q 2594 3103 2138 3103 
Q 1681 3103 1420 2742 
Q 1159 2381 1159 1747 
Q 1159 1113 1420 752 
Q 1681 391 2138 391 
Q 2594 391 2855 752 
Q 3116 1113 3116 1747 
z
M 1159 2969 
Q 1341 3281 1617 3432 
Q 1894 3584 2278 3584 
Q 2916 3584 3314 3078 
Q 3713 2572 3713 1747 
Q 3713 922 3314 415 
Q 2916 -91 2278 -91 
Q 1894 -91 1617 61 
Q 1341 213 1159 525 
L 1159 0 
L 581 0 
L 581 4863 
L 1159 4863 
L 1159 2969 
z
" transform="scale(0.015625)"/>
       <path id="DejaVuSans-61" d="M 2194 1759 
Q 1497 1759 1228 1600 
Q 959 1441 959 1056 
Q 959 750 1161 570 
Q 1363 391 1709 391 
Q 2188 391 2477 730 
Q 2766 1069 2766 1631 
L 2766 1759 
L 2194 1759 
z
M 3341 1997 
L 3341 0 
L 2766 0 
L 2766 531 
Q 2569 213 2275 61 
Q 1981 -91 1556 -91 
Q 1019 -91 701 211 
Q 384 513 384 1019 
Q 384 1609 779 1909 
Q 1175 2209 1959 2209 
L 2766 2209 
L 2766 2266 
Q 2766 2663 2505 2880 
Q 2244 3097 1772 3097 
Q 1472 3097 1187 3025 
Q 903 2953 641 2809 
L 641 3341 
Q 956 3463 1253 3523 
Q 1550 3584 1831 3584 
Q 2591 3584 2966 3190 
Q 3341 2797 3341 1997 
z
" transform="scale(0.015625)"/>
       <path id="DejaVuSans-69" d="M 603 3500 
L 1178 3500 
L 1178 0 
L 603 0 
L 603 3500 
z
M 603 4863 
L 1178 4863 
L 1178 4134 
L 603 4134 
L 603 4863 
z
" transform="scale(0.015625)"/>
       <path id="DejaVuSans-6f" d="M 1959 3097 
Q 1497 3097 1228 2736 
Q 959 2375 959 1747 
Q 959 1119 1226 758 
Q 1494 397 1959 397 
Q 2419 397 2687 759 
Q 2956 1122 2956 1747 
Q 2956 2369 2687 2733 
Q 2419 3097 1959 3097 
z
M 1959 3584 
Q 2709 3584 3137 3096 
Q 3566 2609 3566 1747 
Q 3566 888 3137 398 
Q 2709 -91 1959 -91 
Q 1206 -91 779 398 
Q 353 888 353 1747 
Q 353 2609 779 3096 
Q 1206 3584 1959 3584 
z
" transform="scale(0.015625)"/>
       <path id="DejaVuSans-6e" d="M 3513 2113 
L 3513 0 
L 2938 0 
L 2938 2094 
Q 2938 2591 2744 2837 
Q 2550 3084 2163 3084 
Q 1697 3084 1428 2787 
Q 1159 2491 1159 1978 
L 1159 0 
L 581 0 
L 581 3500 
L 1159 3500 
L 1159 2956 
Q 1366 3272 1645 3428 
Q 1925 3584 2291 3584 
Q 2894 3584 3203 3211 
Q 3513 2838 3513 2113 
z
" transform="scale(0.015625)"/>
       <path id="DejaVuSans-20" transform="scale(0.015625)"/>
       <path id="DejaVuSans-53" d="M 3425 4513 
L 3425 3897 
Q 3066 4069 2747 4153 
Q 2428 4238 2131 4238 
Q 1616 4238 1336 4038 
Q 1056 3838 1056 3469 
Q 1056 3159 1242 3001 
Q 1428 2844 1947 2747 
L 2328 2669 
Q 3034 2534 3370 2195 
Q 3706 1856 3706 1288 
Q 3706 609 3251 259 
Q 2797 -91 1919 -91 
Q 1588 -91 1214 -16 
Q 841 59 441 206 
L 441 856 
Q 825 641 1194 531 
Q 1563 422 1919 422 
Q 2459 422 2753 634 
Q 3047 847 3047 1241 
Q 3047 1584 2836 1778 
Q 2625 1972 2144 2069 
L 1759 2144 
Q 1053 2284 737 2584 
Q 422 2884 422 3419 
Q 422 4038 858 4394 
Q 1294 4750 2059 4750 
Q 2388 4750 2728 4690 
Q 3069 4631 3425 4513 
z
" transform="scale(0.015625)"/>
       <path id="DejaVuSans-70" d="M 1159 525 
L 1159 -1331 
L 581 -1331 
L 581 3500 
L 1159 3500 
L 1159 2969 
Q 1341 3281 1617 3432 
Q 1894 3584 2278 3584 
Q 2916 3584 3314 3078 
Q 3713 2572 3713 1747 
Q 3713 922 3314 415 
Q 2916 -91 2278 -91 
Q 1894 -91 1617 61 
Q 1341 213 1159 525 
z
M 3116 1747 
Q 3116 2381 2855 2742 
Q 2594 3103 2138 3103 
Q 1681 3103 1420 2742 
Q 1159 2381 1159 1747 
Q 1159 1113 1420 752 
Q 1681 391 2138 391 
Q 2594 391 2855 752 
Q 3116 1113 3116 1747 
z
" transform="scale(0.015625)"/>
       <path id="DejaVuSans-63" d="M 3122 3366 
L 3122 2828 
Q 2878 2963 2633 3030 
Q 2388 3097 2138 3097 
Q 1578 3097 1268 2742 
Q 959 2388 959 1747 
Q 959 1106 1268 751 
Q 1578 397 2138 397 
Q 2388 397 2633 464 
Q 2878 531 3122 666 
L 3122 134 
Q 2881 22 2623 -34 
Q 2366 -91 2075 -91 
Q 1284 -91 818 406 
Q 353 903 353 1747 
Q 353 2603 823 3093 
Q 1294 3584 2113 3584 
Q 2378 3584 2631 3529 
Q 2884 3475 3122 3366 
z
" transform="scale(0.015625)"/>
      </defs>
      <use xlink:href="#DejaVuSans-50"/>
      <use xlink:href="#DejaVuSans-65" transform="translate(56.677734 0)"/>
      <use xlink:href="#DejaVuSans-72" transform="translate(118.201172 0)"/>
      <use xlink:href="#DejaVuSans-74" transform="translate(159.314453 0)"/>
      <use xlink:href="#DejaVuSans-75" transform="translate(198.523438 0)"/>
      <use xlink:href="#DejaVuSans-72" transform="translate(261.902344 0)"/>
      <use xlink:href="#DejaVuSans-62" transform="translate(303.015625 0)"/>
      <use xlink:href="#DejaVuSans-61" transform="translate(366.492188 0)"/>
      <use xlink:href="#DejaVuSans-74" transform="translate(427.771484 0)"/>
      <use xlink:href="#DejaVuSans-69" transform="translate(466.980469 0)"/>
      <use xlink:href="#DejaVuSans-6f" transform="translate(494.763672 0)"/>
      <use xlink:href="#DejaVuSans-6e" transform="translate(555.945312 0)"/>
      <use xlink:href="#DejaVuSans-20" transform="translate(619.324219 0)"/>
      <use xlink:href="#DejaVuSans-53" transform="translate(651.111328 0)"/>
      <use xlink:href="#DejaVuSans-70" transform="translate(714.587891 0)"/>
      <use xlink:href="#DejaVuSans-61" transform="translate(778.064453 0)"/>
      <use xlink:href="#DejaVuSans-63" transform="translate(839.34375 0)"/>
      <use xlink:href="#DejaVuSans-65" transform="translate(894.324219 0)"/>
     </g>
    </g>
   </g>
   <g id="matplotlib.axis_2">
    <g id="ytick_1">
     <g id="line2d_10">
      <defs>
       <path id="m16ba9ea18c" d="M 0 0 
L -3.5 0 
" style="stroke: #000000; stroke-width: 0.8"/>
      </defs>
      <g>
       <use xlink:href="#m16ba9ea18c" x="40.603125" y="300.858281" style="stroke: #000000; stroke-width: 0.8"/>
      </g>
     </g>
     <g id="text_11">
      <!-- 0 -->
      <g transform="translate(27.240625 304.6575) scale(0.1 -0.1)">
       <use xlink:href="#DejaVuSans-30"/>
      </g>
     </g>
    </g>
    <g id="ytick_2">
     <g id="line2d_11">
      <g>
       <use xlink:href="#m16ba9ea18c" x="40.603125" y="253.358281" style="stroke: #000000; stroke-width: 0.8"/>
      </g>
     </g>
     <g id="text_12">
      <!-- 5 -->
      <g transform="translate(27.240625 257.1575) scale(0.1 -0.1)">
       <use xlink:href="#DejaVuSans-35"/>
      </g>
     </g>
    </g>
    <g id="ytick_3">
     <g id="line2d_12">
      <g>
       <use xlink:href="#m16ba9ea18c" x="40.603125" y="205.858281" style="stroke: #000000; stroke-width: 0.8"/>
      </g>
     </g>
     <g id="text_13">
      <!-- 10 -->
      <g transform="translate(20.878125 209.6575) scale(0.1 -0.1)">
       <use xlink:href="#DejaVuSans-31"/>
       <use xlink:href="#DejaVuSans-30" transform="translate(63.623047 0)"/>
      </g>
     </g>
    </g>
    <g id="ytick_4">
     <g id="line2d_13">
      <g>
       <use xlink:href="#m16ba9ea18c" x="40.603125" y="158.358281" style="stroke: #000000; stroke-width: 0.8"/>
      </g>
     </g>
     <g id="text_14">
      <!-- 15 -->
      <g transform="translate(20.878125 162.1575) scale(0.1 -0.1)">
       <use xlink:href="#DejaVuSans-31"/>
       <use xlink:href="#DejaVuSans-35" transform="translate(63.623047 0)"/>
      </g>
     </g>
    </g>
    <g id="ytick_5">
     <g id="line2d_14">
      <g>
       <use xlink:href="#m16ba9ea18c" x="40.603125" y="110.858281" style="stroke: #000000; stroke-width: 0.8"/>
      </g>
     </g>
     <g id="text_15">
      <!-- 20 -->
      <g transform="translate(20.878125 114.6575) scale(0.1 -0.1)">
       <use xlink:href="#DejaVuSans-32"/>
       <use xlink:href="#DejaVuSans-30" transform="translate(63.623047 0)"/>
      </g>
     </g>
    </g>
    <g id="ytick_6">
     <g id="line2d_15">
      <g>
       <use xlink:href="#m16ba9ea18c" x="40.603125" y="63.358281" style="stroke: #000000; stroke-width: 0.8"/>
      </g>
     </g>
     <g id="text_16">
      <!-- 25 -->
      <g transform="translate(20.878125 67.1575) scale(0.1 -0.1)">
       <use xlink:href="#DejaVuSans-32"/>
       <use xlink:href="#DejaVuSans-35" transform="translate(63.623047 0)"/>
      </g>
     </g>
    </g>
    <g id="text_17">
     <!-- Loss -->
     <g transform="translate(14.798438 178.825469) rotate(-90) scale(0.1 -0.1)">
      <defs>
       <path id="DejaVuSans-4c" d="M 628 4666 
L 1259 4666 
L 1259 531 
L 3531 531 
L 3531 0 
L 628 0 
L 628 4666 
z
" transform="scale(0.015625)"/>
       <path id="DejaVuSans-73" d="M 2834 3397 
L 2834 2853 
Q 2591 2978 2328 3040 
Q 2066 3103 1784 3103 
Q 1356 3103 1142 2972 
Q 928 2841 928 2578 
Q 928 2378 1081 2264 
Q 1234 2150 1697 2047 
L 1894 2003 
Q 2506 1872 2764 1633 
Q 3022 1394 3022 966 
Q 3022 478 2636 193 
Q 2250 -91 1575 -91 
Q 1294 -91 989 -36 
Q 684 19 347 128 
L 347 722 
Q 666 556 975 473 
Q 1284 391 1588 391 
Q 1994 391 2212 530 
Q 2431 669 2431 922 
Q 2431 1156 2273 1281 
Q 2116 1406 1581 1522 
L 1381 1569 
Q 847 1681 609 1914 
Q 372 2147 372 2553 
Q 372 3047 722 3315 
Q 1072 3584 1716 3584 
Q 2034 3584 2315 3537 
Q 2597 3491 2834 3397 
z
" transform="scale(0.015625)"/>
      </defs>
      <use xlink:href="#DejaVuSans-4c"/>
      <use xlink:href="#DejaVuSans-6f" transform="translate(53.962891 0)"/>
      <use xlink:href="#DejaVuSans-73" transform="translate(115.144531 0)"/>
      <use xlink:href="#DejaVuSans-73" transform="translate(167.244141 0)"/>
     </g>
    </g>
   </g>
   <g id="line2d_16">
    <path d="M 54.41659 34.858281 
L 58.581454 59.148147 
L 62.746318 81.670835 
L 66.911182 102.521811 
L 71.076046 121.793528 
L 75.24091 139.575421 
L 79.405774 155.953913 
L 82.18235 166.134554 
L 84.958926 175.752562 
L 87.735502 184.83131 
L 90.512078 193.393576 
L 93.288654 201.461544 
L 96.06523 209.056799 
L 98.841806 216.200333 
L 101.618382 222.912543 
L 104.394958 229.213228 
L 107.171534 235.121593 
L 109.94811 240.656248 
L 112.724686 245.835207 
L 115.501262 250.675887 
L 118.277838 255.195113 
L 121.054414 259.409111 
L 123.83099 263.333514 
L 126.607566 266.983357 
L 129.384142 270.373082 
L 132.160718 273.516534 
L 134.937294 276.426963 
L 137.713869 279.117023 
L 140.490445 281.598773 
L 144.655309 284.95573 
L 148.820173 287.905821 
L 152.985037 290.482206 
L 157.149901 292.715033 
L 161.314765 294.631434 
L 165.479629 296.255528 
L 169.644493 297.608416 
L 173.809357 298.708188 
L 177.974221 299.569918 
L 182.139085 300.205664 
L 186.303949 300.624469 
L 190.468813 300.832365 
L 194.633677 300.832365 
L 198.798541 300.624469 
L 202.963405 300.205664 
L 207.128269 299.569918 
L 211.293133 298.708188 
L 215.457997 297.608416 
L 219.622861 296.255528 
L 223.787724 294.631434 
L 227.952588 292.715033 
L 232.117452 290.482206 
L 236.282316 287.905821 
L 240.44718 284.95573 
L 243.223756 282.765137 
L 246.000332 280.383206 
L 248.776908 277.798771 
L 251.553484 275.000071 
L 254.33006 271.97475 
L 257.106636 268.709855 
L 259.883212 265.191839 
L 262.659788 261.406558 
L 265.436364 257.339275 
L 268.21294 252.974654 
L 270.989516 248.296766 
L 273.766092 243.289087 
L 276.542668 237.934494 
L 279.319244 232.215273 
L 282.09582 226.113111 
L 284.872396 219.609102 
L 287.648972 212.683743 
L 290.425548 205.316934 
L 293.202124 197.487984 
L 295.9787 189.175603 
L 298.755276 180.357906 
L 301.531852 171.012412 
L 304.308428 161.116047 
L 307.085004 150.645139 
L 309.861579 139.575421 
L 312.638155 127.882031 
L 315.414731 115.539513 
L 319.579595 95.751462 
L 323.744459 74.35367 
L 327.909323 51.252679 
L 330.685899 34.858281 
L 330.685899 34.858281 
" clip-path="url(#pd7c061c53f)" style="fill: none; stroke: #d32f2f; stroke-width: 2.5; stroke-linecap: square"/>
   </g>
   <g id="patch_4">
    <path d="M 40.603125 314.158281 
L 40.603125 21.558281 
" style="fill: none; stroke: #000000; stroke-width: 0.8; stroke-linejoin: miter; stroke-linecap: square"/>
   </g>
   <g id="patch_5">
    <path d="M 344.499365 314.158281 
L 344.499365 21.558281 
" style="fill: none; stroke: #000000; stroke-width: 0.8; stroke-linejoin: miter; stroke-linecap: square"/>
   </g>
   <g id="patch_6">
    <path d="M 40.603125 314.158281 
L 344.499365 314.158281 
" style="fill: none; stroke: #000000; stroke-width: 0.8; stroke-linejoin: miter; stroke-linecap: square"/>
   </g>
   <g id="patch_7">
    <path d="M 40.603125 21.558281 
L 344.499365 21.558281 
" style="fill: none; stroke: #000000; stroke-width: 0.8; stroke-linejoin: miter; stroke-linecap: square"/>
   </g>
   <g id="patch_8">
    <path d="M 244.284094 252.376046 
Q 233.870454 267.504923 223.456814 282.6338 
L 227.781361 285.61051 
Q 221.907565 288.85285 216.033769 292.09519 
Q 216.965226 285.450896 217.896683 278.806603 
L 222.22123 281.783312 
Q 232.634869 266.654435 243.048509 251.525558 
L 244.284094 252.376046 
z
" style="stroke: #000000; stroke-linecap: round"/>
   </g>
   <g id="text_18">
    <!-- Vulnerable Spike -->
    <g transform="translate(247.805107 243.858281) scale(0.1 -0.1)">
     <defs>
      <path id="DejaVuSans-56" d="M 1831 0 
L 50 4666 
L 709 4666 
L 2188 738 
L 3669 4666 
L 4325 4666 
L 2547 0 
L 1831 0 
z
" transform="scale(0.015625)"/>
      <path id="DejaVuSans-6c" d="M 603 4863 
L 1178 4863 
L 1178 0 
L 603 0 
L 603 4863 
z
" transform="scale(0.015625)"/>
      <path id="DejaVuSans-6b" d="M 581 4863 
L 1159 4863 
L 1159 1991 
L 2875 3500 
L 3609 3500 
L 1753 1863 
L 3688 0 
L 2938 0 
L 1159 1709 
L 1159 0 
L 581 0 
L 581 4863 
z
" transform="scale(0.015625)"/>
     </defs>
     <use xlink:href="#DejaVuSans-56"/>
     <use xlink:href="#DejaVuSans-75" transform="translate(61.658203 0)"/>
     <use xlink:href="#DejaVuSans-6c" transform="translate(125.037109 0)"/>
     <use xlink:href="#DejaVuSans-6e" transform="translate(152.820312 0)"/>
     <use xlink:href="#DejaVuSans-65" transform="translate(216.199219 0)"/>
     <use xlink:href="#DejaVuSans-72" transform="translate(277.722656 0)"/>
     <use xlink:href="#DejaVuSans-61" transform="translate(318.835938 0)"/>
     <use xlink:href="#DejaVuSans-62" transform="translate(380.115234 0)"/>
     <use xlink:href="#DejaVuSans-6c" transform="translate(443.591797 0)"/>
     <use xlink:href="#DejaVuSans-65" transform="translate(471.375 0)"/>
     <use xlink:href="#DejaVuSans-20" transform="translate(532.898438 0)"/>
     <use xlink:href="#DejaVuSans-53" transform="translate(564.685547 0)"/>
     <use xlink:href="#DejaVuSans-70" transform="translate(628.162109 0)"/>
     <use xlink:href="#DejaVuSans-69" transform="translate(691.638672 0)"/>
     <use xlink:href="#DejaVuSans-6b" transform="translate(719.421875 0)"/>
     <use xlink:href="#DejaVuSans-65" transform="translate(773.707031 0)"/>
    </g>
   </g>
   <g id="text_19">
    <!-- Standard CNN (Sharp Minima) -->
    <g transform="translate(99.184448 15.558281) scale(0.11 -0.11)">
     <defs>
      <path id="DejaVuSans-Bold-53" d="M 3834 4519 
L 3834 3531 
Q 3450 3703 3084 3790 
Q 2719 3878 2394 3878 
Q 1963 3878 1756 3759 
Q 1550 3641 1550 3391 
Q 1550 3203 1689 3098 
Q 1828 2994 2194 2919 
L 2706 2816 
Q 3484 2659 3812 2340 
Q 4141 2022 4141 1434 
Q 4141 663 3683 286 
Q 3225 -91 2284 -91 
Q 1841 -91 1394 -6 
Q 947 78 500 244 
L 500 1259 
Q 947 1022 1364 901 
Q 1781 781 2169 781 
Q 2563 781 2772 912 
Q 2981 1044 2981 1288 
Q 2981 1506 2839 1625 
Q 2697 1744 2272 1838 
L 1806 1941 
Q 1106 2091 782 2419 
Q 459 2747 459 3303 
Q 459 4000 909 4375 
Q 1359 4750 2203 4750 
Q 2588 4750 2994 4692 
Q 3400 4634 3834 4519 
z
" transform="scale(0.015625)"/>
      <path id="DejaVuSans-Bold-74" d="M 1759 4494 
L 1759 3500 
L 2913 3500 
L 2913 2700 
L 1759 2700 
L 1759 1216 
Q 1759 972 1856 886 
Q 1953 800 2241 800 
L 2816 800 
L 2816 0 
L 1856 0 
Q 1194 0 917 276 
Q 641 553 641 1216 
L 641 2700 
L 84 2700 
L 84 3500 
L 641 3500 
L 641 4494 
L 1759 4494 
z
" transform="scale(0.015625)"/>
      <path id="DejaVuSans-Bold-61" d="M 2106 1575 
Q 1756 1575 1579 1456 
Q 1403 1338 1403 1106 
Q 1403 894 1545 773 
Q 1688 653 1941 653 
Q 2256 653 2472 879 
Q 2688 1106 2688 1447 
L 2688 1575 
L 2106 1575 
z
M 3816 1997 
L 3816 0 
L 2688 0 
L 2688 519 
Q 2463 200 2181 54 
Q 1900 -91 1497 -91 
Q 953 -91 614 226 
Q 275 544 275 1050 
Q 275 1666 698 1953 
Q 1122 2241 2028 2241 
L 2688 2241 
L 2688 2328 
Q 2688 2594 2478 2717 
Q 2269 2841 1825 2841 
Q 1466 2841 1156 2769 
Q 847 2697 581 2553 
L 581 3406 
Q 941 3494 1303 3539 
Q 1666 3584 2028 3584 
Q 2975 3584 3395 3211 
Q 3816 2838 3816 1997 
z
" transform="scale(0.015625)"/>
      <path id="DejaVuSans-Bold-6e" d="M 4056 2131 
L 4056 0 
L 2931 0 
L 2931 347 
L 2931 1631 
Q 2931 2084 2911 2256 
Q 2891 2428 2841 2509 
Q 2775 2619 2662 2680 
Q 2550 2741 2406 2741 
Q 2056 2741 1856 2470 
Q 1656 2200 1656 1722 
L 1656 0 
L 538 0 
L 538 3500 
L 1656 3500 
L 1656 2988 
Q 1909 3294 2193 3439 
Q 2478 3584 2822 3584 
Q 3428 3584 3742 3212 
Q 4056 2841 4056 2131 
z
" transform="scale(0.015625)"/>
      <path id="DejaVuSans-Bold-64" d="M 2919 2988 
L 2919 4863 
L 4044 4863 
L 4044 0 
L 2919 0 
L 2919 506 
Q 2688 197 2409 53 
Q 2131 -91 1766 -91 
Q 1119 -91 703 423 
Q 288 938 288 1747 
Q 288 2556 703 3070 
Q 1119 3584 1766 3584 
Q 2128 3584 2408 3439 
Q 2688 3294 2919 2988 
z
M 2181 722 
Q 2541 722 2730 984 
Q 2919 1247 2919 1747 
Q 2919 2247 2730 2509 
Q 2541 2772 2181 2772 
Q 1825 2772 1636 2509 
Q 1447 2247 1447 1747 
Q 1447 1247 1636 984 
Q 1825 722 2181 722 
z
" transform="scale(0.015625)"/>
      <path id="DejaVuSans-Bold-72" d="M 3138 2547 
Q 2991 2616 2845 2648 
Q 2700 2681 2553 2681 
Q 2122 2681 1889 2404 
Q 1656 2128 1656 1613 
L 1656 0 
L 538 0 
L 538 3500 
L 1656 3500 
L 1656 2925 
Q 1872 3269 2151 3426 
Q 2431 3584 2822 3584 
Q 2878 3584 2943 3579 
Q 3009 3575 3134 3559 
L 3138 2547 
z
" transform="scale(0.015625)"/>
      <path id="DejaVuSans-Bold-20" transform="scale(0.015625)"/>
      <path id="DejaVuSans-Bold-43" d="M 4288 256 
Q 3956 84 3597 -3 
Q 3238 -91 2847 -91 
Q 1681 -91 1000 561 
Q 319 1213 319 2328 
Q 319 3447 1000 4098 
Q 1681 4750 2847 4750 
Q 3238 4750 3597 4662 
Q 3956 4575 4288 4403 
L 4288 3438 
Q 3953 3666 3628 3772 
Q 3303 3878 2944 3878 
Q 2300 3878 1931 3465 
Q 1563 3053 1563 2328 
Q 1563 1606 1931 1193 
Q 2300 781 2944 781 
Q 3303 781 3628 887 
Q 3953 994 4288 1222 
L 4288 256 
z
" transform="scale(0.015625)"/>
      <path id="DejaVuSans-Bold-4e" d="M 588 4666 
L 1931 4666 
L 3628 1466 
L 3628 4666 
L 4769 4666 
L 4769 0 
L 3425 0 
L 1728 3200 
L 1728 0 
L 588 0 
L 588 4666 
z
" transform="scale(0.015625)"/>
      <path id="DejaVuSans-Bold-28" d="M 2413 -844 
L 1484 -844 
Q 1006 -72 778 623 
Q 550 1319 550 2003 
Q 550 2688 779 3389 
Q 1009 4091 1484 4856 
L 2413 4856 
Q 2013 4116 1813 3408 
Q 1613 2700 1613 2009 
Q 1613 1319 1811 609 
Q 2009 -100 2413 -844 
z
" transform="scale(0.015625)"/>
      <path id="DejaVuSans-Bold-68" d="M 4056 2131 
L 4056 0 
L 2931 0 
L 2931 347 
L 2931 1625 
Q 2931 2084 2911 2256 
Q 2891 2428 2841 2509 
Q 2775 2619 2662 2680 
Q 2550 2741 2406 2741 
Q 2056 2741 1856 2470 
Q 1656 2200 1656 1722 
L 1656 0 
L 538 0 
L 538 4863 
L 1656 4863 
L 1656 2988 
Q 1909 3294 2193 3439 
Q 2478 3584 2822 3584 
Q 3428 3584 3742 3212 
Q 4056 2841 4056 2131 
z
" transform="scale(0.015625)"/>
      <path id="DejaVuSans-Bold-70" d="M 1656 506 
L 1656 -1331 
L 538 -1331 
L 538 3500 
L 1656 3500 
L 1656 2988 
Q 1888 3294 2169 3439 
Q 2450 3584 2816 3584 
Q 3463 3584 3878 3070 
Q 4294 2556 4294 1747 
Q 4294 938 3878 423 
Q 3463 -91 2816 -91 
Q 2450 -91 2169 54 
Q 1888 200 1656 506 
z
M 2400 2772 
Q 2041 2772 1848 2508 
Q 1656 2244 1656 1747 
Q 1656 1250 1848 986 
Q 2041 722 2400 722 
Q 2759 722 2948 984 
Q 3138 1247 3138 1747 
Q 3138 2247 2948 2509 
Q 2759 2772 2400 2772 
z
" transform="scale(0.015625)"/>
      <path id="DejaVuSans-Bold-4d" d="M 588 4666 
L 2119 4666 
L 3181 2169 
L 4250 4666 
L 5778 4666 
L 5778 0 
L 4641 0 
L 4641 3413 
L 3566 897 
L 2803 897 
L 1728 3413 
L 1728 0 
L 588 0 
L 588 4666 
z
" transform="scale(0.015625)"/>
      <path id="DejaVuSans-Bold-69" d="M 538 3500 
L 1656 3500 
L 1656 0 
L 538 0 
L 538 3500 
z
M 538 4863 
L 1656 4863 
L 1656 3950 
L 538 3950 
L 538 4863 
z
" transform="scale(0.015625)"/>
      <path id="DejaVuSans-Bold-6d" d="M 3781 2919 
Q 3994 3244 4286 3414 
Q 4578 3584 4928 3584 
Q 5531 3584 5847 3212 
Q 6163 2841 6163 2131 
L 6163 0 
L 5038 0 
L 5038 1825 
Q 5041 1866 5042 1909 
Q 5044 1953 5044 2034 
Q 5044 2406 4934 2573 
Q 4825 2741 4581 2741 
Q 4263 2741 4089 2478 
Q 3916 2216 3909 1719 
L 3909 0 
L 2784 0 
L 2784 1825 
Q 2784 2406 2684 2573 
Q 2584 2741 2328 2741 
Q 2006 2741 1831 2477 
Q 1656 2213 1656 1722 
L 1656 0 
L 531 0 
L 531 3500 
L 1656 3500 
L 1656 2988 
Q 1863 3284 2130 3434 
Q 2397 3584 2719 3584 
Q 3081 3584 3359 3409 
Q 3638 3234 3781 2919 
z
" transform="scale(0.015625)"/>
      <path id="DejaVuSans-Bold-29" d="M 513 -844 
Q 913 -100 1113 609 
Q 1313 1319 1313 2009 
Q 1313 2700 1113 3408 
Q 913 4116 513 4856 
L 1441 4856 
Q 1916 4091 2145 3389 
Q 2375 2688 2375 2003 
Q 2375 1319 2147 623 
Q 1919 -72 1441 -844 
L 513 -844 
z
" transform="scale(0.015625)"/>
     </defs>
     <use xlink:href="#DejaVuSans-Bold-53"/>
     <use xlink:href="#DejaVuSans-Bold-74" transform="translate(72.021484 0)"/>
     <use xlink:href="#DejaVuSans-Bold-61" transform="translate(119.824219 0)"/>
     <use xlink:href="#DejaVuSans-Bold-6e" transform="translate(187.304688 0)"/>
     <use xlink:href="#DejaVuSans-Bold-64" transform="translate(258.496094 0)"/>
     <use xlink:href="#DejaVuSans-Bold-61" transform="translate(330.078125 0)"/>
     <use xlink:href="#DejaVuSans-Bold-72" transform="translate(397.558594 0)"/>
     <use xlink:href="#DejaVuSans-Bold-64" transform="translate(446.875 0)"/>
     <use xlink:href="#DejaVuSans-Bold-20" transform="translate(518.457031 0)"/>
     <use xlink:href="#DejaVuSans-Bold-43" transform="translate(553.271484 0)"/>
     <use xlink:href="#DejaVuSans-Bold-4e" transform="translate(626.660156 0)"/>
     <use xlink:href="#DejaVuSans-Bold-4e" transform="translate(710.351562 0)"/>
     <use xlink:href="#DejaVuSans-Bold-20" transform="translate(794.042969 0)"/>
     <use xlink:href="#DejaVuSans-Bold-28" transform="translate(828.857422 0)"/>
     <use xlink:href="#DejaVuSans-Bold-53" transform="translate(874.560547 0)"/>
     <use xlink:href="#DejaVuSans-Bold-68" transform="translate(946.582031 0)"/>
     <use xlink:href="#DejaVuSans-Bold-61" transform="translate(1017.773438 0)"/>
     <use xlink:href="#DejaVuSans-Bold-72" transform="translate(1085.253906 0)"/>
     <use xlink:href="#DejaVuSans-Bold-70" transform="translate(1134.570312 0)"/>
     <use xlink:href="#DejaVuSans-Bold-20" transform="translate(1206.152344 0)"/>
     <use xlink:href="#DejaVuSans-Bold-4d" transform="translate(1240.966797 0)"/>
     <use xlink:href="#DejaVuSans-Bold-69" transform="translate(1340.478516 0)"/>
     <use xlink:href="#DejaVuSans-Bold-6e" transform="translate(1374.755859 0)"/>
     <use xlink:href="#DejaVuSans-Bold-69" transform="translate(1445.947266 0)"/>
     <use xlink:href="#DejaVuSans-Bold-6d" transform="translate(1480.224609 0)"/>
     <use xlink:href="#DejaVuSans-Bold-61" transform="translate(1584.423828 0)"/>
     <use xlink:href="#DejaVuSans-Bold-29" transform="translate(1651.904297 0)"/>
    </g>
   </g>
  </g>
  <g id="axes_2">
   <g id="patch_9">
    <path d="M 401.336885 314.158281 
L 705.233125 314.158281 
L 705.233125 21.558281 
L 401.336885 21.558281 
z
" style="fill: #ffffff"/>
   </g>
   <g id="FillBetweenPolyCollection_2">
    <defs>
     <path id="ma505a2aeab" d="M 415.150351 -50.85625 
L 415.150351 -316.85625 
L 416.538639 -311.536384 
L 417.926927 -306.270255 
L 419.315215 -301.057861 
L 420.703503 -295.899203 
L 422.091791 -290.794282 
L 423.480079 -285.743096 
L 424.868367 -280.745647 
L 426.256655 -275.801933 
L 427.644943 -270.911956 
L 429.033231 -266.075714 
L 430.421519 -261.293209 
L 431.809807 -256.564439 
L 433.198095 -251.889406 
L 434.586383 -247.268108 
L 435.974671 -242.700547 
L 437.362959 -238.186721 
L 438.751246 -233.726632 
L 440.139534 -229.320279 
L 441.527822 -224.967661 
L 442.91611 -220.66878 
L 444.304398 -216.423635 
L 445.692686 -212.232225 
L 447.080974 -208.094552 
L 448.469262 -204.010615 
L 449.85755 -199.980414 
L 451.245838 -196.003948 
L 452.634126 -192.081219 
L 454.022414 -188.212226 
L 455.410702 -184.396969 
L 456.79899 -180.635447 
L 458.187278 -176.927662 
L 459.575566 -173.273613 
L 460.963854 -169.6733 
L 462.352142 -166.126723 
L 463.74043 -162.633882 
L 465.128718 -159.194777 
L 466.517006 -155.809408 
L 467.905294 -152.477775 
L 469.293582 -149.199878 
L 470.68187 -145.975717 
L 472.070158 -142.805292 
L 473.458446 -139.688603 
L 474.846734 -136.62565 
L 476.235022 -133.616433 
L 477.62331 -130.660952 
L 479.011598 -127.759207 
L 480.399886 -124.911198 
L 481.788174 -122.116925 
L 483.176462 -119.376388 
L 484.56475 -116.689588 
L 485.953038 -114.056523 
L 487.341326 -111.477194 
L 488.729614 -108.951601 
L 490.117902 -106.479744 
L 491.50619 -104.061624 
L 492.894478 -101.697239 
L 494.282766 -99.38659 
L 495.671054 -97.129677 
L 497.059342 -94.926501 
L 498.44763 -92.77706 
L 499.835918 -90.681355 
L 501.224206 -88.639387 
L 502.612494 -86.651154 
L 504.000782 -84.716658 
L 505.38907 -82.835897 
L 506.777358 -81.008872 
L 508.165646 -79.235584 
L 509.553934 -77.516031 
L 510.942222 -75.850215 
L 512.33051 -74.238134 
L 513.718798 -72.67979 
L 515.107086 -71.175181 
L 516.495374 -69.724309 
L 517.883662 -68.327172 
L 519.27195 -66.983772 
L 520.660238 -65.694108 
L 522.048526 -64.458179 
L 523.436814 -63.275987 
L 524.825101 -62.147531 
L 526.213389 -61.07281 
L 527.601677 -60.051826 
L 528.989965 -59.084578 
L 530.378253 -58.171065 
L 531.766541 -57.311289 
L 533.154829 -56.505249 
L 534.543117 -55.752945 
L 535.931405 -55.054376 
L 537.319693 -54.409544 
L 538.707981 -53.818448 
L 540.096269 -53.281088 
L 541.484557 -52.797464 
L 542.872845 -52.367575 
L 544.261133 -51.991423 
L 545.649421 -51.669007 
L 547.037709 -51.400327 
L 548.425997 -51.185383 
L 549.814285 -51.024175 
L 551.202573 -50.916703 
L 552.590861 -50.862967 
L 553.979149 -50.862967 
L 555.367437 -50.916703 
L 556.755725 -51.024175 
L 558.144013 -51.185383 
L 559.532301 -51.400327 
L 560.920589 -51.669007 
L 562.308877 -51.991423 
L 563.697165 -52.367575 
L 565.085453 -52.797464 
L 566.473741 -53.281088 
L 567.862029 -53.818448 
L 569.250317 -54.409544 
L 570.638605 -55.054376 
L 572.026893 -55.752945 
L 573.415181 -56.505249 
L 574.803469 -57.311289 
L 576.191757 -58.171065 
L 577.580045 -59.084578 
L 578.968333 -60.051826 
L 580.356621 -61.07281 
L 581.744909 -62.147531 
L 583.133197 -63.275987 
L 584.521485 -64.458179 
L 585.909773 -65.694108 
L 587.298061 -66.983772 
L 588.686349 -68.327172 
L 590.074637 -69.724309 
L 591.462925 -71.175181 
L 592.851213 -72.67979 
L 594.239501 -74.238134 
L 595.627789 -75.850215 
L 597.016077 -77.516031 
L 598.404365 -79.235584 
L 599.792653 -81.008872 
L 601.180941 -82.835897 
L 602.569229 -84.716658 
L 603.957517 -86.651154 
L 605.345805 -88.639387 
L 606.734093 -90.681355 
L 608.122381 -92.77706 
L 609.510669 -94.926501 
L 610.898956 -97.129677 
L 612.287244 -99.38659 
L 613.675532 -101.697239 
L 615.06382 -104.061624 
L 616.452108 -106.479744 
L 617.840396 -108.951601 
L 619.228684 -111.477194 
L 620.616972 -114.056523 
L 622.00526 -116.689588 
L 623.393548 -119.376388 
L 624.781836 -122.116925 
L 626.170124 -124.911198 
L 627.558412 -127.759207 
L 628.9467 -130.660952 
L 630.334988 -133.616433 
L 631.723276 -136.62565 
L 633.111564 -139.688603 
L 634.499852 -142.805292 
L 635.88814 -145.975717 
L 637.276428 -149.199878 
L 638.664716 -152.477775 
L 640.053004 -155.809408 
L 641.441292 -159.194777 
L 642.82958 -162.633882 
L 644.217868 -166.126723 
L 645.606156 -169.6733 
L 646.994444 -173.273613 
L 648.382732 -176.927662 
L 649.77102 -180.635447 
L 651.159308 -184.396969 
L 652.547596 -188.212226 
L 653.935884 -192.081219 
L 655.324172 -196.003948 
L 656.71246 -199.980414 
L 658.100748 -204.010615 
L 659.489036 -208.094552 
L 660.877324 -212.232225 
L 662.265612 -216.423635 
L 663.6539 -220.66878 
L 665.042188 -224.967661 
L 666.430476 -229.320279 
L 667.818764 -233.726632 
L 669.207052 -238.186721 
L 670.59534 -242.700547 
L 671.983628 -247.268108 
L 673.371916 -251.889406 
L 674.760204 -256.564439 
L 676.148492 -261.293209 
L 677.53678 -266.075714 
L 678.925068 -270.911956 
L 680.313356 -275.801933 
L 681.701644 -280.745647 
L 683.089932 -285.743096 
L 684.47822 -290.794282 
L 685.866508 -295.899203 
L 687.254796 -301.057861 
L 688.643084 -306.270255 
L 690.031372 -311.536384 
L 691.41966 -316.85625 
L 691.41966 -50.85625 
L 691.41966 -50.85625 
L 690.031372 -50.85625 
L 688.643084 -50.85625 
L 687.254796 -50.85625 
L 685.866508 -50.85625 
L 684.47822 -50.85625 
L 683.089932 -50.85625 
L 681.701644 -50.85625 
L 680.313356 -50.85625 
L 678.925068 -50.85625 
L 677.53678 -50.85625 
L 676.148492 -50.85625 
L 674.760204 -50.85625 
L 673.371916 -50.85625 
L 671.983628 -50.85625 
L 670.59534 -50.85625 
L 669.207052 -50.85625 
L 667.818764 -50.85625 
L 666.430476 -50.85625 
L 665.042188 -50.85625 
L 663.6539 -50.85625 
L 662.265612 -50.85625 
L 660.877324 -50.85625 
L 659.489036 -50.85625 
L 658.100748 -50.85625 
L 656.71246 -50.85625 
L 655.324172 -50.85625 
L 653.935884 -50.85625 
L 652.547596 -50.85625 
L 651.159308 -50.85625 
L 649.77102 -50.85625 
L 648.382732 -50.85625 
L 646.994444 -50.85625 
L 645.606156 -50.85625 
L 644.217868 -50.85625 
L 642.82958 -50.85625 
L 641.441292 -50.85625 
L 640.053004 -50.85625 
L 638.664716 -50.85625 
L 637.276428 -50.85625 
L 635.88814 -50.85625 
L 634.499852 -50.85625 
L 633.111564 -50.85625 
L 631.723276 -50.85625 
L 630.334988 -50.85625 
L 628.9467 -50.85625 
L 627.558412 -50.85625 
L 626.170124 -50.85625 
L 624.781836 -50.85625 
L 623.393548 -50.85625 
L 622.00526 -50.85625 
L 620.616972 -50.85625 
L 619.228684 -50.85625 
L 617.840396 -50.85625 
L 616.452108 -50.85625 
L 615.06382 -50.85625 
L 613.675532 -50.85625 
L 612.287244 -50.85625 
L 610.898956 -50.85625 
L 609.510669 -50.85625 
L 608.122381 -50.85625 
L 606.734093 -50.85625 
L 605.345805 -50.85625 
L 603.957517 -50.85625 
L 602.569229 -50.85625 
L 601.180941 -50.85625 
L 599.792653 -50.85625 
L 598.404365 -50.85625 
L 597.016077 -50.85625 
L 595.627789 -50.85625 
L 594.239501 -50.85625 
L 592.851213 -50.85625 
L 591.462925 -50.85625 
L 590.074637 -50.85625 
L 588.686349 -50.85625 
L 587.298061 -50.85625 
L 585.909773 -50.85625 
L 584.521485 -50.85625 
L 583.133197 -50.85625 
L 581.744909 -50.85625 
L 580.356621 -50.85625 
L 578.968333 -50.85625 
L 577.580045 -50.85625 
L 576.191757 -50.85625 
L 574.803469 -50.85625 
L 573.415181 -50.85625 
L 572.026893 -50.85625 
L 570.638605 -50.85625 
L 569.250317 -50.85625 
L 567.862029 -50.85625 
L 566.473741 -50.85625 
L 565.085453 -50.85625 
L 563.697165 -50.85625 
L 562.308877 -50.85625 
L 560.920589 -50.85625 
L 559.532301 -50.85625 
L 558.144013 -50.85625 
L 556.755725 -50.85625 
L 555.367437 -50.85625 
L 553.979149 -50.85625 
L 552.590861 -50.85625 
L 551.202573 -50.85625 
L 549.814285 -50.85625 
L 548.425997 -50.85625 
L 547.037709 -50.85625 
L 545.649421 -50.85625 
L 544.261133 -50.85625 
L 542.872845 -50.85625 
L 541.484557 -50.85625 
L 540.096269 -50.85625 
L 538.707981 -50.85625 
L 537.319693 -50.85625 
L 535.931405 -50.85625 
L 534.543117 -50.85625 
L 533.154829 -50.85625 
L 531.766541 -50.85625 
L 530.378253 -50.85625 
L 528.989965 -50.85625 
L 527.601677 -50.85625 
L 526.213389 -50.85625 
L 524.825101 -50.85625 
L 523.436814 -50.85625 
L 522.048526 -50.85625 
L 520.660238 -50.85625 
L 519.27195 -50.85625 
L 517.883662 -50.85625 
L 516.495374 -50.85625 
L 515.107086 -50.85625 
L 513.718798 -50.85625 
L 512.33051 -50.85625 
L 510.942222 -50.85625 
L 509.553934 -50.85625 
L 508.165646 -50.85625 
L 506.777358 -50.85625 
L 505.38907 -50.85625 
L 504.000782 -50.85625 
L 502.612494 -50.85625 
L 501.224206 -50.85625 
L 499.835918 -50.85625 
L 498.44763 -50.85625 
L 497.059342 -50.85625 
L 495.671054 -50.85625 
L 494.282766 -50.85625 
L 492.894478 -50.85625 
L 491.50619 -50.85625 
L 490.117902 -50.85625 
L 488.729614 -50.85625 
L 487.341326 -50.85625 
L 485.953038 -50.85625 
L 484.56475 -50.85625 
L 483.176462 -50.85625 
L 481.788174 -50.85625 
L 480.399886 -50.85625 
L 479.011598 -50.85625 
L 477.62331 -50.85625 
L 476.235022 -50.85625 
L 474.846734 -50.85625 
L 473.458446 -50.85625 
L 472.070158 -50.85625 
L 470.68187 -50.85625 
L 469.293582 -50.85625 
L 467.905294 -50.85625 
L 466.517006 -50.85625 
L 465.128718 -50.85625 
L 463.74043 -50.85625 
L 462.352142 -50.85625 
L 460.963854 -50.85625 
L 459.575566 -50.85625 
L 458.187278 -50.85625 
L 456.79899 -50.85625 
L 455.410702 -50.85625 
L 454.022414 -50.85625 
L 452.634126 -50.85625 
L 451.245838 -50.85625 
L 449.85755 -50.85625 
L 448.469262 -50.85625 
L 447.080974 -50.85625 
L 445.692686 -50.85625 
L 444.304398 -50.85625 
L 442.91611 -50.85625 
L 441.527822 -50.85625 
L 440.139534 -50.85625 
L 438.751246 -50.85625 
L 437.362959 -50.85625 
L 435.974671 -50.85625 
L 434.586383 -50.85625 
L 433.198095 -50.85625 
L 431.809807 -50.85625 
L 430.421519 -50.85625 
L 429.033231 -50.85625 
L 427.644943 -50.85625 
L 426.256655 -50.85625 
L 424.868367 -50.85625 
L 423.480079 -50.85625 
L 422.091791 -50.85625 
L 420.703503 -50.85625 
L 419.315215 -50.85625 
L 417.926927 -50.85625 
L 416.538639 -50.85625 
L 415.150351 -50.85625 
z
" style="stroke: #e8f5e9; stroke-opacity: 0.5"/>
    </defs>
    <g clip-path="url(#p2bbcdc0b73)">
     <use xlink:href="#ma505a2aeab" x="0" y="351.714531" style="fill: #e8f5e9; fill-opacity: 0.5; stroke: #e8f5e9; stroke-opacity: 0.5"/>
    </g>
   </g>
   <g id="patch_10">
    <path d="M 532.564807 314.158281 
L 574.005203 314.158281 
L 574.005203 21.558281 
L 532.564807 21.558281 
z
" clip-path="url(#p2bbcdc0b73)" style="fill: #b0bec5; opacity: 0.3; stroke: #b0bec5; stroke-linejoin: miter"/>
   </g>
   <g id="matplotlib.axis_3">
    <g id="xtick_10">
     <g id="line2d_17">
      <g>
       <use xlink:href="#m06eb60f55e" x="415.150351" y="314.158281" style="stroke: #000000; stroke-width: 0.8"/>
      </g>
     </g>
     <g id="text_20">
      <!-- −2.0 -->
      <g transform="translate(403.008945 328.756719) scale(0.1 -0.1)">
       <use xlink:href="#DejaVuSans-2212"/>
       <use xlink:href="#DejaVuSans-32" transform="translate(83.789062 0)"/>
       <use xlink:href="#DejaVuSans-2e" transform="translate(147.412109 0)"/>
       <use xlink:href="#DejaVuSans-30" transform="translate(179.199219 0)"/>
      </g>
     </g>
    </g>
    <g id="xtick_11">
     <g id="line2d_18">
      <g>
       <use xlink:href="#m06eb60f55e" x="449.684014" y="314.158281" style="stroke: #000000; stroke-width: 0.8"/>
      </g>
     </g>
     <g id="text_21">
      <!-- −1.5 -->
      <g transform="translate(437.542608 328.756719) scale(0.1 -0.1)">
       <use xlink:href="#DejaVuSans-2212"/>
       <use xlink:href="#DejaVuSans-31" transform="translate(83.789062 0)"/>
       <use xlink:href="#DejaVuSans-2e" transform="translate(147.412109 0)"/>
       <use xlink:href="#DejaVuSans-35" transform="translate(179.199219 0)"/>
      </g>
     </g>
    </g>
    <g id="xtick_12">
     <g id="line2d_19">
      <g>
       <use xlink:href="#m06eb60f55e" x="484.217678" y="314.158281" style="stroke: #000000; stroke-width: 0.8"/>
      </g>
     </g>
     <g id="text_22">
      <!-- −1.0 -->
      <g transform="translate(472.076272 328.756719) scale(0.1 -0.1)">
       <use xlink:href="#DejaVuSans-2212"/>
       <use xlink:href="#DejaVuSans-31" transform="translate(83.789062 0)"/>
       <use xlink:href="#DejaVuSans-2e" transform="translate(147.412109 0)"/>
       <use xlink:href="#DejaVuSans-30" transform="translate(179.199219 0)"/>
      </g>
     </g>
    </g>
    <g id="xtick_13">
     <g id="line2d_20">
      <g>
       <use xlink:href="#m06eb60f55e" x="518.751342" y="314.158281" style="stroke: #000000; stroke-width: 0.8"/>
      </g>
     </g>
     <g id="text_23">
      <!-- −0.5 -->
      <g transform="translate(506.609935 328.756719) scale(0.1 -0.1)">
       <use xlink:href="#DejaVuSans-2212"/>
       <use xlink:href="#DejaVuSans-30" transform="translate(83.789062 0)"/>
       <use xlink:href="#DejaVuSans-2e" transform="translate(147.412109 0)"/>
       <use xlink:href="#DejaVuSans-35" transform="translate(179.199219 0)"/>
      </g>
     </g>
    </g>
    <g id="xtick_14">
     <g id="line2d_21">
      <g>
       <use xlink:href="#m06eb60f55e" x="553.285005" y="314.158281" style="stroke: #000000; stroke-width: 0.8"/>
      </g>
     </g>
     <g id="text_24">
      <!-- 0.0 -->
      <g transform="translate(545.333443 328.756719) scale(0.1 -0.1)">
       <use xlink:href="#DejaVuSans-30"/>
       <use xlink:href="#DejaVuSans-2e" transform="translate(63.623047 0)"/>
       <use xlink:href="#DejaVuSans-30" transform="translate(95.410156 0)"/>
      </g>
     </g>
    </g>
    <g id="xtick_15">
     <g id="line2d_22">
      <g>
       <use xlink:href="#m06eb60f55e" x="587.818669" y="314.158281" style="stroke: #000000; stroke-width: 0.8"/>
      </g>
     </g>
     <g id="text_25">
      <!-- 0.5 -->
      <g transform="translate(579.867106 328.756719) scale(0.1 -0.1)">
       <use xlink:href="#DejaVuSans-30"/>
       <use xlink:href="#DejaVuSans-2e" transform="translate(63.623047 0)"/>
       <use xlink:href="#DejaVuSans-35" transform="translate(95.410156 0)"/>
      </g>
     </g>
    </g>
    <g id="xtick_16">
     <g id="line2d_23">
      <g>
       <use xlink:href="#m06eb60f55e" x="622.352332" y="314.158281" style="stroke: #000000; stroke-width: 0.8"/>
      </g>
     </g>
     <g id="text_26">
      <!-- 1.0 -->
      <g transform="translate(614.40077 328.756719) scale(0.1 -0.1)">
       <use xlink:href="#DejaVuSans-31"/>
       <use xlink:href="#DejaVuSans-2e" transform="translate(63.623047 0)"/>
       <use xlink:href="#DejaVuSans-30" transform="translate(95.410156 0)"/>
      </g>
     </g>
    </g>
    <g id="xtick_17">
     <g id="line2d_24">
      <g>
       <use xlink:href="#m06eb60f55e" x="656.885996" y="314.158281" style="stroke: #000000; stroke-width: 0.8"/>
      </g>
     </g>
     <g id="text_27">
      <!-- 1.5 -->
      <g transform="translate(648.934433 328.756719) scale(0.1 -0.1)">
       <use xlink:href="#DejaVuSans-31"/>
       <use xlink:href="#DejaVuSans-2e" transform="translate(63.623047 0)"/>
       <use xlink:href="#DejaVuSans-35" transform="translate(95.410156 0)"/>
      </g>
     </g>
    </g>
    <g id="xtick_18">
     <g id="line2d_25">
      <g>
       <use xlink:href="#m06eb60f55e" x="691.41966" y="314.158281" style="stroke: #000000; stroke-width: 0.8"/>
      </g>
     </g>
     <g id="text_28">
      <!-- 2.0 -->
      <g transform="translate(683.468097 328.756719) scale(0.1 -0.1)">
       <use xlink:href="#DejaVuSans-32"/>
       <use xlink:href="#DejaVuSans-2e" transform="translate(63.623047 0)"/>
       <use xlink:href="#DejaVuSans-30" transform="translate(95.410156 0)"/>
      </g>
     </g>
    </g>
    <g id="text_29">
     <!-- Perturbation Space -->
     <g transform="translate(505.492036 342.434844) scale(0.1 -0.1)">
      <use xlink:href="#DejaVuSans-50"/>
      <use xlink:href="#DejaVuSans-65" transform="translate(56.677734 0)"/>
      <use xlink:href="#DejaVuSans-72" transform="translate(118.201172 0)"/>
      <use xlink:href="#DejaVuSans-74" transform="translate(159.314453 0)"/>
      <use xlink:href="#DejaVuSans-75" transform="translate(198.523438 0)"/>
      <use xlink:href="#DejaVuSans-72" transform="translate(261.902344 0)"/>
      <use xlink:href="#DejaVuSans-62" transform="translate(303.015625 0)"/>
      <use xlink:href="#DejaVuSans-61" transform="translate(366.492188 0)"/>
      <use xlink:href="#DejaVuSans-74" transform="translate(427.771484 0)"/>
      <use xlink:href="#DejaVuSans-69" transform="translate(466.980469 0)"/>
      <use xlink:href="#DejaVuSans-6f" transform="translate(494.763672 0)"/>
      <use xlink:href="#DejaVuSans-6e" transform="translate(555.945312 0)"/>
      <use xlink:href="#DejaVuSans-20" transform="translate(619.324219 0)"/>
      <use xlink:href="#DejaVuSans-53" transform="translate(651.111328 0)"/>
      <use xlink:href="#DejaVuSans-70" transform="translate(714.587891 0)"/>
      <use xlink:href="#DejaVuSans-61" transform="translate(778.064453 0)"/>
      <use xlink:href="#DejaVuSans-63" transform="translate(839.34375 0)"/>
      <use xlink:href="#DejaVuSans-65" transform="translate(894.324219 0)"/>
     </g>
    </g>
   </g>
   <g id="matplotlib.axis_4">
    <g id="ytick_7">
     <g id="line2d_26">
      <g>
       <use xlink:href="#m16ba9ea18c" x="401.336885" y="300.858281" style="stroke: #000000; stroke-width: 0.8"/>
      </g>
     </g>
     <g id="text_30">
      <!-- 0.00 -->
      <g transform="translate(372.07126 304.6575) scale(0.1 -0.1)">
       <use xlink:href="#DejaVuSans-30"/>
       <use xlink:href="#DejaVuSans-2e" transform="translate(63.623047 0)"/>
       <use xlink:href="#DejaVuSans-30" transform="translate(95.410156 0)"/>
       <use xlink:href="#DejaVuSans-30" transform="translate(159.033203 0)"/>
      </g>
     </g>
    </g>
    <g id="ytick_8">
     <g id="line2d_27">
      <g>
       <use xlink:href="#m16ba9ea18c" x="401.336885" y="267.608281" style="stroke: #000000; stroke-width: 0.8"/>
      </g>
     </g>
     <g id="text_31">
      <!-- 0.25 -->
      <g transform="translate(372.07126 271.4075) scale(0.1 -0.1)">
       <use xlink:href="#DejaVuSans-30"/>
       <use xlink:href="#DejaVuSans-2e" transform="translate(63.623047 0)"/>
       <use xlink:href="#DejaVuSans-32" transform="translate(95.410156 0)"/>
       <use xlink:href="#DejaVuSans-35" transform="translate(159.033203 0)"/>
      </g>
     </g>
    </g>
    <g id="ytick_9">
     <g id="line2d_28">
      <g>
       <use xlink:href="#m16ba9ea18c" x="401.336885" y="234.358281" style="stroke: #000000; stroke-width: 0.8"/>
      </g>
     </g>
     <g id="text_32">
      <!-- 0.50 -->
      <g transform="translate(372.07126 238.1575) scale(0.1 -0.1)">
       <use xlink:href="#DejaVuSans-30"/>
       <use xlink:href="#DejaVuSans-2e" transform="translate(63.623047 0)"/>
       <use xlink:href="#DejaVuSans-35" transform="translate(95.410156 0)"/>
       <use xlink:href="#DejaVuSans-30" transform="translate(159.033203 0)"/>
      </g>
     </g>
    </g>
    <g id="ytick_10">
     <g id="line2d_29">
      <g>
       <use xlink:href="#m16ba9ea18c" x="401.336885" y="201.108281" style="stroke: #000000; stroke-width: 0.8"/>
      </g>
     </g>
     <g id="text_33">
      <!-- 0.75 -->
      <g transform="translate(372.07126 204.9075) scale(0.1 -0.1)">
       <defs>
        <path id="DejaVuSans-37" d="M 525 4666 
L 3525 4666 
L 3525 4397 
L 1831 0 
L 1172 0 
L 2766 4134 
L 525 4134 
L 525 4666 
z
" transform="scale(0.015625)"/>
       </defs>
       <use xlink:href="#DejaVuSans-30"/>
       <use xlink:href="#DejaVuSans-2e" transform="translate(63.623047 0)"/>
       <use xlink:href="#DejaVuSans-37" transform="translate(95.410156 0)"/>
       <use xlink:href="#DejaVuSans-35" transform="translate(159.033203 0)"/>
      </g>
     </g>
    </g>
    <g id="ytick_11">
     <g id="line2d_30">
      <g>
       <use xlink:href="#m16ba9ea18c" x="401.336885" y="167.858281" style="stroke: #000000; stroke-width: 0.8"/>
      </g>
     </g>
     <g id="text_34">
      <!-- 1.00 -->
      <g transform="translate(372.07126 171.6575) scale(0.1 -0.1)">
       <use xlink:href="#DejaVuSans-31"/>
       <use xlink:href="#DejaVuSans-2e" transform="translate(63.623047 0)"/>
       <use xlink:href="#DejaVuSans-30" transform="translate(95.410156 0)"/>
       <use xlink:href="#DejaVuSans-30" transform="translate(159.033203 0)"/>
      </g>
     </g>
    </g>
    <g id="ytick_12">
     <g id="line2d_31">
      <g>
       <use xlink:href="#m16ba9ea18c" x="401.336885" y="134.608281" style="stroke: #000000; stroke-width: 0.8"/>
      </g>
     </g>
     <g id="text_35">
      <!-- 1.25 -->
      <g transform="translate(372.07126 138.4075) scale(0.1 -0.1)">
       <use xlink:href="#DejaVuSans-31"/>
       <use xlink:href="#DejaVuSans-2e" transform="translate(63.623047 0)"/>
       <use xlink:href="#DejaVuSans-32" transform="translate(95.410156 0)"/>
       <use xlink:href="#DejaVuSans-35" transform="translate(159.033203 0)"/>
      </g>
     </g>
    </g>
    <g id="ytick_13">
     <g id="line2d_32">
      <g>
       <use xlink:href="#m16ba9ea18c" x="401.336885" y="101.358281" style="stroke: #000000; stroke-width: 0.8"/>
      </g>
     </g>
     <g id="text_36">
      <!-- 1.50 -->
      <g transform="translate(372.07126 105.1575) scale(0.1 -0.1)">
       <use xlink:href="#DejaVuSans-31"/>
       <use xlink:href="#DejaVuSans-2e" transform="translate(63.623047 0)"/>
       <use xlink:href="#DejaVuSans-35" transform="translate(95.410156 0)"/>
       <use xlink:href="#DejaVuSans-30" transform="translate(159.033203 0)"/>
      </g>
     </g>
    </g>
    <g id="ytick_14">
     <g id="line2d_33">
      <g>
       <use xlink:href="#m16ba9ea18c" x="401.336885" y="68.108281" style="stroke: #000000; stroke-width: 0.8"/>
      </g>
     </g>
     <g id="text_37">
      <!-- 1.75 -->
      <g transform="translate(372.07126 71.9075) scale(0.1 -0.1)">
       <use xlink:href="#DejaVuSans-31"/>
       <use xlink:href="#DejaVuSans-2e" transform="translate(63.623047 0)"/>
       <use xlink:href="#DejaVuSans-37" transform="translate(95.410156 0)"/>
       <use xlink:href="#DejaVuSans-35" transform="translate(159.033203 0)"/>
      </g>
     </g>
    </g>
    <g id="ytick_15">
     <g id="line2d_34">
      <g>
       <use xlink:href="#m16ba9ea18c" x="401.336885" y="34.858281" style="stroke: #000000; stroke-width: 0.8"/>
      </g>
     </g>
     <g id="text_38">
      <!-- 2.00 -->
      <g transform="translate(372.07126 38.6575) scale(0.1 -0.1)">
       <use xlink:href="#DejaVuSans-32"/>
       <use xlink:href="#DejaVuSans-2e" transform="translate(63.623047 0)"/>
       <use xlink:href="#DejaVuSans-30" transform="translate(95.410156 0)"/>
       <use xlink:href="#DejaVuSans-30" transform="translate(159.033203 0)"/>
      </g>
     </g>
    </g>
    <g id="text_39">
     <!-- Loss -->
     <g transform="translate(365.991573 178.825469) rotate(-90) scale(0.1 -0.1)">
      <use xlink:href="#DejaVuSans-4c"/>
      <use xlink:href="#DejaVuSans-6f" transform="translate(53.962891 0)"/>
      <use xlink:href="#DejaVuSans-73" transform="translate(115.144531 0)"/>
      <use xlink:href="#DejaVuSans-73" transform="translate(167.244141 0)"/>
     </g>
    </g>
   </g>
   <g id="line2d_35">
    <path d="M 415.150351 34.858281 
L 420.703503 55.815328 
L 426.256655 75.912598 
L 431.809807 95.150092 
L 437.362959 113.52781 
L 442.91611 131.045751 
L 448.469262 147.703916 
L 454.022414 163.502305 
L 459.575566 178.440918 
L 463.74043 189.080649 
L 467.905294 199.236757 
L 472.070158 208.90924 
L 476.235022 218.098098 
L 480.399886 226.803333 
L 484.56475 235.024944 
L 488.729614 242.76293 
L 492.894478 250.017292 
L 497.059342 256.78803 
L 501.224206 263.075144 
L 505.38907 268.878634 
L 509.553934 274.1985 
L 513.718798 279.034741 
L 517.883662 283.387359 
L 520.660238 286.020424 
L 523.436814 288.438544 
L 526.213389 290.641721 
L 528.989965 292.629954 
L 531.766541 294.403242 
L 534.543117 295.961587 
L 537.319693 297.304987 
L 540.096269 298.433443 
L 542.872845 299.346956 
L 545.649421 300.045524 
L 548.425997 300.529148 
L 551.202573 300.797828 
L 553.979149 300.851564 
L 556.755725 300.690356 
L 559.532301 300.314204 
L 562.308877 299.723108 
L 565.085453 298.917068 
L 567.862029 297.896083 
L 570.638605 296.660155 
L 573.415181 295.209282 
L 576.191757 293.543466 
L 578.968333 291.662705 
L 581.744909 289.567001 
L 584.521485 287.256352 
L 587.298061 284.730759 
L 590.074637 281.990222 
L 592.851213 279.034741 
L 597.016077 274.1985 
L 601.180941 268.878634 
L 605.345805 263.075144 
L 609.510669 256.78803 
L 613.675532 250.017292 
L 617.840396 242.76293 
L 622.00526 235.024944 
L 626.170124 226.803333 
L 630.334988 218.098098 
L 634.499852 208.90924 
L 638.664716 199.236757 
L 642.82958 189.080649 
L 646.994444 178.440918 
L 651.159308 167.317563 
L 656.71246 151.734118 
L 662.265612 135.290897 
L 667.818764 117.987899 
L 673.371916 99.825126 
L 678.925068 80.802576 
L 684.47822 60.920249 
L 690.031372 40.178147 
L 691.41966 34.858281 
L 691.41966 34.858281 
" clip-path="url(#p2bbcdc0b73)" style="fill: none; stroke: #388e3c; stroke-width: 2.5; stroke-linecap: square"/>
   </g>
   <g id="patch_11">
    <path d="M 401.336885 314.158281 
L 401.336885 21.558281 
" style="fill: none; stroke: #000000; stroke-width: 0.8; stroke-linejoin: miter; stroke-linecap: square"/>
   </g>
   <g id="patch_12">
    <path d="M 705.233125 314.158281 
L 705.233125 21.558281 
" style="fill: none; stroke: #000000; stroke-width: 0.8; stroke-linejoin: miter; stroke-linecap: square"/>
   </g>
   <g id="patch_13">
    <path d="M 401.336885 314.158281 
L 705.233125 314.158281 
" style="fill: none; stroke: #000000; stroke-width: 0.8; stroke-linejoin: miter; stroke-linecap: square"/>
   </g>
   <g id="patch_14">
    <path d="M 401.336885 21.558281 
L 705.233125 21.558281 
" style="fill: none; stroke: #000000; stroke-width: 0.8; stroke-linejoin: miter; stroke-linecap: square"/>
   </g>
   <g id="patch_15">
    <path d="M 605.722588 157.594869 
Q 591.485176 214.140557 577.247764 270.686245 
L 582.338866 271.968113 
Q 577.964761 277.05367 573.590656 282.139226 
Q 572.146359 275.588678 570.702062 269.038129 
L 575.793164 270.319997 
Q 590.030576 213.774309 604.267987 157.228621 
L 605.722588 157.594869 
z
" style="stroke: #000000; stroke-linecap: round"/>
   </g>
   <g id="text_40">
    <!-- Robust Basin -->
    <g transform="translate(608.538867 141.258281) scale(0.1 -0.1)">
     <defs>
      <path id="DejaVuSans-52" d="M 2841 2188 
Q 3044 2119 3236 1894 
Q 3428 1669 3622 1275 
L 4263 0 
L 3584 0 
L 2988 1197 
Q 2756 1666 2539 1819 
Q 2322 1972 1947 1972 
L 1259 1972 
L 1259 0 
L 628 0 
L 628 4666 
L 2053 4666 
Q 2853 4666 3247 4331 
Q 3641 3997 3641 3322 
Q 3641 2881 3436 2590 
Q 3231 2300 2841 2188 
z
M 1259 4147 
L 1259 2491 
L 2053 2491 
Q 2509 2491 2742 2702 
Q 2975 2913 2975 3322 
Q 2975 3731 2742 3939 
Q 2509 4147 2053 4147 
L 1259 4147 
z
" transform="scale(0.015625)"/>
      <path id="DejaVuSans-42" d="M 1259 2228 
L 1259 519 
L 2272 519 
Q 2781 519 3026 730 
Q 3272 941 3272 1375 
Q 3272 1813 3026 2020 
Q 2781 2228 2272 2228 
L 1259 2228 
z
M 1259 4147 
L 1259 2741 
L 2194 2741 
Q 2656 2741 2882 2914 
Q 3109 3088 3109 3444 
Q 3109 3797 2882 3972 
Q 2656 4147 2194 4147 
L 1259 4147 
z
M 628 4666 
L 2241 4666 
Q 2963 4666 3353 4366 
Q 3744 4066 3744 3513 
Q 3744 3084 3544 2831 
Q 3344 2578 2956 2516 
Q 3422 2416 3680 2098 
Q 3938 1781 3938 1306 
Q 3938 681 3513 340 
Q 3088 0 2303 0 
L 628 0 
L 628 4666 
z
" transform="scale(0.015625)"/>
     </defs>
     <use xlink:href="#DejaVuSans-52"/>
     <use xlink:href="#DejaVuSans-6f" transform="translate(64.982422 0)"/>
     <use xlink:href="#DejaVuSans-62" transform="translate(126.164062 0)"/>
     <use xlink:href="#DejaVuSans-75" transform="translate(189.640625 0)"/>
     <use xlink:href="#DejaVuSans-73" transform="translate(253.019531 0)"/>
     <use xlink:href="#DejaVuSans-74" transform="translate(305.119141 0)"/>
     <use xlink:href="#DejaVuSans-20" transform="translate(344.328125 0)"/>
     <use xlink:href="#DejaVuSans-42" transform="translate(376.115234 0)"/>
     <use xlink:href="#DejaVuSans-61" transform="translate(444.71875 0)"/>
     <use xlink:href="#DejaVuSans-73" transform="translate(505.998047 0)"/>
     <use xlink:href="#DejaVuSans-69" transform="translate(558.097656 0)"/>
     <use xlink:href="#DejaVuSans-6e" transform="translate(585.880859 0)"/>
    </g>
   </g>
   <g id="text_41">
    <!-- RHAN (Flat Minima / Wide Basin) -->
    <g transform="translate(451.795396 15.558281) scale(0.11 -0.11)">
     <defs>
      <path id="DejaVuSans-Bold-52" d="M 2297 2597 
Q 2675 2597 2839 2737 
Q 3003 2878 3003 3200 
Q 3003 3519 2839 3656 
Q 2675 3794 2297 3794 
L 1791 3794 
L 1791 2597 
L 2297 2597 
z
M 1791 1766 
L 1791 0 
L 588 0 
L 588 4666 
L 2425 4666 
Q 3347 4666 3776 4356 
Q 4206 4047 4206 3378 
Q 4206 2916 3982 2619 
Q 3759 2322 3309 2181 
Q 3556 2125 3751 1926 
Q 3947 1728 4147 1325 
L 4800 0 
L 3519 0 
L 2950 1159 
Q 2778 1509 2601 1637 
Q 2425 1766 2131 1766 
L 1791 1766 
z
" transform="scale(0.015625)"/>
      <path id="DejaVuSans-Bold-48" d="M 588 4666 
L 1791 4666 
L 1791 2888 
L 3566 2888 
L 3566 4666 
L 4769 4666 
L 4769 0 
L 3566 0 
L 3566 1978 
L 1791 1978 
L 1791 0 
L 588 0 
L 588 4666 
z
" transform="scale(0.015625)"/>
      <path id="DejaVuSans-Bold-41" d="M 3419 850 
L 1538 850 
L 1241 0 
L 31 0 
L 1759 4666 
L 3194 4666 
L 4922 0 
L 3713 0 
L 3419 850 
z
M 1838 1716 
L 3116 1716 
L 2478 3572 
L 1838 1716 
z
" transform="scale(0.015625)"/>
      <path id="DejaVuSans-Bold-46" d="M 588 4666 
L 3834 4666 
L 3834 3756 
L 1791 3756 
L 1791 2888 
L 3713 2888 
L 3713 1978 
L 1791 1978 
L 1791 0 
L 588 0 
L 588 4666 
z
" transform="scale(0.015625)"/>
      <path id="DejaVuSans-Bold-6c" d="M 538 4863 
L 1656 4863 
L 1656 0 
L 538 0 
L 538 4863 
z
" transform="scale(0.015625)"/>
      <path id="DejaVuSans-Bold-2f" d="M 1644 4666 
L 2338 4666 
L 691 -594 
L 0 -594 
L 1644 4666 
z
" transform="scale(0.015625)"/>
      <path id="DejaVuSans-Bold-57" d="M 191 4666 
L 1344 4666 
L 2150 1275 
L 2950 4666 
L 4109 4666 
L 4909 1275 
L 5716 4666 
L 6859 4666 
L 5759 0 
L 4372 0 
L 3525 3547 
L 2688 0 
L 1300 0 
L 191 4666 
z
" transform="scale(0.015625)"/>
      <path id="DejaVuSans-Bold-65" d="M 4031 1759 
L 4031 1441 
L 1416 1441 
Q 1456 1047 1700 850 
Q 1944 653 2381 653 
Q 2734 653 3104 758 
Q 3475 863 3866 1075 
L 3866 213 
Q 3469 63 3072 -14 
Q 2675 -91 2278 -91 
Q 1328 -91 801 392 
Q 275 875 275 1747 
Q 275 2603 792 3093 
Q 1309 3584 2216 3584 
Q 3041 3584 3536 3087 
Q 4031 2591 4031 1759 
z
M 2881 2131 
Q 2881 2450 2695 2645 
Q 2509 2841 2209 2841 
Q 1884 2841 1681 2658 
Q 1478 2475 1428 2131 
L 2881 2131 
z
" transform="scale(0.015625)"/>
      <path id="DejaVuSans-Bold-42" d="M 2456 2859 
Q 2741 2859 2887 2984 
Q 3034 3109 3034 3353 
Q 3034 3594 2887 3720 
Q 2741 3847 2456 3847 
L 1791 3847 
L 1791 2859 
L 2456 2859 
z
M 2497 819 
Q 2859 819 3042 972 
Q 3225 1125 3225 1434 
Q 3225 1738 3044 1889 
Q 2863 2041 2497 2041 
L 1791 2041 
L 1791 819 
L 2497 819 
z
M 3616 2497 
Q 4003 2384 4215 2081 
Q 4428 1778 4428 1338 
Q 4428 663 3972 331 
Q 3516 0 2584 0 
L 588 0 
L 588 4666 
L 2394 4666 
Q 3366 4666 3802 4372 
Q 4238 4078 4238 3431 
Q 4238 3091 4078 2852 
Q 3919 2613 3616 2497 
z
" transform="scale(0.015625)"/>
      <path id="DejaVuSans-Bold-73" d="M 3272 3391 
L 3272 2541 
Q 2913 2691 2578 2766 
Q 2244 2841 1947 2841 
Q 1628 2841 1473 2761 
Q 1319 2681 1319 2516 
Q 1319 2381 1436 2309 
Q 1553 2238 1856 2203 
L 2053 2175 
Q 2913 2066 3209 1816 
Q 3506 1566 3506 1031 
Q 3506 472 3093 190 
Q 2681 -91 1863 -91 
Q 1516 -91 1145 -36 
Q 775 19 384 128 
L 384 978 
Q 719 816 1070 734 
Q 1422 653 1784 653 
Q 2113 653 2278 743 
Q 2444 834 2444 1013 
Q 2444 1163 2330 1236 
Q 2216 1309 1875 1350 
L 1678 1375 
Q 931 1469 631 1722 
Q 331 1975 331 2491 
Q 331 3047 712 3315 
Q 1094 3584 1881 3584 
Q 2191 3584 2531 3537 
Q 2872 3491 3272 3391 
z
" transform="scale(0.015625)"/>
     </defs>
     <use xlink:href="#DejaVuSans-Bold-52"/>
     <use xlink:href="#DejaVuSans-Bold-48" transform="translate(77.001953 0)"/>
     <use xlink:href="#DejaVuSans-Bold-41" transform="translate(160.693359 0)"/>
     <use xlink:href="#DejaVuSans-Bold-4e" transform="translate(238.085938 0)"/>
     <use xlink:href="#DejaVuSans-Bold-20" transform="translate(321.777344 0)"/>
     <use xlink:href="#DejaVuSans-Bold-28" transform="translate(356.591797 0)"/>
     <use xlink:href="#DejaVuSans-Bold-46" transform="translate(402.294922 0)"/>
     <use xlink:href="#DejaVuSans-Bold-6c" transform="translate(470.605469 0)"/>
     <use xlink:href="#DejaVuSans-Bold-61" transform="translate(504.882812 0)"/>
     <use xlink:href="#DejaVuSans-Bold-74" transform="translate(572.363281 0)"/>
     <use xlink:href="#DejaVuSans-Bold-20" transform="translate(620.166016 0)"/>
     <use xlink:href="#DejaVuSans-Bold-4d" transform="translate(654.980469 0)"/>
     <use xlink:href="#DejaVuSans-Bold-69" transform="translate(754.492188 0)"/>
     <use xlink:href="#DejaVuSans-Bold-6e" transform="translate(788.769531 0)"/>
     <use xlink:href="#DejaVuSans-Bold-69" transform="translate(859.960938 0)"/>
     <use xlink:href="#DejaVuSans-Bold-6d" transform="translate(894.238281 0)"/>
     <use xlink:href="#DejaVuSans-Bold-61" transform="translate(998.4375 0)"/>
     <use xlink:href="#DejaVuSans-Bold-20" transform="translate(1065.917969 0)"/>
     <use xlink:href="#DejaVuSans-Bold-2f" transform="translate(1100.732422 0)"/>
     <use xlink:href="#DejaVuSans-Bold-20" transform="translate(1137.255859 0)"/>
     <use xlink:href="#DejaVuSans-Bold-57" transform="translate(1172.070312 0)"/>
     <use xlink:href="#DejaVuSans-Bold-69" transform="translate(1282.373047 0)"/>
     <use xlink:href="#DejaVuSans-Bold-64" transform="translate(1316.650391 0)"/>
     <use xlink:href="#DejaVuSans-Bold-65" transform="translate(1388.232422 0)"/>
     <use xlink:href="#DejaVuSans-Bold-20" transform="translate(1456.054688 0)"/>
     <use xlink:href="#DejaVuSans-Bold-42" transform="translate(1490.869141 0)"/>
     <use xlink:href="#DejaVuSans-Bold-61" transform="translate(1567.089844 0)"/>
     <use xlink:href="#DejaVuSans-Bold-73" transform="translate(1634.570312 0)"/>
     <use xlink:href="#DejaVuSans-Bold-69" transform="translate(1694.091797 0)"/>
     <use xlink:href="#DejaVuSans-Bold-6e" transform="translate(1728.369141 0)"/>
     <use xlink:href="#DejaVuSans-Bold-29" transform="translate(1799.560547 0)"/>
    </g>
   </g>
  </g>
 </g>
 <defs>
  <clipPath id="pd7c061c53f">
   <rect x="40.603125" y="21.558281" width="303.89624" height="292.6"/>
  </clipPath>
  <clipPath id="p2bbcdc0b73">
   <rect x="401.336885" y="21.558281" width="303.89624" height="292.6"/>
  </clipPath>
 </defs>
</svg>
