<?xml version="1.0" encoding="utf-8" standalone="no"?>
<!DOCTYPE svg PUBLIC "-//W3C//DTD SVG 1.1//EN"
  "http://www.w3.org/Graphics/SVG/1.1/DTD/svg11.dtd">
<svg xmlns:xlink="http://www.w3.org/1999/xlink" width="784.8pt" height="497.52pt" viewBox="0 0 784.8 497.52" xmlns="http://www.w3.org/2000/svg" version="1.1">
 <metadata>
  <rdf:RDF xmlns:dc="http://purl.org/dc/elements/1.1/" xmlns:cc="http://creativecommons.org/ns#" xmlns:rdf="http://www.w3.org/1999/02/22-rdf-syntax-ns#">
   <cc:Work>
    <dc:type rdf:resource="http://purl.org/dc/dcmitype/StillImage"/>
    <dc:date>2026-07-05T19:10:29.420227</dc:date>
    <dc:format>image/svg+xml</dc:format>
    <dc:creator>
     <cc:Agent>
      <dc:title>Matplotlib v3.10.9, https://matplotlib.org/</dc:title>
     </cc:Agent>
    </dc:creator>
   </cc:Work>
  </rdf:RDF>
 </metadata>
 <defs>
  <style type="text/css">*{stroke-linejoin: round; stroke-linecap: butt}</style>
 </defs>
 <g id="figure_1">
  <g id="patch_1">
   <path d="M 0 497.52 
L 784.8 497.52 
L 784.8 0 
L 0 0 
z
" style="fill: #ffffff"/>
  </g>
  <g id="axes_1">
   <g id="patch_2">
    <path d="M 99.648 156.763636 
L 253.728 156.763636 
L 253.728 123.408 
L 99.648 123.408 
z
" clip-path="url(#p0d8790a64f)" style="fill: #bbdefb; stroke: #455a64; stroke-linejoin: miter"/>
   </g>
   <g id="patch_3">
    <path d="M 99.648 123.408 
L 253.728 123.408 
L 267.071719 115.069091 
L 112.991719 115.069091 
z
" clip-path="url(#p0d8790a64f)" style="fill: #d7ffff; stroke: #455a64; stroke-linejoin: miter"/>
   </g>
   <g id="patch_4">
    <path d="M 253.728 156.763636 
L 267.071719 148.424727 
L 267.071719 115.069091 
L 253.728 123.408 
z
" clip-path="url(#p0d8790a64f)" style="fill: #9fbdd5; stroke: #455a64; stroke-linejoin: miter"/>
   </g>
   <g id="patch_5">
    <path d="M 115.056 223.474909 
L 238.32 223.474909 
L 238.32 190.119273 
L 115.056 190.119273 
z
" clip-path="url(#p0d8790a64f)" style="fill: #c8e6c9; stroke: #455a64; stroke-linejoin: miter"/>
   </g>
   <g id="patch_6">
    <path d="M 115.056 190.119273 
L 238.32 190.119273 
L 251.663719 181.780364 
L 128.399719 181.780364 
z
" clip-path="url(#p0d8790a64f)" style="fill: #e6ffe7; stroke: #455a64; stroke-linejoin: miter"/>
   </g>
   <g id="patch_7">
    <path d="M 238.32 223.474909 
L 251.663719 215.136 
L 251.663719 181.780364 
L 238.32 190.119273 
z
" clip-path="url(#p0d8790a64f)" style="fill: #aac3ab; stroke: #455a64; stroke-linejoin: miter"/>
   </g>
   <g id="patch_8">
    <path d="M 130.464 290.186182 
L 222.912 290.186182 
L 222.912 256.830545 
L 130.464 256.830545 
z
" clip-path="url(#p0d8790a64f)" style="fill: #ffe0b2; stroke: #455a64; stroke-linejoin: miter"/>
   </g>
   <g id="patch_9">
    <path d="M 130.464 256.830545 
L 222.912 256.830545 
L 236.255719 248.491636 
L 143.807719 248.491636 
z
" clip-path="url(#p0d8790a64f)" style="fill: #ffffcd; stroke: #455a64; stroke-linejoin: miter"/>
   </g>
   <g id="patch_10">
    <path d="M 222.912 290.186182 
L 236.255719 281.847273 
L 236.255719 248.491636 
L 222.912 256.830545 
z
" clip-path="url(#p0d8790a64f)" style="fill: #d9be97; stroke: #455a64; stroke-linejoin: miter"/>
   </g>
   <g id="patch_11">
    <path d="M 61.128 365.236364 
L 168.984 365.236364 
L 168.984 331.880727 
L 61.128 331.880727 
z
" clip-path="url(#p0d8790a64f)" style="fill: #fff0f5; stroke: #455a64; stroke-linejoin: miter"/>
   </g>
   <g id="patch_12">
    <path d="M 61.128 331.880727 
L 168.984 331.880727 
L 182.327719 323.541818 
L 74.471719 323.541818 
z
" clip-path="url(#p0d8790a64f)" style="fill: #ffffff; stroke: #455a64; stroke-linejoin: miter"/>
   </g>
   <g id="patch_13">
    <path d="M 168.984 365.236364 
L 182.327719 356.897455 
L 182.327719 323.541818 
L 168.984 331.880727 
z
" clip-path="url(#p0d8790a64f)" style="fill: #d9ccd0; stroke: #455a64; stroke-linejoin: miter"/>
   </g>
   <g id="patch_14">
    <path d="M 184.392 365.236364 
L 292.248 365.236364 
L 292.248 331.880727 
L 184.392 331.880727 
z
" clip-path="url(#p0d8790a64f)" style="fill: #e0ffff; stroke: #455a64; stroke-linejoin: miter"/>
   </g>
   <g id="patch_15">
    <path d="M 184.392 331.880727 
L 292.248 331.880727 
L 305.591719 323.541818 
L 197.735719 323.541818 
z
" clip-path="url(#p0d8790a64f)" style="fill: #ffffff; stroke: #455a64; stroke-linejoin: miter"/>
   </g>
   <g id="patch_16">
    <path d="M 292.248 365.236364 
L 305.591719 356.897455 
L 305.591719 323.541818 
L 292.248 331.880727 
z
" clip-path="url(#p0d8790a64f)" style="fill: #bed9d9; stroke: #455a64; stroke-linejoin: miter"/>
   </g>
   <g id="patch_17">
    <path d="M 130.464 440.286545 
L 222.912 440.286545 
L 222.912 406.930909 
L 130.464 406.930909 
z
" clip-path="url(#p0d8790a64f)" style="fill: #d1c4e9; stroke: #455a64; stroke-linejoin: miter"/>
   </g>
   <g id="patch_18">
    <path d="M 130.464 406.930909 
L 222.912 406.930909 
L 236.255719 398.592 
L 143.807719 398.592 
z
" clip-path="url(#p0d8790a64f)" style="fill: #f0e1ff; stroke: #455a64; stroke-linejoin: miter"/>
   </g>
   <g id="patch_19">
    <path d="M 222.912 440.286545 
L 236.255719 431.947636 
L 236.255719 398.592 
L 222.912 406.930909 
z
" clip-path="url(#p0d8790a64f)" style="fill: #b2a7c6; stroke: #455a64; stroke-linejoin: miter"/>
   </g>
   <g id="patch_20">
    <path d="M 130.464 490.32 
L 222.912 490.32 
L 222.912 456.964364 
L 130.464 456.964364 
z
" clip-path="url(#p0d8790a64f)" style="fill: #cfd8dc; stroke: #455a64; stroke-linejoin: miter"/>
   </g>
   <g id="patch_21">
    <path d="M 130.464 456.964364 
L 222.912 456.964364 
L 236.255719 448.625455 
L 143.807719 448.625455 
z
" clip-path="url(#p0d8790a64f)" style="fill: #eef8fd; stroke: #455a64; stroke-linejoin: miter"/>
   </g>
   <g id="patch_22">
    <path d="M 222.912 490.32 
L 236.255719 481.981091 
L 236.255719 448.625455 
L 222.912 456.964364 
z
" clip-path="url(#p0d8790a64f)" style="fill: #b0b8bb; stroke: #455a64; stroke-linejoin: miter"/>
   </g>
   <g id="patch_23">
    <path d="M 531.072 156.763636 
L 685.152 156.763636 
L 685.152 123.408 
L 531.072 123.408 
z
" clip-path="url(#p0d8790a64f)" style="fill: #bbdefb; stroke: #455a64; stroke-linejoin: miter"/>
   </g>
   <g id="patch_24">
    <path d="M 531.072 123.408 
L 685.152 123.408 
L 698.495719 115.069091 
L 544.415719 115.069091 
z
" clip-path="url(#p0d8790a64f)" style="fill: #d7ffff; stroke: #455a64; stroke-linejoin: miter"/>
   </g>
   <g id="patch_25">
    <path d="M 685.152 156.763636 
L 698.495719 148.424727 
L 698.495719 115.069091 
L 685.152 123.408 
z
" clip-path="url(#p0d8790a64f)" style="fill: #9fbdd5; stroke: #455a64; stroke-linejoin: miter"/>
   </g>
   <g id="patch_26">
    <path d="M 546.48 223.474909 
L 669.744 223.474909 
L 669.744 190.119273 
L 546.48 190.119273 
z
" clip-path="url(#p0d8790a64f)" style="fill: #c8e6c9; stroke: #455a64; stroke-linejoin: miter"/>
   </g>
   <g id="patch_27">
    <path d="M 546.48 190.119273 
L 669.744 190.119273 
L 683.087719 181.780364 
L 559.823719 181.780364 
z
" clip-path="url(#p0d8790a64f)" style="fill: #e6ffe7; stroke: #455a64; stroke-linejoin: miter"/>
   </g>
   <g id="patch_28">
    <path d="M 669.744 223.474909 
L 683.087719 215.136 
L 683.087719 181.780364 
L 669.744 190.119273 
z
" clip-path="url(#p0d8790a64f)" style="fill: #aac3ab; stroke: #455a64; stroke-linejoin: miter"/>
   </g>
   <g id="patch_29">
    <path d="M 561.888 290.186182 
L 654.336 290.186182 
L 654.336 256.830545 
L 561.888 256.830545 
z
" clip-path="url(#p0d8790a64f)" style="fill: #ffe0b2; stroke: #455a64; stroke-linejoin: miter"/>
   </g>
   <g id="patch_30">
    <path d="M 561.888 256.830545 
L 654.336 256.830545 
L 667.679719 248.491636 
L 575.231719 248.491636 
z
" clip-path="url(#p0d8790a64f)" style="fill: #ffffcd; stroke: #455a64; stroke-linejoin: miter"/>
   </g>
   <g id="patch_31">
    <path d="M 654.336 290.186182 
L 667.679719 281.847273 
L 667.679719 248.491636 
L 654.336 256.830545 
z
" clip-path="url(#p0d8790a64f)" style="fill: #d9be97; stroke: #455a64; stroke-linejoin: miter"/>
   </g>
   <g id="patch_32">
    <path d="M 492.552 365.236364 
L 600.408 365.236364 
L 600.408 331.880727 
L 492.552 331.880727 
z
" clip-path="url(#p0d8790a64f)" style="fill: #fff0f5; stroke: #455a64; stroke-linejoin: miter"/>
   </g>
   <g id="patch_33">
    <path d="M 492.552 331.880727 
L 600.408 331.880727 
L 613.751719 323.541818 
L 505.895719 323.541818 
z
" clip-path="url(#p0d8790a64f)" style="fill: #ffffff; stroke: #455a64; stroke-linejoin: miter"/>
   </g>
   <g id="patch_34">
    <path d="M 600.408 365.236364 
L 613.751719 356.897455 
L 613.751719 323.541818 
L 600.408 331.880727 
z
" clip-path="url(#p0d8790a64f)" style="fill: #d9ccd0; stroke: #455a64; stroke-linejoin: miter"/>
   </g>
   <g id="patch_35">
    <path d="M 615.816 365.236364 
L 723.672 365.236364 
L 723.672 331.880727 
L 615.816 331.880727 
z
" clip-path="url(#p0d8790a64f)" style="fill: #e0ffff; stroke: #455a64; stroke-linejoin: miter"/>
   </g>
   <g id="patch_36">
    <path d="M 615.816 331.880727 
L 723.672 331.880727 
L 737.015719 323.541818 
L 629.159719 323.541818 
z
" clip-path="url(#p0d8790a64f)" style="fill: #ffffff; stroke: #455a64; stroke-linejoin: miter"/>
   </g>
   <g id="patch_37">
    <path d="M 723.672 365.236364 
L 737.015719 356.897455 
L 737.015719 323.541818 
L 723.672 331.880727 
z
" clip-path="url(#p0d8790a64f)" style="fill: #bed9d9; stroke: #455a64; stroke-linejoin: miter"/>
   </g>
   <g id="patch_38">
    <path d="M 561.888 440.286545 
L 654.336 440.286545 
L 654.336 406.930909 
L 561.888 406.930909 
z
" clip-path="url(#p0d8790a64f)" style="fill: #d1c4e9; stroke: #455a64; stroke-linejoin: miter"/>
   </g>
   <g id="patch_39">
    <path d="M 561.888 406.930909 
L 654.336 406.930909 
L 667.679719 398.592 
L 575.231719 398.592 
z
" clip-path="url(#p0d8790a64f)" style="fill: #f0e1ff; stroke: #455a64; stroke-linejoin: miter"/>
   </g>
   <g id="patch_40">
    <path d="M 654.336 440.286545 
L 667.679719 431.947636 
L 667.679719 398.592 
L 654.336 406.930909 
z
" clip-path="url(#p0d8790a64f)" style="fill: #b2a7c6; stroke: #455a64; stroke-linejoin: miter"/>
   </g>
   <g id="patch_41">
    <path d="M 561.888 490.32 
L 654.336 490.32 
L 654.336 456.964364 
L 561.888 456.964364 
z
" clip-path="url(#p0d8790a64f)" style="fill: #cfd8dc; stroke: #455a64; stroke-linejoin: miter"/>
   </g>
   <g id="patch_42">
    <path d="M 561.888 456.964364 
L 654.336 456.964364 
L 667.679719 448.625455 
L 575.231719 448.625455 
z
" clip-path="url(#p0d8790a64f)" style="fill: #eef8fd; stroke: #455a64; stroke-linejoin: miter"/>
   </g>
   <g id="patch_43">
    <path d="M 654.336 490.32 
L 667.679719 481.981091 
L 667.679719 448.625455 
L 654.336 456.964364 
z
" clip-path="url(#p0d8790a64f)" style="fill: #b0b8bb; stroke: #455a64; stroke-linejoin: miter"/>
   </g>
   <g id="line2d_1">
    <path d="M 276.84 140.085818 
L 507.96 140.085818 
" clip-path="url(#p0d8790a64f)" style="fill: none; stroke-dasharray: 1.2,1.98; stroke-dashoffset: 0; stroke: #78909c; stroke-width: 1.2"/>
   </g>
   <g id="line2d_2">
    <path d="M 276.84 206.797091 
L 507.96 206.797091 
" clip-path="url(#p0d8790a64f)" style="fill: none; stroke-dasharray: 1.2,1.98; stroke-dashoffset: 0; stroke: #78909c; stroke-width: 1.2"/>
   </g>
   <g id="line2d_3">
    <path d="M 276.84 273.508364 
L 507.96 273.508364 
" clip-path="url(#p0d8790a64f)" style="fill: none; stroke-dasharray: 1.2,1.98; stroke-dashoffset: 0; stroke: #78909c; stroke-width: 1.2"/>
   </g>
   <g id="line2d_4">
    <path d="M 276.84 348.558545 
L 507.96 348.558545 
" clip-path="url(#p0d8790a64f)" style="fill: none; stroke-dasharray: 1.2,1.98; stroke-dashoffset: 0; stroke: #78909c; stroke-width: 1.2"/>
   </g>
   <g id="line2d_5">
    <path d="M 276.84 423.608727 
L 507.96 423.608727 
" clip-path="url(#p0d8790a64f)" style="fill: none; stroke-dasharray: 1.2,1.98; stroke-dashoffset: 0; stroke: #78909c; stroke-width: 1.2"/>
   </g>
   <g id="line2d_6">
    <path d="M 276.84 473.642182 
L 507.96 473.642182 
" clip-path="url(#p0d8790a64f)" style="fill: none; stroke-dasharray: 1.2,1.98; stroke-dashoffset: 0; stroke: #78909c; stroke-width: 1.2"/>
   </g>
   <g id="text_1">
    <!-- Human Visual System -->
    <g style="fill: #1f77b4" transform="translate(109.240812 70.165124) scale(0.11 -0.11)">
     <defs>
      <path id="DejaVuSans-Bold-48" d="M 588 4666 
L 1791 4666 
L 1791 2888 
L 3566 2888 
L 3566 4666 
L 4769 4666 
L 4769 0 
L 3566 0 
L 3566 1978 
L 1791 1978 
L 1791 0 
L 588 0 
L 588 4666 
z
" transform="scale(0.015625)"/>
      <path id="DejaVuSans-Bold-75" d="M 500 1363 
L 500 3500 
L 1625 3500 
L 1625 3150 
Q 1625 2866 1622 2436 
Q 1619 2006 1619 1863 
Q 1619 1441 1641 1255 
Q 1663 1069 1716 984 
Q 1784 875 1895 815 
Q 2006 756 2150 756 
Q 2500 756 2700 1025 
Q 2900 1294 2900 1772 
L 2900 3500 
L 4019 3500 
L 4019 0 
L 2900 0 
L 2900 506 
Q 2647 200 2364 54 
Q 2081 -91 1741 -91 
Q 1134 -91 817 281 
Q 500 653 500 1363 
z
" transform="scale(0.015625)"/>
      <path id="DejaVuSans-Bold-6d" d="M 3781 2919 
Q 3994 3244 4286 3414 
Q 4578 3584 4928 3584 
Q 5531 3584 5847 3212 
Q 6163 2841 6163 2131 
L 6163 0 
L 5038 0 
L 5038 1825 
Q 5041 1866 5042 1909 
Q 5044 1953 5044 2034 
Q 5044 2406 4934 2573 
Q 4825 2741 4581 2741 
Q 4263 2741 4089 2478 
Q 3916 2216 3909 1719 
L 3909 0 
L 2784 0 
L 2784 1825 
Q 2784 2406 2684 2573 
Q 2584 2741 2328 2741 
Q 2006 2741 1831 2477 
Q 1656 2213 1656 1722 
L 1656 0 
L 531 0 
L 531 3500 
L 1656 3500 
L 1656 2988 
Q 1863 3284 2130 3434 
Q 2397 3584 2719 3584 
Q 3081 3584 3359 3409 
Q 3638 3234 3781 2919 
z
" transform="scale(0.015625)"/>
      <path id="DejaVuSans-Bold-61" d="M 2106 1575 
Q 1756 1575 1579 1456 
Q 1403 1338 1403 1106 
Q 1403 894 1545 773 
Q 1688 653 1941 653 
Q 2256 653 2472 879 
Q 2688 1106 2688 1447 
L 2688 1575 
L 2106 1575 
z
M 3816 1997 
L 3816 0 
L 2688 0 
L 2688 519 
Q 2463 200 2181 54 
Q 1900 -91 1497 -91 
Q 953 -91 614 226 
Q 275 544 275 1050 
Q 275 1666 698 1953 
Q 1122 2241 2028 2241 
L 2688 2241 
L 2688 2328 
Q 2688 2594 2478 2717 
Q 2269 2841 1825 2841 
Q 1466 2841 1156 2769 
Q 847 2697 581 2553 
L 581 3406 
Q 941 3494 1303 3539 
Q 1666 3584 2028 3584 
Q 2975 3584 3395 3211 
Q 3816 2838 3816 1997 
z
" transform="scale(0.015625)"/>
      <path id="DejaVuSans-Bold-6e" d="M 4056 2131 
L 4056 0 
L 2931 0 
L 2931 347 
L 2931 1631 
Q 2931 2084 2911 2256 
Q 2891 2428 2841 2509 
Q 2775 2619 2662 2680 
Q 2550 2741 2406 2741 
Q 2056 2741 1856 2470 
Q 1656 2200 1656 1722 
L 1656 0 
L 538 0 
L 538 3500 
L 1656 3500 
L 1656 2988 
Q 1909 3294 2193 3439 
Q 2478 3584 2822 3584 
Q 3428 3584 3742 3212 
Q 4056 2841 4056 2131 
z
" transform="scale(0.015625)"/>
      <path id="DejaVuSans-Bold-20" transform="scale(0.015625)"/>
      <path id="DejaVuSans-Bold-56" d="M 31 4666 
L 1241 4666 
L 2478 1222 
L 3713 4666 
L 4922 4666 
L 3194 0 
L 1759 0 
L 31 4666 
z
" transform="scale(0.015625)"/>
      <path id="DejaVuSans-Bold-69" d="M 538 3500 
L 1656 3500 
L 1656 0 
L 538 0 
L 538 3500 
z
M 538 4863 
L 1656 4863 
L 1656 3950 
L 538 3950 
L 538 4863 
z
" transform="scale(0.015625)"/>
      <path id="DejaVuSans-Bold-73" d="M 3272 3391 
L 3272 2541 
Q 2913 2691 2578 2766 
Q 2244 2841 1947 2841 
Q 1628 2841 1473 2761 
Q 1319 2681 1319 2516 
Q 1319 2381 1436 2309 
Q 1553 2238 1856 2203 
L 2053 2175 
Q 2913 2066 3209 1816 
Q 3506 1566 3506 1031 
Q 3506 472 3093 190 
Q 2681 -91 1863 -91 
Q 1516 -91 1145 -36 
Q 775 19 384 128 
L 384 978 
Q 719 816 1070 734 
Q 1422 653 1784 653 
Q 2113 653 2278 743 
Q 2444 834 2444 1013 
Q 2444 1163 2330 1236 
Q 2216 1309 1875 1350 
L 1678 1375 
Q 931 1469 631 1722 
Q 331 1975 331 2491 
Q 331 3047 712 3315 
Q 1094 3584 1881 3584 
Q 2191 3584 2531 3537 
Q 2872 3491 3272 3391 
z
" transform="scale(0.015625)"/>
      <path id="DejaVuSans-Bold-6c" d="M 538 4863 
L 1656 4863 
L 1656 0 
L 538 0 
L 538 4863 
z
" transform="scale(0.015625)"/>
      <path id="DejaVuSans-Bold-53" d="M 3834 4519 
L 3834 3531 
Q 3450 3703 3084 3790 
Q 2719 3878 2394 3878 
Q 1963 3878 1756 3759 
Q 1550 3641 1550 3391 
Q 1550 3203 1689 3098 
Q 1828 2994 2194 2919 
L 2706 2816 
Q 3484 2659 3812 2340 
Q 4141 2022 4141 1434 
Q 4141 663 3683 286 
Q 3225 -91 2284 -91 
Q 1841 -91 1394 -6 
Q 947 78 500 244 
L 500 1259 
Q 947 1022 1364 901 
Q 1781 781 2169 781 
Q 2563 781 2772 912 
Q 2981 1044 2981 1288 
Q 2981 1506 2839 1625 
Q 2697 1744 2272 1838 
L 1806 1941 
Q 1106 2091 782 2419 
Q 459 2747 459 3303 
Q 459 4000 909 4375 
Q 1359 4750 2203 4750 
Q 2588 4750 2994 4692 
Q 3400 4634 3834 4519 
z
" transform="scale(0.015625)"/>
      <path id="DejaVuSans-Bold-79" d="M 78 3500 
L 1197 3500 
L 2138 1125 
L 2938 3500 
L 4056 3500 
L 2584 -331 
Q 2363 -916 2067 -1148 
Q 1772 -1381 1288 -1381 
L 641 -1381 
L 641 -647 
L 991 -647 
Q 1275 -647 1404 -556 
Q 1534 -466 1606 -231 
L 1638 -134 
L 78 3500 
z
" transform="scale(0.015625)"/>
      <path id="DejaVuSans-Bold-74" d="M 1759 4494 
L 1759 3500 
L 2913 3500 
L 2913 2700 
L 1759 2700 
L 1759 1216 
Q 1759 972 1856 886 
Q 1953 800 2241 800 
L 2816 800 
L 2816 0 
L 1856 0 
Q 1194 0 917 276 
Q 641 553 641 1216 
L 641 2700 
L 84 2700 
L 84 3500 
L 641 3500 
L 641 4494 
L 1759 4494 
z
" transform="scale(0.015625)"/>
      <path id="DejaVuSans-Bold-65" d="M 4031 1759 
L 4031 1441 
L 1416 1441 
Q 1456 1047 1700 850 
Q 1944 653 2381 653 
Q 2734 653 3104 758 
Q 3475 863 3866 1075 
L 3866 213 
Q 3469 63 3072 -14 
Q 2675 -91 2278 -91 
Q 1328 -91 801 392 
Q 275 875 275 1747 
Q 275 2603 792 3093 
Q 1309 3584 2216 3584 
Q 3041 3584 3536 3087 
Q 4031 2591 4031 1759 
z
M 2881 2131 
Q 2881 2450 2695 2645 
Q 2509 2841 2209 2841 
Q 1884 2841 1681 2658 
Q 1478 2475 1428 2131 
L 2881 2131 
z
" transform="scale(0.015625)"/>
     </defs>
     <use xlink:href="#DejaVuSans-Bold-48"/>
     <use xlink:href="#DejaVuSans-Bold-75" transform="translate(83.691406 0)"/>
     <use xlink:href="#DejaVuSans-Bold-6d" transform="translate(154.882812 0)"/>
     <use xlink:href="#DejaVuSans-Bold-61" transform="translate(259.082031 0)"/>
     <use xlink:href="#DejaVuSans-Bold-6e" transform="translate(326.5625 0)"/>
     <use xlink:href="#DejaVuSans-Bold-20" transform="translate(397.753906 0)"/>
     <use xlink:href="#DejaVuSans-Bold-56" transform="translate(432.568359 0)"/>
     <use xlink:href="#DejaVuSans-Bold-69" transform="translate(508.210938 0)"/>
     <use xlink:href="#DejaVuSans-Bold-73" transform="translate(542.488281 0)"/>
     <use xlink:href="#DejaVuSans-Bold-75" transform="translate(602.009766 0)"/>
     <use xlink:href="#DejaVuSans-Bold-61" transform="translate(673.201172 0)"/>
     <use xlink:href="#DejaVuSans-Bold-6c" transform="translate(740.681641 0)"/>
     <use xlink:href="#DejaVuSans-Bold-20" transform="translate(774.958984 0)"/>
     <use xlink:href="#DejaVuSans-Bold-53" transform="translate(809.773438 0)"/>
     <use xlink:href="#DejaVuSans-Bold-79" transform="translate(881.794922 0)"/>
     <use xlink:href="#DejaVuSans-Bold-73" transform="translate(946.980469 0)"/>
     <use xlink:href="#DejaVuSans-Bold-74" transform="translate(1006.501953 0)"/>
     <use xlink:href="#DejaVuSans-Bold-65" transform="translate(1054.304688 0)"/>
     <use xlink:href="#DejaVuSans-Bold-6d" transform="translate(1122.126953 0)"/>
    </g>
    <!-- (Biological Pathway) -->
    <g style="fill: #1f77b4" transform="translate(113.196516 82.568655) scale(0.11 -0.11)">
     <defs>
      <path id="DejaVuSans-Bold-28" d="M 2413 -844 
L 1484 -844 
Q 1006 -72 778 623 
Q 550 1319 550 2003 
Q 550 2688 779 3389 
Q 1009 4091 1484 4856 
L 2413 4856 
Q 2013 4116 1813 3408 
Q 1613 2700 1613 2009 
Q 1613 1319 1811 609 
Q 2009 -100 2413 -844 
z
" transform="scale(0.015625)"/>
      <path id="DejaVuSans-Bold-42" d="M 2456 2859 
Q 2741 2859 2887 2984 
Q 3034 3109 3034 3353 
Q 3034 3594 2887 3720 
Q 2741 3847 2456 3847 
L 1791 3847 
L 1791 2859 
L 2456 2859 
z
M 2497 819 
Q 2859 819 3042 972 
Q 3225 1125 3225 1434 
Q 3225 1738 3044 1889 
Q 2863 2041 2497 2041 
L 1791 2041 
L 1791 819 
L 2497 819 
z
M 3616 2497 
Q 4003 2384 4215 2081 
Q 4428 1778 4428 1338 
Q 4428 663 3972 331 
Q 3516 0 2584 0 
L 588 0 
L 588 4666 
L 2394 4666 
Q 3366 4666 3802 4372 
Q 4238 4078 4238 3431 
Q 4238 3091 4078 2852 
Q 3919 2613 3616 2497 
z
" transform="scale(0.015625)"/>
      <path id="DejaVuSans-Bold-6f" d="M 2203 2784 
Q 1831 2784 1636 2517 
Q 1441 2250 1441 1747 
Q 1441 1244 1636 976 
Q 1831 709 2203 709 
Q 2569 709 2762 976 
Q 2956 1244 2956 1747 
Q 2956 2250 2762 2517 
Q 2569 2784 2203 2784 
z
M 2203 3584 
Q 3106 3584 3614 3096 
Q 4122 2609 4122 1747 
Q 4122 884 3614 396 
Q 3106 -91 2203 -91 
Q 1297 -91 786 396 
Q 275 884 275 1747 
Q 275 2609 786 3096 
Q 1297 3584 2203 3584 
z
" transform="scale(0.015625)"/>
      <path id="DejaVuSans-Bold-67" d="M 2919 594 
Q 2688 288 2409 144 
Q 2131 0 1766 0 
Q 1125 0 706 504 
Q 288 1009 288 1791 
Q 288 2575 706 3076 
Q 1125 3578 1766 3578 
Q 2131 3578 2409 3434 
Q 2688 3291 2919 2981 
L 2919 3500 
L 4044 3500 
L 4044 353 
Q 4044 -491 3511 -936 
Q 2978 -1381 1966 -1381 
Q 1638 -1381 1331 -1331 
Q 1025 -1281 716 -1178 
L 716 -306 
Q 1009 -475 1290 -558 
Q 1572 -641 1856 -641 
Q 2406 -641 2662 -400 
Q 2919 -159 2919 353 
L 2919 594 
z
M 2181 2772 
Q 1834 2772 1640 2515 
Q 1447 2259 1447 1791 
Q 1447 1309 1634 1061 
Q 1822 813 2181 813 
Q 2531 813 2725 1069 
Q 2919 1325 2919 1791 
Q 2919 2259 2725 2515 
Q 2531 2772 2181 2772 
z
" transform="scale(0.015625)"/>
      <path id="DejaVuSans-Bold-63" d="M 3366 3391 
L 3366 2478 
Q 3138 2634 2908 2709 
Q 2678 2784 2431 2784 
Q 1963 2784 1702 2511 
Q 1441 2238 1441 1747 
Q 1441 1256 1702 982 
Q 1963 709 2431 709 
Q 2694 709 2930 787 
Q 3166 866 3366 1019 
L 3366 103 
Q 3103 6 2833 -42 
Q 2563 -91 2291 -91 
Q 1344 -91 809 395 
Q 275 881 275 1747 
Q 275 2613 809 3098 
Q 1344 3584 2291 3584 
Q 2566 3584 2833 3536 
Q 3100 3488 3366 3391 
z
" transform="scale(0.015625)"/>
      <path id="DejaVuSans-Bold-50" d="M 588 4666 
L 2584 4666 
Q 3475 4666 3951 4270 
Q 4428 3875 4428 3144 
Q 4428 2409 3951 2014 
Q 3475 1619 2584 1619 
L 1791 1619 
L 1791 0 
L 588 0 
L 588 4666 
z
M 1791 3794 
L 1791 2491 
L 2456 2491 
Q 2806 2491 2997 2661 
Q 3188 2831 3188 3144 
Q 3188 3456 2997 3625 
Q 2806 3794 2456 3794 
L 1791 3794 
z
" transform="scale(0.015625)"/>
      <path id="DejaVuSans-Bold-68" d="M 4056 2131 
L 4056 0 
L 2931 0 
L 2931 347 
L 2931 1625 
Q 2931 2084 2911 2256 
Q 2891 2428 2841 2509 
Q 2775 2619 2662 2680 
Q 2550 2741 2406 2741 
Q 2056 2741 1856 2470 
Q 1656 2200 1656 1722 
L 1656 0 
L 538 0 
L 538 4863 
L 1656 4863 
L 1656 2988 
Q 1909 3294 2193 3439 
Q 2478 3584 2822 3584 
Q 3428 3584 3742 3212 
Q 4056 2841 4056 2131 
z
" transform="scale(0.015625)"/>
      <path id="DejaVuSans-Bold-77" d="M 225 3500 
L 1313 3500 
L 1900 1088 
L 2491 3500 
L 3425 3500 
L 4013 1113 
L 4603 3500 
L 5691 3500 
L 4769 0 
L 3547 0 
L 2956 2406 
L 2369 0 
L 1147 0 
L 225 3500 
z
" transform="scale(0.015625)"/>
      <path id="DejaVuSans-Bold-29" d="M 513 -844 
Q 913 -100 1113 609 
Q 1313 1319 1313 2009 
Q 1313 2700 1113 3408 
Q 913 4116 513 4856 
L 1441 4856 
Q 1916 4091 2145 3389 
Q 2375 2688 2375 2003 
Q 2375 1319 2147 623 
Q 1919 -72 1441 -844 
L 513 -844 
z
" transform="scale(0.015625)"/>
     </defs>
     <use xlink:href="#DejaVuSans-Bold-28"/>
     <use xlink:href="#DejaVuSans-Bold-42" transform="translate(45.703125 0)"/>
     <use xlink:href="#DejaVuSans-Bold-69" transform="translate(121.923828 0)"/>
     <use xlink:href="#DejaVuSans-Bold-6f" transform="translate(156.201172 0)"/>
     <use xlink:href="#DejaVuSans-Bold-6c" transform="translate(224.902344 0)"/>
     <use xlink:href="#DejaVuSans-Bold-6f" transform="translate(259.179688 0)"/>
     <use xlink:href="#DejaVuSans-Bold-67" transform="translate(327.880859 0)"/>
     <use xlink:href="#DejaVuSans-Bold-69" transform="translate(399.462891 0)"/>
     <use xlink:href="#DejaVuSans-Bold-63" transform="translate(433.740234 0)"/>
     <use xlink:href="#DejaVuSans-Bold-61" transform="translate(493.017578 0)"/>
     <use xlink:href="#DejaVuSans-Bold-6c" transform="translate(560.498047 0)"/>
     <use xlink:href="#DejaVuSans-Bold-20" transform="translate(594.775391 0)"/>
     <use xlink:href="#DejaVuSans-Bold-50" transform="translate(629.589844 0)"/>
     <use xlink:href="#DejaVuSans-Bold-61" transform="translate(700.255859 0)"/>
     <use xlink:href="#DejaVuSans-Bold-74" transform="translate(767.736328 0)"/>
     <use xlink:href="#DejaVuSans-Bold-68" transform="translate(815.539062 0)"/>
     <use xlink:href="#DejaVuSans-Bold-77" transform="translate(886.730469 0)"/>
     <use xlink:href="#DejaVuSans-Bold-61" transform="translate(979.113281 0)"/>
     <use xlink:href="#DejaVuSans-Bold-79" transform="translate(1043.46875 0)"/>
     <use xlink:href="#DejaVuSans-Bold-29" transform="translate(1108.654297 0)"/>
    </g>
   </g>
   <g id="text_2">
    <!-- RHAN Model Architecture -->
    <g style="fill: #1f77b4" transform="translate(529.144031 70.208092) scale(0.11 -0.11)">
     <defs>
      <path id="DejaVuSans-Bold-52" d="M 2297 2597 
Q 2675 2597 2839 2737 
Q 3003 2878 3003 3200 
Q 3003 3519 2839 3656 
Q 2675 3794 2297 3794 
L 1791 3794 
L 1791 2597 
L 2297 2597 
z
M 1791 1766 
L 1791 0 
L 588 0 
L 588 4666 
L 2425 4666 
Q 3347 4666 3776 4356 
Q 4206 4047 4206 3378 
Q 4206 2916 3982 2619 
Q 3759 2322 3309 2181 
Q 3556 2125 3751 1926 
Q 3947 1728 4147 1325 
L 4800 0 
L 3519 0 
L 2950 1159 
Q 2778 1509 2601 1637 
Q 2425 1766 2131 1766 
L 1791 1766 
z
" transform="scale(0.015625)"/>
      <path id="DejaVuSans-Bold-41" d="M 3419 850 
L 1538 850 
L 1241 0 
L 31 0 
L 1759 4666 
L 3194 4666 
L 4922 0 
L 3713 0 
L 3419 850 
z
M 1838 1716 
L 3116 1716 
L 2478 3572 
L 1838 1716 
z
" transform="scale(0.015625)"/>
      <path id="DejaVuSans-Bold-4e" d="M 588 4666 
L 1931 4666 
L 3628 1466 
L 3628 4666 
L 4769 4666 
L 4769 0 
L 3425 0 
L 1728 3200 
L 1728 0 
L 588 0 
L 588 4666 
z
" transform="scale(0.015625)"/>
      <path id="DejaVuSans-Bold-4d" d="M 588 4666 
L 2119 4666 
L 3181 2169 
L 4250 4666 
L 5778 4666 
L 5778 0 
L 4641 0 
L 4641 3413 
L 3566 897 
L 2803 897 
L 1728 3413 
L 1728 0 
L 588 0 
L 588 4666 
z
" transform="scale(0.015625)"/>
      <path id="DejaVuSans-Bold-64" d="M 2919 2988 
L 2919 4863 
L 4044 4863 
L 4044 0 
L 2919 0 
L 2919 506 
Q 2688 197 2409 53 
Q 2131 -91 1766 -91 
Q 1119 -91 703 423 
Q 288 938 288 1747 
Q 288 2556 703 3070 
Q 1119 3584 1766 3584 
Q 2128 3584 2408 3439 
Q 2688 3294 2919 2988 
z
M 2181 722 
Q 2541 722 2730 984 
Q 2919 1247 2919 1747 
Q 2919 2247 2730 2509 
Q 2541 2772 2181 2772 
Q 1825 2772 1636 2509 
Q 1447 2247 1447 1747 
Q 1447 1247 1636 984 
Q 1825 722 2181 722 
z
" transform="scale(0.015625)"/>
      <path id="DejaVuSans-Bold-72" d="M 3138 2547 
Q 2991 2616 2845 2648 
Q 2700 2681 2553 2681 
Q 2122 2681 1889 2404 
Q 1656 2128 1656 1613 
L 1656 0 
L 538 0 
L 538 3500 
L 1656 3500 
L 1656 2925 
Q 1872 3269 2151 3426 
Q 2431 3584 2822 3584 
Q 2878 3584 2943 3579 
Q 3009 3575 3134 3559 
L 3138 2547 
z
" transform="scale(0.015625)"/>
     </defs>
     <use xlink:href="#DejaVuSans-Bold-52"/>
     <use xlink:href="#DejaVuSans-Bold-48" transform="translate(77.001953 0)"/>
     <use xlink:href="#DejaVuSans-Bold-41" transform="translate(160.693359 0)"/>
     <use xlink:href="#DejaVuSans-Bold-4e" transform="translate(238.085938 0)"/>
     <use xlink:href="#DejaVuSans-Bold-20" transform="translate(321.777344 0)"/>
     <use xlink:href="#DejaVuSans-Bold-4d" transform="translate(356.591797 0)"/>
     <use xlink:href="#DejaVuSans-Bold-6f" transform="translate(456.103516 0)"/>
     <use xlink:href="#DejaVuSans-Bold-64" transform="translate(524.804688 0)"/>
     <use xlink:href="#DejaVuSans-Bold-65" transform="translate(596.386719 0)"/>
     <use xlink:href="#DejaVuSans-Bold-6c" transform="translate(664.208984 0)"/>
     <use xlink:href="#DejaVuSans-Bold-20" transform="translate(698.486328 0)"/>
     <use xlink:href="#DejaVuSans-Bold-41" transform="translate(733.300781 0)"/>
     <use xlink:href="#DejaVuSans-Bold-72" transform="translate(810.693359 0)"/>
     <use xlink:href="#DejaVuSans-Bold-63" transform="translate(860.009766 0)"/>
     <use xlink:href="#DejaVuSans-Bold-68" transform="translate(919.287109 0)"/>
     <use xlink:href="#DejaVuSans-Bold-69" transform="translate(990.478516 0)"/>
     <use xlink:href="#DejaVuSans-Bold-74" transform="translate(1024.755859 0)"/>
     <use xlink:href="#DejaVuSans-Bold-65" transform="translate(1072.558594 0)"/>
     <use xlink:href="#DejaVuSans-Bold-63" transform="translate(1140.380859 0)"/>
     <use xlink:href="#DejaVuSans-Bold-74" transform="translate(1199.658203 0)"/>
     <use xlink:href="#DejaVuSans-Bold-75" transform="translate(1247.460938 0)"/>
     <use xlink:href="#DejaVuSans-Bold-72" transform="translate(1318.652344 0)"/>
     <use xlink:href="#DejaVuSans-Bold-65" transform="translate(1367.96875 0)"/>
    </g>
    <!-- (Computational Pathway) -->
    <g style="fill: #1f77b4" transform="translate(529.276375 82.525686) scale(0.11 -0.11)">
     <defs>
      <path id="DejaVuSans-Bold-43" d="M 4288 256 
Q 3956 84 3597 -3 
Q 3238 -91 2847 -91 
Q 1681 -91 1000 561 
Q 319 1213 319 2328 
Q 319 3447 1000 4098 
Q 1681 4750 2847 4750 
Q 3238 4750 3597 4662 
Q 3956 4575 4288 4403 
L 4288 3438 
Q 3953 3666 3628 3772 
Q 3303 3878 2944 3878 
Q 2300 3878 1931 3465 
Q 1563 3053 1563 2328 
Q 1563 1606 1931 1193 
Q 2300 781 2944 781 
Q 3303 781 3628 887 
Q 3953 994 4288 1222 
L 4288 256 
z
" transform="scale(0.015625)"/>
      <path id="DejaVuSans-Bold-70" d="M 1656 506 
L 1656 -1331 
L 538 -1331 
L 538 3500 
L 1656 3500 
L 1656 2988 
Q 1888 3294 2169 3439 
Q 2450 3584 2816 3584 
Q 3463 3584 3878 3070 
Q 4294 2556 4294 1747 
Q 4294 938 3878 423 
Q 3463 -91 2816 -91 
Q 2450 -91 2169 54 
Q 1888 200 1656 506 
z
M 2400 2772 
Q 2041 2772 1848 2508 
Q 1656 2244 1656 1747 
Q 1656 1250 1848 986 
Q 2041 722 2400 722 
Q 2759 722 2948 984 
Q 3138 1247 3138 1747 
Q 3138 2247 2948 2509 
Q 2759 2772 2400 2772 
z
" transform="scale(0.015625)"/>
     </defs>
     <use xlink:href="#DejaVuSans-Bold-28"/>
     <use xlink:href="#DejaVuSans-Bold-43" transform="translate(45.703125 0)"/>
     <use xlink:href="#DejaVuSans-Bold-6f" transform="translate(119.091797 0)"/>
     <use xlink:href="#DejaVuSans-Bold-6d" transform="translate(187.792969 0)"/>
     <use xlink:href="#DejaVuSans-Bold-70" transform="translate(291.992188 0)"/>
     <use xlink:href="#DejaVuSans-Bold-75" transform="translate(363.574219 0)"/>
     <use xlink:href="#DejaVuSans-Bold-74" transform="translate(434.765625 0)"/>
     <use xlink:href="#DejaVuSans-Bold-61" transform="translate(482.568359 0)"/>
     <use xlink:href="#DejaVuSans-Bold-74" transform="translate(550.048828 0)"/>
     <use xlink:href="#DejaVuSans-Bold-69" transform="translate(597.851562 0)"/>
     <use xlink:href="#DejaVuSans-Bold-6f" transform="translate(632.128906 0)"/>
     <use xlink:href="#DejaVuSans-Bold-6e" transform="translate(700.830078 0)"/>
     <use xlink:href="#DejaVuSans-Bold-61" transform="translate(772.021484 0)"/>
     <use xlink:href="#DejaVuSans-Bold-6c" transform="translate(839.501953 0)"/>
     <use xlink:href="#DejaVuSans-Bold-20" transform="translate(873.779297 0)"/>
     <use xlink:href="#DejaVuSans-Bold-50" transform="translate(908.59375 0)"/>
     <use xlink:href="#DejaVuSans-Bold-61" transform="translate(979.259766 0)"/>
     <use xlink:href="#DejaVuSans-Bold-74" transform="translate(1046.740234 0)"/>
     <use xlink:href="#DejaVuSans-Bold-68" transform="translate(1094.542969 0)"/>
     <use xlink:href="#DejaVuSans-Bold-77" transform="translate(1165.734375 0)"/>
     <use xlink:href="#DejaVuSans-Bold-61" transform="translate(1258.117188 0)"/>
     <use xlink:href="#DejaVuSans-Bold-79" transform="translate(1322.472656 0)"/>
     <use xlink:href="#DejaVuSans-Bold-29" transform="translate(1387.658203 0)"/>
    </g>
   </g>
   <g id="text_3">
    <!-- Retina / Eye -->
    <g style="fill: #111111" transform="translate(156.43736 138.092614) scale(0.08 -0.08)">
     <defs>
      <path id="DejaVuSans-Bold-2f" d="M 1644 4666 
L 2338 4666 
L 691 -594 
L 0 -594 
L 1644 4666 
z
" transform="scale(0.015625)"/>
      <path id="DejaVuSans-Bold-45" d="M 588 4666 
L 3834 4666 
L 3834 3756 
L 1791 3756 
L 1791 2888 
L 3713 2888 
L 3713 1978 
L 1791 1978 
L 1791 909 
L 3903 909 
L 3903 0 
L 588 0 
L 588 4666 
z
" transform="scale(0.015625)"/>
     </defs>
     <use xlink:href="#DejaVuSans-Bold-52"/>
     <use xlink:href="#DejaVuSans-Bold-65" transform="translate(77.001953 0)"/>
     <use xlink:href="#DejaVuSans-Bold-74" transform="translate(144.824219 0)"/>
     <use xlink:href="#DejaVuSans-Bold-69" transform="translate(192.626953 0)"/>
     <use xlink:href="#DejaVuSans-Bold-6e" transform="translate(226.904297 0)"/>
     <use xlink:href="#DejaVuSans-Bold-61" transform="translate(298.095703 0)"/>
     <use xlink:href="#DejaVuSans-Bold-20" transform="translate(365.576172 0)"/>
     <use xlink:href="#DejaVuSans-Bold-2f" transform="translate(400.390625 0)"/>
     <use xlink:href="#DejaVuSans-Bold-20" transform="translate(436.914062 0)"/>
     <use xlink:href="#DejaVuSans-Bold-45" transform="translate(471.728516 0)"/>
     <use xlink:href="#DejaVuSans-Bold-79" transform="translate(540.039062 0)"/>
     <use xlink:href="#DejaVuSans-Bold-65" transform="translate(605.224609 0)"/>
    </g>
   </g>
   <g id="text_4">
    <!-- LGN -->
    <g style="fill: #111111" transform="translate(174.180485 204.835136) scale(0.08 -0.08)">
     <defs>
      <path id="DejaVuSans-Bold-4c" d="M 588 4666 
L 1791 4666 
L 1791 909 
L 3903 909 
L 3903 0 
L 588 0 
L 588 4666 
z
" transform="scale(0.015625)"/>
      <path id="DejaVuSans-Bold-47" d="M 4781 347 
Q 4331 128 3847 18 
Q 3363 -91 2847 -91 
Q 1681 -91 1000 561 
Q 319 1213 319 2328 
Q 319 3456 1012 4103 
Q 1706 4750 2913 4750 
Q 3378 4750 3804 4662 
Q 4231 4575 4609 4403 
L 4609 3438 
Q 4219 3659 3833 3768 
Q 3447 3878 3059 3878 
Q 2341 3878 1952 3476 
Q 1563 3075 1563 2328 
Q 1563 1588 1938 1184 
Q 2313 781 3003 781 
Q 3191 781 3352 804 
Q 3513 828 3641 878 
L 3641 1784 
L 2906 1784 
L 2906 2591 
L 4781 2591 
L 4781 347 
z
" transform="scale(0.015625)"/>
     </defs>
     <use xlink:href="#DejaVuSans-Bold-4c"/>
     <use xlink:href="#DejaVuSans-Bold-47" transform="translate(63.720703 0)"/>
     <use xlink:href="#DejaVuSans-Bold-4e" transform="translate(145.800781 0)"/>
    </g>
   </g>
   <g id="text_5">
    <!-- Primary Visual V1 -->
    <g style="fill: #111111" transform="translate(143.27736 271.515159) scale(0.08 -0.08)">
     <defs>
      <path id="DejaVuSans-Bold-31" d="M 750 831 
L 1813 831 
L 1813 3847 
L 722 3622 
L 722 4441 
L 1806 4666 
L 2950 4666 
L 2950 831 
L 4013 831 
L 4013 0 
L 750 0 
L 750 831 
z
" transform="scale(0.015625)"/>
     </defs>
     <use xlink:href="#DejaVuSans-Bold-50"/>
     <use xlink:href="#DejaVuSans-Bold-72" transform="translate(73.291016 0)"/>
     <use xlink:href="#DejaVuSans-Bold-69" transform="translate(122.607422 0)"/>
     <use xlink:href="#DejaVuSans-Bold-6d" transform="translate(156.884766 0)"/>
     <use xlink:href="#DejaVuSans-Bold-61" transform="translate(261.083984 0)"/>
     <use xlink:href="#DejaVuSans-Bold-72" transform="translate(328.564453 0)"/>
     <use xlink:href="#DejaVuSans-Bold-79" transform="translate(377.880859 0)"/>
     <use xlink:href="#DejaVuSans-Bold-20" transform="translate(443.066406 0)"/>
     <use xlink:href="#DejaVuSans-Bold-56" transform="translate(477.880859 0)"/>
     <use xlink:href="#DejaVuSans-Bold-69" transform="translate(553.523438 0)"/>
     <use xlink:href="#DejaVuSans-Bold-73" transform="translate(587.800781 0)"/>
     <use xlink:href="#DejaVuSans-Bold-75" transform="translate(647.322266 0)"/>
     <use xlink:href="#DejaVuSans-Bold-61" transform="translate(718.513672 0)"/>
     <use xlink:href="#DejaVuSans-Bold-6c" transform="translate(785.994141 0)"/>
     <use xlink:href="#DejaVuSans-Bold-20" transform="translate(820.271484 0)"/>
     <use xlink:href="#DejaVuSans-Bold-56" transform="translate(855.085938 0)"/>
     <use xlink:href="#DejaVuSans-Bold-31" transform="translate(932.478516 0)"/>
    </g>
   </g>
   <g id="text_6">
    <!-- Ventral Stream (What) -->
    <g style="fill: #111111" transform="translate(70.67911 346.596591) scale(0.08 -0.08)">
     <defs>
      <path id="DejaVuSans-Bold-57" d="M 191 4666 
L 1344 4666 
L 2150 1275 
L 2950 4666 
L 4109 4666 
L 4909 1275 
L 5716 4666 
L 6859 4666 
L 5759 0 
L 4372 0 
L 3525 3547 
L 2688 0 
L 1300 0 
L 191 4666 
z
" transform="scale(0.015625)"/>
     </defs>
     <use xlink:href="#DejaVuSans-Bold-56"/>
     <use xlink:href="#DejaVuSans-Bold-65" transform="translate(71.892578 0)"/>
     <use xlink:href="#DejaVuSans-Bold-6e" transform="translate(139.714844 0)"/>
     <use xlink:href="#DejaVuSans-Bold-74" transform="translate(210.90625 0)"/>
     <use xlink:href="#DejaVuSans-Bold-72" transform="translate(258.708984 0)"/>
     <use xlink:href="#DejaVuSans-Bold-61" transform="translate(308.025391 0)"/>
     <use xlink:href="#DejaVuSans-Bold-6c" transform="translate(375.505859 0)"/>
     <use xlink:href="#DejaVuSans-Bold-20" transform="translate(409.783203 0)"/>
     <use xlink:href="#DejaVuSans-Bold-53" transform="translate(444.597656 0)"/>
     <use xlink:href="#DejaVuSans-Bold-74" transform="translate(516.619141 0)"/>
     <use xlink:href="#DejaVuSans-Bold-72" transform="translate(564.421875 0)"/>
     <use xlink:href="#DejaVuSans-Bold-65" transform="translate(613.738281 0)"/>
     <use xlink:href="#DejaVuSans-Bold-61" transform="translate(681.560547 0)"/>
     <use xlink:href="#DejaVuSans-Bold-6d" transform="translate(749.041016 0)"/>
     <use xlink:href="#DejaVuSans-Bold-20" transform="translate(853.240234 0)"/>
     <use xlink:href="#DejaVuSans-Bold-28" transform="translate(888.054688 0)"/>
     <use xlink:href="#DejaVuSans-Bold-57" transform="translate(933.757812 0)"/>
     <use xlink:href="#DejaVuSans-Bold-68" transform="translate(1044.060547 0)"/>
     <use xlink:href="#DejaVuSans-Bold-61" transform="translate(1115.251953 0)"/>
     <use xlink:href="#DejaVuSans-Bold-74" transform="translate(1182.732422 0)"/>
     <use xlink:href="#DejaVuSans-Bold-29" transform="translate(1230.535156 0)"/>
    </g>
   </g>
   <g id="text_7">
    <!-- Dorsal Stream (Where) -->
    <g style="fill: #111111" transform="translate(193.05436 346.596591) scale(0.08 -0.08)">
     <defs>
      <path id="DejaVuSans-Bold-44" d="M 1791 3756 
L 1791 909 
L 2222 909 
Q 2959 909 3348 1275 
Q 3738 1641 3738 2338 
Q 3738 3031 3350 3393 
Q 2963 3756 2222 3756 
L 1791 3756 
z
M 588 4666 
L 1856 4666 
Q 2919 4666 3439 4514 
Q 3959 4363 4331 4000 
Q 4659 3684 4818 3271 
Q 4978 2859 4978 2338 
Q 4978 1809 4818 1395 
Q 4659 981 4331 666 
Q 3956 303 3431 151 
Q 2906 0 1856 0 
L 588 0 
L 588 4666 
z
" transform="scale(0.015625)"/>
     </defs>
     <use xlink:href="#DejaVuSans-Bold-44"/>
     <use xlink:href="#DejaVuSans-Bold-6f" transform="translate(83.007812 0)"/>
     <use xlink:href="#DejaVuSans-Bold-72" transform="translate(151.708984 0)"/>
     <use xlink:href="#DejaVuSans-Bold-73" transform="translate(201.025391 0)"/>
     <use xlink:href="#DejaVuSans-Bold-61" transform="translate(260.546875 0)"/>
     <use xlink:href="#DejaVuSans-Bold-6c" transform="translate(328.027344 0)"/>
     <use xlink:href="#DejaVuSans-Bold-20" transform="translate(362.304688 0)"/>
     <use xlink:href="#DejaVuSans-Bold-53" transform="translate(397.119141 0)"/>
     <use xlink:href="#DejaVuSans-Bold-74" transform="translate(469.140625 0)"/>
     <use xlink:href="#DejaVuSans-Bold-72" transform="translate(516.943359 0)"/>
     <use xlink:href="#DejaVuSans-Bold-65" transform="translate(566.259766 0)"/>
     <use xlink:href="#DejaVuSans-Bold-61" transform="translate(634.082031 0)"/>
     <use xlink:href="#DejaVuSans-Bold-6d" transform="translate(701.5625 0)"/>
     <use xlink:href="#DejaVuSans-Bold-20" transform="translate(805.761719 0)"/>
     <use xlink:href="#DejaVuSans-Bold-28" transform="translate(840.576172 0)"/>
     <use xlink:href="#DejaVuSans-Bold-57" transform="translate(886.279297 0)"/>
     <use xlink:href="#DejaVuSans-Bold-68" transform="translate(996.582031 0)"/>
     <use xlink:href="#DejaVuSans-Bold-65" transform="translate(1067.773438 0)"/>
     <use xlink:href="#DejaVuSans-Bold-72" transform="translate(1135.595703 0)"/>
     <use xlink:href="#DejaVuSans-Bold-65" transform="translate(1184.912109 0)"/>
     <use xlink:href="#DejaVuSans-Bold-29" transform="translate(1252.734375 0)"/>
    </g>
   </g>
   <g id="text_8">
    <!-- IT Cortex -->
    <g style="fill: #111111" transform="translate(162.889235 421.646773) scale(0.08 -0.08)">
     <defs>
      <path id="DejaVuSans-Bold-49" d="M 588 4666 
L 1791 4666 
L 1791 0 
L 588 0 
L 588 4666 
z
" transform="scale(0.015625)"/>
      <path id="DejaVuSans-Bold-54" d="M 31 4666 
L 4331 4666 
L 4331 3756 
L 2784 3756 
L 2784 0 
L 1581 0 
L 1581 3756 
L 31 3756 
L 31 4666 
z
" transform="scale(0.015625)"/>
      <path id="DejaVuSans-Bold-78" d="M 1422 1791 
L 159 3500 
L 1344 3500 
L 2059 2463 
L 2784 3500 
L 3969 3500 
L 2706 1797 
L 4031 0 
L 2847 0 
L 2059 1106 
L 1281 0 
L 97 0 
L 1422 1791 
z
" transform="scale(0.015625)"/>
     </defs>
     <use xlink:href="#DejaVuSans-Bold-49"/>
     <use xlink:href="#DejaVuSans-Bold-54" transform="translate(37.207031 0)"/>
     <use xlink:href="#DejaVuSans-Bold-20" transform="translate(105.419922 0)"/>
     <use xlink:href="#DejaVuSans-Bold-43" transform="translate(140.234375 0)"/>
     <use xlink:href="#DejaVuSans-Bold-6f" transform="translate(213.623047 0)"/>
     <use xlink:href="#DejaVuSans-Bold-72" transform="translate(282.324219 0)"/>
     <use xlink:href="#DejaVuSans-Bold-74" transform="translate(331.640625 0)"/>
     <use xlink:href="#DejaVuSans-Bold-65" transform="translate(379.443359 0)"/>
     <use xlink:href="#DejaVuSans-Bold-78" transform="translate(447.265625 0)"/>
    </g>
   </g>
   <g id="text_9">
    <!-- Perceptual Decision -->
    <g style="fill: #111111" transform="translate(138.44861 471.680227) scale(0.08 -0.08)">
     <use xlink:href="#DejaVuSans-Bold-50"/>
     <use xlink:href="#DejaVuSans-Bold-65" transform="translate(73.291016 0)"/>
     <use xlink:href="#DejaVuSans-Bold-72" transform="translate(141.113281 0)"/>
     <use xlink:href="#DejaVuSans-Bold-63" transform="translate(190.429688 0)"/>
     <use xlink:href="#DejaVuSans-Bold-65" transform="translate(249.707031 0)"/>
     <use xlink:href="#DejaVuSans-Bold-70" transform="translate(317.529297 0)"/>
     <use xlink:href="#DejaVuSans-Bold-74" transform="translate(389.111328 0)"/>
     <use xlink:href="#DejaVuSans-Bold-75" transform="translate(436.914062 0)"/>
     <use xlink:href="#DejaVuSans-Bold-61" transform="translate(508.105469 0)"/>
     <use xlink:href="#DejaVuSans-Bold-6c" transform="translate(575.585938 0)"/>
     <use xlink:href="#DejaVuSans-Bold-20" transform="translate(609.863281 0)"/>
     <use xlink:href="#DejaVuSans-Bold-44" transform="translate(644.677734 0)"/>
     <use xlink:href="#DejaVuSans-Bold-65" transform="translate(727.685547 0)"/>
     <use xlink:href="#DejaVuSans-Bold-63" transform="translate(795.507812 0)"/>
     <use xlink:href="#DejaVuSans-Bold-69" transform="translate(854.785156 0)"/>
     <use xlink:href="#DejaVuSans-Bold-73" transform="translate(889.0625 0)"/>
     <use xlink:href="#DejaVuSans-Bold-69" transform="translate(948.583984 0)"/>
     <use xlink:href="#DejaVuSans-Bold-6f" transform="translate(982.861328 0)"/>
     <use xlink:href="#DejaVuSans-Bold-6e" transform="translate(1051.5625 0)"/>
    </g>
   </g>
   <g id="patch_44">
    <path d="M 176.688 158.763875 
Q 176.688 169.273296 176.688 178.105666 
" style="fill: none; stroke: #1f77b4; stroke-width: 1.5; stroke-linecap: round"/>
    <path d="M 179.088 173.305666 
L 176.688 178.105666 
L 174.288 173.305666 
z
" style="fill: #1f77b4; stroke: #1f77b4; stroke-width: 1.5; stroke-linecap: round"/>
   </g>
   <g id="patch_45">
    <path d="M 176.688 225.475148 
Q 176.688 235.984569 176.688 244.816938 
" style="fill: none; stroke: #1f77b4; stroke-width: 1.5; stroke-linecap: round"/>
    <path d="M 179.088 240.016938 
L 176.688 244.816938 
L 174.288 240.016938 
z
" style="fill: #1f77b4; stroke: #1f77b4; stroke-width: 1.5; stroke-linecap: round"/>
   </g>
   <g id="patch_46">
    <path d="M 174.931277 291.136931 
Q 145.872545 306.863705 118.288715 321.792252 
" style="fill: none; stroke: #1f77b4; stroke-width: 1.5; stroke-linecap: round"/>
    <path d="M 123.652458 321.618303 
L 118.288715 321.792252 
L 121.367801 317.396888 
z
" style="fill: #1f77b4; stroke: #1f77b4; stroke-width: 1.5; stroke-linecap: round"/>
   </g>
   <g id="patch_47">
    <path d="M 178.444723 291.136931 
Q 207.503455 306.863705 235.087285 321.792252 
" style="fill: none; stroke: #1f77b4; stroke-width: 1.5; stroke-linecap: round"/>
    <path d="M 232.008199 317.396888 
L 235.087285 321.792252 
L 229.723542 321.618303 
z
" style="fill: #1f77b4; stroke: #1f77b4; stroke-width: 1.5; stroke-linecap: round"/>
   </g>
   <g id="patch_48">
    <path d="M 116.812723 366.187113 
Q 145.871455 381.913887 173.455285 396.842434 
" style="fill: none; stroke: #1f77b4; stroke-width: 1.5; stroke-linecap: round"/>
    <path d="M 170.376199 392.44707 
L 173.455285 396.842434 
L 168.091542 396.668484 
z
" style="fill: #1f77b4; stroke: #1f77b4; stroke-width: 1.5; stroke-linecap: round"/>
   </g>
   <g id="patch_49">
    <path d="M 236.563277 366.187113 
Q 207.504545 381.913887 179.920715 396.842434 
" style="fill: none; stroke: #1f77b4; stroke-width: 1.5; stroke-linecap: round"/>
    <path d="M 185.284458 396.668484 
L 179.920715 396.842434 
L 182.999801 392.44707 
z
" style="fill: #1f77b4; stroke: #1f77b4; stroke-width: 1.5; stroke-linecap: round"/>
   </g>
   <g id="patch_50">
    <path d="M 176.688 442.285766 
Q 176.688 444.4542 176.688 444.945582 
" style="fill: none; stroke: #1f77b4; stroke-width: 1.5; stroke-linecap: round"/>
    <path d="M 179.088 440.145582 
L 176.688 444.945582 
L 174.288 440.145582 
z
" style="fill: #1f77b4; stroke: #1f77b4; stroke-width: 1.5; stroke-linecap: round"/>
   </g>
   <g id="text_10">
    <!-- Input Tensor -->
    <g style="fill: #111111" transform="translate(586.57261 138.123864) scale(0.08 -0.08)">
     <use xlink:href="#DejaVuSans-Bold-49"/>
     <use xlink:href="#DejaVuSans-Bold-6e" transform="translate(37.207031 0)"/>
     <use xlink:href="#DejaVuSans-Bold-70" transform="translate(108.398438 0)"/>
     <use xlink:href="#DejaVuSans-Bold-75" transform="translate(179.980469 0)"/>
     <use xlink:href="#DejaVuSans-Bold-74" transform="translate(251.171875 0)"/>
     <use xlink:href="#DejaVuSans-Bold-20" transform="translate(298.974609 0)"/>
     <use xlink:href="#DejaVuSans-Bold-54" transform="translate(333.789062 0)"/>
     <use xlink:href="#DejaVuSans-Bold-65" transform="translate(388.751953 0)"/>
     <use xlink:href="#DejaVuSans-Bold-6e" transform="translate(456.574219 0)"/>
     <use xlink:href="#DejaVuSans-Bold-73" transform="translate(527.765625 0)"/>
     <use xlink:href="#DejaVuSans-Bold-6f" transform="translate(587.287109 0)"/>
     <use xlink:href="#DejaVuSans-Bold-72" transform="translate(655.988281 0)"/>
    </g>
   </g>
   <g id="text_11">
    <!-- WideSEConvStem -->
    <g style="fill: #111111" transform="translate(574.99886 204.835136) scale(0.08 -0.08)">
     <defs>
      <path id="DejaVuSans-Bold-76" d="M 97 3500 
L 1216 3500 
L 2088 1081 
L 2956 3500 
L 4078 3500 
L 2700 0 
L 1472 0 
L 97 3500 
z
" transform="scale(0.015625)"/>
     </defs>
     <use xlink:href="#DejaVuSans-Bold-57"/>
     <use xlink:href="#DejaVuSans-Bold-69" transform="translate(110.302734 0)"/>
     <use xlink:href="#DejaVuSans-Bold-64" transform="translate(144.580078 0)"/>
     <use xlink:href="#DejaVuSans-Bold-65" transform="translate(216.162109 0)"/>
     <use xlink:href="#DejaVuSans-Bold-53" transform="translate(283.984375 0)"/>
     <use xlink:href="#DejaVuSans-Bold-45" transform="translate(356.005859 0)"/>
     <use xlink:href="#DejaVuSans-Bold-43" transform="translate(424.316406 0)"/>
     <use xlink:href="#DejaVuSans-Bold-6f" transform="translate(497.705078 0)"/>
     <use xlink:href="#DejaVuSans-Bold-6e" transform="translate(566.40625 0)"/>
     <use xlink:href="#DejaVuSans-Bold-76" transform="translate(637.597656 0)"/>
     <use xlink:href="#DejaVuSans-Bold-53" transform="translate(702.783203 0)"/>
     <use xlink:href="#DejaVuSans-Bold-74" transform="translate(774.804688 0)"/>
     <use xlink:href="#DejaVuSans-Bold-65" transform="translate(822.607422 0)"/>
     <use xlink:href="#DejaVuSans-Bold-6d" transform="translate(890.429688 0)"/>
    </g>
   </g>
   <g id="text_12">
    <!-- PatchTokeniserLarge -->
    <g style="fill: #111111" transform="translate(567.83011 271.515159) scale(0.08 -0.08)">
     <defs>
      <path id="DejaVuSans-Bold-6b" d="M 538 4863 
L 1656 4863 
L 1656 2216 
L 2944 3500 
L 4244 3500 
L 2534 1894 
L 4378 0 
L 3022 0 
L 1656 1459 
L 1656 0 
L 538 0 
L 538 4863 
z
" transform="scale(0.015625)"/>
     </defs>
     <use xlink:href="#DejaVuSans-Bold-50"/>
     <use xlink:href="#DejaVuSans-Bold-61" transform="translate(70.666016 0)"/>
     <use xlink:href="#DejaVuSans-Bold-74" transform="translate(138.146484 0)"/>
     <use xlink:href="#DejaVuSans-Bold-63" transform="translate(185.949219 0)"/>
     <use xlink:href="#DejaVuSans-Bold-68" transform="translate(245.226562 0)"/>
     <use xlink:href="#DejaVuSans-Bold-54" transform="translate(316.417969 0)"/>
     <use xlink:href="#DejaVuSans-Bold-6f" transform="translate(371.380859 0)"/>
     <use xlink:href="#DejaVuSans-Bold-6b" transform="translate(440.082031 0)"/>
     <use xlink:href="#DejaVuSans-Bold-65" transform="translate(503.960938 0)"/>
     <use xlink:href="#DejaVuSans-Bold-6e" transform="translate(571.783203 0)"/>
     <use xlink:href="#DejaVuSans-Bold-69" transform="translate(642.974609 0)"/>
     <use xlink:href="#DejaVuSans-Bold-73" transform="translate(677.251953 0)"/>
     <use xlink:href="#DejaVuSans-Bold-65" transform="translate(736.773438 0)"/>
     <use xlink:href="#DejaVuSans-Bold-72" transform="translate(804.595703 0)"/>
     <use xlink:href="#DejaVuSans-Bold-4c" transform="translate(853.912109 0)"/>
     <use xlink:href="#DejaVuSans-Bold-61" transform="translate(917.632812 0)"/>
     <use xlink:href="#DejaVuSans-Bold-72" transform="translate(985.113281 0)"/>
     <use xlink:href="#DejaVuSans-Bold-67" transform="translate(1034.429688 0)"/>
     <use xlink:href="#DejaVuSans-Bold-65" transform="translate(1106.011719 0)"/>
    </g>
   </g>
   <g id="text_13">
    <!-- Ventral Transformer -->
    <g style="fill: #111111" transform="translate(507.864985 346.596591) scale(0.08 -0.08)">
     <defs>
      <path id="DejaVuSans-Bold-66" d="M 2841 4863 
L 2841 4128 
L 2222 4128 
Q 1984 4128 1890 4042 
Q 1797 3956 1797 3744 
L 1797 3500 
L 2753 3500 
L 2753 2700 
L 1797 2700 
L 1797 0 
L 678 0 
L 678 2700 
L 122 2700 
L 122 3500 
L 678 3500 
L 678 3744 
Q 678 4316 997 4589 
Q 1316 4863 1984 4863 
L 2841 4863 
z
" transform="scale(0.015625)"/>
     </defs>
     <use xlink:href="#DejaVuSans-Bold-56"/>
     <use xlink:href="#DejaVuSans-Bold-65" transform="translate(71.892578 0)"/>
     <use xlink:href="#DejaVuSans-Bold-6e" transform="translate(139.714844 0)"/>
     <use xlink:href="#DejaVuSans-Bold-74" transform="translate(210.90625 0)"/>
     <use xlink:href="#DejaVuSans-Bold-72" transform="translate(258.708984 0)"/>
     <use xlink:href="#DejaVuSans-Bold-61" transform="translate(308.025391 0)"/>
     <use xlink:href="#DejaVuSans-Bold-6c" transform="translate(375.505859 0)"/>
     <use xlink:href="#DejaVuSans-Bold-20" transform="translate(409.783203 0)"/>
     <use xlink:href="#DejaVuSans-Bold-54" transform="translate(444.597656 0)"/>
     <use xlink:href="#DejaVuSans-Bold-72" transform="translate(501.810547 0)"/>
     <use xlink:href="#DejaVuSans-Bold-61" transform="translate(551.126953 0)"/>
     <use xlink:href="#DejaVuSans-Bold-6e" transform="translate(618.607422 0)"/>
     <use xlink:href="#DejaVuSans-Bold-73" transform="translate(689.798828 0)"/>
     <use xlink:href="#DejaVuSans-Bold-66" transform="translate(749.320312 0)"/>
     <use xlink:href="#DejaVuSans-Bold-6f" transform="translate(792.826172 0)"/>
     <use xlink:href="#DejaVuSans-Bold-72" transform="translate(861.527344 0)"/>
     <use xlink:href="#DejaVuSans-Bold-6d" transform="translate(910.84375 0)"/>
     <use xlink:href="#DejaVuSans-Bold-65" transform="translate(1015.042969 0)"/>
     <use xlink:href="#DejaVuSans-Bold-72" transform="translate(1082.865234 0)"/>
    </g>
   </g>
   <g id="text_14">
    <!-- Dorsal Transformer -->
    <g style="fill: #111111" transform="translate(633.027735 346.596591) scale(0.08 -0.08)">
     <use xlink:href="#DejaVuSans-Bold-44"/>
     <use xlink:href="#DejaVuSans-Bold-6f" transform="translate(83.007812 0)"/>
     <use xlink:href="#DejaVuSans-Bold-72" transform="translate(151.708984 0)"/>
     <use xlink:href="#DejaVuSans-Bold-73" transform="translate(201.025391 0)"/>
     <use xlink:href="#DejaVuSans-Bold-61" transform="translate(260.546875 0)"/>
     <use xlink:href="#DejaVuSans-Bold-6c" transform="translate(328.027344 0)"/>
     <use xlink:href="#DejaVuSans-Bold-20" transform="translate(362.304688 0)"/>
     <use xlink:href="#DejaVuSans-Bold-54" transform="translate(397.119141 0)"/>
     <use xlink:href="#DejaVuSans-Bold-72" transform="translate(454.332031 0)"/>
     <use xlink:href="#DejaVuSans-Bold-61" transform="translate(503.648438 0)"/>
     <use xlink:href="#DejaVuSans-Bold-6e" transform="translate(571.128906 0)"/>
     <use xlink:href="#DejaVuSans-Bold-73" transform="translate(642.320312 0)"/>
     <use xlink:href="#DejaVuSans-Bold-66" transform="translate(701.841797 0)"/>
     <use xlink:href="#DejaVuSans-Bold-6f" transform="translate(745.347656 0)"/>
     <use xlink:href="#DejaVuSans-Bold-72" transform="translate(814.048828 0)"/>
     <use xlink:href="#DejaVuSans-Bold-6d" transform="translate(863.365234 0)"/>
     <use xlink:href="#DejaVuSans-Bold-65" transform="translate(967.564453 0)"/>
     <use xlink:href="#DejaVuSans-Bold-72" transform="translate(1035.386719 0)"/>
    </g>
   </g>
   <g id="text_15">
    <!-- Prototype Head -->
    <g style="fill: #111111" transform="translate(579.36011 421.615523) scale(0.08 -0.08)">
     <use xlink:href="#DejaVuSans-Bold-50"/>
     <use xlink:href="#DejaVuSans-Bold-72" transform="translate(73.291016 0)"/>
     <use xlink:href="#DejaVuSans-Bold-6f" transform="translate(122.607422 0)"/>
     <use xlink:href="#DejaVuSans-Bold-74" transform="translate(191.308594 0)"/>
     <use xlink:href="#DejaVuSans-Bold-6f" transform="translate(239.111328 0)"/>
     <use xlink:href="#DejaVuSans-Bold-74" transform="translate(307.8125 0)"/>
     <use xlink:href="#DejaVuSans-Bold-79" transform="translate(355.615234 0)"/>
     <use xlink:href="#DejaVuSans-Bold-70" transform="translate(420.800781 0)"/>
     <use xlink:href="#DejaVuSans-Bold-65" transform="translate(492.382812 0)"/>
     <use xlink:href="#DejaVuSans-Bold-20" transform="translate(560.205078 0)"/>
     <use xlink:href="#DejaVuSans-Bold-48" transform="translate(595.019531 0)"/>
     <use xlink:href="#DejaVuSans-Bold-65" transform="translate(678.710938 0)"/>
     <use xlink:href="#DejaVuSans-Bold-61" transform="translate(746.533203 0)"/>
     <use xlink:href="#DejaVuSans-Bold-64" transform="translate(814.013672 0)"/>
    </g>
   </g>
   <g id="text_16">
    <!-- Logits / Action -->
    <g style="fill: #111111" transform="translate(582.368235 471.648977) scale(0.08 -0.08)">
     <use xlink:href="#DejaVuSans-Bold-4c"/>
     <use xlink:href="#DejaVuSans-Bold-6f" transform="translate(63.720703 0)"/>
     <use xlink:href="#DejaVuSans-Bold-67" transform="translate(132.421875 0)"/>
     <use xlink:href="#DejaVuSans-Bold-69" transform="translate(204.003906 0)"/>
     <use xlink:href="#DejaVuSans-Bold-74" transform="translate(238.28125 0)"/>
     <use xlink:href="#DejaVuSans-Bold-73" transform="translate(286.083984 0)"/>
     <use xlink:href="#DejaVuSans-Bold-20" transform="translate(345.605469 0)"/>
     <use xlink:href="#DejaVuSans-Bold-2f" transform="translate(380.419922 0)"/>
     <use xlink:href="#DejaVuSans-Bold-20" transform="translate(416.943359 0)"/>
     <use xlink:href="#DejaVuSans-Bold-41" transform="translate(451.757812 0)"/>
     <use xlink:href="#DejaVuSans-Bold-63" transform="translate(529.150391 0)"/>
     <use xlink:href="#DejaVuSans-Bold-74" transform="translate(588.427734 0)"/>
     <use xlink:href="#DejaVuSans-Bold-69" transform="translate(636.230469 0)"/>
     <use xlink:href="#DejaVuSans-Bold-6f" transform="translate(670.507812 0)"/>
     <use xlink:href="#DejaVuSans-Bold-6e" transform="translate(739.208984 0)"/>
    </g>
   </g>
   <g id="patch_51">
    <path d="M 608.112 158.763875 
Q 608.112 169.273296 608.112 178.105666 
" style="fill: none; stroke: #1f77b4; stroke-width: 1.5; stroke-linecap: round"/>
    <path d="M 610.512 173.305666 
L 608.112 178.105666 
L 605.712 173.305666 
z
" style="fill: #1f77b4; stroke: #1f77b4; stroke-width: 1.5; stroke-linecap: round"/>
   </g>
   <g id="patch_52">
    <path d="M 608.112 225.475148 
Q 608.112 235.984569 608.112 244.816938 
" style="fill: none; stroke: #1f77b4; stroke-width: 1.5; stroke-linecap: round"/>
    <path d="M 610.512 240.016938 
L 608.112 244.816938 
L 605.712 240.016938 
z
" style="fill: #1f77b4; stroke: #1f77b4; stroke-width: 1.5; stroke-linecap: round"/>
   </g>
   <g id="patch_53">
    <path d="M 606.355277 291.136931 
Q 577.296545 306.863705 549.712715 321.792252 
" style="fill: none; stroke: #1f77b4; stroke-width: 1.5; stroke-linecap: round"/>
    <path d="M 555.076458 321.618303 
L 549.712715 321.792252 
L 552.791801 317.396888 
z
" style="fill: #1f77b4; stroke: #1f77b4; stroke-width: 1.5; stroke-linecap: round"/>
   </g>
   <g id="patch_54">
    <path d="M 609.868723 291.136931 
Q 638.927455 306.863705 666.511285 321.792252 
" style="fill: none; stroke: #1f77b4; stroke-width: 1.5; stroke-linecap: round"/>
    <path d="M 663.432199 317.396888 
L 666.511285 321.792252 
L 661.147542 321.618303 
z
" style="fill: #1f77b4; stroke: #1f77b4; stroke-width: 1.5; stroke-linecap: round"/>
   </g>
   <g id="patch_55">
    <path d="M 548.236723 366.187113 
Q 577.295455 381.913887 604.879285 396.842434 
" style="fill: none; stroke: #1f77b4; stroke-width: 1.5; stroke-linecap: round"/>
    <path d="M 601.800199 392.44707 
L 604.879285 396.842434 
L 599.515542 396.668484 
z
" style="fill: #1f77b4; stroke: #1f77b4; stroke-width: 1.5; stroke-linecap: round"/>
   </g>
   <g id="patch_56">
    <path d="M 667.987277 366.187113 
Q 638.928545 381.913887 611.344715 396.842434 
" style="fill: none; stroke: #1f77b4; stroke-width: 1.5; stroke-linecap: round"/>
    <path d="M 616.708458 396.668484 
L 611.344715 396.842434 
L 614.423801 392.44707 
z
" style="fill: #1f77b4; stroke: #1f77b4; stroke-width: 1.5; stroke-linecap: round"/>
   </g>
   <g id="patch_57">
    <path d="M 608.112 442.285766 
Q 608.112 444.4542 608.112 444.945582 
" style="fill: none; stroke: #1f77b4; stroke-width: 1.5; stroke-linecap: round"/>
    <path d="M 610.512 440.145582 
L 608.112 444.945582 
L 605.712 440.145582 
z
" style="fill: #1f77b4; stroke: #1f77b4; stroke-width: 1.5; stroke-linecap: round"/>
   </g>
   <g id="text_17">
    <!-- Input mapping -->
    <g style="fill: #455a64" transform="translate(364.986914 135.484222) scale(0.075 -0.075)">
     <defs>
      <path id="DejaVuSans-Oblique-49" d="M 1081 4666 
L 1716 4666 
L 806 0 
L 172 0 
L 1081 4666 
z
" transform="scale(0.015625)"/>
      <path id="DejaVuSans-Oblique-6e" d="M 3566 2113 
L 3156 0 
L 2578 0 
L 2988 2091 
Q 3016 2238 3031 2350 
Q 3047 2463 3047 2528 
Q 3047 2791 2881 2937 
Q 2716 3084 2419 3084 
Q 1956 3084 1622 2776 
Q 1288 2469 1184 1941 
L 800 0 
L 225 0 
L 903 3500 
L 1478 3500 
L 1363 2950 
Q 1603 3253 1940 3418 
Q 2278 3584 2650 3584 
Q 3113 3584 3367 3334 
Q 3622 3084 3622 2631 
Q 3622 2519 3608 2391 
Q 3594 2263 3566 2113 
z
" transform="scale(0.015625)"/>
      <path id="DejaVuSans-Oblique-70" d="M 3175 2156 
Q 3175 2616 2975 2859 
Q 2775 3103 2400 3103 
Q 2144 3103 1911 2972 
Q 1678 2841 1497 2591 
Q 1319 2344 1212 1994 
Q 1106 1644 1106 1300 
Q 1106 863 1306 627 
Q 1506 391 1875 391 
Q 2147 391 2380 519 
Q 2613 647 2778 891 
Q 2956 1147 3065 1494 
Q 3175 1841 3175 2156 
z
M 1394 2969 
Q 1625 3272 1939 3428 
Q 2253 3584 2638 3584 
Q 3175 3584 3472 3232 
Q 3769 2881 3769 2247 
Q 3769 1728 3584 1258 
Q 3400 788 3053 416 
Q 2822 169 2531 39 
Q 2241 -91 1919 -91 
Q 1547 -91 1294 64 
Q 1041 219 916 525 
L 556 -1331 
L -19 -1331 
L 922 3500 
L 1497 3500 
L 1394 2969 
z
" transform="scale(0.015625)"/>
      <path id="DejaVuSans-Oblique-75" d="M 428 1388 
L 838 3500 
L 1416 3500 
L 1006 1409 
Q 975 1256 961 1147 
Q 947 1038 947 966 
Q 947 700 1109 554 
Q 1272 409 1569 409 
Q 2031 409 2368 721 
Q 2706 1034 2809 1563 
L 3194 3500 
L 3769 3500 
L 3091 0 
L 2516 0 
L 2631 550 
Q 2388 244 2052 76 
Q 1716 -91 1338 -91 
Q 878 -91 622 161 
Q 366 413 366 863 
Q 366 956 381 1097 
Q 397 1238 428 1388 
z
" transform="scale(0.015625)"/>
      <path id="DejaVuSans-Oblique-74" d="M 2706 3500 
L 2619 3053 
L 1472 3053 
L 1100 1153 
Q 1081 1047 1072 975 
Q 1063 903 1063 863 
Q 1063 663 1183 572 
Q 1303 481 1569 481 
L 2150 481 
L 2053 0 
L 1503 0 
Q 991 0 739 200 
Q 488 400 488 806 
Q 488 878 497 964 
Q 506 1050 525 1153 
L 897 3053 
L 409 3053 
L 500 3500 
L 978 3500 
L 1172 4494 
L 1747 4494 
L 1556 3500 
L 2706 3500 
z
" transform="scale(0.015625)"/>
      <path id="DejaVuSans-Oblique-20" transform="scale(0.015625)"/>
      <path id="DejaVuSans-Oblique-6d" d="M 5747 2113 
L 5338 0 
L 4763 0 
L 5166 2094 
Q 5191 2228 5203 2325 
Q 5216 2422 5216 2491 
Q 5216 2772 5059 2928 
Q 4903 3084 4622 3084 
Q 4203 3084 3875 2770 
Q 3547 2456 3450 1953 
L 3066 0 
L 2491 0 
L 2900 2094 
Q 2925 2209 2937 2307 
Q 2950 2406 2950 2484 
Q 2950 2769 2794 2926 
Q 2638 3084 2363 3084 
Q 1938 3084 1609 2770 
Q 1281 2456 1184 1953 
L 800 0 
L 225 0 
L 909 3500 
L 1484 3500 
L 1375 2956 
Q 1609 3263 1923 3423 
Q 2238 3584 2597 3584 
Q 2978 3584 3223 3384 
Q 3469 3184 3519 2828 
Q 3781 3197 4126 3390 
Q 4472 3584 4856 3584 
Q 5306 3584 5551 3325 
Q 5797 3066 5797 2591 
Q 5797 2488 5784 2364 
Q 5772 2241 5747 2113 
z
" transform="scale(0.015625)"/>
      <path id="DejaVuSans-Oblique-61" d="M 3438 1997 
L 3047 0 
L 2472 0 
L 2578 531 
Q 2325 219 2001 64 
Q 1678 -91 1281 -91 
Q 834 -91 548 182 
Q 263 456 263 884 
Q 263 1497 752 1853 
Q 1241 2209 2100 2209 
L 2900 2209 
L 2931 2363 
Q 2938 2388 2941 2417 
Q 2944 2447 2944 2509 
Q 2944 2788 2717 2942 
Q 2491 3097 2081 3097 
Q 1800 3097 1504 3025 
Q 1209 2953 897 2809 
L 997 3341 
Q 1322 3463 1633 3523 
Q 1944 3584 2234 3584 
Q 2853 3584 3176 3315 
Q 3500 3047 3500 2534 
Q 3500 2431 3484 2292 
Q 3469 2153 3438 1997 
z
M 2816 1759 
L 2241 1759 
Q 1534 1759 1195 1570 
Q 856 1381 856 984 
Q 856 709 1029 553 
Q 1203 397 1509 397 
Q 1978 397 2328 733 
Q 2678 1069 2791 1631 
L 2816 1759 
z
" transform="scale(0.015625)"/>
      <path id="DejaVuSans-Oblique-69" d="M 1172 4863 
L 1747 4863 
L 1606 4134 
L 1031 4134 
L 1172 4863 
z
M 909 3500 
L 1484 3500 
L 800 0 
L 225 0 
L 909 3500 
z
" transform="scale(0.015625)"/>
      <path id="DejaVuSans-Oblique-67" d="M 3816 3500 
L 3219 434 
Q 3047 -456 2561 -893 
Q 2075 -1331 1253 -1331 
Q 950 -1331 690 -1286 
Q 431 -1241 206 -1147 
L 313 -588 
Q 525 -725 762 -790 
Q 1000 -856 1269 -856 
Q 1816 -856 2167 -557 
Q 2519 -259 2631 300 
L 2681 563 
Q 2441 288 2122 144 
Q 1803 0 1434 0 
Q 903 0 598 351 
Q 294 703 294 1319 
Q 294 1803 478 2267 
Q 663 2731 997 3091 
Q 1219 3328 1514 3456 
Q 1809 3584 2131 3584 
Q 2484 3584 2746 3420 
Q 3009 3256 3138 2956 
L 3238 3500 
L 3816 3500 
z
M 2950 2216 
Q 2950 2641 2750 2872 
Q 2550 3103 2181 3103 
Q 1953 3103 1747 3012 
Q 1541 2922 1394 2759 
Q 1156 2491 1023 2127 
Q 891 1763 891 1375 
Q 891 944 1092 712 
Q 1294 481 1672 481 
Q 2219 481 2584 976 
Q 2950 1472 2950 2216 
z
" transform="scale(0.015625)"/>
     </defs>
     <use xlink:href="#DejaVuSans-Oblique-49"/>
     <use xlink:href="#DejaVuSans-Oblique-6e" transform="translate(29.492188 0)"/>
     <use xlink:href="#DejaVuSans-Oblique-70" transform="translate(92.871094 0)"/>
     <use xlink:href="#DejaVuSans-Oblique-75" transform="translate(156.347656 0)"/>
     <use xlink:href="#DejaVuSans-Oblique-74" transform="translate(219.726562 0)"/>
     <use xlink:href="#DejaVuSans-Oblique-20" transform="translate(258.935547 0)"/>
     <use xlink:href="#DejaVuSans-Oblique-6d" transform="translate(290.722656 0)"/>
     <use xlink:href="#DejaVuSans-Oblique-61" transform="translate(388.134766 0)"/>
     <use xlink:href="#DejaVuSans-Oblique-70" transform="translate(449.414062 0)"/>
     <use xlink:href="#DejaVuSans-Oblique-70" transform="translate(512.890625 0)"/>
     <use xlink:href="#DejaVuSans-Oblique-69" transform="translate(576.367188 0)"/>
     <use xlink:href="#DejaVuSans-Oblique-6e" transform="translate(604.150391 0)"/>
     <use xlink:href="#DejaVuSans-Oblique-67" transform="translate(667.529297 0)"/>
    </g>
   </g>
   <g id="text_18">
    <!-- Local filtering -->
    <g style="fill: #455a64" transform="translate(366.900586 202.195495) scale(0.075 -0.075)">
     <defs>
      <path id="DejaVuSans-Oblique-4c" d="M 1075 4666 
L 1709 4666 
L 909 525 
L 3181 525 
L 3078 0 
L 172 0 
L 1075 4666 
z
" transform="scale(0.015625)"/>
      <path id="DejaVuSans-Oblique-6f" d="M 1625 -91 
Q 1009 -91 651 289 
Q 294 669 294 1325 
Q 294 1706 417 2101 
Q 541 2497 738 2766 
Q 1047 3184 1428 3384 
Q 1809 3584 2291 3584 
Q 2888 3584 3255 3212 
Q 3622 2841 3622 2241 
Q 3622 1825 3500 1412 
Q 3378 1000 3181 728 
Q 2875 309 2494 109 
Q 2113 -91 1625 -91 
z
M 891 1344 
Q 891 869 1089 633 
Q 1288 397 1691 397 
Q 2269 397 2648 901 
Q 3028 1406 3028 2181 
Q 3028 2634 2825 2865 
Q 2622 3097 2228 3097 
Q 1903 3097 1650 2945 
Q 1397 2794 1197 2484 
Q 1050 2253 970 1956 
Q 891 1659 891 1344 
z
" transform="scale(0.015625)"/>
      <path id="DejaVuSans-Oblique-63" d="M 3431 3366 
L 3316 2797 
Q 3109 2947 2876 3022 
Q 2644 3097 2394 3097 
Q 2119 3097 1870 3000 
Q 1622 2903 1453 2725 
Q 1184 2453 1037 2087 
Q 891 1722 891 1331 
Q 891 859 1127 628 
Q 1363 397 1844 397 
Q 2081 397 2348 469 
Q 2616 541 2906 684 
L 2797 116 
Q 2547 13 2283 -39 
Q 2019 -91 1741 -91 
Q 1044 -91 669 257 
Q 294 606 294 1253 
Q 294 1797 489 2255 
Q 684 2713 1069 3078 
Q 1331 3328 1684 3456 
Q 2038 3584 2456 3584 
Q 2700 3584 2940 3529 
Q 3181 3475 3431 3366 
z
" transform="scale(0.015625)"/>
      <path id="DejaVuSans-Oblique-6c" d="M 1172 4863 
L 1747 4863 
L 800 0 
L 225 0 
L 1172 4863 
z
" transform="scale(0.015625)"/>
      <path id="DejaVuSans-Oblique-66" d="M 3059 4863 
L 2969 4384 
L 2419 4384 
Q 2106 4384 1964 4261 
Q 1822 4138 1753 3809 
L 1691 3500 
L 2638 3500 
L 2553 3053 
L 1606 3053 
L 1013 0 
L 434 0 
L 1031 3053 
L 481 3053 
L 563 3500 
L 1113 3500 
L 1159 3744 
Q 1278 4363 1576 4613 
Q 1875 4863 2516 4863 
L 3059 4863 
z
" transform="scale(0.015625)"/>
      <path id="DejaVuSans-Oblique-65" d="M 3078 2063 
Q 3088 2113 3092 2166 
Q 3097 2219 3097 2272 
Q 3097 2653 2873 2875 
Q 2650 3097 2266 3097 
Q 1838 3097 1509 2826 
Q 1181 2556 1013 2059 
L 3078 2063 
z
M 3578 1613 
L 903 1613 
Q 884 1494 878 1425 
Q 872 1356 872 1306 
Q 872 872 1139 634 
Q 1406 397 1894 397 
Q 2269 397 2603 481 
Q 2938 566 3225 728 
L 3116 159 
Q 2806 34 2476 -28 
Q 2147 -91 1806 -91 
Q 1078 -91 686 257 
Q 294 606 294 1247 
Q 294 1794 489 2264 
Q 684 2734 1063 3103 
Q 1306 3334 1642 3459 
Q 1978 3584 2356 3584 
Q 2950 3584 3301 3228 
Q 3653 2872 3653 2272 
Q 3653 2128 3634 1964 
Q 3616 1800 3578 1613 
z
" transform="scale(0.015625)"/>
      <path id="DejaVuSans-Oblique-72" d="M 2853 2969 
Q 2766 3016 2653 3041 
Q 2541 3066 2413 3066 
Q 1953 3066 1609 2717 
Q 1266 2369 1153 1784 
L 800 0 
L 225 0 
L 909 3500 
L 1484 3500 
L 1375 2956 
Q 1603 3259 1920 3421 
Q 2238 3584 2597 3584 
Q 2691 3584 2781 3573 
Q 2872 3563 2963 3538 
L 2853 2969 
z
" transform="scale(0.015625)"/>
     </defs>
     <use xlink:href="#DejaVuSans-Oblique-4c"/>
     <use xlink:href="#DejaVuSans-Oblique-6f" transform="translate(55.712891 0)"/>
     <use xlink:href="#DejaVuSans-Oblique-63" transform="translate(116.894531 0)"/>
     <use xlink:href="#DejaVuSans-Oblique-61" transform="translate(171.875 0)"/>
     <use xlink:href="#DejaVuSans-Oblique-6c" transform="translate(233.154297 0)"/>
     <use xlink:href="#DejaVuSans-Oblique-20" transform="translate(260.9375 0)"/>
     <use xlink:href="#DejaVuSans-Oblique-66" transform="translate(292.724609 0)"/>
     <use xlink:href="#DejaVuSans-Oblique-69" transform="translate(327.929688 0)"/>
     <use xlink:href="#DejaVuSans-Oblique-6c" transform="translate(355.712891 0)"/>
     <use xlink:href="#DejaVuSans-Oblique-74" transform="translate(383.496094 0)"/>
     <use xlink:href="#DejaVuSans-Oblique-65" transform="translate(422.705078 0)"/>
     <use xlink:href="#DejaVuSans-Oblique-72" transform="translate(484.228516 0)"/>
     <use xlink:href="#DejaVuSans-Oblique-69" transform="translate(525.341797 0)"/>
     <use xlink:href="#DejaVuSans-Oblique-6e" transform="translate(553.125 0)"/>
     <use xlink:href="#DejaVuSans-Oblique-67" transform="translate(616.503906 0)"/>
    </g>
   </g>
   <g id="text_19">
    <!-- Granular tokens -->
    <g style="fill: #455a64" transform="translate(362.254687 268.906768) scale(0.075 -0.075)">
     <defs>
      <path id="DejaVuSans-Oblique-47" d="M 3494 697 
L 3738 1919 
L 2700 1919 
L 2797 2438 
L 4453 2438 
L 4050 384 
Q 3634 156 3143 32 
Q 2653 -91 2156 -91 
Q 1278 -91 783 396 
Q 288 884 288 1753 
Q 288 2475 589 3126 
Q 891 3778 1422 4213 
Q 1756 4484 2153 4617 
Q 2550 4750 3034 4750 
Q 3472 4750 3873 4639 
Q 4275 4528 4641 4306 
L 4513 3634 
Q 4231 3928 3853 4083 
Q 3475 4238 3047 4238 
Q 2550 4238 2172 4048 
Q 1794 3859 1497 3463 
Q 1244 3125 1098 2667 
Q 953 2209 953 1734 
Q 953 1081 1287 751 
Q 1622 422 2284 422 
Q 2616 422 2925 492 
Q 3234 563 3494 697 
z
" transform="scale(0.015625)"/>
      <path id="DejaVuSans-Oblique-6b" d="M 1172 4863 
L 1747 4863 
L 1197 2028 
L 3169 3500 
L 3916 3500 
L 1716 1825 
L 3322 0 
L 2625 0 
L 1131 1709 
L 800 0 
L 225 0 
L 1172 4863 
z
" transform="scale(0.015625)"/>
      <path id="DejaVuSans-Oblique-73" d="M 3200 3397 
L 3091 2853 
Q 2863 2978 2609 3040 
Q 2356 3103 2088 3103 
Q 1634 3103 1373 2948 
Q 1113 2794 1113 2528 
Q 1113 2219 1719 2053 
Q 1766 2041 1788 2034 
L 1972 1978 
Q 2547 1819 2739 1644 
Q 2931 1469 2931 1166 
Q 2931 609 2489 259 
Q 2047 -91 1331 -91 
Q 1053 -91 747 -37 
Q 441 16 72 128 
L 184 722 
Q 500 559 806 475 
Q 1113 391 1394 391 
Q 1816 391 2080 572 
Q 2344 753 2344 1031 
Q 2344 1331 1650 1516 
L 1591 1531 
L 1394 1581 
Q 956 1697 753 1886 
Q 550 2075 550 2369 
Q 550 2928 970 3256 
Q 1391 3584 2113 3584 
Q 2397 3584 2667 3537 
Q 2938 3491 3200 3397 
z
" transform="scale(0.015625)"/>
     </defs>
     <use xlink:href="#DejaVuSans-Oblique-47"/>
     <use xlink:href="#DejaVuSans-Oblique-72" transform="translate(77.490234 0)"/>
     <use xlink:href="#DejaVuSans-Oblique-61" transform="translate(118.603516 0)"/>
     <use xlink:href="#DejaVuSans-Oblique-6e" transform="translate(179.882812 0)"/>
     <use xlink:href="#DejaVuSans-Oblique-75" transform="translate(243.261719 0)"/>
     <use xlink:href="#DejaVuSans-Oblique-6c" transform="translate(306.640625 0)"/>
     <use xlink:href="#DejaVuSans-Oblique-61" transform="translate(334.423828 0)"/>
     <use xlink:href="#DejaVuSans-Oblique-72" transform="translate(395.703125 0)"/>
     <use xlink:href="#DejaVuSans-Oblique-20" transform="translate(436.816406 0)"/>
     <use xlink:href="#DejaVuSans-Oblique-74" transform="translate(468.603516 0)"/>
     <use xlink:href="#DejaVuSans-Oblique-6f" transform="translate(507.8125 0)"/>
     <use xlink:href="#DejaVuSans-Oblique-6b" transform="translate(568.994141 0)"/>
     <use xlink:href="#DejaVuSans-Oblique-65" transform="translate(626.904297 0)"/>
     <use xlink:href="#DejaVuSans-Oblique-6e" transform="translate(688.427734 0)"/>
     <use xlink:href="#DejaVuSans-Oblique-73" transform="translate(751.806641 0)"/>
    </g>
   </g>
   <g id="text_20">
    <!-- Ventral path -->
    <g style="fill: #455a64" transform="translate(369.302344 343.956949) scale(0.075 -0.075)">
     <defs>
      <path id="DejaVuSans-Oblique-56" d="M 1319 0 
L 500 4666 
L 1119 4666 
L 1797 653 
L 4063 4666 
L 4750 4666 
L 2053 0 
L 1319 0 
z
" transform="scale(0.015625)"/>
      <path id="DejaVuSans-Oblique-68" d="M 3566 2113 
L 3156 0 
L 2578 0 
L 2988 2091 
Q 3016 2238 3031 2350 
Q 3047 2463 3047 2528 
Q 3047 2791 2881 2937 
Q 2716 3084 2419 3084 
Q 1956 3084 1617 2771 
Q 1278 2459 1178 1941 
L 800 0 
L 225 0 
L 1172 4863 
L 1747 4863 
L 1375 2950 
Q 1594 3244 1934 3414 
Q 2275 3584 2650 3584 
Q 3113 3584 3367 3334 
Q 3622 3084 3622 2631 
Q 3622 2519 3608 2391 
Q 3594 2263 3566 2113 
z
" transform="scale(0.015625)"/>
     </defs>
     <use xlink:href="#DejaVuSans-Oblique-56"/>
     <use xlink:href="#DejaVuSans-Oblique-65" transform="translate(62.533203 0)"/>
     <use xlink:href="#DejaVuSans-Oblique-6e" transform="translate(124.056641 0)"/>
     <use xlink:href="#DejaVuSans-Oblique-74" transform="translate(187.435547 0)"/>
     <use xlink:href="#DejaVuSans-Oblique-72" transform="translate(226.644531 0)"/>
     <use xlink:href="#DejaVuSans-Oblique-61" transform="translate(267.757812 0)"/>
     <use xlink:href="#DejaVuSans-Oblique-6c" transform="translate(329.037109 0)"/>
     <use xlink:href="#DejaVuSans-Oblique-20" transform="translate(356.820312 0)"/>
     <use xlink:href="#DejaVuSans-Oblique-70" transform="translate(388.607422 0)"/>
     <use xlink:href="#DejaVuSans-Oblique-61" transform="translate(452.083984 0)"/>
     <use xlink:href="#DejaVuSans-Oblique-74" transform="translate(513.363281 0)"/>
     <use xlink:href="#DejaVuSans-Oblique-68" transform="translate(552.572266 0)"/>
    </g>
   </g>
   <g id="text_21">
    <!-- IT Classifier -->
    <g style="fill: #455a64" transform="translate(370.693359 419.007131) scale(0.075 -0.075)">
     <defs>
      <path id="DejaVuSans-Oblique-54" d="M 378 4666 
L 4325 4666 
L 4225 4134 
L 2559 4134 
L 1759 0 
L 1125 0 
L 1925 4134 
L 275 4134 
L 378 4666 
z
" transform="scale(0.015625)"/>
      <path id="DejaVuSans-Oblique-43" d="M 4447 4306 
L 4319 3641 
Q 4019 3944 3683 4091 
Q 3347 4238 2956 4238 
Q 2422 4238 2017 3981 
Q 1613 3725 1319 3200 
Q 1131 2863 1032 2486 
Q 934 2109 934 1728 
Q 934 1091 1264 756 
Q 1594 422 2222 422 
Q 2656 422 3056 561 
Q 3456 700 3834 978 
L 3688 231 
Q 3316 72 2936 -9 
Q 2556 -91 2175 -91 
Q 1278 -91 773 396 
Q 269 884 269 1753 
Q 269 2309 461 2846 
Q 653 3384 1013 3828 
Q 1394 4300 1883 4525 
Q 2372 4750 3022 4750 
Q 3422 4750 3780 4639 
Q 4138 4528 4447 4306 
z
" transform="scale(0.015625)"/>
     </defs>
     <use xlink:href="#DejaVuSans-Oblique-49"/>
     <use xlink:href="#DejaVuSans-Oblique-54" transform="translate(29.492188 0)"/>
     <use xlink:href="#DejaVuSans-Oblique-20" transform="translate(90.576172 0)"/>
     <use xlink:href="#DejaVuSans-Oblique-43" transform="translate(122.363281 0)"/>
     <use xlink:href="#DejaVuSans-Oblique-6c" transform="translate(192.1875 0)"/>
     <use xlink:href="#DejaVuSans-Oblique-61" transform="translate(219.970703 0)"/>
     <use xlink:href="#DejaVuSans-Oblique-73" transform="translate(281.25 0)"/>
     <use xlink:href="#DejaVuSans-Oblique-73" transform="translate(333.349609 0)"/>
     <use xlink:href="#DejaVuSans-Oblique-69" transform="translate(385.449219 0)"/>
     <use xlink:href="#DejaVuSans-Oblique-66" transform="translate(413.232422 0)"/>
     <use xlink:href="#DejaVuSans-Oblique-69" transform="translate(448.4375 0)"/>
     <use xlink:href="#DejaVuSans-Oblique-65" transform="translate(476.220703 0)"/>
     <use xlink:href="#DejaVuSans-Oblique-72" transform="translate(537.744141 0)"/>
    </g>
   </g>
   <g id="text_22">
    <!-- Output match -->
    <g style="fill: #455a64" transform="translate(366.322852 469.040586) scale(0.075 -0.075)">
     <defs>
      <path id="DejaVuSans-Oblique-4f" d="M 2919 4238 
Q 2400 4238 2003 3986 
Q 1606 3734 1313 3219 
Q 1125 2891 1026 2522 
Q 928 2153 928 1778 
Q 928 1128 1239 775 
Q 1550 422 2119 422 
Q 2631 422 3032 676 
Q 3434 931 3719 1434 
Q 3909 1772 4009 2142 
Q 4109 2513 4109 2881 
Q 4109 3528 3796 3883 
Q 3484 4238 2919 4238 
z
M 2100 -91 
Q 1241 -91 748 418 
Q 256 928 256 1813 
Q 256 2319 448 2847 
Q 641 3375 978 3788 
Q 1375 4272 1862 4511 
Q 2350 4750 2938 4750 
Q 3794 4750 4287 4245 
Q 4781 3741 4781 2869 
Q 4781 2331 4593 1812 
Q 4406 1294 4056 872 
Q 3656 384 3173 146 
Q 2691 -91 2100 -91 
z
" transform="scale(0.015625)"/>
     </defs>
     <use xlink:href="#DejaVuSans-Oblique-4f"/>
     <use xlink:href="#DejaVuSans-Oblique-75" transform="translate(78.710938 0)"/>
     <use xlink:href="#DejaVuSans-Oblique-74" transform="translate(142.089844 0)"/>
     <use xlink:href="#DejaVuSans-Oblique-70" transform="translate(181.298828 0)"/>
     <use xlink:href="#DejaVuSans-Oblique-75" transform="translate(244.775391 0)"/>
     <use xlink:href="#DejaVuSans-Oblique-74" transform="translate(308.154297 0)"/>
     <use xlink:href="#DejaVuSans-Oblique-20" transform="translate(347.363281 0)"/>
     <use xlink:href="#DejaVuSans-Oblique-6d" transform="translate(379.150391 0)"/>
     <use xlink:href="#DejaVuSans-Oblique-61" transform="translate(476.5625 0)"/>
     <use xlink:href="#DejaVuSans-Oblique-74" transform="translate(537.841797 0)"/>
     <use xlink:href="#DejaVuSans-Oblique-63" transform="translate(577.050781 0)"/>
     <use xlink:href="#DejaVuSans-Oblique-68" transform="translate(632.03125 0)"/>
    </g>
   </g>
  </g>
  <g id="text_23">
   <!-- Biological Human Visual System vs. Traced RHAN Mapping -->
   <g transform="translate(178.301172 17.077969) scale(0.13 -0.13)">
    <defs>
     <path id="DejaVuSans-Bold-2e" d="M 653 1209 
L 1778 1209 
L 1778 0 
L 653 0 
L 653 1209 
z
" transform="scale(0.015625)"/>
    </defs>
    <use xlink:href="#DejaVuSans-Bold-42"/>
    <use xlink:href="#DejaVuSans-Bold-69" transform="translate(76.220703 0)"/>
    <use xlink:href="#DejaVuSans-Bold-6f" transform="translate(110.498047 0)"/>
    <use xlink:href="#DejaVuSans-Bold-6c" transform="translate(179.199219 0)"/>
    <use xlink:href="#DejaVuSans-Bold-6f" transform="translate(213.476562 0)"/>
    <use xlink:href="#DejaVuSans-Bold-67" transform="translate(282.177734 0)"/>
    <use xlink:href="#DejaVuSans-Bold-69" transform="translate(353.759766 0)"/>
    <use xlink:href="#DejaVuSans-Bold-63" transform="translate(388.037109 0)"/>
    <use xlink:href="#DejaVuSans-Bold-61" transform="translate(447.314453 0)"/>
    <use xlink:href="#DejaVuSans-Bold-6c" transform="translate(514.794922 0)"/>
    <use xlink:href="#DejaVuSans-Bold-20" transform="translate(549.072266 0)"/>
    <use xlink:href="#DejaVuSans-Bold-48" transform="translate(583.886719 0)"/>
    <use xlink:href="#DejaVuSans-Bold-75" transform="translate(667.578125 0)"/>
    <use xlink:href="#DejaVuSans-Bold-6d" transform="translate(738.769531 0)"/>
    <use xlink:href="#DejaVuSans-Bold-61" transform="translate(842.96875 0)"/>
    <use xlink:href="#DejaVuSans-Bold-6e" transform="translate(910.449219 0)"/>
    <use xlink:href="#DejaVuSans-Bold-20" transform="translate(981.640625 0)"/>
    <use xlink:href="#DejaVuSans-Bold-56" transform="translate(1016.455078 0)"/>
    <use xlink:href="#DejaVuSans-Bold-69" transform="translate(1092.097656 0)"/>
    <use xlink:href="#DejaVuSans-Bold-73" transform="translate(1126.375 0)"/>
    <use xlink:href="#DejaVuSans-Bold-75" transform="translate(1185.896484 0)"/>
    <use xlink:href="#DejaVuSans-Bold-61" transform="translate(1257.087891 0)"/>
    <use xlink:href="#DejaVuSans-Bold-6c" transform="translate(1324.568359 0)"/>
    <use xlink:href="#DejaVuSans-Bold-20" transform="translate(1358.845703 0)"/>
    <use xlink:href="#DejaVuSans-Bold-53" transform="translate(1393.660156 0)"/>
    <use xlink:href="#DejaVuSans-Bold-79" transform="translate(1465.681641 0)"/>
    <use xlink:href="#DejaVuSans-Bold-73" transform="translate(1530.867188 0)"/>
    <use xlink:href="#DejaVuSans-Bold-74" transform="translate(1590.388672 0)"/>
    <use xlink:href="#DejaVuSans-Bold-65" transform="translate(1638.191406 0)"/>
    <use xlink:href="#DejaVuSans-Bold-6d" transform="translate(1706.013672 0)"/>
    <use xlink:href="#DejaVuSans-Bold-20" transform="translate(1810.212891 0)"/>
    <use xlink:href="#DejaVuSans-Bold-76" transform="translate(1845.027344 0)"/>
    <use xlink:href="#DejaVuSans-Bold-73" transform="translate(1910.212891 0)"/>
    <use xlink:href="#DejaVuSans-Bold-2e" transform="translate(1969.734375 0)"/>
    <use xlink:href="#DejaVuSans-Bold-20" transform="translate(2007.722656 0)"/>
    <use xlink:href="#DejaVuSans-Bold-54" transform="translate(2042.537109 0)"/>
    <use xlink:href="#DejaVuSans-Bold-72" transform="translate(2099.75 0)"/>
    <use xlink:href="#DejaVuSans-Bold-61" transform="translate(2149.066406 0)"/>
    <use xlink:href="#DejaVuSans-Bold-63" transform="translate(2216.546875 0)"/>
    <use xlink:href="#DejaVuSans-Bold-65" transform="translate(2275.824219 0)"/>
    <use xlink:href="#DejaVuSans-Bold-64" transform="translate(2343.646484 0)"/>
    <use xlink:href="#DejaVuSans-Bold-20" transform="translate(2415.228516 0)"/>
    <use xlink:href="#DejaVuSans-Bold-52" transform="translate(2450.042969 0)"/>
    <use xlink:href="#DejaVuSans-Bold-48" transform="translate(2527.044922 0)"/>
    <use xlink:href="#DejaVuSans-Bold-41" transform="translate(2610.736328 0)"/>
    <use xlink:href="#DejaVuSans-Bold-4e" transform="translate(2688.128906 0)"/>
    <use xlink:href="#DejaVuSans-Bold-20" transform="translate(2771.820312 0)"/>
    <use xlink:href="#DejaVuSans-Bold-4d" transform="translate(2806.634766 0)"/>
    <use xlink:href="#DejaVuSans-Bold-61" transform="translate(2906.146484 0)"/>
    <use xlink:href="#DejaVuSans-Bold-70" transform="translate(2973.626953 0)"/>
    <use xlink:href="#DejaVuSans-Bold-70" transform="translate(3045.208984 0)"/>
    <use xlink:href="#DejaVuSans-Bold-69" transform="translate(3116.791016 0)"/>
    <use xlink:href="#DejaVuSans-Bold-6e" transform="translate(3151.068359 0)"/>
    <use xlink:href="#DejaVuSans-Bold-67" transform="translate(3222.259766 0)"/>
   </g>
  </g>
 </g>
 <defs>
  <clipPath id="p0d8790a64f">
   <rect x="7.2" y="31.68" width="770.4" height="458.64"/>
  </clipPath>
 </defs>
</svg>
