<?xml version="1.0" encoding="utf-8" standalone="no"?>
<!DOCTYPE svg PUBLIC "-//W3C//DTD SVG 1.1//EN"
  "http://www.w3.org/Graphics/SVG/1.1/DTD/svg11.dtd">
<svg xmlns:xlink="http://www.w3.org/1999/xlink" width="631.163077pt" height="640.8pt" viewBox="0 0 631.163077 640.8" xmlns="http://www.w3.org/2000/svg" version="1.1">
 <metadata>
  <rdf:RDF xmlns:dc="http://purl.org/dc/elements/1.1/" xmlns:cc="http://creativecommons.org/ns#" xmlns:rdf="http://www.w3.org/1999/02/22-rdf-syntax-ns#">
   <cc:Work>
    <dc:type rdf:resource="http://purl.org/dc/dcmitype/StillImage"/>
    <dc:date>2026-07-05T19:10:34.069712</dc:date>
    <dc:format>image/svg+xml</dc:format>
    <dc:creator>
     <cc:Agent>
      <dc:title>Matplotlib v3.10.9, https://matplotlib.org/</dc:title>
     </cc:Agent>
    </dc:creator>
   </cc:Work>
  </rdf:RDF>
 </metadata>
 <defs>
  <style type="text/css">*{stroke-linejoin: round; stroke-linecap: butt}</style>
 </defs>
 <g id="figure_1">
  <g id="patch_1">
   <path d="M 0 640.8 
L 631.163077 640.8 
L 631.163077 0 
L 0 0 
z
" style="fill: #ffffff"/>
  </g>
  <g id="axes_1">
   <g id="patch_2">
    <path d="M 233.667692 171.027692 
L 397.495385 171.027692 
L 397.495385 93.932308 
L 233.667692 93.932308 
z
" clip-path="url(#pb82561196b)" style="fill: #f8f9fa; stroke: #90a4ae; stroke-width: 1.2"/>
   </g>
   <g id="patch_3">
    <path d="M 369.954365 227.479481 
L 533.782058 227.479481 
L 533.782058 150.384096 
L 369.954365 150.384096 
z
" clip-path="url(#pb82561196b)" style="fill: #f8f9fa; stroke: #90a4ae; stroke-width: 1.2"/>
   </g>
   <g id="patch_4">
    <path d="M 426.406154 363.766154 
L 590.233846 363.766154 
L 590.233846 286.670769 
L 426.406154 286.670769 
z
" clip-path="url(#pb82561196b)" style="fill: #f8f9fa; stroke: #90a4ae; stroke-width: 1.2"/>
   </g>
   <g id="patch_5">
    <path d="M 369.954365 500.052827 
L 533.782058 500.052827 
L 533.782058 422.957442 
L 369.954365 422.957442 
z
" clip-path="url(#pb82561196b)" style="fill: #f8f9fa; stroke: #90a4ae; stroke-width: 1.2"/>
   </g>
   <g id="patch_6">
    <path d="M 233.667692 556.504615 
L 397.495385 556.504615 
L 397.495385 479.409231 
L 233.667692 479.409231 
z
" clip-path="url(#pb82561196b)" style="fill: #f8f9fa; stroke: #90a4ae; stroke-width: 1.2"/>
   </g>
   <g id="patch_7">
    <path d="M 97.381019 500.052827 
L 261.208711 500.052827 
L 261.208711 422.957442 
L 97.381019 422.957442 
z
" clip-path="url(#pb82561196b)" style="fill: #f8f9fa; stroke: #90a4ae; stroke-width: 1.2"/>
   </g>
   <g id="patch_8">
    <path d="M 40.929231 363.766154 
L 204.756923 363.766154 
L 204.756923 286.670769 
L 40.929231 286.670769 
z
" clip-path="url(#pb82561196b)" style="fill: #f8f9fa; stroke: #90a4ae; stroke-width: 1.2"/>
   </g>
   <g id="patch_9">
    <path d="M 97.381019 227.479481 
L 261.208711 227.479481 
L 261.208711 150.384096 
L 97.381019 150.384096 
z
" clip-path="url(#pb82561196b)" style="fill: #f8f9fa; stroke: #90a4ae; stroke-width: 1.2"/>
   </g>
   <g id="text_1">
    <!-- The RHAN Robustness Ecosystem -->
    <g transform="translate(183.448882 45.747692) scale(0.14 -0.14)">
     <defs>
      <path id="DejaVuSans-Bold-54" d="M 31 4666 
L 4331 4666 
L 4331 3756 
L 2784 3756 
L 2784 0 
L 1581 0 
L 1581 3756 
L 31 3756 
L 31 4666 
z
" transform="scale(0.015625)"/>
      <path id="DejaVuSans-Bold-68" d="M 4056 2131 
L 4056 0 
L 2931 0 
L 2931 347 
L 2931 1625 
Q 2931 2084 2911 2256 
Q 2891 2428 2841 2509 
Q 2775 2619 2662 2680 
Q 2550 2741 2406 2741 
Q 2056 2741 1856 2470 
Q 1656 2200 1656 1722 
L 1656 0 
L 538 0 
L 538 4863 
L 1656 4863 
L 1656 2988 
Q 1909 3294 2193 3439 
Q 2478 3584 2822 3584 
Q 3428 3584 3742 3212 
Q 4056 2841 4056 2131 
z
" transform="scale(0.015625)"/>
      <path id="DejaVuSans-Bold-65" d="M 4031 1759 
L 4031 1441 
L 1416 1441 
Q 1456 1047 1700 850 
Q 1944 653 2381 653 
Q 2734 653 3104 758 
Q 3475 863 3866 1075 
L 3866 213 
Q 3469 63 3072 -14 
Q 2675 -91 2278 -91 
Q 1328 -91 801 392 
Q 275 875 275 1747 
Q 275 2603 792 3093 
Q 1309 3584 2216 3584 
Q 3041 3584 3536 3087 
Q 4031 2591 4031 1759 
z
M 2881 2131 
Q 2881 2450 2695 2645 
Q 2509 2841 2209 2841 
Q 1884 2841 1681 2658 
Q 1478 2475 1428 2131 
L 2881 2131 
z
" transform="scale(0.015625)"/>
      <path id="DejaVuSans-Bold-20" transform="scale(0.015625)"/>
      <path id="DejaVuSans-Bold-52" d="M 2297 2597 
Q 2675 2597 2839 2737 
Q 3003 2878 3003 3200 
Q 3003 3519 2839 3656 
Q 2675 3794 2297 3794 
L 1791 3794 
L 1791 2597 
L 2297 2597 
z
M 1791 1766 
L 1791 0 
L 588 0 
L 588 4666 
L 2425 4666 
Q 3347 4666 3776 4356 
Q 4206 4047 4206 3378 
Q 4206 2916 3982 2619 
Q 3759 2322 3309 2181 
Q 3556 2125 3751 1926 
Q 3947 1728 4147 1325 
L 4800 0 
L 3519 0 
L 2950 1159 
Q 2778 1509 2601 1637 
Q 2425 1766 2131 1766 
L 1791 1766 
z
" transform="scale(0.015625)"/>
      <path id="DejaVuSans-Bold-48" d="M 588 4666 
L 1791 4666 
L 1791 2888 
L 3566 2888 
L 3566 4666 
L 4769 4666 
L 4769 0 
L 3566 0 
L 3566 1978 
L 1791 1978 
L 1791 0 
L 588 0 
L 588 4666 
z
" transform="scale(0.015625)"/>
      <path id="DejaVuSans-Bold-41" d="M 3419 850 
L 1538 850 
L 1241 0 
L 31 0 
L 1759 4666 
L 3194 4666 
L 4922 0 
L 3713 0 
L 3419 850 
z
M 1838 1716 
L 3116 1716 
L 2478 3572 
L 1838 1716 
z
" transform="scale(0.015625)"/>
      <path id="DejaVuSans-Bold-4e" d="M 588 4666 
L 1931 4666 
L 3628 1466 
L 3628 4666 
L 4769 4666 
L 4769 0 
L 3425 0 
L 1728 3200 
L 1728 0 
L 588 0 
L 588 4666 
z
" transform="scale(0.015625)"/>
      <path id="DejaVuSans-Bold-6f" d="M 2203 2784 
Q 1831 2784 1636 2517 
Q 1441 2250 1441 1747 
Q 1441 1244 1636 976 
Q 1831 709 2203 709 
Q 2569 709 2762 976 
Q 2956 1244 2956 1747 
Q 2956 2250 2762 2517 
Q 2569 2784 2203 2784 
z
M 2203 3584 
Q 3106 3584 3614 3096 
Q 4122 2609 4122 1747 
Q 4122 884 3614 396 
Q 3106 -91 2203 -91 
Q 1297 -91 786 396 
Q 275 884 275 1747 
Q 275 2609 786 3096 
Q 1297 3584 2203 3584 
z
" transform="scale(0.015625)"/>
      <path id="DejaVuSans-Bold-62" d="M 2400 722 
Q 2759 722 2948 984 
Q 3138 1247 3138 1747 
Q 3138 2247 2948 2509 
Q 2759 2772 2400 2772 
Q 2041 2772 1848 2508 
Q 1656 2244 1656 1747 
Q 1656 1250 1848 986 
Q 2041 722 2400 722 
z
M 1656 2988 
Q 1888 3294 2169 3439 
Q 2450 3584 2816 3584 
Q 3463 3584 3878 3070 
Q 4294 2556 4294 1747 
Q 4294 938 3878 423 
Q 3463 -91 2816 -91 
Q 2450 -91 2169 54 
Q 1888 200 1656 506 
L 1656 0 
L 538 0 
L 538 4863 
L 1656 4863 
L 1656 2988 
z
" transform="scale(0.015625)"/>
      <path id="DejaVuSans-Bold-75" d="M 500 1363 
L 500 3500 
L 1625 3500 
L 1625 3150 
Q 1625 2866 1622 2436 
Q 1619 2006 1619 1863 
Q 1619 1441 1641 1255 
Q 1663 1069 1716 984 
Q 1784 875 1895 815 
Q 2006 756 2150 756 
Q 2500 756 2700 1025 
Q 2900 1294 2900 1772 
L 2900 3500 
L 4019 3500 
L 4019 0 
L 2900 0 
L 2900 506 
Q 2647 200 2364 54 
Q 2081 -91 1741 -91 
Q 1134 -91 817 281 
Q 500 653 500 1363 
z
" transform="scale(0.015625)"/>
      <path id="DejaVuSans-Bold-73" d="M 3272 3391 
L 3272 2541 
Q 2913 2691 2578 2766 
Q 2244 2841 1947 2841 
Q 1628 2841 1473 2761 
Q 1319 2681 1319 2516 
Q 1319 2381 1436 2309 
Q 1553 2238 1856 2203 
L 2053 2175 
Q 2913 2066 3209 1816 
Q 3506 1566 3506 1031 
Q 3506 472 3093 190 
Q 2681 -91 1863 -91 
Q 1516 -91 1145 -36 
Q 775 19 384 128 
L 384 978 
Q 719 816 1070 734 
Q 1422 653 1784 653 
Q 2113 653 2278 743 
Q 2444 834 2444 1013 
Q 2444 1163 2330 1236 
Q 2216 1309 1875 1350 
L 1678 1375 
Q 931 1469 631 1722 
Q 331 1975 331 2491 
Q 331 3047 712 3315 
Q 1094 3584 1881 3584 
Q 2191 3584 2531 3537 
Q 2872 3491 3272 3391 
z
" transform="scale(0.015625)"/>
      <path id="DejaVuSans-Bold-74" d="M 1759 4494 
L 1759 3500 
L 2913 3500 
L 2913 2700 
L 1759 2700 
L 1759 1216 
Q 1759 972 1856 886 
Q 1953 800 2241 800 
L 2816 800 
L 2816 0 
L 1856 0 
Q 1194 0 917 276 
Q 641 553 641 1216 
L 641 2700 
L 84 2700 
L 84 3500 
L 641 3500 
L 641 4494 
L 1759 4494 
z
" transform="scale(0.015625)"/>
      <path id="DejaVuSans-Bold-6e" d="M 4056 2131 
L 4056 0 
L 2931 0 
L 2931 347 
L 2931 1631 
Q 2931 2084 2911 2256 
Q 2891 2428 2841 2509 
Q 2775 2619 2662 2680 
Q 2550 2741 2406 2741 
Q 2056 2741 1856 2470 
Q 1656 2200 1656 1722 
L 1656 0 
L 538 0 
L 538 3500 
L 1656 3500 
L 1656 2988 
Q 1909 3294 2193 3439 
Q 2478 3584 2822 3584 
Q 3428 3584 3742 3212 
Q 4056 2841 4056 2131 
z
" transform="scale(0.015625)"/>
      <path id="DejaVuSans-Bold-45" d="M 588 4666 
L 3834 4666 
L 3834 3756 
L 1791 3756 
L 1791 2888 
L 3713 2888 
L 3713 1978 
L 1791 1978 
L 1791 909 
L 3903 909 
L 3903 0 
L 588 0 
L 588 4666 
z
" transform="scale(0.015625)"/>
      <path id="DejaVuSans-Bold-63" d="M 3366 3391 
L 3366 2478 
Q 3138 2634 2908 2709 
Q 2678 2784 2431 2784 
Q 1963 2784 1702 2511 
Q 1441 2238 1441 1747 
Q 1441 1256 1702 982 
Q 1963 709 2431 709 
Q 2694 709 2930 787 
Q 3166 866 3366 1019 
L 3366 103 
Q 3103 6 2833 -42 
Q 2563 -91 2291 -91 
Q 1344 -91 809 395 
Q 275 881 275 1747 
Q 275 2613 809 3098 
Q 1344 3584 2291 3584 
Q 2566 3584 2833 3536 
Q 3100 3488 3366 3391 
z
" transform="scale(0.015625)"/>
      <path id="DejaVuSans-Bold-79" d="M 78 3500 
L 1197 3500 
L 2138 1125 
L 2938 3500 
L 4056 3500 
L 2584 -331 
Q 2363 -916 2067 -1148 
Q 1772 -1381 1288 -1381 
L 641 -1381 
L 641 -647 
L 991 -647 
Q 1275 -647 1404 -556 
Q 1534 -466 1606 -231 
L 1638 -134 
L 78 3500 
z
" transform="scale(0.015625)"/>
      <path id="DejaVuSans-Bold-6d" d="M 3781 2919 
Q 3994 3244 4286 3414 
Q 4578 3584 4928 3584 
Q 5531 3584 5847 3212 
Q 6163 2841 6163 2131 
L 6163 0 
L 5038 0 
L 5038 1825 
Q 5041 1866 5042 1909 
Q 5044 1953 5044 2034 
Q 5044 2406 4934 2573 
Q 4825 2741 4581 2741 
Q 4263 2741 4089 2478 
Q 3916 2216 3909 1719 
L 3909 0 
L 2784 0 
L 2784 1825 
Q 2784 2406 2684 2573 
Q 2584 2741 2328 2741 
Q 2006 2741 1831 2477 
Q 1656 2213 1656 1722 
L 1656 0 
L 531 0 
L 531 3500 
L 1656 3500 
L 1656 2988 
Q 1863 3284 2130 3434 
Q 2397 3584 2719 3584 
Q 3081 3584 3359 3409 
Q 3638 3234 3781 2919 
z
" transform="scale(0.015625)"/>
     </defs>
     <use xlink:href="#DejaVuSans-Bold-54"/>
     <use xlink:href="#DejaVuSans-Bold-68" transform="translate(68.212891 0)"/>
     <use xlink:href="#DejaVuSans-Bold-65" transform="translate(139.404297 0)"/>
     <use xlink:href="#DejaVuSans-Bold-20" transform="translate(207.226562 0)"/>
     <use xlink:href="#DejaVuSans-Bold-52" transform="translate(242.041016 0)"/>
     <use xlink:href="#DejaVuSans-Bold-48" transform="translate(319.042969 0)"/>
     <use xlink:href="#DejaVuSans-Bold-41" transform="translate(402.734375 0)"/>
     <use xlink:href="#DejaVuSans-Bold-4e" transform="translate(480.126953 0)"/>
     <use xlink:href="#DejaVuSans-Bold-20" transform="translate(563.818359 0)"/>
     <use xlink:href="#DejaVuSans-Bold-52" transform="translate(598.632812 0)"/>
     <use xlink:href="#DejaVuSans-Bold-6f" transform="translate(675.634766 0)"/>
     <use xlink:href="#DejaVuSans-Bold-62" transform="translate(744.335938 0)"/>
     <use xlink:href="#DejaVuSans-Bold-75" transform="translate(815.917969 0)"/>
     <use xlink:href="#DejaVuSans-Bold-73" transform="translate(887.109375 0)"/>
     <use xlink:href="#DejaVuSans-Bold-74" transform="translate(946.630859 0)"/>
     <use xlink:href="#DejaVuSans-Bold-6e" transform="translate(994.433594 0)"/>
     <use xlink:href="#DejaVuSans-Bold-65" transform="translate(1065.625 0)"/>
     <use xlink:href="#DejaVuSans-Bold-73" transform="translate(1133.447266 0)"/>
     <use xlink:href="#DejaVuSans-Bold-73" transform="translate(1192.96875 0)"/>
     <use xlink:href="#DejaVuSans-Bold-20" transform="translate(1252.490234 0)"/>
     <use xlink:href="#DejaVuSans-Bold-45" transform="translate(1287.304688 0)"/>
     <use xlink:href="#DejaVuSans-Bold-63" transform="translate(1355.615234 0)"/>
     <use xlink:href="#DejaVuSans-Bold-6f" transform="translate(1414.892578 0)"/>
     <use xlink:href="#DejaVuSans-Bold-73" transform="translate(1483.59375 0)"/>
     <use xlink:href="#DejaVuSans-Bold-79" transform="translate(1543.115234 0)"/>
     <use xlink:href="#DejaVuSans-Bold-73" transform="translate(1608.300781 0)"/>
     <use xlink:href="#DejaVuSans-Bold-74" transform="translate(1667.822266 0)"/>
     <use xlink:href="#DejaVuSans-Bold-65" transform="translate(1715.625 0)"/>
     <use xlink:href="#DejaVuSans-Bold-6d" transform="translate(1783.447266 0)"/>
    </g>
   </g>
   <g id="patch_10">
    <path d="M 315.581538 398.459077 
C 335.005177 398.459077 353.635888 390.741984 367.370474 377.007397 
C 381.105061 363.272811 388.822154 344.6421 388.822154 325.218462 
C 388.822154 305.794823 381.105061 287.164112 367.370474 273.429526 
C 353.635888 259.694939 335.005177 251.977846 315.581538 251.977846 
C 296.1579 251.977846 277.527189 259.694939 263.792603 273.429526 
C 250.058016 287.164112 242.340923 305.794823 242.340923 325.218462 
C 242.340923 344.6421 250.058016 363.272811 263.792603 377.007397 
C 277.527189 390.741984 296.1579 398.459077 315.581538 398.459077 
z
" clip-path="url(#pb82561196b)" style="fill: #e3f2fd; stroke: #1f77b4; stroke-width: 3; stroke-linejoin: miter"/>
   </g>
   <g id="text_2">
    <!-- SAIL Invariance -->
    <g style="fill: #111111" transform="translate(273.991578 135.101406) scale(0.095 -0.095)">
     <defs>
      <path id="DejaVuSans-Bold-53" d="M 3834 4519 
L 3834 3531 
Q 3450 3703 3084 3790 
Q 2719 3878 2394 3878 
Q 1963 3878 1756 3759 
Q 1550 3641 1550 3391 
Q 1550 3203 1689 3098 
Q 1828 2994 2194 2919 
L 2706 2816 
Q 3484 2659 3812 2340 
Q 4141 2022 4141 1434 
Q 4141 663 3683 286 
Q 3225 -91 2284 -91 
Q 1841 -91 1394 -6 
Q 947 78 500 244 
L 500 1259 
Q 947 1022 1364 901 
Q 1781 781 2169 781 
Q 2563 781 2772 912 
Q 2981 1044 2981 1288 
Q 2981 1506 2839 1625 
Q 2697 1744 2272 1838 
L 1806 1941 
Q 1106 2091 782 2419 
Q 459 2747 459 3303 
Q 459 4000 909 4375 
Q 1359 4750 2203 4750 
Q 2588 4750 2994 4692 
Q 3400 4634 3834 4519 
z
" transform="scale(0.015625)"/>
      <path id="DejaVuSans-Bold-49" d="M 588 4666 
L 1791 4666 
L 1791 0 
L 588 0 
L 588 4666 
z
" transform="scale(0.015625)"/>
      <path id="DejaVuSans-Bold-4c" d="M 588 4666 
L 1791 4666 
L 1791 909 
L 3903 909 
L 3903 0 
L 588 0 
L 588 4666 
z
" transform="scale(0.015625)"/>
      <path id="DejaVuSans-Bold-76" d="M 97 3500 
L 1216 3500 
L 2088 1081 
L 2956 3500 
L 4078 3500 
L 2700 0 
L 1472 0 
L 97 3500 
z
" transform="scale(0.015625)"/>
      <path id="DejaVuSans-Bold-61" d="M 2106 1575 
Q 1756 1575 1579 1456 
Q 1403 1338 1403 1106 
Q 1403 894 1545 773 
Q 1688 653 1941 653 
Q 2256 653 2472 879 
Q 2688 1106 2688 1447 
L 2688 1575 
L 2106 1575 
z
M 3816 1997 
L 3816 0 
L 2688 0 
L 2688 519 
Q 2463 200 2181 54 
Q 1900 -91 1497 -91 
Q 953 -91 614 226 
Q 275 544 275 1050 
Q 275 1666 698 1953 
Q 1122 2241 2028 2241 
L 2688 2241 
L 2688 2328 
Q 2688 2594 2478 2717 
Q 2269 2841 1825 2841 
Q 1466 2841 1156 2769 
Q 847 2697 581 2553 
L 581 3406 
Q 941 3494 1303 3539 
Q 1666 3584 2028 3584 
Q 2975 3584 3395 3211 
Q 3816 2838 3816 1997 
z
" transform="scale(0.015625)"/>
      <path id="DejaVuSans-Bold-72" d="M 3138 2547 
Q 2991 2616 2845 2648 
Q 2700 2681 2553 2681 
Q 2122 2681 1889 2404 
Q 1656 2128 1656 1613 
L 1656 0 
L 538 0 
L 538 3500 
L 1656 3500 
L 1656 2925 
Q 1872 3269 2151 3426 
Q 2431 3584 2822 3584 
Q 2878 3584 2943 3579 
Q 3009 3575 3134 3559 
L 3138 2547 
z
" transform="scale(0.015625)"/>
      <path id="DejaVuSans-Bold-69" d="M 538 3500 
L 1656 3500 
L 1656 0 
L 538 0 
L 538 3500 
z
M 538 4863 
L 1656 4863 
L 1656 3950 
L 538 3950 
L 538 4863 
z
" transform="scale(0.015625)"/>
     </defs>
     <use xlink:href="#DejaVuSans-Bold-53"/>
     <use xlink:href="#DejaVuSans-Bold-41" transform="translate(72.021484 0)"/>
     <use xlink:href="#DejaVuSans-Bold-49" transform="translate(149.414062 0)"/>
     <use xlink:href="#DejaVuSans-Bold-4c" transform="translate(186.621094 0)"/>
     <use xlink:href="#DejaVuSans-Bold-20" transform="translate(250.341797 0)"/>
     <use xlink:href="#DejaVuSans-Bold-49" transform="translate(285.15625 0)"/>
     <use xlink:href="#DejaVuSans-Bold-6e" transform="translate(322.363281 0)"/>
     <use xlink:href="#DejaVuSans-Bold-76" transform="translate(393.554688 0)"/>
     <use xlink:href="#DejaVuSans-Bold-61" transform="translate(458.740234 0)"/>
     <use xlink:href="#DejaVuSans-Bold-72" transform="translate(526.220703 0)"/>
     <use xlink:href="#DejaVuSans-Bold-69" transform="translate(575.537109 0)"/>
     <use xlink:href="#DejaVuSans-Bold-61" transform="translate(609.814453 0)"/>
     <use xlink:href="#DejaVuSans-Bold-6e" transform="translate(677.294922 0)"/>
     <use xlink:href="#DejaVuSans-Bold-63" transform="translate(748.486328 0)"/>
     <use xlink:href="#DejaVuSans-Bold-65" transform="translate(807.763672 0)"/>
    </g>
   </g>
   <g id="text_3">
    <!-- Self-supervised feature mapping -->
    <g style="fill: #555555" transform="translate(264.893632 176.809846) scale(0.062 -0.062)">
     <defs>
      <path id="DejaVuSans-Oblique-53" d="M 3859 4513 
L 3738 3897 
Q 3422 4066 3111 4152 
Q 2800 4238 2509 4238 
Q 1944 4238 1609 3991 
Q 1275 3744 1275 3334 
Q 1275 3109 1398 2989 
Q 1522 2869 2034 2731 
L 2413 2638 
Q 3053 2472 3303 2217 
Q 3553 1963 3553 1503 
Q 3553 797 2998 353 
Q 2444 -91 1538 -91 
Q 1166 -91 791 -17 
Q 416 56 38 206 
L 166 856 
Q 513 641 861 531 
Q 1209 422 1556 422 
Q 2147 422 2503 684 
Q 2859 947 2859 1369 
Q 2859 1650 2717 1795 
Q 2575 1941 2106 2059 
L 1728 2156 
Q 1081 2325 845 2545 
Q 609 2766 609 3163 
Q 609 3859 1145 4304 
Q 1681 4750 2541 4750 
Q 2875 4750 3203 4690 
Q 3531 4631 3859 4513 
z
" transform="scale(0.015625)"/>
      <path id="DejaVuSans-Oblique-65" d="M 3078 2063 
Q 3088 2113 3092 2166 
Q 3097 2219 3097 2272 
Q 3097 2653 2873 2875 
Q 2650 3097 2266 3097 
Q 1838 3097 1509 2826 
Q 1181 2556 1013 2059 
L 3078 2063 
z
M 3578 1613 
L 903 1613 
Q 884 1494 878 1425 
Q 872 1356 872 1306 
Q 872 872 1139 634 
Q 1406 397 1894 397 
Q 2269 397 2603 481 
Q 2938 566 3225 728 
L 3116 159 
Q 2806 34 2476 -28 
Q 2147 -91 1806 -91 
Q 1078 -91 686 257 
Q 294 606 294 1247 
Q 294 1794 489 2264 
Q 684 2734 1063 3103 
Q 1306 3334 1642 3459 
Q 1978 3584 2356 3584 
Q 2950 3584 3301 3228 
Q 3653 2872 3653 2272 
Q 3653 2128 3634 1964 
Q 3616 1800 3578 1613 
z
" transform="scale(0.015625)"/>
      <path id="DejaVuSans-Oblique-6c" d="M 1172 4863 
L 1747 4863 
L 800 0 
L 225 0 
L 1172 4863 
z
" transform="scale(0.015625)"/>
      <path id="DejaVuSans-Oblique-66" d="M 3059 4863 
L 2969 4384 
L 2419 4384 
Q 2106 4384 1964 4261 
Q 1822 4138 1753 3809 
L 1691 3500 
L 2638 3500 
L 2553 3053 
L 1606 3053 
L 1013 0 
L 434 0 
L 1031 3053 
L 481 3053 
L 563 3500 
L 1113 3500 
L 1159 3744 
Q 1278 4363 1576 4613 
Q 1875 4863 2516 4863 
L 3059 4863 
z
" transform="scale(0.015625)"/>
      <path id="DejaVuSans-Oblique-2d" d="M 391 2009 
L 2075 2009 
L 1978 1497 
L 288 1497 
L 391 2009 
z
" transform="scale(0.015625)"/>
      <path id="DejaVuSans-Oblique-73" d="M 3200 3397 
L 3091 2853 
Q 2863 2978 2609 3040 
Q 2356 3103 2088 3103 
Q 1634 3103 1373 2948 
Q 1113 2794 1113 2528 
Q 1113 2219 1719 2053 
Q 1766 2041 1788 2034 
L 1972 1978 
Q 2547 1819 2739 1644 
Q 2931 1469 2931 1166 
Q 2931 609 2489 259 
Q 2047 -91 1331 -91 
Q 1053 -91 747 -37 
Q 441 16 72 128 
L 184 722 
Q 500 559 806 475 
Q 1113 391 1394 391 
Q 1816 391 2080 572 
Q 2344 753 2344 1031 
Q 2344 1331 1650 1516 
L 1591 1531 
L 1394 1581 
Q 956 1697 753 1886 
Q 550 2075 550 2369 
Q 550 2928 970 3256 
Q 1391 3584 2113 3584 
Q 2397 3584 2667 3537 
Q 2938 3491 3200 3397 
z
" transform="scale(0.015625)"/>
      <path id="DejaVuSans-Oblique-75" d="M 428 1388 
L 838 3500 
L 1416 3500 
L 1006 1409 
Q 975 1256 961 1147 
Q 947 1038 947 966 
Q 947 700 1109 554 
Q 1272 409 1569 409 
Q 2031 409 2368 721 
Q 2706 1034 2809 1563 
L 3194 3500 
L 3769 3500 
L 3091 0 
L 2516 0 
L 2631 550 
Q 2388 244 2052 76 
Q 1716 -91 1338 -91 
Q 878 -91 622 161 
Q 366 413 366 863 
Q 366 956 381 1097 
Q 397 1238 428 1388 
z
" transform="scale(0.015625)"/>
      <path id="DejaVuSans-Oblique-70" d="M 3175 2156 
Q 3175 2616 2975 2859 
Q 2775 3103 2400 3103 
Q 2144 3103 1911 2972 
Q 1678 2841 1497 2591 
Q 1319 2344 1212 1994 
Q 1106 1644 1106 1300 
Q 1106 863 1306 627 
Q 1506 391 1875 391 
Q 2147 391 2380 519 
Q 2613 647 2778 891 
Q 2956 1147 3065 1494 
Q 3175 1841 3175 2156 
z
M 1394 2969 
Q 1625 3272 1939 3428 
Q 2253 3584 2638 3584 
Q 3175 3584 3472 3232 
Q 3769 2881 3769 2247 
Q 3769 1728 3584 1258 
Q 3400 788 3053 416 
Q 2822 169 2531 39 
Q 2241 -91 1919 -91 
Q 1547 -91 1294 64 
Q 1041 219 916 525 
L 556 -1331 
L -19 -1331 
L 922 3500 
L 1497 3500 
L 1394 2969 
z
" transform="scale(0.015625)"/>
      <path id="DejaVuSans-Oblique-72" d="M 2853 2969 
Q 2766 3016 2653 3041 
Q 2541 3066 2413 3066 
Q 1953 3066 1609 2717 
Q 1266 2369 1153 1784 
L 800 0 
L 225 0 
L 909 3500 
L 1484 3500 
L 1375 2956 
Q 1603 3259 1920 3421 
Q 2238 3584 2597 3584 
Q 2691 3584 2781 3573 
Q 2872 3563 2963 3538 
L 2853 2969 
z
" transform="scale(0.015625)"/>
      <path id="DejaVuSans-Oblique-76" d="M 459 3500 
L 1069 3500 
L 1581 525 
L 3256 3500 
L 3866 3500 
L 1875 0 
L 1100 0 
L 459 3500 
z
" transform="scale(0.015625)"/>
      <path id="DejaVuSans-Oblique-69" d="M 1172 4863 
L 1747 4863 
L 1606 4134 
L 1031 4134 
L 1172 4863 
z
M 909 3500 
L 1484 3500 
L 800 0 
L 225 0 
L 909 3500 
z
" transform="scale(0.015625)"/>
      <path id="DejaVuSans-Oblique-64" d="M 2675 525 
Q 2444 222 2128 65 
Q 1813 -91 1428 -91 
Q 903 -91 598 267 
Q 294 625 294 1247 
Q 294 1766 478 2236 
Q 663 2706 1013 3078 
Q 1244 3325 1534 3454 
Q 1825 3584 2144 3584 
Q 2481 3584 2739 3421 
Q 2997 3259 3138 2956 
L 3513 4863 
L 4091 4863 
L 3144 0 
L 2566 0 
L 2675 525 
z
M 891 1350 
Q 891 897 1095 644 
Q 1300 391 1663 391 
Q 1931 391 2161 520 
Q 2391 650 2566 903 
Q 2750 1166 2856 1509 
Q 2963 1853 2963 2188 
Q 2963 2622 2758 2865 
Q 2553 3109 2194 3109 
Q 1922 3109 1687 2981 
Q 1453 2853 1288 2613 
Q 1106 2353 998 2009 
Q 891 1666 891 1350 
z
" transform="scale(0.015625)"/>
      <path id="DejaVuSans-Oblique-20" transform="scale(0.015625)"/>
      <path id="DejaVuSans-Oblique-61" d="M 3438 1997 
L 3047 0 
L 2472 0 
L 2578 531 
Q 2325 219 2001 64 
Q 1678 -91 1281 -91 
Q 834 -91 548 182 
Q 263 456 263 884 
Q 263 1497 752 1853 
Q 1241 2209 2100 2209 
L 2900 2209 
L 2931 2363 
Q 2938 2388 2941 2417 
Q 2944 2447 2944 2509 
Q 2944 2788 2717 2942 
Q 2491 3097 2081 3097 
Q 1800 3097 1504 3025 
Q 1209 2953 897 2809 
L 997 3341 
Q 1322 3463 1633 3523 
Q 1944 3584 2234 3584 
Q 2853 3584 3176 3315 
Q 3500 3047 3500 2534 
Q 3500 2431 3484 2292 
Q 3469 2153 3438 1997 
z
M 2816 1759 
L 2241 1759 
Q 1534 1759 1195 1570 
Q 856 1381 856 984 
Q 856 709 1029 553 
Q 1203 397 1509 397 
Q 1978 397 2328 733 
Q 2678 1069 2791 1631 
L 2816 1759 
z
" transform="scale(0.015625)"/>
      <path id="DejaVuSans-Oblique-74" d="M 2706 3500 
L 2619 3053 
L 1472 3053 
L 1100 1153 
Q 1081 1047 1072 975 
Q 1063 903 1063 863 
Q 1063 663 1183 572 
Q 1303 481 1569 481 
L 2150 481 
L 2053 0 
L 1503 0 
Q 991 0 739 200 
Q 488 400 488 806 
Q 488 878 497 964 
Q 506 1050 525 1153 
L 897 3053 
L 409 3053 
L 500 3500 
L 978 3500 
L 1172 4494 
L 1747 4494 
L 1556 3500 
L 2706 3500 
z
" transform="scale(0.015625)"/>
      <path id="DejaVuSans-Oblique-6d" d="M 5747 2113 
L 5338 0 
L 4763 0 
L 5166 2094 
Q 5191 2228 5203 2325 
Q 5216 2422 5216 2491 
Q 5216 2772 5059 2928 
Q 4903 3084 4622 3084 
Q 4203 3084 3875 2770 
Q 3547 2456 3450 1953 
L 3066 0 
L 2491 0 
L 2900 2094 
Q 2925 2209 2937 2307 
Q 2950 2406 2950 2484 
Q 2950 2769 2794 2926 
Q 2638 3084 2363 3084 
Q 1938 3084 1609 2770 
Q 1281 2456 1184 1953 
L 800 0 
L 225 0 
L 909 3500 
L 1484 3500 
L 1375 2956 
Q 1609 3263 1923 3423 
Q 2238 3584 2597 3584 
Q 2978 3584 3223 3384 
Q 3469 3184 3519 2828 
Q 3781 3197 4126 3390 
Q 4472 3584 4856 3584 
Q 5306 3584 5551 3325 
Q 5797 3066 5797 2591 
Q 5797 2488 5784 2364 
Q 5772 2241 5747 2113 
z
" transform="scale(0.015625)"/>
      <path id="DejaVuSans-Oblique-6e" d="M 3566 2113 
L 3156 0 
L 2578 0 
L 2988 2091 
Q 3016 2238 3031 2350 
Q 3047 2463 3047 2528 
Q 3047 2791 2881 2937 
Q 2716 3084 2419 3084 
Q 1956 3084 1622 2776 
Q 1288 2469 1184 1941 
L 800 0 
L 225 0 
L 903 3500 
L 1478 3500 
L 1363 2950 
Q 1603 3253 1940 3418 
Q 2278 3584 2650 3584 
Q 3113 3584 3367 3334 
Q 3622 3084 3622 2631 
Q 3622 2519 3608 2391 
Q 3594 2263 3566 2113 
z
" transform="scale(0.015625)"/>
      <path id="DejaVuSans-Oblique-67" d="M 3816 3500 
L 3219 434 
Q 3047 -456 2561 -893 
Q 2075 -1331 1253 -1331 
Q 950 -1331 690 -1286 
Q 431 -1241 206 -1147 
L 313 -588 
Q 525 -725 762 -790 
Q 1000 -856 1269 -856 
Q 1816 -856 2167 -557 
Q 2519 -259 2631 300 
L 2681 563 
Q 2441 288 2122 144 
Q 1803 0 1434 0 
Q 903 0 598 351 
Q 294 703 294 1319 
Q 294 1803 478 2267 
Q 663 2731 997 3091 
Q 1219 3328 1514 3456 
Q 1809 3584 2131 3584 
Q 2484 3584 2746 3420 
Q 3009 3256 3138 2956 
L 3238 3500 
L 3816 3500 
z
M 2950 2216 
Q 2950 2641 2750 2872 
Q 2550 3103 2181 3103 
Q 1953 3103 1747 3012 
Q 1541 2922 1394 2759 
Q 1156 2491 1023 2127 
Q 891 1763 891 1375 
Q 891 944 1092 712 
Q 1294 481 1672 481 
Q 2219 481 2584 976 
Q 2950 1472 2950 2216 
z
" transform="scale(0.015625)"/>
     </defs>
     <use xlink:href="#DejaVuSans-Oblique-53"/>
     <use xlink:href="#DejaVuSans-Oblique-65" transform="translate(63.476562 0)"/>
     <use xlink:href="#DejaVuSans-Oblique-6c" transform="translate(125 0)"/>
     <use xlink:href="#DejaVuSans-Oblique-66" transform="translate(152.783203 0)"/>
     <use xlink:href="#DejaVuSans-Oblique-2d" transform="translate(186.238281 0)"/>
     <use xlink:href="#DejaVuSans-Oblique-73" transform="translate(222.322266 0)"/>
     <use xlink:href="#DejaVuSans-Oblique-75" transform="translate(274.421875 0)"/>
     <use xlink:href="#DejaVuSans-Oblique-70" transform="translate(337.800781 0)"/>
     <use xlink:href="#DejaVuSans-Oblique-65" transform="translate(401.277344 0)"/>
     <use xlink:href="#DejaVuSans-Oblique-72" transform="translate(462.800781 0)"/>
     <use xlink:href="#DejaVuSans-Oblique-76" transform="translate(503.914062 0)"/>
     <use xlink:href="#DejaVuSans-Oblique-69" transform="translate(563.09375 0)"/>
     <use xlink:href="#DejaVuSans-Oblique-73" transform="translate(590.876953 0)"/>
     <use xlink:href="#DejaVuSans-Oblique-65" transform="translate(642.976562 0)"/>
     <use xlink:href="#DejaVuSans-Oblique-64" transform="translate(704.5 0)"/>
     <use xlink:href="#DejaVuSans-Oblique-20" transform="translate(767.976562 0)"/>
     <use xlink:href="#DejaVuSans-Oblique-66" transform="translate(799.763672 0)"/>
     <use xlink:href="#DejaVuSans-Oblique-65" transform="translate(834.96875 0)"/>
     <use xlink:href="#DejaVuSans-Oblique-61" transform="translate(896.492188 0)"/>
     <use xlink:href="#DejaVuSans-Oblique-74" transform="translate(957.771484 0)"/>
     <use xlink:href="#DejaVuSans-Oblique-75" transform="translate(996.980469 0)"/>
     <use xlink:href="#DejaVuSans-Oblique-72" transform="translate(1060.359375 0)"/>
     <use xlink:href="#DejaVuSans-Oblique-65" transform="translate(1101.472656 0)"/>
     <use xlink:href="#DejaVuSans-Oblique-20" transform="translate(1162.996094 0)"/>
     <use xlink:href="#DejaVuSans-Oblique-6d" transform="translate(1194.783203 0)"/>
     <use xlink:href="#DejaVuSans-Oblique-61" transform="translate(1292.195312 0)"/>
     <use xlink:href="#DejaVuSans-Oblique-70" transform="translate(1353.474609 0)"/>
     <use xlink:href="#DejaVuSans-Oblique-70" transform="translate(1416.951172 0)"/>
     <use xlink:href="#DejaVuSans-Oblique-69" transform="translate(1480.427734 0)"/>
     <use xlink:href="#DejaVuSans-Oblique-6e" transform="translate(1508.210938 0)"/>
     <use xlink:href="#DejaVuSans-Oblique-67" transform="translate(1571.589844 0)"/>
    </g>
   </g>
   <g id="patch_11">
    <path d="M 315.581538 182.667759 
Q 315.581538 215.357664 315.581538 246.705929 
" style="fill: none; stroke: #78909c; stroke-width: 1.2; stroke-linecap: round"/>
    <path d="M 317.981538 241.905929 
L 315.581538 246.705929 
L 313.181538 241.905929 
z
" style="fill: #78909c; stroke: #78909c; stroke-width: 1.2; stroke-linecap: round"/>
   </g>
   <g id="text_4">
    <!-- TDV Consistency -->
    <g style="fill: #111111" transform="translate(407.155868 191.516085) scale(0.095 -0.095)">
     <defs>
      <path id="DejaVuSans-Bold-44" d="M 1791 3756 
L 1791 909 
L 2222 909 
Q 2959 909 3348 1275 
Q 3738 1641 3738 2338 
Q 3738 3031 3350 3393 
Q 2963 3756 2222 3756 
L 1791 3756 
z
M 588 4666 
L 1856 4666 
Q 2919 4666 3439 4514 
Q 3959 4363 4331 4000 
Q 4659 3684 4818 3271 
Q 4978 2859 4978 2338 
Q 4978 1809 4818 1395 
Q 4659 981 4331 666 
Q 3956 303 3431 151 
Q 2906 0 1856 0 
L 588 0 
L 588 4666 
z
" transform="scale(0.015625)"/>
      <path id="DejaVuSans-Bold-56" d="M 31 4666 
L 1241 4666 
L 2478 1222 
L 3713 4666 
L 4922 4666 
L 3194 0 
L 1759 0 
L 31 4666 
z
" transform="scale(0.015625)"/>
      <path id="DejaVuSans-Bold-43" d="M 4288 256 
Q 3956 84 3597 -3 
Q 3238 -91 2847 -91 
Q 1681 -91 1000 561 
Q 319 1213 319 2328 
Q 319 3447 1000 4098 
Q 1681 4750 2847 4750 
Q 3238 4750 3597 4662 
Q 3956 4575 4288 4403 
L 4288 3438 
Q 3953 3666 3628 3772 
Q 3303 3878 2944 3878 
Q 2300 3878 1931 3465 
Q 1563 3053 1563 2328 
Q 1563 1606 1931 1193 
Q 2300 781 2944 781 
Q 3303 781 3628 887 
Q 3953 994 4288 1222 
L 4288 256 
z
" transform="scale(0.015625)"/>
     </defs>
     <use xlink:href="#DejaVuSans-Bold-54"/>
     <use xlink:href="#DejaVuSans-Bold-44" transform="translate(68.212891 0)"/>
     <use xlink:href="#DejaVuSans-Bold-56" transform="translate(151.220703 0)"/>
     <use xlink:href="#DejaVuSans-Bold-20" transform="translate(228.613281 0)"/>
     <use xlink:href="#DejaVuSans-Bold-43" transform="translate(263.427734 0)"/>
     <use xlink:href="#DejaVuSans-Bold-6f" transform="translate(336.816406 0)"/>
     <use xlink:href="#DejaVuSans-Bold-6e" transform="translate(405.517578 0)"/>
     <use xlink:href="#DejaVuSans-Bold-73" transform="translate(476.708984 0)"/>
     <use xlink:href="#DejaVuSans-Bold-69" transform="translate(536.230469 0)"/>
     <use xlink:href="#DejaVuSans-Bold-73" transform="translate(570.507812 0)"/>
     <use xlink:href="#DejaVuSans-Bold-74" transform="translate(630.029297 0)"/>
     <use xlink:href="#DejaVuSans-Bold-65" transform="translate(677.832031 0)"/>
     <use xlink:href="#DejaVuSans-Bold-6e" transform="translate(745.654297 0)"/>
     <use xlink:href="#DejaVuSans-Bold-63" transform="translate(816.845703 0)"/>
     <use xlink:href="#DejaVuSans-Bold-79" transform="translate(876.123047 0)"/>
    </g>
   </g>
   <g id="text_5">
    <!-- Video temporal difference -->
    <g style="fill: #555555" transform="translate(411.423383 233.261635) scale(0.062 -0.062)">
     <defs>
      <path id="DejaVuSans-Oblique-56" d="M 1319 0 
L 500 4666 
L 1119 4666 
L 1797 653 
L 4063 4666 
L 4750 4666 
L 2053 0 
L 1319 0 
z
" transform="scale(0.015625)"/>
      <path id="DejaVuSans-Oblique-6f" d="M 1625 -91 
Q 1009 -91 651 289 
Q 294 669 294 1325 
Q 294 1706 417 2101 
Q 541 2497 738 2766 
Q 1047 3184 1428 3384 
Q 1809 3584 2291 3584 
Q 2888 3584 3255 3212 
Q 3622 2841 3622 2241 
Q 3622 1825 3500 1412 
Q 3378 1000 3181 728 
Q 2875 309 2494 109 
Q 2113 -91 1625 -91 
z
M 891 1344 
Q 891 869 1089 633 
Q 1288 397 1691 397 
Q 2269 397 2648 901 
Q 3028 1406 3028 2181 
Q 3028 2634 2825 2865 
Q 2622 3097 2228 3097 
Q 1903 3097 1650 2945 
Q 1397 2794 1197 2484 
Q 1050 2253 970 1956 
Q 891 1659 891 1344 
z
" transform="scale(0.015625)"/>
      <path id="DejaVuSans-Oblique-63" d="M 3431 3366 
L 3316 2797 
Q 3109 2947 2876 3022 
Q 2644 3097 2394 3097 
Q 2119 3097 1870 3000 
Q 1622 2903 1453 2725 
Q 1184 2453 1037 2087 
Q 891 1722 891 1331 
Q 891 859 1127 628 
Q 1363 397 1844 397 
Q 2081 397 2348 469 
Q 2616 541 2906 684 
L 2797 116 
Q 2547 13 2283 -39 
Q 2019 -91 1741 -91 
Q 1044 -91 669 257 
Q 294 606 294 1253 
Q 294 1797 489 2255 
Q 684 2713 1069 3078 
Q 1331 3328 1684 3456 
Q 2038 3584 2456 3584 
Q 2700 3584 2940 3529 
Q 3181 3475 3431 3366 
z
" transform="scale(0.015625)"/>
     </defs>
     <use xlink:href="#DejaVuSans-Oblique-56"/>
     <use xlink:href="#DejaVuSans-Oblique-69" transform="translate(68.408203 0)"/>
     <use xlink:href="#DejaVuSans-Oblique-64" transform="translate(96.191406 0)"/>
     <use xlink:href="#DejaVuSans-Oblique-65" transform="translate(159.667969 0)"/>
     <use xlink:href="#DejaVuSans-Oblique-6f" transform="translate(221.191406 0)"/>
     <use xlink:href="#DejaVuSans-Oblique-20" transform="translate(282.373047 0)"/>
     <use xlink:href="#DejaVuSans-Oblique-74" transform="translate(314.160156 0)"/>
     <use xlink:href="#DejaVuSans-Oblique-65" transform="translate(353.369141 0)"/>
     <use xlink:href="#DejaVuSans-Oblique-6d" transform="translate(414.892578 0)"/>
     <use xlink:href="#DejaVuSans-Oblique-70" transform="translate(512.304688 0)"/>
     <use xlink:href="#DejaVuSans-Oblique-6f" transform="translate(575.78125 0)"/>
     <use xlink:href="#DejaVuSans-Oblique-72" transform="translate(636.962891 0)"/>
     <use xlink:href="#DejaVuSans-Oblique-61" transform="translate(678.076172 0)"/>
     <use xlink:href="#DejaVuSans-Oblique-6c" transform="translate(739.355469 0)"/>
     <use xlink:href="#DejaVuSans-Oblique-20" transform="translate(767.138672 0)"/>
     <use xlink:href="#DejaVuSans-Oblique-64" transform="translate(798.925781 0)"/>
     <use xlink:href="#DejaVuSans-Oblique-69" transform="translate(862.402344 0)"/>
     <use xlink:href="#DejaVuSans-Oblique-66" transform="translate(890.185547 0)"/>
     <use xlink:href="#DejaVuSans-Oblique-66" transform="translate(925.390625 0)"/>
     <use xlink:href="#DejaVuSans-Oblique-65" transform="translate(960.595703 0)"/>
     <use xlink:href="#DejaVuSans-Oblique-72" transform="translate(1022.119141 0)"/>
     <use xlink:href="#DejaVuSans-Oblique-65" transform="translate(1063.232422 0)"/>
     <use xlink:href="#DejaVuSans-Oblique-6e" transform="translate(1124.755859 0)"/>
     <use xlink:href="#DejaVuSans-Oblique-63" transform="translate(1188.134766 0)"/>
     <use xlink:href="#DejaVuSans-Oblique-65" transform="translate(1243.115234 0)"/>
    </g>
   </g>
   <g id="patch_12">
    <path d="M 416.380107 224.419893 
Q 393.264853 247.535147 371.098283 269.701717 
" style="fill: none; stroke: #78909c; stroke-width: 1.2; stroke-linecap: round"/>
    <path d="M 376.189451 268.004661 
L 371.098283 269.701717 
L 372.795339 264.610549 
z
" style="fill: #78909c; stroke: #78909c; stroke-width: 1.2; stroke-linecap: round"/>
   </g>
   <g id="text_6">
    <!-- CLIP Supervision -->
    <g style="fill: #111111" transform="translate(463.31375 327.839868) scale(0.095 -0.095)">
     <defs>
      <path id="DejaVuSans-Bold-50" d="M 588 4666 
L 2584 4666 
Q 3475 4666 3951 4270 
Q 4428 3875 4428 3144 
Q 4428 2409 3951 2014 
Q 3475 1619 2584 1619 
L 1791 1619 
L 1791 0 
L 588 0 
L 588 4666 
z
M 1791 3794 
L 1791 2491 
L 2456 2491 
Q 2806 2491 2997 2661 
Q 3188 2831 3188 3144 
Q 3188 3456 2997 3625 
Q 2806 3794 2456 3794 
L 1791 3794 
z
" transform="scale(0.015625)"/>
      <path id="DejaVuSans-Bold-70" d="M 1656 506 
L 1656 -1331 
L 538 -1331 
L 538 3500 
L 1656 3500 
L 1656 2988 
Q 1888 3294 2169 3439 
Q 2450 3584 2816 3584 
Q 3463 3584 3878 3070 
Q 4294 2556 4294 1747 
Q 4294 938 3878 423 
Q 3463 -91 2816 -91 
Q 2450 -91 2169 54 
Q 1888 200 1656 506 
z
M 2400 2772 
Q 2041 2772 1848 2508 
Q 1656 2244 1656 1747 
Q 1656 1250 1848 986 
Q 2041 722 2400 722 
Q 2759 722 2948 984 
Q 3138 1247 3138 1747 
Q 3138 2247 2948 2509 
Q 2759 2772 2400 2772 
z
" transform="scale(0.015625)"/>
     </defs>
     <use xlink:href="#DejaVuSans-Bold-43"/>
     <use xlink:href="#DejaVuSans-Bold-4c" transform="translate(73.388672 0)"/>
     <use xlink:href="#DejaVuSans-Bold-49" transform="translate(137.109375 0)"/>
     <use xlink:href="#DejaVuSans-Bold-50" transform="translate(174.316406 0)"/>
     <use xlink:href="#DejaVuSans-Bold-20" transform="translate(247.607422 0)"/>
     <use xlink:href="#DejaVuSans-Bold-53" transform="translate(282.421875 0)"/>
     <use xlink:href="#DejaVuSans-Bold-75" transform="translate(354.443359 0)"/>
     <use xlink:href="#DejaVuSans-Bold-70" transform="translate(425.634766 0)"/>
     <use xlink:href="#DejaVuSans-Bold-65" transform="translate(497.216797 0)"/>
     <use xlink:href="#DejaVuSans-Bold-72" transform="translate(565.039062 0)"/>
     <use xlink:href="#DejaVuSans-Bold-76" transform="translate(614.355469 0)"/>
     <use xlink:href="#DejaVuSans-Bold-69" transform="translate(679.541016 0)"/>
     <use xlink:href="#DejaVuSans-Bold-73" transform="translate(713.818359 0)"/>
     <use xlink:href="#DejaVuSans-Bold-69" transform="translate(773.339844 0)"/>
     <use xlink:href="#DejaVuSans-Bold-6f" transform="translate(807.617188 0)"/>
     <use xlink:href="#DejaVuSans-Bold-6e" transform="translate(876.318359 0)"/>
    </g>
   </g>
   <g id="text_7">
    <!-- Semantic feature anchoring -->
    <g style="fill: #555555" transform="translate(465.050297 369.548308) scale(0.062 -0.062)">
     <defs>
      <path id="DejaVuSans-Oblique-68" d="M 3566 2113 
L 3156 0 
L 2578 0 
L 2988 2091 
Q 3016 2238 3031 2350 
Q 3047 2463 3047 2528 
Q 3047 2791 2881 2937 
Q 2716 3084 2419 3084 
Q 1956 3084 1617 2771 
Q 1278 2459 1178 1941 
L 800 0 
L 225 0 
L 1172 4863 
L 1747 4863 
L 1375 2950 
Q 1594 3244 1934 3414 
Q 2275 3584 2650 3584 
Q 3113 3584 3367 3334 
Q 3622 3084 3622 2631 
Q 3622 2519 3608 2391 
Q 3594 2263 3566 2113 
z
" transform="scale(0.015625)"/>
     </defs>
     <use xlink:href="#DejaVuSans-Oblique-53"/>
     <use xlink:href="#DejaVuSans-Oblique-65" transform="translate(63.476562 0)"/>
     <use xlink:href="#DejaVuSans-Oblique-6d" transform="translate(125 0)"/>
     <use xlink:href="#DejaVuSans-Oblique-61" transform="translate(222.412109 0)"/>
     <use xlink:href="#DejaVuSans-Oblique-6e" transform="translate(283.691406 0)"/>
     <use xlink:href="#DejaVuSans-Oblique-74" transform="translate(347.070312 0)"/>
     <use xlink:href="#DejaVuSans-Oblique-69" transform="translate(386.279297 0)"/>
     <use xlink:href="#DejaVuSans-Oblique-63" transform="translate(414.0625 0)"/>
     <use xlink:href="#DejaVuSans-Oblique-20" transform="translate(469.042969 0)"/>
     <use xlink:href="#DejaVuSans-Oblique-66" transform="translate(500.830078 0)"/>
     <use xlink:href="#DejaVuSans-Oblique-65" transform="translate(536.035156 0)"/>
     <use xlink:href="#DejaVuSans-Oblique-61" transform="translate(597.558594 0)"/>
     <use xlink:href="#DejaVuSans-Oblique-74" transform="translate(658.837891 0)"/>
     <use xlink:href="#DejaVuSans-Oblique-75" transform="translate(698.046875 0)"/>
     <use xlink:href="#DejaVuSans-Oblique-72" transform="translate(761.425781 0)"/>
     <use xlink:href="#DejaVuSans-Oblique-65" transform="translate(802.539062 0)"/>
     <use xlink:href="#DejaVuSans-Oblique-20" transform="translate(864.0625 0)"/>
     <use xlink:href="#DejaVuSans-Oblique-61" transform="translate(895.849609 0)"/>
     <use xlink:href="#DejaVuSans-Oblique-6e" transform="translate(957.128906 0)"/>
     <use xlink:href="#DejaVuSans-Oblique-63" transform="translate(1020.507812 0)"/>
     <use xlink:href="#DejaVuSans-Oblique-68" transform="translate(1075.488281 0)"/>
     <use xlink:href="#DejaVuSans-Oblique-6f" transform="translate(1138.867188 0)"/>
     <use xlink:href="#DejaVuSans-Oblique-72" transform="translate(1200.048828 0)"/>
     <use xlink:href="#DejaVuSans-Oblique-69" transform="translate(1241.162109 0)"/>
     <use xlink:href="#DejaVuSans-Oblique-6e" transform="translate(1268.945312 0)"/>
     <use xlink:href="#DejaVuSans-Oblique-67" transform="translate(1332.324219 0)"/>
    </g>
   </g>
   <g id="patch_13">
    <path d="M 458.132241 325.218462 
Q 425.442336 325.218462 394.094071 325.218462 
" style="fill: none; stroke: #78909c; stroke-width: 1.2; stroke-linecap: round"/>
    <path d="M 398.894071 327.618462 
L 394.094071 325.218462 
L 398.894071 322.818462 
z
" style="fill: #78909c; stroke: #78909c; stroke-width: 1.2; stroke-linecap: round"/>
   </g>
   <g id="text_8">
    <!-- CORnet Teacher -->
    <g style="fill: #111111" transform="translate(409.359423 464.126541) scale(0.095 -0.095)">
     <defs>
      <path id="DejaVuSans-Bold-4f" d="M 2719 3878 
Q 2169 3878 1866 3472 
Q 1563 3066 1563 2328 
Q 1563 1594 1866 1187 
Q 2169 781 2719 781 
Q 3272 781 3575 1187 
Q 3878 1594 3878 2328 
Q 3878 3066 3575 3472 
Q 3272 3878 2719 3878 
z
M 2719 4750 
Q 3844 4750 4481 4106 
Q 5119 3463 5119 2328 
Q 5119 1197 4481 553 
Q 3844 -91 2719 -91 
Q 1597 -91 958 553 
Q 319 1197 319 2328 
Q 319 3463 958 4106 
Q 1597 4750 2719 4750 
z
" transform="scale(0.015625)"/>
     </defs>
     <use xlink:href="#DejaVuSans-Bold-43"/>
     <use xlink:href="#DejaVuSans-Bold-4f" transform="translate(73.388672 0)"/>
     <use xlink:href="#DejaVuSans-Bold-52" transform="translate(158.398438 0)"/>
     <use xlink:href="#DejaVuSans-Bold-6e" transform="translate(235.400391 0)"/>
     <use xlink:href="#DejaVuSans-Bold-65" transform="translate(306.591797 0)"/>
     <use xlink:href="#DejaVuSans-Bold-74" transform="translate(374.414062 0)"/>
     <use xlink:href="#DejaVuSans-Bold-20" transform="translate(422.216797 0)"/>
     <use xlink:href="#DejaVuSans-Bold-54" transform="translate(457.03125 0)"/>
     <use xlink:href="#DejaVuSans-Bold-65" transform="translate(511.994141 0)"/>
     <use xlink:href="#DejaVuSans-Bold-61" transform="translate(579.816406 0)"/>
     <use xlink:href="#DejaVuSans-Bold-63" transform="translate(647.296875 0)"/>
     <use xlink:href="#DejaVuSans-Bold-68" transform="translate(706.574219 0)"/>
     <use xlink:href="#DejaVuSans-Bold-65" transform="translate(777.765625 0)"/>
     <use xlink:href="#DejaVuSans-Bold-72" transform="translate(845.587891 0)"/>
    </g>
   </g>
   <g id="text_9">
    <!-- Cortical brain alignment -->
    <g style="fill: #555555" transform="translate(414.39018 505.834981) scale(0.062 -0.062)">
     <defs>
      <path id="DejaVuSans-Oblique-43" d="M 4447 4306 
L 4319 3641 
Q 4019 3944 3683 4091 
Q 3347 4238 2956 4238 
Q 2422 4238 2017 3981 
Q 1613 3725 1319 3200 
Q 1131 2863 1032 2486 
Q 934 2109 934 1728 
Q 934 1091 1264 756 
Q 1594 422 2222 422 
Q 2656 422 3056 561 
Q 3456 700 3834 978 
L 3688 231 
Q 3316 72 2936 -9 
Q 2556 -91 2175 -91 
Q 1278 -91 773 396 
Q 269 884 269 1753 
Q 269 2309 461 2846 
Q 653 3384 1013 3828 
Q 1394 4300 1883 4525 
Q 2372 4750 3022 4750 
Q 3422 4750 3780 4639 
Q 4138 4528 4447 4306 
z
" transform="scale(0.015625)"/>
      <path id="DejaVuSans-Oblique-62" d="M 3169 2138 
Q 3169 2591 2961 2847 
Q 2753 3103 2388 3103 
Q 2122 3103 1889 2973 
Q 1656 2844 1484 2597 
Q 1303 2338 1198 1995 
Q 1094 1653 1094 1313 
Q 1094 881 1298 636 
Q 1503 391 1863 391 
Q 2134 391 2365 517 
Q 2597 644 2772 891 
Q 2950 1147 3059 1487 
Q 3169 1828 3169 2138 
z
M 1381 2969 
Q 1594 3256 1914 3420 
Q 2234 3584 2584 3584 
Q 3122 3584 3439 3221 
Q 3756 2859 3756 2241 
Q 3756 1734 3570 1259 
Q 3384 784 3041 416 
Q 2816 172 2522 40 
Q 2228 -91 1906 -91 
Q 1566 -91 1316 65 
Q 1066 222 909 531 
L 806 0 
L 231 0 
L 1178 4863 
L 1753 4863 
L 1381 2969 
z
" transform="scale(0.015625)"/>
     </defs>
     <use xlink:href="#DejaVuSans-Oblique-43"/>
     <use xlink:href="#DejaVuSans-Oblique-6f" transform="translate(69.824219 0)"/>
     <use xlink:href="#DejaVuSans-Oblique-72" transform="translate(131.005859 0)"/>
     <use xlink:href="#DejaVuSans-Oblique-74" transform="translate(172.119141 0)"/>
     <use xlink:href="#DejaVuSans-Oblique-69" transform="translate(211.328125 0)"/>
     <use xlink:href="#DejaVuSans-Oblique-63" transform="translate(239.111328 0)"/>
     <use xlink:href="#DejaVuSans-Oblique-61" transform="translate(294.091797 0)"/>
     <use xlink:href="#DejaVuSans-Oblique-6c" transform="translate(355.371094 0)"/>
     <use xlink:href="#DejaVuSans-Oblique-20" transform="translate(383.154297 0)"/>
     <use xlink:href="#DejaVuSans-Oblique-62" transform="translate(414.941406 0)"/>
     <use xlink:href="#DejaVuSans-Oblique-72" transform="translate(478.417969 0)"/>
     <use xlink:href="#DejaVuSans-Oblique-61" transform="translate(519.53125 0)"/>
     <use xlink:href="#DejaVuSans-Oblique-69" transform="translate(580.810547 0)"/>
     <use xlink:href="#DejaVuSans-Oblique-6e" transform="translate(608.59375 0)"/>
     <use xlink:href="#DejaVuSans-Oblique-20" transform="translate(671.972656 0)"/>
     <use xlink:href="#DejaVuSans-Oblique-61" transform="translate(703.759766 0)"/>
     <use xlink:href="#DejaVuSans-Oblique-6c" transform="translate(765.039062 0)"/>
     <use xlink:href="#DejaVuSans-Oblique-69" transform="translate(792.822266 0)"/>
     <use xlink:href="#DejaVuSans-Oblique-67" transform="translate(820.605469 0)"/>
     <use xlink:href="#DejaVuSans-Oblique-6e" transform="translate(884.082031 0)"/>
     <use xlink:href="#DejaVuSans-Oblique-6d" transform="translate(947.460938 0)"/>
     <use xlink:href="#DejaVuSans-Oblique-65" transform="translate(1044.873047 0)"/>
     <use xlink:href="#DejaVuSans-Oblique-6e" transform="translate(1106.396484 0)"/>
     <use xlink:href="#DejaVuSans-Oblique-74" transform="translate(1169.775391 0)"/>
    </g>
   </g>
   <g id="patch_14">
    <path d="M 416.380107 426.01703 
Q 393.264853 402.901776 371.098283 380.735206 
" style="fill: none; stroke: #78909c; stroke-width: 1.2; stroke-linecap: round"/>
    <path d="M 372.795339 385.826374 
L 371.098283 380.735206 
L 376.189451 382.432262 
z
" style="fill: #78909c; stroke: #78909c; stroke-width: 1.2; stroke-linecap: round"/>
   </g>
   <g id="text_10">
    <!-- Curriculum TRADES -->
    <g style="fill: #111111" transform="translate(263.407984 520.578329) scale(0.095 -0.095)">
     <defs>
      <path id="DejaVuSans-Bold-6c" d="M 538 4863 
L 1656 4863 
L 1656 0 
L 538 0 
L 538 4863 
z
" transform="scale(0.015625)"/>
     </defs>
     <use xlink:href="#DejaVuSans-Bold-43"/>
     <use xlink:href="#DejaVuSans-Bold-75" transform="translate(73.388672 0)"/>
     <use xlink:href="#DejaVuSans-Bold-72" transform="translate(144.580078 0)"/>
     <use xlink:href="#DejaVuSans-Bold-72" transform="translate(193.896484 0)"/>
     <use xlink:href="#DejaVuSans-Bold-69" transform="translate(243.212891 0)"/>
     <use xlink:href="#DejaVuSans-Bold-63" transform="translate(277.490234 0)"/>
     <use xlink:href="#DejaVuSans-Bold-75" transform="translate(336.767578 0)"/>
     <use xlink:href="#DejaVuSans-Bold-6c" transform="translate(407.958984 0)"/>
     <use xlink:href="#DejaVuSans-Bold-75" transform="translate(442.236328 0)"/>
     <use xlink:href="#DejaVuSans-Bold-6d" transform="translate(513.427734 0)"/>
     <use xlink:href="#DejaVuSans-Bold-20" transform="translate(617.626953 0)"/>
     <use xlink:href="#DejaVuSans-Bold-54" transform="translate(652.441406 0)"/>
     <use xlink:href="#DejaVuSans-Bold-52" transform="translate(720.654297 0)"/>
     <use xlink:href="#DejaVuSans-Bold-41" transform="translate(797.65625 0)"/>
     <use xlink:href="#DejaVuSans-Bold-44" transform="translate(875.048828 0)"/>
     <use xlink:href="#DejaVuSans-Bold-45" transform="translate(958.056641 0)"/>
     <use xlink:href="#DejaVuSans-Bold-53" transform="translate(1026.367188 0)"/>
    </g>
   </g>
   <g id="text_11">
    <!-- Curriculum epsilon scaling -->
    <g style="fill: #555555" transform="translate(274.608742 562.286769) scale(0.062 -0.062)">
     <use xlink:href="#DejaVuSans-Oblique-43"/>
     <use xlink:href="#DejaVuSans-Oblique-75" transform="translate(69.824219 0)"/>
     <use xlink:href="#DejaVuSans-Oblique-72" transform="translate(133.203125 0)"/>
     <use xlink:href="#DejaVuSans-Oblique-72" transform="translate(174.316406 0)"/>
     <use xlink:href="#DejaVuSans-Oblique-69" transform="translate(215.429688 0)"/>
     <use xlink:href="#DejaVuSans-Oblique-63" transform="translate(243.212891 0)"/>
     <use xlink:href="#DejaVuSans-Oblique-75" transform="translate(298.193359 0)"/>
     <use xlink:href="#DejaVuSans-Oblique-6c" transform="translate(361.572266 0)"/>
     <use xlink:href="#DejaVuSans-Oblique-75" transform="translate(389.355469 0)"/>
     <use xlink:href="#DejaVuSans-Oblique-6d" transform="translate(452.734375 0)"/>
     <use xlink:href="#DejaVuSans-Oblique-20" transform="translate(550.146484 0)"/>
     <use xlink:href="#DejaVuSans-Oblique-65" transform="translate(581.933594 0)"/>
     <use xlink:href="#DejaVuSans-Oblique-70" transform="translate(643.457031 0)"/>
     <use xlink:href="#DejaVuSans-Oblique-73" transform="translate(706.933594 0)"/>
     <use xlink:href="#DejaVuSans-Oblique-69" transform="translate(759.033203 0)"/>
     <use xlink:href="#DejaVuSans-Oblique-6c" transform="translate(786.816406 0)"/>
     <use xlink:href="#DejaVuSans-Oblique-6f" transform="translate(814.599609 0)"/>
     <use xlink:href="#DejaVuSans-Oblique-6e" transform="translate(875.78125 0)"/>
     <use xlink:href="#DejaVuSans-Oblique-20" transform="translate(939.160156 0)"/>
     <use xlink:href="#DejaVuSans-Oblique-73" transform="translate(970.947266 0)"/>
     <use xlink:href="#DejaVuSans-Oblique-63" transform="translate(1023.046875 0)"/>
     <use xlink:href="#DejaVuSans-Oblique-61" transform="translate(1078.027344 0)"/>
     <use xlink:href="#DejaVuSans-Oblique-6c" transform="translate(1139.306641 0)"/>
     <use xlink:href="#DejaVuSans-Oblique-69" transform="translate(1167.089844 0)"/>
     <use xlink:href="#DejaVuSans-Oblique-6e" transform="translate(1194.873047 0)"/>
     <use xlink:href="#DejaVuSans-Oblique-67" transform="translate(1258.251953 0)"/>
    </g>
   </g>
   <g id="patch_15">
    <path d="M 315.581538 467.769164 
Q 315.581538 435.079259 315.581538 403.730994 
" style="fill: none; stroke: #78909c; stroke-width: 1.2; stroke-linecap: round"/>
    <path d="M 313.181538 408.530994 
L 315.581538 403.730994 
L 317.981538 408.530994 
z
" style="fill: #78909c; stroke: #78909c; stroke-width: 1.2; stroke-linecap: round"/>
   </g>
   <g id="text_12">
    <!-- Prototype Head -->
    <g style="fill: #111111" transform="translate(137.229162 464.089432) scale(0.095 -0.095)">
     <defs>
      <path id="DejaVuSans-Bold-64" d="M 2919 2988 
L 2919 4863 
L 4044 4863 
L 4044 0 
L 2919 0 
L 2919 506 
Q 2688 197 2409 53 
Q 2131 -91 1766 -91 
Q 1119 -91 703 423 
Q 288 938 288 1747 
Q 288 2556 703 3070 
Q 1119 3584 1766 3584 
Q 2128 3584 2408 3439 
Q 2688 3294 2919 2988 
z
M 2181 722 
Q 2541 722 2730 984 
Q 2919 1247 2919 1747 
Q 2919 2247 2730 2509 
Q 2541 2772 2181 2772 
Q 1825 2772 1636 2509 
Q 1447 2247 1447 1747 
Q 1447 1247 1636 984 
Q 1825 722 2181 722 
z
" transform="scale(0.015625)"/>
     </defs>
     <use xlink:href="#DejaVuSans-Bold-50"/>
     <use xlink:href="#DejaVuSans-Bold-72" transform="translate(73.291016 0)"/>
     <use xlink:href="#DejaVuSans-Bold-6f" transform="translate(122.607422 0)"/>
     <use xlink:href="#DejaVuSans-Bold-74" transform="translate(191.308594 0)"/>
     <use xlink:href="#DejaVuSans-Bold-6f" transform="translate(239.111328 0)"/>
     <use xlink:href="#DejaVuSans-Bold-74" transform="translate(307.8125 0)"/>
     <use xlink:href="#DejaVuSans-Bold-79" transform="translate(355.615234 0)"/>
     <use xlink:href="#DejaVuSans-Bold-70" transform="translate(420.800781 0)"/>
     <use xlink:href="#DejaVuSans-Bold-65" transform="translate(492.382812 0)"/>
     <use xlink:href="#DejaVuSans-Bold-20" transform="translate(560.205078 0)"/>
     <use xlink:href="#DejaVuSans-Bold-48" transform="translate(595.019531 0)"/>
     <use xlink:href="#DejaVuSans-Bold-65" transform="translate(678.710938 0)"/>
     <use xlink:href="#DejaVuSans-Bold-61" transform="translate(746.533203 0)"/>
     <use xlink:href="#DejaVuSans-Bold-64" transform="translate(814.013672 0)"/>
    </g>
   </g>
   <g id="text_13">
    <!-- Spherical classification -->
    <g style="fill: #555555" transform="translate(143.849272 505.834981) scale(0.062 -0.062)">
     <use xlink:href="#DejaVuSans-Oblique-53"/>
     <use xlink:href="#DejaVuSans-Oblique-70" transform="translate(63.476562 0)"/>
     <use xlink:href="#DejaVuSans-Oblique-68" transform="translate(126.953125 0)"/>
     <use xlink:href="#DejaVuSans-Oblique-65" transform="translate(190.332031 0)"/>
     <use xlink:href="#DejaVuSans-Oblique-72" transform="translate(251.855469 0)"/>
     <use xlink:href="#DejaVuSans-Oblique-69" transform="translate(292.96875 0)"/>
     <use xlink:href="#DejaVuSans-Oblique-63" transform="translate(320.751953 0)"/>
     <use xlink:href="#DejaVuSans-Oblique-61" transform="translate(375.732422 0)"/>
     <use xlink:href="#DejaVuSans-Oblique-6c" transform="translate(437.011719 0)"/>
     <use xlink:href="#DejaVuSans-Oblique-20" transform="translate(464.794922 0)"/>
     <use xlink:href="#DejaVuSans-Oblique-63" transform="translate(496.582031 0)"/>
     <use xlink:href="#DejaVuSans-Oblique-6c" transform="translate(551.5625 0)"/>
     <use xlink:href="#DejaVuSans-Oblique-61" transform="translate(579.345703 0)"/>
     <use xlink:href="#DejaVuSans-Oblique-73" transform="translate(640.625 0)"/>
     <use xlink:href="#DejaVuSans-Oblique-73" transform="translate(692.724609 0)"/>
     <use xlink:href="#DejaVuSans-Oblique-69" transform="translate(744.824219 0)"/>
     <use xlink:href="#DejaVuSans-Oblique-66" transform="translate(772.607422 0)"/>
     <use xlink:href="#DejaVuSans-Oblique-69" transform="translate(807.8125 0)"/>
     <use xlink:href="#DejaVuSans-Oblique-63" transform="translate(835.595703 0)"/>
     <use xlink:href="#DejaVuSans-Oblique-61" transform="translate(890.576172 0)"/>
     <use xlink:href="#DejaVuSans-Oblique-74" transform="translate(951.855469 0)"/>
     <use xlink:href="#DejaVuSans-Oblique-69" transform="translate(991.064453 0)"/>
     <use xlink:href="#DejaVuSans-Oblique-6f" transform="translate(1018.847656 0)"/>
     <use xlink:href="#DejaVuSans-Oblique-6e" transform="translate(1080.029297 0)"/>
    </g>
   </g>
   <g id="patch_16">
    <path d="M 214.78297 426.01703 
Q 237.898224 402.901776 260.064794 380.735206 
" style="fill: none; stroke: #78909c; stroke-width: 1.2; stroke-linecap: round"/>
    <path d="M 254.973626 382.432262 
L 260.064794 380.735206 
L 258.367738 385.826374 
z
" style="fill: #78909c; stroke: #78909c; stroke-width: 1.2; stroke-linecap: round"/>
   </g>
   <g id="text_14">
    <!-- Frequency Gating -->
    <g style="fill: #111111" transform="translate(75.6021 327.802758) scale(0.095 -0.095)">
     <defs>
      <path id="DejaVuSans-Bold-46" d="M 588 4666 
L 3834 4666 
L 3834 3756 
L 1791 3756 
L 1791 2888 
L 3713 2888 
L 3713 1978 
L 1791 1978 
L 1791 0 
L 588 0 
L 588 4666 
z
" transform="scale(0.015625)"/>
      <path id="DejaVuSans-Bold-71" d="M 2181 2772 
Q 1825 2772 1636 2509 
Q 1447 2247 1447 1747 
Q 1447 1247 1636 984 
Q 1825 722 2181 722 
Q 2541 722 2730 984 
Q 2919 1247 2919 1747 
Q 2919 2247 2730 2509 
Q 2541 2772 2181 2772 
z
M 2919 506 
Q 2688 197 2409 53 
Q 2131 -91 1766 -91 
Q 1119 -91 703 423 
Q 288 938 288 1747 
Q 288 2556 703 3067 
Q 1119 3578 1766 3578 
Q 2131 3578 2409 3434 
Q 2688 3291 2919 2981 
L 2919 3500 
L 4044 3500 
L 4044 -1331 
L 2919 -1331 
L 2919 506 
z
" transform="scale(0.015625)"/>
      <path id="DejaVuSans-Bold-47" d="M 4781 347 
Q 4331 128 3847 18 
Q 3363 -91 2847 -91 
Q 1681 -91 1000 561 
Q 319 1213 319 2328 
Q 319 3456 1012 4103 
Q 1706 4750 2913 4750 
Q 3378 4750 3804 4662 
Q 4231 4575 4609 4403 
L 4609 3438 
Q 4219 3659 3833 3768 
Q 3447 3878 3059 3878 
Q 2341 3878 1952 3476 
Q 1563 3075 1563 2328 
Q 1563 1588 1938 1184 
Q 2313 781 3003 781 
Q 3191 781 3352 804 
Q 3513 828 3641 878 
L 3641 1784 
L 2906 1784 
L 2906 2591 
L 4781 2591 
L 4781 347 
z
" transform="scale(0.015625)"/>
      <path id="DejaVuSans-Bold-67" d="M 2919 594 
Q 2688 288 2409 144 
Q 2131 0 1766 0 
Q 1125 0 706 504 
Q 288 1009 288 1791 
Q 288 2575 706 3076 
Q 1125 3578 1766 3578 
Q 2131 3578 2409 3434 
Q 2688 3291 2919 2981 
L 2919 3500 
L 4044 3500 
L 4044 353 
Q 4044 -491 3511 -936 
Q 2978 -1381 1966 -1381 
Q 1638 -1381 1331 -1331 
Q 1025 -1281 716 -1178 
L 716 -306 
Q 1009 -475 1290 -558 
Q 1572 -641 1856 -641 
Q 2406 -641 2662 -400 
Q 2919 -159 2919 353 
L 2919 594 
z
M 2181 2772 
Q 1834 2772 1640 2515 
Q 1447 2259 1447 1791 
Q 1447 1309 1634 1061 
Q 1822 813 2181 813 
Q 2531 813 2725 1069 
Q 2919 1325 2919 1791 
Q 2919 2259 2725 2515 
Q 2531 2772 2181 2772 
z
" transform="scale(0.015625)"/>
     </defs>
     <use xlink:href="#DejaVuSans-Bold-46"/>
     <use xlink:href="#DejaVuSans-Bold-72" transform="translate(61.935547 0)"/>
     <use xlink:href="#DejaVuSans-Bold-65" transform="translate(111.251953 0)"/>
     <use xlink:href="#DejaVuSans-Bold-71" transform="translate(179.074219 0)"/>
     <use xlink:href="#DejaVuSans-Bold-75" transform="translate(250.65625 0)"/>
     <use xlink:href="#DejaVuSans-Bold-65" transform="translate(321.847656 0)"/>
     <use xlink:href="#DejaVuSans-Bold-6e" transform="translate(389.669922 0)"/>
     <use xlink:href="#DejaVuSans-Bold-63" transform="translate(460.861328 0)"/>
     <use xlink:href="#DejaVuSans-Bold-79" transform="translate(520.138672 0)"/>
     <use xlink:href="#DejaVuSans-Bold-20" transform="translate(585.324219 0)"/>
     <use xlink:href="#DejaVuSans-Bold-47" transform="translate(620.138672 0)"/>
     <use xlink:href="#DejaVuSans-Bold-61" transform="translate(702.21875 0)"/>
     <use xlink:href="#DejaVuSans-Bold-74" transform="translate(769.699219 0)"/>
     <use xlink:href="#DejaVuSans-Bold-69" transform="translate(817.501953 0)"/>
     <use xlink:href="#DejaVuSans-Bold-6e" transform="translate(851.779297 0)"/>
     <use xlink:href="#DejaVuSans-Bold-67" transform="translate(922.970703 0)"/>
    </g>
   </g>
   <g id="text_15">
    <!-- Frequency filtering -->
    <g style="fill: #555555" transform="translate(93.544202 369.548308) scale(0.062 -0.062)">
     <defs>
      <path id="DejaVuSans-Oblique-46" d="M 1081 4666 
L 3756 4666 
L 3653 4134 
L 1606 4134 
L 1338 2759 
L 3188 2759 
L 3084 2228 
L 1234 2228 
L 800 0 
L 172 0 
L 1081 4666 
z
" transform="scale(0.015625)"/>
      <path id="DejaVuSans-Oblique-71" d="M 2669 525 
Q 2438 222 2123 65 
Q 1809 -91 1428 -91 
Q 897 -91 595 267 
Q 294 625 294 1253 
Q 294 1759 480 2231 
Q 666 2703 1013 3078 
Q 1238 3322 1530 3453 
Q 1822 3584 2144 3584 
Q 2531 3584 2781 3431 
Q 3031 3278 3144 2969 
L 3244 3494 
L 3822 3494 
L 2888 -1319 
L 2309 -1319 
L 2669 525 
z
M 891 1338 
Q 891 875 1084 633 
Q 1278 391 1644 391 
Q 2188 391 2572 911 
Q 2956 1431 2956 2175 
Q 2956 2625 2757 2864 
Q 2559 3103 2188 3103 
Q 1916 3103 1684 2976 
Q 1453 2850 1281 2606 
Q 1100 2350 995 2006 
Q 891 1663 891 1338 
z
" transform="scale(0.015625)"/>
      <path id="DejaVuSans-Oblique-79" d="M 1588 -325 
Q 1188 -997 936 -1164 
Q 684 -1331 294 -1331 
L -159 -1331 
L -63 -850 
L 269 -850 
Q 509 -850 678 -719 
Q 847 -588 1056 -206 
L 1234 128 
L 459 3500 
L 1069 3500 
L 1650 819 
L 3256 3500 
L 3859 3500 
L 1588 -325 
z
" transform="scale(0.015625)"/>
     </defs>
     <use xlink:href="#DejaVuSans-Oblique-46"/>
     <use xlink:href="#DejaVuSans-Oblique-72" transform="translate(57.519531 0)"/>
     <use xlink:href="#DejaVuSans-Oblique-65" transform="translate(98.632812 0)"/>
     <use xlink:href="#DejaVuSans-Oblique-71" transform="translate(160.15625 0)"/>
     <use xlink:href="#DejaVuSans-Oblique-75" transform="translate(223.632812 0)"/>
     <use xlink:href="#DejaVuSans-Oblique-65" transform="translate(287.011719 0)"/>
     <use xlink:href="#DejaVuSans-Oblique-6e" transform="translate(348.535156 0)"/>
     <use xlink:href="#DejaVuSans-Oblique-63" transform="translate(411.914062 0)"/>
     <use xlink:href="#DejaVuSans-Oblique-79" transform="translate(466.894531 0)"/>
     <use xlink:href="#DejaVuSans-Oblique-20" transform="translate(526.074219 0)"/>
     <use xlink:href="#DejaVuSans-Oblique-66" transform="translate(557.861328 0)"/>
     <use xlink:href="#DejaVuSans-Oblique-69" transform="translate(593.066406 0)"/>
     <use xlink:href="#DejaVuSans-Oblique-6c" transform="translate(620.849609 0)"/>
     <use xlink:href="#DejaVuSans-Oblique-74" transform="translate(648.632812 0)"/>
     <use xlink:href="#DejaVuSans-Oblique-65" transform="translate(687.841797 0)"/>
     <use xlink:href="#DejaVuSans-Oblique-72" transform="translate(749.365234 0)"/>
     <use xlink:href="#DejaVuSans-Oblique-69" transform="translate(790.478516 0)"/>
     <use xlink:href="#DejaVuSans-Oblique-6e" transform="translate(818.261719 0)"/>
     <use xlink:href="#DejaVuSans-Oblique-67" transform="translate(881.640625 0)"/>
    </g>
   </g>
   <g id="patch_17">
    <path d="M 173.030836 325.218462 
Q 205.720741 325.218462 237.069006 325.218462 
" style="fill: none; stroke: #78909c; stroke-width: 1.2; stroke-linecap: round"/>
    <path d="M 232.269006 322.818462 
L 237.069006 325.218462 
L 232.269006 327.618462 
z
" style="fill: #78909c; stroke: #78909c; stroke-width: 1.2; stroke-linecap: round"/>
   </g>
   <g id="text_16">
    <!-- Dual Stream -->
    <g style="fill: #111111" transform="translate(146.072326 191.553195) scale(0.095 -0.095)">
     <use xlink:href="#DejaVuSans-Bold-44"/>
     <use xlink:href="#DejaVuSans-Bold-75" transform="translate(83.007812 0)"/>
     <use xlink:href="#DejaVuSans-Bold-61" transform="translate(154.199219 0)"/>
     <use xlink:href="#DejaVuSans-Bold-6c" transform="translate(221.679688 0)"/>
     <use xlink:href="#DejaVuSans-Bold-20" transform="translate(255.957031 0)"/>
     <use xlink:href="#DejaVuSans-Bold-53" transform="translate(290.771484 0)"/>
     <use xlink:href="#DejaVuSans-Bold-74" transform="translate(362.792969 0)"/>
     <use xlink:href="#DejaVuSans-Bold-72" transform="translate(410.595703 0)"/>
     <use xlink:href="#DejaVuSans-Bold-65" transform="translate(459.912109 0)"/>
     <use xlink:href="#DejaVuSans-Bold-61" transform="translate(527.734375 0)"/>
     <use xlink:href="#DejaVuSans-Bold-6d" transform="translate(595.214844 0)"/>
    </g>
   </g>
   <g id="text_17">
    <!-- What vs Where pathway -->
    <g style="fill: #555555" transform="translate(141.30824 233.261635) scale(0.062 -0.062)">
     <defs>
      <path id="DejaVuSans-Oblique-57" d="M 616 4666 
L 1228 4666 
L 1453 697 
L 3213 4666 
L 3916 4666 
L 4147 697 
L 5888 4666 
L 6528 4666 
L 4453 0 
L 3659 0 
L 3444 3891 
L 1697 0 
L 903 0 
L 616 4666 
z
" transform="scale(0.015625)"/>
      <path id="DejaVuSans-Oblique-77" d="M 544 3500 
L 1113 3500 
L 1259 684 
L 2566 3500 
L 3231 3500 
L 3425 684 
L 4666 3500 
L 5241 3500 
L 3641 0 
L 2969 0 
L 2797 2900 
L 1459 0 
L 781 0 
L 544 3500 
z
" transform="scale(0.015625)"/>
     </defs>
     <use xlink:href="#DejaVuSans-Oblique-57"/>
     <use xlink:href="#DejaVuSans-Oblique-68" transform="translate(98.876953 0)"/>
     <use xlink:href="#DejaVuSans-Oblique-61" transform="translate(162.255859 0)"/>
     <use xlink:href="#DejaVuSans-Oblique-74" transform="translate(223.535156 0)"/>
     <use xlink:href="#DejaVuSans-Oblique-20" transform="translate(262.744141 0)"/>
     <use xlink:href="#DejaVuSans-Oblique-76" transform="translate(294.53125 0)"/>
     <use xlink:href="#DejaVuSans-Oblique-73" transform="translate(353.710938 0)"/>
     <use xlink:href="#DejaVuSans-Oblique-20" transform="translate(405.810547 0)"/>
     <use xlink:href="#DejaVuSans-Oblique-57" transform="translate(437.597656 0)"/>
     <use xlink:href="#DejaVuSans-Oblique-68" transform="translate(536.474609 0)"/>
     <use xlink:href="#DejaVuSans-Oblique-65" transform="translate(599.853516 0)"/>
     <use xlink:href="#DejaVuSans-Oblique-72" transform="translate(661.376953 0)"/>
     <use xlink:href="#DejaVuSans-Oblique-65" transform="translate(702.490234 0)"/>
     <use xlink:href="#DejaVuSans-Oblique-20" transform="translate(764.013672 0)"/>
     <use xlink:href="#DejaVuSans-Oblique-70" transform="translate(795.800781 0)"/>
     <use xlink:href="#DejaVuSans-Oblique-61" transform="translate(859.277344 0)"/>
     <use xlink:href="#DejaVuSans-Oblique-74" transform="translate(920.556641 0)"/>
     <use xlink:href="#DejaVuSans-Oblique-68" transform="translate(959.765625 0)"/>
     <use xlink:href="#DejaVuSans-Oblique-77" transform="translate(1023.144531 0)"/>
     <use xlink:href="#DejaVuSans-Oblique-61" transform="translate(1104.931641 0)"/>
     <use xlink:href="#DejaVuSans-Oblique-79" transform="translate(1166.210938 0)"/>
    </g>
   </g>
   <g id="patch_18">
    <path d="M 214.78297 224.419893 
Q 237.898224 247.535147 260.064794 269.701717 
" style="fill: none; stroke: #78909c; stroke-width: 1.2; stroke-linecap: round"/>
    <path d="M 258.367738 264.610549 
L 260.064794 269.701717 
L 254.973626 268.004661 
z
" style="fill: #78909c; stroke: #78909c; stroke-width: 1.2; stroke-linecap: round"/>
   </g>
   <g id="text_18">
    <!-- RHAN -->
    <g style="fill: #111111" transform="translate(297.884429 322.094977) scale(0.11 -0.11)">
     <use xlink:href="#DejaVuSans-Bold-52"/>
     <use xlink:href="#DejaVuSans-Bold-48" transform="translate(77.001953 0)"/>
     <use xlink:href="#DejaVuSans-Bold-41" transform="translate(160.693359 0)"/>
     <use xlink:href="#DejaVuSans-Bold-4e" transform="translate(238.085938 0)"/>
    </g>
    <!-- Backbone -->
    <g style="fill: #111111" transform="translate(285.39857 334.412571) scale(0.11 -0.11)">
     <defs>
      <path id="DejaVuSans-Bold-42" d="M 2456 2859 
Q 2741 2859 2887 2984 
Q 3034 3109 3034 3353 
Q 3034 3594 2887 3720 
Q 2741 3847 2456 3847 
L 1791 3847 
L 1791 2859 
L 2456 2859 
z
M 2497 819 
Q 2859 819 3042 972 
Q 3225 1125 3225 1434 
Q 3225 1738 3044 1889 
Q 2863 2041 2497 2041 
L 1791 2041 
L 1791 819 
L 2497 819 
z
M 3616 2497 
Q 4003 2384 4215 2081 
Q 4428 1778 4428 1338 
Q 4428 663 3972 331 
Q 3516 0 2584 0 
L 588 0 
L 588 4666 
L 2394 4666 
Q 3366 4666 3802 4372 
Q 4238 4078 4238 3431 
Q 4238 3091 4078 2852 
Q 3919 2613 3616 2497 
z
" transform="scale(0.015625)"/>
      <path id="DejaVuSans-Bold-6b" d="M 538 4863 
L 1656 4863 
L 1656 2216 
L 2944 3500 
L 4244 3500 
L 2534 1894 
L 4378 0 
L 3022 0 
L 1656 1459 
L 1656 0 
L 538 0 
L 538 4863 
z
" transform="scale(0.015625)"/>
     </defs>
     <use xlink:href="#DejaVuSans-Bold-42"/>
     <use xlink:href="#DejaVuSans-Bold-61" transform="translate(76.220703 0)"/>
     <use xlink:href="#DejaVuSans-Bold-63" transform="translate(143.701172 0)"/>
     <use xlink:href="#DejaVuSans-Bold-6b" transform="translate(202.978516 0)"/>
     <use xlink:href="#DejaVuSans-Bold-62" transform="translate(269.482422 0)"/>
     <use xlink:href="#DejaVuSans-Bold-6f" transform="translate(341.064453 0)"/>
     <use xlink:href="#DejaVuSans-Bold-6e" transform="translate(409.765625 0)"/>
     <use xlink:href="#DejaVuSans-Bold-65" transform="translate(480.957031 0)"/>
    </g>
   </g>
  </g>
 </g>
 <defs>
  <clipPath id="pb82561196b">
   <rect x="7.2" y="7.2" width="616.763077" height="626.4"/>
  </clipPath>
 </defs>
</svg>
