<?xml version="1.0" encoding="utf-8" standalone="no"?>
<!DOCTYPE svg PUBLIC "-//W3C//DTD SVG 1.1//EN"
  "http://www.w3.org/Graphics/SVG/1.1/DTD/svg11.dtd">
<svg xmlns:xlink="http://www.w3.org/1999/xlink" width="568.8pt" height="460.8pt" viewBox="0 0 568.8 460.8" xmlns="http://www.w3.org/2000/svg" version="1.1">
 <metadata>
  <rdf:RDF xmlns:dc="http://purl.org/dc/elements/1.1/" xmlns:cc="http://creativecommons.org/ns#" xmlns:rdf="http://www.w3.org/1999/02/22-rdf-syntax-ns#">
   <cc:Work>
    <dc:type rdf:resource="http://purl.org/dc/dcmitype/StillImage"/>
    <dc:date>2026-07-05T19:10:26.366717</dc:date>
    <dc:format>image/svg+xml</dc:format>
    <dc:creator>
     <cc:Agent>
      <dc:title>Matplotlib v3.10.9, https://matplotlib.org/</dc:title>
     </cc:Agent>
    </dc:creator>
   </cc:Work>
  </rdf:RDF>
 </metadata>
 <defs>
  <style type="text/css">*{stroke-linejoin: round; stroke-linecap: butt}</style>
 </defs>
 <g id="figure_1">
  <g id="patch_1">
   <path d="M 0 460.8 
L 568.8 460.8 
L 568.8 0 
L 0 0 
z
" style="fill: #ffffff"/>
  </g>
  <g id="axes_1">
   <g id="line2d_1">
    <path d="M 118.08 416.4 
L 118.08 118.8 
" clip-path="url(#pc83515a959)" style="fill: none; stroke: #78909c; stroke-width: 1.5; stroke-linecap: square"/>
   </g>
   <g id="line2d_2">
    <path d="M 118.08 156 
L 223.416 156 
" clip-path="url(#pc83515a959)" style="fill: none; stroke: #78909c; stroke-width: 1.5; stroke-linecap: square"/>
   </g>
   <g id="line2d_3">
    <path d="M 118.08 208.08 
L 223.416 208.08 
" clip-path="url(#pc83515a959)" style="fill: none; stroke: #78909c; stroke-width: 1.5; stroke-linecap: square"/>
   </g>
   <g id="line2d_4">
    <path d="M 118.08 260.16 
L 223.416 260.16 
" clip-path="url(#pc83515a959)" style="fill: none; stroke: #78909c; stroke-width: 1.5; stroke-linecap: square"/>
   </g>
   <g id="line2d_5">
    <path d="M 118.08 312.24 
L 223.416 312.24 
" clip-path="url(#pc83515a959)" style="fill: none; stroke: #78909c; stroke-width: 1.5; stroke-linecap: square"/>
   </g>
   <g id="line2d_6">
    <path d="M 118.08 364.32 
L 223.416 364.32 
" clip-path="url(#pc83515a959)" style="fill: none; stroke: #78909c; stroke-width: 1.5; stroke-linecap: square"/>
   </g>
   <g id="line2d_7">
    <path d="M 118.08 416.4 
L 223.416 416.4 
" clip-path="url(#pc83515a959)" style="fill: none; stroke: #78909c; stroke-width: 1.5; stroke-linecap: square"/>
   </g>
   <g id="patch_2">
    <path d="M 51.552 118.8 
L 184.608 118.8 
L 184.608 89.04 
L 51.552 89.04 
z
" clip-path="url(#pc83515a959)" style="fill: #ffe0b2; stroke: #1f77b4; stroke-width: 1.5"/>
   </g>
   <g id="patch_3">
    <path d="M 223.416 170.88 
L 345.384 170.88 
L 345.384 141.12 
L 223.416 141.12 
z
" clip-path="url(#pc83515a959)" style="fill: #ffcdd2; stroke: #1f77b4; stroke-width: 1.5"/>
   </g>
   <g id="patch_4">
    <path d="M 223.416 222.96 
L 345.384 222.96 
L 345.384 193.2 
L 223.416 193.2 
z
" clip-path="url(#pc83515a959)" style="fill: #c8e6c9; stroke: #1f77b4; stroke-width: 1.5"/>
   </g>
   <g id="patch_5">
    <path d="M 217.872 275.04 
L 350.928 275.04 
L 350.928 245.28 
L 217.872 245.28 
z
" clip-path="url(#pc83515a959)" style="fill: #fff0f5; stroke: #1f77b4; stroke-width: 1.5"/>
   </g>
   <g id="patch_6">
    <path d="M 217.872 327.12 
L 350.928 327.12 
L 350.928 297.36 
L 217.872 297.36 
z
" clip-path="url(#pc83515a959)" style="fill: #e0ffff; stroke: #1f77b4; stroke-width: 1.5"/>
   </g>
   <g id="patch_7">
    <path d="M 223.416 379.2 
L 345.384 379.2 
L 345.384 349.44 
L 223.416 349.44 
z
" clip-path="url(#pc83515a959)" style="fill: #ffcdd2; stroke: #1f77b4; stroke-width: 1.5"/>
   </g>
   <g id="patch_8">
    <path d="M 223.416 431.28 
L 345.384 431.28 
L 345.384 401.52 
L 223.416 401.52 
z
" clip-path="url(#pc83515a959)" style="fill: #d1c4e9; stroke: #1f77b4; stroke-width: 1.5"/>
   </g>
   <g id="text_1">
    <!-- RHAN Module Hierarchy &amp; Parameter Allocation -->
    <g transform="translate(108.965 36.96) scale(0.13 -0.13)">
     <defs>
      <path id="DejaVuSans-Bold-52" d="M 2297 2597 
Q 2675 2597 2839 2737 
Q 3003 2878 3003 3200 
Q 3003 3519 2839 3656 
Q 2675 3794 2297 3794 
L 1791 3794 
L 1791 2597 
L 2297 2597 
z
M 1791 1766 
L 1791 0 
L 588 0 
L 588 4666 
L 2425 4666 
Q 3347 4666 3776 4356 
Q 4206 4047 4206 3378 
Q 4206 2916 3982 2619 
Q 3759 2322 3309 2181 
Q 3556 2125 3751 1926 
Q 3947 1728 4147 1325 
L 4800 0 
L 3519 0 
L 2950 1159 
Q 2778 1509 2601 1637 
Q 2425 1766 2131 1766 
L 1791 1766 
z
" transform="scale(0.015625)"/>
      <path id="DejaVuSans-Bold-48" d="M 588 4666 
L 1791 4666 
L 1791 2888 
L 3566 2888 
L 3566 4666 
L 4769 4666 
L 4769 0 
L 3566 0 
L 3566 1978 
L 1791 1978 
L 1791 0 
L 588 0 
L 588 4666 
z
" transform="scale(0.015625)"/>
      <path id="DejaVuSans-Bold-41" d="M 3419 850 
L 1538 850 
L 1241 0 
L 31 0 
L 1759 4666 
L 3194 4666 
L 4922 0 
L 3713 0 
L 3419 850 
z
M 1838 1716 
L 3116 1716 
L 2478 3572 
L 1838 1716 
z
" transform="scale(0.015625)"/>
      <path id="DejaVuSans-Bold-4e" d="M 588 4666 
L 1931 4666 
L 3628 1466 
L 3628 4666 
L 4769 4666 
L 4769 0 
L 3425 0 
L 1728 3200 
L 1728 0 
L 588 0 
L 588 4666 
z
" transform="scale(0.015625)"/>
      <path id="DejaVuSans-Bold-20" transform="scale(0.015625)"/>
      <path id="DejaVuSans-Bold-4d" d="M 588 4666 
L 2119 4666 
L 3181 2169 
L 4250 4666 
L 5778 4666 
L 5778 0 
L 4641 0 
L 4641 3413 
L 3566 897 
L 2803 897 
L 1728 3413 
L 1728 0 
L 588 0 
L 588 4666 
z
" transform="scale(0.015625)"/>
      <path id="DejaVuSans-Bold-6f" d="M 2203 2784 
Q 1831 2784 1636 2517 
Q 1441 2250 1441 1747 
Q 1441 1244 1636 976 
Q 1831 709 2203 709 
Q 2569 709 2762 976 
Q 2956 1244 2956 1747 
Q 2956 2250 2762 2517 
Q 2569 2784 2203 2784 
z
M 2203 3584 
Q 3106 3584 3614 3096 
Q 4122 2609 4122 1747 
Q 4122 884 3614 396 
Q 3106 -91 2203 -91 
Q 1297 -91 786 396 
Q 275 884 275 1747 
Q 275 2609 786 3096 
Q 1297 3584 2203 3584 
z
" transform="scale(0.015625)"/>
      <path id="DejaVuSans-Bold-64" d="M 2919 2988 
L 2919 4863 
L 4044 4863 
L 4044 0 
L 2919 0 
L 2919 506 
Q 2688 197 2409 53 
Q 2131 -91 1766 -91 
Q 1119 -91 703 423 
Q 288 938 288 1747 
Q 288 2556 703 3070 
Q 1119 3584 1766 3584 
Q 2128 3584 2408 3439 
Q 2688 3294 2919 2988 
z
M 2181 722 
Q 2541 722 2730 984 
Q 2919 1247 2919 1747 
Q 2919 2247 2730 2509 
Q 2541 2772 2181 2772 
Q 1825 2772 1636 2509 
Q 1447 2247 1447 1747 
Q 1447 1247 1636 984 
Q 1825 722 2181 722 
z
" transform="scale(0.015625)"/>
      <path id="DejaVuSans-Bold-75" d="M 500 1363 
L 500 3500 
L 1625 3500 
L 1625 3150 
Q 1625 2866 1622 2436 
Q 1619 2006 1619 1863 
Q 1619 1441 1641 1255 
Q 1663 1069 1716 984 
Q 1784 875 1895 815 
Q 2006 756 2150 756 
Q 2500 756 2700 1025 
Q 2900 1294 2900 1772 
L 2900 3500 
L 4019 3500 
L 4019 0 
L 2900 0 
L 2900 506 
Q 2647 200 2364 54 
Q 2081 -91 1741 -91 
Q 1134 -91 817 281 
Q 500 653 500 1363 
z
" transform="scale(0.015625)"/>
      <path id="DejaVuSans-Bold-6c" d="M 538 4863 
L 1656 4863 
L 1656 0 
L 538 0 
L 538 4863 
z
" transform="scale(0.015625)"/>
      <path id="DejaVuSans-Bold-65" d="M 4031 1759 
L 4031 1441 
L 1416 1441 
Q 1456 1047 1700 850 
Q 1944 653 2381 653 
Q 2734 653 3104 758 
Q 3475 863 3866 1075 
L 3866 213 
Q 3469 63 3072 -14 
Q 2675 -91 2278 -91 
Q 1328 -91 801 392 
Q 275 875 275 1747 
Q 275 2603 792 3093 
Q 1309 3584 2216 3584 
Q 3041 3584 3536 3087 
Q 4031 2591 4031 1759 
z
M 2881 2131 
Q 2881 2450 2695 2645 
Q 2509 2841 2209 2841 
Q 1884 2841 1681 2658 
Q 1478 2475 1428 2131 
L 2881 2131 
z
" transform="scale(0.015625)"/>
      <path id="DejaVuSans-Bold-69" d="M 538 3500 
L 1656 3500 
L 1656 0 
L 538 0 
L 538 3500 
z
M 538 4863 
L 1656 4863 
L 1656 3950 
L 538 3950 
L 538 4863 
z
" transform="scale(0.015625)"/>
      <path id="DejaVuSans-Bold-72" d="M 3138 2547 
Q 2991 2616 2845 2648 
Q 2700 2681 2553 2681 
Q 2122 2681 1889 2404 
Q 1656 2128 1656 1613 
L 1656 0 
L 538 0 
L 538 3500 
L 1656 3500 
L 1656 2925 
Q 1872 3269 2151 3426 
Q 2431 3584 2822 3584 
Q 2878 3584 2943 3579 
Q 3009 3575 3134 3559 
L 3138 2547 
z
" transform="scale(0.015625)"/>
      <path id="DejaVuSans-Bold-61" d="M 2106 1575 
Q 1756 1575 1579 1456 
Q 1403 1338 1403 1106 
Q 1403 894 1545 773 
Q 1688 653 1941 653 
Q 2256 653 2472 879 
Q 2688 1106 2688 1447 
L 2688 1575 
L 2106 1575 
z
M 3816 1997 
L 3816 0 
L 2688 0 
L 2688 519 
Q 2463 200 2181 54 
Q 1900 -91 1497 -91 
Q 953 -91 614 226 
Q 275 544 275 1050 
Q 275 1666 698 1953 
Q 1122 2241 2028 2241 
L 2688 2241 
L 2688 2328 
Q 2688 2594 2478 2717 
Q 2269 2841 1825 2841 
Q 1466 2841 1156 2769 
Q 847 2697 581 2553 
L 581 3406 
Q 941 3494 1303 3539 
Q 1666 3584 2028 3584 
Q 2975 3584 3395 3211 
Q 3816 2838 3816 1997 
z
" transform="scale(0.015625)"/>
      <path id="DejaVuSans-Bold-63" d="M 3366 3391 
L 3366 2478 
Q 3138 2634 2908 2709 
Q 2678 2784 2431 2784 
Q 1963 2784 1702 2511 
Q 1441 2238 1441 1747 
Q 1441 1256 1702 982 
Q 1963 709 2431 709 
Q 2694 709 2930 787 
Q 3166 866 3366 1019 
L 3366 103 
Q 3103 6 2833 -42 
Q 2563 -91 2291 -91 
Q 1344 -91 809 395 
Q 275 881 275 1747 
Q 275 2613 809 3098 
Q 1344 3584 2291 3584 
Q 2566 3584 2833 3536 
Q 3100 3488 3366 3391 
z
" transform="scale(0.015625)"/>
      <path id="DejaVuSans-Bold-68" d="M 4056 2131 
L 4056 0 
L 2931 0 
L 2931 347 
L 2931 1625 
Q 2931 2084 2911 2256 
Q 2891 2428 2841 2509 
Q 2775 2619 2662 2680 
Q 2550 2741 2406 2741 
Q 2056 2741 1856 2470 
Q 1656 2200 1656 1722 
L 1656 0 
L 538 0 
L 538 4863 
L 1656 4863 
L 1656 2988 
Q 1909 3294 2193 3439 
Q 2478 3584 2822 3584 
Q 3428 3584 3742 3212 
Q 4056 2841 4056 2131 
z
" transform="scale(0.015625)"/>
      <path id="DejaVuSans-Bold-79" d="M 78 3500 
L 1197 3500 
L 2138 1125 
L 2938 3500 
L 4056 3500 
L 2584 -331 
Q 2363 -916 2067 -1148 
Q 1772 -1381 1288 -1381 
L 641 -1381 
L 641 -647 
L 991 -647 
Q 1275 -647 1404 -556 
Q 1534 -466 1606 -231 
L 1638 -134 
L 78 3500 
z
" transform="scale(0.015625)"/>
      <path id="DejaVuSans-Bold-26" d="M 2497 3097 
L 3775 1691 
Q 3941 1909 4027 2181 
Q 4113 2453 4128 2797 
L 5100 2797 
Q 5053 2228 4879 1784 
Q 4706 1341 4397 1006 
L 5313 0 
L 3988 0 
L 3681 341 
Q 3353 122 2990 15 
Q 2628 -91 2222 -91 
Q 1400 -91 892 342 
Q 384 775 384 1459 
Q 384 1916 607 2267 
Q 831 2619 1338 2950 
Q 1206 3116 1143 3281 
Q 1081 3447 1081 3628 
Q 1081 4138 1478 4444 
Q 1875 4750 2534 4750 
Q 2819 4750 3126 4704 
Q 3434 4659 3769 4569 
L 3769 3700 
Q 3475 3850 3212 3922 
Q 2950 3994 2700 3994 
Q 2459 3994 2326 3901 
Q 2194 3809 2194 3641 
Q 2194 3534 2270 3398 
Q 2347 3263 2497 3097 
z
M 1875 2322 
Q 1672 2175 1569 1989 
Q 1466 1803 1466 1581 
Q 1466 1222 1731 969 
Q 1997 716 2369 716 
Q 2578 716 2759 780 
Q 2941 844 3097 972 
L 1875 2322 
z
" transform="scale(0.015625)"/>
      <path id="DejaVuSans-Bold-50" d="M 588 4666 
L 2584 4666 
Q 3475 4666 3951 4270 
Q 4428 3875 4428 3144 
Q 4428 2409 3951 2014 
Q 3475 1619 2584 1619 
L 1791 1619 
L 1791 0 
L 588 0 
L 588 4666 
z
M 1791 3794 
L 1791 2491 
L 2456 2491 
Q 2806 2491 2997 2661 
Q 3188 2831 3188 3144 
Q 3188 3456 2997 3625 
Q 2806 3794 2456 3794 
L 1791 3794 
z
" transform="scale(0.015625)"/>
      <path id="DejaVuSans-Bold-6d" d="M 3781 2919 
Q 3994 3244 4286 3414 
Q 4578 3584 4928 3584 
Q 5531 3584 5847 3212 
Q 6163 2841 6163 2131 
L 6163 0 
L 5038 0 
L 5038 1825 
Q 5041 1866 5042 1909 
Q 5044 1953 5044 2034 
Q 5044 2406 4934 2573 
Q 4825 2741 4581 2741 
Q 4263 2741 4089 2478 
Q 3916 2216 3909 1719 
L 3909 0 
L 2784 0 
L 2784 1825 
Q 2784 2406 2684 2573 
Q 2584 2741 2328 2741 
Q 2006 2741 1831 2477 
Q 1656 2213 1656 1722 
L 1656 0 
L 531 0 
L 531 3500 
L 1656 3500 
L 1656 2988 
Q 1863 3284 2130 3434 
Q 2397 3584 2719 3584 
Q 3081 3584 3359 3409 
Q 3638 3234 3781 2919 
z
" transform="scale(0.015625)"/>
      <path id="DejaVuSans-Bold-74" d="M 1759 4494 
L 1759 3500 
L 2913 3500 
L 2913 2700 
L 1759 2700 
L 1759 1216 
Q 1759 972 1856 886 
Q 1953 800 2241 800 
L 2816 800 
L 2816 0 
L 1856 0 
Q 1194 0 917 276 
Q 641 553 641 1216 
L 641 2700 
L 84 2700 
L 84 3500 
L 641 3500 
L 641 4494 
L 1759 4494 
z
" transform="scale(0.015625)"/>
      <path id="DejaVuSans-Bold-6e" d="M 4056 2131 
L 4056 0 
L 2931 0 
L 2931 347 
L 2931 1631 
Q 2931 2084 2911 2256 
Q 2891 2428 2841 2509 
Q 2775 2619 2662 2680 
Q 2550 2741 2406 2741 
Q 2056 2741 1856 2470 
Q 1656 2200 1656 1722 
L 1656 0 
L 538 0 
L 538 3500 
L 1656 3500 
L 1656 2988 
Q 1909 3294 2193 3439 
Q 2478 3584 2822 3584 
Q 3428 3584 3742 3212 
Q 4056 2841 4056 2131 
z
" transform="scale(0.015625)"/>
     </defs>
     <use xlink:href="#DejaVuSans-Bold-52"/>
     <use xlink:href="#DejaVuSans-Bold-48" transform="translate(77.001953 0)"/>
     <use xlink:href="#DejaVuSans-Bold-41" transform="translate(160.693359 0)"/>
     <use xlink:href="#DejaVuSans-Bold-4e" transform="translate(238.085938 0)"/>
     <use xlink:href="#DejaVuSans-Bold-20" transform="translate(321.777344 0)"/>
     <use xlink:href="#DejaVuSans-Bold-4d" transform="translate(356.591797 0)"/>
     <use xlink:href="#DejaVuSans-Bold-6f" transform="translate(456.103516 0)"/>
     <use xlink:href="#DejaVuSans-Bold-64" transform="translate(524.804688 0)"/>
     <use xlink:href="#DejaVuSans-Bold-75" transform="translate(596.386719 0)"/>
     <use xlink:href="#DejaVuSans-Bold-6c" transform="translate(667.578125 0)"/>
     <use xlink:href="#DejaVuSans-Bold-65" transform="translate(701.855469 0)"/>
     <use xlink:href="#DejaVuSans-Bold-20" transform="translate(769.677734 0)"/>
     <use xlink:href="#DejaVuSans-Bold-48" transform="translate(804.492188 0)"/>
     <use xlink:href="#DejaVuSans-Bold-69" transform="translate(888.183594 0)"/>
     <use xlink:href="#DejaVuSans-Bold-65" transform="translate(922.460938 0)"/>
     <use xlink:href="#DejaVuSans-Bold-72" transform="translate(990.283203 0)"/>
     <use xlink:href="#DejaVuSans-Bold-61" transform="translate(1039.599609 0)"/>
     <use xlink:href="#DejaVuSans-Bold-72" transform="translate(1107.080078 0)"/>
     <use xlink:href="#DejaVuSans-Bold-63" transform="translate(1156.396484 0)"/>
     <use xlink:href="#DejaVuSans-Bold-68" transform="translate(1215.673828 0)"/>
     <use xlink:href="#DejaVuSans-Bold-79" transform="translate(1286.865234 0)"/>
     <use xlink:href="#DejaVuSans-Bold-20" transform="translate(1352.050781 0)"/>
     <use xlink:href="#DejaVuSans-Bold-26" transform="translate(1386.865234 0)"/>
     <use xlink:href="#DejaVuSans-Bold-20" transform="translate(1474.072266 0)"/>
     <use xlink:href="#DejaVuSans-Bold-50" transform="translate(1508.886719 0)"/>
     <use xlink:href="#DejaVuSans-Bold-61" transform="translate(1579.552734 0)"/>
     <use xlink:href="#DejaVuSans-Bold-72" transform="translate(1647.033203 0)"/>
     <use xlink:href="#DejaVuSans-Bold-61" transform="translate(1696.349609 0)"/>
     <use xlink:href="#DejaVuSans-Bold-6d" transform="translate(1763.830078 0)"/>
     <use xlink:href="#DejaVuSans-Bold-65" transform="translate(1868.029297 0)"/>
     <use xlink:href="#DejaVuSans-Bold-74" transform="translate(1935.851562 0)"/>
     <use xlink:href="#DejaVuSans-Bold-65" transform="translate(1983.654297 0)"/>
     <use xlink:href="#DejaVuSans-Bold-72" transform="translate(2051.476562 0)"/>
     <use xlink:href="#DejaVuSans-Bold-20" transform="translate(2100.792969 0)"/>
     <use xlink:href="#DejaVuSans-Bold-41" transform="translate(2135.607422 0)"/>
     <use xlink:href="#DejaVuSans-Bold-6c" transform="translate(2213 0)"/>
     <use xlink:href="#DejaVuSans-Bold-6c" transform="translate(2247.277344 0)"/>
     <use xlink:href="#DejaVuSans-Bold-6f" transform="translate(2281.554688 0)"/>
     <use xlink:href="#DejaVuSans-Bold-63" transform="translate(2350.255859 0)"/>
     <use xlink:href="#DejaVuSans-Bold-61" transform="translate(2409.533203 0)"/>
     <use xlink:href="#DejaVuSans-Bold-74" transform="translate(2477.013672 0)"/>
     <use xlink:href="#DejaVuSans-Bold-69" transform="translate(2524.816406 0)"/>
     <use xlink:href="#DejaVuSans-Bold-6f" transform="translate(2559.09375 0)"/>
     <use xlink:href="#DejaVuSans-Bold-6e" transform="translate(2627.794922 0)"/>
    </g>
   </g>
   <g id="text_2">
    <!-- RHAN (55.62M params) -->
    <g style="fill: #111111" transform="translate(55.466094 106.541406) scale(0.095 -0.095)">
     <defs>
      <path id="DejaVuSans-Bold-28" d="M 2413 -844 
L 1484 -844 
Q 1006 -72 778 623 
Q 550 1319 550 2003 
Q 550 2688 779 3389 
Q 1009 4091 1484 4856 
L 2413 4856 
Q 2013 4116 1813 3408 
Q 1613 2700 1613 2009 
Q 1613 1319 1811 609 
Q 2009 -100 2413 -844 
z
" transform="scale(0.015625)"/>
      <path id="DejaVuSans-Bold-35" d="M 678 4666 
L 3669 4666 
L 3669 3781 
L 1638 3781 
L 1638 3059 
Q 1775 3097 1914 3117 
Q 2053 3138 2203 3138 
Q 3056 3138 3531 2711 
Q 4006 2284 4006 1522 
Q 4006 766 3489 337 
Q 2972 -91 2053 -91 
Q 1656 -91 1267 -14 
Q 878 63 494 219 
L 494 1166 
Q 875 947 1217 837 
Q 1559 728 1863 728 
Q 2300 728 2551 942 
Q 2803 1156 2803 1522 
Q 2803 1891 2551 2103 
Q 2300 2316 1863 2316 
Q 1603 2316 1309 2248 
Q 1016 2181 678 2041 
L 678 4666 
z
" transform="scale(0.015625)"/>
      <path id="DejaVuSans-Bold-2e" d="M 653 1209 
L 1778 1209 
L 1778 0 
L 653 0 
L 653 1209 
z
" transform="scale(0.015625)"/>
      <path id="DejaVuSans-Bold-36" d="M 2316 2303 
Q 2000 2303 1842 2098 
Q 1684 1894 1684 1484 
Q 1684 1075 1842 870 
Q 2000 666 2316 666 
Q 2634 666 2792 870 
Q 2950 1075 2950 1484 
Q 2950 1894 2792 2098 
Q 2634 2303 2316 2303 
z
M 3803 4544 
L 3803 3681 
Q 3506 3822 3243 3889 
Q 2981 3956 2731 3956 
Q 2194 3956 1894 3657 
Q 1594 3359 1544 2772 
Q 1750 2925 1990 3001 
Q 2231 3078 2516 3078 
Q 3231 3078 3670 2659 
Q 4109 2241 4109 1563 
Q 4109 813 3618 361 
Q 3128 -91 2303 -91 
Q 1394 -91 895 523 
Q 397 1138 397 2266 
Q 397 3422 980 4083 
Q 1563 4744 2578 4744 
Q 2900 4744 3203 4694 
Q 3506 4644 3803 4544 
z
" transform="scale(0.015625)"/>
      <path id="DejaVuSans-Bold-32" d="M 1844 884 
L 3897 884 
L 3897 0 
L 506 0 
L 506 884 
L 2209 2388 
Q 2438 2594 2547 2791 
Q 2656 2988 2656 3200 
Q 2656 3528 2436 3728 
Q 2216 3928 1850 3928 
Q 1569 3928 1234 3808 
Q 900 3688 519 3450 
L 519 4475 
Q 925 4609 1322 4679 
Q 1719 4750 2100 4750 
Q 2938 4750 3402 4381 
Q 3866 4013 3866 3353 
Q 3866 2972 3669 2642 
Q 3472 2313 2841 1759 
L 1844 884 
z
" transform="scale(0.015625)"/>
      <path id="DejaVuSans-Bold-70" d="M 1656 506 
L 1656 -1331 
L 538 -1331 
L 538 3500 
L 1656 3500 
L 1656 2988 
Q 1888 3294 2169 3439 
Q 2450 3584 2816 3584 
Q 3463 3584 3878 3070 
Q 4294 2556 4294 1747 
Q 4294 938 3878 423 
Q 3463 -91 2816 -91 
Q 2450 -91 2169 54 
Q 1888 200 1656 506 
z
M 2400 2772 
Q 2041 2772 1848 2508 
Q 1656 2244 1656 1747 
Q 1656 1250 1848 986 
Q 2041 722 2400 722 
Q 2759 722 2948 984 
Q 3138 1247 3138 1747 
Q 3138 2247 2948 2509 
Q 2759 2772 2400 2772 
z
" transform="scale(0.015625)"/>
      <path id="DejaVuSans-Bold-73" d="M 3272 3391 
L 3272 2541 
Q 2913 2691 2578 2766 
Q 2244 2841 1947 2841 
Q 1628 2841 1473 2761 
Q 1319 2681 1319 2516 
Q 1319 2381 1436 2309 
Q 1553 2238 1856 2203 
L 2053 2175 
Q 2913 2066 3209 1816 
Q 3506 1566 3506 1031 
Q 3506 472 3093 190 
Q 2681 -91 1863 -91 
Q 1516 -91 1145 -36 
Q 775 19 384 128 
L 384 978 
Q 719 816 1070 734 
Q 1422 653 1784 653 
Q 2113 653 2278 743 
Q 2444 834 2444 1013 
Q 2444 1163 2330 1236 
Q 2216 1309 1875 1350 
L 1678 1375 
Q 931 1469 631 1722 
Q 331 1975 331 2491 
Q 331 3047 712 3315 
Q 1094 3584 1881 3584 
Q 2191 3584 2531 3537 
Q 2872 3491 3272 3391 
z
" transform="scale(0.015625)"/>
      <path id="DejaVuSans-Bold-29" d="M 513 -844 
Q 913 -100 1113 609 
Q 1313 1319 1313 2009 
Q 1313 2700 1113 3408 
Q 913 4116 513 4856 
L 1441 4856 
Q 1916 4091 2145 3389 
Q 2375 2688 2375 2003 
Q 2375 1319 2147 623 
Q 1919 -72 1441 -844 
L 513 -844 
z
" transform="scale(0.015625)"/>
     </defs>
     <use xlink:href="#DejaVuSans-Bold-52"/>
     <use xlink:href="#DejaVuSans-Bold-48" transform="translate(77.001953 0)"/>
     <use xlink:href="#DejaVuSans-Bold-41" transform="translate(160.693359 0)"/>
     <use xlink:href="#DejaVuSans-Bold-4e" transform="translate(238.085938 0)"/>
     <use xlink:href="#DejaVuSans-Bold-20" transform="translate(321.777344 0)"/>
     <use xlink:href="#DejaVuSans-Bold-28" transform="translate(356.591797 0)"/>
     <use xlink:href="#DejaVuSans-Bold-35" transform="translate(402.294922 0)"/>
     <use xlink:href="#DejaVuSans-Bold-35" transform="translate(471.875 0)"/>
     <use xlink:href="#DejaVuSans-Bold-2e" transform="translate(541.455078 0)"/>
     <use xlink:href="#DejaVuSans-Bold-36" transform="translate(579.443359 0)"/>
     <use xlink:href="#DejaVuSans-Bold-32" transform="translate(649.023438 0)"/>
     <use xlink:href="#DejaVuSans-Bold-4d" transform="translate(718.603516 0)"/>
     <use xlink:href="#DejaVuSans-Bold-20" transform="translate(818.115234 0)"/>
     <use xlink:href="#DejaVuSans-Bold-70" transform="translate(852.929688 0)"/>
     <use xlink:href="#DejaVuSans-Bold-61" transform="translate(924.511719 0)"/>
     <use xlink:href="#DejaVuSans-Bold-72" transform="translate(991.992188 0)"/>
     <use xlink:href="#DejaVuSans-Bold-61" transform="translate(1041.308594 0)"/>
     <use xlink:href="#DejaVuSans-Bold-6d" transform="translate(1108.789062 0)"/>
     <use xlink:href="#DejaVuSans-Bold-73" transform="translate(1212.988281 0)"/>
     <use xlink:href="#DejaVuSans-Bold-29" transform="translate(1272.509766 0)"/>
    </g>
   </g>
   <g id="text_3">
    <!-- WideSEConvStem (1.45M) -->
    <g style="fill: #111111" transform="translate(214.713789 158.621406) scale(0.095 -0.095)">
     <defs>
      <path id="DejaVuSans-Bold-57" d="M 191 4666 
L 1344 4666 
L 2150 1275 
L 2950 4666 
L 4109 4666 
L 4909 1275 
L 5716 4666 
L 6859 4666 
L 5759 0 
L 4372 0 
L 3525 3547 
L 2688 0 
L 1300 0 
L 191 4666 
z
" transform="scale(0.015625)"/>
      <path id="DejaVuSans-Bold-53" d="M 3834 4519 
L 3834 3531 
Q 3450 3703 3084 3790 
Q 2719 3878 2394 3878 
Q 1963 3878 1756 3759 
Q 1550 3641 1550 3391 
Q 1550 3203 1689 3098 
Q 1828 2994 2194 2919 
L 2706 2816 
Q 3484 2659 3812 2340 
Q 4141 2022 4141 1434 
Q 4141 663 3683 286 
Q 3225 -91 2284 -91 
Q 1841 -91 1394 -6 
Q 947 78 500 244 
L 500 1259 
Q 947 1022 1364 901 
Q 1781 781 2169 781 
Q 2563 781 2772 912 
Q 2981 1044 2981 1288 
Q 2981 1506 2839 1625 
Q 2697 1744 2272 1838 
L 1806 1941 
Q 1106 2091 782 2419 
Q 459 2747 459 3303 
Q 459 4000 909 4375 
Q 1359 4750 2203 4750 
Q 2588 4750 2994 4692 
Q 3400 4634 3834 4519 
z
" transform="scale(0.015625)"/>
      <path id="DejaVuSans-Bold-45" d="M 588 4666 
L 3834 4666 
L 3834 3756 
L 1791 3756 
L 1791 2888 
L 3713 2888 
L 3713 1978 
L 1791 1978 
L 1791 909 
L 3903 909 
L 3903 0 
L 588 0 
L 588 4666 
z
" transform="scale(0.015625)"/>
      <path id="DejaVuSans-Bold-43" d="M 4288 256 
Q 3956 84 3597 -3 
Q 3238 -91 2847 -91 
Q 1681 -91 1000 561 
Q 319 1213 319 2328 
Q 319 3447 1000 4098 
Q 1681 4750 2847 4750 
Q 3238 4750 3597 4662 
Q 3956 4575 4288 4403 
L 4288 3438 
Q 3953 3666 3628 3772 
Q 3303 3878 2944 3878 
Q 2300 3878 1931 3465 
Q 1563 3053 1563 2328 
Q 1563 1606 1931 1193 
Q 2300 781 2944 781 
Q 3303 781 3628 887 
Q 3953 994 4288 1222 
L 4288 256 
z
" transform="scale(0.015625)"/>
      <path id="DejaVuSans-Bold-76" d="M 97 3500 
L 1216 3500 
L 2088 1081 
L 2956 3500 
L 4078 3500 
L 2700 0 
L 1472 0 
L 97 3500 
z
" transform="scale(0.015625)"/>
      <path id="DejaVuSans-Bold-31" d="M 750 831 
L 1813 831 
L 1813 3847 
L 722 3622 
L 722 4441 
L 1806 4666 
L 2950 4666 
L 2950 831 
L 4013 831 
L 4013 0 
L 750 0 
L 750 831 
z
" transform="scale(0.015625)"/>
      <path id="DejaVuSans-Bold-34" d="M 2356 3675 
L 1038 1722 
L 2356 1722 
L 2356 3675 
z
M 2156 4666 
L 3494 4666 
L 3494 1722 
L 4159 1722 
L 4159 850 
L 3494 850 
L 3494 0 
L 2356 0 
L 2356 850 
L 288 850 
L 288 1881 
L 2156 4666 
z
" transform="scale(0.015625)"/>
     </defs>
     <use xlink:href="#DejaVuSans-Bold-57"/>
     <use xlink:href="#DejaVuSans-Bold-69" transform="translate(110.302734 0)"/>
     <use xlink:href="#DejaVuSans-Bold-64" transform="translate(144.580078 0)"/>
     <use xlink:href="#DejaVuSans-Bold-65" transform="translate(216.162109 0)"/>
     <use xlink:href="#DejaVuSans-Bold-53" transform="translate(283.984375 0)"/>
     <use xlink:href="#DejaVuSans-Bold-45" transform="translate(356.005859 0)"/>
     <use xlink:href="#DejaVuSans-Bold-43" transform="translate(424.316406 0)"/>
     <use xlink:href="#DejaVuSans-Bold-6f" transform="translate(497.705078 0)"/>
     <use xlink:href="#DejaVuSans-Bold-6e" transform="translate(566.40625 0)"/>
     <use xlink:href="#DejaVuSans-Bold-76" transform="translate(637.597656 0)"/>
     <use xlink:href="#DejaVuSans-Bold-53" transform="translate(702.783203 0)"/>
     <use xlink:href="#DejaVuSans-Bold-74" transform="translate(774.804688 0)"/>
     <use xlink:href="#DejaVuSans-Bold-65" transform="translate(822.607422 0)"/>
     <use xlink:href="#DejaVuSans-Bold-6d" transform="translate(890.429688 0)"/>
     <use xlink:href="#DejaVuSans-Bold-20" transform="translate(994.628906 0)"/>
     <use xlink:href="#DejaVuSans-Bold-28" transform="translate(1029.443359 0)"/>
     <use xlink:href="#DejaVuSans-Bold-31" transform="translate(1075.146484 0)"/>
     <use xlink:href="#DejaVuSans-Bold-2e" transform="translate(1144.726562 0)"/>
     <use xlink:href="#DejaVuSans-Bold-34" transform="translate(1182.714844 0)"/>
     <use xlink:href="#DejaVuSans-Bold-35" transform="translate(1252.294922 0)"/>
     <use xlink:href="#DejaVuSans-Bold-4d" transform="translate(1321.875 0)"/>
     <use xlink:href="#DejaVuSans-Bold-29" transform="translate(1421.386719 0)"/>
    </g>
   </g>
   <g id="text_4">
    <!-- PatchTokeniserLarge (0.12M) -->
    <g style="fill: #111111" transform="translate(206.200898 210.664297) scale(0.095 -0.095)">
     <defs>
      <path id="DejaVuSans-Bold-54" d="M 31 4666 
L 4331 4666 
L 4331 3756 
L 2784 3756 
L 2784 0 
L 1581 0 
L 1581 3756 
L 31 3756 
L 31 4666 
z
" transform="scale(0.015625)"/>
      <path id="DejaVuSans-Bold-6b" d="M 538 4863 
L 1656 4863 
L 1656 2216 
L 2944 3500 
L 4244 3500 
L 2534 1894 
L 4378 0 
L 3022 0 
L 1656 1459 
L 1656 0 
L 538 0 
L 538 4863 
z
" transform="scale(0.015625)"/>
      <path id="DejaVuSans-Bold-4c" d="M 588 4666 
L 1791 4666 
L 1791 909 
L 3903 909 
L 3903 0 
L 588 0 
L 588 4666 
z
" transform="scale(0.015625)"/>
      <path id="DejaVuSans-Bold-67" d="M 2919 594 
Q 2688 288 2409 144 
Q 2131 0 1766 0 
Q 1125 0 706 504 
Q 288 1009 288 1791 
Q 288 2575 706 3076 
Q 1125 3578 1766 3578 
Q 2131 3578 2409 3434 
Q 2688 3291 2919 2981 
L 2919 3500 
L 4044 3500 
L 4044 353 
Q 4044 -491 3511 -936 
Q 2978 -1381 1966 -1381 
Q 1638 -1381 1331 -1331 
Q 1025 -1281 716 -1178 
L 716 -306 
Q 1009 -475 1290 -558 
Q 1572 -641 1856 -641 
Q 2406 -641 2662 -400 
Q 2919 -159 2919 353 
L 2919 594 
z
M 2181 2772 
Q 1834 2772 1640 2515 
Q 1447 2259 1447 1791 
Q 1447 1309 1634 1061 
Q 1822 813 2181 813 
Q 2531 813 2725 1069 
Q 2919 1325 2919 1791 
Q 2919 2259 2725 2515 
Q 2531 2772 2181 2772 
z
" transform="scale(0.015625)"/>
      <path id="DejaVuSans-Bold-30" d="M 2944 2338 
Q 2944 3213 2780 3570 
Q 2616 3928 2228 3928 
Q 1841 3928 1675 3570 
Q 1509 3213 1509 2338 
Q 1509 1453 1675 1090 
Q 1841 728 2228 728 
Q 2613 728 2778 1090 
Q 2944 1453 2944 2338 
z
M 4147 2328 
Q 4147 1169 3647 539 
Q 3147 -91 2228 -91 
Q 1306 -91 806 539 
Q 306 1169 306 2328 
Q 306 3491 806 4120 
Q 1306 4750 2228 4750 
Q 3147 4750 3647 4120 
Q 4147 3491 4147 2328 
z
" transform="scale(0.015625)"/>
     </defs>
     <use xlink:href="#DejaVuSans-Bold-50"/>
     <use xlink:href="#DejaVuSans-Bold-61" transform="translate(70.666016 0)"/>
     <use xlink:href="#DejaVuSans-Bold-74" transform="translate(138.146484 0)"/>
     <use xlink:href="#DejaVuSans-Bold-63" transform="translate(185.949219 0)"/>
     <use xlink:href="#DejaVuSans-Bold-68" transform="translate(245.226562 0)"/>
     <use xlink:href="#DejaVuSans-Bold-54" transform="translate(316.417969 0)"/>
     <use xlink:href="#DejaVuSans-Bold-6f" transform="translate(371.380859 0)"/>
     <use xlink:href="#DejaVuSans-Bold-6b" transform="translate(440.082031 0)"/>
     <use xlink:href="#DejaVuSans-Bold-65" transform="translate(503.960938 0)"/>
     <use xlink:href="#DejaVuSans-Bold-6e" transform="translate(571.783203 0)"/>
     <use xlink:href="#DejaVuSans-Bold-69" transform="translate(642.974609 0)"/>
     <use xlink:href="#DejaVuSans-Bold-73" transform="translate(677.251953 0)"/>
     <use xlink:href="#DejaVuSans-Bold-65" transform="translate(736.773438 0)"/>
     <use xlink:href="#DejaVuSans-Bold-72" transform="translate(804.595703 0)"/>
     <use xlink:href="#DejaVuSans-Bold-4c" transform="translate(853.912109 0)"/>
     <use xlink:href="#DejaVuSans-Bold-61" transform="translate(917.632812 0)"/>
     <use xlink:href="#DejaVuSans-Bold-72" transform="translate(985.113281 0)"/>
     <use xlink:href="#DejaVuSans-Bold-67" transform="translate(1034.429688 0)"/>
     <use xlink:href="#DejaVuSans-Bold-65" transform="translate(1106.011719 0)"/>
     <use xlink:href="#DejaVuSans-Bold-20" transform="translate(1173.833984 0)"/>
     <use xlink:href="#DejaVuSans-Bold-28" transform="translate(1208.648438 0)"/>
     <use xlink:href="#DejaVuSans-Bold-30" transform="translate(1254.351562 0)"/>
     <use xlink:href="#DejaVuSans-Bold-2e" transform="translate(1323.931641 0)"/>
     <use xlink:href="#DejaVuSans-Bold-31" transform="translate(1361.919922 0)"/>
     <use xlink:href="#DejaVuSans-Bold-32" transform="translate(1431.5 0)"/>
     <use xlink:href="#DejaVuSans-Bold-4d" transform="translate(1501.080078 0)"/>
     <use xlink:href="#DejaVuSans-Bold-29" transform="translate(1600.591797 0)"/>
    </g>
   </g>
   <g id="text_5">
    <!-- Ventral Transformer (26.85M) -->
    <g style="fill: #111111" transform="translate(204.875352 262.781406) scale(0.095 -0.095)">
     <defs>
      <path id="DejaVuSans-Bold-56" d="M 31 4666 
L 1241 4666 
L 2478 1222 
L 3713 4666 
L 4922 4666 
L 3194 0 
L 1759 0 
L 31 4666 
z
" transform="scale(0.015625)"/>
      <path id="DejaVuSans-Bold-66" d="M 2841 4863 
L 2841 4128 
L 2222 4128 
Q 1984 4128 1890 4042 
Q 1797 3956 1797 3744 
L 1797 3500 
L 2753 3500 
L 2753 2700 
L 1797 2700 
L 1797 0 
L 678 0 
L 678 2700 
L 122 2700 
L 122 3500 
L 678 3500 
L 678 3744 
Q 678 4316 997 4589 
Q 1316 4863 1984 4863 
L 2841 4863 
z
" transform="scale(0.015625)"/>
      <path id="DejaVuSans-Bold-38" d="M 2228 2088 
Q 1891 2088 1709 1903 
Q 1528 1719 1528 1375 
Q 1528 1031 1709 848 
Q 1891 666 2228 666 
Q 2563 666 2741 848 
Q 2919 1031 2919 1375 
Q 2919 1722 2741 1905 
Q 2563 2088 2228 2088 
z
M 1350 2484 
Q 925 2613 709 2878 
Q 494 3144 494 3541 
Q 494 4131 934 4440 
Q 1375 4750 2228 4750 
Q 3075 4750 3515 4442 
Q 3956 4134 3956 3541 
Q 3956 3144 3739 2878 
Q 3522 2613 3097 2484 
Q 3572 2353 3814 2058 
Q 4056 1763 4056 1313 
Q 4056 619 3595 264 
Q 3134 -91 2228 -91 
Q 1319 -91 855 264 
Q 391 619 391 1313 
Q 391 1763 633 2058 
Q 875 2353 1350 2484 
z
M 1631 3419 
Q 1631 3141 1786 2991 
Q 1941 2841 2228 2841 
Q 2509 2841 2662 2991 
Q 2816 3141 2816 3419 
Q 2816 3697 2662 3845 
Q 2509 3994 2228 3994 
Q 1941 3994 1786 3844 
Q 1631 3694 1631 3419 
z
" transform="scale(0.015625)"/>
     </defs>
     <use xlink:href="#DejaVuSans-Bold-56"/>
     <use xlink:href="#DejaVuSans-Bold-65" transform="translate(71.892578 0)"/>
     <use xlink:href="#DejaVuSans-Bold-6e" transform="translate(139.714844 0)"/>
     <use xlink:href="#DejaVuSans-Bold-74" transform="translate(210.90625 0)"/>
     <use xlink:href="#DejaVuSans-Bold-72" transform="translate(258.708984 0)"/>
     <use xlink:href="#DejaVuSans-Bold-61" transform="translate(308.025391 0)"/>
     <use xlink:href="#DejaVuSans-Bold-6c" transform="translate(375.505859 0)"/>
     <use xlink:href="#DejaVuSans-Bold-20" transform="translate(409.783203 0)"/>
     <use xlink:href="#DejaVuSans-Bold-54" transform="translate(444.597656 0)"/>
     <use xlink:href="#DejaVuSans-Bold-72" transform="translate(501.810547 0)"/>
     <use xlink:href="#DejaVuSans-Bold-61" transform="translate(551.126953 0)"/>
     <use xlink:href="#DejaVuSans-Bold-6e" transform="translate(618.607422 0)"/>
     <use xlink:href="#DejaVuSans-Bold-73" transform="translate(689.798828 0)"/>
     <use xlink:href="#DejaVuSans-Bold-66" transform="translate(749.320312 0)"/>
     <use xlink:href="#DejaVuSans-Bold-6f" transform="translate(792.826172 0)"/>
     <use xlink:href="#DejaVuSans-Bold-72" transform="translate(861.527344 0)"/>
     <use xlink:href="#DejaVuSans-Bold-6d" transform="translate(910.84375 0)"/>
     <use xlink:href="#DejaVuSans-Bold-65" transform="translate(1015.042969 0)"/>
     <use xlink:href="#DejaVuSans-Bold-72" transform="translate(1082.865234 0)"/>
     <use xlink:href="#DejaVuSans-Bold-20" transform="translate(1132.181641 0)"/>
     <use xlink:href="#DejaVuSans-Bold-28" transform="translate(1166.996094 0)"/>
     <use xlink:href="#DejaVuSans-Bold-32" transform="translate(1212.699219 0)"/>
     <use xlink:href="#DejaVuSans-Bold-36" transform="translate(1282.279297 0)"/>
     <use xlink:href="#DejaVuSans-Bold-2e" transform="translate(1351.859375 0)"/>
     <use xlink:href="#DejaVuSans-Bold-38" transform="translate(1389.847656 0)"/>
     <use xlink:href="#DejaVuSans-Bold-35" transform="translate(1459.427734 0)"/>
     <use xlink:href="#DejaVuSans-Bold-4d" transform="translate(1529.007812 0)"/>
     <use xlink:href="#DejaVuSans-Bold-29" transform="translate(1628.519531 0)"/>
    </g>
   </g>
   <g id="text_6">
    <!-- Dorsal Transformer (26.85M) -->
    <g style="fill: #111111" transform="translate(207.130117 314.861406) scale(0.095 -0.095)">
     <defs>
      <path id="DejaVuSans-Bold-44" d="M 1791 3756 
L 1791 909 
L 2222 909 
Q 2959 909 3348 1275 
Q 3738 1641 3738 2338 
Q 3738 3031 3350 3393 
Q 2963 3756 2222 3756 
L 1791 3756 
z
M 588 4666 
L 1856 4666 
Q 2919 4666 3439 4514 
Q 3959 4363 4331 4000 
Q 4659 3684 4818 3271 
Q 4978 2859 4978 2338 
Q 4978 1809 4818 1395 
Q 4659 981 4331 666 
Q 3956 303 3431 151 
Q 2906 0 1856 0 
L 588 0 
L 588 4666 
z
" transform="scale(0.015625)"/>
     </defs>
     <use xlink:href="#DejaVuSans-Bold-44"/>
     <use xlink:href="#DejaVuSans-Bold-6f" transform="translate(83.007812 0)"/>
     <use xlink:href="#DejaVuSans-Bold-72" transform="translate(151.708984 0)"/>
     <use xlink:href="#DejaVuSans-Bold-73" transform="translate(201.025391 0)"/>
     <use xlink:href="#DejaVuSans-Bold-61" transform="translate(260.546875 0)"/>
     <use xlink:href="#DejaVuSans-Bold-6c" transform="translate(328.027344 0)"/>
     <use xlink:href="#DejaVuSans-Bold-20" transform="translate(362.304688 0)"/>
     <use xlink:href="#DejaVuSans-Bold-54" transform="translate(397.119141 0)"/>
     <use xlink:href="#DejaVuSans-Bold-72" transform="translate(454.332031 0)"/>
     <use xlink:href="#DejaVuSans-Bold-61" transform="translate(503.648438 0)"/>
     <use xlink:href="#DejaVuSans-Bold-6e" transform="translate(571.128906 0)"/>
     <use xlink:href="#DejaVuSans-Bold-73" transform="translate(642.320312 0)"/>
     <use xlink:href="#DejaVuSans-Bold-66" transform="translate(701.841797 0)"/>
     <use xlink:href="#DejaVuSans-Bold-6f" transform="translate(745.347656 0)"/>
     <use xlink:href="#DejaVuSans-Bold-72" transform="translate(814.048828 0)"/>
     <use xlink:href="#DejaVuSans-Bold-6d" transform="translate(863.365234 0)"/>
     <use xlink:href="#DejaVuSans-Bold-65" transform="translate(967.564453 0)"/>
     <use xlink:href="#DejaVuSans-Bold-72" transform="translate(1035.386719 0)"/>
     <use xlink:href="#DejaVuSans-Bold-20" transform="translate(1084.703125 0)"/>
     <use xlink:href="#DejaVuSans-Bold-28" transform="translate(1119.517578 0)"/>
     <use xlink:href="#DejaVuSans-Bold-32" transform="translate(1165.220703 0)"/>
     <use xlink:href="#DejaVuSans-Bold-36" transform="translate(1234.800781 0)"/>
     <use xlink:href="#DejaVuSans-Bold-2e" transform="translate(1304.380859 0)"/>
     <use xlink:href="#DejaVuSans-Bold-38" transform="translate(1342.369141 0)"/>
     <use xlink:href="#DejaVuSans-Bold-35" transform="translate(1411.949219 0)"/>
     <use xlink:href="#DejaVuSans-Bold-4d" transform="translate(1481.529297 0)"/>
     <use xlink:href="#DejaVuSans-Bold-29" transform="translate(1581.041016 0)"/>
    </g>
   </g>
   <g id="text_7">
    <!-- PredictiveCodingLayerLarge (0.15M) -->
    <g style="fill: #111111" transform="translate(186.351836 366.904297) scale(0.095 -0.095)">
     <use xlink:href="#DejaVuSans-Bold-50"/>
     <use xlink:href="#DejaVuSans-Bold-72" transform="translate(73.291016 0)"/>
     <use xlink:href="#DejaVuSans-Bold-65" transform="translate(122.607422 0)"/>
     <use xlink:href="#DejaVuSans-Bold-64" transform="translate(190.429688 0)"/>
     <use xlink:href="#DejaVuSans-Bold-69" transform="translate(262.011719 0)"/>
     <use xlink:href="#DejaVuSans-Bold-63" transform="translate(296.289062 0)"/>
     <use xlink:href="#DejaVuSans-Bold-74" transform="translate(355.566406 0)"/>
     <use xlink:href="#DejaVuSans-Bold-69" transform="translate(403.369141 0)"/>
     <use xlink:href="#DejaVuSans-Bold-76" transform="translate(437.646484 0)"/>
     <use xlink:href="#DejaVuSans-Bold-65" transform="translate(502.832031 0)"/>
     <use xlink:href="#DejaVuSans-Bold-43" transform="translate(570.654297 0)"/>
     <use xlink:href="#DejaVuSans-Bold-6f" transform="translate(644.042969 0)"/>
     <use xlink:href="#DejaVuSans-Bold-64" transform="translate(712.744141 0)"/>
     <use xlink:href="#DejaVuSans-Bold-69" transform="translate(784.326172 0)"/>
     <use xlink:href="#DejaVuSans-Bold-6e" transform="translate(818.603516 0)"/>
     <use xlink:href="#DejaVuSans-Bold-67" transform="translate(889.794922 0)"/>
     <use xlink:href="#DejaVuSans-Bold-4c" transform="translate(961.376953 0)"/>
     <use xlink:href="#DejaVuSans-Bold-61" transform="translate(1025.097656 0)"/>
     <use xlink:href="#DejaVuSans-Bold-79" transform="translate(1089.453125 0)"/>
     <use xlink:href="#DejaVuSans-Bold-65" transform="translate(1154.638672 0)"/>
     <use xlink:href="#DejaVuSans-Bold-72" transform="translate(1222.460938 0)"/>
     <use xlink:href="#DejaVuSans-Bold-4c" transform="translate(1271.777344 0)"/>
     <use xlink:href="#DejaVuSans-Bold-61" transform="translate(1335.498047 0)"/>
     <use xlink:href="#DejaVuSans-Bold-72" transform="translate(1402.978516 0)"/>
     <use xlink:href="#DejaVuSans-Bold-67" transform="translate(1452.294922 0)"/>
     <use xlink:href="#DejaVuSans-Bold-65" transform="translate(1523.876953 0)"/>
     <use xlink:href="#DejaVuSans-Bold-20" transform="translate(1591.699219 0)"/>
     <use xlink:href="#DejaVuSans-Bold-28" transform="translate(1626.513672 0)"/>
     <use xlink:href="#DejaVuSans-Bold-30" transform="translate(1672.216797 0)"/>
     <use xlink:href="#DejaVuSans-Bold-2e" transform="translate(1741.796875 0)"/>
     <use xlink:href="#DejaVuSans-Bold-31" transform="translate(1779.785156 0)"/>
     <use xlink:href="#DejaVuSans-Bold-35" transform="translate(1849.365234 0)"/>
     <use xlink:href="#DejaVuSans-Bold-4d" transform="translate(1918.945312 0)"/>
     <use xlink:href="#DejaVuSans-Bold-29" transform="translate(2018.457031 0)"/>
    </g>
   </g>
   <g id="text_8">
    <!-- SphericalPrototypeHead (0.20M) -->
    <g style="fill: #111111" transform="translate(196.501992 418.984297) scale(0.095 -0.095)">
     <use xlink:href="#DejaVuSans-Bold-53"/>
     <use xlink:href="#DejaVuSans-Bold-70" transform="translate(72.021484 0)"/>
     <use xlink:href="#DejaVuSans-Bold-68" transform="translate(143.603516 0)"/>
     <use xlink:href="#DejaVuSans-Bold-65" transform="translate(214.794922 0)"/>
     <use xlink:href="#DejaVuSans-Bold-72" transform="translate(282.617188 0)"/>
     <use xlink:href="#DejaVuSans-Bold-69" transform="translate(331.933594 0)"/>
     <use xlink:href="#DejaVuSans-Bold-63" transform="translate(366.210938 0)"/>
     <use xlink:href="#DejaVuSans-Bold-61" transform="translate(425.488281 0)"/>
     <use xlink:href="#DejaVuSans-Bold-6c" transform="translate(492.96875 0)"/>
     <use xlink:href="#DejaVuSans-Bold-50" transform="translate(527.246094 0)"/>
     <use xlink:href="#DejaVuSans-Bold-72" transform="translate(600.537109 0)"/>
     <use xlink:href="#DejaVuSans-Bold-6f" transform="translate(649.853516 0)"/>
     <use xlink:href="#DejaVuSans-Bold-74" transform="translate(718.554688 0)"/>
     <use xlink:href="#DejaVuSans-Bold-6f" transform="translate(766.357422 0)"/>
     <use xlink:href="#DejaVuSans-Bold-74" transform="translate(835.058594 0)"/>
     <use xlink:href="#DejaVuSans-Bold-79" transform="translate(882.861328 0)"/>
     <use xlink:href="#DejaVuSans-Bold-70" transform="translate(948.046875 0)"/>
     <use xlink:href="#DejaVuSans-Bold-65" transform="translate(1019.628906 0)"/>
     <use xlink:href="#DejaVuSans-Bold-48" transform="translate(1087.451172 0)"/>
     <use xlink:href="#DejaVuSans-Bold-65" transform="translate(1171.142578 0)"/>
     <use xlink:href="#DejaVuSans-Bold-61" transform="translate(1238.964844 0)"/>
     <use xlink:href="#DejaVuSans-Bold-64" transform="translate(1306.445312 0)"/>
     <use xlink:href="#DejaVuSans-Bold-20" transform="translate(1378.027344 0)"/>
     <use xlink:href="#DejaVuSans-Bold-28" transform="translate(1412.841797 0)"/>
     <use xlink:href="#DejaVuSans-Bold-30" transform="translate(1458.544922 0)"/>
     <use xlink:href="#DejaVuSans-Bold-2e" transform="translate(1528.125 0)"/>
     <use xlink:href="#DejaVuSans-Bold-32" transform="translate(1566.113281 0)"/>
     <use xlink:href="#DejaVuSans-Bold-30" transform="translate(1635.693359 0)"/>
     <use xlink:href="#DejaVuSans-Bold-4d" transform="translate(1705.273438 0)"/>
     <use xlink:href="#DejaVuSans-Bold-29" transform="translate(1804.785156 0)"/>
    </g>
   </g>
  </g>
 </g>
 <defs>
  <clipPath id="pc83515a959">
   <rect x="7.2" y="7.2" width="554.4" height="446.4"/>
  </clipPath>
 </defs>
</svg>
