<?xml version="1.0" encoding="utf-8" standalone="no"?>
<!DOCTYPE svg PUBLIC "-//W3C//DTD SVG 1.1//EN"
  "http://www.w3.org/Graphics/SVG/1.1/DTD/svg11.dtd">
<svg xmlns:xlink="http://www.w3.org/1999/xlink" width="712.8pt" height="532.8pt" viewBox="0 0 712.8 532.8" xmlns="http://www.w3.org/2000/svg" version="1.1">
 <metadata>
  <rdf:RDF xmlns:dc="http://purl.org/dc/elements/1.1/" xmlns:cc="http://creativecommons.org/ns#" xmlns:rdf="http://www.w3.org/1999/02/22-rdf-syntax-ns#">
   <cc:Work>
    <dc:type rdf:resource="http://purl.org/dc/dcmitype/StillImage"/>
    <dc:date>2026-07-05T18:46:14.978465</dc:date>
    <dc:format>image/svg+xml</dc:format>
    <dc:creator>
     <cc:Agent>
      <dc:title>Matplotlib v3.10.9, https://matplotlib.org/</dc:title>
     </cc:Agent>
    </dc:creator>
   </cc:Work>
  </rdf:RDF>
 </metadata>
 <defs>
  <style type="text/css">*{stroke-linejoin: round; stroke-linecap: butt}</style>
 </defs>
 <g id="figure_1">
  <g id="patch_1">
   <path d="M 0 532.8 
L 712.8 532.8 
L 712.8 0 
L 0 0 
z
" style="fill: #ffffff"/>
  </g>
  <g id="axes_1">
   <g id="patch_2">
    <path d="M 286.56 103.474286 
L 426.24 103.474286 
L 426.24 73.851429 
L 286.56 73.851429 
z
" clip-path="url(#p1529545d8b)" style="fill: #fafafa; stroke: #1f77b4; stroke-width: 1.5"/>
   </g>
   <g id="patch_3">
    <path d="M 286.56 177.531429 
L 426.24 177.531429 
L 426.24 147.908571 
L 286.56 147.908571 
z
" clip-path="url(#p1529545d8b)" style="fill: #ffcdd2; stroke: #1f77b4; stroke-width: 1.5"/>
   </g>
   <g id="patch_4">
    <path d="M 286.56 251.588571 
L 426.24 251.588571 
L 426.24 221.965714 
L 286.56 221.965714 
z
" clip-path="url(#p1529545d8b)" style="fill: #c8e6c9; stroke: #1f77b4; stroke-width: 1.5"/>
   </g>
   <g id="patch_5">
    <path d="M 111.96 329.348571 
L 251.64 329.348571 
L 251.64 292.32 
L 111.96 292.32 
z
" clip-path="url(#p1529545d8b)" style="fill: #fff0f5; stroke: #1f77b4; stroke-width: 1.5"/>
   </g>
   <g id="patch_6">
    <path d="M 461.16 329.348571 
L 600.84 329.348571 
L 600.84 292.32 
L 461.16 292.32 
z
" clip-path="url(#p1529545d8b)" style="fill: #e0ffff; stroke: #1f77b4; stroke-width: 1.5"/>
   </g>
   <g id="patch_7">
    <path d="M 286.56 399.702857 
L 426.24 399.702857 
L 426.24 370.08 
L 286.56 370.08 
z
" clip-path="url(#p1529545d8b)" style="fill: #d1c4e9; stroke: #1f77b4; stroke-width: 1.5"/>
   </g>
   <g id="patch_8">
    <path d="M 286.56 473.76 
L 426.24 473.76 
L 426.24 444.137143 
L 286.56 444.137143 
z
" clip-path="url(#p1529545d8b)" style="fill: #d1c4e9; stroke: #1f77b4; stroke-width: 1.5"/>
   </g>
   <g id="patch_9">
    <path d="M 414.186387 163.297659 
Q 509.763366 192.591694 530.359119 289.269956 
" clip-path="url(#p1529545d8b)" style="fill: none; stroke-dasharray: 3.7,1.6; stroke-dashoffset: 0; stroke: #ff9800; stroke-linecap: round"/>
    <path d="M 531.48179 284.941029 
L 530.359119 289.269956 
L 527.56958 285.774463 
z
" clip-path="url(#p1529545d8b)" style="fill: #ff9800; stroke-dasharray: 3.7,1.6; stroke-dashoffset: 0; stroke: #ff9800; stroke-linecap: round"/>
   </g>
   <g id="patch_10">
    <path d="M 298.613613 163.297659 
Q 203.036634 192.591694 182.440881 289.269956 
" clip-path="url(#p1529545d8b)" style="fill: none; stroke-dasharray: 3.7,1.6; stroke-dashoffset: 0; stroke: #ff9800; stroke-linecap: round"/>
    <path d="M 185.23042 285.774463 
L 182.440881 289.269956 
L 181.31821 284.941029 
z
" clip-path="url(#p1529545d8b)" style="fill: #ff9800; stroke-dasharray: 3.7,1.6; stroke-dashoffset: 0; stroke: #ff9800; stroke-linecap: round"/>
   </g>
   <g id="text_1">
    <!-- RHAN Computational Graph &amp; Residual Skips -->
    <g transform="translate(191.313203 36.822857) scale(0.13 -0.13)">
     <defs>
      <path id="DejaVuSans-Bold-52" d="M 2297 2597 
Q 2675 2597 2839 2737 
Q 3003 2878 3003 3200 
Q 3003 3519 2839 3656 
Q 2675 3794 2297 3794 
L 1791 3794 
L 1791 2597 
L 2297 2597 
z
M 1791 1766 
L 1791 0 
L 588 0 
L 588 4666 
L 2425 4666 
Q 3347 4666 3776 4356 
Q 4206 4047 4206 3378 
Q 4206 2916 3982 2619 
Q 3759 2322 3309 2181 
Q 3556 2125 3751 1926 
Q 3947 1728 4147 1325 
L 4800 0 
L 3519 0 
L 2950 1159 
Q 2778 1509 2601 1637 
Q 2425 1766 2131 1766 
L 1791 1766 
z
" transform="scale(0.015625)"/>
      <path id="DejaVuSans-Bold-48" d="M 588 4666 
L 1791 4666 
L 1791 2888 
L 3566 2888 
L 3566 4666 
L 4769 4666 
L 4769 0 
L 3566 0 
L 3566 1978 
L 1791 1978 
L 1791 0 
L 588 0 
L 588 4666 
z
" transform="scale(0.015625)"/>
      <path id="DejaVuSans-Bold-41" d="M 3419 850 
L 1538 850 
L 1241 0 
L 31 0 
L 1759 4666 
L 3194 4666 
L 4922 0 
L 3713 0 
L 3419 850 
z
M 1838 1716 
L 3116 1716 
L 2478 3572 
L 1838 1716 
z
" transform="scale(0.015625)"/>
      <path id="DejaVuSans-Bold-4e" d="M 588 4666 
L 1931 4666 
L 3628 1466 
L 3628 4666 
L 4769 4666 
L 4769 0 
L 3425 0 
L 1728 3200 
L 1728 0 
L 588 0 
L 588 4666 
z
" transform="scale(0.015625)"/>
      <path id="DejaVuSans-Bold-20" transform="scale(0.015625)"/>
      <path id="DejaVuSans-Bold-43" d="M 4288 256 
Q 3956 84 3597 -3 
Q 3238 -91 2847 -91 
Q 1681 -91 1000 561 
Q 319 1213 319 2328 
Q 319 3447 1000 4098 
Q 1681 4750 2847 4750 
Q 3238 4750 3597 4662 
Q 3956 4575 4288 4403 
L 4288 3438 
Q 3953 3666 3628 3772 
Q 3303 3878 2944 3878 
Q 2300 3878 1931 3465 
Q 1563 3053 1563 2328 
Q 1563 1606 1931 1193 
Q 2300 781 2944 781 
Q 3303 781 3628 887 
Q 3953 994 4288 1222 
L 4288 256 
z
" transform="scale(0.015625)"/>
      <path id="DejaVuSans-Bold-6f" d="M 2203 2784 
Q 1831 2784 1636 2517 
Q 1441 2250 1441 1747 
Q 1441 1244 1636 976 
Q 1831 709 2203 709 
Q 2569 709 2762 976 
Q 2956 1244 2956 1747 
Q 2956 2250 2762 2517 
Q 2569 2784 2203 2784 
z
M 2203 3584 
Q 3106 3584 3614 3096 
Q 4122 2609 4122 1747 
Q 4122 884 3614 396 
Q 3106 -91 2203 -91 
Q 1297 -91 786 396 
Q 275 884 275 1747 
Q 275 2609 786 3096 
Q 1297 3584 2203 3584 
z
" transform="scale(0.015625)"/>
      <path id="DejaVuSans-Bold-6d" d="M 3781 2919 
Q 3994 3244 4286 3414 
Q 4578 3584 4928 3584 
Q 5531 3584 5847 3212 
Q 6163 2841 6163 2131 
L 6163 0 
L 5038 0 
L 5038 1825 
Q 5041 1866 5042 1909 
Q 5044 1953 5044 2034 
Q 5044 2406 4934 2573 
Q 4825 2741 4581 2741 
Q 4263 2741 4089 2478 
Q 3916 2216 3909 1719 
L 3909 0 
L 2784 0 
L 2784 1825 
Q 2784 2406 2684 2573 
Q 2584 2741 2328 2741 
Q 2006 2741 1831 2477 
Q 1656 2213 1656 1722 
L 1656 0 
L 531 0 
L 531 3500 
L 1656 3500 
L 1656 2988 
Q 1863 3284 2130 3434 
Q 2397 3584 2719 3584 
Q 3081 3584 3359 3409 
Q 3638 3234 3781 2919 
z
" transform="scale(0.015625)"/>
      <path id="DejaVuSans-Bold-70" d="M 1656 506 
L 1656 -1331 
L 538 -1331 
L 538 3500 
L 1656 3500 
L 1656 2988 
Q 1888 3294 2169 3439 
Q 2450 3584 2816 3584 
Q 3463 3584 3878 3070 
Q 4294 2556 4294 1747 
Q 4294 938 3878 423 
Q 3463 -91 2816 -91 
Q 2450 -91 2169 54 
Q 1888 200 1656 506 
z
M 2400 2772 
Q 2041 2772 1848 2508 
Q 1656 2244 1656 1747 
Q 1656 1250 1848 986 
Q 2041 722 2400 722 
Q 2759 722 2948 984 
Q 3138 1247 3138 1747 
Q 3138 2247 2948 2509 
Q 2759 2772 2400 2772 
z
" transform="scale(0.015625)"/>
      <path id="DejaVuSans-Bold-75" d="M 500 1363 
L 500 3500 
L 1625 3500 
L 1625 3150 
Q 1625 2866 1622 2436 
Q 1619 2006 1619 1863 
Q 1619 1441 1641 1255 
Q 1663 1069 1716 984 
Q 1784 875 1895 815 
Q 2006 756 2150 756 
Q 2500 756 2700 1025 
Q 2900 1294 2900 1772 
L 2900 3500 
L 4019 3500 
L 4019 0 
L 2900 0 
L 2900 506 
Q 2647 200 2364 54 
Q 2081 -91 1741 -91 
Q 1134 -91 817 281 
Q 500 653 500 1363 
z
" transform="scale(0.015625)"/>
      <path id="DejaVuSans-Bold-74" d="M 1759 4494 
L 1759 3500 
L 2913 3500 
L 2913 2700 
L 1759 2700 
L 1759 1216 
Q 1759 972 1856 886 
Q 1953 800 2241 800 
L 2816 800 
L 2816 0 
L 1856 0 
Q 1194 0 917 276 
Q 641 553 641 1216 
L 641 2700 
L 84 2700 
L 84 3500 
L 641 3500 
L 641 4494 
L 1759 4494 
z
" transform="scale(0.015625)"/>
      <path id="DejaVuSans-Bold-61" d="M 2106 1575 
Q 1756 1575 1579 1456 
Q 1403 1338 1403 1106 
Q 1403 894 1545 773 
Q 1688 653 1941 653 
Q 2256 653 2472 879 
Q 2688 1106 2688 1447 
L 2688 1575 
L 2106 1575 
z
M 3816 1997 
L 3816 0 
L 2688 0 
L 2688 519 
Q 2463 200 2181 54 
Q 1900 -91 1497 -91 
Q 953 -91 614 226 
Q 275 544 275 1050 
Q 275 1666 698 1953 
Q 1122 2241 2028 2241 
L 2688 2241 
L 2688 2328 
Q 2688 2594 2478 2717 
Q 2269 2841 1825 2841 
Q 1466 2841 1156 2769 
Q 847 2697 581 2553 
L 581 3406 
Q 941 3494 1303 3539 
Q 1666 3584 2028 3584 
Q 2975 3584 3395 3211 
Q 3816 2838 3816 1997 
z
" transform="scale(0.015625)"/>
      <path id="DejaVuSans-Bold-69" d="M 538 3500 
L 1656 3500 
L 1656 0 
L 538 0 
L 538 3500 
z
M 538 4863 
L 1656 4863 
L 1656 3950 
L 538 3950 
L 538 4863 
z
" transform="scale(0.015625)"/>
      <path id="DejaVuSans-Bold-6e" d="M 4056 2131 
L 4056 0 
L 2931 0 
L 2931 347 
L 2931 1631 
Q 2931 2084 2911 2256 
Q 2891 2428 2841 2509 
Q 2775 2619 2662 2680 
Q 2550 2741 2406 2741 
Q 2056 2741 1856 2470 
Q 1656 2200 1656 1722 
L 1656 0 
L 538 0 
L 538 3500 
L 1656 3500 
L 1656 2988 
Q 1909 3294 2193 3439 
Q 2478 3584 2822 3584 
Q 3428 3584 3742 3212 
Q 4056 2841 4056 2131 
z
" transform="scale(0.015625)"/>
      <path id="DejaVuSans-Bold-6c" d="M 538 4863 
L 1656 4863 
L 1656 0 
L 538 0 
L 538 4863 
z
" transform="scale(0.015625)"/>
      <path id="DejaVuSans-Bold-47" d="M 4781 347 
Q 4331 128 3847 18 
Q 3363 -91 2847 -91 
Q 1681 -91 1000 561 
Q 319 1213 319 2328 
Q 319 3456 1012 4103 
Q 1706 4750 2913 4750 
Q 3378 4750 3804 4662 
Q 4231 4575 4609 4403 
L 4609 3438 
Q 4219 3659 3833 3768 
Q 3447 3878 3059 3878 
Q 2341 3878 1952 3476 
Q 1563 3075 1563 2328 
Q 1563 1588 1938 1184 
Q 2313 781 3003 781 
Q 3191 781 3352 804 
Q 3513 828 3641 878 
L 3641 1784 
L 2906 1784 
L 2906 2591 
L 4781 2591 
L 4781 347 
z
" transform="scale(0.015625)"/>
      <path id="DejaVuSans-Bold-72" d="M 3138 2547 
Q 2991 2616 2845 2648 
Q 2700 2681 2553 2681 
Q 2122 2681 1889 2404 
Q 1656 2128 1656 1613 
L 1656 0 
L 538 0 
L 538 3500 
L 1656 3500 
L 1656 2925 
Q 1872 3269 2151 3426 
Q 2431 3584 2822 3584 
Q 2878 3584 2943 3579 
Q 3009 3575 3134 3559 
L 3138 2547 
z
" transform="scale(0.015625)"/>
      <path id="DejaVuSans-Bold-68" d="M 4056 2131 
L 4056 0 
L 2931 0 
L 2931 347 
L 2931 1625 
Q 2931 2084 2911 2256 
Q 2891 2428 2841 2509 
Q 2775 2619 2662 2680 
Q 2550 2741 2406 2741 
Q 2056 2741 1856 2470 
Q 1656 2200 1656 1722 
L 1656 0 
L 538 0 
L 538 4863 
L 1656 4863 
L 1656 2988 
Q 1909 3294 2193 3439 
Q 2478 3584 2822 3584 
Q 3428 3584 3742 3212 
Q 4056 2841 4056 2131 
z
" transform="scale(0.015625)"/>
      <path id="DejaVuSans-Bold-26" d="M 2497 3097 
L 3775 1691 
Q 3941 1909 4027 2181 
Q 4113 2453 4128 2797 
L 5100 2797 
Q 5053 2228 4879 1784 
Q 4706 1341 4397 1006 
L 5313 0 
L 3988 0 
L 3681 341 
Q 3353 122 2990 15 
Q 2628 -91 2222 -91 
Q 1400 -91 892 342 
Q 384 775 384 1459 
Q 384 1916 607 2267 
Q 831 2619 1338 2950 
Q 1206 3116 1143 3281 
Q 1081 3447 1081 3628 
Q 1081 4138 1478 4444 
Q 1875 4750 2534 4750 
Q 2819 4750 3126 4704 
Q 3434 4659 3769 4569 
L 3769 3700 
Q 3475 3850 3212 3922 
Q 2950 3994 2700 3994 
Q 2459 3994 2326 3901 
Q 2194 3809 2194 3641 
Q 2194 3534 2270 3398 
Q 2347 3263 2497 3097 
z
M 1875 2322 
Q 1672 2175 1569 1989 
Q 1466 1803 1466 1581 
Q 1466 1222 1731 969 
Q 1997 716 2369 716 
Q 2578 716 2759 780 
Q 2941 844 3097 972 
L 1875 2322 
z
" transform="scale(0.015625)"/>
      <path id="DejaVuSans-Bold-65" d="M 4031 1759 
L 4031 1441 
L 1416 1441 
Q 1456 1047 1700 850 
Q 1944 653 2381 653 
Q 2734 653 3104 758 
Q 3475 863 3866 1075 
L 3866 213 
Q 3469 63 3072 -14 
Q 2675 -91 2278 -91 
Q 1328 -91 801 392 
Q 275 875 275 1747 
Q 275 2603 792 3093 
Q 1309 3584 2216 3584 
Q 3041 3584 3536 3087 
Q 4031 2591 4031 1759 
z
M 2881 2131 
Q 2881 2450 2695 2645 
Q 2509 2841 2209 2841 
Q 1884 2841 1681 2658 
Q 1478 2475 1428 2131 
L 2881 2131 
z
" transform="scale(0.015625)"/>
      <path id="DejaVuSans-Bold-73" d="M 3272 3391 
L 3272 2541 
Q 2913 2691 2578 2766 
Q 2244 2841 1947 2841 
Q 1628 2841 1473 2761 
Q 1319 2681 1319 2516 
Q 1319 2381 1436 2309 
Q 1553 2238 1856 2203 
L 2053 2175 
Q 2913 2066 3209 1816 
Q 3506 1566 3506 1031 
Q 3506 472 3093 190 
Q 2681 -91 1863 -91 
Q 1516 -91 1145 -36 
Q 775 19 384 128 
L 384 978 
Q 719 816 1070 734 
Q 1422 653 1784 653 
Q 2113 653 2278 743 
Q 2444 834 2444 1013 
Q 2444 1163 2330 1236 
Q 2216 1309 1875 1350 
L 1678 1375 
Q 931 1469 631 1722 
Q 331 1975 331 2491 
Q 331 3047 712 3315 
Q 1094 3584 1881 3584 
Q 2191 3584 2531 3537 
Q 2872 3491 3272 3391 
z
" transform="scale(0.015625)"/>
      <path id="DejaVuSans-Bold-64" d="M 2919 2988 
L 2919 4863 
L 4044 4863 
L 4044 0 
L 2919 0 
L 2919 506 
Q 2688 197 2409 53 
Q 2131 -91 1766 -91 
Q 1119 -91 703 423 
Q 288 938 288 1747 
Q 288 2556 703 3070 
Q 1119 3584 1766 3584 
Q 2128 3584 2408 3439 
Q 2688 3294 2919 2988 
z
M 2181 722 
Q 2541 722 2730 984 
Q 2919 1247 2919 1747 
Q 2919 2247 2730 2509 
Q 2541 2772 2181 2772 
Q 1825 2772 1636 2509 
Q 1447 2247 1447 1747 
Q 1447 1247 1636 984 
Q 1825 722 2181 722 
z
" transform="scale(0.015625)"/>
      <path id="DejaVuSans-Bold-53" d="M 3834 4519 
L 3834 3531 
Q 3450 3703 3084 3790 
Q 2719 3878 2394 3878 
Q 1963 3878 1756 3759 
Q 1550 3641 1550 3391 
Q 1550 3203 1689 3098 
Q 1828 2994 2194 2919 
L 2706 2816 
Q 3484 2659 3812 2340 
Q 4141 2022 4141 1434 
Q 4141 663 3683 286 
Q 3225 -91 2284 -91 
Q 1841 -91 1394 -6 
Q 947 78 500 244 
L 500 1259 
Q 947 1022 1364 901 
Q 1781 781 2169 781 
Q 2563 781 2772 912 
Q 2981 1044 2981 1288 
Q 2981 1506 2839 1625 
Q 2697 1744 2272 1838 
L 1806 1941 
Q 1106 2091 782 2419 
Q 459 2747 459 3303 
Q 459 4000 909 4375 
Q 1359 4750 2203 4750 
Q 2588 4750 2994 4692 
Q 3400 4634 3834 4519 
z
" transform="scale(0.015625)"/>
      <path id="DejaVuSans-Bold-6b" d="M 538 4863 
L 1656 4863 
L 1656 2216 
L 2944 3500 
L 4244 3500 
L 2534 1894 
L 4378 0 
L 3022 0 
L 1656 1459 
L 1656 0 
L 538 0 
L 538 4863 
z
" transform="scale(0.015625)"/>
     </defs>
     <use xlink:href="#DejaVuSans-Bold-52"/>
     <use xlink:href="#DejaVuSans-Bold-48" transform="translate(77.001953 0)"/>
     <use xlink:href="#DejaVuSans-Bold-41" transform="translate(160.693359 0)"/>
     <use xlink:href="#DejaVuSans-Bold-4e" transform="translate(238.085938 0)"/>
     <use xlink:href="#DejaVuSans-Bold-20" transform="translate(321.777344 0)"/>
     <use xlink:href="#DejaVuSans-Bold-43" transform="translate(356.591797 0)"/>
     <use xlink:href="#DejaVuSans-Bold-6f" transform="translate(429.980469 0)"/>
     <use xlink:href="#DejaVuSans-Bold-6d" transform="translate(498.681641 0)"/>
     <use xlink:href="#DejaVuSans-Bold-70" transform="translate(602.880859 0)"/>
     <use xlink:href="#DejaVuSans-Bold-75" transform="translate(674.462891 0)"/>
     <use xlink:href="#DejaVuSans-Bold-74" transform="translate(745.654297 0)"/>
     <use xlink:href="#DejaVuSans-Bold-61" transform="translate(793.457031 0)"/>
     <use xlink:href="#DejaVuSans-Bold-74" transform="translate(860.9375 0)"/>
     <use xlink:href="#DejaVuSans-Bold-69" transform="translate(908.740234 0)"/>
     <use xlink:href="#DejaVuSans-Bold-6f" transform="translate(943.017578 0)"/>
     <use xlink:href="#DejaVuSans-Bold-6e" transform="translate(1011.71875 0)"/>
     <use xlink:href="#DejaVuSans-Bold-61" transform="translate(1082.910156 0)"/>
     <use xlink:href="#DejaVuSans-Bold-6c" transform="translate(1150.390625 0)"/>
     <use xlink:href="#DejaVuSans-Bold-20" transform="translate(1184.667969 0)"/>
     <use xlink:href="#DejaVuSans-Bold-47" transform="translate(1219.482422 0)"/>
     <use xlink:href="#DejaVuSans-Bold-72" transform="translate(1301.5625 0)"/>
     <use xlink:href="#DejaVuSans-Bold-61" transform="translate(1350.878906 0)"/>
     <use xlink:href="#DejaVuSans-Bold-70" transform="translate(1418.359375 0)"/>
     <use xlink:href="#DejaVuSans-Bold-68" transform="translate(1489.941406 0)"/>
     <use xlink:href="#DejaVuSans-Bold-20" transform="translate(1561.132812 0)"/>
     <use xlink:href="#DejaVuSans-Bold-26" transform="translate(1595.947266 0)"/>
     <use xlink:href="#DejaVuSans-Bold-20" transform="translate(1683.154297 0)"/>
     <use xlink:href="#DejaVuSans-Bold-52" transform="translate(1717.96875 0)"/>
     <use xlink:href="#DejaVuSans-Bold-65" transform="translate(1794.970703 0)"/>
     <use xlink:href="#DejaVuSans-Bold-73" transform="translate(1862.792969 0)"/>
     <use xlink:href="#DejaVuSans-Bold-69" transform="translate(1922.314453 0)"/>
     <use xlink:href="#DejaVuSans-Bold-64" transform="translate(1956.591797 0)"/>
     <use xlink:href="#DejaVuSans-Bold-75" transform="translate(2028.173828 0)"/>
     <use xlink:href="#DejaVuSans-Bold-61" transform="translate(2099.365234 0)"/>
     <use xlink:href="#DejaVuSans-Bold-6c" transform="translate(2166.845703 0)"/>
     <use xlink:href="#DejaVuSans-Bold-20" transform="translate(2201.123047 0)"/>
     <use xlink:href="#DejaVuSans-Bold-53" transform="translate(2235.9375 0)"/>
     <use xlink:href="#DejaVuSans-Bold-6b" transform="translate(2307.958984 0)"/>
     <use xlink:href="#DejaVuSans-Bold-69" transform="translate(2374.462891 0)"/>
     <use xlink:href="#DejaVuSans-Bold-70" transform="translate(2408.740234 0)"/>
     <use xlink:href="#DejaVuSans-Bold-73" transform="translate(2480.322266 0)"/>
    </g>
   </g>
   <g id="text_2">
    <!-- Input tensor x -->
    <g style="fill: #111111" transform="translate(318.522461 91.284263) scale(0.095 -0.095)">
     <defs>
      <path id="DejaVuSans-Bold-49" d="M 588 4666 
L 1791 4666 
L 1791 0 
L 588 0 
L 588 4666 
z
" transform="scale(0.015625)"/>
      <path id="DejaVuSans-Bold-78" d="M 1422 1791 
L 159 3500 
L 1344 3500 
L 2059 2463 
L 2784 3500 
L 3969 3500 
L 2706 1797 
L 4031 0 
L 2847 0 
L 2059 1106 
L 1281 0 
L 97 0 
L 1422 1791 
z
" transform="scale(0.015625)"/>
     </defs>
     <use xlink:href="#DejaVuSans-Bold-49"/>
     <use xlink:href="#DejaVuSans-Bold-6e" transform="translate(37.207031 0)"/>
     <use xlink:href="#DejaVuSans-Bold-70" transform="translate(108.398438 0)"/>
     <use xlink:href="#DejaVuSans-Bold-75" transform="translate(179.980469 0)"/>
     <use xlink:href="#DejaVuSans-Bold-74" transform="translate(251.171875 0)"/>
     <use xlink:href="#DejaVuSans-Bold-20" transform="translate(298.974609 0)"/>
     <use xlink:href="#DejaVuSans-Bold-74" transform="translate(333.789062 0)"/>
     <use xlink:href="#DejaVuSans-Bold-65" transform="translate(381.591797 0)"/>
     <use xlink:href="#DejaVuSans-Bold-6e" transform="translate(449.414062 0)"/>
     <use xlink:href="#DejaVuSans-Bold-73" transform="translate(520.605469 0)"/>
     <use xlink:href="#DejaVuSans-Bold-6f" transform="translate(580.126953 0)"/>
     <use xlink:href="#DejaVuSans-Bold-72" transform="translate(648.828125 0)"/>
     <use xlink:href="#DejaVuSans-Bold-20" transform="translate(698.144531 0)"/>
     <use xlink:href="#DejaVuSans-Bold-78" transform="translate(732.958984 0)"/>
    </g>
   </g>
   <g id="text_3">
    <!-- Conv Stem -->
    <g style="fill: #111111" transform="translate(327.656563 165.341406) scale(0.095 -0.095)">
     <defs>
      <path id="DejaVuSans-Bold-76" d="M 97 3500 
L 1216 3500 
L 2088 1081 
L 2956 3500 
L 4078 3500 
L 2700 0 
L 1472 0 
L 97 3500 
z
" transform="scale(0.015625)"/>
     </defs>
     <use xlink:href="#DejaVuSans-Bold-43"/>
     <use xlink:href="#DejaVuSans-Bold-6f" transform="translate(73.388672 0)"/>
     <use xlink:href="#DejaVuSans-Bold-6e" transform="translate(142.089844 0)"/>
     <use xlink:href="#DejaVuSans-Bold-76" transform="translate(213.28125 0)"/>
     <use xlink:href="#DejaVuSans-Bold-20" transform="translate(278.466797 0)"/>
     <use xlink:href="#DejaVuSans-Bold-53" transform="translate(313.28125 0)"/>
     <use xlink:href="#DejaVuSans-Bold-74" transform="translate(385.302734 0)"/>
     <use xlink:href="#DejaVuSans-Bold-65" transform="translate(433.105469 0)"/>
     <use xlink:href="#DejaVuSans-Bold-6d" transform="translate(500.927734 0)"/>
    </g>
   </g>
   <g id="text_4">
    <!-- Patch Tokenizer -->
    <g style="fill: #111111" transform="translate(314.247461 239.398549) scale(0.095 -0.095)">
     <defs>
      <path id="DejaVuSans-Bold-50" d="M 588 4666 
L 2584 4666 
Q 3475 4666 3951 4270 
Q 4428 3875 4428 3144 
Q 4428 2409 3951 2014 
Q 3475 1619 2584 1619 
L 1791 1619 
L 1791 0 
L 588 0 
L 588 4666 
z
M 1791 3794 
L 1791 2491 
L 2456 2491 
Q 2806 2491 2997 2661 
Q 3188 2831 3188 3144 
Q 3188 3456 2997 3625 
Q 2806 3794 2456 3794 
L 1791 3794 
z
" transform="scale(0.015625)"/>
      <path id="DejaVuSans-Bold-63" d="M 3366 3391 
L 3366 2478 
Q 3138 2634 2908 2709 
Q 2678 2784 2431 2784 
Q 1963 2784 1702 2511 
Q 1441 2238 1441 1747 
Q 1441 1256 1702 982 
Q 1963 709 2431 709 
Q 2694 709 2930 787 
Q 3166 866 3366 1019 
L 3366 103 
Q 3103 6 2833 -42 
Q 2563 -91 2291 -91 
Q 1344 -91 809 395 
Q 275 881 275 1747 
Q 275 2613 809 3098 
Q 1344 3584 2291 3584 
Q 2566 3584 2833 3536 
Q 3100 3488 3366 3391 
z
" transform="scale(0.015625)"/>
      <path id="DejaVuSans-Bold-54" d="M 31 4666 
L 4331 4666 
L 4331 3756 
L 2784 3756 
L 2784 0 
L 1581 0 
L 1581 3756 
L 31 3756 
L 31 4666 
z
" transform="scale(0.015625)"/>
      <path id="DejaVuSans-Bold-7a" d="M 366 3500 
L 3419 3500 
L 3419 2719 
L 1575 800 
L 3419 800 
L 3419 0 
L 288 0 
L 288 781 
L 2131 2700 
L 366 2700 
L 366 3500 
z
" transform="scale(0.015625)"/>
     </defs>
     <use xlink:href="#DejaVuSans-Bold-50"/>
     <use xlink:href="#DejaVuSans-Bold-61" transform="translate(70.666016 0)"/>
     <use xlink:href="#DejaVuSans-Bold-74" transform="translate(138.146484 0)"/>
     <use xlink:href="#DejaVuSans-Bold-63" transform="translate(185.949219 0)"/>
     <use xlink:href="#DejaVuSans-Bold-68" transform="translate(245.226562 0)"/>
     <use xlink:href="#DejaVuSans-Bold-20" transform="translate(316.417969 0)"/>
     <use xlink:href="#DejaVuSans-Bold-54" transform="translate(351.232422 0)"/>
     <use xlink:href="#DejaVuSans-Bold-6f" transform="translate(406.195312 0)"/>
     <use xlink:href="#DejaVuSans-Bold-6b" transform="translate(474.896484 0)"/>
     <use xlink:href="#DejaVuSans-Bold-65" transform="translate(538.775391 0)"/>
     <use xlink:href="#DejaVuSans-Bold-6e" transform="translate(606.597656 0)"/>
     <use xlink:href="#DejaVuSans-Bold-69" transform="translate(677.789062 0)"/>
     <use xlink:href="#DejaVuSans-Bold-7a" transform="translate(712.066406 0)"/>
     <use xlink:href="#DejaVuSans-Bold-65" transform="translate(770.269531 0)"/>
     <use xlink:href="#DejaVuSans-Bold-72" transform="translate(838.091797 0)"/>
    </g>
   </g>
   <g id="text_5">
    <!-- Ventral Transformer -->
    <g style="fill: #111111" transform="translate(128.021836 307.901406) scale(0.095 -0.095)">
     <defs>
      <path id="DejaVuSans-Bold-56" d="M 31 4666 
L 1241 4666 
L 2478 1222 
L 3713 4666 
L 4922 4666 
L 3194 0 
L 1759 0 
L 31 4666 
z
" transform="scale(0.015625)"/>
      <path id="DejaVuSans-Bold-66" d="M 2841 4863 
L 2841 4128 
L 2222 4128 
Q 1984 4128 1890 4042 
Q 1797 3956 1797 3744 
L 1797 3500 
L 2753 3500 
L 2753 2700 
L 1797 2700 
L 1797 0 
L 678 0 
L 678 2700 
L 122 2700 
L 122 3500 
L 678 3500 
L 678 3744 
Q 678 4316 997 4589 
Q 1316 4863 1984 4863 
L 2841 4863 
z
" transform="scale(0.015625)"/>
     </defs>
     <use xlink:href="#DejaVuSans-Bold-56"/>
     <use xlink:href="#DejaVuSans-Bold-65" transform="translate(71.892578 0)"/>
     <use xlink:href="#DejaVuSans-Bold-6e" transform="translate(139.714844 0)"/>
     <use xlink:href="#DejaVuSans-Bold-74" transform="translate(210.90625 0)"/>
     <use xlink:href="#DejaVuSans-Bold-72" transform="translate(258.708984 0)"/>
     <use xlink:href="#DejaVuSans-Bold-61" transform="translate(308.025391 0)"/>
     <use xlink:href="#DejaVuSans-Bold-6c" transform="translate(375.505859 0)"/>
     <use xlink:href="#DejaVuSans-Bold-20" transform="translate(409.783203 0)"/>
     <use xlink:href="#DejaVuSans-Bold-54" transform="translate(444.597656 0)"/>
     <use xlink:href="#DejaVuSans-Bold-72" transform="translate(501.810547 0)"/>
     <use xlink:href="#DejaVuSans-Bold-61" transform="translate(551.126953 0)"/>
     <use xlink:href="#DejaVuSans-Bold-6e" transform="translate(618.607422 0)"/>
     <use xlink:href="#DejaVuSans-Bold-73" transform="translate(689.798828 0)"/>
     <use xlink:href="#DejaVuSans-Bold-66" transform="translate(749.320312 0)"/>
     <use xlink:href="#DejaVuSans-Bold-6f" transform="translate(792.826172 0)"/>
     <use xlink:href="#DejaVuSans-Bold-72" transform="translate(861.527344 0)"/>
     <use xlink:href="#DejaVuSans-Bold-6d" transform="translate(910.84375 0)"/>
     <use xlink:href="#DejaVuSans-Bold-65" transform="translate(1015.042969 0)"/>
     <use xlink:href="#DejaVuSans-Bold-72" transform="translate(1082.865234 0)"/>
    </g>
   </g>
   <g id="text_6">
    <!-- 8 Encoder Layers -->
    <g style="fill: #555555" transform="translate(149.288672 320.309531) scale(0.075 -0.075)">
     <defs>
      <path id="DejaVuSans-Oblique-38" d="M 2847 1416 
Q 2847 1769 2600 1992 
Q 2353 2216 1953 2216 
Q 1466 2216 1148 1923 
Q 831 1631 831 1184 
Q 831 828 1073 618 
Q 1316 409 1728 409 
Q 2219 409 2533 693 
Q 2847 978 2847 1416 
z
M 3169 3591 
Q 3169 3888 2950 4069 
Q 2731 4250 2369 4250 
Q 1941 4250 1664 4009 
Q 1388 3769 1388 3406 
Q 1388 3094 1605 2903 
Q 1822 2713 2181 2713 
Q 2613 2713 2891 2961 
Q 3169 3209 3169 3591 
z
M 2741 2456 
Q 3094 2322 3281 2050 
Q 3469 1778 3469 1394 
Q 3469 747 2969 328 
Q 2469 -91 1678 -91 
Q 1006 -91 609 239 
Q 213 569 213 1119 
Q 213 1619 553 2008 
Q 894 2397 1441 2503 
Q 1113 2616 941 2852 
Q 769 3088 769 3425 
Q 769 3991 1239 4370 
Q 1709 4750 2431 4750 
Q 3034 4750 3414 4442 
Q 3794 4134 3794 3659 
Q 3794 3247 3511 2923 
Q 3228 2600 2741 2456 
z
" transform="scale(0.015625)"/>
      <path id="DejaVuSans-Oblique-20" transform="scale(0.015625)"/>
      <path id="DejaVuSans-Oblique-45" d="M 1081 4666 
L 4031 4666 
L 3928 4134 
L 1606 4134 
L 1338 2753 
L 3566 2753 
L 3463 2222 
L 1234 2222 
L 909 531 
L 3284 531 
L 3181 0 
L 172 0 
L 1081 4666 
z
" transform="scale(0.015625)"/>
      <path id="DejaVuSans-Oblique-6e" d="M 3566 2113 
L 3156 0 
L 2578 0 
L 2988 2091 
Q 3016 2238 3031 2350 
Q 3047 2463 3047 2528 
Q 3047 2791 2881 2937 
Q 2716 3084 2419 3084 
Q 1956 3084 1622 2776 
Q 1288 2469 1184 1941 
L 800 0 
L 225 0 
L 903 3500 
L 1478 3500 
L 1363 2950 
Q 1603 3253 1940 3418 
Q 2278 3584 2650 3584 
Q 3113 3584 3367 3334 
Q 3622 3084 3622 2631 
Q 3622 2519 3608 2391 
Q 3594 2263 3566 2113 
z
" transform="scale(0.015625)"/>
      <path id="DejaVuSans-Oblique-63" d="M 3431 3366 
L 3316 2797 
Q 3109 2947 2876 3022 
Q 2644 3097 2394 3097 
Q 2119 3097 1870 3000 
Q 1622 2903 1453 2725 
Q 1184 2453 1037 2087 
Q 891 1722 891 1331 
Q 891 859 1127 628 
Q 1363 397 1844 397 
Q 2081 397 2348 469 
Q 2616 541 2906 684 
L 2797 116 
Q 2547 13 2283 -39 
Q 2019 -91 1741 -91 
Q 1044 -91 669 257 
Q 294 606 294 1253 
Q 294 1797 489 2255 
Q 684 2713 1069 3078 
Q 1331 3328 1684 3456 
Q 2038 3584 2456 3584 
Q 2700 3584 2940 3529 
Q 3181 3475 3431 3366 
z
" transform="scale(0.015625)"/>
      <path id="DejaVuSans-Oblique-6f" d="M 1625 -91 
Q 1009 -91 651 289 
Q 294 669 294 1325 
Q 294 1706 417 2101 
Q 541 2497 738 2766 
Q 1047 3184 1428 3384 
Q 1809 3584 2291 3584 
Q 2888 3584 3255 3212 
Q 3622 2841 3622 2241 
Q 3622 1825 3500 1412 
Q 3378 1000 3181 728 
Q 2875 309 2494 109 
Q 2113 -91 1625 -91 
z
M 891 1344 
Q 891 869 1089 633 
Q 1288 397 1691 397 
Q 2269 397 2648 901 
Q 3028 1406 3028 2181 
Q 3028 2634 2825 2865 
Q 2622 3097 2228 3097 
Q 1903 3097 1650 2945 
Q 1397 2794 1197 2484 
Q 1050 2253 970 1956 
Q 891 1659 891 1344 
z
" transform="scale(0.015625)"/>
      <path id="DejaVuSans-Oblique-64" d="M 2675 525 
Q 2444 222 2128 65 
Q 1813 -91 1428 -91 
Q 903 -91 598 267 
Q 294 625 294 1247 
Q 294 1766 478 2236 
Q 663 2706 1013 3078 
Q 1244 3325 1534 3454 
Q 1825 3584 2144 3584 
Q 2481 3584 2739 3421 
Q 2997 3259 3138 2956 
L 3513 4863 
L 4091 4863 
L 3144 0 
L 2566 0 
L 2675 525 
z
M 891 1350 
Q 891 897 1095 644 
Q 1300 391 1663 391 
Q 1931 391 2161 520 
Q 2391 650 2566 903 
Q 2750 1166 2856 1509 
Q 2963 1853 2963 2188 
Q 2963 2622 2758 2865 
Q 2553 3109 2194 3109 
Q 1922 3109 1687 2981 
Q 1453 2853 1288 2613 
Q 1106 2353 998 2009 
Q 891 1666 891 1350 
z
" transform="scale(0.015625)"/>
      <path id="DejaVuSans-Oblique-65" d="M 3078 2063 
Q 3088 2113 3092 2166 
Q 3097 2219 3097 2272 
Q 3097 2653 2873 2875 
Q 2650 3097 2266 3097 
Q 1838 3097 1509 2826 
Q 1181 2556 1013 2059 
L 3078 2063 
z
M 3578 1613 
L 903 1613 
Q 884 1494 878 1425 
Q 872 1356 872 1306 
Q 872 872 1139 634 
Q 1406 397 1894 397 
Q 2269 397 2603 481 
Q 2938 566 3225 728 
L 3116 159 
Q 2806 34 2476 -28 
Q 2147 -91 1806 -91 
Q 1078 -91 686 257 
Q 294 606 294 1247 
Q 294 1794 489 2264 
Q 684 2734 1063 3103 
Q 1306 3334 1642 3459 
Q 1978 3584 2356 3584 
Q 2950 3584 3301 3228 
Q 3653 2872 3653 2272 
Q 3653 2128 3634 1964 
Q 3616 1800 3578 1613 
z
" transform="scale(0.015625)"/>
      <path id="DejaVuSans-Oblique-72" d="M 2853 2969 
Q 2766 3016 2653 3041 
Q 2541 3066 2413 3066 
Q 1953 3066 1609 2717 
Q 1266 2369 1153 1784 
L 800 0 
L 225 0 
L 909 3500 
L 1484 3500 
L 1375 2956 
Q 1603 3259 1920 3421 
Q 2238 3584 2597 3584 
Q 2691 3584 2781 3573 
Q 2872 3563 2963 3538 
L 2853 2969 
z
" transform="scale(0.015625)"/>
      <path id="DejaVuSans-Oblique-4c" d="M 1075 4666 
L 1709 4666 
L 909 525 
L 3181 525 
L 3078 0 
L 172 0 
L 1075 4666 
z
" transform="scale(0.015625)"/>
      <path id="DejaVuSans-Oblique-61" d="M 3438 1997 
L 3047 0 
L 2472 0 
L 2578 531 
Q 2325 219 2001 64 
Q 1678 -91 1281 -91 
Q 834 -91 548 182 
Q 263 456 263 884 
Q 263 1497 752 1853 
Q 1241 2209 2100 2209 
L 2900 2209 
L 2931 2363 
Q 2938 2388 2941 2417 
Q 2944 2447 2944 2509 
Q 2944 2788 2717 2942 
Q 2491 3097 2081 3097 
Q 1800 3097 1504 3025 
Q 1209 2953 897 2809 
L 997 3341 
Q 1322 3463 1633 3523 
Q 1944 3584 2234 3584 
Q 2853 3584 3176 3315 
Q 3500 3047 3500 2534 
Q 3500 2431 3484 2292 
Q 3469 2153 3438 1997 
z
M 2816 1759 
L 2241 1759 
Q 1534 1759 1195 1570 
Q 856 1381 856 984 
Q 856 709 1029 553 
Q 1203 397 1509 397 
Q 1978 397 2328 733 
Q 2678 1069 2791 1631 
L 2816 1759 
z
" transform="scale(0.015625)"/>
      <path id="DejaVuSans-Oblique-79" d="M 1588 -325 
Q 1188 -997 936 -1164 
Q 684 -1331 294 -1331 
L -159 -1331 
L -63 -850 
L 269 -850 
Q 509 -850 678 -719 
Q 847 -588 1056 -206 
L 1234 128 
L 459 3500 
L 1069 3500 
L 1650 819 
L 3256 3500 
L 3859 3500 
L 1588 -325 
z
" transform="scale(0.015625)"/>
      <path id="DejaVuSans-Oblique-73" d="M 3200 3397 
L 3091 2853 
Q 2863 2978 2609 3040 
Q 2356 3103 2088 3103 
Q 1634 3103 1373 2948 
Q 1113 2794 1113 2528 
Q 1113 2219 1719 2053 
Q 1766 2041 1788 2034 
L 1972 1978 
Q 2547 1819 2739 1644 
Q 2931 1469 2931 1166 
Q 2931 609 2489 259 
Q 2047 -91 1331 -91 
Q 1053 -91 747 -37 
Q 441 16 72 128 
L 184 722 
Q 500 559 806 475 
Q 1113 391 1394 391 
Q 1816 391 2080 572 
Q 2344 753 2344 1031 
Q 2344 1331 1650 1516 
L 1591 1531 
L 1394 1581 
Q 956 1697 753 1886 
Q 550 2075 550 2369 
Q 550 2928 970 3256 
Q 1391 3584 2113 3584 
Q 2397 3584 2667 3537 
Q 2938 3491 3200 3397 
z
" transform="scale(0.015625)"/>
     </defs>
     <use xlink:href="#DejaVuSans-Oblique-38"/>
     <use xlink:href="#DejaVuSans-Oblique-20" transform="translate(63.623047 0)"/>
     <use xlink:href="#DejaVuSans-Oblique-45" transform="translate(95.410156 0)"/>
     <use xlink:href="#DejaVuSans-Oblique-6e" transform="translate(158.59375 0)"/>
     <use xlink:href="#DejaVuSans-Oblique-63" transform="translate(221.972656 0)"/>
     <use xlink:href="#DejaVuSans-Oblique-6f" transform="translate(276.953125 0)"/>
     <use xlink:href="#DejaVuSans-Oblique-64" transform="translate(338.134766 0)"/>
     <use xlink:href="#DejaVuSans-Oblique-65" transform="translate(401.611328 0)"/>
     <use xlink:href="#DejaVuSans-Oblique-72" transform="translate(463.134766 0)"/>
     <use xlink:href="#DejaVuSans-Oblique-20" transform="translate(504.248047 0)"/>
     <use xlink:href="#DejaVuSans-Oblique-4c" transform="translate(536.035156 0)"/>
     <use xlink:href="#DejaVuSans-Oblique-61" transform="translate(591.748047 0)"/>
     <use xlink:href="#DejaVuSans-Oblique-79" transform="translate(653.027344 0)"/>
     <use xlink:href="#DejaVuSans-Oblique-65" transform="translate(712.207031 0)"/>
     <use xlink:href="#DejaVuSans-Oblique-72" transform="translate(773.730469 0)"/>
     <use xlink:href="#DejaVuSans-Oblique-73" transform="translate(814.84375 0)"/>
    </g>
   </g>
   <g id="text_7">
    <!-- Dorsal Transformer -->
    <g style="fill: #111111" transform="translate(479.476602 307.901406) scale(0.095 -0.095)">
     <defs>
      <path id="DejaVuSans-Bold-44" d="M 1791 3756 
L 1791 909 
L 2222 909 
Q 2959 909 3348 1275 
Q 3738 1641 3738 2338 
Q 3738 3031 3350 3393 
Q 2963 3756 2222 3756 
L 1791 3756 
z
M 588 4666 
L 1856 4666 
Q 2919 4666 3439 4514 
Q 3959 4363 4331 4000 
Q 4659 3684 4818 3271 
Q 4978 2859 4978 2338 
Q 4978 1809 4818 1395 
Q 4659 981 4331 666 
Q 3956 303 3431 151 
Q 2906 0 1856 0 
L 588 0 
L 588 4666 
z
" transform="scale(0.015625)"/>
     </defs>
     <use xlink:href="#DejaVuSans-Bold-44"/>
     <use xlink:href="#DejaVuSans-Bold-6f" transform="translate(83.007812 0)"/>
     <use xlink:href="#DejaVuSans-Bold-72" transform="translate(151.708984 0)"/>
     <use xlink:href="#DejaVuSans-Bold-73" transform="translate(201.025391 0)"/>
     <use xlink:href="#DejaVuSans-Bold-61" transform="translate(260.546875 0)"/>
     <use xlink:href="#DejaVuSans-Bold-6c" transform="translate(328.027344 0)"/>
     <use xlink:href="#DejaVuSans-Bold-20" transform="translate(362.304688 0)"/>
     <use xlink:href="#DejaVuSans-Bold-54" transform="translate(397.119141 0)"/>
     <use xlink:href="#DejaVuSans-Bold-72" transform="translate(454.332031 0)"/>
     <use xlink:href="#DejaVuSans-Bold-61" transform="translate(503.648438 0)"/>
     <use xlink:href="#DejaVuSans-Bold-6e" transform="translate(571.128906 0)"/>
     <use xlink:href="#DejaVuSans-Bold-73" transform="translate(642.320312 0)"/>
     <use xlink:href="#DejaVuSans-Bold-66" transform="translate(701.841797 0)"/>
     <use xlink:href="#DejaVuSans-Bold-6f" transform="translate(745.347656 0)"/>
     <use xlink:href="#DejaVuSans-Bold-72" transform="translate(814.048828 0)"/>
     <use xlink:href="#DejaVuSans-Bold-6d" transform="translate(863.365234 0)"/>
     <use xlink:href="#DejaVuSans-Bold-65" transform="translate(967.564453 0)"/>
     <use xlink:href="#DejaVuSans-Bold-72" transform="translate(1035.386719 0)"/>
    </g>
   </g>
   <g id="text_8">
    <!-- 8 Encoder Layers -->
    <g style="fill: #555555" transform="translate(498.488672 320.309531) scale(0.075 -0.075)">
     <use xlink:href="#DejaVuSans-Oblique-38"/>
     <use xlink:href="#DejaVuSans-Oblique-20" transform="translate(63.623047 0)"/>
     <use xlink:href="#DejaVuSans-Oblique-45" transform="translate(95.410156 0)"/>
     <use xlink:href="#DejaVuSans-Oblique-6e" transform="translate(158.59375 0)"/>
     <use xlink:href="#DejaVuSans-Oblique-63" transform="translate(221.972656 0)"/>
     <use xlink:href="#DejaVuSans-Oblique-6f" transform="translate(276.953125 0)"/>
     <use xlink:href="#DejaVuSans-Oblique-64" transform="translate(338.134766 0)"/>
     <use xlink:href="#DejaVuSans-Oblique-65" transform="translate(401.611328 0)"/>
     <use xlink:href="#DejaVuSans-Oblique-72" transform="translate(463.134766 0)"/>
     <use xlink:href="#DejaVuSans-Oblique-20" transform="translate(504.248047 0)"/>
     <use xlink:href="#DejaVuSans-Oblique-4c" transform="translate(536.035156 0)"/>
     <use xlink:href="#DejaVuSans-Oblique-61" transform="translate(591.748047 0)"/>
     <use xlink:href="#DejaVuSans-Oblique-79" transform="translate(653.027344 0)"/>
     <use xlink:href="#DejaVuSans-Oblique-65" transform="translate(712.207031 0)"/>
     <use xlink:href="#DejaVuSans-Oblique-72" transform="translate(773.730469 0)"/>
     <use xlink:href="#DejaVuSans-Oblique-73" transform="translate(814.84375 0)"/>
    </g>
   </g>
   <g id="text_9">
    <!-- Concat &amp; Project -->
    <g style="fill: #111111" transform="translate(311.504336 387.475725) scale(0.095 -0.095)">
     <defs>
      <path id="DejaVuSans-Bold-6a" d="M 538 3500 
L 1656 3500 
L 1656 63 
Q 1656 -641 1318 -1011 
Q 981 -1381 341 -1381 
L -213 -1381 
L -213 -647 
L -19 -647 
Q 300 -647 419 -503 
Q 538 -359 538 63 
L 538 3500 
z
M 538 4863 
L 1656 4863 
L 1656 3950 
L 538 3950 
L 538 4863 
z
" transform="scale(0.015625)"/>
     </defs>
     <use xlink:href="#DejaVuSans-Bold-43"/>
     <use xlink:href="#DejaVuSans-Bold-6f" transform="translate(73.388672 0)"/>
     <use xlink:href="#DejaVuSans-Bold-6e" transform="translate(142.089844 0)"/>
     <use xlink:href="#DejaVuSans-Bold-63" transform="translate(213.28125 0)"/>
     <use xlink:href="#DejaVuSans-Bold-61" transform="translate(272.558594 0)"/>
     <use xlink:href="#DejaVuSans-Bold-74" transform="translate(340.039062 0)"/>
     <use xlink:href="#DejaVuSans-Bold-20" transform="translate(387.841797 0)"/>
     <use xlink:href="#DejaVuSans-Bold-26" transform="translate(422.65625 0)"/>
     <use xlink:href="#DejaVuSans-Bold-20" transform="translate(509.863281 0)"/>
     <use xlink:href="#DejaVuSans-Bold-50" transform="translate(544.677734 0)"/>
     <use xlink:href="#DejaVuSans-Bold-72" transform="translate(617.96875 0)"/>
     <use xlink:href="#DejaVuSans-Bold-6f" transform="translate(667.285156 0)"/>
     <use xlink:href="#DejaVuSans-Bold-6a" transform="translate(735.986328 0)"/>
     <use xlink:href="#DejaVuSans-Bold-65" transform="translate(770.263672 0)"/>
     <use xlink:href="#DejaVuSans-Bold-63" transform="translate(838.085938 0)"/>
     <use xlink:href="#DejaVuSans-Bold-74" transform="translate(897.363281 0)"/>
    </g>
   </g>
   <g id="text_10">
    <!-- Prototype Head / Classifier -->
    <g style="fill: #111111" transform="translate(284.43082 461.532868) scale(0.095 -0.095)">
     <defs>
      <path id="DejaVuSans-Bold-79" d="M 78 3500 
L 1197 3500 
L 2138 1125 
L 2938 3500 
L 4056 3500 
L 2584 -331 
Q 2363 -916 2067 -1148 
Q 1772 -1381 1288 -1381 
L 641 -1381 
L 641 -647 
L 991 -647 
Q 1275 -647 1404 -556 
Q 1534 -466 1606 -231 
L 1638 -134 
L 78 3500 
z
" transform="scale(0.015625)"/>
      <path id="DejaVuSans-Bold-2f" d="M 1644 4666 
L 2338 4666 
L 691 -594 
L 0 -594 
L 1644 4666 
z
" transform="scale(0.015625)"/>
     </defs>
     <use xlink:href="#DejaVuSans-Bold-50"/>
     <use xlink:href="#DejaVuSans-Bold-72" transform="translate(73.291016 0)"/>
     <use xlink:href="#DejaVuSans-Bold-6f" transform="translate(122.607422 0)"/>
     <use xlink:href="#DejaVuSans-Bold-74" transform="translate(191.308594 0)"/>
     <use xlink:href="#DejaVuSans-Bold-6f" transform="translate(239.111328 0)"/>
     <use xlink:href="#DejaVuSans-Bold-74" transform="translate(307.8125 0)"/>
     <use xlink:href="#DejaVuSans-Bold-79" transform="translate(355.615234 0)"/>
     <use xlink:href="#DejaVuSans-Bold-70" transform="translate(420.800781 0)"/>
     <use xlink:href="#DejaVuSans-Bold-65" transform="translate(492.382812 0)"/>
     <use xlink:href="#DejaVuSans-Bold-20" transform="translate(560.205078 0)"/>
     <use xlink:href="#DejaVuSans-Bold-48" transform="translate(595.019531 0)"/>
     <use xlink:href="#DejaVuSans-Bold-65" transform="translate(678.710938 0)"/>
     <use xlink:href="#DejaVuSans-Bold-61" transform="translate(746.533203 0)"/>
     <use xlink:href="#DejaVuSans-Bold-64" transform="translate(814.013672 0)"/>
     <use xlink:href="#DejaVuSans-Bold-20" transform="translate(885.595703 0)"/>
     <use xlink:href="#DejaVuSans-Bold-2f" transform="translate(920.410156 0)"/>
     <use xlink:href="#DejaVuSans-Bold-20" transform="translate(956.933594 0)"/>
     <use xlink:href="#DejaVuSans-Bold-43" transform="translate(991.748047 0)"/>
     <use xlink:href="#DejaVuSans-Bold-6c" transform="translate(1065.136719 0)"/>
     <use xlink:href="#DejaVuSans-Bold-61" transform="translate(1099.414062 0)"/>
     <use xlink:href="#DejaVuSans-Bold-73" transform="translate(1166.894531 0)"/>
     <use xlink:href="#DejaVuSans-Bold-73" transform="translate(1226.416016 0)"/>
     <use xlink:href="#DejaVuSans-Bold-69" transform="translate(1285.9375 0)"/>
     <use xlink:href="#DejaVuSans-Bold-66" transform="translate(1320.214844 0)"/>
     <use xlink:href="#DejaVuSans-Bold-69" transform="translate(1363.720703 0)"/>
     <use xlink:href="#DejaVuSans-Bold-65" transform="translate(1397.998047 0)"/>
     <use xlink:href="#DejaVuSans-Bold-72" transform="translate(1465.820312 0)"/>
    </g>
   </g>
   <g id="patch_11">
    <path d="M 356.4 105.473069 
Q 356.4 125.689763 356.4 144.229406 
" style="fill: none; stroke: #1f77b4; stroke-width: 1.5; stroke-linecap: round"/>
    <path d="M 358.8 139.429406 
L 356.4 144.229406 
L 354 139.429406 
z
" style="fill: #1f77b4; stroke: #1f77b4; stroke-width: 1.5; stroke-linecap: round"/>
   </g>
   <g id="patch_12">
    <path d="M 356.4 179.530212 
Q 356.4 199.746906 356.4 218.286549 
" style="fill: none; stroke: #1f77b4; stroke-width: 1.5; stroke-linecap: round"/>
    <path d="M 358.8 213.486549 
L 356.4 218.286549 
L 354 213.486549 
z
" style="fill: #1f77b4; stroke: #1f77b4; stroke-width: 1.5; stroke-linecap: round"/>
   </g>
   <g id="patch_13">
    <path d="M 284.792047 237.714496 
Q 234.180797 264.548149 185.051227 290.596227 
" style="fill: none; stroke: #1f77b4; stroke-width: 1.5; stroke-linecap: round"/>
    <path d="M 190.416262 290.468191 
L 185.051227 290.596227 
L 188.167819 286.227377 
z
" style="fill: #1f77b4; stroke: #1f77b4; stroke-width: 1.5; stroke-linecap: round"/>
   </g>
   <g id="patch_14">
    <path d="M 428.007953 237.714496 
Q 478.619203 264.548149 527.748773 290.596227 
" style="fill: none; stroke: #1f77b4; stroke-width: 1.5; stroke-linecap: round"/>
    <path d="M 524.632181 286.227377 
L 527.748773 290.596227 
L 522.383738 290.468191 
z
" style="fill: #1f77b4; stroke: #1f77b4; stroke-width: 1.5; stroke-linecap: round"/>
   </g>
   <g id="patch_15">
    <path d="M 183.567953 330.285925 
Q 234.179203 357.119577 283.308773 383.167656 
" style="fill: none; stroke: #1f77b4; stroke-width: 1.5; stroke-linecap: round"/>
    <path d="M 280.192181 378.798806 
L 283.308773 383.167656 
L 277.943738 383.03962 
z
" style="fill: #1f77b4; stroke: #1f77b4; stroke-width: 1.5; stroke-linecap: round"/>
   </g>
   <g id="patch_16">
    <path d="M 529.232047 330.285925 
Q 478.620797 357.119577 429.491227 383.167656 
" style="fill: none; stroke: #1f77b4; stroke-width: 1.5; stroke-linecap: round"/>
    <path d="M 434.856262 383.03962 
L 429.491227 383.167656 
L 432.607819 378.798806 
z
" style="fill: #1f77b4; stroke: #1f77b4; stroke-width: 1.5; stroke-linecap: round"/>
   </g>
   <g id="patch_17">
    <path d="M 356.4 401.701641 
Q 356.4 421.918335 356.4 440.457977 
" style="fill: none; stroke: #1f77b4; stroke-width: 1.5; stroke-linecap: round"/>
    <path d="M 358.8 435.657977 
L 356.4 440.457977 
L 354 435.657977 
z
" style="fill: #1f77b4; stroke: #1f77b4; stroke-width: 1.5; stroke-linecap: round"/>
   </g>
   <g id="text_11">
    <!-- Ventral Skip -->
    <g style="fill: #ff9800" transform="translate(188.784 221.965714) scale(0.08 -0.08)">
     <defs>
      <path id="DejaVuSans-56" d="M 1831 0 
L 50 4666 
L 709 4666 
L 2188 738 
L 3669 4666 
L 4325 4666 
L 2547 0 
L 1831 0 
z
" transform="scale(0.015625)"/>
      <path id="DejaVuSans-65" d="M 3597 1894 
L 3597 1613 
L 953 1613 
Q 991 1019 1311 708 
Q 1631 397 2203 397 
Q 2534 397 2845 478 
Q 3156 559 3463 722 
L 3463 178 
Q 3153 47 2828 -22 
Q 2503 -91 2169 -91 
Q 1331 -91 842 396 
Q 353 884 353 1716 
Q 353 2575 817 3079 
Q 1281 3584 2069 3584 
Q 2775 3584 3186 3129 
Q 3597 2675 3597 1894 
z
M 3022 2063 
Q 3016 2534 2758 2815 
Q 2500 3097 2075 3097 
Q 1594 3097 1305 2825 
Q 1016 2553 972 2059 
L 3022 2063 
z
" transform="scale(0.015625)"/>
      <path id="DejaVuSans-6e" d="M 3513 2113 
L 3513 0 
L 2938 0 
L 2938 2094 
Q 2938 2591 2744 2837 
Q 2550 3084 2163 3084 
Q 1697 3084 1428 2787 
Q 1159 2491 1159 1978 
L 1159 0 
L 581 0 
L 581 3500 
L 1159 3500 
L 1159 2956 
Q 1366 3272 1645 3428 
Q 1925 3584 2291 3584 
Q 2894 3584 3203 3211 
Q 3513 2838 3513 2113 
z
" transform="scale(0.015625)"/>
      <path id="DejaVuSans-74" d="M 1172 4494 
L 1172 3500 
L 2356 3500 
L 2356 3053 
L 1172 3053 
L 1172 1153 
Q 1172 725 1289 603 
Q 1406 481 1766 481 
L 2356 481 
L 2356 0 
L 1766 0 
Q 1100 0 847 248 
Q 594 497 594 1153 
L 594 3053 
L 172 3053 
L 172 3500 
L 594 3500 
L 594 4494 
L 1172 4494 
z
" transform="scale(0.015625)"/>
      <path id="DejaVuSans-72" d="M 2631 2963 
Q 2534 3019 2420 3045 
Q 2306 3072 2169 3072 
Q 1681 3072 1420 2755 
Q 1159 2438 1159 1844 
L 1159 0 
L 581 0 
L 581 3500 
L 1159 3500 
L 1159 2956 
Q 1341 3275 1631 3429 
Q 1922 3584 2338 3584 
Q 2397 3584 2469 3576 
Q 2541 3569 2628 3553 
L 2631 2963 
z
" transform="scale(0.015625)"/>
      <path id="DejaVuSans-61" d="M 2194 1759 
Q 1497 1759 1228 1600 
Q 959 1441 959 1056 
Q 959 750 1161 570 
Q 1363 391 1709 391 
Q 2188 391 2477 730 
Q 2766 1069 2766 1631 
L 2766 1759 
L 2194 1759 
z
M 3341 1997 
L 3341 0 
L 2766 0 
L 2766 531 
Q 2569 213 2275 61 
Q 1981 -91 1556 -91 
Q 1019 -91 701 211 
Q 384 513 384 1019 
Q 384 1609 779 1909 
Q 1175 2209 1959 2209 
L 2766 2209 
L 2766 2266 
Q 2766 2663 2505 2880 
Q 2244 3097 1772 3097 
Q 1472 3097 1187 3025 
Q 903 2953 641 2809 
L 641 3341 
Q 956 3463 1253 3523 
Q 1550 3584 1831 3584 
Q 2591 3584 2966 3190 
Q 3341 2797 3341 1997 
z
" transform="scale(0.015625)"/>
      <path id="DejaVuSans-6c" d="M 603 4863 
L 1178 4863 
L 1178 0 
L 603 0 
L 603 4863 
z
" transform="scale(0.015625)"/>
      <path id="DejaVuSans-20" transform="scale(0.015625)"/>
      <path id="DejaVuSans-53" d="M 3425 4513 
L 3425 3897 
Q 3066 4069 2747 4153 
Q 2428 4238 2131 4238 
Q 1616 4238 1336 4038 
Q 1056 3838 1056 3469 
Q 1056 3159 1242 3001 
Q 1428 2844 1947 2747 
L 2328 2669 
Q 3034 2534 3370 2195 
Q 3706 1856 3706 1288 
Q 3706 609 3251 259 
Q 2797 -91 1919 -91 
Q 1588 -91 1214 -16 
Q 841 59 441 206 
L 441 856 
Q 825 641 1194 531 
Q 1563 422 1919 422 
Q 2459 422 2753 634 
Q 3047 847 3047 1241 
Q 3047 1584 2836 1778 
Q 2625 1972 2144 2069 
L 1759 2144 
Q 1053 2284 737 2584 
Q 422 2884 422 3419 
Q 422 4038 858 4394 
Q 1294 4750 2059 4750 
Q 2388 4750 2728 4690 
Q 3069 4631 3425 4513 
z
" transform="scale(0.015625)"/>
      <path id="DejaVuSans-6b" d="M 581 4863 
L 1159 4863 
L 1159 1991 
L 2875 3500 
L 3609 3500 
L 1753 1863 
L 3688 0 
L 2938 0 
L 1159 1709 
L 1159 0 
L 581 0 
L 581 4863 
z
" transform="scale(0.015625)"/>
      <path id="DejaVuSans-69" d="M 603 3500 
L 1178 3500 
L 1178 0 
L 603 0 
L 603 3500 
z
M 603 4863 
L 1178 4863 
L 1178 4134 
L 603 4134 
L 603 4863 
z
" transform="scale(0.015625)"/>
      <path id="DejaVuSans-70" d="M 1159 525 
L 1159 -1331 
L 581 -1331 
L 581 3500 
L 1159 3500 
L 1159 2969 
Q 1341 3281 1617 3432 
Q 1894 3584 2278 3584 
Q 2916 3584 3314 3078 
Q 3713 2572 3713 1747 
Q 3713 922 3314 415 
Q 2916 -91 2278 -91 
Q 1894 -91 1617 61 
Q 1341 213 1159 525 
z
M 3116 1747 
Q 3116 2381 2855 2742 
Q 2594 3103 2138 3103 
Q 1681 3103 1420 2742 
Q 1159 2381 1159 1747 
Q 1159 1113 1420 752 
Q 1681 391 2138 391 
Q 2594 391 2855 752 
Q 3116 1113 3116 1747 
z
" transform="scale(0.015625)"/>
     </defs>
     <use xlink:href="#DejaVuSans-56"/>
     <use xlink:href="#DejaVuSans-65" transform="translate(60.658203 0)"/>
     <use xlink:href="#DejaVuSans-6e" transform="translate(122.181641 0)"/>
     <use xlink:href="#DejaVuSans-74" transform="translate(185.560547 0)"/>
     <use xlink:href="#DejaVuSans-72" transform="translate(224.769531 0)"/>
     <use xlink:href="#DejaVuSans-61" transform="translate(265.882812 0)"/>
     <use xlink:href="#DejaVuSans-6c" transform="translate(327.162109 0)"/>
     <use xlink:href="#DejaVuSans-20" transform="translate(354.945312 0)"/>
     <use xlink:href="#DejaVuSans-53" transform="translate(386.732422 0)"/>
     <use xlink:href="#DejaVuSans-6b" transform="translate(450.208984 0)"/>
     <use xlink:href="#DejaVuSans-69" transform="translate(508.119141 0)"/>
     <use xlink:href="#DejaVuSans-70" transform="translate(535.902344 0)"/>
    </g>
   </g>
   <g id="text_12">
    <!-- Dorsal Skip -->
    <g style="fill: #ff9800" transform="translate(524.016 221.965714) scale(0.08 -0.08)">
     <defs>
      <path id="DejaVuSans-44" d="M 1259 4147 
L 1259 519 
L 2022 519 
Q 2988 519 3436 956 
Q 3884 1394 3884 2338 
Q 3884 3275 3436 3711 
Q 2988 4147 2022 4147 
L 1259 4147 
z
M 628 4666 
L 1925 4666 
Q 3281 4666 3915 4102 
Q 4550 3538 4550 2338 
Q 4550 1131 3912 565 
Q 3275 0 1925 0 
L 628 0 
L 628 4666 
z
" transform="scale(0.015625)"/>
      <path id="DejaVuSans-6f" d="M 1959 3097 
Q 1497 3097 1228 2736 
Q 959 2375 959 1747 
Q 959 1119 1226 758 
Q 1494 397 1959 397 
Q 2419 397 2687 759 
Q 2956 1122 2956 1747 
Q 2956 2369 2687 2733 
Q 2419 3097 1959 3097 
z
M 1959 3584 
Q 2709 3584 3137 3096 
Q 3566 2609 3566 1747 
Q 3566 888 3137 398 
Q 2709 -91 1959 -91 
Q 1206 -91 779 398 
Q 353 888 353 1747 
Q 353 2609 779 3096 
Q 1206 3584 1959 3584 
z
" transform="scale(0.015625)"/>
      <path id="DejaVuSans-73" d="M 2834 3397 
L 2834 2853 
Q 2591 2978 2328 3040 
Q 2066 3103 1784 3103 
Q 1356 3103 1142 2972 
Q 928 2841 928 2578 
Q 928 2378 1081 2264 
Q 1234 2150 1697 2047 
L 1894 2003 
Q 2506 1872 2764 1633 
Q 3022 1394 3022 966 
Q 3022 478 2636 193 
Q 2250 -91 1575 -91 
Q 1294 -91 989 -36 
Q 684 19 347 128 
L 347 722 
Q 666 556 975 473 
Q 1284 391 1588 391 
Q 1994 391 2212 530 
Q 2431 669 2431 922 
Q 2431 1156 2273 1281 
Q 2116 1406 1581 1522 
L 1381 1569 
Q 847 1681 609 1914 
Q 372 2147 372 2553 
Q 372 3047 722 3315 
Q 1072 3584 1716 3584 
Q 2034 3584 2315 3537 
Q 2597 3491 2834 3397 
z
" transform="scale(0.015625)"/>
     </defs>
     <use xlink:href="#DejaVuSans-44"/>
     <use xlink:href="#DejaVuSans-6f" transform="translate(77.001953 0)"/>
     <use xlink:href="#DejaVuSans-72" transform="translate(138.183594 0)"/>
     <use xlink:href="#DejaVuSans-73" transform="translate(179.296875 0)"/>
     <use xlink:href="#DejaVuSans-61" transform="translate(231.396484 0)"/>
     <use xlink:href="#DejaVuSans-6c" transform="translate(292.675781 0)"/>
     <use xlink:href="#DejaVuSans-20" transform="translate(320.458984 0)"/>
     <use xlink:href="#DejaVuSans-53" transform="translate(352.246094 0)"/>
     <use xlink:href="#DejaVuSans-6b" transform="translate(415.722656 0)"/>
     <use xlink:href="#DejaVuSans-69" transform="translate(473.632812 0)"/>
     <use xlink:href="#DejaVuSans-70" transform="translate(501.416016 0)"/>
    </g>
   </g>
   <g id="patch_18">
    <path d="M 358.390679 399.491769 
Q 496.08286 384.891125 632.107341 370.467322 
" style="fill: none; stroke-dasharray: 5.55,2.4; stroke-dashoffset: 0; stroke: #d32f2f; stroke-width: 1.5; stroke-linecap: round"/>
    <path d="M 627.081028 368.586848 
L 632.107341 370.467322 
L 627.587174 373.360088 
z
" style="fill: #d32f2f; stroke-dasharray: 5.55,2.4; stroke-dashoffset: 0; stroke: #d32f2f; stroke-width: 1.5; stroke-linecap: round"/>
   </g>
   <g id="patch_19">
    <path d="M 635.76 368.077148 
Q 635.76 266.399728 635.76 166.399358 
" style="fill: none; stroke-dasharray: 5.55,2.4; stroke-dashoffset: 0; stroke: #d32f2f; stroke-width: 1.5; stroke-linecap: round"/>
    <path d="M 633.36 171.199358 
L 635.76 166.399358 
L 638.16 171.199358 
z
" style="fill: #d32f2f; stroke-dasharray: 5.55,2.4; stroke-dashoffset: 0; stroke: #d32f2f; stroke-width: 1.5; stroke-linecap: round"/>
   </g>
   <g id="patch_20">
    <path d="M 633.760476 162.72 
Q 534.49131 162.72 436.899194 162.72 
" style="fill: none; stroke-dasharray: 5.55,2.4; stroke-dashoffset: 0; stroke: #d32f2f; stroke-width: 1.5; stroke-linecap: round"/>
    <path d="M 441.699194 165.12 
L 436.899194 162.72 
L 441.699194 160.32 
z
" style="fill: #d32f2f; stroke-dasharray: 5.55,2.4; stroke-dashoffset: 0; stroke: #d32f2f; stroke-width: 1.5; stroke-linecap: round"/>
   </g>
   <g id="text_13">
    <!-- Recurrent Feedback -->
    <g style="fill: #d32f2f" transform="translate(656.186672 308.696133) rotate(-90) scale(0.085 -0.085)">
     <defs>
      <path id="DejaVuSans-52" d="M 2841 2188 
Q 3044 2119 3236 1894 
Q 3428 1669 3622 1275 
L 4263 0 
L 3584 0 
L 2988 1197 
Q 2756 1666 2539 1819 
Q 2322 1972 1947 1972 
L 1259 1972 
L 1259 0 
L 628 0 
L 628 4666 
L 2053 4666 
Q 2853 4666 3247 4331 
Q 3641 3997 3641 3322 
Q 3641 2881 3436 2590 
Q 3231 2300 2841 2188 
z
M 1259 4147 
L 1259 2491 
L 2053 2491 
Q 2509 2491 2742 2702 
Q 2975 2913 2975 3322 
Q 2975 3731 2742 3939 
Q 2509 4147 2053 4147 
L 1259 4147 
z
" transform="scale(0.015625)"/>
      <path id="DejaVuSans-63" d="M 3122 3366 
L 3122 2828 
Q 2878 2963 2633 3030 
Q 2388 3097 2138 3097 
Q 1578 3097 1268 2742 
Q 959 2388 959 1747 
Q 959 1106 1268 751 
Q 1578 397 2138 397 
Q 2388 397 2633 464 
Q 2878 531 3122 666 
L 3122 134 
Q 2881 22 2623 -34 
Q 2366 -91 2075 -91 
Q 1284 -91 818 406 
Q 353 903 353 1747 
Q 353 2603 823 3093 
Q 1294 3584 2113 3584 
Q 2378 3584 2631 3529 
Q 2884 3475 3122 3366 
z
" transform="scale(0.015625)"/>
      <path id="DejaVuSans-75" d="M 544 1381 
L 544 3500 
L 1119 3500 
L 1119 1403 
Q 1119 906 1312 657 
Q 1506 409 1894 409 
Q 2359 409 2629 706 
Q 2900 1003 2900 1516 
L 2900 3500 
L 3475 3500 
L 3475 0 
L 2900 0 
L 2900 538 
Q 2691 219 2414 64 
Q 2138 -91 1772 -91 
Q 1169 -91 856 284 
Q 544 659 544 1381 
z
M 1991 3584 
L 1991 3584 
z
" transform="scale(0.015625)"/>
      <path id="DejaVuSans-46" d="M 628 4666 
L 3309 4666 
L 3309 4134 
L 1259 4134 
L 1259 2759 
L 3109 2759 
L 3109 2228 
L 1259 2228 
L 1259 0 
L 628 0 
L 628 4666 
z
" transform="scale(0.015625)"/>
      <path id="DejaVuSans-64" d="M 2906 2969 
L 2906 4863 
L 3481 4863 
L 3481 0 
L 2906 0 
L 2906 525 
Q 2725 213 2448 61 
Q 2172 -91 1784 -91 
Q 1150 -91 751 415 
Q 353 922 353 1747 
Q 353 2572 751 3078 
Q 1150 3584 1784 3584 
Q 2172 3584 2448 3432 
Q 2725 3281 2906 2969 
z
M 947 1747 
Q 947 1113 1208 752 
Q 1469 391 1925 391 
Q 2381 391 2643 752 
Q 2906 1113 2906 1747 
Q 2906 2381 2643 2742 
Q 2381 3103 1925 3103 
Q 1469 3103 1208 2742 
Q 947 2381 947 1747 
z
" transform="scale(0.015625)"/>
      <path id="DejaVuSans-62" d="M 3116 1747 
Q 3116 2381 2855 2742 
Q 2594 3103 2138 3103 
Q 1681 3103 1420 2742 
Q 1159 2381 1159 1747 
Q 1159 1113 1420 752 
Q 1681 391 2138 391 
Q 2594 391 2855 752 
Q 3116 1113 3116 1747 
z
M 1159 2969 
Q 1341 3281 1617 3432 
Q 1894 3584 2278 3584 
Q 2916 3584 3314 3078 
Q 3713 2572 3713 1747 
Q 3713 922 3314 415 
Q 2916 -91 2278 -91 
Q 1894 -91 1617 61 
Q 1341 213 1159 525 
L 1159 0 
L 581 0 
L 581 4863 
L 1159 4863 
L 1159 2969 
z
" transform="scale(0.015625)"/>
     </defs>
     <use xlink:href="#DejaVuSans-52"/>
     <use xlink:href="#DejaVuSans-65" transform="translate(64.982422 0)"/>
     <use xlink:href="#DejaVuSans-63" transform="translate(126.505859 0)"/>
     <use xlink:href="#DejaVuSans-75" transform="translate(181.486328 0)"/>
     <use xlink:href="#DejaVuSans-72" transform="translate(244.865234 0)"/>
     <use xlink:href="#DejaVuSans-72" transform="translate(284.228516 0)"/>
     <use xlink:href="#DejaVuSans-65" transform="translate(323.091797 0)"/>
     <use xlink:href="#DejaVuSans-6e" transform="translate(384.615234 0)"/>
     <use xlink:href="#DejaVuSans-74" transform="translate(447.994141 0)"/>
     <use xlink:href="#DejaVuSans-20" transform="translate(487.203125 0)"/>
     <use xlink:href="#DejaVuSans-46" transform="translate(518.990234 0)"/>
     <use xlink:href="#DejaVuSans-65" transform="translate(571.009766 0)"/>
     <use xlink:href="#DejaVuSans-65" transform="translate(632.533203 0)"/>
     <use xlink:href="#DejaVuSans-64" transform="translate(694.056641 0)"/>
     <use xlink:href="#DejaVuSans-62" transform="translate(757.533203 0)"/>
     <use xlink:href="#DejaVuSans-61" transform="translate(821.009766 0)"/>
     <use xlink:href="#DejaVuSans-63" transform="translate(882.289062 0)"/>
     <use xlink:href="#DejaVuSans-6b" transform="translate(937.269531 0)"/>
    </g>
   </g>
  </g>
 </g>
 <defs>
  <clipPath id="p1529545d8b">
   <rect x="7.2" y="7.2" width="698.4" height="518.4"/>
  </clipPath>
 </defs>
</svg>
