<?xml version="1.0" encoding="utf-8" standalone="no"?>
<!DOCTYPE svg PUBLIC "-//W3C//DTD SVG 1.1//EN"
  "http://www.w3.org/Graphics/SVG/1.1/DTD/svg11.dtd">
<svg xmlns:xlink="http://www.w3.org/1999/xlink" width="712.8pt" height="388.8pt" viewBox="0 0 712.8 388.8" xmlns="http://www.w3.org/2000/svg" version="1.1">
 <metadata>
  <rdf:RDF xmlns:dc="http://purl.org/dc/elements/1.1/" xmlns:cc="http://creativecommons.org/ns#" xmlns:rdf="http://www.w3.org/1999/02/22-rdf-syntax-ns#">
   <cc:Work>
    <dc:type rdf:resource="http://purl.org/dc/dcmitype/StillImage"/>
    <dc:date>2026-07-05T19:10:26.927013</dc:date>
    <dc:format>image/svg+xml</dc:format>
    <dc:creator>
     <cc:Agent>
      <dc:title>Matplotlib v3.10.9, https://matplotlib.org/</dc:title>
     </cc:Agent>
    </dc:creator>
   </cc:Work>
  </rdf:RDF>
 </metadata>
 <defs>
  <style type="text/css">*{stroke-linejoin: round; stroke-linecap: butt}</style>
 </defs>
 <g id="figure_1">
  <g id="patch_1">
   <path d="M 0 388.8 
L 712.8 388.8 
L 712.8 0 
L 0 0 
z
" style="fill: #ffffff"/>
  </g>
  <g id="axes_1">
   <g id="patch_2">
    <path d="M 42.12 269.28 
L 139.896 269.28 
L 139.896 119.52 
L 42.12 119.52 
z
" clip-path="url(#pda7b9f3208)" style="fill: #eceff1; stroke: #1f77b4; stroke-width: 1.5"/>
   </g>
   <g id="patch_3">
    <path d="M 174.816 269.28 
L 286.56 269.28 
L 286.56 119.52 
L 174.816 119.52 
z
" clip-path="url(#pda7b9f3208)" style="fill: #ffcdd2; stroke: #1f77b4; stroke-width: 1.5"/>
   </g>
   <g id="patch_4">
    <path d="M 314.496 269.28 
L 426.24 269.28 
L 426.24 119.52 
L 314.496 119.52 
z
" clip-path="url(#pda7b9f3208)" style="fill: #c8e6c9; stroke: #1f77b4; stroke-width: 1.5"/>
   </g>
   <g id="patch_5">
    <path d="M 454.176 269.28 
L 565.92 269.28 
L 565.92 119.52 
L 454.176 119.52 
z
" clip-path="url(#pda7b9f3208)" style="fill: #e0ffff; stroke: #1f77b4; stroke-width: 1.5"/>
   </g>
   <g id="patch_6">
    <path d="M 593.856 269.28 
L 677.664 269.28 
L 677.664 119.52 
L 593.856 119.52 
z
" clip-path="url(#pda7b9f3208)" style="fill: #d1c4e9; stroke: #1f77b4; stroke-width: 1.5"/>
   </g>
   <g id="text_1">
    <!-- Activation Flow and Dimension Changes -->
    <g transform="translate(209.308047 37.152) scale(0.13 -0.13)">
     <defs>
      <path id="DejaVuSans-Bold-41" d="M 3419 850 
L 1538 850 
L 1241 0 
L 31 0 
L 1759 4666 
L 3194 4666 
L 4922 0 
L 3713 0 
L 3419 850 
z
M 1838 1716 
L 3116 1716 
L 2478 3572 
L 1838 1716 
z
" transform="scale(0.015625)"/>
      <path id="DejaVuSans-Bold-63" d="M 3366 3391 
L 3366 2478 
Q 3138 2634 2908 2709 
Q 2678 2784 2431 2784 
Q 1963 2784 1702 2511 
Q 1441 2238 1441 1747 
Q 1441 1256 1702 982 
Q 1963 709 2431 709 
Q 2694 709 2930 787 
Q 3166 866 3366 1019 
L 3366 103 
Q 3103 6 2833 -42 
Q 2563 -91 2291 -91 
Q 1344 -91 809 395 
Q 275 881 275 1747 
Q 275 2613 809 3098 
Q 1344 3584 2291 3584 
Q 2566 3584 2833 3536 
Q 3100 3488 3366 3391 
z
" transform="scale(0.015625)"/>
      <path id="DejaVuSans-Bold-74" d="M 1759 4494 
L 1759 3500 
L 2913 3500 
L 2913 2700 
L 1759 2700 
L 1759 1216 
Q 1759 972 1856 886 
Q 1953 800 2241 800 
L 2816 800 
L 2816 0 
L 1856 0 
Q 1194 0 917 276 
Q 641 553 641 1216 
L 641 2700 
L 84 2700 
L 84 3500 
L 641 3500 
L 641 4494 
L 1759 4494 
z
" transform="scale(0.015625)"/>
      <path id="DejaVuSans-Bold-69" d="M 538 3500 
L 1656 3500 
L 1656 0 
L 538 0 
L 538 3500 
z
M 538 4863 
L 1656 4863 
L 1656 3950 
L 538 3950 
L 538 4863 
z
" transform="scale(0.015625)"/>
      <path id="DejaVuSans-Bold-76" d="M 97 3500 
L 1216 3500 
L 2088 1081 
L 2956 3500 
L 4078 3500 
L 2700 0 
L 1472 0 
L 97 3500 
z
" transform="scale(0.015625)"/>
      <path id="DejaVuSans-Bold-61" d="M 2106 1575 
Q 1756 1575 1579 1456 
Q 1403 1338 1403 1106 
Q 1403 894 1545 773 
Q 1688 653 1941 653 
Q 2256 653 2472 879 
Q 2688 1106 2688 1447 
L 2688 1575 
L 2106 1575 
z
M 3816 1997 
L 3816 0 
L 2688 0 
L 2688 519 
Q 2463 200 2181 54 
Q 1900 -91 1497 -91 
Q 953 -91 614 226 
Q 275 544 275 1050 
Q 275 1666 698 1953 
Q 1122 2241 2028 2241 
L 2688 2241 
L 2688 2328 
Q 2688 2594 2478 2717 
Q 2269 2841 1825 2841 
Q 1466 2841 1156 2769 
Q 847 2697 581 2553 
L 581 3406 
Q 941 3494 1303 3539 
Q 1666 3584 2028 3584 
Q 2975 3584 3395 3211 
Q 3816 2838 3816 1997 
z
" transform="scale(0.015625)"/>
      <path id="DejaVuSans-Bold-6f" d="M 2203 2784 
Q 1831 2784 1636 2517 
Q 1441 2250 1441 1747 
Q 1441 1244 1636 976 
Q 1831 709 2203 709 
Q 2569 709 2762 976 
Q 2956 1244 2956 1747 
Q 2956 2250 2762 2517 
Q 2569 2784 2203 2784 
z
M 2203 3584 
Q 3106 3584 3614 3096 
Q 4122 2609 4122 1747 
Q 4122 884 3614 396 
Q 3106 -91 2203 -91 
Q 1297 -91 786 396 
Q 275 884 275 1747 
Q 275 2609 786 3096 
Q 1297 3584 2203 3584 
z
" transform="scale(0.015625)"/>
      <path id="DejaVuSans-Bold-6e" d="M 4056 2131 
L 4056 0 
L 2931 0 
L 2931 347 
L 2931 1631 
Q 2931 2084 2911 2256 
Q 2891 2428 2841 2509 
Q 2775 2619 2662 2680 
Q 2550 2741 2406 2741 
Q 2056 2741 1856 2470 
Q 1656 2200 1656 1722 
L 1656 0 
L 538 0 
L 538 3500 
L 1656 3500 
L 1656 2988 
Q 1909 3294 2193 3439 
Q 2478 3584 2822 3584 
Q 3428 3584 3742 3212 
Q 4056 2841 4056 2131 
z
" transform="scale(0.015625)"/>
      <path id="DejaVuSans-Bold-20" transform="scale(0.015625)"/>
      <path id="DejaVuSans-Bold-46" d="M 588 4666 
L 3834 4666 
L 3834 3756 
L 1791 3756 
L 1791 2888 
L 3713 2888 
L 3713 1978 
L 1791 1978 
L 1791 0 
L 588 0 
L 588 4666 
z
" transform="scale(0.015625)"/>
      <path id="DejaVuSans-Bold-6c" d="M 538 4863 
L 1656 4863 
L 1656 0 
L 538 0 
L 538 4863 
z
" transform="scale(0.015625)"/>
      <path id="DejaVuSans-Bold-77" d="M 225 3500 
L 1313 3500 
L 1900 1088 
L 2491 3500 
L 3425 3500 
L 4013 1113 
L 4603 3500 
L 5691 3500 
L 4769 0 
L 3547 0 
L 2956 2406 
L 2369 0 
L 1147 0 
L 225 3500 
z
" transform="scale(0.015625)"/>
      <path id="DejaVuSans-Bold-64" d="M 2919 2988 
L 2919 4863 
L 4044 4863 
L 4044 0 
L 2919 0 
L 2919 506 
Q 2688 197 2409 53 
Q 2131 -91 1766 -91 
Q 1119 -91 703 423 
Q 288 938 288 1747 
Q 288 2556 703 3070 
Q 1119 3584 1766 3584 
Q 2128 3584 2408 3439 
Q 2688 3294 2919 2988 
z
M 2181 722 
Q 2541 722 2730 984 
Q 2919 1247 2919 1747 
Q 2919 2247 2730 2509 
Q 2541 2772 2181 2772 
Q 1825 2772 1636 2509 
Q 1447 2247 1447 1747 
Q 1447 1247 1636 984 
Q 1825 722 2181 722 
z
" transform="scale(0.015625)"/>
      <path id="DejaVuSans-Bold-44" d="M 1791 3756 
L 1791 909 
L 2222 909 
Q 2959 909 3348 1275 
Q 3738 1641 3738 2338 
Q 3738 3031 3350 3393 
Q 2963 3756 2222 3756 
L 1791 3756 
z
M 588 4666 
L 1856 4666 
Q 2919 4666 3439 4514 
Q 3959 4363 4331 4000 
Q 4659 3684 4818 3271 
Q 4978 2859 4978 2338 
Q 4978 1809 4818 1395 
Q 4659 981 4331 666 
Q 3956 303 3431 151 
Q 2906 0 1856 0 
L 588 0 
L 588 4666 
z
" transform="scale(0.015625)"/>
      <path id="DejaVuSans-Bold-6d" d="M 3781 2919 
Q 3994 3244 4286 3414 
Q 4578 3584 4928 3584 
Q 5531 3584 5847 3212 
Q 6163 2841 6163 2131 
L 6163 0 
L 5038 0 
L 5038 1825 
Q 5041 1866 5042 1909 
Q 5044 1953 5044 2034 
Q 5044 2406 4934 2573 
Q 4825 2741 4581 2741 
Q 4263 2741 4089 2478 
Q 3916 2216 3909 1719 
L 3909 0 
L 2784 0 
L 2784 1825 
Q 2784 2406 2684 2573 
Q 2584 2741 2328 2741 
Q 2006 2741 1831 2477 
Q 1656 2213 1656 1722 
L 1656 0 
L 531 0 
L 531 3500 
L 1656 3500 
L 1656 2988 
Q 1863 3284 2130 3434 
Q 2397 3584 2719 3584 
Q 3081 3584 3359 3409 
Q 3638 3234 3781 2919 
z
" transform="scale(0.015625)"/>
      <path id="DejaVuSans-Bold-65" d="M 4031 1759 
L 4031 1441 
L 1416 1441 
Q 1456 1047 1700 850 
Q 1944 653 2381 653 
Q 2734 653 3104 758 
Q 3475 863 3866 1075 
L 3866 213 
Q 3469 63 3072 -14 
Q 2675 -91 2278 -91 
Q 1328 -91 801 392 
Q 275 875 275 1747 
Q 275 2603 792 3093 
Q 1309 3584 2216 3584 
Q 3041 3584 3536 3087 
Q 4031 2591 4031 1759 
z
M 2881 2131 
Q 2881 2450 2695 2645 
Q 2509 2841 2209 2841 
Q 1884 2841 1681 2658 
Q 1478 2475 1428 2131 
L 2881 2131 
z
" transform="scale(0.015625)"/>
      <path id="DejaVuSans-Bold-73" d="M 3272 3391 
L 3272 2541 
Q 2913 2691 2578 2766 
Q 2244 2841 1947 2841 
Q 1628 2841 1473 2761 
Q 1319 2681 1319 2516 
Q 1319 2381 1436 2309 
Q 1553 2238 1856 2203 
L 2053 2175 
Q 2913 2066 3209 1816 
Q 3506 1566 3506 1031 
Q 3506 472 3093 190 
Q 2681 -91 1863 -91 
Q 1516 -91 1145 -36 
Q 775 19 384 128 
L 384 978 
Q 719 816 1070 734 
Q 1422 653 1784 653 
Q 2113 653 2278 743 
Q 2444 834 2444 1013 
Q 2444 1163 2330 1236 
Q 2216 1309 1875 1350 
L 1678 1375 
Q 931 1469 631 1722 
Q 331 1975 331 2491 
Q 331 3047 712 3315 
Q 1094 3584 1881 3584 
Q 2191 3584 2531 3537 
Q 2872 3491 3272 3391 
z
" transform="scale(0.015625)"/>
      <path id="DejaVuSans-Bold-43" d="M 4288 256 
Q 3956 84 3597 -3 
Q 3238 -91 2847 -91 
Q 1681 -91 1000 561 
Q 319 1213 319 2328 
Q 319 3447 1000 4098 
Q 1681 4750 2847 4750 
Q 3238 4750 3597 4662 
Q 3956 4575 4288 4403 
L 4288 3438 
Q 3953 3666 3628 3772 
Q 3303 3878 2944 3878 
Q 2300 3878 1931 3465 
Q 1563 3053 1563 2328 
Q 1563 1606 1931 1193 
Q 2300 781 2944 781 
Q 3303 781 3628 887 
Q 3953 994 4288 1222 
L 4288 256 
z
" transform="scale(0.015625)"/>
      <path id="DejaVuSans-Bold-68" d="M 4056 2131 
L 4056 0 
L 2931 0 
L 2931 347 
L 2931 1625 
Q 2931 2084 2911 2256 
Q 2891 2428 2841 2509 
Q 2775 2619 2662 2680 
Q 2550 2741 2406 2741 
Q 2056 2741 1856 2470 
Q 1656 2200 1656 1722 
L 1656 0 
L 538 0 
L 538 4863 
L 1656 4863 
L 1656 2988 
Q 1909 3294 2193 3439 
Q 2478 3584 2822 3584 
Q 3428 3584 3742 3212 
Q 4056 2841 4056 2131 
z
" transform="scale(0.015625)"/>
      <path id="DejaVuSans-Bold-67" d="M 2919 594 
Q 2688 288 2409 144 
Q 2131 0 1766 0 
Q 1125 0 706 504 
Q 288 1009 288 1791 
Q 288 2575 706 3076 
Q 1125 3578 1766 3578 
Q 2131 3578 2409 3434 
Q 2688 3291 2919 2981 
L 2919 3500 
L 4044 3500 
L 4044 353 
Q 4044 -491 3511 -936 
Q 2978 -1381 1966 -1381 
Q 1638 -1381 1331 -1331 
Q 1025 -1281 716 -1178 
L 716 -306 
Q 1009 -475 1290 -558 
Q 1572 -641 1856 -641 
Q 2406 -641 2662 -400 
Q 2919 -159 2919 353 
L 2919 594 
z
M 2181 2772 
Q 1834 2772 1640 2515 
Q 1447 2259 1447 1791 
Q 1447 1309 1634 1061 
Q 1822 813 2181 813 
Q 2531 813 2725 1069 
Q 2919 1325 2919 1791 
Q 2919 2259 2725 2515 
Q 2531 2772 2181 2772 
z
" transform="scale(0.015625)"/>
     </defs>
     <use xlink:href="#DejaVuSans-Bold-41"/>
     <use xlink:href="#DejaVuSans-Bold-63" transform="translate(77.392578 0)"/>
     <use xlink:href="#DejaVuSans-Bold-74" transform="translate(136.669922 0)"/>
     <use xlink:href="#DejaVuSans-Bold-69" transform="translate(184.472656 0)"/>
     <use xlink:href="#DejaVuSans-Bold-76" transform="translate(218.75 0)"/>
     <use xlink:href="#DejaVuSans-Bold-61" transform="translate(283.935547 0)"/>
     <use xlink:href="#DejaVuSans-Bold-74" transform="translate(351.416016 0)"/>
     <use xlink:href="#DejaVuSans-Bold-69" transform="translate(399.21875 0)"/>
     <use xlink:href="#DejaVuSans-Bold-6f" transform="translate(433.496094 0)"/>
     <use xlink:href="#DejaVuSans-Bold-6e" transform="translate(502.197266 0)"/>
     <use xlink:href="#DejaVuSans-Bold-20" transform="translate(573.388672 0)"/>
     <use xlink:href="#DejaVuSans-Bold-46" transform="translate(608.203125 0)"/>
     <use xlink:href="#DejaVuSans-Bold-6c" transform="translate(676.513672 0)"/>
     <use xlink:href="#DejaVuSans-Bold-6f" transform="translate(710.791016 0)"/>
     <use xlink:href="#DejaVuSans-Bold-77" transform="translate(779.492188 0)"/>
     <use xlink:href="#DejaVuSans-Bold-20" transform="translate(871.875 0)"/>
     <use xlink:href="#DejaVuSans-Bold-61" transform="translate(906.689453 0)"/>
     <use xlink:href="#DejaVuSans-Bold-6e" transform="translate(974.169922 0)"/>
     <use xlink:href="#DejaVuSans-Bold-64" transform="translate(1045.361328 0)"/>
     <use xlink:href="#DejaVuSans-Bold-20" transform="translate(1116.943359 0)"/>
     <use xlink:href="#DejaVuSans-Bold-44" transform="translate(1151.757812 0)"/>
     <use xlink:href="#DejaVuSans-Bold-69" transform="translate(1234.765625 0)"/>
     <use xlink:href="#DejaVuSans-Bold-6d" transform="translate(1269.042969 0)"/>
     <use xlink:href="#DejaVuSans-Bold-65" transform="translate(1373.242188 0)"/>
     <use xlink:href="#DejaVuSans-Bold-6e" transform="translate(1441.064453 0)"/>
     <use xlink:href="#DejaVuSans-Bold-73" transform="translate(1512.255859 0)"/>
     <use xlink:href="#DejaVuSans-Bold-69" transform="translate(1571.777344 0)"/>
     <use xlink:href="#DejaVuSans-Bold-6f" transform="translate(1606.054688 0)"/>
     <use xlink:href="#DejaVuSans-Bold-6e" transform="translate(1674.755859 0)"/>
     <use xlink:href="#DejaVuSans-Bold-20" transform="translate(1745.947266 0)"/>
     <use xlink:href="#DejaVuSans-Bold-43" transform="translate(1780.761719 0)"/>
     <use xlink:href="#DejaVuSans-Bold-68" transform="translate(1854.150391 0)"/>
     <use xlink:href="#DejaVuSans-Bold-61" transform="translate(1925.341797 0)"/>
     <use xlink:href="#DejaVuSans-Bold-6e" transform="translate(1992.822266 0)"/>
     <use xlink:href="#DejaVuSans-Bold-67" transform="translate(2064.013672 0)"/>
     <use xlink:href="#DejaVuSans-Bold-65" transform="translate(2135.595703 0)"/>
     <use xlink:href="#DejaVuSans-Bold-73" transform="translate(2203.417969 0)"/>
    </g>
   </g>
   <g id="text_2">
    <!-- Input Image -->
    <g style="fill: #111111" transform="translate(58.610031 174.483187) scale(0.095 -0.095)">
     <defs>
      <path id="DejaVuSans-Bold-49" d="M 588 4666 
L 1791 4666 
L 1791 0 
L 588 0 
L 588 4666 
z
" transform="scale(0.015625)"/>
      <path id="DejaVuSans-Bold-70" d="M 1656 506 
L 1656 -1331 
L 538 -1331 
L 538 3500 
L 1656 3500 
L 1656 2988 
Q 1888 3294 2169 3439 
Q 2450 3584 2816 3584 
Q 3463 3584 3878 3070 
Q 4294 2556 4294 1747 
Q 4294 938 3878 423 
Q 3463 -91 2816 -91 
Q 2450 -91 2169 54 
Q 1888 200 1656 506 
z
M 2400 2772 
Q 2041 2772 1848 2508 
Q 1656 2244 1656 1747 
Q 1656 1250 1848 986 
Q 2041 722 2400 722 
Q 2759 722 2948 984 
Q 3138 1247 3138 1747 
Q 3138 2247 2948 2509 
Q 2759 2772 2400 2772 
z
" transform="scale(0.015625)"/>
      <path id="DejaVuSans-Bold-75" d="M 500 1363 
L 500 3500 
L 1625 3500 
L 1625 3150 
Q 1625 2866 1622 2436 
Q 1619 2006 1619 1863 
Q 1619 1441 1641 1255 
Q 1663 1069 1716 984 
Q 1784 875 1895 815 
Q 2006 756 2150 756 
Q 2500 756 2700 1025 
Q 2900 1294 2900 1772 
L 2900 3500 
L 4019 3500 
L 4019 0 
L 2900 0 
L 2900 506 
Q 2647 200 2364 54 
Q 2081 -91 1741 -91 
Q 1134 -91 817 281 
Q 500 653 500 1363 
z
" transform="scale(0.015625)"/>
     </defs>
     <use xlink:href="#DejaVuSans-Bold-49"/>
     <use xlink:href="#DejaVuSans-Bold-6e" transform="translate(37.207031 0)"/>
     <use xlink:href="#DejaVuSans-Bold-70" transform="translate(108.398438 0)"/>
     <use xlink:href="#DejaVuSans-Bold-75" transform="translate(179.980469 0)"/>
     <use xlink:href="#DejaVuSans-Bold-74" transform="translate(251.171875 0)"/>
     <use xlink:href="#DejaVuSans-Bold-20" transform="translate(298.974609 0)"/>
     <use xlink:href="#DejaVuSans-Bold-49" transform="translate(333.789062 0)"/>
     <use xlink:href="#DejaVuSans-Bold-6d" transform="translate(370.996094 0)"/>
     <use xlink:href="#DejaVuSans-Bold-61" transform="translate(475.195312 0)"/>
     <use xlink:href="#DejaVuSans-Bold-67" transform="translate(542.675781 0)"/>
     <use xlink:href="#DejaVuSans-Bold-65" transform="translate(614.257812 0)"/>
    </g>
   </g>
   <g id="text_3">
    <!-- 1 x 3 x 96 x 96 -->
    <g style="fill: #555555" transform="translate(62.883 222.222352) scale(0.075 -0.075)">
     <defs>
      <path id="DejaVuSans-Oblique-31" d="M 416 531 
L 1447 531 
L 2144 4122 
L 978 3897 
L 1088 4441 
L 2247 4666 
L 2881 4666 
L 2075 531 
L 3103 531 
L 3003 0 
L 313 0 
L 416 531 
z
" transform="scale(0.015625)"/>
      <path id="DejaVuSans-Oblique-20" transform="scale(0.015625)"/>
      <path id="DejaVuSans-Oblique-78" d="M 3841 3500 
L 2234 1784 
L 3219 0 
L 2559 0 
L 1819 1388 
L 531 0 
L -166 0 
L 1556 1844 
L 641 3500 
L 1300 3500 
L 1972 2234 
L 3144 3500 
L 3841 3500 
z
" transform="scale(0.015625)"/>
      <path id="DejaVuSans-Oblique-33" d="M 1013 4550 
Q 1356 4650 1679 4700 
Q 2003 4750 2316 4750 
Q 2934 4750 3296 4475 
Q 3659 4200 3659 3738 
Q 3659 3284 3373 2959 
Q 3088 2634 2584 2516 
Q 2978 2403 3162 2165 
Q 3347 1928 3347 1538 
Q 3347 1163 3167 834 
Q 2988 506 2650 269 
Q 2394 88 2037 -1 
Q 1681 -91 1216 -91 
Q 922 -91 622 -33 
Q 322 25 13 141 
L 128 738 
Q 422 575 720 495 
Q 1019 416 1331 416 
Q 1947 416 2330 733 
Q 2713 1050 2713 1556 
Q 2713 1881 2469 2057 
Q 2225 2234 1772 2234 
L 1228 2234 
L 1325 2747 
L 1900 2747 
Q 2419 2747 2717 2984 
Q 3016 3222 3016 3628 
Q 3016 3922 2797 4083 
Q 2578 4244 2181 4244 
Q 1881 4244 1567 4180 
Q 1253 4116 916 3988 
L 1013 4550 
z
" transform="scale(0.015625)"/>
      <path id="DejaVuSans-Oblique-39" d="M 281 103 
L 397 678 
Q 578 559 809 496 
Q 1041 434 1306 434 
Q 1953 434 2348 843 
Q 2744 1253 2938 2119 
Q 2706 1853 2401 1714 
Q 2097 1575 1747 1575 
Q 1178 1575 842 1904 
Q 506 2234 506 2791 
Q 506 3247 672 3639 
Q 838 4031 1159 4325 
Q 1378 4531 1665 4640 
Q 1953 4750 2278 4750 
Q 2925 4750 3300 4339 
Q 3675 3928 3675 3219 
Q 3675 2559 3501 1943 
Q 3328 1328 3022 878 
Q 2697 403 2240 156 
Q 1784 -91 1228 -91 
Q 988 -91 748 -42 
Q 509 6 281 103 
z
M 1131 2938 
Q 1131 2541 1337 2308 
Q 1544 2075 1894 2075 
Q 2378 2075 2706 2447 
Q 3034 2819 3034 3372 
Q 3034 3784 2831 4017 
Q 2628 4250 2272 4250 
Q 1788 4250 1459 3870 
Q 1131 3491 1131 2938 
z
" transform="scale(0.015625)"/>
      <path id="DejaVuSans-Oblique-36" d="M 2938 1728 
Q 2938 2125 2734 2354 
Q 2531 2584 2181 2584 
Q 1697 2584 1367 2211 
Q 1038 1838 1038 1288 
Q 1038 875 1239 642 
Q 1441 409 1797 409 
Q 2284 409 2611 792 
Q 2938 1175 2938 1728 
z
M 3788 4556 
L 3681 3981 
Q 3500 4100 3265 4162 
Q 3031 4225 2766 4225 
Q 2119 4225 1726 3819 
Q 1334 3413 1141 2547 
Q 1369 2813 1670 2948 
Q 1972 3084 2322 3084 
Q 2894 3084 3233 2754 
Q 3572 2425 3572 1869 
Q 3572 1413 3405 1020 
Q 3238 628 2919 331 
Q 2700 128 2409 18 
Q 2119 -91 1791 -91 
Q 1147 -91 775 318 
Q 403 728 403 1441 
Q 403 2103 573 2717 
Q 744 3331 1050 3781 
Q 1372 4256 1830 4503 
Q 2288 4750 2841 4750 
Q 3084 4750 3321 4701 
Q 3559 4653 3788 4556 
z
" transform="scale(0.015625)"/>
     </defs>
     <use xlink:href="#DejaVuSans-Oblique-31"/>
     <use xlink:href="#DejaVuSans-Oblique-20" transform="translate(63.623047 0)"/>
     <use xlink:href="#DejaVuSans-Oblique-78" transform="translate(95.410156 0)"/>
     <use xlink:href="#DejaVuSans-Oblique-20" transform="translate(154.589844 0)"/>
     <use xlink:href="#DejaVuSans-Oblique-33" transform="translate(186.376953 0)"/>
     <use xlink:href="#DejaVuSans-Oblique-20" transform="translate(250 0)"/>
     <use xlink:href="#DejaVuSans-Oblique-78" transform="translate(281.787109 0)"/>
     <use xlink:href="#DejaVuSans-Oblique-20" transform="translate(340.966797 0)"/>
     <use xlink:href="#DejaVuSans-Oblique-39" transform="translate(372.753906 0)"/>
     <use xlink:href="#DejaVuSans-Oblique-36" transform="translate(436.376953 0)"/>
     <use xlink:href="#DejaVuSans-Oblique-20" transform="translate(500 0)"/>
     <use xlink:href="#DejaVuSans-Oblique-78" transform="translate(531.787109 0)"/>
     <use xlink:href="#DejaVuSans-Oblique-20" transform="translate(590.966797 0)"/>
     <use xlink:href="#DejaVuSans-Oblique-39" transform="translate(622.753906 0)"/>
     <use xlink:href="#DejaVuSans-Oblique-36" transform="translate(686.376953 0)"/>
    </g>
    <!-- (B x C x H x W) -->
    <g style="fill: #555555" transform="translate(62.553117 230.620711) scale(0.075 -0.075)">
     <defs>
      <path id="DejaVuSans-Oblique-28" d="M 2731 4856 
Q 1903 3822 1495 2892 
Q 1088 1963 1088 1100 
Q 1088 606 1206 120 
Q 1325 -366 1563 -844 
L 1063 -844 
Q 775 -306 634 201 
Q 494 709 494 1197 
Q 494 2125 923 3036 
Q 1353 3947 2222 4856 
L 2731 4856 
z
" transform="scale(0.015625)"/>
      <path id="DejaVuSans-Oblique-42" d="M 1081 4666 
L 2694 4666 
Q 3350 4666 3675 4422 
Q 4000 4178 4000 3688 
Q 4000 3238 3720 2911 
Q 3441 2584 2988 2516 
Q 3375 2428 3569 2181 
Q 3763 1934 3763 1522 
Q 3763 819 3242 409 
Q 2722 0 1819 0 
L 172 0 
L 1081 4666 
z
M 1234 2228 
L 903 519 
L 1919 519 
Q 2491 519 2800 781 
Q 3109 1044 3109 1522 
Q 3109 1891 2904 2059 
Q 2700 2228 2247 2228 
L 1234 2228 
z
M 1606 4147 
L 1331 2741 
L 2272 2741 
Q 2775 2741 3058 2959 
Q 3341 3178 3341 3566 
Q 3341 3869 3150 4008 
Q 2959 4147 2541 4147 
L 1606 4147 
z
" transform="scale(0.015625)"/>
      <path id="DejaVuSans-Oblique-43" d="M 4447 4306 
L 4319 3641 
Q 4019 3944 3683 4091 
Q 3347 4238 2956 4238 
Q 2422 4238 2017 3981 
Q 1613 3725 1319 3200 
Q 1131 2863 1032 2486 
Q 934 2109 934 1728 
Q 934 1091 1264 756 
Q 1594 422 2222 422 
Q 2656 422 3056 561 
Q 3456 700 3834 978 
L 3688 231 
Q 3316 72 2936 -9 
Q 2556 -91 2175 -91 
Q 1278 -91 773 396 
Q 269 884 269 1753 
Q 269 2309 461 2846 
Q 653 3384 1013 3828 
Q 1394 4300 1883 4525 
Q 2372 4750 3022 4750 
Q 3422 4750 3780 4639 
Q 4138 4528 4447 4306 
z
" transform="scale(0.015625)"/>
      <path id="DejaVuSans-Oblique-48" d="M 1081 4666 
L 1716 4666 
L 1344 2753 
L 3634 2753 
L 4006 4666 
L 4641 4666 
L 3731 0 
L 3097 0 
L 3531 2222 
L 1241 2222 
L 806 0 
L 172 0 
L 1081 4666 
z
" transform="scale(0.015625)"/>
      <path id="DejaVuSans-Oblique-57" d="M 616 4666 
L 1228 4666 
L 1453 697 
L 3213 4666 
L 3916 4666 
L 4147 697 
L 5888 4666 
L 6528 4666 
L 4453 0 
L 3659 0 
L 3444 3891 
L 1697 0 
L 903 0 
L 616 4666 
z
" transform="scale(0.015625)"/>
      <path id="DejaVuSans-Oblique-29" d="M -397 -844 
Q 434 191 840 1120 
Q 1247 2050 1247 2913 
Q 1247 3406 1130 3892 
Q 1013 4378 775 4856 
L 1275 4856 
Q 1563 4316 1703 3812 
Q 1844 3309 1844 2822 
Q 1844 1891 1411 973 
Q 978 56 116 -844 
L -397 -844 
z
" transform="scale(0.015625)"/>
     </defs>
     <use xlink:href="#DejaVuSans-Oblique-28"/>
     <use xlink:href="#DejaVuSans-Oblique-42" transform="translate(39.013672 0)"/>
     <use xlink:href="#DejaVuSans-Oblique-20" transform="translate(107.617188 0)"/>
     <use xlink:href="#DejaVuSans-Oblique-78" transform="translate(139.404297 0)"/>
     <use xlink:href="#DejaVuSans-Oblique-20" transform="translate(198.583984 0)"/>
     <use xlink:href="#DejaVuSans-Oblique-43" transform="translate(230.371094 0)"/>
     <use xlink:href="#DejaVuSans-Oblique-20" transform="translate(300.195312 0)"/>
     <use xlink:href="#DejaVuSans-Oblique-78" transform="translate(331.982422 0)"/>
     <use xlink:href="#DejaVuSans-Oblique-20" transform="translate(391.162109 0)"/>
     <use xlink:href="#DejaVuSans-Oblique-48" transform="translate(422.949219 0)"/>
     <use xlink:href="#DejaVuSans-Oblique-20" transform="translate(498.144531 0)"/>
     <use xlink:href="#DejaVuSans-Oblique-78" transform="translate(529.931641 0)"/>
     <use xlink:href="#DejaVuSans-Oblique-20" transform="translate(589.111328 0)"/>
     <use xlink:href="#DejaVuSans-Oblique-57" transform="translate(620.898438 0)"/>
     <use xlink:href="#DejaVuSans-Oblique-29" transform="translate(719.775391 0)"/>
    </g>
   </g>
   <g id="text_4">
    <!-- WideSEConvStem -->
    <g style="fill: #111111" transform="translate(183.443313 169.238445) scale(0.095 -0.095)">
     <defs>
      <path id="DejaVuSans-Bold-57" d="M 191 4666 
L 1344 4666 
L 2150 1275 
L 2950 4666 
L 4109 4666 
L 4909 1275 
L 5716 4666 
L 6859 4666 
L 5759 0 
L 4372 0 
L 3525 3547 
L 2688 0 
L 1300 0 
L 191 4666 
z
" transform="scale(0.015625)"/>
      <path id="DejaVuSans-Bold-53" d="M 3834 4519 
L 3834 3531 
Q 3450 3703 3084 3790 
Q 2719 3878 2394 3878 
Q 1963 3878 1756 3759 
Q 1550 3641 1550 3391 
Q 1550 3203 1689 3098 
Q 1828 2994 2194 2919 
L 2706 2816 
Q 3484 2659 3812 2340 
Q 4141 2022 4141 1434 
Q 4141 663 3683 286 
Q 3225 -91 2284 -91 
Q 1841 -91 1394 -6 
Q 947 78 500 244 
L 500 1259 
Q 947 1022 1364 901 
Q 1781 781 2169 781 
Q 2563 781 2772 912 
Q 2981 1044 2981 1288 
Q 2981 1506 2839 1625 
Q 2697 1744 2272 1838 
L 1806 1941 
Q 1106 2091 782 2419 
Q 459 2747 459 3303 
Q 459 4000 909 4375 
Q 1359 4750 2203 4750 
Q 2588 4750 2994 4692 
Q 3400 4634 3834 4519 
z
" transform="scale(0.015625)"/>
      <path id="DejaVuSans-Bold-45" d="M 588 4666 
L 3834 4666 
L 3834 3756 
L 1791 3756 
L 1791 2888 
L 3713 2888 
L 3713 1978 
L 1791 1978 
L 1791 909 
L 3903 909 
L 3903 0 
L 588 0 
L 588 4666 
z
" transform="scale(0.015625)"/>
     </defs>
     <use xlink:href="#DejaVuSans-Bold-57"/>
     <use xlink:href="#DejaVuSans-Bold-69" transform="translate(110.302734 0)"/>
     <use xlink:href="#DejaVuSans-Bold-64" transform="translate(144.580078 0)"/>
     <use xlink:href="#DejaVuSans-Bold-65" transform="translate(216.162109 0)"/>
     <use xlink:href="#DejaVuSans-Bold-53" transform="translate(283.984375 0)"/>
     <use xlink:href="#DejaVuSans-Bold-45" transform="translate(356.005859 0)"/>
     <use xlink:href="#DejaVuSans-Bold-43" transform="translate(424.316406 0)"/>
     <use xlink:href="#DejaVuSans-Bold-6f" transform="translate(497.705078 0)"/>
     <use xlink:href="#DejaVuSans-Bold-6e" transform="translate(566.40625 0)"/>
     <use xlink:href="#DejaVuSans-Bold-76" transform="translate(637.597656 0)"/>
     <use xlink:href="#DejaVuSans-Bold-53" transform="translate(702.783203 0)"/>
     <use xlink:href="#DejaVuSans-Bold-74" transform="translate(774.804688 0)"/>
     <use xlink:href="#DejaVuSans-Bold-65" transform="translate(822.607422 0)"/>
     <use xlink:href="#DejaVuSans-Bold-6d" transform="translate(890.429688 0)"/>
    </g>
    <!-- Output -->
    <g style="fill: #111111" transform="translate(211.946281 179.876367) scale(0.095 -0.095)">
     <defs>
      <path id="DejaVuSans-Bold-4f" d="M 2719 3878 
Q 2169 3878 1866 3472 
Q 1563 3066 1563 2328 
Q 1563 1594 1866 1187 
Q 2169 781 2719 781 
Q 3272 781 3575 1187 
Q 3878 1594 3878 2328 
Q 3878 3066 3575 3472 
Q 3272 3878 2719 3878 
z
M 2719 4750 
Q 3844 4750 4481 4106 
Q 5119 3463 5119 2328 
Q 5119 1197 4481 553 
Q 3844 -91 2719 -91 
Q 1597 -91 958 553 
Q 319 1197 319 2328 
Q 319 3463 958 4106 
Q 1597 4750 2719 4750 
z
" transform="scale(0.015625)"/>
     </defs>
     <use xlink:href="#DejaVuSans-Bold-4f"/>
     <use xlink:href="#DejaVuSans-Bold-75" transform="translate(85.009766 0)"/>
     <use xlink:href="#DejaVuSans-Bold-74" transform="translate(156.201172 0)"/>
     <use xlink:href="#DejaVuSans-Bold-70" transform="translate(204.003906 0)"/>
     <use xlink:href="#DejaVuSans-Bold-75" transform="translate(275.585938 0)"/>
     <use xlink:href="#DejaVuSans-Bold-74" transform="translate(346.777344 0)"/>
    </g>
   </g>
   <g id="text_5">
    <!-- 1 x 64 x 96 x 96 -->
    <g style="fill: #555555" transform="translate(200.177063 222.222352) scale(0.075 -0.075)">
     <defs>
      <path id="DejaVuSans-Oblique-34" d="M 2753 4666 
L 3547 4666 
L 2950 1625 
L 3616 1625 
L 3513 1100 
L 2847 1100 
L 2638 0 
L 2009 0 
L 2222 1100 
L 116 1100 
L 238 1709 
L 2753 4666 
z
M 2809 4116 
L 728 1625 
L 2322 1625 
L 2809 4116 
z
" transform="scale(0.015625)"/>
     </defs>
     <use xlink:href="#DejaVuSans-Oblique-31"/>
     <use xlink:href="#DejaVuSans-Oblique-20" transform="translate(63.623047 0)"/>
     <use xlink:href="#DejaVuSans-Oblique-78" transform="translate(95.410156 0)"/>
     <use xlink:href="#DejaVuSans-Oblique-20" transform="translate(154.589844 0)"/>
     <use xlink:href="#DejaVuSans-Oblique-36" transform="translate(186.376953 0)"/>
     <use xlink:href="#DejaVuSans-Oblique-34" transform="translate(250 0)"/>
     <use xlink:href="#DejaVuSans-Oblique-20" transform="translate(313.623047 0)"/>
     <use xlink:href="#DejaVuSans-Oblique-78" transform="translate(345.410156 0)"/>
     <use xlink:href="#DejaVuSans-Oblique-20" transform="translate(404.589844 0)"/>
     <use xlink:href="#DejaVuSans-Oblique-39" transform="translate(436.376953 0)"/>
     <use xlink:href="#DejaVuSans-Oblique-36" transform="translate(500 0)"/>
     <use xlink:href="#DejaVuSans-Oblique-20" transform="translate(563.623047 0)"/>
     <use xlink:href="#DejaVuSans-Oblique-78" transform="translate(595.410156 0)"/>
     <use xlink:href="#DejaVuSans-Oblique-20" transform="translate(654.589844 0)"/>
     <use xlink:href="#DejaVuSans-Oblique-39" transform="translate(686.376953 0)"/>
     <use xlink:href="#DejaVuSans-Oblique-36" transform="translate(750 0)"/>
    </g>
    <!-- (B x C x H x W) -->
    <g style="fill: #555555" transform="translate(202.233117 230.620711) scale(0.075 -0.075)">
     <use xlink:href="#DejaVuSans-Oblique-28"/>
     <use xlink:href="#DejaVuSans-Oblique-42" transform="translate(39.013672 0)"/>
     <use xlink:href="#DejaVuSans-Oblique-20" transform="translate(107.617188 0)"/>
     <use xlink:href="#DejaVuSans-Oblique-78" transform="translate(139.404297 0)"/>
     <use xlink:href="#DejaVuSans-Oblique-20" transform="translate(198.583984 0)"/>
     <use xlink:href="#DejaVuSans-Oblique-43" transform="translate(230.371094 0)"/>
     <use xlink:href="#DejaVuSans-Oblique-20" transform="translate(300.195312 0)"/>
     <use xlink:href="#DejaVuSans-Oblique-78" transform="translate(331.982422 0)"/>
     <use xlink:href="#DejaVuSans-Oblique-20" transform="translate(391.162109 0)"/>
     <use xlink:href="#DejaVuSans-Oblique-48" transform="translate(422.949219 0)"/>
     <use xlink:href="#DejaVuSans-Oblique-20" transform="translate(498.144531 0)"/>
     <use xlink:href="#DejaVuSans-Oblique-78" transform="translate(529.931641 0)"/>
     <use xlink:href="#DejaVuSans-Oblique-20" transform="translate(589.111328 0)"/>
     <use xlink:href="#DejaVuSans-Oblique-57" transform="translate(620.898438 0)"/>
     <use xlink:href="#DejaVuSans-Oblique-29" transform="translate(719.775391 0)"/>
    </g>
   </g>
   <g id="text_6">
    <!-- PatchTokeniserLarge -->
    <g style="fill: #111111" transform="translate(314.610422 169.201336) scale(0.095 -0.095)">
     <defs>
      <path id="DejaVuSans-Bold-50" d="M 588 4666 
L 2584 4666 
Q 3475 4666 3951 4270 
Q 4428 3875 4428 3144 
Q 4428 2409 3951 2014 
Q 3475 1619 2584 1619 
L 1791 1619 
L 1791 0 
L 588 0 
L 588 4666 
z
M 1791 3794 
L 1791 2491 
L 2456 2491 
Q 2806 2491 2997 2661 
Q 3188 2831 3188 3144 
Q 3188 3456 2997 3625 
Q 2806 3794 2456 3794 
L 1791 3794 
z
" transform="scale(0.015625)"/>
      <path id="DejaVuSans-Bold-54" d="M 31 4666 
L 4331 4666 
L 4331 3756 
L 2784 3756 
L 2784 0 
L 1581 0 
L 1581 3756 
L 31 3756 
L 31 4666 
z
" transform="scale(0.015625)"/>
      <path id="DejaVuSans-Bold-6b" d="M 538 4863 
L 1656 4863 
L 1656 2216 
L 2944 3500 
L 4244 3500 
L 2534 1894 
L 4378 0 
L 3022 0 
L 1656 1459 
L 1656 0 
L 538 0 
L 538 4863 
z
" transform="scale(0.015625)"/>
      <path id="DejaVuSans-Bold-72" d="M 3138 2547 
Q 2991 2616 2845 2648 
Q 2700 2681 2553 2681 
Q 2122 2681 1889 2404 
Q 1656 2128 1656 1613 
L 1656 0 
L 538 0 
L 538 3500 
L 1656 3500 
L 1656 2925 
Q 1872 3269 2151 3426 
Q 2431 3584 2822 3584 
Q 2878 3584 2943 3579 
Q 3009 3575 3134 3559 
L 3138 2547 
z
" transform="scale(0.015625)"/>
      <path id="DejaVuSans-Bold-4c" d="M 588 4666 
L 1791 4666 
L 1791 909 
L 3903 909 
L 3903 0 
L 588 0 
L 588 4666 
z
" transform="scale(0.015625)"/>
     </defs>
     <use xlink:href="#DejaVuSans-Bold-50"/>
     <use xlink:href="#DejaVuSans-Bold-61" transform="translate(70.666016 0)"/>
     <use xlink:href="#DejaVuSans-Bold-74" transform="translate(138.146484 0)"/>
     <use xlink:href="#DejaVuSans-Bold-63" transform="translate(185.949219 0)"/>
     <use xlink:href="#DejaVuSans-Bold-68" transform="translate(245.226562 0)"/>
     <use xlink:href="#DejaVuSans-Bold-54" transform="translate(316.417969 0)"/>
     <use xlink:href="#DejaVuSans-Bold-6f" transform="translate(371.380859 0)"/>
     <use xlink:href="#DejaVuSans-Bold-6b" transform="translate(440.082031 0)"/>
     <use xlink:href="#DejaVuSans-Bold-65" transform="translate(503.960938 0)"/>
     <use xlink:href="#DejaVuSans-Bold-6e" transform="translate(571.783203 0)"/>
     <use xlink:href="#DejaVuSans-Bold-69" transform="translate(642.974609 0)"/>
     <use xlink:href="#DejaVuSans-Bold-73" transform="translate(677.251953 0)"/>
     <use xlink:href="#DejaVuSans-Bold-65" transform="translate(736.773438 0)"/>
     <use xlink:href="#DejaVuSans-Bold-72" transform="translate(804.595703 0)"/>
     <use xlink:href="#DejaVuSans-Bold-4c" transform="translate(853.912109 0)"/>
     <use xlink:href="#DejaVuSans-Bold-61" transform="translate(917.632812 0)"/>
     <use xlink:href="#DejaVuSans-Bold-72" transform="translate(985.113281 0)"/>
     <use xlink:href="#DejaVuSans-Bold-67" transform="translate(1034.429688 0)"/>
     <use xlink:href="#DejaVuSans-Bold-65" transform="translate(1106.011719 0)"/>
    </g>
    <!-- Output -->
    <g style="fill: #111111" transform="translate(351.626281 179.913477) scale(0.095 -0.095)">
     <use xlink:href="#DejaVuSans-Bold-4f"/>
     <use xlink:href="#DejaVuSans-Bold-75" transform="translate(85.009766 0)"/>
     <use xlink:href="#DejaVuSans-Bold-74" transform="translate(156.201172 0)"/>
     <use xlink:href="#DejaVuSans-Bold-70" transform="translate(204.003906 0)"/>
     <use xlink:href="#DejaVuSans-Bold-75" transform="translate(275.585938 0)"/>
     <use xlink:href="#DejaVuSans-Bold-74" transform="translate(346.777344 0)"/>
    </g>
   </g>
   <g id="text_7">
    <!-- 1 x 128 x 48 x 48 -->
    <g style="fill: #555555" transform="translate(337.471125 222.222352) scale(0.075 -0.075)">
     <defs>
      <path id="DejaVuSans-Oblique-32" d="M 2950 2253 
L 934 525 
L 3163 525 
L 3053 0 
L 25 0 
L 128 531 
L 2234 2338 
Q 2656 2703 2832 2979 
Q 3009 3256 3009 3547 
Q 3009 3850 2796 4040 
Q 2584 4231 2241 4231 
Q 1944 4231 1581 4125 
Q 1219 4019 806 3816 
L 922 4441 
Q 1309 4594 1662 4672 
Q 2016 4750 2316 4750 
Q 2928 4750 3301 4425 
Q 3675 4100 3675 3572 
Q 3675 3216 3497 2892 
Q 3319 2569 2950 2253 
z
" transform="scale(0.015625)"/>
      <path id="DejaVuSans-Oblique-38" d="M 2847 1416 
Q 2847 1769 2600 1992 
Q 2353 2216 1953 2216 
Q 1466 2216 1148 1923 
Q 831 1631 831 1184 
Q 831 828 1073 618 
Q 1316 409 1728 409 
Q 2219 409 2533 693 
Q 2847 978 2847 1416 
z
M 3169 3591 
Q 3169 3888 2950 4069 
Q 2731 4250 2369 4250 
Q 1941 4250 1664 4009 
Q 1388 3769 1388 3406 
Q 1388 3094 1605 2903 
Q 1822 2713 2181 2713 
Q 2613 2713 2891 2961 
Q 3169 3209 3169 3591 
z
M 2741 2456 
Q 3094 2322 3281 2050 
Q 3469 1778 3469 1394 
Q 3469 747 2969 328 
Q 2469 -91 1678 -91 
Q 1006 -91 609 239 
Q 213 569 213 1119 
Q 213 1619 553 2008 
Q 894 2397 1441 2503 
Q 1113 2616 941 2852 
Q 769 3088 769 3425 
Q 769 3991 1239 4370 
Q 1709 4750 2431 4750 
Q 3034 4750 3414 4442 
Q 3794 4134 3794 3659 
Q 3794 3247 3511 2923 
Q 3228 2600 2741 2456 
z
" transform="scale(0.015625)"/>
     </defs>
     <use xlink:href="#DejaVuSans-Oblique-31"/>
     <use xlink:href="#DejaVuSans-Oblique-20" transform="translate(63.623047 0)"/>
     <use xlink:href="#DejaVuSans-Oblique-78" transform="translate(95.410156 0)"/>
     <use xlink:href="#DejaVuSans-Oblique-20" transform="translate(154.589844 0)"/>
     <use xlink:href="#DejaVuSans-Oblique-31" transform="translate(186.376953 0)"/>
     <use xlink:href="#DejaVuSans-Oblique-32" transform="translate(250 0)"/>
     <use xlink:href="#DejaVuSans-Oblique-38" transform="translate(313.623047 0)"/>
     <use xlink:href="#DejaVuSans-Oblique-20" transform="translate(377.246094 0)"/>
     <use xlink:href="#DejaVuSans-Oblique-78" transform="translate(409.033203 0)"/>
     <use xlink:href="#DejaVuSans-Oblique-20" transform="translate(468.212891 0)"/>
     <use xlink:href="#DejaVuSans-Oblique-34" transform="translate(500 0)"/>
     <use xlink:href="#DejaVuSans-Oblique-38" transform="translate(563.623047 0)"/>
     <use xlink:href="#DejaVuSans-Oblique-20" transform="translate(627.246094 0)"/>
     <use xlink:href="#DejaVuSans-Oblique-78" transform="translate(659.033203 0)"/>
     <use xlink:href="#DejaVuSans-Oblique-20" transform="translate(718.212891 0)"/>
     <use xlink:href="#DejaVuSans-Oblique-34" transform="translate(750 0)"/>
     <use xlink:href="#DejaVuSans-Oblique-38" transform="translate(813.623047 0)"/>
    </g>
    <!-- (B x C x H x W) -->
    <g style="fill: #555555" transform="translate(341.913117 230.620711) scale(0.075 -0.075)">
     <use xlink:href="#DejaVuSans-Oblique-28"/>
     <use xlink:href="#DejaVuSans-Oblique-42" transform="translate(39.013672 0)"/>
     <use xlink:href="#DejaVuSans-Oblique-20" transform="translate(107.617188 0)"/>
     <use xlink:href="#DejaVuSans-Oblique-78" transform="translate(139.404297 0)"/>
     <use xlink:href="#DejaVuSans-Oblique-20" transform="translate(198.583984 0)"/>
     <use xlink:href="#DejaVuSans-Oblique-43" transform="translate(230.371094 0)"/>
     <use xlink:href="#DejaVuSans-Oblique-20" transform="translate(300.195312 0)"/>
     <use xlink:href="#DejaVuSans-Oblique-78" transform="translate(331.982422 0)"/>
     <use xlink:href="#DejaVuSans-Oblique-20" transform="translate(391.162109 0)"/>
     <use xlink:href="#DejaVuSans-Oblique-48" transform="translate(422.949219 0)"/>
     <use xlink:href="#DejaVuSans-Oblique-20" transform="translate(498.144531 0)"/>
     <use xlink:href="#DejaVuSans-Oblique-78" transform="translate(529.931641 0)"/>
     <use xlink:href="#DejaVuSans-Oblique-20" transform="translate(589.111328 0)"/>
     <use xlink:href="#DejaVuSans-Oblique-57" transform="translate(620.898438 0)"/>
     <use xlink:href="#DejaVuSans-Oblique-29" transform="translate(719.775391 0)"/>
    </g>
   </g>
   <g id="text_8">
    <!-- Dual Transformer -->
    <g style="fill: #111111" transform="translate(463.57593 169.201336) scale(0.095 -0.095)">
     <defs>
      <path id="DejaVuSans-Bold-66" d="M 2841 4863 
L 2841 4128 
L 2222 4128 
Q 1984 4128 1890 4042 
Q 1797 3956 1797 3744 
L 1797 3500 
L 2753 3500 
L 2753 2700 
L 1797 2700 
L 1797 0 
L 678 0 
L 678 2700 
L 122 2700 
L 122 3500 
L 678 3500 
L 678 3744 
Q 678 4316 997 4589 
Q 1316 4863 1984 4863 
L 2841 4863 
z
" transform="scale(0.015625)"/>
     </defs>
     <use xlink:href="#DejaVuSans-Bold-44"/>
     <use xlink:href="#DejaVuSans-Bold-75" transform="translate(83.007812 0)"/>
     <use xlink:href="#DejaVuSans-Bold-61" transform="translate(154.199219 0)"/>
     <use xlink:href="#DejaVuSans-Bold-6c" transform="translate(221.679688 0)"/>
     <use xlink:href="#DejaVuSans-Bold-20" transform="translate(255.957031 0)"/>
     <use xlink:href="#DejaVuSans-Bold-54" transform="translate(290.771484 0)"/>
     <use xlink:href="#DejaVuSans-Bold-72" transform="translate(347.984375 0)"/>
     <use xlink:href="#DejaVuSans-Bold-61" transform="translate(397.300781 0)"/>
     <use xlink:href="#DejaVuSans-Bold-6e" transform="translate(464.78125 0)"/>
     <use xlink:href="#DejaVuSans-Bold-73" transform="translate(535.972656 0)"/>
     <use xlink:href="#DejaVuSans-Bold-66" transform="translate(595.494141 0)"/>
     <use xlink:href="#DejaVuSans-Bold-6f" transform="translate(639 0)"/>
     <use xlink:href="#DejaVuSans-Bold-72" transform="translate(707.701172 0)"/>
     <use xlink:href="#DejaVuSans-Bold-6d" transform="translate(757.017578 0)"/>
     <use xlink:href="#DejaVuSans-Bold-65" transform="translate(861.216797 0)"/>
     <use xlink:href="#DejaVuSans-Bold-72" transform="translate(929.039062 0)"/>
    </g>
    <!-- Embedding -->
    <g style="fill: #111111" transform="translate(480.022063 179.839258) scale(0.095 -0.095)">
     <defs>
      <path id="DejaVuSans-Bold-62" d="M 2400 722 
Q 2759 722 2948 984 
Q 3138 1247 3138 1747 
Q 3138 2247 2948 2509 
Q 2759 2772 2400 2772 
Q 2041 2772 1848 2508 
Q 1656 2244 1656 1747 
Q 1656 1250 1848 986 
Q 2041 722 2400 722 
z
M 1656 2988 
Q 1888 3294 2169 3439 
Q 2450 3584 2816 3584 
Q 3463 3584 3878 3070 
Q 4294 2556 4294 1747 
Q 4294 938 3878 423 
Q 3463 -91 2816 -91 
Q 2450 -91 2169 54 
Q 1888 200 1656 506 
L 1656 0 
L 538 0 
L 538 4863 
L 1656 4863 
L 1656 2988 
z
" transform="scale(0.015625)"/>
     </defs>
     <use xlink:href="#DejaVuSans-Bold-45"/>
     <use xlink:href="#DejaVuSans-Bold-6d" transform="translate(68.310547 0)"/>
     <use xlink:href="#DejaVuSans-Bold-62" transform="translate(172.509766 0)"/>
     <use xlink:href="#DejaVuSans-Bold-65" transform="translate(244.091797 0)"/>
     <use xlink:href="#DejaVuSans-Bold-64" transform="translate(311.914062 0)"/>
     <use xlink:href="#DejaVuSans-Bold-64" transform="translate(383.496094 0)"/>
     <use xlink:href="#DejaVuSans-Bold-69" transform="translate(455.078125 0)"/>
     <use xlink:href="#DejaVuSans-Bold-6e" transform="translate(489.355469 0)"/>
     <use xlink:href="#DejaVuSans-Bold-67" transform="translate(560.546875 0)"/>
    </g>
   </g>
   <g id="text_9">
    <!-- 1 x 768 -->
    <g style="fill: #555555" transform="translate(495.901125 222.118055) scale(0.075 -0.075)">
     <defs>
      <path id="DejaVuSans-Oblique-37" d="M 819 4666 
L 4013 4666 
L 3956 4397 
L 1288 0 
L 594 0 
L 3116 4134 
L 716 4134 
L 819 4666 
z
" transform="scale(0.015625)"/>
     </defs>
     <use xlink:href="#DejaVuSans-Oblique-31"/>
     <use xlink:href="#DejaVuSans-Oblique-20" transform="translate(63.623047 0)"/>
     <use xlink:href="#DejaVuSans-Oblique-78" transform="translate(95.410156 0)"/>
     <use xlink:href="#DejaVuSans-Oblique-20" transform="translate(154.589844 0)"/>
     <use xlink:href="#DejaVuSans-Oblique-37" transform="translate(186.376953 0)"/>
     <use xlink:href="#DejaVuSans-Oblique-36" transform="translate(250 0)"/>
     <use xlink:href="#DejaVuSans-Oblique-38" transform="translate(313.623047 0)"/>
    </g>
    <!-- (B x Embed_Dim) -->
    <g style="fill: #555555" transform="translate(477.397805 230.516414) scale(0.075 -0.075)">
     <defs>
      <path id="DejaVuSans-Oblique-45" d="M 1081 4666 
L 4031 4666 
L 3928 4134 
L 1606 4134 
L 1338 2753 
L 3566 2753 
L 3463 2222 
L 1234 2222 
L 909 531 
L 3284 531 
L 3181 0 
L 172 0 
L 1081 4666 
z
" transform="scale(0.015625)"/>
      <path id="DejaVuSans-Oblique-6d" d="M 5747 2113 
L 5338 0 
L 4763 0 
L 5166 2094 
Q 5191 2228 5203 2325 
Q 5216 2422 5216 2491 
Q 5216 2772 5059 2928 
Q 4903 3084 4622 3084 
Q 4203 3084 3875 2770 
Q 3547 2456 3450 1953 
L 3066 0 
L 2491 0 
L 2900 2094 
Q 2925 2209 2937 2307 
Q 2950 2406 2950 2484 
Q 2950 2769 2794 2926 
Q 2638 3084 2363 3084 
Q 1938 3084 1609 2770 
Q 1281 2456 1184 1953 
L 800 0 
L 225 0 
L 909 3500 
L 1484 3500 
L 1375 2956 
Q 1609 3263 1923 3423 
Q 2238 3584 2597 3584 
Q 2978 3584 3223 3384 
Q 3469 3184 3519 2828 
Q 3781 3197 4126 3390 
Q 4472 3584 4856 3584 
Q 5306 3584 5551 3325 
Q 5797 3066 5797 2591 
Q 5797 2488 5784 2364 
Q 5772 2241 5747 2113 
z
" transform="scale(0.015625)"/>
      <path id="DejaVuSans-Oblique-62" d="M 3169 2138 
Q 3169 2591 2961 2847 
Q 2753 3103 2388 3103 
Q 2122 3103 1889 2973 
Q 1656 2844 1484 2597 
Q 1303 2338 1198 1995 
Q 1094 1653 1094 1313 
Q 1094 881 1298 636 
Q 1503 391 1863 391 
Q 2134 391 2365 517 
Q 2597 644 2772 891 
Q 2950 1147 3059 1487 
Q 3169 1828 3169 2138 
z
M 1381 2969 
Q 1594 3256 1914 3420 
Q 2234 3584 2584 3584 
Q 3122 3584 3439 3221 
Q 3756 2859 3756 2241 
Q 3756 1734 3570 1259 
Q 3384 784 3041 416 
Q 2816 172 2522 40 
Q 2228 -91 1906 -91 
Q 1566 -91 1316 65 
Q 1066 222 909 531 
L 806 0 
L 231 0 
L 1178 4863 
L 1753 4863 
L 1381 2969 
z
" transform="scale(0.015625)"/>
      <path id="DejaVuSans-Oblique-65" d="M 3078 2063 
Q 3088 2113 3092 2166 
Q 3097 2219 3097 2272 
Q 3097 2653 2873 2875 
Q 2650 3097 2266 3097 
Q 1838 3097 1509 2826 
Q 1181 2556 1013 2059 
L 3078 2063 
z
M 3578 1613 
L 903 1613 
Q 884 1494 878 1425 
Q 872 1356 872 1306 
Q 872 872 1139 634 
Q 1406 397 1894 397 
Q 2269 397 2603 481 
Q 2938 566 3225 728 
L 3116 159 
Q 2806 34 2476 -28 
Q 2147 -91 1806 -91 
Q 1078 -91 686 257 
Q 294 606 294 1247 
Q 294 1794 489 2264 
Q 684 2734 1063 3103 
Q 1306 3334 1642 3459 
Q 1978 3584 2356 3584 
Q 2950 3584 3301 3228 
Q 3653 2872 3653 2272 
Q 3653 2128 3634 1964 
Q 3616 1800 3578 1613 
z
" transform="scale(0.015625)"/>
      <path id="DejaVuSans-Oblique-64" d="M 2675 525 
Q 2444 222 2128 65 
Q 1813 -91 1428 -91 
Q 903 -91 598 267 
Q 294 625 294 1247 
Q 294 1766 478 2236 
Q 663 2706 1013 3078 
Q 1244 3325 1534 3454 
Q 1825 3584 2144 3584 
Q 2481 3584 2739 3421 
Q 2997 3259 3138 2956 
L 3513 4863 
L 4091 4863 
L 3144 0 
L 2566 0 
L 2675 525 
z
M 891 1350 
Q 891 897 1095 644 
Q 1300 391 1663 391 
Q 1931 391 2161 520 
Q 2391 650 2566 903 
Q 2750 1166 2856 1509 
Q 2963 1853 2963 2188 
Q 2963 2622 2758 2865 
Q 2553 3109 2194 3109 
Q 1922 3109 1687 2981 
Q 1453 2853 1288 2613 
Q 1106 2353 998 2009 
Q 891 1666 891 1350 
z
" transform="scale(0.015625)"/>
      <path id="DejaVuSans-Oblique-5f" d="M 3263 -1063 
L 3263 -1509 
L -63 -1509 
L -63 -1063 
L 3263 -1063 
z
" transform="scale(0.015625)"/>
      <path id="DejaVuSans-Oblique-44" d="M 1081 4666 
L 2438 4666 
Q 3519 4666 4070 4208 
Q 4622 3750 4622 2847 
Q 4622 2250 4412 1698 
Q 4203 1147 3834 769 
Q 3463 381 2891 190 
Q 2319 0 1538 0 
L 172 0 
L 1081 4666 
z
M 1613 4147 
L 909 519 
L 1734 519 
Q 2794 519 3375 1128 
Q 3956 1738 3956 2847 
Q 3956 3519 3581 3833 
Q 3206 4147 2406 4147 
L 1613 4147 
z
" transform="scale(0.015625)"/>
      <path id="DejaVuSans-Oblique-69" d="M 1172 4863 
L 1747 4863 
L 1606 4134 
L 1031 4134 
L 1172 4863 
z
M 909 3500 
L 1484 3500 
L 800 0 
L 225 0 
L 909 3500 
z
" transform="scale(0.015625)"/>
     </defs>
     <use xlink:href="#DejaVuSans-Oblique-28"/>
     <use xlink:href="#DejaVuSans-Oblique-42" transform="translate(39.013672 0)"/>
     <use xlink:href="#DejaVuSans-Oblique-20" transform="translate(107.617188 0)"/>
     <use xlink:href="#DejaVuSans-Oblique-78" transform="translate(139.404297 0)"/>
     <use xlink:href="#DejaVuSans-Oblique-20" transform="translate(198.583984 0)"/>
     <use xlink:href="#DejaVuSans-Oblique-45" transform="translate(230.371094 0)"/>
     <use xlink:href="#DejaVuSans-Oblique-6d" transform="translate(293.554688 0)"/>
     <use xlink:href="#DejaVuSans-Oblique-62" transform="translate(390.966797 0)"/>
     <use xlink:href="#DejaVuSans-Oblique-65" transform="translate(454.443359 0)"/>
     <use xlink:href="#DejaVuSans-Oblique-64" transform="translate(515.966797 0)"/>
     <use xlink:href="#DejaVuSans-Oblique-5f" transform="translate(579.443359 0)"/>
     <use xlink:href="#DejaVuSans-Oblique-44" transform="translate(629.443359 0)"/>
     <use xlink:href="#DejaVuSans-Oblique-69" transform="translate(706.445312 0)"/>
     <use xlink:href="#DejaVuSans-Oblique-6d" transform="translate(734.228516 0)"/>
     <use xlink:href="#DejaVuSans-Oblique-29" transform="translate(831.640625 0)"/>
    </g>
   </g>
   <g id="text_10">
    <!-- Output Class -->
    <g style="fill: #111111" transform="translate(601.390781 169.201336) scale(0.095 -0.095)">
     <use xlink:href="#DejaVuSans-Bold-4f"/>
     <use xlink:href="#DejaVuSans-Bold-75" transform="translate(85.009766 0)"/>
     <use xlink:href="#DejaVuSans-Bold-74" transform="translate(156.201172 0)"/>
     <use xlink:href="#DejaVuSans-Bold-70" transform="translate(204.003906 0)"/>
     <use xlink:href="#DejaVuSans-Bold-75" transform="translate(275.585938 0)"/>
     <use xlink:href="#DejaVuSans-Bold-74" transform="translate(346.777344 0)"/>
     <use xlink:href="#DejaVuSans-Bold-20" transform="translate(394.580078 0)"/>
     <use xlink:href="#DejaVuSans-Bold-43" transform="translate(429.394531 0)"/>
     <use xlink:href="#DejaVuSans-Bold-6c" transform="translate(502.783203 0)"/>
     <use xlink:href="#DejaVuSans-Bold-61" transform="translate(537.060547 0)"/>
     <use xlink:href="#DejaVuSans-Bold-73" transform="translate(604.541016 0)"/>
     <use xlink:href="#DejaVuSans-Bold-73" transform="translate(664.0625 0)"/>
    </g>
    <!-- Logits -->
    <g style="fill: #111111" transform="translate(619.344297 179.839258) scale(0.095 -0.095)">
     <use xlink:href="#DejaVuSans-Bold-4c"/>
     <use xlink:href="#DejaVuSans-Bold-6f" transform="translate(63.720703 0)"/>
     <use xlink:href="#DejaVuSans-Bold-67" transform="translate(132.421875 0)"/>
     <use xlink:href="#DejaVuSans-Bold-69" transform="translate(204.003906 0)"/>
     <use xlink:href="#DejaVuSans-Bold-74" transform="translate(238.28125 0)"/>
     <use xlink:href="#DejaVuSans-Bold-73" transform="translate(286.083984 0)"/>
    </g>
   </g>
   <g id="text_11">
    <!-- 1 x 10 -->
    <g style="fill: #555555" transform="translate(623.999063 222.222352) scale(0.075 -0.075)">
     <defs>
      <path id="DejaVuSans-Oblique-30" d="M 2444 4750 
Q 3078 4750 3414 4328 
Q 3750 3906 3750 3116 
Q 3750 2516 3592 1923 
Q 3434 1331 3150 863 
Q 2859 394 2467 151 
Q 2075 -91 1600 -91 
Q 988 -91 653 334 
Q 319 759 319 1544 
Q 319 2138 480 2733 
Q 641 3328 928 3794 
Q 1216 4263 1602 4506 
Q 1988 4750 2444 4750 
z
M 2406 4250 
Q 2169 4250 1955 4123 
Q 1741 3997 1569 3750 
Q 1281 3338 1111 2720 
Q 941 2103 941 1453 
Q 941 938 1123 673 
Q 1306 409 1663 409 
Q 1913 409 2125 536 
Q 2338 663 2509 909 
Q 2794 1319 2961 1936 
Q 3128 2553 3128 3206 
Q 3128 3722 2945 3986 
Q 2763 4250 2406 4250 
z
" transform="scale(0.015625)"/>
     </defs>
     <use xlink:href="#DejaVuSans-Oblique-31"/>
     <use xlink:href="#DejaVuSans-Oblique-20" transform="translate(63.623047 0)"/>
     <use xlink:href="#DejaVuSans-Oblique-78" transform="translate(95.410156 0)"/>
     <use xlink:href="#DejaVuSans-Oblique-20" transform="translate(154.589844 0)"/>
     <use xlink:href="#DejaVuSans-Oblique-31" transform="translate(186.376953 0)"/>
     <use xlink:href="#DejaVuSans-Oblique-30" transform="translate(250 0)"/>
    </g>
    <!-- (B x Classes) -->
    <g style="fill: #555555" transform="translate(611.531484 230.620711) scale(0.075 -0.075)">
     <defs>
      <path id="DejaVuSans-Oblique-6c" d="M 1172 4863 
L 1747 4863 
L 800 0 
L 225 0 
L 1172 4863 
z
" transform="scale(0.015625)"/>
      <path id="DejaVuSans-Oblique-61" d="M 3438 1997 
L 3047 0 
L 2472 0 
L 2578 531 
Q 2325 219 2001 64 
Q 1678 -91 1281 -91 
Q 834 -91 548 182 
Q 263 456 263 884 
Q 263 1497 752 1853 
Q 1241 2209 2100 2209 
L 2900 2209 
L 2931 2363 
Q 2938 2388 2941 2417 
Q 2944 2447 2944 2509 
Q 2944 2788 2717 2942 
Q 2491 3097 2081 3097 
Q 1800 3097 1504 3025 
Q 1209 2953 897 2809 
L 997 3341 
Q 1322 3463 1633 3523 
Q 1944 3584 2234 3584 
Q 2853 3584 3176 3315 
Q 3500 3047 3500 2534 
Q 3500 2431 3484 2292 
Q 3469 2153 3438 1997 
z
M 2816 1759 
L 2241 1759 
Q 1534 1759 1195 1570 
Q 856 1381 856 984 
Q 856 709 1029 553 
Q 1203 397 1509 397 
Q 1978 397 2328 733 
Q 2678 1069 2791 1631 
L 2816 1759 
z
" transform="scale(0.015625)"/>
      <path id="DejaVuSans-Oblique-73" d="M 3200 3397 
L 3091 2853 
Q 2863 2978 2609 3040 
Q 2356 3103 2088 3103 
Q 1634 3103 1373 2948 
Q 1113 2794 1113 2528 
Q 1113 2219 1719 2053 
Q 1766 2041 1788 2034 
L 1972 1978 
Q 2547 1819 2739 1644 
Q 2931 1469 2931 1166 
Q 2931 609 2489 259 
Q 2047 -91 1331 -91 
Q 1053 -91 747 -37 
Q 441 16 72 128 
L 184 722 
Q 500 559 806 475 
Q 1113 391 1394 391 
Q 1816 391 2080 572 
Q 2344 753 2344 1031 
Q 2344 1331 1650 1516 
L 1591 1531 
L 1394 1581 
Q 956 1697 753 1886 
Q 550 2075 550 2369 
Q 550 2928 970 3256 
Q 1391 3584 2113 3584 
Q 2397 3584 2667 3537 
Q 2938 3491 3200 3397 
z
" transform="scale(0.015625)"/>
     </defs>
     <use xlink:href="#DejaVuSans-Oblique-28"/>
     <use xlink:href="#DejaVuSans-Oblique-42" transform="translate(39.013672 0)"/>
     <use xlink:href="#DejaVuSans-Oblique-20" transform="translate(107.617188 0)"/>
     <use xlink:href="#DejaVuSans-Oblique-78" transform="translate(139.404297 0)"/>
     <use xlink:href="#DejaVuSans-Oblique-20" transform="translate(198.583984 0)"/>
     <use xlink:href="#DejaVuSans-Oblique-43" transform="translate(230.371094 0)"/>
     <use xlink:href="#DejaVuSans-Oblique-6c" transform="translate(300.195312 0)"/>
     <use xlink:href="#DejaVuSans-Oblique-61" transform="translate(327.978516 0)"/>
     <use xlink:href="#DejaVuSans-Oblique-73" transform="translate(389.257812 0)"/>
     <use xlink:href="#DejaVuSans-Oblique-73" transform="translate(441.357422 0)"/>
     <use xlink:href="#DejaVuSans-Oblique-65" transform="translate(493.457031 0)"/>
     <use xlink:href="#DejaVuSans-Oblique-73" transform="translate(554.980469 0)"/>
     <use xlink:href="#DejaVuSans-Oblique-29" transform="translate(607.080078 0)"/>
    </g>
   </g>
   <g id="patch_7">
    <path d="M 141.895204 194.4 
Q 157.356967 194.4 171.141679 194.4 
" style="fill: none; stroke: #1f77b4; stroke-width: 1.5; stroke-linecap: round"/>
    <path d="M 166.341679 192 
L 171.141679 194.4 
L 166.341679 196.8 
z
" style="fill: #1f77b4; stroke: #1f77b4; stroke-width: 1.5; stroke-linecap: round"/>
   </g>
   <g id="patch_8">
    <path d="M 288.561762 194.4 
Q 300.530071 194.4 310.821329 194.4 
" style="fill: none; stroke: #1f77b4; stroke-width: 1.5; stroke-linecap: round"/>
    <path d="M 306.021329 192 
L 310.821329 194.4 
L 306.021329 196.8 
z
" style="fill: #1f77b4; stroke: #1f77b4; stroke-width: 1.5; stroke-linecap: round"/>
   </g>
   <g id="patch_9">
    <path d="M 428.241762 194.4 
Q 440.210071 194.4 450.501329 194.4 
" style="fill: none; stroke: #1f77b4; stroke-width: 1.5; stroke-linecap: round"/>
    <path d="M 445.701329 192 
L 450.501329 194.4 
L 445.701329 196.8 
z
" style="fill: #1f77b4; stroke: #1f77b4; stroke-width: 1.5; stroke-linecap: round"/>
   </g>
   <g id="patch_10">
    <path d="M 567.921762 194.4 
Q 579.890071 194.4 590.181329 194.4 
" style="fill: none; stroke: #1f77b4; stroke-width: 1.5; stroke-linecap: round"/>
    <path d="M 585.381329 192 
L 590.181329 194.4 
L 585.381329 196.8 
z
" style="fill: #1f77b4; stroke: #1f77b4; stroke-width: 1.5; stroke-linecap: round"/>
   </g>
  </g>
 </g>
 <defs>
  <clipPath id="pda7b9f3208">
   <rect x="7.2" y="7.2" width="698.4" height="374.4"/>
  </clipPath>
 </defs>
</svg>
