<?xml version="1.0" encoding="utf-8" standalone="no"?>
<!DOCTYPE svg PUBLIC "-//W3C//DTD SVG 1.1//EN"
  "http://www.w3.org/Graphics/SVG/1.1/DTD/svg11.dtd">
<svg xmlns:xlink="http://www.w3.org/1999/xlink" width="492.841125pt" height="312.856406pt" viewBox="0 0 492.841125 312.856406" xmlns="http://www.w3.org/2000/svg" version="1.1">
 <metadata>
  <rdf:RDF xmlns:dc="http://purl.org/dc/elements/1.1/" xmlns:cc="http://creativecommons.org/ns#" xmlns:rdf="http://www.w3.org/1999/02/22-rdf-syntax-ns#">
   <cc:Work>
    <dc:type rdf:resource="http://purl.org/dc/dcmitype/StillImage"/>
    <dc:date>2026-07-07T07:11:42.619668</dc:date>
    <dc:format>image/svg+xml</dc:format>
    <dc:creator>
     <cc:Agent>
      <dc:title>Matplotlib v3.10.9, https://matplotlib.org/</dc:title>
     </cc:Agent>
    </dc:creator>
   </cc:Work>
  </rdf:RDF>
 </metadata>
 <defs>
  <style type="text/css">*{stroke-linejoin: round; stroke-linecap: butt}</style>
 </defs>
 <g id="figure_1">
  <g id="patch_1">
   <path d="M 0 312.856406 
L 492.841125 312.856406 
L 492.841125 0 
L 0 0 
z
" style="fill: #ffffff"/>
  </g>
  <g id="axes_1">
   <g id="patch_2">
    <path d="M 45.003125 275.278281 
L 485.641125 275.278281 
L 485.641125 21.558281 
L 45.003125 21.558281 
z
" style="fill: #ffffff"/>
   </g>
   <g id="matplotlib.axis_1">
    <g id="xtick_1">
     <g id="line2d_1">
      <path d="M 65.032125 275.278281 
L 65.032125 21.558281 
" clip-path="url(#pf8bbf4578e)" style="fill: none; stroke-dasharray: 0.8,1.32; stroke-dashoffset: 0; stroke: #b0b0b0; stroke-width: 0.8"/>
     </g>
     <g id="line2d_2">
      <defs>
       <path id="mbd49ac4287" d="M 0 0 
L 0 3.5 
" style="stroke: #111111; stroke-width: 0.8"/>
      </defs>
      <g>
       <use xlink:href="#mbd49ac4287" x="65.032125" y="275.278281" style="fill: #111111; stroke: #111111; stroke-width: 0.8"/>
      </g>
     </g>
     <g id="text_1">
      <!-- 1 -->
      <g style="fill: #111111" transform="translate(61.850875 289.876719) scale(0.1 -0.1)">
       <defs>
        <path id="DejaVuSans-31" d="M 794 531 
L 1825 531 
L 1825 4091 
L 703 3866 
L 703 4441 
L 1819 4666 
L 2450 4666 
L 2450 531 
L 3481 531 
L 3481 0 
L 794 0 
L 794 531 
z
" transform="scale(0.015625)"/>
       </defs>
       <use xlink:href="#DejaVuSans-31"/>
      </g>
     </g>
    </g>
    <g id="xtick_2">
     <g id="line2d_3">
      <path d="M 165.177125 275.278281 
L 165.177125 21.558281 
" clip-path="url(#pf8bbf4578e)" style="fill: none; stroke-dasharray: 0.8,1.32; stroke-dashoffset: 0; stroke: #b0b0b0; stroke-width: 0.8"/>
     </g>
     <g id="line2d_4">
      <g>
       <use xlink:href="#mbd49ac4287" x="165.177125" y="275.278281" style="fill: #111111; stroke: #111111; stroke-width: 0.8"/>
      </g>
     </g>
     <g id="text_2">
      <!-- 2 -->
      <g style="fill: #111111" transform="translate(161.995875 289.876719) scale(0.1 -0.1)">
       <defs>
        <path id="DejaVuSans-32" d="M 1228 531 
L 3431 531 
L 3431 0 
L 469 0 
L 469 531 
Q 828 903 1448 1529 
Q 2069 2156 2228 2338 
Q 2531 2678 2651 2914 
Q 2772 3150 2772 3378 
Q 2772 3750 2511 3984 
Q 2250 4219 1831 4219 
Q 1534 4219 1204 4116 
Q 875 4013 500 3803 
L 500 4441 
Q 881 4594 1212 4672 
Q 1544 4750 1819 4750 
Q 2544 4750 2975 4387 
Q 3406 4025 3406 3419 
Q 3406 3131 3298 2873 
Q 3191 2616 2906 2266 
Q 2828 2175 2409 1742 
Q 1991 1309 1228 531 
z
" transform="scale(0.015625)"/>
       </defs>
       <use xlink:href="#DejaVuSans-32"/>
      </g>
     </g>
    </g>
    <g id="xtick_3">
     <g id="line2d_5">
      <path d="M 265.322125 275.278281 
L 265.322125 21.558281 
" clip-path="url(#pf8bbf4578e)" style="fill: none; stroke-dasharray: 0.8,1.32; stroke-dashoffset: 0; stroke: #b0b0b0; stroke-width: 0.8"/>
     </g>
     <g id="line2d_6">
      <g>
       <use xlink:href="#mbd49ac4287" x="265.322125" y="275.278281" style="fill: #111111; stroke: #111111; stroke-width: 0.8"/>
      </g>
     </g>
     <g id="text_3">
      <!-- 3 -->
      <g style="fill: #111111" transform="translate(262.140875 289.876719) scale(0.1 -0.1)">
       <defs>
        <path id="DejaVuSans-33" d="M 2597 2516 
Q 3050 2419 3304 2112 
Q 3559 1806 3559 1356 
Q 3559 666 3084 287 
Q 2609 -91 1734 -91 
Q 1441 -91 1130 -33 
Q 819 25 488 141 
L 488 750 
Q 750 597 1062 519 
Q 1375 441 1716 441 
Q 2309 441 2620 675 
Q 2931 909 2931 1356 
Q 2931 1769 2642 2001 
Q 2353 2234 1838 2234 
L 1294 2234 
L 1294 2753 
L 1863 2753 
Q 2328 2753 2575 2939 
Q 2822 3125 2822 3475 
Q 2822 3834 2567 4026 
Q 2313 4219 1838 4219 
Q 1578 4219 1281 4162 
Q 984 4106 628 3988 
L 628 4550 
Q 988 4650 1302 4700 
Q 1616 4750 1894 4750 
Q 2613 4750 3031 4423 
Q 3450 4097 3450 3541 
Q 3450 3153 3228 2886 
Q 3006 2619 2597 2516 
z
" transform="scale(0.015625)"/>
       </defs>
       <use xlink:href="#DejaVuSans-33"/>
      </g>
     </g>
    </g>
    <g id="xtick_4">
     <g id="line2d_7">
      <path d="M 365.467125 275.278281 
L 365.467125 21.558281 
" clip-path="url(#pf8bbf4578e)" style="fill: none; stroke-dasharray: 0.8,1.32; stroke-dashoffset: 0; stroke: #b0b0b0; stroke-width: 0.8"/>
     </g>
     <g id="line2d_8">
      <g>
       <use xlink:href="#mbd49ac4287" x="365.467125" y="275.278281" style="fill: #111111; stroke: #111111; stroke-width: 0.8"/>
      </g>
     </g>
     <g id="text_4">
      <!-- 4 -->
      <g style="fill: #111111" transform="translate(362.285875 289.876719) scale(0.1 -0.1)">
       <defs>
        <path id="DejaVuSans-34" d="M 2419 4116 
L 825 1625 
L 2419 1625 
L 2419 4116 
z
M 2253 4666 
L 3047 4666 
L 3047 1625 
L 3713 1625 
L 3713 1100 
L 3047 1100 
L 3047 0 
L 2419 0 
L 2419 1100 
L 313 1100 
L 313 1709 
L 2253 4666 
z
" transform="scale(0.015625)"/>
       </defs>
       <use xlink:href="#DejaVuSans-34"/>
      </g>
     </g>
    </g>
    <g id="xtick_5">
     <g id="line2d_9">
      <path d="M 465.612125 275.278281 
L 465.612125 21.558281 
" clip-path="url(#pf8bbf4578e)" style="fill: none; stroke-dasharray: 0.8,1.32; stroke-dashoffset: 0; stroke: #b0b0b0; stroke-width: 0.8"/>
     </g>
     <g id="line2d_10">
      <g>
       <use xlink:href="#mbd49ac4287" x="465.612125" y="275.278281" style="fill: #111111; stroke: #111111; stroke-width: 0.8"/>
      </g>
     </g>
     <g id="text_5">
      <!-- 5 -->
      <g style="fill: #111111" transform="translate(462.430875 289.876719) scale(0.1 -0.1)">
       <defs>
        <path id="DejaVuSans-35" d="M 691 4666 
L 3169 4666 
L 3169 4134 
L 1269 4134 
L 1269 2991 
Q 1406 3038 1543 3061 
Q 1681 3084 1819 3084 
Q 2600 3084 3056 2656 
Q 3513 2228 3513 1497 
Q 3513 744 3044 326 
Q 2575 -91 1722 -91 
Q 1428 -91 1123 -41 
Q 819 9 494 109 
L 494 744 
Q 775 591 1075 516 
Q 1375 441 1709 441 
Q 2250 441 2565 725 
Q 2881 1009 2881 1497 
Q 2881 1984 2565 2268 
Q 2250 2553 1709 2553 
Q 1456 2553 1204 2497 
Q 953 2441 691 2322 
L 691 4666 
z
" transform="scale(0.015625)"/>
       </defs>
       <use xlink:href="#DejaVuSans-35"/>
      </g>
     </g>
    </g>
    <g id="text_6">
     <!-- Recurrent Inference Step (Iteration $t$) -->
     <g style="fill: #111111" transform="translate(172.072125 303.556406) scale(0.1 -0.1)">
      <defs>
       <path id="DejaVuSans-52" d="M 2841 2188 
Q 3044 2119 3236 1894 
Q 3428 1669 3622 1275 
L 4263 0 
L 3584 0 
L 2988 1197 
Q 2756 1666 2539 1819 
Q 2322 1972 1947 1972 
L 1259 1972 
L 1259 0 
L 628 0 
L 628 4666 
L 2053 4666 
Q 2853 4666 3247 4331 
Q 3641 3997 3641 3322 
Q 3641 2881 3436 2590 
Q 3231 2300 2841 2188 
z
M 1259 4147 
L 1259 2491 
L 2053 2491 
Q 2509 2491 2742 2702 
Q 2975 2913 2975 3322 
Q 2975 3731 2742 3939 
Q 2509 4147 2053 4147 
L 1259 4147 
z
" transform="scale(0.015625)"/>
       <path id="DejaVuSans-65" d="M 3597 1894 
L 3597 1613 
L 953 1613 
Q 991 1019 1311 708 
Q 1631 397 2203 397 
Q 2534 397 2845 478 
Q 3156 559 3463 722 
L 3463 178 
Q 3153 47 2828 -22 
Q 2503 -91 2169 -91 
Q 1331 -91 842 396 
Q 353 884 353 1716 
Q 353 2575 817 3079 
Q 1281 3584 2069 3584 
Q 2775 3584 3186 3129 
Q 3597 2675 3597 1894 
z
M 3022 2063 
Q 3016 2534 2758 2815 
Q 2500 3097 2075 3097 
Q 1594 3097 1305 2825 
Q 1016 2553 972 2059 
L 3022 2063 
z
" transform="scale(0.015625)"/>
       <path id="DejaVuSans-63" d="M 3122 3366 
L 3122 2828 
Q 2878 2963 2633 3030 
Q 2388 3097 2138 3097 
Q 1578 3097 1268 2742 
Q 959 2388 959 1747 
Q 959 1106 1268 751 
Q 1578 397 2138 397 
Q 2388 397 2633 464 
Q 2878 531 3122 666 
L 3122 134 
Q 2881 22 2623 -34 
Q 2366 -91 2075 -91 
Q 1284 -91 818 406 
Q 353 903 353 1747 
Q 353 2603 823 3093 
Q 1294 3584 2113 3584 
Q 2378 3584 2631 3529 
Q 2884 3475 3122 3366 
z
" transform="scale(0.015625)"/>
       <path id="DejaVuSans-75" d="M 544 1381 
L 544 3500 
L 1119 3500 
L 1119 1403 
Q 1119 906 1312 657 
Q 1506 409 1894 409 
Q 2359 409 2629 706 
Q 2900 1003 2900 1516 
L 2900 3500 
L 3475 3500 
L 3475 0 
L 2900 0 
L 2900 538 
Q 2691 219 2414 64 
Q 2138 -91 1772 -91 
Q 1169 -91 856 284 
Q 544 659 544 1381 
z
M 1991 3584 
L 1991 3584 
z
" transform="scale(0.015625)"/>
       <path id="DejaVuSans-72" d="M 2631 2963 
Q 2534 3019 2420 3045 
Q 2306 3072 2169 3072 
Q 1681 3072 1420 2755 
Q 1159 2438 1159 1844 
L 1159 0 
L 581 0 
L 581 3500 
L 1159 3500 
L 1159 2956 
Q 1341 3275 1631 3429 
Q 1922 3584 2338 3584 
Q 2397 3584 2469 3576 
Q 2541 3569 2628 3553 
L 2631 2963 
z
" transform="scale(0.015625)"/>
       <path id="DejaVuSans-6e" d="M 3513 2113 
L 3513 0 
L 2938 0 
L 2938 2094 
Q 2938 2591 2744 2837 
Q 2550 3084 2163 3084 
Q 1697 3084 1428 2787 
Q 1159 2491 1159 1978 
L 1159 0 
L 581 0 
L 581 3500 
L 1159 3500 
L 1159 2956 
Q 1366 3272 1645 3428 
Q 1925 3584 2291 3584 
Q 2894 3584 3203 3211 
Q 3513 2838 3513 2113 
z
" transform="scale(0.015625)"/>
       <path id="DejaVuSans-74" d="M 1172 4494 
L 1172 3500 
L 2356 3500 
L 2356 3053 
L 1172 3053 
L 1172 1153 
Q 1172 725 1289 603 
Q 1406 481 1766 481 
L 2356 481 
L 2356 0 
L 1766 0 
Q 1100 0 847 248 
Q 594 497 594 1153 
L 594 3053 
L 172 3053 
L 172 3500 
L 594 3500 
L 594 4494 
L 1172 4494 
z
" transform="scale(0.015625)"/>
       <path id="DejaVuSans-20" transform="scale(0.015625)"/>
       <path id="DejaVuSans-49" d="M 628 4666 
L 1259 4666 
L 1259 0 
L 628 0 
L 628 4666 
z
" transform="scale(0.015625)"/>
       <path id="DejaVuSans-66" d="M 2375 4863 
L 2375 4384 
L 1825 4384 
Q 1516 4384 1395 4259 
Q 1275 4134 1275 3809 
L 1275 3500 
L 2222 3500 
L 2222 3053 
L 1275 3053 
L 1275 0 
L 697 0 
L 697 3053 
L 147 3053 
L 147 3500 
L 697 3500 
L 697 3744 
Q 697 4328 969 4595 
Q 1241 4863 1831 4863 
L 2375 4863 
z
" transform="scale(0.015625)"/>
       <path id="DejaVuSans-53" d="M 3425 4513 
L 3425 3897 
Q 3066 4069 2747 4153 
Q 2428 4238 2131 4238 
Q 1616 4238 1336 4038 
Q 1056 3838 1056 3469 
Q 1056 3159 1242 3001 
Q 1428 2844 1947 2747 
L 2328 2669 
Q 3034 2534 3370 2195 
Q 3706 1856 3706 1288 
Q 3706 609 3251 259 
Q 2797 -91 1919 -91 
Q 1588 -91 1214 -16 
Q 841 59 441 206 
L 441 856 
Q 825 641 1194 531 
Q 1563 422 1919 422 
Q 2459 422 2753 634 
Q 3047 847 3047 1241 
Q 3047 1584 2836 1778 
Q 2625 1972 2144 2069 
L 1759 2144 
Q 1053 2284 737 2584 
Q 422 2884 422 3419 
Q 422 4038 858 4394 
Q 1294 4750 2059 4750 
Q 2388 4750 2728 4690 
Q 3069 4631 3425 4513 
z
" transform="scale(0.015625)"/>
       <path id="DejaVuSans-70" d="M 1159 525 
L 1159 -1331 
L 581 -1331 
L 581 3500 
L 1159 3500 
L 1159 2969 
Q 1341 3281 1617 3432 
Q 1894 3584 2278 3584 
Q 2916 3584 3314 3078 
Q 3713 2572 3713 1747 
Q 3713 922 3314 415 
Q 2916 -91 2278 -91 
Q 1894 -91 1617 61 
Q 1341 213 1159 525 
z
M 3116 1747 
Q 3116 2381 2855 2742 
Q 2594 3103 2138 3103 
Q 1681 3103 1420 2742 
Q 1159 2381 1159 1747 
Q 1159 1113 1420 752 
Q 1681 391 2138 391 
Q 2594 391 2855 752 
Q 3116 1113 3116 1747 
z
" transform="scale(0.015625)"/>
       <path id="DejaVuSans-28" d="M 1984 4856 
Q 1566 4138 1362 3434 
Q 1159 2731 1159 2009 
Q 1159 1288 1364 580 
Q 1569 -128 1984 -844 
L 1484 -844 
Q 1016 -109 783 600 
Q 550 1309 550 2009 
Q 550 2706 781 3412 
Q 1013 4119 1484 4856 
L 1984 4856 
z
" transform="scale(0.015625)"/>
       <path id="DejaVuSans-61" d="M 2194 1759 
Q 1497 1759 1228 1600 
Q 959 1441 959 1056 
Q 959 750 1161 570 
Q 1363 391 1709 391 
Q 2188 391 2477 730 
Q 2766 1069 2766 1631 
L 2766 1759 
L 2194 1759 
z
M 3341 1997 
L 3341 0 
L 2766 0 
L 2766 531 
Q 2569 213 2275 61 
Q 1981 -91 1556 -91 
Q 1019 -91 701 211 
Q 384 513 384 1019 
Q 384 1609 779 1909 
Q 1175 2209 1959 2209 
L 2766 2209 
L 2766 2266 
Q 2766 2663 2505 2880 
Q 2244 3097 1772 3097 
Q 1472 3097 1187 3025 
Q 903 2953 641 2809 
L 641 3341 
Q 956 3463 1253 3523 
Q 1550 3584 1831 3584 
Q 2591 3584 2966 3190 
Q 3341 2797 3341 1997 
z
" transform="scale(0.015625)"/>
       <path id="DejaVuSans-69" d="M 603 3500 
L 1178 3500 
L 1178 0 
L 603 0 
L 603 3500 
z
M 603 4863 
L 1178 4863 
L 1178 4134 
L 603 4134 
L 603 4863 
z
" transform="scale(0.015625)"/>
       <path id="DejaVuSans-6f" d="M 1959 3097 
Q 1497 3097 1228 2736 
Q 959 2375 959 1747 
Q 959 1119 1226 758 
Q 1494 397 1959 397 
Q 2419 397 2687 759 
Q 2956 1122 2956 1747 
Q 2956 2369 2687 2733 
Q 2419 3097 1959 3097 
z
M 1959 3584 
Q 2709 3584 3137 3096 
Q 3566 2609 3566 1747 
Q 3566 888 3137 398 
Q 2709 -91 1959 -91 
Q 1206 -91 779 398 
Q 353 888 353 1747 
Q 353 2609 779 3096 
Q 1206 3584 1959 3584 
z
" transform="scale(0.015625)"/>
       <path id="DejaVuSans-Oblique-74" d="M 2706 3500 
L 2619 3053 
L 1472 3053 
L 1100 1153 
Q 1081 1047 1072 975 
Q 1063 903 1063 863 
Q 1063 663 1183 572 
Q 1303 481 1569 481 
L 2150 481 
L 2053 0 
L 1503 0 
Q 991 0 739 200 
Q 488 400 488 806 
Q 488 878 497 964 
Q 506 1050 525 1153 
L 897 3053 
L 409 3053 
L 500 3500 
L 978 3500 
L 1172 4494 
L 1747 4494 
L 1556 3500 
L 2706 3500 
z
" transform="scale(0.015625)"/>
       <path id="DejaVuSans-29" d="M 513 4856 
L 1013 4856 
Q 1481 4119 1714 3412 
Q 1947 2706 1947 2009 
Q 1947 1309 1714 600 
Q 1481 -109 1013 -844 
L 513 -844 
Q 928 -128 1133 580 
Q 1338 1288 1338 2009 
Q 1338 2731 1133 3434 
Q 928 4138 513 4856 
z
" transform="scale(0.015625)"/>
      </defs>
      <use xlink:href="#DejaVuSans-52" transform="translate(0 0.015625)"/>
      <use xlink:href="#DejaVuSans-65" transform="translate(69.482422 0.015625)"/>
      <use xlink:href="#DejaVuSans-63" transform="translate(131.005859 0.015625)"/>
      <use xlink:href="#DejaVuSans-75" transform="translate(185.986328 0.015625)"/>
      <use xlink:href="#DejaVuSans-72" transform="translate(249.365234 0.015625)"/>
      <use xlink:href="#DejaVuSans-72" transform="translate(290.478516 0.015625)"/>
      <use xlink:href="#DejaVuSans-65" transform="translate(331.591797 0.015625)"/>
      <use xlink:href="#DejaVuSans-6e" transform="translate(393.115234 0.015625)"/>
      <use xlink:href="#DejaVuSans-74" transform="translate(456.494141 0.015625)"/>
      <use xlink:href="#DejaVuSans-20" transform="translate(495.703125 0.015625)"/>
      <use xlink:href="#DejaVuSans-49" transform="translate(527.490234 0.015625)"/>
      <use xlink:href="#DejaVuSans-6e" transform="translate(556.982422 0.015625)"/>
      <use xlink:href="#DejaVuSans-66" transform="translate(620.361328 0.015625)"/>
      <use xlink:href="#DejaVuSans-65" transform="translate(655.566406 0.015625)"/>
      <use xlink:href="#DejaVuSans-72" transform="translate(717.089844 0.015625)"/>
      <use xlink:href="#DejaVuSans-65" transform="translate(758.203125 0.015625)"/>
      <use xlink:href="#DejaVuSans-6e" transform="translate(819.726562 0.015625)"/>
      <use xlink:href="#DejaVuSans-63" transform="translate(883.105469 0.015625)"/>
      <use xlink:href="#DejaVuSans-65" transform="translate(938.085938 0.015625)"/>
      <use xlink:href="#DejaVuSans-20" transform="translate(999.609375 0.015625)"/>
      <use xlink:href="#DejaVuSans-53" transform="translate(1031.396484 0.015625)"/>
      <use xlink:href="#DejaVuSans-74" transform="translate(1094.873047 0.015625)"/>
      <use xlink:href="#DejaVuSans-65" transform="translate(1134.082031 0.015625)"/>
      <use xlink:href="#DejaVuSans-70" transform="translate(1195.605469 0.015625)"/>
      <use xlink:href="#DejaVuSans-20" transform="translate(1259.082031 0.015625)"/>
      <use xlink:href="#DejaVuSans-28" transform="translate(1290.869141 0.015625)"/>
      <use xlink:href="#DejaVuSans-49" transform="translate(1329.882812 0.015625)"/>
      <use xlink:href="#DejaVuSans-74" transform="translate(1359.375 0.015625)"/>
      <use xlink:href="#DejaVuSans-65" transform="translate(1398.583984 0.015625)"/>
      <use xlink:href="#DejaVuSans-72" transform="translate(1460.107422 0.015625)"/>
      <use xlink:href="#DejaVuSans-61" transform="translate(1501.220703 0.015625)"/>
      <use xlink:href="#DejaVuSans-74" transform="translate(1562.5 0.015625)"/>
      <use xlink:href="#DejaVuSans-69" transform="translate(1601.708984 0.015625)"/>
      <use xlink:href="#DejaVuSans-6f" transform="translate(1629.492188 0.015625)"/>
      <use xlink:href="#DejaVuSans-6e" transform="translate(1690.673828 0.015625)"/>
      <use xlink:href="#DejaVuSans-20" transform="translate(1754.052734 0.015625)"/>
      <use xlink:href="#DejaVuSans-Oblique-74" transform="translate(1785.839844 0.015625)"/>
      <use xlink:href="#DejaVuSans-29" transform="translate(1825.048828 0.015625)"/>
     </g>
    </g>
   </g>
   <g id="matplotlib.axis_2">
    <g id="ytick_1">
     <g id="line2d_11">
      <path d="M 45.003125 272.786842 
L 485.641125 272.786842 
" clip-path="url(#pf8bbf4578e)" style="fill: none; stroke-dasharray: 0.8,1.32; stroke-dashoffset: 0; stroke: #b0b0b0; stroke-width: 0.8"/>
     </g>
     <g id="line2d_12">
      <defs>
       <path id="m9dcd9e914a" d="M 0 0 
L -3.5 0 
" style="stroke: #111111; stroke-width: 0.8"/>
      </defs>
      <g>
       <use xlink:href="#m9dcd9e914a" x="45.003125" y="272.786842" style="fill: #111111; stroke: #111111; stroke-width: 0.8"/>
      </g>
     </g>
     <g id="text_7">
      <!-- 0.0 -->
      <g style="fill: #111111" transform="translate(22.1 276.586061) scale(0.1 -0.1)">
       <defs>
        <path id="DejaVuSans-30" d="M 2034 4250 
Q 1547 4250 1301 3770 
Q 1056 3291 1056 2328 
Q 1056 1369 1301 889 
Q 1547 409 2034 409 
Q 2525 409 2770 889 
Q 3016 1369 3016 2328 
Q 3016 3291 2770 3770 
Q 2525 4250 2034 4250 
z
M 2034 4750 
Q 2819 4750 3233 4129 
Q 3647 3509 3647 2328 
Q 3647 1150 3233 529 
Q 2819 -91 2034 -91 
Q 1250 -91 836 529 
Q 422 1150 422 2328 
Q 422 3509 836 4129 
Q 1250 4750 2034 4750 
z
" transform="scale(0.015625)"/>
        <path id="DejaVuSans-2e" d="M 684 794 
L 1344 794 
L 1344 0 
L 684 0 
L 684 794 
z
" transform="scale(0.015625)"/>
       </defs>
       <use xlink:href="#DejaVuSans-30"/>
       <use xlink:href="#DejaVuSans-2e" transform="translate(63.623047 0)"/>
       <use xlink:href="#DejaVuSans-30" transform="translate(95.410156 0)"/>
      </g>
     </g>
    </g>
    <g id="ytick_2">
     <g id="line2d_13">
      <path d="M 45.003125 243.809785 
L 485.641125 243.809785 
" clip-path="url(#pf8bbf4578e)" style="fill: none; stroke-dasharray: 0.8,1.32; stroke-dashoffset: 0; stroke: #b0b0b0; stroke-width: 0.8"/>
     </g>
     <g id="line2d_14">
      <g>
       <use xlink:href="#m9dcd9e914a" x="45.003125" y="243.809785" style="fill: #111111; stroke: #111111; stroke-width: 0.8"/>
      </g>
     </g>
     <g id="text_8">
      <!-- 0.2 -->
      <g style="fill: #111111" transform="translate(22.1 247.609004) scale(0.1 -0.1)">
       <use xlink:href="#DejaVuSans-30"/>
       <use xlink:href="#DejaVuSans-2e" transform="translate(63.623047 0)"/>
       <use xlink:href="#DejaVuSans-32" transform="translate(95.410156 0)"/>
      </g>
     </g>
    </g>
    <g id="ytick_3">
     <g id="line2d_15">
      <path d="M 45.003125 214.832728 
L 485.641125 214.832728 
" clip-path="url(#pf8bbf4578e)" style="fill: none; stroke-dasharray: 0.8,1.32; stroke-dashoffset: 0; stroke: #b0b0b0; stroke-width: 0.8"/>
     </g>
     <g id="line2d_16">
      <g>
       <use xlink:href="#m9dcd9e914a" x="45.003125" y="214.832728" style="fill: #111111; stroke: #111111; stroke-width: 0.8"/>
      </g>
     </g>
     <g id="text_9">
      <!-- 0.4 -->
      <g style="fill: #111111" transform="translate(22.1 218.631947) scale(0.1 -0.1)">
       <use xlink:href="#DejaVuSans-30"/>
       <use xlink:href="#DejaVuSans-2e" transform="translate(63.623047 0)"/>
       <use xlink:href="#DejaVuSans-34" transform="translate(95.410156 0)"/>
      </g>
     </g>
    </g>
    <g id="ytick_4">
     <g id="line2d_17">
      <path d="M 45.003125 185.855671 
L 485.641125 185.855671 
" clip-path="url(#pf8bbf4578e)" style="fill: none; stroke-dasharray: 0.8,1.32; stroke-dashoffset: 0; stroke: #b0b0b0; stroke-width: 0.8"/>
     </g>
     <g id="line2d_18">
      <g>
       <use xlink:href="#m9dcd9e914a" x="45.003125" y="185.855671" style="fill: #111111; stroke: #111111; stroke-width: 0.8"/>
      </g>
     </g>
     <g id="text_10">
      <!-- 0.6 -->
      <g style="fill: #111111" transform="translate(22.1 189.65489) scale(0.1 -0.1)">
       <defs>
        <path id="DejaVuSans-36" d="M 2113 2584 
Q 1688 2584 1439 2293 
Q 1191 2003 1191 1497 
Q 1191 994 1439 701 
Q 1688 409 2113 409 
Q 2538 409 2786 701 
Q 3034 994 3034 1497 
Q 3034 2003 2786 2293 
Q 2538 2584 2113 2584 
z
M 3366 4563 
L 3366 3988 
Q 3128 4100 2886 4159 
Q 2644 4219 2406 4219 
Q 1781 4219 1451 3797 
Q 1122 3375 1075 2522 
Q 1259 2794 1537 2939 
Q 1816 3084 2150 3084 
Q 2853 3084 3261 2657 
Q 3669 2231 3669 1497 
Q 3669 778 3244 343 
Q 2819 -91 2113 -91 
Q 1303 -91 875 529 
Q 447 1150 447 2328 
Q 447 3434 972 4092 
Q 1497 4750 2381 4750 
Q 2619 4750 2861 4703 
Q 3103 4656 3366 4563 
z
" transform="scale(0.015625)"/>
       </defs>
       <use xlink:href="#DejaVuSans-30"/>
       <use xlink:href="#DejaVuSans-2e" transform="translate(63.623047 0)"/>
       <use xlink:href="#DejaVuSans-36" transform="translate(95.410156 0)"/>
      </g>
     </g>
    </g>
    <g id="ytick_5">
     <g id="line2d_19">
      <path d="M 45.003125 156.878614 
L 485.641125 156.878614 
" clip-path="url(#pf8bbf4578e)" style="fill: none; stroke-dasharray: 0.8,1.32; stroke-dashoffset: 0; stroke: #b0b0b0; stroke-width: 0.8"/>
     </g>
     <g id="line2d_20">
      <g>
       <use xlink:href="#m9dcd9e914a" x="45.003125" y="156.878614" style="fill: #111111; stroke: #111111; stroke-width: 0.8"/>
      </g>
     </g>
     <g id="text_11">
      <!-- 0.8 -->
      <g style="fill: #111111" transform="translate(22.1 160.677832) scale(0.1 -0.1)">
       <defs>
        <path id="DejaVuSans-38" d="M 2034 2216 
Q 1584 2216 1326 1975 
Q 1069 1734 1069 1313 
Q 1069 891 1326 650 
Q 1584 409 2034 409 
Q 2484 409 2743 651 
Q 3003 894 3003 1313 
Q 3003 1734 2745 1975 
Q 2488 2216 2034 2216 
z
M 1403 2484 
Q 997 2584 770 2862 
Q 544 3141 544 3541 
Q 544 4100 942 4425 
Q 1341 4750 2034 4750 
Q 2731 4750 3128 4425 
Q 3525 4100 3525 3541 
Q 3525 3141 3298 2862 
Q 3072 2584 2669 2484 
Q 3125 2378 3379 2068 
Q 3634 1759 3634 1313 
Q 3634 634 3220 271 
Q 2806 -91 2034 -91 
Q 1263 -91 848 271 
Q 434 634 434 1313 
Q 434 1759 690 2068 
Q 947 2378 1403 2484 
z
M 1172 3481 
Q 1172 3119 1398 2916 
Q 1625 2713 2034 2713 
Q 2441 2713 2670 2916 
Q 2900 3119 2900 3481 
Q 2900 3844 2670 4047 
Q 2441 4250 2034 4250 
Q 1625 4250 1398 4047 
Q 1172 3844 1172 3481 
z
" transform="scale(0.015625)"/>
       </defs>
       <use xlink:href="#DejaVuSans-30"/>
       <use xlink:href="#DejaVuSans-2e" transform="translate(63.623047 0)"/>
       <use xlink:href="#DejaVuSans-38" transform="translate(95.410156 0)"/>
      </g>
     </g>
    </g>
    <g id="ytick_6">
     <g id="line2d_21">
      <path d="M 45.003125 127.901557 
L 485.641125 127.901557 
" clip-path="url(#pf8bbf4578e)" style="fill: none; stroke-dasharray: 0.8,1.32; stroke-dashoffset: 0; stroke: #b0b0b0; stroke-width: 0.8"/>
     </g>
     <g id="line2d_22">
      <g>
       <use xlink:href="#m9dcd9e914a" x="45.003125" y="127.901557" style="fill: #111111; stroke: #111111; stroke-width: 0.8"/>
      </g>
     </g>
     <g id="text_12">
      <!-- 1.0 -->
      <g style="fill: #111111" transform="translate(22.1 131.700775) scale(0.1 -0.1)">
       <use xlink:href="#DejaVuSans-31"/>
       <use xlink:href="#DejaVuSans-2e" transform="translate(63.623047 0)"/>
       <use xlink:href="#DejaVuSans-30" transform="translate(95.410156 0)"/>
      </g>
     </g>
    </g>
    <g id="ytick_7">
     <g id="line2d_23">
      <path d="M 45.003125 98.924499 
L 485.641125 98.924499 
" clip-path="url(#pf8bbf4578e)" style="fill: none; stroke-dasharray: 0.8,1.32; stroke-dashoffset: 0; stroke: #b0b0b0; stroke-width: 0.8"/>
     </g>
     <g id="line2d_24">
      <g>
       <use xlink:href="#m9dcd9e914a" x="45.003125" y="98.924499" style="fill: #111111; stroke: #111111; stroke-width: 0.8"/>
      </g>
     </g>
     <g id="text_13">
      <!-- 1.2 -->
      <g style="fill: #111111" transform="translate(22.1 102.723718) scale(0.1 -0.1)">
       <use xlink:href="#DejaVuSans-31"/>
       <use xlink:href="#DejaVuSans-2e" transform="translate(63.623047 0)"/>
       <use xlink:href="#DejaVuSans-32" transform="translate(95.410156 0)"/>
      </g>
     </g>
    </g>
    <g id="ytick_8">
     <g id="line2d_25">
      <path d="M 45.003125 69.947442 
L 485.641125 69.947442 
" clip-path="url(#pf8bbf4578e)" style="fill: none; stroke-dasharray: 0.8,1.32; stroke-dashoffset: 0; stroke: #b0b0b0; stroke-width: 0.8"/>
     </g>
     <g id="line2d_26">
      <g>
       <use xlink:href="#m9dcd9e914a" x="45.003125" y="69.947442" style="fill: #111111; stroke: #111111; stroke-width: 0.8"/>
      </g>
     </g>
     <g id="text_14">
      <!-- 1.4 -->
      <g style="fill: #111111" transform="translate(22.1 73.746661) scale(0.1 -0.1)">
       <use xlink:href="#DejaVuSans-31"/>
       <use xlink:href="#DejaVuSans-2e" transform="translate(63.623047 0)"/>
       <use xlink:href="#DejaVuSans-34" transform="translate(95.410156 0)"/>
      </g>
     </g>
    </g>
    <g id="ytick_9">
     <g id="line2d_27">
      <path d="M 45.003125 40.970385 
L 485.641125 40.970385 
" clip-path="url(#pf8bbf4578e)" style="fill: none; stroke-dasharray: 0.8,1.32; stroke-dashoffset: 0; stroke: #b0b0b0; stroke-width: 0.8"/>
     </g>
     <g id="line2d_28">
      <g>
       <use xlink:href="#m9dcd9e914a" x="45.003125" y="40.970385" style="fill: #111111; stroke: #111111; stroke-width: 0.8"/>
      </g>
     </g>
     <g id="text_15">
      <!-- 1.6 -->
      <g style="fill: #111111" transform="translate(22.1 44.769604) scale(0.1 -0.1)">
       <use xlink:href="#DejaVuSans-31"/>
       <use xlink:href="#DejaVuSans-2e" transform="translate(63.623047 0)"/>
       <use xlink:href="#DejaVuSans-36" transform="translate(95.410156 0)"/>
      </g>
     </g>
    </g>
    <g id="text_16">
     <!-- Mean Square Prediction Error ($e^t$) -->
     <g style="fill: #111111" transform="translate(16 232.268281) rotate(-90) scale(0.1 -0.1)">
      <defs>
       <path id="DejaVuSans-4d" d="M 628 4666 
L 1569 4666 
L 2759 1491 
L 3956 4666 
L 4897 4666 
L 4897 0 
L 4281 0 
L 4281 4097 
L 3078 897 
L 2444 897 
L 1241 4097 
L 1241 0 
L 628 0 
L 628 4666 
z
" transform="scale(0.015625)"/>
       <path id="DejaVuSans-71" d="M 947 1747 
Q 947 1113 1208 752 
Q 1469 391 1925 391 
Q 2381 391 2643 752 
Q 2906 1113 2906 1747 
Q 2906 2381 2643 2742 
Q 2381 3103 1925 3103 
Q 1469 3103 1208 2742 
Q 947 2381 947 1747 
z
M 2906 525 
Q 2725 213 2448 61 
Q 2172 -91 1784 -91 
Q 1150 -91 751 415 
Q 353 922 353 1747 
Q 353 2572 751 3078 
Q 1150 3584 1784 3584 
Q 2172 3584 2448 3432 
Q 2725 3281 2906 2969 
L 2906 3500 
L 3481 3500 
L 3481 -1331 
L 2906 -1331 
L 2906 525 
z
" transform="scale(0.015625)"/>
       <path id="DejaVuSans-50" d="M 1259 4147 
L 1259 2394 
L 2053 2394 
Q 2494 2394 2734 2622 
Q 2975 2850 2975 3272 
Q 2975 3691 2734 3919 
Q 2494 4147 2053 4147 
L 1259 4147 
z
M 628 4666 
L 2053 4666 
Q 2838 4666 3239 4311 
Q 3641 3956 3641 3272 
Q 3641 2581 3239 2228 
Q 2838 1875 2053 1875 
L 1259 1875 
L 1259 0 
L 628 0 
L 628 4666 
z
" transform="scale(0.015625)"/>
       <path id="DejaVuSans-64" d="M 2906 2969 
L 2906 4863 
L 3481 4863 
L 3481 0 
L 2906 0 
L 2906 525 
Q 2725 213 2448 61 
Q 2172 -91 1784 -91 
Q 1150 -91 751 415 
Q 353 922 353 1747 
Q 353 2572 751 3078 
Q 1150 3584 1784 3584 
Q 2172 3584 2448 3432 
Q 2725 3281 2906 2969 
z
M 947 1747 
Q 947 1113 1208 752 
Q 1469 391 1925 391 
Q 2381 391 2643 752 
Q 2906 1113 2906 1747 
Q 2906 2381 2643 2742 
Q 2381 3103 1925 3103 
Q 1469 3103 1208 2742 
Q 947 2381 947 1747 
z
" transform="scale(0.015625)"/>
       <path id="DejaVuSans-45" d="M 628 4666 
L 3578 4666 
L 3578 4134 
L 1259 4134 
L 1259 2753 
L 3481 2753 
L 3481 2222 
L 1259 2222 
L 1259 531 
L 3634 531 
L 3634 0 
L 628 0 
L 628 4666 
z
" transform="scale(0.015625)"/>
       <path id="DejaVuSans-Oblique-65" d="M 3078 2063 
Q 3088 2113 3092 2166 
Q 3097 2219 3097 2272 
Q 3097 2653 2873 2875 
Q 2650 3097 2266 3097 
Q 1838 3097 1509 2826 
Q 1181 2556 1013 2059 
L 3078 2063 
z
M 3578 1613 
L 903 1613 
Q 884 1494 878 1425 
Q 872 1356 872 1306 
Q 872 872 1139 634 
Q 1406 397 1894 397 
Q 2269 397 2603 481 
Q 2938 566 3225 728 
L 3116 159 
Q 2806 34 2476 -28 
Q 2147 -91 1806 -91 
Q 1078 -91 686 257 
Q 294 606 294 1247 
Q 294 1794 489 2264 
Q 684 2734 1063 3103 
Q 1306 3334 1642 3459 
Q 1978 3584 2356 3584 
Q 2950 3584 3301 3228 
Q 3653 2872 3653 2272 
Q 3653 2128 3634 1964 
Q 3616 1800 3578 1613 
z
" transform="scale(0.015625)"/>
      </defs>
      <use xlink:href="#DejaVuSans-4d" transform="translate(0 0.565625)"/>
      <use xlink:href="#DejaVuSans-65" transform="translate(86.279297 0.565625)"/>
      <use xlink:href="#DejaVuSans-61" transform="translate(147.802734 0.565625)"/>
      <use xlink:href="#DejaVuSans-6e" transform="translate(209.082031 0.565625)"/>
      <use xlink:href="#DejaVuSans-20" transform="translate(272.460938 0.565625)"/>
      <use xlink:href="#DejaVuSans-53" transform="translate(304.248047 0.565625)"/>
      <use xlink:href="#DejaVuSans-71" transform="translate(367.724609 0.565625)"/>
      <use xlink:href="#DejaVuSans-75" transform="translate(431.201172 0.565625)"/>
      <use xlink:href="#DejaVuSans-61" transform="translate(494.580078 0.565625)"/>
      <use xlink:href="#DejaVuSans-72" transform="translate(555.859375 0.565625)"/>
      <use xlink:href="#DejaVuSans-65" transform="translate(596.972656 0.565625)"/>
      <use xlink:href="#DejaVuSans-20" transform="translate(658.496094 0.565625)"/>
      <use xlink:href="#DejaVuSans-50" transform="translate(690.283203 0.565625)"/>
      <use xlink:href="#DejaVuSans-72" transform="translate(750.585938 0.565625)"/>
      <use xlink:href="#DejaVuSans-65" transform="translate(791.699219 0.565625)"/>
      <use xlink:href="#DejaVuSans-64" transform="translate(853.222656 0.565625)"/>
      <use xlink:href="#DejaVuSans-69" transform="translate(916.699219 0.565625)"/>
      <use xlink:href="#DejaVuSans-63" transform="translate(944.482422 0.565625)"/>
      <use xlink:href="#DejaVuSans-74" transform="translate(999.462891 0.565625)"/>
      <use xlink:href="#DejaVuSans-69" transform="translate(1038.671875 0.565625)"/>
      <use xlink:href="#DejaVuSans-6f" transform="translate(1066.455078 0.565625)"/>
      <use xlink:href="#DejaVuSans-6e" transform="translate(1127.636719 0.565625)"/>
      <use xlink:href="#DejaVuSans-20" transform="translate(1191.015625 0.565625)"/>
      <use xlink:href="#DejaVuSans-45" transform="translate(1222.802734 0.565625)"/>
      <use xlink:href="#DejaVuSans-72" transform="translate(1285.986328 0.565625)"/>
      <use xlink:href="#DejaVuSans-72" transform="translate(1327.099609 0.565625)"/>
      <use xlink:href="#DejaVuSans-6f" transform="translate(1368.212891 0.565625)"/>
      <use xlink:href="#DejaVuSans-72" transform="translate(1429.394531 0.565625)"/>
      <use xlink:href="#DejaVuSans-20" transform="translate(1470.507812 0.565625)"/>
      <use xlink:href="#DejaVuSans-28" transform="translate(1502.294922 0.565625)"/>
      <use xlink:href="#DejaVuSans-Oblique-65" transform="translate(1541.308594 0.565625)"/>
      <use xlink:href="#DejaVuSans-Oblique-74" transform="translate(1607.481927 38.846875) scale(0.7)"/>
      <use xlink:href="#DejaVuSans-29" transform="translate(1637.662591 0.565625)"/>
     </g>
    </g>
   </g>
   <g id="line2d_29">
    <path d="M 65.032125 215.16907 
L 165.177125 243.650342 
L 265.322125 256.028251 
L 365.467125 261.407669 
L 465.612125 263.745554 
" clip-path="url(#pf8bbf4578e)" style="fill: none; stroke: #4caf50; stroke-width: 2; stroke-linecap: square"/>
    <defs>
     <path id="m578aeea9ef" d="M 0 3 
C 0.795609 3 1.55874 2.683901 2.12132 2.12132 
C 2.683901 1.55874 3 0.795609 3 0 
C 3 -0.795609 2.683901 -1.55874 2.12132 -2.12132 
C 1.55874 -2.683901 0.795609 -3 0 -3 
C -0.795609 -3 -1.55874 -2.683901 -2.12132 -2.12132 
C -2.683901 -1.55874 -3 -0.795609 -3 0 
C -3 0.795609 -2.683901 1.55874 -2.12132 2.12132 
C -1.55874 2.683901 -0.795609 3 0 3 
z
" style="stroke: #4caf50"/>
    </defs>
    <g clip-path="url(#pf8bbf4578e)">
     <use xlink:href="#m578aeea9ef" x="65.032125" y="215.16907" style="fill: #4caf50; stroke: #4caf50"/>
     <use xlink:href="#m578aeea9ef" x="165.177125" y="243.650342" style="fill: #4caf50; stroke: #4caf50"/>
     <use xlink:href="#m578aeea9ef" x="265.322125" y="256.028251" style="fill: #4caf50; stroke: #4caf50"/>
     <use xlink:href="#m578aeea9ef" x="365.467125" y="261.407669" style="fill: #4caf50; stroke: #4caf50"/>
     <use xlink:href="#m578aeea9ef" x="465.612125" y="263.745554" style="fill: #4caf50; stroke: #4caf50"/>
    </g>
   </g>
   <g id="line2d_30">
    <path d="M 65.032125 151.259388 
L 165.177125 201.932723 
L 265.322125 227.94928 
L 365.467125 241.306627 
L 465.612125 248.164517 
" clip-path="url(#pf8bbf4578e)" style="fill: none; stroke: #ff9800; stroke-width: 2; stroke-linecap: square"/>
    <defs>
     <path id="md84c517470" d="M 0 3 
C 0.795609 3 1.55874 2.683901 2.12132 2.12132 
C 2.683901 1.55874 3 0.795609 3 0 
C 3 -0.795609 2.683901 -1.55874 2.12132 -2.12132 
C 1.55874 -2.683901 0.795609 -3 0 -3 
C -0.795609 -3 -1.55874 -2.683901 -2.12132 -2.12132 
C -2.683901 -1.55874 -3 -0.795609 -3 0 
C -3 0.795609 -2.683901 1.55874 -2.12132 2.12132 
C -1.55874 2.683901 -0.795609 3 0 3 
z
" style="stroke: #ff9800"/>
    </defs>
    <g clip-path="url(#pf8bbf4578e)">
     <use xlink:href="#md84c517470" x="65.032125" y="151.259388" style="fill: #ff9800; stroke: #ff9800"/>
     <use xlink:href="#md84c517470" x="165.177125" y="201.932723" style="fill: #ff9800; stroke: #ff9800"/>
     <use xlink:href="#md84c517470" x="265.322125" y="227.94928" style="fill: #ff9800; stroke: #ff9800"/>
     <use xlink:href="#md84c517470" x="365.467125" y="241.306627" style="fill: #ff9800; stroke: #ff9800"/>
     <use xlink:href="#md84c517470" x="465.612125" y="248.164517" style="fill: #ff9800; stroke: #ff9800"/>
    </g>
   </g>
   <g id="line2d_31">
    <path d="M 65.032125 33.091009 
L 165.177125 121.674029 
L 265.322125 172.49884 
L 365.467125 201.659749 
L 465.612125 218.390921 
" clip-path="url(#pf8bbf4578e)" style="fill: none; stroke: #f44336; stroke-width: 2.2; stroke-linecap: square"/>
    <defs>
     <path id="mce1006b5fa" d="M 0 3 
C 0.795609 3 1.55874 2.683901 2.12132 2.12132 
C 2.683901 1.55874 3 0.795609 3 0 
C 3 -0.795609 2.683901 -1.55874 2.12132 -2.12132 
C 1.55874 -2.683901 0.795609 -3 0 -3 
C -0.795609 -3 -1.55874 -2.683901 -2.12132 -2.12132 
C -2.683901 -1.55874 -3 -0.795609 -3 0 
C -3 0.795609 -2.683901 1.55874 -2.12132 2.12132 
C -1.55874 2.683901 -0.795609 3 0 3 
z
" style="stroke: #f44336"/>
    </defs>
    <g clip-path="url(#pf8bbf4578e)">
     <use xlink:href="#mce1006b5fa" x="65.032125" y="33.091009" style="fill: #f44336; stroke: #f44336"/>
     <use xlink:href="#mce1006b5fa" x="165.177125" y="121.674029" style="fill: #f44336; stroke: #f44336"/>
     <use xlink:href="#mce1006b5fa" x="265.322125" y="172.49884" style="fill: #f44336; stroke: #f44336"/>
     <use xlink:href="#mce1006b5fa" x="365.467125" y="201.659749" style="fill: #f44336; stroke: #f44336"/>
     <use xlink:href="#mce1006b5fa" x="465.612125" y="218.390921" style="fill: #f44336; stroke: #f44336"/>
    </g>
   </g>
   <g id="patch_3">
    <path d="M 45.003125 275.278281 
L 45.003125 21.558281 
" style="fill: none; stroke: #111111; stroke-width: 0.8; stroke-linejoin: miter; stroke-linecap: square"/>
   </g>
   <g id="patch_4">
    <path d="M 485.641125 275.278281 
L 485.641125 21.558281 
" style="fill: none; stroke: #111111; stroke-width: 0.8; stroke-linejoin: miter; stroke-linecap: square"/>
   </g>
   <g id="patch_5">
    <path d="M 45.003125 275.278281 
L 485.641125 275.278281 
" style="fill: none; stroke: #111111; stroke-width: 0.8; stroke-linejoin: miter; stroke-linecap: square"/>
   </g>
   <g id="patch_6">
    <path d="M 45.003125 21.558281 
L 485.641125 21.558281 
" style="fill: none; stroke: #111111; stroke-width: 0.8; stroke-linejoin: miter; stroke-linecap: square"/>
   </g>
   <g id="text_17">
    <!-- Recurrent Predictive Coding Error Convergence -->
    <g style="fill: #111111" transform="translate(117.941891 15.558281) scale(0.11 -0.11)">
     <defs>
      <path id="DejaVuSans-Bold-52" d="M 2297 2597 
Q 2675 2597 2839 2737 
Q 3003 2878 3003 3200 
Q 3003 3519 2839 3656 
Q 2675 3794 2297 3794 
L 1791 3794 
L 1791 2597 
L 2297 2597 
z
M 1791 1766 
L 1791 0 
L 588 0 
L 588 4666 
L 2425 4666 
Q 3347 4666 3776 4356 
Q 4206 4047 4206 3378 
Q 4206 2916 3982 2619 
Q 3759 2322 3309 2181 
Q 3556 2125 3751 1926 
Q 3947 1728 4147 1325 
L 4800 0 
L 3519 0 
L 2950 1159 
Q 2778 1509 2601 1637 
Q 2425 1766 2131 1766 
L 1791 1766 
z
" transform="scale(0.015625)"/>
      <path id="DejaVuSans-Bold-65" d="M 4031 1759 
L 4031 1441 
L 1416 1441 
Q 1456 1047 1700 850 
Q 1944 653 2381 653 
Q 2734 653 3104 758 
Q 3475 863 3866 1075 
L 3866 213 
Q 3469 63 3072 -14 
Q 2675 -91 2278 -91 
Q 1328 -91 801 392 
Q 275 875 275 1747 
Q 275 2603 792 3093 
Q 1309 3584 2216 3584 
Q 3041 3584 3536 3087 
Q 4031 2591 4031 1759 
z
M 2881 2131 
Q 2881 2450 2695 2645 
Q 2509 2841 2209 2841 
Q 1884 2841 1681 2658 
Q 1478 2475 1428 2131 
L 2881 2131 
z
" transform="scale(0.015625)"/>
      <path id="DejaVuSans-Bold-63" d="M 3366 3391 
L 3366 2478 
Q 3138 2634 2908 2709 
Q 2678 2784 2431 2784 
Q 1963 2784 1702 2511 
Q 1441 2238 1441 1747 
Q 1441 1256 1702 982 
Q 1963 709 2431 709 
Q 2694 709 2930 787 
Q 3166 866 3366 1019 
L 3366 103 
Q 3103 6 2833 -42 
Q 2563 -91 2291 -91 
Q 1344 -91 809 395 
Q 275 881 275 1747 
Q 275 2613 809 3098 
Q 1344 3584 2291 3584 
Q 2566 3584 2833 3536 
Q 3100 3488 3366 3391 
z
" transform="scale(0.015625)"/>
      <path id="DejaVuSans-Bold-75" d="M 500 1363 
L 500 3500 
L 1625 3500 
L 1625 3150 
Q 1625 2866 1622 2436 
Q 1619 2006 1619 1863 
Q 1619 1441 1641 1255 
Q 1663 1069 1716 984 
Q 1784 875 1895 815 
Q 2006 756 2150 756 
Q 2500 756 2700 1025 
Q 2900 1294 2900 1772 
L 2900 3500 
L 4019 3500 
L 4019 0 
L 2900 0 
L 2900 506 
Q 2647 200 2364 54 
Q 2081 -91 1741 -91 
Q 1134 -91 817 281 
Q 500 653 500 1363 
z
" transform="scale(0.015625)"/>
      <path id="DejaVuSans-Bold-72" d="M 3138 2547 
Q 2991 2616 2845 2648 
Q 2700 2681 2553 2681 
Q 2122 2681 1889 2404 
Q 1656 2128 1656 1613 
L 1656 0 
L 538 0 
L 538 3500 
L 1656 3500 
L 1656 2925 
Q 1872 3269 2151 3426 
Q 2431 3584 2822 3584 
Q 2878 3584 2943 3579 
Q 3009 3575 3134 3559 
L 3138 2547 
z
" transform="scale(0.015625)"/>
      <path id="DejaVuSans-Bold-6e" d="M 4056 2131 
L 4056 0 
L 2931 0 
L 2931 347 
L 2931 1631 
Q 2931 2084 2911 2256 
Q 2891 2428 2841 2509 
Q 2775 2619 2662 2680 
Q 2550 2741 2406 2741 
Q 2056 2741 1856 2470 
Q 1656 2200 1656 1722 
L 1656 0 
L 538 0 
L 538 3500 
L 1656 3500 
L 1656 2988 
Q 1909 3294 2193 3439 
Q 2478 3584 2822 3584 
Q 3428 3584 3742 3212 
Q 4056 2841 4056 2131 
z
" transform="scale(0.015625)"/>
      <path id="DejaVuSans-Bold-74" d="M 1759 4494 
L 1759 3500 
L 2913 3500 
L 2913 2700 
L 1759 2700 
L 1759 1216 
Q 1759 972 1856 886 
Q 1953 800 2241 800 
L 2816 800 
L 2816 0 
L 1856 0 
Q 1194 0 917 276 
Q 641 553 641 1216 
L 641 2700 
L 84 2700 
L 84 3500 
L 641 3500 
L 641 4494 
L 1759 4494 
z
" transform="scale(0.015625)"/>
      <path id="DejaVuSans-Bold-20" transform="scale(0.015625)"/>
      <path id="DejaVuSans-Bold-50" d="M 588 4666 
L 2584 4666 
Q 3475 4666 3951 4270 
Q 4428 3875 4428 3144 
Q 4428 2409 3951 2014 
Q 3475 1619 2584 1619 
L 1791 1619 
L 1791 0 
L 588 0 
L 588 4666 
z
M 1791 3794 
L 1791 2491 
L 2456 2491 
Q 2806 2491 2997 2661 
Q 3188 2831 3188 3144 
Q 3188 3456 2997 3625 
Q 2806 3794 2456 3794 
L 1791 3794 
z
" transform="scale(0.015625)"/>
      <path id="DejaVuSans-Bold-64" d="M 2919 2988 
L 2919 4863 
L 4044 4863 
L 4044 0 
L 2919 0 
L 2919 506 
Q 2688 197 2409 53 
Q 2131 -91 1766 -91 
Q 1119 -91 703 423 
Q 288 938 288 1747 
Q 288 2556 703 3070 
Q 1119 3584 1766 3584 
Q 2128 3584 2408 3439 
Q 2688 3294 2919 2988 
z
M 2181 722 
Q 2541 722 2730 984 
Q 2919 1247 2919 1747 
Q 2919 2247 2730 2509 
Q 2541 2772 2181 2772 
Q 1825 2772 1636 2509 
Q 1447 2247 1447 1747 
Q 1447 1247 1636 984 
Q 1825 722 2181 722 
z
" transform="scale(0.015625)"/>
      <path id="DejaVuSans-Bold-69" d="M 538 3500 
L 1656 3500 
L 1656 0 
L 538 0 
L 538 3500 
z
M 538 4863 
L 1656 4863 
L 1656 3950 
L 538 3950 
L 538 4863 
z
" transform="scale(0.015625)"/>
      <path id="DejaVuSans-Bold-76" d="M 97 3500 
L 1216 3500 
L 2088 1081 
L 2956 3500 
L 4078 3500 
L 2700 0 
L 1472 0 
L 97 3500 
z
" transform="scale(0.015625)"/>
      <path id="DejaVuSans-Bold-43" d="M 4288 256 
Q 3956 84 3597 -3 
Q 3238 -91 2847 -91 
Q 1681 -91 1000 561 
Q 319 1213 319 2328 
Q 319 3447 1000 4098 
Q 1681 4750 2847 4750 
Q 3238 4750 3597 4662 
Q 3956 4575 4288 4403 
L 4288 3438 
Q 3953 3666 3628 3772 
Q 3303 3878 2944 3878 
Q 2300 3878 1931 3465 
Q 1563 3053 1563 2328 
Q 1563 1606 1931 1193 
Q 2300 781 2944 781 
Q 3303 781 3628 887 
Q 3953 994 4288 1222 
L 4288 256 
z
" transform="scale(0.015625)"/>
      <path id="DejaVuSans-Bold-6f" d="M 2203 2784 
Q 1831 2784 1636 2517 
Q 1441 2250 1441 1747 
Q 1441 1244 1636 976 
Q 1831 709 2203 709 
Q 2569 709 2762 976 
Q 2956 1244 2956 1747 
Q 2956 2250 2762 2517 
Q 2569 2784 2203 2784 
z
M 2203 3584 
Q 3106 3584 3614 3096 
Q 4122 2609 4122 1747 
Q 4122 884 3614 396 
Q 3106 -91 2203 -91 
Q 1297 -91 786 396 
Q 275 884 275 1747 
Q 275 2609 786 3096 
Q 1297 3584 2203 3584 
z
" transform="scale(0.015625)"/>
      <path id="DejaVuSans-Bold-67" d="M 2919 594 
Q 2688 288 2409 144 
Q 2131 0 1766 0 
Q 1125 0 706 504 
Q 288 1009 288 1791 
Q 288 2575 706 3076 
Q 1125 3578 1766 3578 
Q 2131 3578 2409 3434 
Q 2688 3291 2919 2981 
L 2919 3500 
L 4044 3500 
L 4044 353 
Q 4044 -491 3511 -936 
Q 2978 -1381 1966 -1381 
Q 1638 -1381 1331 -1331 
Q 1025 -1281 716 -1178 
L 716 -306 
Q 1009 -475 1290 -558 
Q 1572 -641 1856 -641 
Q 2406 -641 2662 -400 
Q 2919 -159 2919 353 
L 2919 594 
z
M 2181 2772 
Q 1834 2772 1640 2515 
Q 1447 2259 1447 1791 
Q 1447 1309 1634 1061 
Q 1822 813 2181 813 
Q 2531 813 2725 1069 
Q 2919 1325 2919 1791 
Q 2919 2259 2725 2515 
Q 2531 2772 2181 2772 
z
" transform="scale(0.015625)"/>
      <path id="DejaVuSans-Bold-45" d="M 588 4666 
L 3834 4666 
L 3834 3756 
L 1791 3756 
L 1791 2888 
L 3713 2888 
L 3713 1978 
L 1791 1978 
L 1791 909 
L 3903 909 
L 3903 0 
L 588 0 
L 588 4666 
z
" transform="scale(0.015625)"/>
     </defs>
     <use xlink:href="#DejaVuSans-Bold-52"/>
     <use xlink:href="#DejaVuSans-Bold-65" transform="translate(77.001953 0)"/>
     <use xlink:href="#DejaVuSans-Bold-63" transform="translate(144.824219 0)"/>
     <use xlink:href="#DejaVuSans-Bold-75" transform="translate(204.101562 0)"/>
     <use xlink:href="#DejaVuSans-Bold-72" transform="translate(275.292969 0)"/>
     <use xlink:href="#DejaVuSans-Bold-72" transform="translate(324.609375 0)"/>
     <use xlink:href="#DejaVuSans-Bold-65" transform="translate(373.925781 0)"/>
     <use xlink:href="#DejaVuSans-Bold-6e" transform="translate(441.748047 0)"/>
     <use xlink:href="#DejaVuSans-Bold-74" transform="translate(512.939453 0)"/>
     <use xlink:href="#DejaVuSans-Bold-20" transform="translate(560.742188 0)"/>
     <use xlink:href="#DejaVuSans-Bold-50" transform="translate(595.556641 0)"/>
     <use xlink:href="#DejaVuSans-Bold-72" transform="translate(668.847656 0)"/>
     <use xlink:href="#DejaVuSans-Bold-65" transform="translate(718.164062 0)"/>
     <use xlink:href="#DejaVuSans-Bold-64" transform="translate(785.986328 0)"/>
     <use xlink:href="#DejaVuSans-Bold-69" transform="translate(857.568359 0)"/>
     <use xlink:href="#DejaVuSans-Bold-63" transform="translate(891.845703 0)"/>
     <use xlink:href="#DejaVuSans-Bold-74" transform="translate(951.123047 0)"/>
     <use xlink:href="#DejaVuSans-Bold-69" transform="translate(998.925781 0)"/>
     <use xlink:href="#DejaVuSans-Bold-76" transform="translate(1033.203125 0)"/>
     <use xlink:href="#DejaVuSans-Bold-65" transform="translate(1098.388672 0)"/>
     <use xlink:href="#DejaVuSans-Bold-20" transform="translate(1166.210938 0)"/>
     <use xlink:href="#DejaVuSans-Bold-43" transform="translate(1201.025391 0)"/>
     <use xlink:href="#DejaVuSans-Bold-6f" transform="translate(1274.414062 0)"/>
     <use xlink:href="#DejaVuSans-Bold-64" transform="translate(1343.115234 0)"/>
     <use xlink:href="#DejaVuSans-Bold-69" transform="translate(1414.697266 0)"/>
     <use xlink:href="#DejaVuSans-Bold-6e" transform="translate(1448.974609 0)"/>
     <use xlink:href="#DejaVuSans-Bold-67" transform="translate(1520.166016 0)"/>
     <use xlink:href="#DejaVuSans-Bold-20" transform="translate(1591.748047 0)"/>
     <use xlink:href="#DejaVuSans-Bold-45" transform="translate(1626.5625 0)"/>
     <use xlink:href="#DejaVuSans-Bold-72" transform="translate(1694.873047 0)"/>
     <use xlink:href="#DejaVuSans-Bold-72" transform="translate(1744.189453 0)"/>
     <use xlink:href="#DejaVuSans-Bold-6f" transform="translate(1793.505859 0)"/>
     <use xlink:href="#DejaVuSans-Bold-72" transform="translate(1862.207031 0)"/>
     <use xlink:href="#DejaVuSans-Bold-20" transform="translate(1911.523438 0)"/>
     <use xlink:href="#DejaVuSans-Bold-43" transform="translate(1946.337891 0)"/>
     <use xlink:href="#DejaVuSans-Bold-6f" transform="translate(2019.726562 0)"/>
     <use xlink:href="#DejaVuSans-Bold-6e" transform="translate(2088.427734 0)"/>
     <use xlink:href="#DejaVuSans-Bold-76" transform="translate(2159.619141 0)"/>
     <use xlink:href="#DejaVuSans-Bold-65" transform="translate(2224.804688 0)"/>
     <use xlink:href="#DejaVuSans-Bold-72" transform="translate(2292.626953 0)"/>
     <use xlink:href="#DejaVuSans-Bold-67" transform="translate(2341.943359 0)"/>
     <use xlink:href="#DejaVuSans-Bold-65" transform="translate(2413.525391 0)"/>
     <use xlink:href="#DejaVuSans-Bold-6e" transform="translate(2481.347656 0)"/>
     <use xlink:href="#DejaVuSans-Bold-63" transform="translate(2552.539062 0)"/>
     <use xlink:href="#DejaVuSans-Bold-65" transform="translate(2611.816406 0)"/>
    </g>
   </g>
   <g id="legend_1">
    <g id="patch_7">
     <path d="M 330.966125 73.592656 
L 478.641125 73.592656 
Q 480.641125 73.592656 480.641125 71.592656 
L 480.641125 28.558281 
Q 480.641125 26.558281 478.641125 26.558281 
L 330.966125 26.558281 
Q 328.966125 26.558281 328.966125 28.558281 
L 328.966125 71.592656 
Q 328.966125 73.592656 330.966125 73.592656 
z
" style="fill: #ffffff; opacity: 0.8; stroke: #cccccc; stroke-linejoin: miter"/>
    </g>
    <g id="line2d_32">
     <path d="M 332.966125 34.656719 
L 342.966125 34.656719 
L 352.966125 34.656719 
" style="fill: none; stroke: #4caf50; stroke-width: 2; stroke-linecap: square"/>
     <g>
      <use xlink:href="#m578aeea9ef" x="342.966125" y="34.656719" style="fill: #4caf50; stroke: #4caf50"/>
     </g>
    </g>
    <g id="text_18">
     <!-- Clean Input (Low Error) -->
     <g style="fill: #111111" transform="translate(360.966125 38.156719) scale(0.1 -0.1)">
      <defs>
       <path id="DejaVuSans-43" d="M 4122 4306 
L 4122 3641 
Q 3803 3938 3442 4084 
Q 3081 4231 2675 4231 
Q 1875 4231 1450 3742 
Q 1025 3253 1025 2328 
Q 1025 1406 1450 917 
Q 1875 428 2675 428 
Q 3081 428 3442 575 
Q 3803 722 4122 1019 
L 4122 359 
Q 3791 134 3420 21 
Q 3050 -91 2638 -91 
Q 1578 -91 968 557 
Q 359 1206 359 2328 
Q 359 3453 968 4101 
Q 1578 4750 2638 4750 
Q 3056 4750 3426 4639 
Q 3797 4528 4122 4306 
z
" transform="scale(0.015625)"/>
       <path id="DejaVuSans-6c" d="M 603 4863 
L 1178 4863 
L 1178 0 
L 603 0 
L 603 4863 
z
" transform="scale(0.015625)"/>
       <path id="DejaVuSans-4c" d="M 628 4666 
L 1259 4666 
L 1259 531 
L 3531 531 
L 3531 0 
L 628 0 
L 628 4666 
z
" transform="scale(0.015625)"/>
       <path id="DejaVuSans-77" d="M 269 3500 
L 844 3500 
L 1563 769 
L 2278 3500 
L 2956 3500 
L 3675 769 
L 4391 3500 
L 4966 3500 
L 4050 0 
L 3372 0 
L 2619 2869 
L 1863 0 
L 1184 0 
L 269 3500 
z
" transform="scale(0.015625)"/>
      </defs>
      <use xlink:href="#DejaVuSans-43"/>
      <use xlink:href="#DejaVuSans-6c" transform="translate(69.824219 0)"/>
      <use xlink:href="#DejaVuSans-65" transform="translate(97.607422 0)"/>
      <use xlink:href="#DejaVuSans-61" transform="translate(159.130859 0)"/>
      <use xlink:href="#DejaVuSans-6e" transform="translate(220.410156 0)"/>
      <use xlink:href="#DejaVuSans-20" transform="translate(283.789062 0)"/>
      <use xlink:href="#DejaVuSans-49" transform="translate(315.576172 0)"/>
      <use xlink:href="#DejaVuSans-6e" transform="translate(345.068359 0)"/>
      <use xlink:href="#DejaVuSans-70" transform="translate(408.447266 0)"/>
      <use xlink:href="#DejaVuSans-75" transform="translate(471.923828 0)"/>
      <use xlink:href="#DejaVuSans-74" transform="translate(535.302734 0)"/>
      <use xlink:href="#DejaVuSans-20" transform="translate(574.511719 0)"/>
      <use xlink:href="#DejaVuSans-28" transform="translate(606.298828 0)"/>
      <use xlink:href="#DejaVuSans-4c" transform="translate(645.3125 0)"/>
      <use xlink:href="#DejaVuSans-6f" transform="translate(699.275391 0)"/>
      <use xlink:href="#DejaVuSans-77" transform="translate(760.457031 0)"/>
      <use xlink:href="#DejaVuSans-20" transform="translate(842.244141 0)"/>
      <use xlink:href="#DejaVuSans-45" transform="translate(874.03125 0)"/>
      <use xlink:href="#DejaVuSans-72" transform="translate(937.214844 0)"/>
      <use xlink:href="#DejaVuSans-72" transform="translate(976.578125 0)"/>
      <use xlink:href="#DejaVuSans-6f" transform="translate(1015.441406 0)"/>
      <use xlink:href="#DejaVuSans-72" transform="translate(1076.623047 0)"/>
      <use xlink:href="#DejaVuSans-29" transform="translate(1117.736328 0)"/>
     </g>
    </g>
    <g id="line2d_33">
     <path d="M 332.966125 49.334844 
L 342.966125 49.334844 
L 352.966125 49.334844 
" style="fill: none; stroke: #ff9800; stroke-width: 2; stroke-linecap: square"/>
     <g>
      <use xlink:href="#md84c517470" x="342.966125" y="49.334844" style="fill: #ff9800; stroke: #ff9800"/>
     </g>
    </g>
    <g id="text_19">
     <!-- Gaussian Noise Input -->
     <g style="fill: #111111" transform="translate(360.966125 52.834844) scale(0.1 -0.1)">
      <defs>
       <path id="DejaVuSans-47" d="M 3809 666 
L 3809 1919 
L 2778 1919 
L 2778 2438 
L 4434 2438 
L 4434 434 
Q 4069 175 3628 42 
Q 3188 -91 2688 -91 
Q 1594 -91 976 548 
Q 359 1188 359 2328 
Q 359 3472 976 4111 
Q 1594 4750 2688 4750 
Q 3144 4750 3555 4637 
Q 3966 4525 4313 4306 
L 4313 3634 
Q 3963 3931 3569 4081 
Q 3175 4231 2741 4231 
Q 1884 4231 1454 3753 
Q 1025 3275 1025 2328 
Q 1025 1384 1454 906 
Q 1884 428 2741 428 
Q 3075 428 3337 486 
Q 3600 544 3809 666 
z
" transform="scale(0.015625)"/>
       <path id="DejaVuSans-73" d="M 2834 3397 
L 2834 2853 
Q 2591 2978 2328 3040 
Q 2066 3103 1784 3103 
Q 1356 3103 1142 2972 
Q 928 2841 928 2578 
Q 928 2378 1081 2264 
Q 1234 2150 1697 2047 
L 1894 2003 
Q 2506 1872 2764 1633 
Q 3022 1394 3022 966 
Q 3022 478 2636 193 
Q 2250 -91 1575 -91 
Q 1294 -91 989 -36 
Q 684 19 347 128 
L 347 722 
Q 666 556 975 473 
Q 1284 391 1588 391 
Q 1994 391 2212 530 
Q 2431 669 2431 922 
Q 2431 1156 2273 1281 
Q 2116 1406 1581 1522 
L 1381 1569 
Q 847 1681 609 1914 
Q 372 2147 372 2553 
Q 372 3047 722 3315 
Q 1072 3584 1716 3584 
Q 2034 3584 2315 3537 
Q 2597 3491 2834 3397 
z
" transform="scale(0.015625)"/>
       <path id="DejaVuSans-4e" d="M 628 4666 
L 1478 4666 
L 3547 763 
L 3547 4666 
L 4159 4666 
L 4159 0 
L 3309 0 
L 1241 3903 
L 1241 0 
L 628 0 
L 628 4666 
z
" transform="scale(0.015625)"/>
      </defs>
      <use xlink:href="#DejaVuSans-47"/>
      <use xlink:href="#DejaVuSans-61" transform="translate(77.490234 0)"/>
      <use xlink:href="#DejaVuSans-75" transform="translate(138.769531 0)"/>
      <use xlink:href="#DejaVuSans-73" transform="translate(202.148438 0)"/>
      <use xlink:href="#DejaVuSans-73" transform="translate(254.248047 0)"/>
      <use xlink:href="#DejaVuSans-69" transform="translate(306.347656 0)"/>
      <use xlink:href="#DejaVuSans-61" transform="translate(334.130859 0)"/>
      <use xlink:href="#DejaVuSans-6e" transform="translate(395.410156 0)"/>
      <use xlink:href="#DejaVuSans-20" transform="translate(458.789062 0)"/>
      <use xlink:href="#DejaVuSans-4e" transform="translate(490.576172 0)"/>
      <use xlink:href="#DejaVuSans-6f" transform="translate(565.380859 0)"/>
      <use xlink:href="#DejaVuSans-69" transform="translate(626.5625 0)"/>
      <use xlink:href="#DejaVuSans-73" transform="translate(654.345703 0)"/>
      <use xlink:href="#DejaVuSans-65" transform="translate(706.445312 0)"/>
      <use xlink:href="#DejaVuSans-20" transform="translate(767.96875 0)"/>
      <use xlink:href="#DejaVuSans-49" transform="translate(799.755859 0)"/>
      <use xlink:href="#DejaVuSans-6e" transform="translate(829.248047 0)"/>
      <use xlink:href="#DejaVuSans-70" transform="translate(892.626953 0)"/>
      <use xlink:href="#DejaVuSans-75" transform="translate(956.103516 0)"/>
      <use xlink:href="#DejaVuSans-74" transform="translate(1019.482422 0)"/>
     </g>
    </g>
    <g id="line2d_34">
     <path d="M 332.966125 64.012969 
L 342.966125 64.012969 
L 352.966125 64.012969 
" style="fill: none; stroke: #f44336; stroke-width: 2.2; stroke-linecap: square"/>
     <g>
      <use xlink:href="#mce1006b5fa" x="342.966125" y="64.012969" style="fill: #f44336; stroke: #f44336"/>
     </g>
    </g>
    <g id="text_20">
     <!-- PGD Adversarial Input -->
     <g style="fill: #111111" transform="translate(360.966125 67.512969) scale(0.1 -0.1)">
      <defs>
       <path id="DejaVuSans-44" d="M 1259 4147 
L 1259 519 
L 2022 519 
Q 2988 519 3436 956 
Q 3884 1394 3884 2338 
Q 3884 3275 3436 3711 
Q 2988 4147 2022 4147 
L 1259 4147 
z
M 628 4666 
L 1925 4666 
Q 3281 4666 3915 4102 
Q 4550 3538 4550 2338 
Q 4550 1131 3912 565 
Q 3275 0 1925 0 
L 628 0 
L 628 4666 
z
" transform="scale(0.015625)"/>
       <path id="DejaVuSans-41" d="M 2188 4044 
L 1331 1722 
L 3047 1722 
L 2188 4044 
z
M 1831 4666 
L 2547 4666 
L 4325 0 
L 3669 0 
L 3244 1197 
L 1141 1197 
L 716 0 
L 50 0 
L 1831 4666 
z
" transform="scale(0.015625)"/>
       <path id="DejaVuSans-76" d="M 191 3500 
L 800 3500 
L 1894 563 
L 2988 3500 
L 3597 3500 
L 2284 0 
L 1503 0 
L 191 3500 
z
" transform="scale(0.015625)"/>
      </defs>
      <use xlink:href="#DejaVuSans-50"/>
      <use xlink:href="#DejaVuSans-47" transform="translate(60.302734 0)"/>
      <use xlink:href="#DejaVuSans-44" transform="translate(137.792969 0)"/>
      <use xlink:href="#DejaVuSans-20" transform="translate(214.794922 0)"/>
      <use xlink:href="#DejaVuSans-41" transform="translate(246.582031 0)"/>
      <use xlink:href="#DejaVuSans-64" transform="translate(313.240234 0)"/>
      <use xlink:href="#DejaVuSans-76" transform="translate(376.716797 0)"/>
      <use xlink:href="#DejaVuSans-65" transform="translate(435.896484 0)"/>
      <use xlink:href="#DejaVuSans-72" transform="translate(497.419922 0)"/>
      <use xlink:href="#DejaVuSans-73" transform="translate(538.533203 0)"/>
      <use xlink:href="#DejaVuSans-61" transform="translate(590.632812 0)"/>
      <use xlink:href="#DejaVuSans-72" transform="translate(651.912109 0)"/>
      <use xlink:href="#DejaVuSans-69" transform="translate(693.025391 0)"/>
      <use xlink:href="#DejaVuSans-61" transform="translate(720.808594 0)"/>
      <use xlink:href="#DejaVuSans-6c" transform="translate(782.087891 0)"/>
      <use xlink:href="#DejaVuSans-20" transform="translate(809.871094 0)"/>
      <use xlink:href="#DejaVuSans-49" transform="translate(841.658203 0)"/>
      <use xlink:href="#DejaVuSans-6e" transform="translate(871.150391 0)"/>
      <use xlink:href="#DejaVuSans-70" transform="translate(934.529297 0)"/>
      <use xlink:href="#DejaVuSans-75" transform="translate(998.005859 0)"/>
      <use xlink:href="#DejaVuSans-74" transform="translate(1061.384766 0)"/>
     </g>
    </g>
   </g>
  </g>
 </g>
 <defs>
  <clipPath id="pf8bbf4578e">
   <rect x="45.003125" y="21.558281" width="440.638" height="253.72"/>
  </clipPath>
 </defs>
</svg>
