<?xml version="1.0" encoding="utf-8" standalone="no"?>
<!DOCTYPE svg PUBLIC "-//W3C//DTD SVG 1.1//EN"
  "http://www.w3.org/Graphics/SVG/1.1/DTD/svg11.dtd">
<svg xmlns:xlink="http://www.w3.org/1999/xlink" width="496.46125pt" height="314.994531pt" viewBox="0 0 496.46125 314.994531" xmlns="http://www.w3.org/2000/svg" version="1.1">
 <metadata>
  <rdf:RDF xmlns:dc="http://purl.org/dc/elements/1.1/" xmlns:cc="http://creativecommons.org/ns#" xmlns:rdf="http://www.w3.org/1999/02/22-rdf-syntax-ns#">
   <cc:Work>
    <dc:type rdf:resource="http://purl.org/dc/dcmitype/StillImage"/>
    <dc:date>2026-07-07T07:50:00.094373</dc:date>
    <dc:format>image/svg+xml</dc:format>
    <dc:creator>
     <cc:Agent>
      <dc:title>Matplotlib v3.10.9, https://matplotlib.org/</dc:title>
     </cc:Agent>
    </dc:creator>
   </cc:Work>
  </rdf:RDF>
 </metadata>
 <defs>
  <style type="text/css">*{stroke-linejoin: round; stroke-linecap: butt}</style>
 </defs>
 <g id="figure_1">
  <g id="patch_1">
   <path d="M 0 314.994531 
L 496.46125 314.994531 
L 496.46125 0 
L 0 0 
z
" style="fill: #ffffff"/>
  </g>
  <g id="axes_1">
   <g id="patch_2">
    <path d="M 43.78125 277.438281 
L 489.26125 277.438281 
L 489.26125 21.558281 
L 43.78125 21.558281 
z
" style="fill: #ffffff"/>
   </g>
   <g id="FillBetweenPolyCollection_1">
    <defs>
     <path id="m0354038ee3" d="M 64.030341 -76.922404 
L 64.030341 -254.070096 
L 68.121066 -254.068088 
L 72.211792 -254.062063 
L 76.302517 -254.052022 
L 80.393243 -254.037964 
L 84.483968 -254.019889 
L 88.574694 -253.997798 
L 92.665419 -253.971691 
L 96.756144 -253.941567 
L 100.84687 -253.907426 
L 104.937595 -253.869269 
L 109.028321 -253.827095 
L 113.119046 -253.780905 
L 117.209772 -253.730698 
L 121.300497 -253.676475 
L 125.391222 -253.618235 
L 129.481948 -253.555978 
L 133.572673 -253.489705 
L 137.663399 -253.419416 
L 141.754124 -253.34511 
L 145.84485 -253.266787 
L 149.935575 -253.184448 
L 154.026301 -253.098092 
L 158.117026 -253.00772 
L 162.207751 -252.913331 
L 166.298477 -252.814926 
L 170.389202 -252.712504 
L 174.479928 -252.606066 
L 178.570653 -252.495611 
L 182.661379 -252.381139 
L 186.752104 -252.262651 
L 190.842829 -252.140146 
L 194.933555 -252.013625 
L 199.02428 -251.883088 
L 203.115006 -251.748533 
L 207.205731 -251.609963 
L 211.296457 -251.467375 
L 215.387182 -251.320771 
L 219.477907 -251.170151 
L 223.568633 -251.015514 
L 227.659358 -250.85686 
L 231.750084 -250.69419 
L 235.840809 -250.527504 
L 239.931535 -250.356801 
L 244.02226 -250.182081 
L 248.112986 -250.003345 
L 252.203711 -249.820592 
L 256.294436 -249.633823 
L 260.385162 -249.443037 
L 264.475887 -249.248234 
L 268.566613 -249.049415 
L 272.657338 -248.84658 
L 276.748064 -248.639728 
L 280.838789 -248.428859 
L 284.929514 -248.213974 
L 289.02024 -247.995072 
L 293.110965 -247.772154 
L 297.201691 -247.545219 
L 301.292416 -247.314268 
L 305.383142 -247.0793 
L 309.473867 -246.840316 
L 313.564593 -246.597315 
L 317.655318 -246.350297 
L 321.746043 -246.099263 
L 325.836769 -245.844213 
L 329.927494 -245.585146 
L 334.01822 -245.322062 
L 338.108945 -245.054962 
L 342.199671 -244.783845 
L 346.290396 -244.508712 
L 350.381121 -244.229562 
L 354.471847 -243.946395 
L 358.562572 -243.659212 
L 362.653298 -243.368013 
L 366.744023 -243.072797 
L 370.834749 -242.773564 
L 374.925474 -242.470315 
L 379.016199 -242.16305 
L 383.106925 -241.851767 
L 387.19765 -241.536469 
L 391.288376 -241.217153 
L 395.379101 -240.893822 
L 399.469827 -240.566473 
L 403.560552 -240.235108 
L 407.651278 -239.899727 
L 411.742003 -239.560329 
L 415.832728 -239.216914 
L 419.923454 -238.869483 
L 424.014179 -238.518035 
L 428.104905 -238.162571 
L 432.19563 -237.80309 
L 436.286356 -237.439593 
L 440.377081 -237.072079 
L 444.467806 -236.700549 
L 448.558532 -236.325002 
L 452.649257 -235.945439 
L 456.739983 -235.561859 
L 460.830708 -235.174262 
L 464.921434 -234.782649 
L 469.012159 -234.387019 
L 469.012159 -76.922404 
L 469.012159 -76.922404 
L 464.921434 -76.922404 
L 460.830708 -76.922404 
L 456.739983 -76.922404 
L 452.649257 -76.922404 
L 448.558532 -76.922404 
L 444.467806 -76.922404 
L 440.377081 -76.922404 
L 436.286356 -76.922404 
L 432.19563 -76.922404 
L 428.104905 -76.922404 
L 424.014179 -76.922404 
L 419.923454 -76.922404 
L 415.832728 -76.922404 
L 411.742003 -76.922404 
L 407.651278 -76.922404 
L 403.560552 -76.922404 
L 399.469827 -76.922404 
L 395.379101 -76.922404 
L 391.288376 -76.922404 
L 387.19765 -76.922404 
L 383.106925 -76.922404 
L 379.016199 -76.922404 
L 374.925474 -76.922404 
L 370.834749 -76.922404 
L 366.744023 -76.922404 
L 362.653298 -76.922404 
L 358.562572 -76.922404 
L 354.471847 -76.922404 
L 350.381121 -76.922404 
L 346.290396 -76.922404 
L 342.199671 -76.922404 
L 338.108945 -76.922404 
L 334.01822 -76.922404 
L 329.927494 -76.922404 
L 325.836769 -76.922404 
L 321.746043 -76.922404 
L 317.655318 -76.922404 
L 313.564593 -76.922404 
L 309.473867 -76.922404 
L 305.383142 -76.922404 
L 301.292416 -76.922404 
L 297.201691 -76.922404 
L 293.110965 -76.922404 
L 289.02024 -76.922404 
L 284.929514 -76.922404 
L 280.838789 -76.922404 
L 276.748064 -76.922404 
L 272.657338 -76.922404 
L 268.566613 -76.922404 
L 264.475887 -76.922404 
L 260.385162 -76.922404 
L 256.294436 -76.922404 
L 252.203711 -76.922404 
L 248.112986 -76.922404 
L 244.02226 -76.922404 
L 239.931535 -76.922404 
L 235.840809 -76.922404 
L 231.750084 -76.922404 
L 227.659358 -76.922404 
L 223.568633 -76.922404 
L 219.477907 -76.922404 
L 215.387182 -76.922404 
L 211.296457 -76.922404 
L 207.205731 -76.922404 
L 203.115006 -76.922404 
L 199.02428 -76.922404 
L 194.933555 -76.922404 
L 190.842829 -76.922404 
L 186.752104 -76.922404 
L 182.661379 -76.922404 
L 178.570653 -76.922404 
L 174.479928 -76.922404 
L 170.389202 -76.922404 
L 166.298477 -76.922404 
L 162.207751 -76.922404 
L 158.117026 -76.922404 
L 154.026301 -76.922404 
L 149.935575 -76.922404 
L 145.84485 -76.922404 
L 141.754124 -76.922404 
L 137.663399 -76.922404 
L 133.572673 -76.922404 
L 129.481948 -76.922404 
L 125.391222 -76.922404 
L 121.300497 -76.922404 
L 117.209772 -76.922404 
L 113.119046 -76.922404 
L 109.028321 -76.922404 
L 104.937595 -76.922404 
L 100.84687 -76.922404 
L 96.756144 -76.922404 
L 92.665419 -76.922404 
L 88.574694 -76.922404 
L 84.483968 -76.922404 
L 80.393243 -76.922404 
L 76.302517 -76.922404 
L 72.211792 -76.922404 
L 68.121066 -76.922404 
L 64.030341 -76.922404 
z
" style="stroke: #2196f3; stroke-opacity: 0.1"/>
    </defs>
    <g clip-path="url(#pf69c6e48f2)">
     <use xlink:href="#m0354038ee3" x="0" y="314.994531" style="fill: #2196f3; fill-opacity: 0.1; stroke: #2196f3; stroke-opacity: 0.1"/>
    </g>
   </g>
   <g id="matplotlib.axis_1">
    <g id="xtick_1">
     <g id="line2d_1">
      <path d="M 64.030341 277.438281 
L 64.030341 21.558281 
" clip-path="url(#pf69c6e48f2)" style="fill: none; stroke-dasharray: 0.8,1.32; stroke-dashoffset: 0; stroke: #b0b0b0; stroke-width: 0.8"/>
     </g>
     <g id="line2d_2">
      <defs>
       <path id="mf1fba8c2f2" d="M 0 0 
L 0 3.5 
" style="stroke: #111111; stroke-width: 0.8"/>
      </defs>
      <g>
       <use xlink:href="#mf1fba8c2f2" x="64.030341" y="277.438281" style="fill: #111111; stroke: #111111; stroke-width: 0.8"/>
      </g>
     </g>
     <g id="text_1">
      <!-- 0.00 -->
      <g style="fill: #111111" transform="translate(52.897528 292.036719) scale(0.1 -0.1)">
       <defs>
        <path id="DejaVuSans-30" d="M 2034 4250 
Q 1547 4250 1301 3770 
Q 1056 3291 1056 2328 
Q 1056 1369 1301 889 
Q 1547 409 2034 409 
Q 2525 409 2770 889 
Q 3016 1369 3016 2328 
Q 3016 3291 2770 3770 
Q 2525 4250 2034 4250 
z
M 2034 4750 
Q 2819 4750 3233 4129 
Q 3647 3509 3647 2328 
Q 3647 1150 3233 529 
Q 2819 -91 2034 -91 
Q 1250 -91 836 529 
Q 422 1150 422 2328 
Q 422 3509 836 4129 
Q 1250 4750 2034 4750 
z
" transform="scale(0.015625)"/>
        <path id="DejaVuSans-2e" d="M 684 794 
L 1344 794 
L 1344 0 
L 684 0 
L 684 794 
z
" transform="scale(0.015625)"/>
       </defs>
       <use xlink:href="#DejaVuSans-30"/>
       <use xlink:href="#DejaVuSans-2e" transform="translate(63.623047 0)"/>
       <use xlink:href="#DejaVuSans-30" transform="translate(95.410156 0)"/>
       <use xlink:href="#DejaVuSans-30" transform="translate(159.033203 0)"/>
      </g>
     </g>
    </g>
    <g id="xtick_2">
     <g id="line2d_3">
      <path d="M 118.027917 277.438281 
L 118.027917 21.558281 
" clip-path="url(#pf69c6e48f2)" style="fill: none; stroke-dasharray: 0.8,1.32; stroke-dashoffset: 0; stroke: #b0b0b0; stroke-width: 0.8"/>
     </g>
     <g id="line2d_4">
      <g>
       <use xlink:href="#mf1fba8c2f2" x="118.027917" y="277.438281" style="fill: #111111; stroke: #111111; stroke-width: 0.8"/>
      </g>
     </g>
     <g id="text_2">
      <!-- 0.02 -->
      <g style="fill: #111111" transform="translate(106.895104 292.036719) scale(0.1 -0.1)">
       <defs>
        <path id="DejaVuSans-32" d="M 1228 531 
L 3431 531 
L 3431 0 
L 469 0 
L 469 531 
Q 828 903 1448 1529 
Q 2069 2156 2228 2338 
Q 2531 2678 2651 2914 
Q 2772 3150 2772 3378 
Q 2772 3750 2511 3984 
Q 2250 4219 1831 4219 
Q 1534 4219 1204 4116 
Q 875 4013 500 3803 
L 500 4441 
Q 881 4594 1212 4672 
Q 1544 4750 1819 4750 
Q 2544 4750 2975 4387 
Q 3406 4025 3406 3419 
Q 3406 3131 3298 2873 
Q 3191 2616 2906 2266 
Q 2828 2175 2409 1742 
Q 1991 1309 1228 531 
z
" transform="scale(0.015625)"/>
       </defs>
       <use xlink:href="#DejaVuSans-30"/>
       <use xlink:href="#DejaVuSans-2e" transform="translate(63.623047 0)"/>
       <use xlink:href="#DejaVuSans-30" transform="translate(95.410156 0)"/>
       <use xlink:href="#DejaVuSans-32" transform="translate(159.033203 0)"/>
      </g>
     </g>
    </g>
    <g id="xtick_3">
     <g id="line2d_5">
      <path d="M 172.025492 277.438281 
L 172.025492 21.558281 
" clip-path="url(#pf69c6e48f2)" style="fill: none; stroke-dasharray: 0.8,1.32; stroke-dashoffset: 0; stroke: #b0b0b0; stroke-width: 0.8"/>
     </g>
     <g id="line2d_6">
      <g>
       <use xlink:href="#mf1fba8c2f2" x="172.025492" y="277.438281" style="fill: #111111; stroke: #111111; stroke-width: 0.8"/>
      </g>
     </g>
     <g id="text_3">
      <!-- 0.04 -->
      <g style="fill: #111111" transform="translate(160.89268 292.036719) scale(0.1 -0.1)">
       <defs>
        <path id="DejaVuSans-34" d="M 2419 4116 
L 825 1625 
L 2419 1625 
L 2419 4116 
z
M 2253 4666 
L 3047 4666 
L 3047 1625 
L 3713 1625 
L 3713 1100 
L 3047 1100 
L 3047 0 
L 2419 0 
L 2419 1100 
L 313 1100 
L 313 1709 
L 2253 4666 
z
" transform="scale(0.015625)"/>
       </defs>
       <use xlink:href="#DejaVuSans-30"/>
       <use xlink:href="#DejaVuSans-2e" transform="translate(63.623047 0)"/>
       <use xlink:href="#DejaVuSans-30" transform="translate(95.410156 0)"/>
       <use xlink:href="#DejaVuSans-34" transform="translate(159.033203 0)"/>
      </g>
     </g>
    </g>
    <g id="xtick_4">
     <g id="line2d_7">
      <path d="M 226.023068 277.438281 
L 226.023068 21.558281 
" clip-path="url(#pf69c6e48f2)" style="fill: none; stroke-dasharray: 0.8,1.32; stroke-dashoffset: 0; stroke: #b0b0b0; stroke-width: 0.8"/>
     </g>
     <g id="line2d_8">
      <g>
       <use xlink:href="#mf1fba8c2f2" x="226.023068" y="277.438281" style="fill: #111111; stroke: #111111; stroke-width: 0.8"/>
      </g>
     </g>
     <g id="text_4">
      <!-- 0.06 -->
      <g style="fill: #111111" transform="translate(214.890256 292.036719) scale(0.1 -0.1)">
       <defs>
        <path id="DejaVuSans-36" d="M 2113 2584 
Q 1688 2584 1439 2293 
Q 1191 2003 1191 1497 
Q 1191 994 1439 701 
Q 1688 409 2113 409 
Q 2538 409 2786 701 
Q 3034 994 3034 1497 
Q 3034 2003 2786 2293 
Q 2538 2584 2113 2584 
z
M 3366 4563 
L 3366 3988 
Q 3128 4100 2886 4159 
Q 2644 4219 2406 4219 
Q 1781 4219 1451 3797 
Q 1122 3375 1075 2522 
Q 1259 2794 1537 2939 
Q 1816 3084 2150 3084 
Q 2853 3084 3261 2657 
Q 3669 2231 3669 1497 
Q 3669 778 3244 343 
Q 2819 -91 2113 -91 
Q 1303 -91 875 529 
Q 447 1150 447 2328 
Q 447 3434 972 4092 
Q 1497 4750 2381 4750 
Q 2619 4750 2861 4703 
Q 3103 4656 3366 4563 
z
" transform="scale(0.015625)"/>
       </defs>
       <use xlink:href="#DejaVuSans-30"/>
       <use xlink:href="#DejaVuSans-2e" transform="translate(63.623047 0)"/>
       <use xlink:href="#DejaVuSans-30" transform="translate(95.410156 0)"/>
       <use xlink:href="#DejaVuSans-36" transform="translate(159.033203 0)"/>
      </g>
     </g>
    </g>
    <g id="xtick_5">
     <g id="line2d_9">
      <path d="M 280.020644 277.438281 
L 280.020644 21.558281 
" clip-path="url(#pf69c6e48f2)" style="fill: none; stroke-dasharray: 0.8,1.32; stroke-dashoffset: 0; stroke: #b0b0b0; stroke-width: 0.8"/>
     </g>
     <g id="line2d_10">
      <g>
       <use xlink:href="#mf1fba8c2f2" x="280.020644" y="277.438281" style="fill: #111111; stroke: #111111; stroke-width: 0.8"/>
      </g>
     </g>
     <g id="text_5">
      <!-- 0.08 -->
      <g style="fill: #111111" transform="translate(268.887831 292.036719) scale(0.1 -0.1)">
       <defs>
        <path id="DejaVuSans-38" d="M 2034 2216 
Q 1584 2216 1326 1975 
Q 1069 1734 1069 1313 
Q 1069 891 1326 650 
Q 1584 409 2034 409 
Q 2484 409 2743 651 
Q 3003 894 3003 1313 
Q 3003 1734 2745 1975 
Q 2488 2216 2034 2216 
z
M 1403 2484 
Q 997 2584 770 2862 
Q 544 3141 544 3541 
Q 544 4100 942 4425 
Q 1341 4750 2034 4750 
Q 2731 4750 3128 4425 
Q 3525 4100 3525 3541 
Q 3525 3141 3298 2862 
Q 3072 2584 2669 2484 
Q 3125 2378 3379 2068 
Q 3634 1759 3634 1313 
Q 3634 634 3220 271 
Q 2806 -91 2034 -91 
Q 1263 -91 848 271 
Q 434 634 434 1313 
Q 434 1759 690 2068 
Q 947 2378 1403 2484 
z
M 1172 3481 
Q 1172 3119 1398 2916 
Q 1625 2713 2034 2713 
Q 2441 2713 2670 2916 
Q 2900 3119 2900 3481 
Q 2900 3844 2670 4047 
Q 2441 4250 2034 4250 
Q 1625 4250 1398 4047 
Q 1172 3844 1172 3481 
z
" transform="scale(0.015625)"/>
       </defs>
       <use xlink:href="#DejaVuSans-30"/>
       <use xlink:href="#DejaVuSans-2e" transform="translate(63.623047 0)"/>
       <use xlink:href="#DejaVuSans-30" transform="translate(95.410156 0)"/>
       <use xlink:href="#DejaVuSans-38" transform="translate(159.033203 0)"/>
      </g>
     </g>
    </g>
    <g id="xtick_6">
     <g id="line2d_11">
      <path d="M 334.01822 277.438281 
L 334.01822 21.558281 
" clip-path="url(#pf69c6e48f2)" style="fill: none; stroke-dasharray: 0.8,1.32; stroke-dashoffset: 0; stroke: #b0b0b0; stroke-width: 0.8"/>
     </g>
     <g id="line2d_12">
      <g>
       <use xlink:href="#mf1fba8c2f2" x="334.01822" y="277.438281" style="fill: #111111; stroke: #111111; stroke-width: 0.8"/>
      </g>
     </g>
     <g id="text_6">
      <!-- 0.10 -->
      <g style="fill: #111111" transform="translate(322.885407 292.036719) scale(0.1 -0.1)">
       <defs>
        <path id="DejaVuSans-31" d="M 794 531 
L 1825 531 
L 1825 4091 
L 703 3866 
L 703 4441 
L 1819 4666 
L 2450 4666 
L 2450 531 
L 3481 531 
L 3481 0 
L 794 0 
L 794 531 
z
" transform="scale(0.015625)"/>
       </defs>
       <use xlink:href="#DejaVuSans-30"/>
       <use xlink:href="#DejaVuSans-2e" transform="translate(63.623047 0)"/>
       <use xlink:href="#DejaVuSans-31" transform="translate(95.410156 0)"/>
       <use xlink:href="#DejaVuSans-30" transform="translate(159.033203 0)"/>
      </g>
     </g>
    </g>
    <g id="xtick_7">
     <g id="line2d_13">
      <path d="M 388.015795 277.438281 
L 388.015795 21.558281 
" clip-path="url(#pf69c6e48f2)" style="fill: none; stroke-dasharray: 0.8,1.32; stroke-dashoffset: 0; stroke: #b0b0b0; stroke-width: 0.8"/>
     </g>
     <g id="line2d_14">
      <g>
       <use xlink:href="#mf1fba8c2f2" x="388.015795" y="277.438281" style="fill: #111111; stroke: #111111; stroke-width: 0.8"/>
      </g>
     </g>
     <g id="text_7">
      <!-- 0.12 -->
      <g style="fill: #111111" transform="translate(376.882983 292.036719) scale(0.1 -0.1)">
       <use xlink:href="#DejaVuSans-30"/>
       <use xlink:href="#DejaVuSans-2e" transform="translate(63.623047 0)"/>
       <use xlink:href="#DejaVuSans-31" transform="translate(95.410156 0)"/>
       <use xlink:href="#DejaVuSans-32" transform="translate(159.033203 0)"/>
      </g>
     </g>
    </g>
    <g id="xtick_8">
     <g id="line2d_15">
      <path d="M 442.013371 277.438281 
L 442.013371 21.558281 
" clip-path="url(#pf69c6e48f2)" style="fill: none; stroke-dasharray: 0.8,1.32; stroke-dashoffset: 0; stroke: #b0b0b0; stroke-width: 0.8"/>
     </g>
     <g id="line2d_16">
      <g>
       <use xlink:href="#mf1fba8c2f2" x="442.013371" y="277.438281" style="fill: #111111; stroke: #111111; stroke-width: 0.8"/>
      </g>
     </g>
     <g id="text_8">
      <!-- 0.14 -->
      <g style="fill: #111111" transform="translate(430.880559 292.036719) scale(0.1 -0.1)">
       <use xlink:href="#DejaVuSans-30"/>
       <use xlink:href="#DejaVuSans-2e" transform="translate(63.623047 0)"/>
       <use xlink:href="#DejaVuSans-31" transform="translate(95.410156 0)"/>
       <use xlink:href="#DejaVuSans-34" transform="translate(159.033203 0)"/>
      </g>
     </g>
    </g>
    <g id="text_9">
     <!-- Perturbation Level $\epsilon$ -->
     <g style="fill: #111111" transform="translate(216.17125 305.714844) scale(0.1 -0.1)">
      <defs>
       <path id="DejaVuSans-50" d="M 1259 4147 
L 1259 2394 
L 2053 2394 
Q 2494 2394 2734 2622 
Q 2975 2850 2975 3272 
Q 2975 3691 2734 3919 
Q 2494 4147 2053 4147 
L 1259 4147 
z
M 628 4666 
L 2053 4666 
Q 2838 4666 3239 4311 
Q 3641 3956 3641 3272 
Q 3641 2581 3239 2228 
Q 2838 1875 2053 1875 
L 1259 1875 
L 1259 0 
L 628 0 
L 628 4666 
z
" transform="scale(0.015625)"/>
       <path id="DejaVuSans-65" d="M 3597 1894 
L 3597 1613 
L 953 1613 
Q 991 1019 1311 708 
Q 1631 397 2203 397 
Q 2534 397 2845 478 
Q 3156 559 3463 722 
L 3463 178 
Q 3153 47 2828 -22 
Q 2503 -91 2169 -91 
Q 1331 -91 842 396 
Q 353 884 353 1716 
Q 353 2575 817 3079 
Q 1281 3584 2069 3584 
Q 2775 3584 3186 3129 
Q 3597 2675 3597 1894 
z
M 3022 2063 
Q 3016 2534 2758 2815 
Q 2500 3097 2075 3097 
Q 1594 3097 1305 2825 
Q 1016 2553 972 2059 
L 3022 2063 
z
" transform="scale(0.015625)"/>
       <path id="DejaVuSans-72" d="M 2631 2963 
Q 2534 3019 2420 3045 
Q 2306 3072 2169 3072 
Q 1681 3072 1420 2755 
Q 1159 2438 1159 1844 
L 1159 0 
L 581 0 
L 581 3500 
L 1159 3500 
L 1159 2956 
Q 1341 3275 1631 3429 
Q 1922 3584 2338 3584 
Q 2397 3584 2469 3576 
Q 2541 3569 2628 3553 
L 2631 2963 
z
" transform="scale(0.015625)"/>
       <path id="DejaVuSans-74" d="M 1172 4494 
L 1172 3500 
L 2356 3500 
L 2356 3053 
L 1172 3053 
L 1172 1153 
Q 1172 725 1289 603 
Q 1406 481 1766 481 
L 2356 481 
L 2356 0 
L 1766 0 
Q 1100 0 847 248 
Q 594 497 594 1153 
L 594 3053 
L 172 3053 
L 172 3500 
L 594 3500 
L 594 4494 
L 1172 4494 
z
" transform="scale(0.015625)"/>
       <path id="DejaVuSans-75" d="M 544 1381 
L 544 3500 
L 1119 3500 
L 1119 1403 
Q 1119 906 1312 657 
Q 1506 409 1894 409 
Q 2359 409 2629 706 
Q 2900 1003 2900 1516 
L 2900 3500 
L 3475 3500 
L 3475 0 
L 2900 0 
L 2900 538 
Q 2691 219 2414 64 
Q 2138 -91 1772 -91 
Q 1169 -91 856 284 
Q 544 659 544 1381 
z
M 1991 3584 
L 1991 3584 
z
" transform="scale(0.015625)"/>
       <path id="DejaVuSans-62" d="M 3116 1747 
Q 3116 2381 2855 2742 
Q 2594 3103 2138 3103 
Q 1681 3103 1420 2742 
Q 1159 2381 1159 1747 
Q 1159 1113 1420 752 
Q 1681 391 2138 391 
Q 2594 391 2855 752 
Q 3116 1113 3116 1747 
z
M 1159 2969 
Q 1341 3281 1617 3432 
Q 1894 3584 2278 3584 
Q 2916 3584 3314 3078 
Q 3713 2572 3713 1747 
Q 3713 922 3314 415 
Q 2916 -91 2278 -91 
Q 1894 -91 1617 61 
Q 1341 213 1159 525 
L 1159 0 
L 581 0 
L 581 4863 
L 1159 4863 
L 1159 2969 
z
" transform="scale(0.015625)"/>
       <path id="DejaVuSans-61" d="M 2194 1759 
Q 1497 1759 1228 1600 
Q 959 1441 959 1056 
Q 959 750 1161 570 
Q 1363 391 1709 391 
Q 2188 391 2477 730 
Q 2766 1069 2766 1631 
L 2766 1759 
L 2194 1759 
z
M 3341 1997 
L 3341 0 
L 2766 0 
L 2766 531 
Q 2569 213 2275 61 
Q 1981 -91 1556 -91 
Q 1019 -91 701 211 
Q 384 513 384 1019 
Q 384 1609 779 1909 
Q 1175 2209 1959 2209 
L 2766 2209 
L 2766 2266 
Q 2766 2663 2505 2880 
Q 2244 3097 1772 3097 
Q 1472 3097 1187 3025 
Q 903 2953 641 2809 
L 641 3341 
Q 956 3463 1253 3523 
Q 1550 3584 1831 3584 
Q 2591 3584 2966 3190 
Q 3341 2797 3341 1997 
z
" transform="scale(0.015625)"/>
       <path id="DejaVuSans-69" d="M 603 3500 
L 1178 3500 
L 1178 0 
L 603 0 
L 603 3500 
z
M 603 4863 
L 1178 4863 
L 1178 4134 
L 603 4134 
L 603 4863 
z
" transform="scale(0.015625)"/>
       <path id="DejaVuSans-6f" d="M 1959 3097 
Q 1497 3097 1228 2736 
Q 959 2375 959 1747 
Q 959 1119 1226 758 
Q 1494 397 1959 397 
Q 2419 397 2687 759 
Q 2956 1122 2956 1747 
Q 2956 2369 2687 2733 
Q 2419 3097 1959 3097 
z
M 1959 3584 
Q 2709 3584 3137 3096 
Q 3566 2609 3566 1747 
Q 3566 888 3137 398 
Q 2709 -91 1959 -91 
Q 1206 -91 779 398 
Q 353 888 353 1747 
Q 353 2609 779 3096 
Q 1206 3584 1959 3584 
z
" transform="scale(0.015625)"/>
       <path id="DejaVuSans-6e" d="M 3513 2113 
L 3513 0 
L 2938 0 
L 2938 2094 
Q 2938 2591 2744 2837 
Q 2550 3084 2163 3084 
Q 1697 3084 1428 2787 
Q 1159 2491 1159 1978 
L 1159 0 
L 581 0 
L 581 3500 
L 1159 3500 
L 1159 2956 
Q 1366 3272 1645 3428 
Q 1925 3584 2291 3584 
Q 2894 3584 3203 3211 
Q 3513 2838 3513 2113 
z
" transform="scale(0.015625)"/>
       <path id="DejaVuSans-20" transform="scale(0.015625)"/>
       <path id="DejaVuSans-4c" d="M 628 4666 
L 1259 4666 
L 1259 531 
L 3531 531 
L 3531 0 
L 628 0 
L 628 4666 
z
" transform="scale(0.015625)"/>
       <path id="DejaVuSans-76" d="M 191 3500 
L 800 3500 
L 1894 563 
L 2988 3500 
L 3597 3500 
L 2284 0 
L 1503 0 
L 191 3500 
z
" transform="scale(0.015625)"/>
       <path id="DejaVuSans-6c" d="M 603 4863 
L 1178 4863 
L 1178 0 
L 603 0 
L 603 4863 
z
" transform="scale(0.015625)"/>
       <path id="DejaVuSans-Oblique-3b5" d="M 1263 1888 
Q 925 1963 778 2166 
Q 669 2309 669 2503 
Q 669 3034 1175 3344 
Q 1575 3588 2188 3588 
Q 2425 3588 2684 3550 
Q 2944 3513 3234 3438 
L 3134 2916 
Q 2847 3006 2606 3047 
Q 2359 3088 2138 3088 
Q 1766 3088 1522 2944 
Q 1228 2772 1228 2522 
Q 1228 2356 1381 2241 
Q 1563 2103 1925 2103 
L 2409 2103 
L 2319 1628 
L 1856 1628 
Q 1425 1628 1172 1469 
Q 828 1253 828 916 
Q 828 703 1013 563 
Q 1244 388 1716 388 
Q 2006 388 2284 444 
Q 2563 503 2806 619 
L 2700 84 
Q 2403 -3 2131 -47 
Q 1859 -91 1609 -91 
Q 866 -91 516 194 
Q 250 413 250 781 
Q 250 1278 600 1584 
Q 859 1813 1263 1888 
z
" transform="scale(0.015625)"/>
      </defs>
      <use xlink:href="#DejaVuSans-50" transform="translate(0 0.015625)"/>
      <use xlink:href="#DejaVuSans-65" transform="translate(60.302734 0.015625)"/>
      <use xlink:href="#DejaVuSans-72" transform="translate(121.826172 0.015625)"/>
      <use xlink:href="#DejaVuSans-74" transform="translate(162.939453 0.015625)"/>
      <use xlink:href="#DejaVuSans-75" transform="translate(202.148438 0.015625)"/>
      <use xlink:href="#DejaVuSans-72" transform="translate(265.527344 0.015625)"/>
      <use xlink:href="#DejaVuSans-62" transform="translate(306.640625 0.015625)"/>
      <use xlink:href="#DejaVuSans-61" transform="translate(370.117188 0.015625)"/>
      <use xlink:href="#DejaVuSans-74" transform="translate(431.396484 0.015625)"/>
      <use xlink:href="#DejaVuSans-69" transform="translate(470.605469 0.015625)"/>
      <use xlink:href="#DejaVuSans-6f" transform="translate(498.388672 0.015625)"/>
      <use xlink:href="#DejaVuSans-6e" transform="translate(559.570312 0.015625)"/>
      <use xlink:href="#DejaVuSans-20" transform="translate(622.949219 0.015625)"/>
      <use xlink:href="#DejaVuSans-4c" transform="translate(654.736328 0.015625)"/>
      <use xlink:href="#DejaVuSans-65" transform="translate(710.449219 0.015625)"/>
      <use xlink:href="#DejaVuSans-76" transform="translate(771.972656 0.015625)"/>
      <use xlink:href="#DejaVuSans-65" transform="translate(831.152344 0.015625)"/>
      <use xlink:href="#DejaVuSans-6c" transform="translate(892.675781 0.015625)"/>
      <use xlink:href="#DejaVuSans-20" transform="translate(920.458984 0.015625)"/>
      <use xlink:href="#DejaVuSans-Oblique-3b5" transform="translate(952.246094 0.015625)"/>
     </g>
    </g>
   </g>
   <g id="matplotlib.axis_2">
    <g id="ytick_1">
     <g id="line2d_17">
      <path d="M 43.78125 277.438281 
L 489.26125 277.438281 
" clip-path="url(#pf69c6e48f2)" style="fill: none; stroke-dasharray: 0.8,1.32; stroke-dashoffset: 0; stroke: #b0b0b0; stroke-width: 0.8"/>
     </g>
     <g id="line2d_18">
      <defs>
       <path id="m4e515f6bd1" d="M 0 0 
L -3.5 0 
" style="stroke: #111111; stroke-width: 0.8"/>
      </defs>
      <g>
       <use xlink:href="#m4e515f6bd1" x="43.78125" y="277.438281" style="fill: #111111; stroke: #111111; stroke-width: 0.8"/>
      </g>
     </g>
     <g id="text_10">
      <!-- 0.4 -->
      <g style="fill: #111111" transform="translate(20.878125 281.2375) scale(0.1 -0.1)">
       <use xlink:href="#DejaVuSans-30"/>
       <use xlink:href="#DejaVuSans-2e" transform="translate(63.623047 0)"/>
       <use xlink:href="#DejaVuSans-34" transform="translate(95.410156 0)"/>
      </g>
     </g>
    </g>
    <g id="ytick_2">
     <g id="line2d_19">
      <path d="M 43.78125 238.072127 
L 489.26125 238.072127 
" clip-path="url(#pf69c6e48f2)" style="fill: none; stroke-dasharray: 0.8,1.32; stroke-dashoffset: 0; stroke: #b0b0b0; stroke-width: 0.8"/>
     </g>
     <g id="line2d_20">
      <g>
       <use xlink:href="#m4e515f6bd1" x="43.78125" y="238.072127" style="fill: #111111; stroke: #111111; stroke-width: 0.8"/>
      </g>
     </g>
     <g id="text_11">
      <!-- 0.5 -->
      <g style="fill: #111111" transform="translate(20.878125 241.871346) scale(0.1 -0.1)">
       <defs>
        <path id="DejaVuSans-35" d="M 691 4666 
L 3169 4666 
L 3169 4134 
L 1269 4134 
L 1269 2991 
Q 1406 3038 1543 3061 
Q 1681 3084 1819 3084 
Q 2600 3084 3056 2656 
Q 3513 2228 3513 1497 
Q 3513 744 3044 326 
Q 2575 -91 1722 -91 
Q 1428 -91 1123 -41 
Q 819 9 494 109 
L 494 744 
Q 775 591 1075 516 
Q 1375 441 1709 441 
Q 2250 441 2565 725 
Q 2881 1009 2881 1497 
Q 2881 1984 2565 2268 
Q 2250 2553 1709 2553 
Q 1456 2553 1204 2497 
Q 953 2441 691 2322 
L 691 4666 
z
" transform="scale(0.015625)"/>
       </defs>
       <use xlink:href="#DejaVuSans-30"/>
       <use xlink:href="#DejaVuSans-2e" transform="translate(63.623047 0)"/>
       <use xlink:href="#DejaVuSans-35" transform="translate(95.410156 0)"/>
      </g>
     </g>
    </g>
    <g id="ytick_3">
     <g id="line2d_21">
      <path d="M 43.78125 198.705974 
L 489.26125 198.705974 
" clip-path="url(#pf69c6e48f2)" style="fill: none; stroke-dasharray: 0.8,1.32; stroke-dashoffset: 0; stroke: #b0b0b0; stroke-width: 0.8"/>
     </g>
     <g id="line2d_22">
      <g>
       <use xlink:href="#m4e515f6bd1" x="43.78125" y="198.705974" style="fill: #111111; stroke: #111111; stroke-width: 0.8"/>
      </g>
     </g>
     <g id="text_12">
      <!-- 0.6 -->
      <g style="fill: #111111" transform="translate(20.878125 202.505192) scale(0.1 -0.1)">
       <use xlink:href="#DejaVuSans-30"/>
       <use xlink:href="#DejaVuSans-2e" transform="translate(63.623047 0)"/>
       <use xlink:href="#DejaVuSans-36" transform="translate(95.410156 0)"/>
      </g>
     </g>
    </g>
    <g id="ytick_4">
     <g id="line2d_23">
      <path d="M 43.78125 159.33982 
L 489.26125 159.33982 
" clip-path="url(#pf69c6e48f2)" style="fill: none; stroke-dasharray: 0.8,1.32; stroke-dashoffset: 0; stroke: #b0b0b0; stroke-width: 0.8"/>
     </g>
     <g id="line2d_24">
      <g>
       <use xlink:href="#m4e515f6bd1" x="43.78125" y="159.33982" style="fill: #111111; stroke: #111111; stroke-width: 0.8"/>
      </g>
     </g>
     <g id="text_13">
      <!-- 0.7 -->
      <g style="fill: #111111" transform="translate(20.878125 163.139038) scale(0.1 -0.1)">
       <defs>
        <path id="DejaVuSans-37" d="M 525 4666 
L 3525 4666 
L 3525 4397 
L 1831 0 
L 1172 0 
L 2766 4134 
L 525 4134 
L 525 4666 
z
" transform="scale(0.015625)"/>
       </defs>
       <use xlink:href="#DejaVuSans-30"/>
       <use xlink:href="#DejaVuSans-2e" transform="translate(63.623047 0)"/>
       <use xlink:href="#DejaVuSans-37" transform="translate(95.410156 0)"/>
      </g>
     </g>
    </g>
    <g id="ytick_5">
     <g id="line2d_25">
      <path d="M 43.78125 119.973666 
L 489.26125 119.973666 
" clip-path="url(#pf69c6e48f2)" style="fill: none; stroke-dasharray: 0.8,1.32; stroke-dashoffset: 0; stroke: #b0b0b0; stroke-width: 0.8"/>
     </g>
     <g id="line2d_26">
      <g>
       <use xlink:href="#m4e515f6bd1" x="43.78125" y="119.973666" style="fill: #111111; stroke: #111111; stroke-width: 0.8"/>
      </g>
     </g>
     <g id="text_14">
      <!-- 0.8 -->
      <g style="fill: #111111" transform="translate(20.878125 123.772885) scale(0.1 -0.1)">
       <use xlink:href="#DejaVuSans-30"/>
       <use xlink:href="#DejaVuSans-2e" transform="translate(63.623047 0)"/>
       <use xlink:href="#DejaVuSans-38" transform="translate(95.410156 0)"/>
      </g>
     </g>
    </g>
    <g id="ytick_6">
     <g id="line2d_27">
      <path d="M 43.78125 80.607512 
L 489.26125 80.607512 
" clip-path="url(#pf69c6e48f2)" style="fill: none; stroke-dasharray: 0.8,1.32; stroke-dashoffset: 0; stroke: #b0b0b0; stroke-width: 0.8"/>
     </g>
     <g id="line2d_28">
      <g>
       <use xlink:href="#m4e515f6bd1" x="43.78125" y="80.607512" style="fill: #111111; stroke: #111111; stroke-width: 0.8"/>
      </g>
     </g>
     <g id="text_15">
      <!-- 0.9 -->
      <g style="fill: #111111" transform="translate(20.878125 84.406731) scale(0.1 -0.1)">
       <defs>
        <path id="DejaVuSans-39" d="M 703 97 
L 703 672 
Q 941 559 1184 500 
Q 1428 441 1663 441 
Q 2288 441 2617 861 
Q 2947 1281 2994 2138 
Q 2813 1869 2534 1725 
Q 2256 1581 1919 1581 
Q 1219 1581 811 2004 
Q 403 2428 403 3163 
Q 403 3881 828 4315 
Q 1253 4750 1959 4750 
Q 2769 4750 3195 4129 
Q 3622 3509 3622 2328 
Q 3622 1225 3098 567 
Q 2575 -91 1691 -91 
Q 1453 -91 1209 -44 
Q 966 3 703 97 
z
M 1959 2075 
Q 2384 2075 2632 2365 
Q 2881 2656 2881 3163 
Q 2881 3666 2632 3958 
Q 2384 4250 1959 4250 
Q 1534 4250 1286 3958 
Q 1038 3666 1038 3163 
Q 1038 2656 1286 2365 
Q 1534 2075 1959 2075 
z
" transform="scale(0.015625)"/>
       </defs>
       <use xlink:href="#DejaVuSans-30"/>
       <use xlink:href="#DejaVuSans-2e" transform="translate(63.623047 0)"/>
       <use xlink:href="#DejaVuSans-39" transform="translate(95.410156 0)"/>
      </g>
     </g>
    </g>
    <g id="ytick_7">
     <g id="line2d_29">
      <path d="M 43.78125 41.241358 
L 489.26125 41.241358 
" clip-path="url(#pf69c6e48f2)" style="fill: none; stroke-dasharray: 0.8,1.32; stroke-dashoffset: 0; stroke: #b0b0b0; stroke-width: 0.8"/>
     </g>
     <g id="line2d_30">
      <g>
       <use xlink:href="#m4e515f6bd1" x="43.78125" y="41.241358" style="fill: #111111; stroke: #111111; stroke-width: 0.8"/>
      </g>
     </g>
     <g id="text_16">
      <!-- 1.0 -->
      <g style="fill: #111111" transform="translate(20.878125 45.040577) scale(0.1 -0.1)">
       <use xlink:href="#DejaVuSans-31"/>
       <use xlink:href="#DejaVuSans-2e" transform="translate(63.623047 0)"/>
       <use xlink:href="#DejaVuSans-30" transform="translate(95.410156 0)"/>
      </g>
     </g>
    </g>
    <g id="text_17">
     <!-- Gate Transmission Factor -->
     <g style="fill: #111111" transform="translate(14.798438 212.254531) rotate(-90) scale(0.1 -0.1)">
      <defs>
       <path id="DejaVuSans-47" d="M 3809 666 
L 3809 1919 
L 2778 1919 
L 2778 2438 
L 4434 2438 
L 4434 434 
Q 4069 175 3628 42 
Q 3188 -91 2688 -91 
Q 1594 -91 976 548 
Q 359 1188 359 2328 
Q 359 3472 976 4111 
Q 1594 4750 2688 4750 
Q 3144 4750 3555 4637 
Q 3966 4525 4313 4306 
L 4313 3634 
Q 3963 3931 3569 4081 
Q 3175 4231 2741 4231 
Q 1884 4231 1454 3753 
Q 1025 3275 1025 2328 
Q 1025 1384 1454 906 
Q 1884 428 2741 428 
Q 3075 428 3337 486 
Q 3600 544 3809 666 
z
" transform="scale(0.015625)"/>
       <path id="DejaVuSans-54" d="M -19 4666 
L 3928 4666 
L 3928 4134 
L 2272 4134 
L 2272 0 
L 1638 0 
L 1638 4134 
L -19 4134 
L -19 4666 
z
" transform="scale(0.015625)"/>
       <path id="DejaVuSans-73" d="M 2834 3397 
L 2834 2853 
Q 2591 2978 2328 3040 
Q 2066 3103 1784 3103 
Q 1356 3103 1142 2972 
Q 928 2841 928 2578 
Q 928 2378 1081 2264 
Q 1234 2150 1697 2047 
L 1894 2003 
Q 2506 1872 2764 1633 
Q 3022 1394 3022 966 
Q 3022 478 2636 193 
Q 2250 -91 1575 -91 
Q 1294 -91 989 -36 
Q 684 19 347 128 
L 347 722 
Q 666 556 975 473 
Q 1284 391 1588 391 
Q 1994 391 2212 530 
Q 2431 669 2431 922 
Q 2431 1156 2273 1281 
Q 2116 1406 1581 1522 
L 1381 1569 
Q 847 1681 609 1914 
Q 372 2147 372 2553 
Q 372 3047 722 3315 
Q 1072 3584 1716 3584 
Q 2034 3584 2315 3537 
Q 2597 3491 2834 3397 
z
" transform="scale(0.015625)"/>
       <path id="DejaVuSans-6d" d="M 3328 2828 
Q 3544 3216 3844 3400 
Q 4144 3584 4550 3584 
Q 5097 3584 5394 3201 
Q 5691 2819 5691 2113 
L 5691 0 
L 5113 0 
L 5113 2094 
Q 5113 2597 4934 2840 
Q 4756 3084 4391 3084 
Q 3944 3084 3684 2787 
Q 3425 2491 3425 1978 
L 3425 0 
L 2847 0 
L 2847 2094 
Q 2847 2600 2669 2842 
Q 2491 3084 2119 3084 
Q 1678 3084 1418 2786 
Q 1159 2488 1159 1978 
L 1159 0 
L 581 0 
L 581 3500 
L 1159 3500 
L 1159 2956 
Q 1356 3278 1631 3431 
Q 1906 3584 2284 3584 
Q 2666 3584 2933 3390 
Q 3200 3197 3328 2828 
z
" transform="scale(0.015625)"/>
       <path id="DejaVuSans-46" d="M 628 4666 
L 3309 4666 
L 3309 4134 
L 1259 4134 
L 1259 2759 
L 3109 2759 
L 3109 2228 
L 1259 2228 
L 1259 0 
L 628 0 
L 628 4666 
z
" transform="scale(0.015625)"/>
       <path id="DejaVuSans-63" d="M 3122 3366 
L 3122 2828 
Q 2878 2963 2633 3030 
Q 2388 3097 2138 3097 
Q 1578 3097 1268 2742 
Q 959 2388 959 1747 
Q 959 1106 1268 751 
Q 1578 397 2138 397 
Q 2388 397 2633 464 
Q 2878 531 3122 666 
L 3122 134 
Q 2881 22 2623 -34 
Q 2366 -91 2075 -91 
Q 1284 -91 818 406 
Q 353 903 353 1747 
Q 353 2603 823 3093 
Q 1294 3584 2113 3584 
Q 2378 3584 2631 3529 
Q 2884 3475 3122 3366 
z
" transform="scale(0.015625)"/>
      </defs>
      <use xlink:href="#DejaVuSans-47"/>
      <use xlink:href="#DejaVuSans-61" transform="translate(77.490234 0)"/>
      <use xlink:href="#DejaVuSans-74" transform="translate(138.769531 0)"/>
      <use xlink:href="#DejaVuSans-65" transform="translate(177.978516 0)"/>
      <use xlink:href="#DejaVuSans-20" transform="translate(239.501953 0)"/>
      <use xlink:href="#DejaVuSans-54" transform="translate(271.289062 0)"/>
      <use xlink:href="#DejaVuSans-72" transform="translate(317.623047 0)"/>
      <use xlink:href="#DejaVuSans-61" transform="translate(358.736328 0)"/>
      <use xlink:href="#DejaVuSans-6e" transform="translate(420.015625 0)"/>
      <use xlink:href="#DejaVuSans-73" transform="translate(483.394531 0)"/>
      <use xlink:href="#DejaVuSans-6d" transform="translate(535.494141 0)"/>
      <use xlink:href="#DejaVuSans-69" transform="translate(632.90625 0)"/>
      <use xlink:href="#DejaVuSans-73" transform="translate(660.689453 0)"/>
      <use xlink:href="#DejaVuSans-73" transform="translate(712.789062 0)"/>
      <use xlink:href="#DejaVuSans-69" transform="translate(764.888672 0)"/>
      <use xlink:href="#DejaVuSans-6f" transform="translate(792.671875 0)"/>
      <use xlink:href="#DejaVuSans-6e" transform="translate(853.853516 0)"/>
      <use xlink:href="#DejaVuSans-20" transform="translate(917.232422 0)"/>
      <use xlink:href="#DejaVuSans-46" transform="translate(949.019531 0)"/>
      <use xlink:href="#DejaVuSans-61" transform="translate(997.414062 0)"/>
      <use xlink:href="#DejaVuSans-63" transform="translate(1058.693359 0)"/>
      <use xlink:href="#DejaVuSans-74" transform="translate(1113.673828 0)"/>
      <use xlink:href="#DejaVuSans-6f" transform="translate(1152.882812 0)"/>
      <use xlink:href="#DejaVuSans-72" transform="translate(1214.064453 0)"/>
     </g>
    </g>
   </g>
   <g id="line2d_31">
    <path d="M 64.030341 60.924435 
L 68.121066 60.926443 
L 72.211792 60.932468 
L 76.302517 60.94251 
L 80.393243 60.956567 
L 84.483968 60.974642 
L 88.574694 60.996733 
L 92.665419 61.02284 
L 96.756144 61.052965 
L 100.84687 61.087105 
L 104.937595 61.125262 
L 109.028321 61.167436 
L 113.119046 61.213626 
L 117.209772 61.263833 
L 121.300497 61.318056 
L 125.391222 61.376296 
L 129.481948 61.438553 
L 133.572673 61.504826 
L 137.663399 61.575115 
L 141.754124 61.649421 
L 145.84485 61.727744 
L 149.935575 61.810083 
L 154.026301 61.896439 
L 158.117026 61.986811 
L 162.207751 62.0812 
L 166.298477 62.179605 
L 170.389202 62.282027 
L 174.479928 62.388466 
L 178.570653 62.498921 
L 182.661379 62.613392 
L 186.752104 62.73188 
L 190.842829 62.854385 
L 194.933555 62.980906 
L 199.02428 63.111444 
L 203.115006 63.245998 
L 207.205731 63.384569 
L 211.296457 63.527156 
L 215.387182 63.67376 
L 219.477907 63.82438 
L 223.568633 63.979017 
L 227.659358 64.137671 
L 231.750084 64.300341 
L 235.840809 64.467027 
L 239.931535 64.637731 
L 244.02226 64.81245 
L 248.112986 64.991187 
L 252.203711 65.173939 
L 256.294436 65.360709 
L 260.385162 65.551495 
L 264.475887 65.746297 
L 268.566613 65.945116 
L 272.657338 66.147951 
L 276.748064 66.354803 
L 280.838789 66.565672 
L 284.929514 66.780557 
L 289.02024 66.999459 
L 293.110965 67.222377 
L 297.201691 67.449312 
L 301.292416 67.680263 
L 305.383142 67.915231 
L 309.473867 68.154215 
L 313.564593 68.397216 
L 317.655318 68.644234 
L 321.746043 68.895268 
L 325.836769 69.150318 
L 329.927494 69.409386 
L 334.01822 69.672469 
L 338.108945 69.93957 
L 342.199671 70.210686 
L 346.290396 70.48582 
L 350.381121 70.764969 
L 354.471847 71.048136 
L 358.562572 71.335319 
L 362.653298 71.626518 
L 366.744023 71.921734 
L 370.834749 72.220967 
L 374.925474 72.524216 
L 379.016199 72.831482 
L 383.106925 73.142764 
L 387.19765 73.458063 
L 391.288376 73.777378 
L 395.379101 74.10071 
L 399.469827 74.428058 
L 403.560552 74.759423 
L 407.651278 75.094805 
L 411.742003 75.434203 
L 415.832728 75.777617 
L 419.923454 76.125048 
L 424.014179 76.476496 
L 428.104905 76.83196 
L 432.19563 77.191441 
L 436.286356 77.554938 
L 440.377081 77.922452 
L 444.467806 78.293982 
L 448.558532 78.669529 
L 452.649257 79.049093 
L 456.739983 79.432673 
L 460.830708 79.820269 
L 464.921434 80.211882 
L 469.012159 80.607512 
" clip-path="url(#pf69c6e48f2)" style="fill: none; stroke: #2196f3; stroke-width: 2.5; stroke-linecap: square"/>
   </g>
   <g id="patch_3">
    <path d="M 43.78125 277.438281 
L 43.78125 21.558281 
" style="fill: none; stroke: #111111; stroke-width: 0.8; stroke-linejoin: miter; stroke-linecap: square"/>
   </g>
   <g id="patch_4">
    <path d="M 489.26125 277.438281 
L 489.26125 21.558281 
" style="fill: none; stroke: #111111; stroke-width: 0.8; stroke-linejoin: miter; stroke-linecap: square"/>
   </g>
   <g id="patch_5">
    <path d="M 43.78125 277.438281 
L 489.26125 277.438281 
" style="fill: none; stroke: #111111; stroke-width: 0.8; stroke-linejoin: miter; stroke-linecap: square"/>
   </g>
   <g id="patch_6">
    <path d="M 43.78125 21.558281 
L 489.26125 21.558281 
" style="fill: none; stroke: #111111; stroke-width: 0.8; stroke-linejoin: miter; stroke-linecap: square"/>
   </g>
   <g id="text_18">
    <!-- Low-Frequency Gating Robustness Across Noise Scales -->
    <g style="fill: #111111" transform="translate(95.906953 15.558281) scale(0.11 -0.11)">
     <defs>
      <path id="DejaVuSans-Bold-4c" d="M 588 4666 
L 1791 4666 
L 1791 909 
L 3903 909 
L 3903 0 
L 588 0 
L 588 4666 
z
" transform="scale(0.015625)"/>
      <path id="DejaVuSans-Bold-6f" d="M 2203 2784 
Q 1831 2784 1636 2517 
Q 1441 2250 1441 1747 
Q 1441 1244 1636 976 
Q 1831 709 2203 709 
Q 2569 709 2762 976 
Q 2956 1244 2956 1747 
Q 2956 2250 2762 2517 
Q 2569 2784 2203 2784 
z
M 2203 3584 
Q 3106 3584 3614 3096 
Q 4122 2609 4122 1747 
Q 4122 884 3614 396 
Q 3106 -91 2203 -91 
Q 1297 -91 786 396 
Q 275 884 275 1747 
Q 275 2609 786 3096 
Q 1297 3584 2203 3584 
z
" transform="scale(0.015625)"/>
      <path id="DejaVuSans-Bold-77" d="M 225 3500 
L 1313 3500 
L 1900 1088 
L 2491 3500 
L 3425 3500 
L 4013 1113 
L 4603 3500 
L 5691 3500 
L 4769 0 
L 3547 0 
L 2956 2406 
L 2369 0 
L 1147 0 
L 225 3500 
z
" transform="scale(0.015625)"/>
      <path id="DejaVuSans-Bold-2d" d="M 347 2297 
L 2309 2297 
L 2309 1388 
L 347 1388 
L 347 2297 
z
" transform="scale(0.015625)"/>
      <path id="DejaVuSans-Bold-46" d="M 588 4666 
L 3834 4666 
L 3834 3756 
L 1791 3756 
L 1791 2888 
L 3713 2888 
L 3713 1978 
L 1791 1978 
L 1791 0 
L 588 0 
L 588 4666 
z
" transform="scale(0.015625)"/>
      <path id="DejaVuSans-Bold-72" d="M 3138 2547 
Q 2991 2616 2845 2648 
Q 2700 2681 2553 2681 
Q 2122 2681 1889 2404 
Q 1656 2128 1656 1613 
L 1656 0 
L 538 0 
L 538 3500 
L 1656 3500 
L 1656 2925 
Q 1872 3269 2151 3426 
Q 2431 3584 2822 3584 
Q 2878 3584 2943 3579 
Q 3009 3575 3134 3559 
L 3138 2547 
z
" transform="scale(0.015625)"/>
      <path id="DejaVuSans-Bold-65" d="M 4031 1759 
L 4031 1441 
L 1416 1441 
Q 1456 1047 1700 850 
Q 1944 653 2381 653 
Q 2734 653 3104 758 
Q 3475 863 3866 1075 
L 3866 213 
Q 3469 63 3072 -14 
Q 2675 -91 2278 -91 
Q 1328 -91 801 392 
Q 275 875 275 1747 
Q 275 2603 792 3093 
Q 1309 3584 2216 3584 
Q 3041 3584 3536 3087 
Q 4031 2591 4031 1759 
z
M 2881 2131 
Q 2881 2450 2695 2645 
Q 2509 2841 2209 2841 
Q 1884 2841 1681 2658 
Q 1478 2475 1428 2131 
L 2881 2131 
z
" transform="scale(0.015625)"/>
      <path id="DejaVuSans-Bold-71" d="M 2181 2772 
Q 1825 2772 1636 2509 
Q 1447 2247 1447 1747 
Q 1447 1247 1636 984 
Q 1825 722 2181 722 
Q 2541 722 2730 984 
Q 2919 1247 2919 1747 
Q 2919 2247 2730 2509 
Q 2541 2772 2181 2772 
z
M 2919 506 
Q 2688 197 2409 53 
Q 2131 -91 1766 -91 
Q 1119 -91 703 423 
Q 288 938 288 1747 
Q 288 2556 703 3067 
Q 1119 3578 1766 3578 
Q 2131 3578 2409 3434 
Q 2688 3291 2919 2981 
L 2919 3500 
L 4044 3500 
L 4044 -1331 
L 2919 -1331 
L 2919 506 
z
" transform="scale(0.015625)"/>
      <path id="DejaVuSans-Bold-75" d="M 500 1363 
L 500 3500 
L 1625 3500 
L 1625 3150 
Q 1625 2866 1622 2436 
Q 1619 2006 1619 1863 
Q 1619 1441 1641 1255 
Q 1663 1069 1716 984 
Q 1784 875 1895 815 
Q 2006 756 2150 756 
Q 2500 756 2700 1025 
Q 2900 1294 2900 1772 
L 2900 3500 
L 4019 3500 
L 4019 0 
L 2900 0 
L 2900 506 
Q 2647 200 2364 54 
Q 2081 -91 1741 -91 
Q 1134 -91 817 281 
Q 500 653 500 1363 
z
" transform="scale(0.015625)"/>
      <path id="DejaVuSans-Bold-6e" d="M 4056 2131 
L 4056 0 
L 2931 0 
L 2931 347 
L 2931 1631 
Q 2931 2084 2911 2256 
Q 2891 2428 2841 2509 
Q 2775 2619 2662 2680 
Q 2550 2741 2406 2741 
Q 2056 2741 1856 2470 
Q 1656 2200 1656 1722 
L 1656 0 
L 538 0 
L 538 3500 
L 1656 3500 
L 1656 2988 
Q 1909 3294 2193 3439 
Q 2478 3584 2822 3584 
Q 3428 3584 3742 3212 
Q 4056 2841 4056 2131 
z
" transform="scale(0.015625)"/>
      <path id="DejaVuSans-Bold-63" d="M 3366 3391 
L 3366 2478 
Q 3138 2634 2908 2709 
Q 2678 2784 2431 2784 
Q 1963 2784 1702 2511 
Q 1441 2238 1441 1747 
Q 1441 1256 1702 982 
Q 1963 709 2431 709 
Q 2694 709 2930 787 
Q 3166 866 3366 1019 
L 3366 103 
Q 3103 6 2833 -42 
Q 2563 -91 2291 -91 
Q 1344 -91 809 395 
Q 275 881 275 1747 
Q 275 2613 809 3098 
Q 1344 3584 2291 3584 
Q 2566 3584 2833 3536 
Q 3100 3488 3366 3391 
z
" transform="scale(0.015625)"/>
      <path id="DejaVuSans-Bold-79" d="M 78 3500 
L 1197 3500 
L 2138 1125 
L 2938 3500 
L 4056 3500 
L 2584 -331 
Q 2363 -916 2067 -1148 
Q 1772 -1381 1288 -1381 
L 641 -1381 
L 641 -647 
L 991 -647 
Q 1275 -647 1404 -556 
Q 1534 -466 1606 -231 
L 1638 -134 
L 78 3500 
z
" transform="scale(0.015625)"/>
      <path id="DejaVuSans-Bold-20" transform="scale(0.015625)"/>
      <path id="DejaVuSans-Bold-47" d="M 4781 347 
Q 4331 128 3847 18 
Q 3363 -91 2847 -91 
Q 1681 -91 1000 561 
Q 319 1213 319 2328 
Q 319 3456 1012 4103 
Q 1706 4750 2913 4750 
Q 3378 4750 3804 4662 
Q 4231 4575 4609 4403 
L 4609 3438 
Q 4219 3659 3833 3768 
Q 3447 3878 3059 3878 
Q 2341 3878 1952 3476 
Q 1563 3075 1563 2328 
Q 1563 1588 1938 1184 
Q 2313 781 3003 781 
Q 3191 781 3352 804 
Q 3513 828 3641 878 
L 3641 1784 
L 2906 1784 
L 2906 2591 
L 4781 2591 
L 4781 347 
z
" transform="scale(0.015625)"/>
      <path id="DejaVuSans-Bold-61" d="M 2106 1575 
Q 1756 1575 1579 1456 
Q 1403 1338 1403 1106 
Q 1403 894 1545 773 
Q 1688 653 1941 653 
Q 2256 653 2472 879 
Q 2688 1106 2688 1447 
L 2688 1575 
L 2106 1575 
z
M 3816 1997 
L 3816 0 
L 2688 0 
L 2688 519 
Q 2463 200 2181 54 
Q 1900 -91 1497 -91 
Q 953 -91 614 226 
Q 275 544 275 1050 
Q 275 1666 698 1953 
Q 1122 2241 2028 2241 
L 2688 2241 
L 2688 2328 
Q 2688 2594 2478 2717 
Q 2269 2841 1825 2841 
Q 1466 2841 1156 2769 
Q 847 2697 581 2553 
L 581 3406 
Q 941 3494 1303 3539 
Q 1666 3584 2028 3584 
Q 2975 3584 3395 3211 
Q 3816 2838 3816 1997 
z
" transform="scale(0.015625)"/>
      <path id="DejaVuSans-Bold-74" d="M 1759 4494 
L 1759 3500 
L 2913 3500 
L 2913 2700 
L 1759 2700 
L 1759 1216 
Q 1759 972 1856 886 
Q 1953 800 2241 800 
L 2816 800 
L 2816 0 
L 1856 0 
Q 1194 0 917 276 
Q 641 553 641 1216 
L 641 2700 
L 84 2700 
L 84 3500 
L 641 3500 
L 641 4494 
L 1759 4494 
z
" transform="scale(0.015625)"/>
      <path id="DejaVuSans-Bold-69" d="M 538 3500 
L 1656 3500 
L 1656 0 
L 538 0 
L 538 3500 
z
M 538 4863 
L 1656 4863 
L 1656 3950 
L 538 3950 
L 538 4863 
z
" transform="scale(0.015625)"/>
      <path id="DejaVuSans-Bold-67" d="M 2919 594 
Q 2688 288 2409 144 
Q 2131 0 1766 0 
Q 1125 0 706 504 
Q 288 1009 288 1791 
Q 288 2575 706 3076 
Q 1125 3578 1766 3578 
Q 2131 3578 2409 3434 
Q 2688 3291 2919 2981 
L 2919 3500 
L 4044 3500 
L 4044 353 
Q 4044 -491 3511 -936 
Q 2978 -1381 1966 -1381 
Q 1638 -1381 1331 -1331 
Q 1025 -1281 716 -1178 
L 716 -306 
Q 1009 -475 1290 -558 
Q 1572 -641 1856 -641 
Q 2406 -641 2662 -400 
Q 2919 -159 2919 353 
L 2919 594 
z
M 2181 2772 
Q 1834 2772 1640 2515 
Q 1447 2259 1447 1791 
Q 1447 1309 1634 1061 
Q 1822 813 2181 813 
Q 2531 813 2725 1069 
Q 2919 1325 2919 1791 
Q 2919 2259 2725 2515 
Q 2531 2772 2181 2772 
z
" transform="scale(0.015625)"/>
      <path id="DejaVuSans-Bold-52" d="M 2297 2597 
Q 2675 2597 2839 2737 
Q 3003 2878 3003 3200 
Q 3003 3519 2839 3656 
Q 2675 3794 2297 3794 
L 1791 3794 
L 1791 2597 
L 2297 2597 
z
M 1791 1766 
L 1791 0 
L 588 0 
L 588 4666 
L 2425 4666 
Q 3347 4666 3776 4356 
Q 4206 4047 4206 3378 
Q 4206 2916 3982 2619 
Q 3759 2322 3309 2181 
Q 3556 2125 3751 1926 
Q 3947 1728 4147 1325 
L 4800 0 
L 3519 0 
L 2950 1159 
Q 2778 1509 2601 1637 
Q 2425 1766 2131 1766 
L 1791 1766 
z
" transform="scale(0.015625)"/>
      <path id="DejaVuSans-Bold-62" d="M 2400 722 
Q 2759 722 2948 984 
Q 3138 1247 3138 1747 
Q 3138 2247 2948 2509 
Q 2759 2772 2400 2772 
Q 2041 2772 1848 2508 
Q 1656 2244 1656 1747 
Q 1656 1250 1848 986 
Q 2041 722 2400 722 
z
M 1656 2988 
Q 1888 3294 2169 3439 
Q 2450 3584 2816 3584 
Q 3463 3584 3878 3070 
Q 4294 2556 4294 1747 
Q 4294 938 3878 423 
Q 3463 -91 2816 -91 
Q 2450 -91 2169 54 
Q 1888 200 1656 506 
L 1656 0 
L 538 0 
L 538 4863 
L 1656 4863 
L 1656 2988 
z
" transform="scale(0.015625)"/>
      <path id="DejaVuSans-Bold-73" d="M 3272 3391 
L 3272 2541 
Q 2913 2691 2578 2766 
Q 2244 2841 1947 2841 
Q 1628 2841 1473 2761 
Q 1319 2681 1319 2516 
Q 1319 2381 1436 2309 
Q 1553 2238 1856 2203 
L 2053 2175 
Q 2913 2066 3209 1816 
Q 3506 1566 3506 1031 
Q 3506 472 3093 190 
Q 2681 -91 1863 -91 
Q 1516 -91 1145 -36 
Q 775 19 384 128 
L 384 978 
Q 719 816 1070 734 
Q 1422 653 1784 653 
Q 2113 653 2278 743 
Q 2444 834 2444 1013 
Q 2444 1163 2330 1236 
Q 2216 1309 1875 1350 
L 1678 1375 
Q 931 1469 631 1722 
Q 331 1975 331 2491 
Q 331 3047 712 3315 
Q 1094 3584 1881 3584 
Q 2191 3584 2531 3537 
Q 2872 3491 3272 3391 
z
" transform="scale(0.015625)"/>
      <path id="DejaVuSans-Bold-41" d="M 3419 850 
L 1538 850 
L 1241 0 
L 31 0 
L 1759 4666 
L 3194 4666 
L 4922 0 
L 3713 0 
L 3419 850 
z
M 1838 1716 
L 3116 1716 
L 2478 3572 
L 1838 1716 
z
" transform="scale(0.015625)"/>
      <path id="DejaVuSans-Bold-4e" d="M 588 4666 
L 1931 4666 
L 3628 1466 
L 3628 4666 
L 4769 4666 
L 4769 0 
L 3425 0 
L 1728 3200 
L 1728 0 
L 588 0 
L 588 4666 
z
" transform="scale(0.015625)"/>
      <path id="DejaVuSans-Bold-53" d="M 3834 4519 
L 3834 3531 
Q 3450 3703 3084 3790 
Q 2719 3878 2394 3878 
Q 1963 3878 1756 3759 
Q 1550 3641 1550 3391 
Q 1550 3203 1689 3098 
Q 1828 2994 2194 2919 
L 2706 2816 
Q 3484 2659 3812 2340 
Q 4141 2022 4141 1434 
Q 4141 663 3683 286 
Q 3225 -91 2284 -91 
Q 1841 -91 1394 -6 
Q 947 78 500 244 
L 500 1259 
Q 947 1022 1364 901 
Q 1781 781 2169 781 
Q 2563 781 2772 912 
Q 2981 1044 2981 1288 
Q 2981 1506 2839 1625 
Q 2697 1744 2272 1838 
L 1806 1941 
Q 1106 2091 782 2419 
Q 459 2747 459 3303 
Q 459 4000 909 4375 
Q 1359 4750 2203 4750 
Q 2588 4750 2994 4692 
Q 3400 4634 3834 4519 
z
" transform="scale(0.015625)"/>
      <path id="DejaVuSans-Bold-6c" d="M 538 4863 
L 1656 4863 
L 1656 0 
L 538 0 
L 538 4863 
z
" transform="scale(0.015625)"/>
     </defs>
     <use xlink:href="#DejaVuSans-Bold-4c"/>
     <use xlink:href="#DejaVuSans-Bold-6f" transform="translate(63.720703 0)"/>
     <use xlink:href="#DejaVuSans-Bold-77" transform="translate(132.421875 0)"/>
     <use xlink:href="#DejaVuSans-Bold-2d" transform="translate(224.804688 0)"/>
     <use xlink:href="#DejaVuSans-Bold-46" transform="translate(266.308594 0)"/>
     <use xlink:href="#DejaVuSans-Bold-72" transform="translate(328.244141 0)"/>
     <use xlink:href="#DejaVuSans-Bold-65" transform="translate(377.560547 0)"/>
     <use xlink:href="#DejaVuSans-Bold-71" transform="translate(445.382812 0)"/>
     <use xlink:href="#DejaVuSans-Bold-75" transform="translate(516.964844 0)"/>
     <use xlink:href="#DejaVuSans-Bold-65" transform="translate(588.15625 0)"/>
     <use xlink:href="#DejaVuSans-Bold-6e" transform="translate(655.978516 0)"/>
     <use xlink:href="#DejaVuSans-Bold-63" transform="translate(727.169922 0)"/>
     <use xlink:href="#DejaVuSans-Bold-79" transform="translate(786.447266 0)"/>
     <use xlink:href="#DejaVuSans-Bold-20" transform="translate(851.632812 0)"/>
     <use xlink:href="#DejaVuSans-Bold-47" transform="translate(886.447266 0)"/>
     <use xlink:href="#DejaVuSans-Bold-61" transform="translate(968.527344 0)"/>
     <use xlink:href="#DejaVuSans-Bold-74" transform="translate(1036.007812 0)"/>
     <use xlink:href="#DejaVuSans-Bold-69" transform="translate(1083.810547 0)"/>
     <use xlink:href="#DejaVuSans-Bold-6e" transform="translate(1118.087891 0)"/>
     <use xlink:href="#DejaVuSans-Bold-67" transform="translate(1189.279297 0)"/>
     <use xlink:href="#DejaVuSans-Bold-20" transform="translate(1260.861328 0)"/>
     <use xlink:href="#DejaVuSans-Bold-52" transform="translate(1295.675781 0)"/>
     <use xlink:href="#DejaVuSans-Bold-6f" transform="translate(1372.677734 0)"/>
     <use xlink:href="#DejaVuSans-Bold-62" transform="translate(1441.378906 0)"/>
     <use xlink:href="#DejaVuSans-Bold-75" transform="translate(1512.960938 0)"/>
     <use xlink:href="#DejaVuSans-Bold-73" transform="translate(1584.152344 0)"/>
     <use xlink:href="#DejaVuSans-Bold-74" transform="translate(1643.673828 0)"/>
     <use xlink:href="#DejaVuSans-Bold-6e" transform="translate(1691.476562 0)"/>
     <use xlink:href="#DejaVuSans-Bold-65" transform="translate(1762.667969 0)"/>
     <use xlink:href="#DejaVuSans-Bold-73" transform="translate(1830.490234 0)"/>
     <use xlink:href="#DejaVuSans-Bold-73" transform="translate(1890.011719 0)"/>
     <use xlink:href="#DejaVuSans-Bold-20" transform="translate(1949.533203 0)"/>
     <use xlink:href="#DejaVuSans-Bold-41" transform="translate(1984.347656 0)"/>
     <use xlink:href="#DejaVuSans-Bold-63" transform="translate(2061.740234 0)"/>
     <use xlink:href="#DejaVuSans-Bold-72" transform="translate(2121.017578 0)"/>
     <use xlink:href="#DejaVuSans-Bold-6f" transform="translate(2170.333984 0)"/>
     <use xlink:href="#DejaVuSans-Bold-73" transform="translate(2239.035156 0)"/>
     <use xlink:href="#DejaVuSans-Bold-73" transform="translate(2298.556641 0)"/>
     <use xlink:href="#DejaVuSans-Bold-20" transform="translate(2358.078125 0)"/>
     <use xlink:href="#DejaVuSans-Bold-4e" transform="translate(2392.892578 0)"/>
     <use xlink:href="#DejaVuSans-Bold-6f" transform="translate(2476.583984 0)"/>
     <use xlink:href="#DejaVuSans-Bold-69" transform="translate(2545.285156 0)"/>
     <use xlink:href="#DejaVuSans-Bold-73" transform="translate(2579.5625 0)"/>
     <use xlink:href="#DejaVuSans-Bold-65" transform="translate(2639.083984 0)"/>
     <use xlink:href="#DejaVuSans-Bold-20" transform="translate(2706.90625 0)"/>
     <use xlink:href="#DejaVuSans-Bold-53" transform="translate(2741.720703 0)"/>
     <use xlink:href="#DejaVuSans-Bold-63" transform="translate(2813.742188 0)"/>
     <use xlink:href="#DejaVuSans-Bold-61" transform="translate(2873.019531 0)"/>
     <use xlink:href="#DejaVuSans-Bold-6c" transform="translate(2940.5 0)"/>
     <use xlink:href="#DejaVuSans-Bold-65" transform="translate(2974.777344 0)"/>
     <use xlink:href="#DejaVuSans-Bold-73" transform="translate(3042.599609 0)"/>
    </g>
   </g>
   <g id="legend_1">
    <g id="patch_7">
     <path d="M 285.06125 44.258281 
L 482.26125 44.258281 
Q 484.26125 44.258281 484.26125 42.258281 
L 484.26125 28.558281 
Q 484.26125 26.558281 482.26125 26.558281 
L 285.06125 26.558281 
Q 283.06125 26.558281 283.06125 28.558281 
L 283.06125 42.258281 
Q 283.06125 44.258281 285.06125 44.258281 
z
" style="fill: #ffffff; opacity: 0.8; stroke: #cccccc; stroke-linejoin: miter"/>
    </g>
    <g id="line2d_32">
     <path d="M 287.06125 34.658281 
L 297.06125 34.658281 
L 307.06125 34.658281 
" style="fill: none; stroke: #2196f3; stroke-width: 2.5; stroke-linecap: square"/>
    </g>
    <g id="text_19">
     <!-- Low-Frequency Gate Weight ($w_L$) -->
     <g style="fill: #111111" transform="translate(315.06125 38.158281) scale(0.1 -0.1)">
      <defs>
       <path id="DejaVuSans-77" d="M 269 3500 
L 844 3500 
L 1563 769 
L 2278 3500 
L 2956 3500 
L 3675 769 
L 4391 3500 
L 4966 3500 
L 4050 0 
L 3372 0 
L 2619 2869 
L 1863 0 
L 1184 0 
L 269 3500 
z
" transform="scale(0.015625)"/>
       <path id="DejaVuSans-2d" d="M 313 2009 
L 1997 2009 
L 1997 1497 
L 313 1497 
L 313 2009 
z
" transform="scale(0.015625)"/>
       <path id="DejaVuSans-71" d="M 947 1747 
Q 947 1113 1208 752 
Q 1469 391 1925 391 
Q 2381 391 2643 752 
Q 2906 1113 2906 1747 
Q 2906 2381 2643 2742 
Q 2381 3103 1925 3103 
Q 1469 3103 1208 2742 
Q 947 2381 947 1747 
z
M 2906 525 
Q 2725 213 2448 61 
Q 2172 -91 1784 -91 
Q 1150 -91 751 415 
Q 353 922 353 1747 
Q 353 2572 751 3078 
Q 1150 3584 1784 3584 
Q 2172 3584 2448 3432 
Q 2725 3281 2906 2969 
L 2906 3500 
L 3481 3500 
L 3481 -1331 
L 2906 -1331 
L 2906 525 
z
" transform="scale(0.015625)"/>
       <path id="DejaVuSans-79" d="M 2059 -325 
Q 1816 -950 1584 -1140 
Q 1353 -1331 966 -1331 
L 506 -1331 
L 506 -850 
L 844 -850 
Q 1081 -850 1212 -737 
Q 1344 -625 1503 -206 
L 1606 56 
L 191 3500 
L 800 3500 
L 1894 763 
L 2988 3500 
L 3597 3500 
L 2059 -325 
z
" transform="scale(0.015625)"/>
       <path id="DejaVuSans-57" d="M 213 4666 
L 850 4666 
L 1831 722 
L 2809 4666 
L 3519 4666 
L 4500 722 
L 5478 4666 
L 6119 4666 
L 4947 0 
L 4153 0 
L 3169 4050 
L 2175 0 
L 1381 0 
L 213 4666 
z
" transform="scale(0.015625)"/>
       <path id="DejaVuSans-67" d="M 2906 1791 
Q 2906 2416 2648 2759 
Q 2391 3103 1925 3103 
Q 1463 3103 1205 2759 
Q 947 2416 947 1791 
Q 947 1169 1205 825 
Q 1463 481 1925 481 
Q 2391 481 2648 825 
Q 2906 1169 2906 1791 
z
M 3481 434 
Q 3481 -459 3084 -895 
Q 2688 -1331 1869 -1331 
Q 1566 -1331 1297 -1286 
Q 1028 -1241 775 -1147 
L 775 -588 
Q 1028 -725 1275 -790 
Q 1522 -856 1778 -856 
Q 2344 -856 2625 -561 
Q 2906 -266 2906 331 
L 2906 616 
Q 2728 306 2450 153 
Q 2172 0 1784 0 
Q 1141 0 747 490 
Q 353 981 353 1791 
Q 353 2603 747 3093 
Q 1141 3584 1784 3584 
Q 2172 3584 2450 3431 
Q 2728 3278 2906 2969 
L 2906 3500 
L 3481 3500 
L 3481 434 
z
" transform="scale(0.015625)"/>
       <path id="DejaVuSans-68" d="M 3513 2113 
L 3513 0 
L 2938 0 
L 2938 2094 
Q 2938 2591 2744 2837 
Q 2550 3084 2163 3084 
Q 1697 3084 1428 2787 
Q 1159 2491 1159 1978 
L 1159 0 
L 581 0 
L 581 4863 
L 1159 4863 
L 1159 2956 
Q 1366 3272 1645 3428 
Q 1925 3584 2291 3584 
Q 2894 3584 3203 3211 
Q 3513 2838 3513 2113 
z
" transform="scale(0.015625)"/>
       <path id="DejaVuSans-28" d="M 1984 4856 
Q 1566 4138 1362 3434 
Q 1159 2731 1159 2009 
Q 1159 1288 1364 580 
Q 1569 -128 1984 -844 
L 1484 -844 
Q 1016 -109 783 600 
Q 550 1309 550 2009 
Q 550 2706 781 3412 
Q 1013 4119 1484 4856 
L 1984 4856 
z
" transform="scale(0.015625)"/>
       <path id="DejaVuSans-Oblique-77" d="M 544 3500 
L 1113 3500 
L 1259 684 
L 2566 3500 
L 3231 3500 
L 3425 684 
L 4666 3500 
L 5241 3500 
L 3641 0 
L 2969 0 
L 2797 2900 
L 1459 0 
L 781 0 
L 544 3500 
z
" transform="scale(0.015625)"/>
       <path id="DejaVuSans-Oblique-4c" d="M 1075 4666 
L 1709 4666 
L 909 525 
L 3181 525 
L 3078 0 
L 172 0 
L 1075 4666 
z
" transform="scale(0.015625)"/>
       <path id="DejaVuSans-29" d="M 513 4856 
L 1013 4856 
Q 1481 4119 1714 3412 
Q 1947 2706 1947 2009 
Q 1947 1309 1714 600 
Q 1481 -109 1013 -844 
L 513 -844 
Q 928 -128 1133 580 
Q 1338 1288 1338 2009 
Q 1338 2731 1133 3434 
Q 928 4138 513 4856 
z
" transform="scale(0.015625)"/>
      </defs>
      <use xlink:href="#DejaVuSans-4c" transform="translate(0 0.015625)"/>
      <use xlink:href="#DejaVuSans-6f" transform="translate(55.712891 0.015625)"/>
      <use xlink:href="#DejaVuSans-77" transform="translate(116.894531 0.015625)"/>
      <use xlink:href="#DejaVuSans-2d" transform="translate(198.681641 0.015625)"/>
      <use xlink:href="#DejaVuSans-46" transform="translate(234.765625 0.015625)"/>
      <use xlink:href="#DejaVuSans-72" transform="translate(292.285156 0.015625)"/>
      <use xlink:href="#DejaVuSans-65" transform="translate(333.398438 0.015625)"/>
      <use xlink:href="#DejaVuSans-71" transform="translate(394.921875 0.015625)"/>
      <use xlink:href="#DejaVuSans-75" transform="translate(458.398438 0.015625)"/>
      <use xlink:href="#DejaVuSans-65" transform="translate(521.777344 0.015625)"/>
      <use xlink:href="#DejaVuSans-6e" transform="translate(583.300781 0.015625)"/>
      <use xlink:href="#DejaVuSans-63" transform="translate(646.679688 0.015625)"/>
      <use xlink:href="#DejaVuSans-79" transform="translate(701.660156 0.015625)"/>
      <use xlink:href="#DejaVuSans-20" transform="translate(760.839844 0.015625)"/>
      <use xlink:href="#DejaVuSans-47" transform="translate(792.626953 0.015625)"/>
      <use xlink:href="#DejaVuSans-61" transform="translate(870.117188 0.015625)"/>
      <use xlink:href="#DejaVuSans-74" transform="translate(931.396484 0.015625)"/>
      <use xlink:href="#DejaVuSans-65" transform="translate(970.605469 0.015625)"/>
      <use xlink:href="#DejaVuSans-20" transform="translate(1032.128906 0.015625)"/>
      <use xlink:href="#DejaVuSans-57" transform="translate(1063.916016 0.015625)"/>
      <use xlink:href="#DejaVuSans-65" transform="translate(1162.792969 0.015625)"/>
      <use xlink:href="#DejaVuSans-69" transform="translate(1224.316406 0.015625)"/>
      <use xlink:href="#DejaVuSans-67" transform="translate(1252.099609 0.015625)"/>
      <use xlink:href="#DejaVuSans-68" transform="translate(1315.576172 0.015625)"/>
      <use xlink:href="#DejaVuSans-74" transform="translate(1378.955078 0.015625)"/>
      <use xlink:href="#DejaVuSans-20" transform="translate(1418.164062 0.015625)"/>
      <use xlink:href="#DejaVuSans-28" transform="translate(1449.951172 0.015625)"/>
      <use xlink:href="#DejaVuSans-Oblique-77" transform="translate(1488.964844 0.015625)"/>
      <use xlink:href="#DejaVuSans-Oblique-4c" transform="translate(1570.751953 -16.390625) scale(0.7)"/>
      <use xlink:href="#DejaVuSans-29" transform="translate(1612.485352 0.015625)"/>
     </g>
    </g>
   </g>
  </g>
 </g>
 <defs>
  <clipPath id="pf69c6e48f2">
   <rect x="43.78125" y="21.558281" width="445.48" height="255.88"/>
  </clipPath>
 </defs>
</svg>
