<?xml version="1.0" encoding="utf-8" standalone="no"?>
<!DOCTYPE svg PUBLIC "-//W3C//DTD SVG 1.1//EN"
  "http://www.w3.org/Graphics/SVG/1.1/DTD/svg11.dtd">
<svg xmlns:xlink="http://www.w3.org/1999/xlink" width="712.8pt" height="439.2pt" viewBox="0 0 712.8 439.2" xmlns="http://www.w3.org/2000/svg" version="1.1">
 <metadata>
  <rdf:RDF xmlns:dc="http://purl.org/dc/elements/1.1/" xmlns:cc="http://creativecommons.org/ns#" xmlns:rdf="http://www.w3.org/1999/02/22-rdf-syntax-ns#">
   <cc:Work>
    <dc:type rdf:resource="http://purl.org/dc/dcmitype/StillImage"/>
    <dc:date>2026-07-05T18:36:53.006043</dc:date>
    <dc:format>image/svg+xml</dc:format>
    <dc:creator>
     <cc:Agent>
      <dc:title>Matplotlib v3.10.9, https://matplotlib.org/</dc:title>
     </cc:Agent>
    </dc:creator>
   </cc:Work>
  </rdf:RDF>
 </metadata>
 <defs>
  <style type="text/css">*{stroke-linejoin: round; stroke-linecap: butt}</style>
 </defs>
 <g id="figure_1">
  <g id="patch_1">
   <path d="M 0 439.2 
L 712.8 439.2 
L 712.8 0 
L 0 0 
z
" style="fill: #ffffff"/>
  </g>
  <g id="axes_1">
   <g id="patch_2">
    <path d="M 84.024 123.677419 
L 209.736 123.677419 
L 209.736 82.567742 
L 84.024 82.567742 
z
" clip-path="url(#p890242b334)" style="fill: #f8f9fa; stroke: #1f77b4; stroke-width: 1.5"/>
   </g>
   <g id="patch_3">
    <path d="M 503.064 123.677419 
L 628.776 123.677419 
L 628.776 82.567742 
L 503.064 82.567742 
z
" clip-path="url(#p890242b334)" style="fill: #f8f9fa; stroke: #1f77b4; stroke-width: 1.5"/>
   </g>
   <g id="patch_4">
    <path d="M 84.024 219.6 
L 209.736 219.6 
L 209.736 178.490323 
L 84.024 178.490323 
z
" clip-path="url(#p890242b334)" style="fill: #f8f9fa; stroke: #1f77b4; stroke-width: 1.5"/>
   </g>
   <g id="patch_5">
    <path d="M 503.064 219.6 
L 628.776 219.6 
L 628.776 178.490323 
L 503.064 178.490323 
z
" clip-path="url(#p890242b334)" style="fill: #f8f9fa; stroke: #1f77b4; stroke-width: 1.5"/>
   </g>
   <g id="patch_6">
    <path d="M 84.024 298.393548 
L 209.736 298.393548 
L 209.736 264.135484 
L 84.024 264.135484 
z
" clip-path="url(#p890242b334)" style="fill: #f8f9fa; stroke: #1f77b4; stroke-width: 1.5"/>
   </g>
   <g id="patch_7">
    <path d="M 503.064 298.393548 
L 628.776 298.393548 
L 628.776 264.135484 
L 503.064 264.135484 
z
" clip-path="url(#p890242b334)" style="fill: #f8f9fa; stroke: #1f77b4; stroke-width: 1.5"/>
   </g>
   <g id="patch_8">
    <path d="M 293.544 219.6 
L 419.256 219.6 
L 419.256 178.490323 
L 293.544 178.490323 
z
" clip-path="url(#p890242b334)" style="fill: #e0ffff; stroke: #1f77b4; stroke-width: 1.5"/>
   </g>
   <g id="patch_9">
    <path d="M 293.544 298.393548 
L 419.256 298.393548 
L 419.256 264.135484 
L 293.544 264.135484 
z
" clip-path="url(#p890242b334)" style="fill: #f8f9fa; stroke: #1f77b4; stroke-width: 1.5"/>
   </g>
   <g id="patch_10">
    <path d="M 279.576 373.76129 
L 433.224 373.76129 
L 433.224 339.503226 
L 279.576 339.503226 
z
" clip-path="url(#p890242b334)" style="fill: #f8f9fa; stroke: #1f77b4; stroke-width: 1.5"/>
   </g>
   <g id="text_1">
    <!-- Temporal Difference Vision (TDV) Self-Supervised Learning -->
    <g transform="translate(140.087109 34.606452) scale(0.13 -0.13)">
     <defs>
      <path id="DejaVuSans-Bold-54" d="M 31 4666 
L 4331 4666 
L 4331 3756 
L 2784 3756 
L 2784 0 
L 1581 0 
L 1581 3756 
L 31 3756 
L 31 4666 
z
" transform="scale(0.015625)"/>
      <path id="DejaVuSans-Bold-65" d="M 4031 1759 
L 4031 1441 
L 1416 1441 
Q 1456 1047 1700 850 
Q 1944 653 2381 653 
Q 2734 653 3104 758 
Q 3475 863 3866 1075 
L 3866 213 
Q 3469 63 3072 -14 
Q 2675 -91 2278 -91 
Q 1328 -91 801 392 
Q 275 875 275 1747 
Q 275 2603 792 3093 
Q 1309 3584 2216 3584 
Q 3041 3584 3536 3087 
Q 4031 2591 4031 1759 
z
M 2881 2131 
Q 2881 2450 2695 2645 
Q 2509 2841 2209 2841 
Q 1884 2841 1681 2658 
Q 1478 2475 1428 2131 
L 2881 2131 
z
" transform="scale(0.015625)"/>
      <path id="DejaVuSans-Bold-6d" d="M 3781 2919 
Q 3994 3244 4286 3414 
Q 4578 3584 4928 3584 
Q 5531 3584 5847 3212 
Q 6163 2841 6163 2131 
L 6163 0 
L 5038 0 
L 5038 1825 
Q 5041 1866 5042 1909 
Q 5044 1953 5044 2034 
Q 5044 2406 4934 2573 
Q 4825 2741 4581 2741 
Q 4263 2741 4089 2478 
Q 3916 2216 3909 1719 
L 3909 0 
L 2784 0 
L 2784 1825 
Q 2784 2406 2684 2573 
Q 2584 2741 2328 2741 
Q 2006 2741 1831 2477 
Q 1656 2213 1656 1722 
L 1656 0 
L 531 0 
L 531 3500 
L 1656 3500 
L 1656 2988 
Q 1863 3284 2130 3434 
Q 2397 3584 2719 3584 
Q 3081 3584 3359 3409 
Q 3638 3234 3781 2919 
z
" transform="scale(0.015625)"/>
      <path id="DejaVuSans-Bold-70" d="M 1656 506 
L 1656 -1331 
L 538 -1331 
L 538 3500 
L 1656 3500 
L 1656 2988 
Q 1888 3294 2169 3439 
Q 2450 3584 2816 3584 
Q 3463 3584 3878 3070 
Q 4294 2556 4294 1747 
Q 4294 938 3878 423 
Q 3463 -91 2816 -91 
Q 2450 -91 2169 54 
Q 1888 200 1656 506 
z
M 2400 2772 
Q 2041 2772 1848 2508 
Q 1656 2244 1656 1747 
Q 1656 1250 1848 986 
Q 2041 722 2400 722 
Q 2759 722 2948 984 
Q 3138 1247 3138 1747 
Q 3138 2247 2948 2509 
Q 2759 2772 2400 2772 
z
" transform="scale(0.015625)"/>
      <path id="DejaVuSans-Bold-6f" d="M 2203 2784 
Q 1831 2784 1636 2517 
Q 1441 2250 1441 1747 
Q 1441 1244 1636 976 
Q 1831 709 2203 709 
Q 2569 709 2762 976 
Q 2956 1244 2956 1747 
Q 2956 2250 2762 2517 
Q 2569 2784 2203 2784 
z
M 2203 3584 
Q 3106 3584 3614 3096 
Q 4122 2609 4122 1747 
Q 4122 884 3614 396 
Q 3106 -91 2203 -91 
Q 1297 -91 786 396 
Q 275 884 275 1747 
Q 275 2609 786 3096 
Q 1297 3584 2203 3584 
z
" transform="scale(0.015625)"/>
      <path id="DejaVuSans-Bold-72" d="M 3138 2547 
Q 2991 2616 2845 2648 
Q 2700 2681 2553 2681 
Q 2122 2681 1889 2404 
Q 1656 2128 1656 1613 
L 1656 0 
L 538 0 
L 538 3500 
L 1656 3500 
L 1656 2925 
Q 1872 3269 2151 3426 
Q 2431 3584 2822 3584 
Q 2878 3584 2943 3579 
Q 3009 3575 3134 3559 
L 3138 2547 
z
" transform="scale(0.015625)"/>
      <path id="DejaVuSans-Bold-61" d="M 2106 1575 
Q 1756 1575 1579 1456 
Q 1403 1338 1403 1106 
Q 1403 894 1545 773 
Q 1688 653 1941 653 
Q 2256 653 2472 879 
Q 2688 1106 2688 1447 
L 2688 1575 
L 2106 1575 
z
M 3816 1997 
L 3816 0 
L 2688 0 
L 2688 519 
Q 2463 200 2181 54 
Q 1900 -91 1497 -91 
Q 953 -91 614 226 
Q 275 544 275 1050 
Q 275 1666 698 1953 
Q 1122 2241 2028 2241 
L 2688 2241 
L 2688 2328 
Q 2688 2594 2478 2717 
Q 2269 2841 1825 2841 
Q 1466 2841 1156 2769 
Q 847 2697 581 2553 
L 581 3406 
Q 941 3494 1303 3539 
Q 1666 3584 2028 3584 
Q 2975 3584 3395 3211 
Q 3816 2838 3816 1997 
z
" transform="scale(0.015625)"/>
      <path id="DejaVuSans-Bold-6c" d="M 538 4863 
L 1656 4863 
L 1656 0 
L 538 0 
L 538 4863 
z
" transform="scale(0.015625)"/>
      <path id="DejaVuSans-Bold-20" transform="scale(0.015625)"/>
      <path id="DejaVuSans-Bold-44" d="M 1791 3756 
L 1791 909 
L 2222 909 
Q 2959 909 3348 1275 
Q 3738 1641 3738 2338 
Q 3738 3031 3350 3393 
Q 2963 3756 2222 3756 
L 1791 3756 
z
M 588 4666 
L 1856 4666 
Q 2919 4666 3439 4514 
Q 3959 4363 4331 4000 
Q 4659 3684 4818 3271 
Q 4978 2859 4978 2338 
Q 4978 1809 4818 1395 
Q 4659 981 4331 666 
Q 3956 303 3431 151 
Q 2906 0 1856 0 
L 588 0 
L 588 4666 
z
" transform="scale(0.015625)"/>
      <path id="DejaVuSans-Bold-69" d="M 538 3500 
L 1656 3500 
L 1656 0 
L 538 0 
L 538 3500 
z
M 538 4863 
L 1656 4863 
L 1656 3950 
L 538 3950 
L 538 4863 
z
" transform="scale(0.015625)"/>
      <path id="DejaVuSans-Bold-66" d="M 2841 4863 
L 2841 4128 
L 2222 4128 
Q 1984 4128 1890 4042 
Q 1797 3956 1797 3744 
L 1797 3500 
L 2753 3500 
L 2753 2700 
L 1797 2700 
L 1797 0 
L 678 0 
L 678 2700 
L 122 2700 
L 122 3500 
L 678 3500 
L 678 3744 
Q 678 4316 997 4589 
Q 1316 4863 1984 4863 
L 2841 4863 
z
" transform="scale(0.015625)"/>
      <path id="DejaVuSans-Bold-6e" d="M 4056 2131 
L 4056 0 
L 2931 0 
L 2931 347 
L 2931 1631 
Q 2931 2084 2911 2256 
Q 2891 2428 2841 2509 
Q 2775 2619 2662 2680 
Q 2550 2741 2406 2741 
Q 2056 2741 1856 2470 
Q 1656 2200 1656 1722 
L 1656 0 
L 538 0 
L 538 3500 
L 1656 3500 
L 1656 2988 
Q 1909 3294 2193 3439 
Q 2478 3584 2822 3584 
Q 3428 3584 3742 3212 
Q 4056 2841 4056 2131 
z
" transform="scale(0.015625)"/>
      <path id="DejaVuSans-Bold-63" d="M 3366 3391 
L 3366 2478 
Q 3138 2634 2908 2709 
Q 2678 2784 2431 2784 
Q 1963 2784 1702 2511 
Q 1441 2238 1441 1747 
Q 1441 1256 1702 982 
Q 1963 709 2431 709 
Q 2694 709 2930 787 
Q 3166 866 3366 1019 
L 3366 103 
Q 3103 6 2833 -42 
Q 2563 -91 2291 -91 
Q 1344 -91 809 395 
Q 275 881 275 1747 
Q 275 2613 809 3098 
Q 1344 3584 2291 3584 
Q 2566 3584 2833 3536 
Q 3100 3488 3366 3391 
z
" transform="scale(0.015625)"/>
      <path id="DejaVuSans-Bold-56" d="M 31 4666 
L 1241 4666 
L 2478 1222 
L 3713 4666 
L 4922 4666 
L 3194 0 
L 1759 0 
L 31 4666 
z
" transform="scale(0.015625)"/>
      <path id="DejaVuSans-Bold-73" d="M 3272 3391 
L 3272 2541 
Q 2913 2691 2578 2766 
Q 2244 2841 1947 2841 
Q 1628 2841 1473 2761 
Q 1319 2681 1319 2516 
Q 1319 2381 1436 2309 
Q 1553 2238 1856 2203 
L 2053 2175 
Q 2913 2066 3209 1816 
Q 3506 1566 3506 1031 
Q 3506 472 3093 190 
Q 2681 -91 1863 -91 
Q 1516 -91 1145 -36 
Q 775 19 384 128 
L 384 978 
Q 719 816 1070 734 
Q 1422 653 1784 653 
Q 2113 653 2278 743 
Q 2444 834 2444 1013 
Q 2444 1163 2330 1236 
Q 2216 1309 1875 1350 
L 1678 1375 
Q 931 1469 631 1722 
Q 331 1975 331 2491 
Q 331 3047 712 3315 
Q 1094 3584 1881 3584 
Q 2191 3584 2531 3537 
Q 2872 3491 3272 3391 
z
" transform="scale(0.015625)"/>
      <path id="DejaVuSans-Bold-28" d="M 2413 -844 
L 1484 -844 
Q 1006 -72 778 623 
Q 550 1319 550 2003 
Q 550 2688 779 3389 
Q 1009 4091 1484 4856 
L 2413 4856 
Q 2013 4116 1813 3408 
Q 1613 2700 1613 2009 
Q 1613 1319 1811 609 
Q 2009 -100 2413 -844 
z
" transform="scale(0.015625)"/>
      <path id="DejaVuSans-Bold-29" d="M 513 -844 
Q 913 -100 1113 609 
Q 1313 1319 1313 2009 
Q 1313 2700 1113 3408 
Q 913 4116 513 4856 
L 1441 4856 
Q 1916 4091 2145 3389 
Q 2375 2688 2375 2003 
Q 2375 1319 2147 623 
Q 1919 -72 1441 -844 
L 513 -844 
z
" transform="scale(0.015625)"/>
      <path id="DejaVuSans-Bold-53" d="M 3834 4519 
L 3834 3531 
Q 3450 3703 3084 3790 
Q 2719 3878 2394 3878 
Q 1963 3878 1756 3759 
Q 1550 3641 1550 3391 
Q 1550 3203 1689 3098 
Q 1828 2994 2194 2919 
L 2706 2816 
Q 3484 2659 3812 2340 
Q 4141 2022 4141 1434 
Q 4141 663 3683 286 
Q 3225 -91 2284 -91 
Q 1841 -91 1394 -6 
Q 947 78 500 244 
L 500 1259 
Q 947 1022 1364 901 
Q 1781 781 2169 781 
Q 2563 781 2772 912 
Q 2981 1044 2981 1288 
Q 2981 1506 2839 1625 
Q 2697 1744 2272 1838 
L 1806 1941 
Q 1106 2091 782 2419 
Q 459 2747 459 3303 
Q 459 4000 909 4375 
Q 1359 4750 2203 4750 
Q 2588 4750 2994 4692 
Q 3400 4634 3834 4519 
z
" transform="scale(0.015625)"/>
      <path id="DejaVuSans-Bold-2d" d="M 347 2297 
L 2309 2297 
L 2309 1388 
L 347 1388 
L 347 2297 
z
" transform="scale(0.015625)"/>
      <path id="DejaVuSans-Bold-75" d="M 500 1363 
L 500 3500 
L 1625 3500 
L 1625 3150 
Q 1625 2866 1622 2436 
Q 1619 2006 1619 1863 
Q 1619 1441 1641 1255 
Q 1663 1069 1716 984 
Q 1784 875 1895 815 
Q 2006 756 2150 756 
Q 2500 756 2700 1025 
Q 2900 1294 2900 1772 
L 2900 3500 
L 4019 3500 
L 4019 0 
L 2900 0 
L 2900 506 
Q 2647 200 2364 54 
Q 2081 -91 1741 -91 
Q 1134 -91 817 281 
Q 500 653 500 1363 
z
" transform="scale(0.015625)"/>
      <path id="DejaVuSans-Bold-76" d="M 97 3500 
L 1216 3500 
L 2088 1081 
L 2956 3500 
L 4078 3500 
L 2700 0 
L 1472 0 
L 97 3500 
z
" transform="scale(0.015625)"/>
      <path id="DejaVuSans-Bold-64" d="M 2919 2988 
L 2919 4863 
L 4044 4863 
L 4044 0 
L 2919 0 
L 2919 506 
Q 2688 197 2409 53 
Q 2131 -91 1766 -91 
Q 1119 -91 703 423 
Q 288 938 288 1747 
Q 288 2556 703 3070 
Q 1119 3584 1766 3584 
Q 2128 3584 2408 3439 
Q 2688 3294 2919 2988 
z
M 2181 722 
Q 2541 722 2730 984 
Q 2919 1247 2919 1747 
Q 2919 2247 2730 2509 
Q 2541 2772 2181 2772 
Q 1825 2772 1636 2509 
Q 1447 2247 1447 1747 
Q 1447 1247 1636 984 
Q 1825 722 2181 722 
z
" transform="scale(0.015625)"/>
      <path id="DejaVuSans-Bold-4c" d="M 588 4666 
L 1791 4666 
L 1791 909 
L 3903 909 
L 3903 0 
L 588 0 
L 588 4666 
z
" transform="scale(0.015625)"/>
      <path id="DejaVuSans-Bold-67" d="M 2919 594 
Q 2688 288 2409 144 
Q 2131 0 1766 0 
Q 1125 0 706 504 
Q 288 1009 288 1791 
Q 288 2575 706 3076 
Q 1125 3578 1766 3578 
Q 2131 3578 2409 3434 
Q 2688 3291 2919 2981 
L 2919 3500 
L 4044 3500 
L 4044 353 
Q 4044 -491 3511 -936 
Q 2978 -1381 1966 -1381 
Q 1638 -1381 1331 -1331 
Q 1025 -1281 716 -1178 
L 716 -306 
Q 1009 -475 1290 -558 
Q 1572 -641 1856 -641 
Q 2406 -641 2662 -400 
Q 2919 -159 2919 353 
L 2919 594 
z
M 2181 2772 
Q 1834 2772 1640 2515 
Q 1447 2259 1447 1791 
Q 1447 1309 1634 1061 
Q 1822 813 2181 813 
Q 2531 813 2725 1069 
Q 2919 1325 2919 1791 
Q 2919 2259 2725 2515 
Q 2531 2772 2181 2772 
z
" transform="scale(0.015625)"/>
     </defs>
     <use xlink:href="#DejaVuSans-Bold-54"/>
     <use xlink:href="#DejaVuSans-Bold-65" transform="translate(54.962891 0)"/>
     <use xlink:href="#DejaVuSans-Bold-6d" transform="translate(122.785156 0)"/>
     <use xlink:href="#DejaVuSans-Bold-70" transform="translate(226.984375 0)"/>
     <use xlink:href="#DejaVuSans-Bold-6f" transform="translate(298.566406 0)"/>
     <use xlink:href="#DejaVuSans-Bold-72" transform="translate(367.267578 0)"/>
     <use xlink:href="#DejaVuSans-Bold-61" transform="translate(416.583984 0)"/>
     <use xlink:href="#DejaVuSans-Bold-6c" transform="translate(484.064453 0)"/>
     <use xlink:href="#DejaVuSans-Bold-20" transform="translate(518.341797 0)"/>
     <use xlink:href="#DejaVuSans-Bold-44" transform="translate(553.15625 0)"/>
     <use xlink:href="#DejaVuSans-Bold-69" transform="translate(636.164062 0)"/>
     <use xlink:href="#DejaVuSans-Bold-66" transform="translate(670.441406 0)"/>
     <use xlink:href="#DejaVuSans-Bold-66" transform="translate(713.947266 0)"/>
     <use xlink:href="#DejaVuSans-Bold-65" transform="translate(757.453125 0)"/>
     <use xlink:href="#DejaVuSans-Bold-72" transform="translate(825.275391 0)"/>
     <use xlink:href="#DejaVuSans-Bold-65" transform="translate(874.591797 0)"/>
     <use xlink:href="#DejaVuSans-Bold-6e" transform="translate(942.414062 0)"/>
     <use xlink:href="#DejaVuSans-Bold-63" transform="translate(1013.605469 0)"/>
     <use xlink:href="#DejaVuSans-Bold-65" transform="translate(1072.882812 0)"/>
     <use xlink:href="#DejaVuSans-Bold-20" transform="translate(1140.705078 0)"/>
     <use xlink:href="#DejaVuSans-Bold-56" transform="translate(1175.519531 0)"/>
     <use xlink:href="#DejaVuSans-Bold-69" transform="translate(1251.162109 0)"/>
     <use xlink:href="#DejaVuSans-Bold-73" transform="translate(1285.439453 0)"/>
     <use xlink:href="#DejaVuSans-Bold-69" transform="translate(1344.960938 0)"/>
     <use xlink:href="#DejaVuSans-Bold-6f" transform="translate(1379.238281 0)"/>
     <use xlink:href="#DejaVuSans-Bold-6e" transform="translate(1447.939453 0)"/>
     <use xlink:href="#DejaVuSans-Bold-20" transform="translate(1519.130859 0)"/>
     <use xlink:href="#DejaVuSans-Bold-28" transform="translate(1553.945312 0)"/>
     <use xlink:href="#DejaVuSans-Bold-54" transform="translate(1599.648438 0)"/>
     <use xlink:href="#DejaVuSans-Bold-44" transform="translate(1667.861328 0)"/>
     <use xlink:href="#DejaVuSans-Bold-56" transform="translate(1750.869141 0)"/>
     <use xlink:href="#DejaVuSans-Bold-29" transform="translate(1828.261719 0)"/>
     <use xlink:href="#DejaVuSans-Bold-20" transform="translate(1873.964844 0)"/>
     <use xlink:href="#DejaVuSans-Bold-53" transform="translate(1908.779297 0)"/>
     <use xlink:href="#DejaVuSans-Bold-65" transform="translate(1980.800781 0)"/>
     <use xlink:href="#DejaVuSans-Bold-6c" transform="translate(2048.623047 0)"/>
     <use xlink:href="#DejaVuSans-Bold-66" transform="translate(2082.900391 0)"/>
     <use xlink:href="#DejaVuSans-Bold-2d" transform="translate(2124.65625 0)"/>
     <use xlink:href="#DejaVuSans-Bold-53" transform="translate(2166.160156 0)"/>
     <use xlink:href="#DejaVuSans-Bold-75" transform="translate(2238.181641 0)"/>
     <use xlink:href="#DejaVuSans-Bold-70" transform="translate(2309.373047 0)"/>
     <use xlink:href="#DejaVuSans-Bold-65" transform="translate(2380.955078 0)"/>
     <use xlink:href="#DejaVuSans-Bold-72" transform="translate(2448.777344 0)"/>
     <use xlink:href="#DejaVuSans-Bold-76" transform="translate(2498.09375 0)"/>
     <use xlink:href="#DejaVuSans-Bold-69" transform="translate(2563.279297 0)"/>
     <use xlink:href="#DejaVuSans-Bold-73" transform="translate(2597.556641 0)"/>
     <use xlink:href="#DejaVuSans-Bold-65" transform="translate(2657.078125 0)"/>
     <use xlink:href="#DejaVuSans-Bold-64" transform="translate(2724.900391 0)"/>
     <use xlink:href="#DejaVuSans-Bold-20" transform="translate(2796.482422 0)"/>
     <use xlink:href="#DejaVuSans-Bold-4c" transform="translate(2831.296875 0)"/>
     <use xlink:href="#DejaVuSans-Bold-65" transform="translate(2895.017578 0)"/>
     <use xlink:href="#DejaVuSans-Bold-61" transform="translate(2962.839844 0)"/>
     <use xlink:href="#DejaVuSans-Bold-72" transform="translate(3030.320312 0)"/>
     <use xlink:href="#DejaVuSans-Bold-6e" transform="translate(3079.636719 0)"/>
     <use xlink:href="#DejaVuSans-Bold-69" transform="translate(3150.828125 0)"/>
     <use xlink:href="#DejaVuSans-Bold-6e" transform="translate(3185.105469 0)"/>
     <use xlink:href="#DejaVuSans-Bold-67" transform="translate(3256.296875 0)"/>
    </g>
   </g>
   <g id="text_2">
    <!-- Video Frame (t) -->
    <g style="fill: #111111" transform="translate(107.386875 99.439567) scale(0.09 -0.09)">
     <defs>
      <path id="DejaVuSans-Bold-46" d="M 588 4666 
L 3834 4666 
L 3834 3756 
L 1791 3756 
L 1791 2888 
L 3713 2888 
L 3713 1978 
L 1791 1978 
L 1791 0 
L 588 0 
L 588 4666 
z
" transform="scale(0.015625)"/>
      <path id="DejaVuSans-Bold-74" d="M 1759 4494 
L 1759 3500 
L 2913 3500 
L 2913 2700 
L 1759 2700 
L 1759 1216 
Q 1759 972 1856 886 
Q 1953 800 2241 800 
L 2816 800 
L 2816 0 
L 1856 0 
Q 1194 0 917 276 
Q 641 553 641 1216 
L 641 2700 
L 84 2700 
L 84 3500 
L 641 3500 
L 641 4494 
L 1759 4494 
z
" transform="scale(0.015625)"/>
     </defs>
     <use xlink:href="#DejaVuSans-Bold-56"/>
     <use xlink:href="#DejaVuSans-Bold-69" transform="translate(75.642578 0)"/>
     <use xlink:href="#DejaVuSans-Bold-64" transform="translate(109.919922 0)"/>
     <use xlink:href="#DejaVuSans-Bold-65" transform="translate(181.501953 0)"/>
     <use xlink:href="#DejaVuSans-Bold-6f" transform="translate(249.324219 0)"/>
     <use xlink:href="#DejaVuSans-Bold-20" transform="translate(318.025391 0)"/>
     <use xlink:href="#DejaVuSans-Bold-46" transform="translate(352.839844 0)"/>
     <use xlink:href="#DejaVuSans-Bold-72" transform="translate(414.775391 0)"/>
     <use xlink:href="#DejaVuSans-Bold-61" transform="translate(464.091797 0)"/>
     <use xlink:href="#DejaVuSans-Bold-6d" transform="translate(531.572266 0)"/>
     <use xlink:href="#DejaVuSans-Bold-65" transform="translate(635.771484 0)"/>
     <use xlink:href="#DejaVuSans-Bold-20" transform="translate(703.59375 0)"/>
     <use xlink:href="#DejaVuSans-Bold-28" transform="translate(738.408203 0)"/>
     <use xlink:href="#DejaVuSans-Bold-74" transform="translate(784.111328 0)"/>
     <use xlink:href="#DejaVuSans-Bold-29" transform="translate(831.914062 0)"/>
    </g>
   </g>
   <g id="text_3">
    <!-- STL-10 / UCF-101 -->
    <g style="fill: #555555" transform="translate(114.813984 113.414047) scale(0.075 -0.075)">
     <defs>
      <path id="DejaVuSans-Oblique-53" d="M 3859 4513 
L 3738 3897 
Q 3422 4066 3111 4152 
Q 2800 4238 2509 4238 
Q 1944 4238 1609 3991 
Q 1275 3744 1275 3334 
Q 1275 3109 1398 2989 
Q 1522 2869 2034 2731 
L 2413 2638 
Q 3053 2472 3303 2217 
Q 3553 1963 3553 1503 
Q 3553 797 2998 353 
Q 2444 -91 1538 -91 
Q 1166 -91 791 -17 
Q 416 56 38 206 
L 166 856 
Q 513 641 861 531 
Q 1209 422 1556 422 
Q 2147 422 2503 684 
Q 2859 947 2859 1369 
Q 2859 1650 2717 1795 
Q 2575 1941 2106 2059 
L 1728 2156 
Q 1081 2325 845 2545 
Q 609 2766 609 3163 
Q 609 3859 1145 4304 
Q 1681 4750 2541 4750 
Q 2875 4750 3203 4690 
Q 3531 4631 3859 4513 
z
" transform="scale(0.015625)"/>
      <path id="DejaVuSans-Oblique-54" d="M 378 4666 
L 4325 4666 
L 4225 4134 
L 2559 4134 
L 1759 0 
L 1125 0 
L 1925 4134 
L 275 4134 
L 378 4666 
z
" transform="scale(0.015625)"/>
      <path id="DejaVuSans-Oblique-4c" d="M 1075 4666 
L 1709 4666 
L 909 525 
L 3181 525 
L 3078 0 
L 172 0 
L 1075 4666 
z
" transform="scale(0.015625)"/>
      <path id="DejaVuSans-Oblique-2d" d="M 391 2009 
L 2075 2009 
L 1978 1497 
L 288 1497 
L 391 2009 
z
" transform="scale(0.015625)"/>
      <path id="DejaVuSans-Oblique-31" d="M 416 531 
L 1447 531 
L 2144 4122 
L 978 3897 
L 1088 4441 
L 2247 4666 
L 2881 4666 
L 2075 531 
L 3103 531 
L 3003 0 
L 313 0 
L 416 531 
z
" transform="scale(0.015625)"/>
      <path id="DejaVuSans-Oblique-30" d="M 2444 4750 
Q 3078 4750 3414 4328 
Q 3750 3906 3750 3116 
Q 3750 2516 3592 1923 
Q 3434 1331 3150 863 
Q 2859 394 2467 151 
Q 2075 -91 1600 -91 
Q 988 -91 653 334 
Q 319 759 319 1544 
Q 319 2138 480 2733 
Q 641 3328 928 3794 
Q 1216 4263 1602 4506 
Q 1988 4750 2444 4750 
z
M 2406 4250 
Q 2169 4250 1955 4123 
Q 1741 3997 1569 3750 
Q 1281 3338 1111 2720 
Q 941 2103 941 1453 
Q 941 938 1123 673 
Q 1306 409 1663 409 
Q 1913 409 2125 536 
Q 2338 663 2509 909 
Q 2794 1319 2961 1936 
Q 3128 2553 3128 3206 
Q 3128 3722 2945 3986 
Q 2763 4250 2406 4250 
z
" transform="scale(0.015625)"/>
      <path id="DejaVuSans-Oblique-20" transform="scale(0.015625)"/>
      <path id="DejaVuSans-Oblique-2f" d="M 2175 4666 
L 2731 4666 
L 84 -594 
L -469 -594 
L 2175 4666 
z
" transform="scale(0.015625)"/>
      <path id="DejaVuSans-Oblique-55" d="M 991 4666 
L 1625 4666 
L 1075 1831 
Q 1041 1641 1027 1517 
Q 1013 1394 1013 1300 
Q 1013 869 1253 645 
Q 1494 422 1959 422 
Q 2563 422 2898 753 
Q 3234 1084 3378 1831 
L 3928 4666 
L 4563 4666 
L 4000 1753 
Q 3816 809 3300 359 
Q 2784 -91 1888 -91 
Q 1188 -91 780 261 
Q 372 613 372 1216 
Q 372 1325 387 1461 
Q 403 1597 434 1753 
L 991 4666 
z
" transform="scale(0.015625)"/>
      <path id="DejaVuSans-Oblique-43" d="M 4447 4306 
L 4319 3641 
Q 4019 3944 3683 4091 
Q 3347 4238 2956 4238 
Q 2422 4238 2017 3981 
Q 1613 3725 1319 3200 
Q 1131 2863 1032 2486 
Q 934 2109 934 1728 
Q 934 1091 1264 756 
Q 1594 422 2222 422 
Q 2656 422 3056 561 
Q 3456 700 3834 978 
L 3688 231 
Q 3316 72 2936 -9 
Q 2556 -91 2175 -91 
Q 1278 -91 773 396 
Q 269 884 269 1753 
Q 269 2309 461 2846 
Q 653 3384 1013 3828 
Q 1394 4300 1883 4525 
Q 2372 4750 3022 4750 
Q 3422 4750 3780 4639 
Q 4138 4528 4447 4306 
z
" transform="scale(0.015625)"/>
      <path id="DejaVuSans-Oblique-46" d="M 1081 4666 
L 3756 4666 
L 3653 4134 
L 1606 4134 
L 1338 2759 
L 3188 2759 
L 3084 2228 
L 1234 2228 
L 800 0 
L 172 0 
L 1081 4666 
z
" transform="scale(0.015625)"/>
     </defs>
     <use xlink:href="#DejaVuSans-Oblique-53"/>
     <use xlink:href="#DejaVuSans-Oblique-54" transform="translate(63.476562 0)"/>
     <use xlink:href="#DejaVuSans-Oblique-4c" transform="translate(124.560547 0)"/>
     <use xlink:href="#DejaVuSans-Oblique-2d" transform="translate(172.523438 0)"/>
     <use xlink:href="#DejaVuSans-Oblique-31" transform="translate(208.607422 0)"/>
     <use xlink:href="#DejaVuSans-Oblique-30" transform="translate(272.230469 0)"/>
     <use xlink:href="#DejaVuSans-Oblique-20" transform="translate(335.853516 0)"/>
     <use xlink:href="#DejaVuSans-Oblique-2f" transform="translate(367.640625 0)"/>
     <use xlink:href="#DejaVuSans-Oblique-20" transform="translate(401.332031 0)"/>
     <use xlink:href="#DejaVuSans-Oblique-55" transform="translate(433.119141 0)"/>
     <use xlink:href="#DejaVuSans-Oblique-43" transform="translate(506.3125 0)"/>
     <use xlink:href="#DejaVuSans-Oblique-46" transform="translate(576.136719 0)"/>
     <use xlink:href="#DejaVuSans-Oblique-2d" transform="translate(628.15625 0)"/>
     <use xlink:href="#DejaVuSans-Oblique-31" transform="translate(664.240234 0)"/>
     <use xlink:href="#DejaVuSans-Oblique-30" transform="translate(727.863281 0)"/>
     <use xlink:href="#DejaVuSans-Oblique-31" transform="translate(791.486328 0)"/>
    </g>
   </g>
   <g id="text_4">
    <!-- Video Frame (t+1) -->
    <g style="fill: #111111" transform="translate(519.525 99.439567) scale(0.09 -0.09)">
     <defs>
      <path id="DejaVuSans-Bold-2b" d="M 3053 4013 
L 3053 2375 
L 4684 2375 
L 4684 1638 
L 3053 1638 
L 3053 0 
L 2309 0 
L 2309 1638 
L 678 1638 
L 678 2375 
L 2309 2375 
L 2309 4013 
L 3053 4013 
z
" transform="scale(0.015625)"/>
      <path id="DejaVuSans-Bold-31" d="M 750 831 
L 1813 831 
L 1813 3847 
L 722 3622 
L 722 4441 
L 1806 4666 
L 2950 4666 
L 2950 831 
L 4013 831 
L 4013 0 
L 750 0 
L 750 831 
z
" transform="scale(0.015625)"/>
     </defs>
     <use xlink:href="#DejaVuSans-Bold-56"/>
     <use xlink:href="#DejaVuSans-Bold-69" transform="translate(75.642578 0)"/>
     <use xlink:href="#DejaVuSans-Bold-64" transform="translate(109.919922 0)"/>
     <use xlink:href="#DejaVuSans-Bold-65" transform="translate(181.501953 0)"/>
     <use xlink:href="#DejaVuSans-Bold-6f" transform="translate(249.324219 0)"/>
     <use xlink:href="#DejaVuSans-Bold-20" transform="translate(318.025391 0)"/>
     <use xlink:href="#DejaVuSans-Bold-46" transform="translate(352.839844 0)"/>
     <use xlink:href="#DejaVuSans-Bold-72" transform="translate(414.775391 0)"/>
     <use xlink:href="#DejaVuSans-Bold-61" transform="translate(464.091797 0)"/>
     <use xlink:href="#DejaVuSans-Bold-6d" transform="translate(531.572266 0)"/>
     <use xlink:href="#DejaVuSans-Bold-65" transform="translate(635.771484 0)"/>
     <use xlink:href="#DejaVuSans-Bold-20" transform="translate(703.59375 0)"/>
     <use xlink:href="#DejaVuSans-Bold-28" transform="translate(738.408203 0)"/>
     <use xlink:href="#DejaVuSans-Bold-74" transform="translate(784.111328 0)"/>
     <use xlink:href="#DejaVuSans-Bold-2b" transform="translate(831.914062 0)"/>
     <use xlink:href="#DejaVuSans-Bold-31" transform="translate(915.703125 0)"/>
     <use xlink:href="#DejaVuSans-Bold-29" transform="translate(985.283203 0)"/>
    </g>
   </g>
   <g id="text_5">
    <!-- Consecutive frame -->
    <g style="fill: #555555" transform="translate(530.580352 113.414047) scale(0.075 -0.075)">
     <defs>
      <path id="DejaVuSans-Oblique-6f" d="M 1625 -91 
Q 1009 -91 651 289 
Q 294 669 294 1325 
Q 294 1706 417 2101 
Q 541 2497 738 2766 
Q 1047 3184 1428 3384 
Q 1809 3584 2291 3584 
Q 2888 3584 3255 3212 
Q 3622 2841 3622 2241 
Q 3622 1825 3500 1412 
Q 3378 1000 3181 728 
Q 2875 309 2494 109 
Q 2113 -91 1625 -91 
z
M 891 1344 
Q 891 869 1089 633 
Q 1288 397 1691 397 
Q 2269 397 2648 901 
Q 3028 1406 3028 2181 
Q 3028 2634 2825 2865 
Q 2622 3097 2228 3097 
Q 1903 3097 1650 2945 
Q 1397 2794 1197 2484 
Q 1050 2253 970 1956 
Q 891 1659 891 1344 
z
" transform="scale(0.015625)"/>
      <path id="DejaVuSans-Oblique-6e" d="M 3566 2113 
L 3156 0 
L 2578 0 
L 2988 2091 
Q 3016 2238 3031 2350 
Q 3047 2463 3047 2528 
Q 3047 2791 2881 2937 
Q 2716 3084 2419 3084 
Q 1956 3084 1622 2776 
Q 1288 2469 1184 1941 
L 800 0 
L 225 0 
L 903 3500 
L 1478 3500 
L 1363 2950 
Q 1603 3253 1940 3418 
Q 2278 3584 2650 3584 
Q 3113 3584 3367 3334 
Q 3622 3084 3622 2631 
Q 3622 2519 3608 2391 
Q 3594 2263 3566 2113 
z
" transform="scale(0.015625)"/>
      <path id="DejaVuSans-Oblique-73" d="M 3200 3397 
L 3091 2853 
Q 2863 2978 2609 3040 
Q 2356 3103 2088 3103 
Q 1634 3103 1373 2948 
Q 1113 2794 1113 2528 
Q 1113 2219 1719 2053 
Q 1766 2041 1788 2034 
L 1972 1978 
Q 2547 1819 2739 1644 
Q 2931 1469 2931 1166 
Q 2931 609 2489 259 
Q 2047 -91 1331 -91 
Q 1053 -91 747 -37 
Q 441 16 72 128 
L 184 722 
Q 500 559 806 475 
Q 1113 391 1394 391 
Q 1816 391 2080 572 
Q 2344 753 2344 1031 
Q 2344 1331 1650 1516 
L 1591 1531 
L 1394 1581 
Q 956 1697 753 1886 
Q 550 2075 550 2369 
Q 550 2928 970 3256 
Q 1391 3584 2113 3584 
Q 2397 3584 2667 3537 
Q 2938 3491 3200 3397 
z
" transform="scale(0.015625)"/>
      <path id="DejaVuSans-Oblique-65" d="M 3078 2063 
Q 3088 2113 3092 2166 
Q 3097 2219 3097 2272 
Q 3097 2653 2873 2875 
Q 2650 3097 2266 3097 
Q 1838 3097 1509 2826 
Q 1181 2556 1013 2059 
L 3078 2063 
z
M 3578 1613 
L 903 1613 
Q 884 1494 878 1425 
Q 872 1356 872 1306 
Q 872 872 1139 634 
Q 1406 397 1894 397 
Q 2269 397 2603 481 
Q 2938 566 3225 728 
L 3116 159 
Q 2806 34 2476 -28 
Q 2147 -91 1806 -91 
Q 1078 -91 686 257 
Q 294 606 294 1247 
Q 294 1794 489 2264 
Q 684 2734 1063 3103 
Q 1306 3334 1642 3459 
Q 1978 3584 2356 3584 
Q 2950 3584 3301 3228 
Q 3653 2872 3653 2272 
Q 3653 2128 3634 1964 
Q 3616 1800 3578 1613 
z
" transform="scale(0.015625)"/>
      <path id="DejaVuSans-Oblique-63" d="M 3431 3366 
L 3316 2797 
Q 3109 2947 2876 3022 
Q 2644 3097 2394 3097 
Q 2119 3097 1870 3000 
Q 1622 2903 1453 2725 
Q 1184 2453 1037 2087 
Q 891 1722 891 1331 
Q 891 859 1127 628 
Q 1363 397 1844 397 
Q 2081 397 2348 469 
Q 2616 541 2906 684 
L 2797 116 
Q 2547 13 2283 -39 
Q 2019 -91 1741 -91 
Q 1044 -91 669 257 
Q 294 606 294 1253 
Q 294 1797 489 2255 
Q 684 2713 1069 3078 
Q 1331 3328 1684 3456 
Q 2038 3584 2456 3584 
Q 2700 3584 2940 3529 
Q 3181 3475 3431 3366 
z
" transform="scale(0.015625)"/>
      <path id="DejaVuSans-Oblique-75" d="M 428 1388 
L 838 3500 
L 1416 3500 
L 1006 1409 
Q 975 1256 961 1147 
Q 947 1038 947 966 
Q 947 700 1109 554 
Q 1272 409 1569 409 
Q 2031 409 2368 721 
Q 2706 1034 2809 1563 
L 3194 3500 
L 3769 3500 
L 3091 0 
L 2516 0 
L 2631 550 
Q 2388 244 2052 76 
Q 1716 -91 1338 -91 
Q 878 -91 622 161 
Q 366 413 366 863 
Q 366 956 381 1097 
Q 397 1238 428 1388 
z
" transform="scale(0.015625)"/>
      <path id="DejaVuSans-Oblique-74" d="M 2706 3500 
L 2619 3053 
L 1472 3053 
L 1100 1153 
Q 1081 1047 1072 975 
Q 1063 903 1063 863 
Q 1063 663 1183 572 
Q 1303 481 1569 481 
L 2150 481 
L 2053 0 
L 1503 0 
Q 991 0 739 200 
Q 488 400 488 806 
Q 488 878 497 964 
Q 506 1050 525 1153 
L 897 3053 
L 409 3053 
L 500 3500 
L 978 3500 
L 1172 4494 
L 1747 4494 
L 1556 3500 
L 2706 3500 
z
" transform="scale(0.015625)"/>
      <path id="DejaVuSans-Oblique-69" d="M 1172 4863 
L 1747 4863 
L 1606 4134 
L 1031 4134 
L 1172 4863 
z
M 909 3500 
L 1484 3500 
L 800 0 
L 225 0 
L 909 3500 
z
" transform="scale(0.015625)"/>
      <path id="DejaVuSans-Oblique-76" d="M 459 3500 
L 1069 3500 
L 1581 525 
L 3256 3500 
L 3866 3500 
L 1875 0 
L 1100 0 
L 459 3500 
z
" transform="scale(0.015625)"/>
      <path id="DejaVuSans-Oblique-66" d="M 3059 4863 
L 2969 4384 
L 2419 4384 
Q 2106 4384 1964 4261 
Q 1822 4138 1753 3809 
L 1691 3500 
L 2638 3500 
L 2553 3053 
L 1606 3053 
L 1013 0 
L 434 0 
L 1031 3053 
L 481 3053 
L 563 3500 
L 1113 3500 
L 1159 3744 
Q 1278 4363 1576 4613 
Q 1875 4863 2516 4863 
L 3059 4863 
z
" transform="scale(0.015625)"/>
      <path id="DejaVuSans-Oblique-72" d="M 2853 2969 
Q 2766 3016 2653 3041 
Q 2541 3066 2413 3066 
Q 1953 3066 1609 2717 
Q 1266 2369 1153 1784 
L 800 0 
L 225 0 
L 909 3500 
L 1484 3500 
L 1375 2956 
Q 1603 3259 1920 3421 
Q 2238 3584 2597 3584 
Q 2691 3584 2781 3573 
Q 2872 3563 2963 3538 
L 2853 2969 
z
" transform="scale(0.015625)"/>
      <path id="DejaVuSans-Oblique-61" d="M 3438 1997 
L 3047 0 
L 2472 0 
L 2578 531 
Q 2325 219 2001 64 
Q 1678 -91 1281 -91 
Q 834 -91 548 182 
Q 263 456 263 884 
Q 263 1497 752 1853 
Q 1241 2209 2100 2209 
L 2900 2209 
L 2931 2363 
Q 2938 2388 2941 2417 
Q 2944 2447 2944 2509 
Q 2944 2788 2717 2942 
Q 2491 3097 2081 3097 
Q 1800 3097 1504 3025 
Q 1209 2953 897 2809 
L 997 3341 
Q 1322 3463 1633 3523 
Q 1944 3584 2234 3584 
Q 2853 3584 3176 3315 
Q 3500 3047 3500 2534 
Q 3500 2431 3484 2292 
Q 3469 2153 3438 1997 
z
M 2816 1759 
L 2241 1759 
Q 1534 1759 1195 1570 
Q 856 1381 856 984 
Q 856 709 1029 553 
Q 1203 397 1509 397 
Q 1978 397 2328 733 
Q 2678 1069 2791 1631 
L 2816 1759 
z
" transform="scale(0.015625)"/>
      <path id="DejaVuSans-Oblique-6d" d="M 5747 2113 
L 5338 0 
L 4763 0 
L 5166 2094 
Q 5191 2228 5203 2325 
Q 5216 2422 5216 2491 
Q 5216 2772 5059 2928 
Q 4903 3084 4622 3084 
Q 4203 3084 3875 2770 
Q 3547 2456 3450 1953 
L 3066 0 
L 2491 0 
L 2900 2094 
Q 2925 2209 2937 2307 
Q 2950 2406 2950 2484 
Q 2950 2769 2794 2926 
Q 2638 3084 2363 3084 
Q 1938 3084 1609 2770 
Q 1281 2456 1184 1953 
L 800 0 
L 225 0 
L 909 3500 
L 1484 3500 
L 1375 2956 
Q 1609 3263 1923 3423 
Q 2238 3584 2597 3584 
Q 2978 3584 3223 3384 
Q 3469 3184 3519 2828 
Q 3781 3197 4126 3390 
Q 4472 3584 4856 3584 
Q 5306 3584 5551 3325 
Q 5797 3066 5797 2591 
Q 5797 2488 5784 2364 
Q 5772 2241 5747 2113 
z
" transform="scale(0.015625)"/>
     </defs>
     <use xlink:href="#DejaVuSans-Oblique-43"/>
     <use xlink:href="#DejaVuSans-Oblique-6f" transform="translate(69.824219 0)"/>
     <use xlink:href="#DejaVuSans-Oblique-6e" transform="translate(131.005859 0)"/>
     <use xlink:href="#DejaVuSans-Oblique-73" transform="translate(194.384766 0)"/>
     <use xlink:href="#DejaVuSans-Oblique-65" transform="translate(246.484375 0)"/>
     <use xlink:href="#DejaVuSans-Oblique-63" transform="translate(308.007812 0)"/>
     <use xlink:href="#DejaVuSans-Oblique-75" transform="translate(362.988281 0)"/>
     <use xlink:href="#DejaVuSans-Oblique-74" transform="translate(426.367188 0)"/>
     <use xlink:href="#DejaVuSans-Oblique-69" transform="translate(465.576172 0)"/>
     <use xlink:href="#DejaVuSans-Oblique-76" transform="translate(493.359375 0)"/>
     <use xlink:href="#DejaVuSans-Oblique-65" transform="translate(552.539062 0)"/>
     <use xlink:href="#DejaVuSans-Oblique-20" transform="translate(614.0625 0)"/>
     <use xlink:href="#DejaVuSans-Oblique-66" transform="translate(645.849609 0)"/>
     <use xlink:href="#DejaVuSans-Oblique-72" transform="translate(681.054688 0)"/>
     <use xlink:href="#DejaVuSans-Oblique-61" transform="translate(722.167969 0)"/>
     <use xlink:href="#DejaVuSans-Oblique-6d" transform="translate(783.447266 0)"/>
     <use xlink:href="#DejaVuSans-Oblique-65" transform="translate(880.859375 0)"/>
    </g>
   </g>
   <g id="text_6">
    <!-- Spatial Encoder -->
    <g style="fill: #111111" transform="translate(104.797969 196.347607) scale(0.095 -0.095)">
     <defs>
      <path id="DejaVuSans-Bold-45" d="M 588 4666 
L 3834 4666 
L 3834 3756 
L 1791 3756 
L 1791 2888 
L 3713 2888 
L 3713 1978 
L 1791 1978 
L 1791 909 
L 3903 909 
L 3903 0 
L 588 0 
L 588 4666 
z
" transform="scale(0.015625)"/>
     </defs>
     <use xlink:href="#DejaVuSans-Bold-53"/>
     <use xlink:href="#DejaVuSans-Bold-70" transform="translate(72.021484 0)"/>
     <use xlink:href="#DejaVuSans-Bold-61" transform="translate(143.603516 0)"/>
     <use xlink:href="#DejaVuSans-Bold-74" transform="translate(211.083984 0)"/>
     <use xlink:href="#DejaVuSans-Bold-69" transform="translate(258.886719 0)"/>
     <use xlink:href="#DejaVuSans-Bold-61" transform="translate(293.164062 0)"/>
     <use xlink:href="#DejaVuSans-Bold-6c" transform="translate(360.644531 0)"/>
     <use xlink:href="#DejaVuSans-Bold-20" transform="translate(394.921875 0)"/>
     <use xlink:href="#DejaVuSans-Bold-45" transform="translate(429.736328 0)"/>
     <use xlink:href="#DejaVuSans-Bold-6e" transform="translate(498.046875 0)"/>
     <use xlink:href="#DejaVuSans-Bold-63" transform="translate(569.238281 0)"/>
     <use xlink:href="#DejaVuSans-Bold-6f" transform="translate(628.515625 0)"/>
     <use xlink:href="#DejaVuSans-Bold-64" transform="translate(697.216797 0)"/>
     <use xlink:href="#DejaVuSans-Bold-65" transform="translate(768.798828 0)"/>
     <use xlink:href="#DejaVuSans-Bold-72" transform="translate(836.621094 0)"/>
    </g>
    <!-- (RHAN Stem) -->
    <g style="fill: #111111" transform="translate(111.738164 206.985528) scale(0.095 -0.095)">
     <defs>
      <path id="DejaVuSans-Bold-52" d="M 2297 2597 
Q 2675 2597 2839 2737 
Q 3003 2878 3003 3200 
Q 3003 3519 2839 3656 
Q 2675 3794 2297 3794 
L 1791 3794 
L 1791 2597 
L 2297 2597 
z
M 1791 1766 
L 1791 0 
L 588 0 
L 588 4666 
L 2425 4666 
Q 3347 4666 3776 4356 
Q 4206 4047 4206 3378 
Q 4206 2916 3982 2619 
Q 3759 2322 3309 2181 
Q 3556 2125 3751 1926 
Q 3947 1728 4147 1325 
L 4800 0 
L 3519 0 
L 2950 1159 
Q 2778 1509 2601 1637 
Q 2425 1766 2131 1766 
L 1791 1766 
z
" transform="scale(0.015625)"/>
      <path id="DejaVuSans-Bold-48" d="M 588 4666 
L 1791 4666 
L 1791 2888 
L 3566 2888 
L 3566 4666 
L 4769 4666 
L 4769 0 
L 3566 0 
L 3566 1978 
L 1791 1978 
L 1791 0 
L 588 0 
L 588 4666 
z
" transform="scale(0.015625)"/>
      <path id="DejaVuSans-Bold-41" d="M 3419 850 
L 1538 850 
L 1241 0 
L 31 0 
L 1759 4666 
L 3194 4666 
L 4922 0 
L 3713 0 
L 3419 850 
z
M 1838 1716 
L 3116 1716 
L 2478 3572 
L 1838 1716 
z
" transform="scale(0.015625)"/>
      <path id="DejaVuSans-Bold-4e" d="M 588 4666 
L 1931 4666 
L 3628 1466 
L 3628 4666 
L 4769 4666 
L 4769 0 
L 3425 0 
L 1728 3200 
L 1728 0 
L 588 0 
L 588 4666 
z
" transform="scale(0.015625)"/>
     </defs>
     <use xlink:href="#DejaVuSans-Bold-28"/>
     <use xlink:href="#DejaVuSans-Bold-52" transform="translate(45.703125 0)"/>
     <use xlink:href="#DejaVuSans-Bold-48" transform="translate(122.705078 0)"/>
     <use xlink:href="#DejaVuSans-Bold-41" transform="translate(206.396484 0)"/>
     <use xlink:href="#DejaVuSans-Bold-4e" transform="translate(283.789062 0)"/>
     <use xlink:href="#DejaVuSans-Bold-20" transform="translate(367.480469 0)"/>
     <use xlink:href="#DejaVuSans-Bold-53" transform="translate(402.294922 0)"/>
     <use xlink:href="#DejaVuSans-Bold-74" transform="translate(474.316406 0)"/>
     <use xlink:href="#DejaVuSans-Bold-65" transform="translate(522.119141 0)"/>
     <use xlink:href="#DejaVuSans-Bold-6d" transform="translate(589.941406 0)"/>
     <use xlink:href="#DejaVuSans-Bold-29" transform="translate(694.140625 0)"/>
    </g>
   </g>
   <g id="text_7">
    <!-- Spatial Encoder -->
    <g style="fill: #111111" transform="translate(523.837969 196.347607) scale(0.095 -0.095)">
     <use xlink:href="#DejaVuSans-Bold-53"/>
     <use xlink:href="#DejaVuSans-Bold-70" transform="translate(72.021484 0)"/>
     <use xlink:href="#DejaVuSans-Bold-61" transform="translate(143.603516 0)"/>
     <use xlink:href="#DejaVuSans-Bold-74" transform="translate(211.083984 0)"/>
     <use xlink:href="#DejaVuSans-Bold-69" transform="translate(258.886719 0)"/>
     <use xlink:href="#DejaVuSans-Bold-61" transform="translate(293.164062 0)"/>
     <use xlink:href="#DejaVuSans-Bold-6c" transform="translate(360.644531 0)"/>
     <use xlink:href="#DejaVuSans-Bold-20" transform="translate(394.921875 0)"/>
     <use xlink:href="#DejaVuSans-Bold-45" transform="translate(429.736328 0)"/>
     <use xlink:href="#DejaVuSans-Bold-6e" transform="translate(498.046875 0)"/>
     <use xlink:href="#DejaVuSans-Bold-63" transform="translate(569.238281 0)"/>
     <use xlink:href="#DejaVuSans-Bold-6f" transform="translate(628.515625 0)"/>
     <use xlink:href="#DejaVuSans-Bold-64" transform="translate(697.216797 0)"/>
     <use xlink:href="#DejaVuSans-Bold-65" transform="translate(768.798828 0)"/>
     <use xlink:href="#DejaVuSans-Bold-72" transform="translate(836.621094 0)"/>
    </g>
    <!-- (RHAN Stem) -->
    <g style="fill: #111111" transform="translate(530.778164 206.985528) scale(0.095 -0.095)">
     <use xlink:href="#DejaVuSans-Bold-28"/>
     <use xlink:href="#DejaVuSans-Bold-52" transform="translate(45.703125 0)"/>
     <use xlink:href="#DejaVuSans-Bold-48" transform="translate(122.705078 0)"/>
     <use xlink:href="#DejaVuSans-Bold-41" transform="translate(206.396484 0)"/>
     <use xlink:href="#DejaVuSans-Bold-4e" transform="translate(283.789062 0)"/>
     <use xlink:href="#DejaVuSans-Bold-20" transform="translate(367.480469 0)"/>
     <use xlink:href="#DejaVuSans-Bold-53" transform="translate(402.294922 0)"/>
     <use xlink:href="#DejaVuSans-Bold-74" transform="translate(474.316406 0)"/>
     <use xlink:href="#DejaVuSans-Bold-65" transform="translate(522.119141 0)"/>
     <use xlink:href="#DejaVuSans-Bold-6d" transform="translate(589.941406 0)"/>
     <use xlink:href="#DejaVuSans-Bold-29" transform="translate(694.140625 0)"/>
    </g>
   </g>
   <g id="patch_11">
    <path d="M 146.88 125.674691 
Q 146.88 151.081576 146.88 174.81141 
" style="fill: none; stroke: #1f77b4; stroke-width: 1.5; stroke-linecap: round"/>
    <path d="M 149.28 170.01141 
L 146.88 174.81141 
L 144.48 170.01141 
z
" style="fill: #1f77b4; stroke: #1f77b4; stroke-width: 1.5; stroke-linecap: round"/>
   </g>
   <g id="patch_12">
    <path d="M 565.92 125.674691 
Q 565.92 151.081576 565.92 174.81141 
" style="fill: none; stroke: #1f77b4; stroke-width: 1.5; stroke-linecap: round"/>
    <path d="M 568.32 170.01141 
L 565.92 174.81141 
L 563.52 170.01141 
z
" style="fill: #1f77b4; stroke: #1f77b4; stroke-width: 1.5; stroke-linecap: round"/>
   </g>
   <g id="text_8">
    <!-- Representation z(t) -->
    <g style="fill: #111111" transform="translate(94.556523 283.885922) scale(0.095 -0.095)">
     <defs>
      <path id="DejaVuSans-Bold-7a" d="M 366 3500 
L 3419 3500 
L 3419 2719 
L 1575 800 
L 3419 800 
L 3419 0 
L 288 0 
L 288 781 
L 2131 2700 
L 366 2700 
L 366 3500 
z
" transform="scale(0.015625)"/>
     </defs>
     <use xlink:href="#DejaVuSans-Bold-52"/>
     <use xlink:href="#DejaVuSans-Bold-65" transform="translate(77.001953 0)"/>
     <use xlink:href="#DejaVuSans-Bold-70" transform="translate(144.824219 0)"/>
     <use xlink:href="#DejaVuSans-Bold-72" transform="translate(216.40625 0)"/>
     <use xlink:href="#DejaVuSans-Bold-65" transform="translate(265.722656 0)"/>
     <use xlink:href="#DejaVuSans-Bold-73" transform="translate(333.544922 0)"/>
     <use xlink:href="#DejaVuSans-Bold-65" transform="translate(393.066406 0)"/>
     <use xlink:href="#DejaVuSans-Bold-6e" transform="translate(460.888672 0)"/>
     <use xlink:href="#DejaVuSans-Bold-74" transform="translate(532.080078 0)"/>
     <use xlink:href="#DejaVuSans-Bold-61" transform="translate(579.882812 0)"/>
     <use xlink:href="#DejaVuSans-Bold-74" transform="translate(647.363281 0)"/>
     <use xlink:href="#DejaVuSans-Bold-69" transform="translate(695.166016 0)"/>
     <use xlink:href="#DejaVuSans-Bold-6f" transform="translate(729.443359 0)"/>
     <use xlink:href="#DejaVuSans-Bold-6e" transform="translate(798.144531 0)"/>
     <use xlink:href="#DejaVuSans-Bold-20" transform="translate(869.335938 0)"/>
     <use xlink:href="#DejaVuSans-Bold-7a" transform="translate(904.150391 0)"/>
     <use xlink:href="#DejaVuSans-Bold-28" transform="translate(962.353516 0)"/>
     <use xlink:href="#DejaVuSans-Bold-74" transform="translate(1008.056641 0)"/>
     <use xlink:href="#DejaVuSans-Bold-29" transform="translate(1055.859375 0)"/>
    </g>
   </g>
   <g id="text_9">
    <!-- Representation z(t+1) -->
    <g style="fill: #111111" transform="translate(506.311211 283.885922) scale(0.095 -0.095)">
     <use xlink:href="#DejaVuSans-Bold-52"/>
     <use xlink:href="#DejaVuSans-Bold-65" transform="translate(77.001953 0)"/>
     <use xlink:href="#DejaVuSans-Bold-70" transform="translate(144.824219 0)"/>
     <use xlink:href="#DejaVuSans-Bold-72" transform="translate(216.40625 0)"/>
     <use xlink:href="#DejaVuSans-Bold-65" transform="translate(265.722656 0)"/>
     <use xlink:href="#DejaVuSans-Bold-73" transform="translate(333.544922 0)"/>
     <use xlink:href="#DejaVuSans-Bold-65" transform="translate(393.066406 0)"/>
     <use xlink:href="#DejaVuSans-Bold-6e" transform="translate(460.888672 0)"/>
     <use xlink:href="#DejaVuSans-Bold-74" transform="translate(532.080078 0)"/>
     <use xlink:href="#DejaVuSans-Bold-61" transform="translate(579.882812 0)"/>
     <use xlink:href="#DejaVuSans-Bold-74" transform="translate(647.363281 0)"/>
     <use xlink:href="#DejaVuSans-Bold-69" transform="translate(695.166016 0)"/>
     <use xlink:href="#DejaVuSans-Bold-6f" transform="translate(729.443359 0)"/>
     <use xlink:href="#DejaVuSans-Bold-6e" transform="translate(798.144531 0)"/>
     <use xlink:href="#DejaVuSans-Bold-20" transform="translate(869.335938 0)"/>
     <use xlink:href="#DejaVuSans-Bold-7a" transform="translate(904.150391 0)"/>
     <use xlink:href="#DejaVuSans-Bold-28" transform="translate(962.353516 0)"/>
     <use xlink:href="#DejaVuSans-Bold-74" transform="translate(1008.056641 0)"/>
     <use xlink:href="#DejaVuSans-Bold-2b" transform="translate(1055.859375 0)"/>
     <use xlink:href="#DejaVuSans-Bold-31" transform="translate(1139.648438 0)"/>
     <use xlink:href="#DejaVuSans-Bold-29" transform="translate(1209.228516 0)"/>
    </g>
   </g>
   <g id="patch_13">
    <path d="M 146.88 221.597899 
Q 146.88 241.865822 146.88 260.456695 
" style="fill: none; stroke: #1f77b4; stroke-width: 1.5; stroke-linecap: round"/>
    <path d="M 149.28 255.656695 
L 146.88 260.456695 
L 144.48 255.656695 
z
" style="fill: #1f77b4; stroke: #1f77b4; stroke-width: 1.5; stroke-linecap: round"/>
   </g>
   <g id="patch_14">
    <path d="M 565.92 221.597899 
Q 565.92 241.865822 565.92 260.456695 
" style="fill: none; stroke: #1f77b4; stroke-width: 1.5; stroke-linecap: round"/>
    <path d="M 568.32 255.656695 
L 565.92 260.456695 
L 563.52 255.656695 
z
" style="fill: #1f77b4; stroke: #1f77b4; stroke-width: 1.5; stroke-linecap: round"/>
   </g>
   <g id="text_10">
    <!-- Motion Encoder -->
    <g style="fill: #111111" transform="translate(314.542852 196.347607) scale(0.095 -0.095)">
     <defs>
      <path id="DejaVuSans-Bold-4d" d="M 588 4666 
L 2119 4666 
L 3181 2169 
L 4250 4666 
L 5778 4666 
L 5778 0 
L 4641 0 
L 4641 3413 
L 3566 897 
L 2803 897 
L 1728 3413 
L 1728 0 
L 588 0 
L 588 4666 
z
" transform="scale(0.015625)"/>
     </defs>
     <use xlink:href="#DejaVuSans-Bold-4d"/>
     <use xlink:href="#DejaVuSans-Bold-6f" transform="translate(99.511719 0)"/>
     <use xlink:href="#DejaVuSans-Bold-74" transform="translate(168.212891 0)"/>
     <use xlink:href="#DejaVuSans-Bold-69" transform="translate(216.015625 0)"/>
     <use xlink:href="#DejaVuSans-Bold-6f" transform="translate(250.292969 0)"/>
     <use xlink:href="#DejaVuSans-Bold-6e" transform="translate(318.994141 0)"/>
     <use xlink:href="#DejaVuSans-Bold-20" transform="translate(390.185547 0)"/>
     <use xlink:href="#DejaVuSans-Bold-45" transform="translate(425 0)"/>
     <use xlink:href="#DejaVuSans-Bold-6e" transform="translate(493.310547 0)"/>
     <use xlink:href="#DejaVuSans-Bold-63" transform="translate(564.501953 0)"/>
     <use xlink:href="#DejaVuSans-Bold-6f" transform="translate(623.779297 0)"/>
     <use xlink:href="#DejaVuSans-Bold-64" transform="translate(692.480469 0)"/>
     <use xlink:href="#DejaVuSans-Bold-65" transform="translate(764.0625 0)"/>
     <use xlink:href="#DejaVuSans-Bold-72" transform="translate(831.884766 0)"/>
    </g>
    <!-- (Temporal Diff) -->
    <g style="fill: #111111" transform="translate(316.078438 206.985528) scale(0.095 -0.095)">
     <use xlink:href="#DejaVuSans-Bold-28"/>
     <use xlink:href="#DejaVuSans-Bold-54" transform="translate(45.703125 0)"/>
     <use xlink:href="#DejaVuSans-Bold-65" transform="translate(100.666016 0)"/>
     <use xlink:href="#DejaVuSans-Bold-6d" transform="translate(168.488281 0)"/>
     <use xlink:href="#DejaVuSans-Bold-70" transform="translate(272.6875 0)"/>
     <use xlink:href="#DejaVuSans-Bold-6f" transform="translate(344.269531 0)"/>
     <use xlink:href="#DejaVuSans-Bold-72" transform="translate(412.970703 0)"/>
     <use xlink:href="#DejaVuSans-Bold-61" transform="translate(462.287109 0)"/>
     <use xlink:href="#DejaVuSans-Bold-6c" transform="translate(529.767578 0)"/>
     <use xlink:href="#DejaVuSans-Bold-20" transform="translate(564.044922 0)"/>
     <use xlink:href="#DejaVuSans-Bold-44" transform="translate(598.859375 0)"/>
     <use xlink:href="#DejaVuSans-Bold-69" transform="translate(681.867188 0)"/>
     <use xlink:href="#DejaVuSans-Bold-66" transform="translate(716.144531 0)"/>
     <use xlink:href="#DejaVuSans-Bold-66" transform="translate(759.650391 0)"/>
     <use xlink:href="#DejaVuSans-Bold-29" transform="translate(803.15625 0)"/>
    </g>
   </g>
   <g id="patch_15">
    <path d="M 148.659142 104.036847 
Q 220.210632 140.805749 290.270495 176.808133 
" style="fill: none; stroke: #1f77b4; stroke-width: 1.5; stroke-linecap: round"/>
    <path d="M 287.09816 172.479588 
L 290.270495 176.808133 
L 284.904259 176.748874 
z
" style="fill: #1f77b4; stroke: #1f77b4; stroke-width: 1.5; stroke-linecap: round"/>
   </g>
   <g id="patch_16">
    <path d="M 564.140858 104.036847 
Q 492.589368 140.805749 422.529505 176.808133 
" style="fill: none; stroke: #1f77b4; stroke-width: 1.5; stroke-linecap: round"/>
    <path d="M 427.895741 176.748874 
L 422.529505 176.808133 
L 425.70184 172.479588 
z
" style="fill: #1f77b4; stroke: #1f77b4; stroke-width: 1.5; stroke-linecap: round"/>
   </g>
   <g id="text_11">
    <!-- Motion Vector (m) -->
    <g style="fill: #111111" transform="translate(310.489453 278.609244) scale(0.09 -0.09)">
     <use xlink:href="#DejaVuSans-Bold-4d"/>
     <use xlink:href="#DejaVuSans-Bold-6f" transform="translate(99.511719 0)"/>
     <use xlink:href="#DejaVuSans-Bold-74" transform="translate(168.212891 0)"/>
     <use xlink:href="#DejaVuSans-Bold-69" transform="translate(216.015625 0)"/>
     <use xlink:href="#DejaVuSans-Bold-6f" transform="translate(250.292969 0)"/>
     <use xlink:href="#DejaVuSans-Bold-6e" transform="translate(318.994141 0)"/>
     <use xlink:href="#DejaVuSans-Bold-20" transform="translate(390.185547 0)"/>
     <use xlink:href="#DejaVuSans-Bold-56" transform="translate(425 0)"/>
     <use xlink:href="#DejaVuSans-Bold-65" transform="translate(496.892578 0)"/>
     <use xlink:href="#DejaVuSans-Bold-63" transform="translate(564.714844 0)"/>
     <use xlink:href="#DejaVuSans-Bold-74" transform="translate(623.992188 0)"/>
     <use xlink:href="#DejaVuSans-Bold-6f" transform="translate(671.794922 0)"/>
     <use xlink:href="#DejaVuSans-Bold-72" transform="translate(740.496094 0)"/>
     <use xlink:href="#DejaVuSans-Bold-20" transform="translate(789.8125 0)"/>
     <use xlink:href="#DejaVuSans-Bold-28" transform="translate(824.626953 0)"/>
     <use xlink:href="#DejaVuSans-Bold-6d" transform="translate(870.330078 0)"/>
     <use xlink:href="#DejaVuSans-Bold-29" transform="translate(974.529297 0)"/>
    </g>
   </g>
   <g id="text_12">
    <!-- Dynamics descriptor -->
    <g style="fill: #555555" transform="translate(317.742773 290.18566) scale(0.075 -0.075)">
     <defs>
      <path id="DejaVuSans-Oblique-44" d="M 1081 4666 
L 2438 4666 
Q 3519 4666 4070 4208 
Q 4622 3750 4622 2847 
Q 4622 2250 4412 1698 
Q 4203 1147 3834 769 
Q 3463 381 2891 190 
Q 2319 0 1538 0 
L 172 0 
L 1081 4666 
z
M 1613 4147 
L 909 519 
L 1734 519 
Q 2794 519 3375 1128 
Q 3956 1738 3956 2847 
Q 3956 3519 3581 3833 
Q 3206 4147 2406 4147 
L 1613 4147 
z
" transform="scale(0.015625)"/>
      <path id="DejaVuSans-Oblique-79" d="M 1588 -325 
Q 1188 -997 936 -1164 
Q 684 -1331 294 -1331 
L -159 -1331 
L -63 -850 
L 269 -850 
Q 509 -850 678 -719 
Q 847 -588 1056 -206 
L 1234 128 
L 459 3500 
L 1069 3500 
L 1650 819 
L 3256 3500 
L 3859 3500 
L 1588 -325 
z
" transform="scale(0.015625)"/>
      <path id="DejaVuSans-Oblique-64" d="M 2675 525 
Q 2444 222 2128 65 
Q 1813 -91 1428 -91 
Q 903 -91 598 267 
Q 294 625 294 1247 
Q 294 1766 478 2236 
Q 663 2706 1013 3078 
Q 1244 3325 1534 3454 
Q 1825 3584 2144 3584 
Q 2481 3584 2739 3421 
Q 2997 3259 3138 2956 
L 3513 4863 
L 4091 4863 
L 3144 0 
L 2566 0 
L 2675 525 
z
M 891 1350 
Q 891 897 1095 644 
Q 1300 391 1663 391 
Q 1931 391 2161 520 
Q 2391 650 2566 903 
Q 2750 1166 2856 1509 
Q 2963 1853 2963 2188 
Q 2963 2622 2758 2865 
Q 2553 3109 2194 3109 
Q 1922 3109 1687 2981 
Q 1453 2853 1288 2613 
Q 1106 2353 998 2009 
Q 891 1666 891 1350 
z
" transform="scale(0.015625)"/>
      <path id="DejaVuSans-Oblique-70" d="M 3175 2156 
Q 3175 2616 2975 2859 
Q 2775 3103 2400 3103 
Q 2144 3103 1911 2972 
Q 1678 2841 1497 2591 
Q 1319 2344 1212 1994 
Q 1106 1644 1106 1300 
Q 1106 863 1306 627 
Q 1506 391 1875 391 
Q 2147 391 2380 519 
Q 2613 647 2778 891 
Q 2956 1147 3065 1494 
Q 3175 1841 3175 2156 
z
M 1394 2969 
Q 1625 3272 1939 3428 
Q 2253 3584 2638 3584 
Q 3175 3584 3472 3232 
Q 3769 2881 3769 2247 
Q 3769 1728 3584 1258 
Q 3400 788 3053 416 
Q 2822 169 2531 39 
Q 2241 -91 1919 -91 
Q 1547 -91 1294 64 
Q 1041 219 916 525 
L 556 -1331 
L -19 -1331 
L 922 3500 
L 1497 3500 
L 1394 2969 
z
" transform="scale(0.015625)"/>
     </defs>
     <use xlink:href="#DejaVuSans-Oblique-44"/>
     <use xlink:href="#DejaVuSans-Oblique-79" transform="translate(77.001953 0)"/>
     <use xlink:href="#DejaVuSans-Oblique-6e" transform="translate(136.181641 0)"/>
     <use xlink:href="#DejaVuSans-Oblique-61" transform="translate(199.560547 0)"/>
     <use xlink:href="#DejaVuSans-Oblique-6d" transform="translate(260.839844 0)"/>
     <use xlink:href="#DejaVuSans-Oblique-69" transform="translate(358.251953 0)"/>
     <use xlink:href="#DejaVuSans-Oblique-63" transform="translate(386.035156 0)"/>
     <use xlink:href="#DejaVuSans-Oblique-73" transform="translate(441.015625 0)"/>
     <use xlink:href="#DejaVuSans-Oblique-20" transform="translate(493.115234 0)"/>
     <use xlink:href="#DejaVuSans-Oblique-64" transform="translate(524.902344 0)"/>
     <use xlink:href="#DejaVuSans-Oblique-65" transform="translate(588.378906 0)"/>
     <use xlink:href="#DejaVuSans-Oblique-73" transform="translate(649.902344 0)"/>
     <use xlink:href="#DejaVuSans-Oblique-63" transform="translate(702.001953 0)"/>
     <use xlink:href="#DejaVuSans-Oblique-72" transform="translate(756.982422 0)"/>
     <use xlink:href="#DejaVuSans-Oblique-69" transform="translate(798.095703 0)"/>
     <use xlink:href="#DejaVuSans-Oblique-70" transform="translate(825.878906 0)"/>
     <use xlink:href="#DejaVuSans-Oblique-74" transform="translate(889.355469 0)"/>
     <use xlink:href="#DejaVuSans-Oblique-6f" transform="translate(928.564453 0)"/>
     <use xlink:href="#DejaVuSans-Oblique-72" transform="translate(989.746094 0)"/>
    </g>
   </g>
   <g id="patch_17">
    <path d="M 356.4 221.597899 
Q 356.4 241.865822 356.4 260.456695 
" style="fill: none; stroke: #1f77b4; stroke-width: 1.5; stroke-linecap: round"/>
    <path d="M 358.8 255.656695 
L 356.4 260.456695 
L 354 255.656695 
z
" style="fill: #1f77b4; stroke: #1f77b4; stroke-width: 1.5; stroke-linecap: round"/>
   </g>
   <g id="text_13">
    <!-- Prediction Loss (MSE) -->
    <g style="fill: #111111" transform="translate(301.055625 353.976986) scale(0.09 -0.09)">
     <defs>
      <path id="DejaVuSans-Bold-50" d="M 588 4666 
L 2584 4666 
Q 3475 4666 3951 4270 
Q 4428 3875 4428 3144 
Q 4428 2409 3951 2014 
Q 3475 1619 2584 1619 
L 1791 1619 
L 1791 0 
L 588 0 
L 588 4666 
z
M 1791 3794 
L 1791 2491 
L 2456 2491 
Q 2806 2491 2997 2661 
Q 3188 2831 3188 3144 
Q 3188 3456 2997 3625 
Q 2806 3794 2456 3794 
L 1791 3794 
z
" transform="scale(0.015625)"/>
     </defs>
     <use xlink:href="#DejaVuSans-Bold-50"/>
     <use xlink:href="#DejaVuSans-Bold-72" transform="translate(73.291016 0)"/>
     <use xlink:href="#DejaVuSans-Bold-65" transform="translate(122.607422 0)"/>
     <use xlink:href="#DejaVuSans-Bold-64" transform="translate(190.429688 0)"/>
     <use xlink:href="#DejaVuSans-Bold-69" transform="translate(262.011719 0)"/>
     <use xlink:href="#DejaVuSans-Bold-63" transform="translate(296.289062 0)"/>
     <use xlink:href="#DejaVuSans-Bold-74" transform="translate(355.566406 0)"/>
     <use xlink:href="#DejaVuSans-Bold-69" transform="translate(403.369141 0)"/>
     <use xlink:href="#DejaVuSans-Bold-6f" transform="translate(437.646484 0)"/>
     <use xlink:href="#DejaVuSans-Bold-6e" transform="translate(506.347656 0)"/>
     <use xlink:href="#DejaVuSans-Bold-20" transform="translate(577.539062 0)"/>
     <use xlink:href="#DejaVuSans-Bold-4c" transform="translate(612.353516 0)"/>
     <use xlink:href="#DejaVuSans-Bold-6f" transform="translate(676.074219 0)"/>
     <use xlink:href="#DejaVuSans-Bold-73" transform="translate(744.775391 0)"/>
     <use xlink:href="#DejaVuSans-Bold-73" transform="translate(804.296875 0)"/>
     <use xlink:href="#DejaVuSans-Bold-20" transform="translate(863.818359 0)"/>
     <use xlink:href="#DejaVuSans-Bold-28" transform="translate(898.632812 0)"/>
     <use xlink:href="#DejaVuSans-Bold-4d" transform="translate(944.335938 0)"/>
     <use xlink:href="#DejaVuSans-Bold-53" transform="translate(1043.847656 0)"/>
     <use xlink:href="#DejaVuSans-Bold-45" transform="translate(1115.869141 0)"/>
     <use xlink:href="#DejaVuSans-Bold-29" transform="translate(1184.179688 0)"/>
    </g>
   </g>
   <g id="text_14">
    <!-- z(t) + m = z(t+1) -->
    <g style="fill: #555555" transform="translate(323.438086 365.553402) scale(0.075 -0.075)">
     <defs>
      <path id="DejaVuSans-Oblique-7a" d="M 744 3500 
L 3475 3500 
L 3372 2975 
L 738 459 
L 2913 459 
L 2822 0 
L -19 0 
L 84 525 
L 2719 3041 
L 653 3041 
L 744 3500 
z
" transform="scale(0.015625)"/>
      <path id="DejaVuSans-Oblique-28" d="M 2731 4856 
Q 1903 3822 1495 2892 
Q 1088 1963 1088 1100 
Q 1088 606 1206 120 
Q 1325 -366 1563 -844 
L 1063 -844 
Q 775 -306 634 201 
Q 494 709 494 1197 
Q 494 2125 923 3036 
Q 1353 3947 2222 4856 
L 2731 4856 
z
" transform="scale(0.015625)"/>
      <path id="DejaVuSans-Oblique-29" d="M -397 -844 
Q 434 191 840 1120 
Q 1247 2050 1247 2913 
Q 1247 3406 1130 3892 
Q 1013 4378 775 4856 
L 1275 4856 
Q 1563 4316 1703 3812 
Q 1844 3309 1844 2822 
Q 1844 1891 1411 973 
Q 978 56 116 -844 
L -397 -844 
z
" transform="scale(0.015625)"/>
      <path id="DejaVuSans-Oblique-2b" d="M 2944 4013 
L 2944 2272 
L 4684 2272 
L 4684 1741 
L 2944 1741 
L 2944 0 
L 2419 0 
L 2419 1741 
L 678 1741 
L 678 2272 
L 2419 2272 
L 2419 4013 
L 2944 4013 
z
" transform="scale(0.015625)"/>
      <path id="DejaVuSans-Oblique-3d" d="M 678 2906 
L 4684 2906 
L 4684 2381 
L 678 2381 
L 678 2906 
z
M 678 1631 
L 4684 1631 
L 4684 1100 
L 678 1100 
L 678 1631 
z
" transform="scale(0.015625)"/>
     </defs>
     <use xlink:href="#DejaVuSans-Oblique-7a"/>
     <use xlink:href="#DejaVuSans-Oblique-28" transform="translate(52.490234 0)"/>
     <use xlink:href="#DejaVuSans-Oblique-74" transform="translate(91.503906 0)"/>
     <use xlink:href="#DejaVuSans-Oblique-29" transform="translate(130.712891 0)"/>
     <use xlink:href="#DejaVuSans-Oblique-20" transform="translate(169.726562 0)"/>
     <use xlink:href="#DejaVuSans-Oblique-2b" transform="translate(201.513672 0)"/>
     <use xlink:href="#DejaVuSans-Oblique-20" transform="translate(285.302734 0)"/>
     <use xlink:href="#DejaVuSans-Oblique-6d" transform="translate(317.089844 0)"/>
     <use xlink:href="#DejaVuSans-Oblique-20" transform="translate(414.501953 0)"/>
     <use xlink:href="#DejaVuSans-Oblique-3d" transform="translate(446.289062 0)"/>
     <use xlink:href="#DejaVuSans-Oblique-20" transform="translate(530.078125 0)"/>
     <use xlink:href="#DejaVuSans-Oblique-7a" transform="translate(561.865234 0)"/>
     <use xlink:href="#DejaVuSans-Oblique-28" transform="translate(614.355469 0)"/>
     <use xlink:href="#DejaVuSans-Oblique-74" transform="translate(653.369141 0)"/>
     <use xlink:href="#DejaVuSans-Oblique-2b" transform="translate(692.578125 0)"/>
     <use xlink:href="#DejaVuSans-Oblique-31" transform="translate(776.367188 0)"/>
     <use xlink:href="#DejaVuSans-Oblique-29" transform="translate(839.990234 0)"/>
    </g>
   </g>
   <g id="patch_18">
    <path d="M 148.617261 282.251234 
Q 213.227383 318.948036 276.37925 354.81659 
" style="fill: none; stroke: #1f77b4; stroke-width: 1.5; stroke-linecap: round"/>
    <path d="M 273.390777 350.359121 
L 276.37925 354.81659 
L 271.020191 354.532887 
z
" style="fill: #1f77b4; stroke: #1f77b4; stroke-width: 1.5; stroke-linecap: round"/>
   </g>
   <g id="patch_19">
    <path d="M 356.4 300.393329 
Q 356.4 318.948092 356.4 335.825803 
" style="fill: none; stroke: #1f77b4; stroke-width: 1.5; stroke-linecap: round"/>
    <path d="M 358.8 331.025803 
L 356.4 335.825803 
L 354 331.025803 
z
" style="fill: #1f77b4; stroke: #1f77b4; stroke-width: 1.5; stroke-linecap: round"/>
   </g>
   <g id="patch_20">
    <path d="M 564.182739 282.251234 
Q 499.572617 318.948036 436.42075 354.81659 
" style="fill: none; stroke: #1f77b4; stroke-width: 1.5; stroke-linecap: round"/>
    <path d="M 441.779809 354.532887 
L 436.42075 354.81659 
L 439.409223 350.359121 
z
" style="fill: #1f77b4; stroke: #1f77b4; stroke-width: 1.5; stroke-linecap: round"/>
   </g>
   <g id="text_15">
    <!-- Variance Regularization (VICReg)  |  Covariance Decorrelation (VICReg) -->
    <g style="fill: #555555" transform="translate(186.011523 411.445161) scale(0.085 -0.085)">
     <defs>
      <path id="DejaVuSans-Bold-49" d="M 588 4666 
L 1791 4666 
L 1791 0 
L 588 0 
L 588 4666 
z
" transform="scale(0.015625)"/>
      <path id="DejaVuSans-Bold-43" d="M 4288 256 
Q 3956 84 3597 -3 
Q 3238 -91 2847 -91 
Q 1681 -91 1000 561 
Q 319 1213 319 2328 
Q 319 3447 1000 4098 
Q 1681 4750 2847 4750 
Q 3238 4750 3597 4662 
Q 3956 4575 4288 4403 
L 4288 3438 
Q 3953 3666 3628 3772 
Q 3303 3878 2944 3878 
Q 2300 3878 1931 3465 
Q 1563 3053 1563 2328 
Q 1563 1606 1931 1193 
Q 2300 781 2944 781 
Q 3303 781 3628 887 
Q 3953 994 4288 1222 
L 4288 256 
z
" transform="scale(0.015625)"/>
      <path id="DejaVuSans-Bold-7c" d="M 1522 4891 
L 1522 -1509 
L 813 -1509 
L 813 4891 
L 1522 4891 
z
" transform="scale(0.015625)"/>
     </defs>
     <use xlink:href="#DejaVuSans-Bold-56"/>
     <use xlink:href="#DejaVuSans-Bold-61" transform="translate(71.892578 0)"/>
     <use xlink:href="#DejaVuSans-Bold-72" transform="translate(139.373047 0)"/>
     <use xlink:href="#DejaVuSans-Bold-69" transform="translate(188.689453 0)"/>
     <use xlink:href="#DejaVuSans-Bold-61" transform="translate(222.966797 0)"/>
     <use xlink:href="#DejaVuSans-Bold-6e" transform="translate(290.447266 0)"/>
     <use xlink:href="#DejaVuSans-Bold-63" transform="translate(361.638672 0)"/>
     <use xlink:href="#DejaVuSans-Bold-65" transform="translate(420.916016 0)"/>
     <use xlink:href="#DejaVuSans-Bold-20" transform="translate(488.738281 0)"/>
     <use xlink:href="#DejaVuSans-Bold-52" transform="translate(523.552734 0)"/>
     <use xlink:href="#DejaVuSans-Bold-65" transform="translate(600.554688 0)"/>
     <use xlink:href="#DejaVuSans-Bold-67" transform="translate(668.376953 0)"/>
     <use xlink:href="#DejaVuSans-Bold-75" transform="translate(739.958984 0)"/>
     <use xlink:href="#DejaVuSans-Bold-6c" transform="translate(811.150391 0)"/>
     <use xlink:href="#DejaVuSans-Bold-61" transform="translate(845.427734 0)"/>
     <use xlink:href="#DejaVuSans-Bold-72" transform="translate(912.908203 0)"/>
     <use xlink:href="#DejaVuSans-Bold-69" transform="translate(962.224609 0)"/>
     <use xlink:href="#DejaVuSans-Bold-7a" transform="translate(996.501953 0)"/>
     <use xlink:href="#DejaVuSans-Bold-61" transform="translate(1054.705078 0)"/>
     <use xlink:href="#DejaVuSans-Bold-74" transform="translate(1122.185547 0)"/>
     <use xlink:href="#DejaVuSans-Bold-69" transform="translate(1169.988281 0)"/>
     <use xlink:href="#DejaVuSans-Bold-6f" transform="translate(1204.265625 0)"/>
     <use xlink:href="#DejaVuSans-Bold-6e" transform="translate(1272.966797 0)"/>
     <use xlink:href="#DejaVuSans-Bold-20" transform="translate(1344.158203 0)"/>
     <use xlink:href="#DejaVuSans-Bold-28" transform="translate(1378.972656 0)"/>
     <use xlink:href="#DejaVuSans-Bold-56" transform="translate(1424.675781 0)"/>
     <use xlink:href="#DejaVuSans-Bold-49" transform="translate(1502.068359 0)"/>
     <use xlink:href="#DejaVuSans-Bold-43" transform="translate(1539.275391 0)"/>
     <use xlink:href="#DejaVuSans-Bold-52" transform="translate(1612.664062 0)"/>
     <use xlink:href="#DejaVuSans-Bold-65" transform="translate(1689.666016 0)"/>
     <use xlink:href="#DejaVuSans-Bold-67" transform="translate(1757.488281 0)"/>
     <use xlink:href="#DejaVuSans-Bold-29" transform="translate(1829.070312 0)"/>
     <use xlink:href="#DejaVuSans-Bold-20" transform="translate(1874.773438 0)"/>
     <use xlink:href="#DejaVuSans-Bold-20" transform="translate(1909.587891 0)"/>
     <use xlink:href="#DejaVuSans-Bold-7c" transform="translate(1944.402344 0)"/>
     <use xlink:href="#DejaVuSans-Bold-20" transform="translate(1980.925781 0)"/>
     <use xlink:href="#DejaVuSans-Bold-20" transform="translate(2015.740234 0)"/>
     <use xlink:href="#DejaVuSans-Bold-43" transform="translate(2050.554688 0)"/>
     <use xlink:href="#DejaVuSans-Bold-6f" transform="translate(2123.943359 0)"/>
     <use xlink:href="#DejaVuSans-Bold-76" transform="translate(2192.644531 0)"/>
     <use xlink:href="#DejaVuSans-Bold-61" transform="translate(2257.830078 0)"/>
     <use xlink:href="#DejaVuSans-Bold-72" transform="translate(2325.310547 0)"/>
     <use xlink:href="#DejaVuSans-Bold-69" transform="translate(2374.626953 0)"/>
     <use xlink:href="#DejaVuSans-Bold-61" transform="translate(2408.904297 0)"/>
     <use xlink:href="#DejaVuSans-Bold-6e" transform="translate(2476.384766 0)"/>
     <use xlink:href="#DejaVuSans-Bold-63" transform="translate(2547.576172 0)"/>
     <use xlink:href="#DejaVuSans-Bold-65" transform="translate(2606.853516 0)"/>
     <use xlink:href="#DejaVuSans-Bold-20" transform="translate(2674.675781 0)"/>
     <use xlink:href="#DejaVuSans-Bold-44" transform="translate(2709.490234 0)"/>
     <use xlink:href="#DejaVuSans-Bold-65" transform="translate(2792.498047 0)"/>
     <use xlink:href="#DejaVuSans-Bold-63" transform="translate(2860.320312 0)"/>
     <use xlink:href="#DejaVuSans-Bold-6f" transform="translate(2919.597656 0)"/>
     <use xlink:href="#DejaVuSans-Bold-72" transform="translate(2988.298828 0)"/>
     <use xlink:href="#DejaVuSans-Bold-72" transform="translate(3037.615234 0)"/>
     <use xlink:href="#DejaVuSans-Bold-65" transform="translate(3086.931641 0)"/>
     <use xlink:href="#DejaVuSans-Bold-6c" transform="translate(3154.753906 0)"/>
     <use xlink:href="#DejaVuSans-Bold-61" transform="translate(3189.03125 0)"/>
     <use xlink:href="#DejaVuSans-Bold-74" transform="translate(3256.511719 0)"/>
     <use xlink:href="#DejaVuSans-Bold-69" transform="translate(3304.314453 0)"/>
     <use xlink:href="#DejaVuSans-Bold-6f" transform="translate(3338.591797 0)"/>
     <use xlink:href="#DejaVuSans-Bold-6e" transform="translate(3407.292969 0)"/>
     <use xlink:href="#DejaVuSans-Bold-20" transform="translate(3478.484375 0)"/>
     <use xlink:href="#DejaVuSans-Bold-28" transform="translate(3513.298828 0)"/>
     <use xlink:href="#DejaVuSans-Bold-56" transform="translate(3559.001953 0)"/>
     <use xlink:href="#DejaVuSans-Bold-49" transform="translate(3636.394531 0)"/>
     <use xlink:href="#DejaVuSans-Bold-43" transform="translate(3673.601562 0)"/>
     <use xlink:href="#DejaVuSans-Bold-52" transform="translate(3746.990234 0)"/>
     <use xlink:href="#DejaVuSans-Bold-65" transform="translate(3823.992188 0)"/>
     <use xlink:href="#DejaVuSans-Bold-67" transform="translate(3891.814453 0)"/>
     <use xlink:href="#DejaVuSans-Bold-29" transform="translate(3963.396484 0)"/>
    </g>
   </g>
  </g>
 </g>
 <defs>
  <clipPath id="p890242b334">
   <rect x="7.2" y="7.2" width="698.4" height="424.8"/>
  </clipPath>
 </defs>
</svg>
