<?xml version="1.0" encoding="utf-8" standalone="no"?>
<!DOCTYPE svg PUBLIC "-//W3C//DTD SVG 1.1//EN"
  "http://www.w3.org/Graphics/SVG/1.1/DTD/svg11.dtd">
<svg xmlns:xlink="http://www.w3.org/1999/xlink" width="712.433125pt" height="351.714531pt" viewBox="0 0 712.433125 351.714531" xmlns="http://www.w3.org/2000/svg" version="1.1">
 <metadata>
  <rdf:RDF xmlns:dc="http://purl.org/dc/elements/1.1/" xmlns:cc="http://creativecommons.org/ns#" xmlns:rdf="http://www.w3.org/1999/02/22-rdf-syntax-ns#">
   <cc:Work>
    <dc:type rdf:resource="http://purl.org/dc/dcmitype/StillImage"/>
    <dc:date>2026-07-07T07:10:54.089788</dc:date>
    <dc:format>image/svg+xml</dc:format>
    <dc:creator>
     <cc:Agent>
      <dc:title>Matplotlib v3.10.9, https://matplotlib.org/</dc:title>
     </cc:Agent>
    </dc:creator>
   </cc:Work>
  </rdf:RDF>
 </metadata>
 <defs>
  <style type="text/css">*{stroke-linejoin: round; stroke-linecap: butt}</style>
 </defs>
 <g id="figure_1">
  <g id="patch_1">
   <path d="M -0 351.714531 
L 712.433125 351.714531 
L 712.433125 0 
L -0 0 
z
" style="fill: #ffffff"/>
  </g>
  <g id="axes_1">
   <g id="patch_2">
    <path d="M 40.603125 314.158281 
L 345.908125 314.158281 
L 345.908125 21.558281 
L 40.603125 21.558281 
z
" style="fill: #ffffff"/>
   </g>
   <g id="FillBetweenPolyCollection_1">
    <defs>
     <path id="m5ef965d367" d="M 54.480625 -50.85625 
L 54.480625 -316.85625 
L 55.875349 -308.557258 
L 57.270072 -300.461852 
L 58.664796 -292.566384 
L 60.059519 -284.867245 
L 61.454243 -277.360861 
L 62.848967 -270.043697 
L 64.24369 -262.912253 
L 65.638414 -255.963069 
L 67.033138 -249.19272 
L 68.427861 -242.59782 
L 69.822585 -236.175019 
L 71.217308 -229.921004 
L 72.612032 -223.8325 
L 74.006756 -217.906269 
L 75.401479 -212.13911 
L 76.796203 -206.52786 
L 78.190927 -201.069393 
L 79.58565 -195.760618 
L 80.980374 -190.598484 
L 82.375097 -185.579977 
L 83.769821 -180.702119 
L 85.164545 -175.96197 
L 86.559268 -171.356626 
L 87.953992 -166.883221 
L 89.348715 -162.538928 
L 90.743439 -158.320955 
L 92.138163 -154.226547 
L 93.532886 -150.252987 
L 94.92761 -146.397597 
L 96.322334 -142.657732 
L 97.717057 -139.030789 
L 99.111781 -135.514198 
L 100.506504 -132.105429 
L 101.901228 -128.801989 
L 103.295952 -125.60142 
L 104.690675 -122.501304 
L 106.085399 -119.499258 
L 107.480122 -116.592938 
L 108.874846 -113.780037 
L 110.26957 -111.058283 
L 111.664293 -108.425445 
L 113.059017 -105.879325 
L 114.453741 -103.417765 
L 115.848464 -101.038644 
L 117.243188 -98.739877 
L 118.637911 -96.519418 
L 120.032635 -94.375256 
L 121.427359 -92.30542 
L 122.822082 -90.307973 
L 124.216806 -88.381017 
L 125.61153 -86.522692 
L 127.006253 -84.731174 
L 128.400977 -83.004676 
L 129.7957 -81.341449 
L 131.190424 -79.739781 
L 132.585148 -78.197997 
L 133.979871 -76.71446 
L 135.374595 -75.287569 
L 136.769318 -73.91576 
L 138.164042 -72.597509 
L 139.558766 -71.331325 
L 140.953489 -70.115759 
L 142.348213 -68.949394 
L 143.742937 -67.830855 
L 145.13766 -66.758801 
L 146.532384 -65.73193 
L 147.927107 -64.748975 
L 149.321831 -63.80871 
L 150.716555 -62.909943 
L 152.111278 -62.051521 
L 153.506002 -61.232325 
L 154.900726 -60.451279 
L 156.295449 -59.707338 
L 157.690173 -58.999498 
L 159.084896 -58.326793 
L 160.47962 -57.68829 
L 161.874344 -57.083097 
L 163.269067 -56.510358 
L 164.663791 -55.969254 
L 166.058514 -55.459004 
L 167.453238 -54.978862 
L 168.847962 -54.528123 
L 170.242685 -54.106115 
L 171.637409 -53.712207 
L 173.032133 -53.345802 
L 174.426856 -53.006343 
L 175.82158 -52.693308 
L 177.216303 -52.406214 
L 178.611027 -52.144613 
L 180.005751 -51.908097 
L 181.400474 -51.696294 
L 182.795198 -51.508868 
L 184.189921 -51.345521 
L 185.584645 -51.205994 
L 186.979369 -51.090062 
L 188.374092 -50.99754 
L 189.768816 -50.928278 
L 191.16354 -50.882166 
L 192.558263 -50.859129 
L 193.952987 -50.859129 
L 195.34771 -50.882166 
L 196.742434 -50.928278 
L 198.137158 -50.99754 
L 199.531881 -51.090062 
L 200.926605 -51.205994 
L 202.321329 -51.345521 
L 203.716052 -51.508868 
L 205.110776 -51.696294 
L 206.505499 -51.908097 
L 207.900223 -52.144613 
L 209.294947 -52.406214 
L 210.68967 -52.693308 
L 212.084394 -53.006343 
L 213.479117 -53.345802 
L 214.873841 -53.712207 
L 216.268565 -54.106115 
L 217.663288 -54.528123 
L 219.058012 -54.978862 
L 220.452736 -55.459004 
L 221.847459 -55.969254 
L 223.242183 -56.510358 
L 224.636906 -57.083097 
L 226.03163 -57.68829 
L 227.426354 -58.326793 
L 228.821077 -58.999498 
L 230.215801 -59.707338 
L 231.610524 -60.451279 
L 233.005248 -61.232325 
L 234.399972 -62.051521 
L 235.794695 -62.909943 
L 237.189419 -63.80871 
L 238.584143 -64.748975 
L 239.978866 -65.73193 
L 241.37359 -66.758801 
L 242.768313 -67.830855 
L 244.163037 -68.949394 
L 245.557761 -70.115759 
L 246.952484 -71.331325 
L 248.347208 -72.597509 
L 249.741932 -73.91576 
L 251.136655 -75.287569 
L 252.531379 -76.71446 
L 253.926102 -78.197997 
L 255.320826 -79.739781 
L 256.71555 -81.341449 
L 258.110273 -83.004676 
L 259.504997 -84.731174 
L 260.89972 -86.522692 
L 262.294444 -88.381017 
L 263.689168 -90.307973 
L 265.083891 -92.30542 
L 266.478615 -94.375256 
L 267.873339 -96.519418 
L 269.268062 -98.739877 
L 270.662786 -101.038644 
L 272.057509 -103.417765 
L 273.452233 -105.879325 
L 274.846957 -108.425445 
L 276.24168 -111.058283 
L 277.636404 -113.780037 
L 279.031128 -116.592938 
L 280.425851 -119.499258 
L 281.820575 -122.501304 
L 283.215298 -125.60142 
L 284.610022 -128.801989 
L 286.004746 -132.105429 
L 287.399469 -135.514198 
L 288.794193 -139.030789 
L 290.188916 -142.657732 
L 291.58364 -146.397597 
L 292.978364 -150.252987 
L 294.373087 -154.226547 
L 295.767811 -158.320955 
L 297.162535 -162.538928 
L 298.557258 -166.883221 
L 299.951982 -171.356626 
L 301.346705 -175.96197 
L 302.741429 -180.702119 
L 304.136153 -185.579977 
L 305.530876 -190.598484 
L 306.9256 -195.760618 
L 308.320323 -201.069393 
L 309.715047 -206.52786 
L 311.109771 -212.13911 
L 312.504494 -217.906269 
L 313.899218 -223.8325 
L 315.293942 -229.921004 
L 316.688665 -236.175019 
L 318.083389 -242.59782 
L 319.478112 -249.19272 
L 320.872836 -255.963069 
L 322.26756 -262.912253 
L 323.662283 -270.043697 
L 325.057007 -277.360861 
L 326.451731 -284.867245 
L 327.846454 -292.566384 
L 329.241178 -300.461852 
L 330.635901 -308.557258 
L 332.030625 -316.85625 
L 332.030625 -50.85625 
L 332.030625 -50.85625 
L 330.635901 -50.85625 
L 329.241178 -50.85625 
L 327.846454 -50.85625 
L 326.451731 -50.85625 
L 325.057007 -50.85625 
L 323.662283 -50.85625 
L 322.26756 -50.85625 
L 320.872836 -50.85625 
L 319.478112 -50.85625 
L 318.083389 -50.85625 
L 316.688665 -50.85625 
L 315.293942 -50.85625 
L 313.899218 -50.85625 
L 312.504494 -50.85625 
L 311.109771 -50.85625 
L 309.715047 -50.85625 
L 308.320323 -50.85625 
L 306.9256 -50.85625 
L 305.530876 -50.85625 
L 304.136153 -50.85625 
L 302.741429 -50.85625 
L 301.346705 -50.85625 
L 299.951982 -50.85625 
L 298.557258 -50.85625 
L 297.162535 -50.85625 
L 295.767811 -50.85625 
L 294.373087 -50.85625 
L 292.978364 -50.85625 
L 291.58364 -50.85625 
L 290.188916 -50.85625 
L 288.794193 -50.85625 
L 287.399469 -50.85625 
L 286.004746 -50.85625 
L 284.610022 -50.85625 
L 283.215298 -50.85625 
L 281.820575 -50.85625 
L 280.425851 -50.85625 
L 279.031128 -50.85625 
L 277.636404 -50.85625 
L 276.24168 -50.85625 
L 274.846957 -50.85625 
L 273.452233 -50.85625 
L 272.057509 -50.85625 
L 270.662786 -50.85625 
L 269.268062 -50.85625 
L 267.873339 -50.85625 
L 266.478615 -50.85625 
L 265.083891 -50.85625 
L 263.689168 -50.85625 
L 262.294444 -50.85625 
L 260.89972 -50.85625 
L 259.504997 -50.85625 
L 258.110273 -50.85625 
L 256.71555 -50.85625 
L 255.320826 -50.85625 
L 253.926102 -50.85625 
L 252.531379 -50.85625 
L 251.136655 -50.85625 
L 249.741932 -50.85625 
L 248.347208 -50.85625 
L 246.952484 -50.85625 
L 245.557761 -50.85625 
L 244.163037 -50.85625 
L 242.768313 -50.85625 
L 241.37359 -50.85625 
L 239.978866 -50.85625 
L 238.584143 -50.85625 
L 237.189419 -50.85625 
L 235.794695 -50.85625 
L 234.399972 -50.85625 
L 233.005248 -50.85625 
L 231.610524 -50.85625 
L 230.215801 -50.85625 
L 228.821077 -50.85625 
L 227.426354 -50.85625 
L 226.03163 -50.85625 
L 224.636906 -50.85625 
L 223.242183 -50.85625 
L 221.847459 -50.85625 
L 220.452736 -50.85625 
L 219.058012 -50.85625 
L 217.663288 -50.85625 
L 216.268565 -50.85625 
L 214.873841 -50.85625 
L 213.479117 -50.85625 
L 212.084394 -50.85625 
L 210.68967 -50.85625 
L 209.294947 -50.85625 
L 207.900223 -50.85625 
L 206.505499 -50.85625 
L 205.110776 -50.85625 
L 203.716052 -50.85625 
L 202.321329 -50.85625 
L 200.926605 -50.85625 
L 199.531881 -50.85625 
L 198.137158 -50.85625 
L 196.742434 -50.85625 
L 195.34771 -50.85625 
L 193.952987 -50.85625 
L 192.558263 -50.85625 
L 191.16354 -50.85625 
L 189.768816 -50.85625 
L 188.374092 -50.85625 
L 186.979369 -50.85625 
L 185.584645 -50.85625 
L 184.189921 -50.85625 
L 182.795198 -50.85625 
L 181.400474 -50.85625 
L 180.005751 -50.85625 
L 178.611027 -50.85625 
L 177.216303 -50.85625 
L 175.82158 -50.85625 
L 174.426856 -50.85625 
L 173.032133 -50.85625 
L 171.637409 -50.85625 
L 170.242685 -50.85625 
L 168.847962 -50.85625 
L 167.453238 -50.85625 
L 166.058514 -50.85625 
L 164.663791 -50.85625 
L 163.269067 -50.85625 
L 161.874344 -50.85625 
L 160.47962 -50.85625 
L 159.084896 -50.85625 
L 157.690173 -50.85625 
L 156.295449 -50.85625 
L 154.900726 -50.85625 
L 153.506002 -50.85625 
L 152.111278 -50.85625 
L 150.716555 -50.85625 
L 149.321831 -50.85625 
L 147.927107 -50.85625 
L 146.532384 -50.85625 
L 145.13766 -50.85625 
L 143.742937 -50.85625 
L 142.348213 -50.85625 
L 140.953489 -50.85625 
L 139.558766 -50.85625 
L 138.164042 -50.85625 
L 136.769318 -50.85625 
L 135.374595 -50.85625 
L 133.979871 -50.85625 
L 132.585148 -50.85625 
L 131.190424 -50.85625 
L 129.7957 -50.85625 
L 128.400977 -50.85625 
L 127.006253 -50.85625 
L 125.61153 -50.85625 
L 124.216806 -50.85625 
L 122.822082 -50.85625 
L 121.427359 -50.85625 
L 120.032635 -50.85625 
L 118.637911 -50.85625 
L 117.243188 -50.85625 
L 115.848464 -50.85625 
L 114.453741 -50.85625 
L 113.059017 -50.85625 
L 111.664293 -50.85625 
L 110.26957 -50.85625 
L 108.874846 -50.85625 
L 107.480122 -50.85625 
L 106.085399 -50.85625 
L 104.690675 -50.85625 
L 103.295952 -50.85625 
L 101.901228 -50.85625 
L 100.506504 -50.85625 
L 99.111781 -50.85625 
L 97.717057 -50.85625 
L 96.322334 -50.85625 
L 94.92761 -50.85625 
L 93.532886 -50.85625 
L 92.138163 -50.85625 
L 90.743439 -50.85625 
L 89.348715 -50.85625 
L 87.953992 -50.85625 
L 86.559268 -50.85625 
L 85.164545 -50.85625 
L 83.769821 -50.85625 
L 82.375097 -50.85625 
L 80.980374 -50.85625 
L 79.58565 -50.85625 
L 78.190927 -50.85625 
L 76.796203 -50.85625 
L 75.401479 -50.85625 
L 74.006756 -50.85625 
L 72.612032 -50.85625 
L 71.217308 -50.85625 
L 69.822585 -50.85625 
L 68.427861 -50.85625 
L 67.033138 -50.85625 
L 65.638414 -50.85625 
L 64.24369 -50.85625 
L 62.848967 -50.85625 
L 61.454243 -50.85625 
L 60.059519 -50.85625 
L 58.664796 -50.85625 
L 57.270072 -50.85625 
L 55.875349 -50.85625 
L 54.480625 -50.85625 
z
" style="stroke: #ffebee; stroke-opacity: 0.5"/>
    </defs>
    <g clip-path="url(#pfcedaf837b)">
     <use xlink:href="#m5ef965d367" x="0" y="351.714531" style="fill: #ffebee; fill-opacity: 0.5; stroke: #ffebee; stroke-opacity: 0.5"/>
    </g>
   </g>
   <g id="patch_3">
    <path d="M 172.439375 314.158281 
L 214.071875 314.158281 
L 214.071875 21.558281 
L 172.439375 21.558281 
z
" clip-path="url(#pfcedaf837b)" style="fill: #b0bec5; opacity: 0.3; stroke: #b0bec5; stroke-linejoin: miter"/>
   </g>
   <g id="matplotlib.axis_1">
    <g id="xtick_1">
     <g id="line2d_1">
      <defs>
       <path id="m42cf5c4d99" d="M 0 0 
L 0 3.5 
" style="stroke: #000000; stroke-width: 0.8"/>
      </defs>
      <g>
       <use xlink:href="#m42cf5c4d99" x="54.480625" y="314.158281" style="stroke: #000000; stroke-width: 0.8"/>
      </g>
     </g>
     <g id="text_1">
      <!-- −2.0 -->
      <g transform="translate(42.339219 328.756719) scale(0.1 -0.1)">
       <defs>
        <path id="DejaVuSans-2212" d="M 678 2272 
L 4684 2272 
L 4684 1741 
L 678 1741 
L 678 2272 
z
" transform="scale(0.015625)"/>
        <path id="DejaVuSans-32" d="M 1228 531 
L 3431 531 
L 3431 0 
L 469 0 
L 469 531 
Q 828 903 1448 1529 
Q 2069 2156 2228 2338 
Q 2531 2678 2651 2914 
Q 2772 3150 2772 3378 
Q 2772 3750 2511 3984 
Q 2250 4219 1831 4219 
Q 1534 4219 1204 4116 
Q 875 4013 500 3803 
L 500 4441 
Q 881 4594 1212 4672 
Q 1544 4750 1819 4750 
Q 2544 4750 2975 4387 
Q 3406 4025 3406 3419 
Q 3406 3131 3298 2873 
Q 3191 2616 2906 2266 
Q 2828 2175 2409 1742 
Q 1991 1309 1228 531 
z
" transform="scale(0.015625)"/>
        <path id="DejaVuSans-2e" d="M 684 794 
L 1344 794 
L 1344 0 
L 684 0 
L 684 794 
z
" transform="scale(0.015625)"/>
        <path id="DejaVuSans-30" d="M 2034 4250 
Q 1547 4250 1301 3770 
Q 1056 3291 1056 2328 
Q 1056 1369 1301 889 
Q 1547 409 2034 409 
Q 2525 409 2770 889 
Q 3016 1369 3016 2328 
Q 3016 3291 2770 3770 
Q 2525 4250 2034 4250 
z
M 2034 4750 
Q 2819 4750 3233 4129 
Q 3647 3509 3647 2328 
Q 3647 1150 3233 529 
Q 2819 -91 2034 -91 
Q 1250 -91 836 529 
Q 422 1150 422 2328 
Q 422 3509 836 4129 
Q 1250 4750 2034 4750 
z
" transform="scale(0.015625)"/>
       </defs>
       <use xlink:href="#DejaVuSans-2212"/>
       <use xlink:href="#DejaVuSans-32" transform="translate(83.789062 0)"/>
       <use xlink:href="#DejaVuSans-2e" transform="translate(147.412109 0)"/>
       <use xlink:href="#DejaVuSans-30" transform="translate(179.199219 0)"/>
      </g>
     </g>
    </g>
    <g id="xtick_2">
     <g id="line2d_2">
      <g>
       <use xlink:href="#m42cf5c4d99" x="89.174375" y="314.158281" style="stroke: #000000; stroke-width: 0.8"/>
      </g>
     </g>
     <g id="text_2">
      <!-- −1.5 -->
      <g transform="translate(77.032969 328.756719) scale(0.1 -0.1)">
       <defs>
        <path id="DejaVuSans-31" d="M 794 531 
L 1825 531 
L 1825 4091 
L 703 3866 
L 703 4441 
L 1819 4666 
L 2450 4666 
L 2450 531 
L 3481 531 
L 3481 0 
L 794 0 
L 794 531 
z
" transform="scale(0.015625)"/>
        <path id="DejaVuSans-35" d="M 691 4666 
L 3169 4666 
L 3169 4134 
L 1269 4134 
L 1269 2991 
Q 1406 3038 1543 3061 
Q 1681 3084 1819 3084 
Q 2600 3084 3056 2656 
Q 3513 2228 3513 1497 
Q 3513 744 3044 326 
Q 2575 -91 1722 -91 
Q 1428 -91 1123 -41 
Q 819 9 494 109 
L 494 744 
Q 775 591 1075 516 
Q 1375 441 1709 441 
Q 2250 441 2565 725 
Q 2881 1009 2881 1497 
Q 2881 1984 2565 2268 
Q 2250 2553 1709 2553 
Q 1456 2553 1204 2497 
Q 953 2441 691 2322 
L 691 4666 
z
" transform="scale(0.015625)"/>
       </defs>
       <use xlink:href="#DejaVuSans-2212"/>
       <use xlink:href="#DejaVuSans-31" transform="translate(83.789062 0)"/>
       <use xlink:href="#DejaVuSans-2e" transform="translate(147.412109 0)"/>
       <use xlink:href="#DejaVuSans-35" transform="translate(179.199219 0)"/>
      </g>
     </g>
    </g>
    <g id="xtick_3">
     <g id="line2d_3">
      <g>
       <use xlink:href="#m42cf5c4d99" x="123.868125" y="314.158281" style="stroke: #000000; stroke-width: 0.8"/>
      </g>
     </g>
     <g id="text_3">
      <!-- −1.0 -->
      <g transform="translate(111.726719 328.756719) scale(0.1 -0.1)">
       <use xlink:href="#DejaVuSans-2212"/>
       <use xlink:href="#DejaVuSans-31" transform="translate(83.789062 0)"/>
       <use xlink:href="#DejaVuSans-2e" transform="translate(147.412109 0)"/>
       <use xlink:href="#DejaVuSans-30" transform="translate(179.199219 0)"/>
      </g>
     </g>
    </g>
    <g id="xtick_4">
     <g id="line2d_4">
      <g>
       <use xlink:href="#m42cf5c4d99" x="158.561875" y="314.158281" style="stroke: #000000; stroke-width: 0.8"/>
      </g>
     </g>
     <g id="text_4">
      <!-- −0.5 -->
      <g transform="translate(146.420469 328.756719) scale(0.1 -0.1)">
       <use xlink:href="#DejaVuSans-2212"/>
       <use xlink:href="#DejaVuSans-30" transform="translate(83.789062 0)"/>
       <use xlink:href="#DejaVuSans-2e" transform="translate(147.412109 0)"/>
       <use xlink:href="#DejaVuSans-35" transform="translate(179.199219 0)"/>
      </g>
     </g>
    </g>
    <g id="xtick_5">
     <g id="line2d_5">
      <g>
       <use xlink:href="#m42cf5c4d99" x="193.255625" y="314.158281" style="stroke: #000000; stroke-width: 0.8"/>
      </g>
     </g>
     <g id="text_5">
      <!-- 0.0 -->
      <g transform="translate(185.304062 328.756719) scale(0.1 -0.1)">
       <use xlink:href="#DejaVuSans-30"/>
       <use xlink:href="#DejaVuSans-2e" transform="translate(63.623047 0)"/>
       <use xlink:href="#DejaVuSans-30" transform="translate(95.410156 0)"/>
      </g>
     </g>
    </g>
    <g id="xtick_6">
     <g id="line2d_6">
      <g>
       <use xlink:href="#m42cf5c4d99" x="227.949375" y="314.158281" style="stroke: #000000; stroke-width: 0.8"/>
      </g>
     </g>
     <g id="text_6">
      <!-- 0.5 -->
      <g transform="translate(219.997812 328.756719) scale(0.1 -0.1)">
       <use xlink:href="#DejaVuSans-30"/>
       <use xlink:href="#DejaVuSans-2e" transform="translate(63.623047 0)"/>
       <use xlink:href="#DejaVuSans-35" transform="translate(95.410156 0)"/>
      </g>
     </g>
    </g>
    <g id="xtick_7">
     <g id="line2d_7">
      <g>
       <use xlink:href="#m42cf5c4d99" x="262.643125" y="314.158281" style="stroke: #000000; stroke-width: 0.8"/>
      </g>
     </g>
     <g id="text_7">
      <!-- 1.0 -->
      <g transform="translate(254.691562 328.756719) scale(0.1 -0.1)">
       <use xlink:href="#DejaVuSans-31"/>
       <use xlink:href="#DejaVuSans-2e" transform="translate(63.623047 0)"/>
       <use xlink:href="#DejaVuSans-30" transform="translate(95.410156 0)"/>
      </g>
     </g>
    </g>
    <g id="xtick_8">
     <g id="line2d_8">
      <g>
       <use xlink:href="#m42cf5c4d99" x="297.336875" y="314.158281" style="stroke: #000000; stroke-width: 0.8"/>
      </g>
     </g>
     <g id="text_8">
      <!-- 1.5 -->
      <g transform="translate(289.385312 328.756719) scale(0.1 -0.1)">
       <use xlink:href="#DejaVuSans-31"/>
       <use xlink:href="#DejaVuSans-2e" transform="translate(63.623047 0)"/>
       <use xlink:href="#DejaVuSans-35" transform="translate(95.410156 0)"/>
      </g>
     </g>
    </g>
    <g id="xtick_9">
     <g id="line2d_9">
      <g>
       <use xlink:href="#m42cf5c4d99" x="332.030625" y="314.158281" style="stroke: #000000; stroke-width: 0.8"/>
      </g>
     </g>
     <g id="text_9">
      <!-- 2.0 -->
      <g transform="translate(324.079062 328.756719) scale(0.1 -0.1)">
       <use xlink:href="#DejaVuSans-32"/>
       <use xlink:href="#DejaVuSans-2e" transform="translate(63.623047 0)"/>
       <use xlink:href="#DejaVuSans-30" transform="translate(95.410156 0)"/>
      </g>
     </g>
    </g>
    <g id="text_10">
     <!-- Parameter Space / Perturbation Direction -->
     <g transform="translate(90.413437 342.434844) scale(0.1 -0.1)">
      <defs>
       <path id="DejaVuSans-50" d="M 1259 4147 
L 1259 2394 
L 2053 2394 
Q 2494 2394 2734 2622 
Q 2975 2850 2975 3272 
Q 2975 3691 2734 3919 
Q 2494 4147 2053 4147 
L 1259 4147 
z
M 628 4666 
L 2053 4666 
Q 2838 4666 3239 4311 
Q 3641 3956 3641 3272 
Q 3641 2581 3239 2228 
Q 2838 1875 2053 1875 
L 1259 1875 
L 1259 0 
L 628 0 
L 628 4666 
z
" transform="scale(0.015625)"/>
       <path id="DejaVuSans-61" d="M 2194 1759 
Q 1497 1759 1228 1600 
Q 959 1441 959 1056 
Q 959 750 1161 570 
Q 1363 391 1709 391 
Q 2188 391 2477 730 
Q 2766 1069 2766 1631 
L 2766 1759 
L 2194 1759 
z
M 3341 1997 
L 3341 0 
L 2766 0 
L 2766 531 
Q 2569 213 2275 61 
Q 1981 -91 1556 -91 
Q 1019 -91 701 211 
Q 384 513 384 1019 
Q 384 1609 779 1909 
Q 1175 2209 1959 2209 
L 2766 2209 
L 2766 2266 
Q 2766 2663 2505 2880 
Q 2244 3097 1772 3097 
Q 1472 3097 1187 3025 
Q 903 2953 641 2809 
L 641 3341 
Q 956 3463 1253 3523 
Q 1550 3584 1831 3584 
Q 2591 3584 2966 3190 
Q 3341 2797 3341 1997 
z
" transform="scale(0.015625)"/>
       <path id="DejaVuSans-72" d="M 2631 2963 
Q 2534 3019 2420 3045 
Q 2306 3072 2169 3072 
Q 1681 3072 1420 2755 
Q 1159 2438 1159 1844 
L 1159 0 
L 581 0 
L 581 3500 
L 1159 3500 
L 1159 2956 
Q 1341 3275 1631 3429 
Q 1922 3584 2338 3584 
Q 2397 3584 2469 3576 
Q 2541 3569 2628 3553 
L 2631 2963 
z
" transform="scale(0.015625)"/>
       <path id="DejaVuSans-6d" d="M 3328 2828 
Q 3544 3216 3844 3400 
Q 4144 3584 4550 3584 
Q 5097 3584 5394 3201 
Q 5691 2819 5691 2113 
L 5691 0 
L 5113 0 
L 5113 2094 
Q 5113 2597 4934 2840 
Q 4756 3084 4391 3084 
Q 3944 3084 3684 2787 
Q 3425 2491 3425 1978 
L 3425 0 
L 2847 0 
L 2847 2094 
Q 2847 2600 2669 2842 
Q 2491 3084 2119 3084 
Q 1678 3084 1418 2786 
Q 1159 2488 1159 1978 
L 1159 0 
L 581 0 
L 581 3500 
L 1159 3500 
L 1159 2956 
Q 1356 3278 1631 3431 
Q 1906 3584 2284 3584 
Q 2666 3584 2933 3390 
Q 3200 3197 3328 2828 
z
" transform="scale(0.015625)"/>
       <path id="DejaVuSans-65" d="M 3597 1894 
L 3597 1613 
L 953 1613 
Q 991 1019 1311 708 
Q 1631 397 2203 397 
Q 2534 397 2845 478 
Q 3156 559 3463 722 
L 3463 178 
Q 3153 47 2828 -22 
Q 2503 -91 2169 -91 
Q 1331 -91 842 396 
Q 353 884 353 1716 
Q 353 2575 817 3079 
Q 1281 3584 2069 3584 
Q 2775 3584 3186 3129 
Q 3597 2675 3597 1894 
z
M 3022 2063 
Q 3016 2534 2758 2815 
Q 2500 3097 2075 3097 
Q 1594 3097 1305 2825 
Q 1016 2553 972 2059 
L 3022 2063 
z
" transform="scale(0.015625)"/>
       <path id="DejaVuSans-74" d="M 1172 4494 
L 1172 3500 
L 2356 3500 
L 2356 3053 
L 1172 3053 
L 1172 1153 
Q 1172 725 1289 603 
Q 1406 481 1766 481 
L 2356 481 
L 2356 0 
L 1766 0 
Q 1100 0 847 248 
Q 594 497 594 1153 
L 594 3053 
L 172 3053 
L 172 3500 
L 594 3500 
L 594 4494 
L 1172 4494 
z
" transform="scale(0.015625)"/>
       <path id="DejaVuSans-20" transform="scale(0.015625)"/>
       <path id="DejaVuSans-53" d="M 3425 4513 
L 3425 3897 
Q 3066 4069 2747 4153 
Q 2428 4238 2131 4238 
Q 1616 4238 1336 4038 
Q 1056 3838 1056 3469 
Q 1056 3159 1242 3001 
Q 1428 2844 1947 2747 
L 2328 2669 
Q 3034 2534 3370 2195 
Q 3706 1856 3706 1288 
Q 3706 609 3251 259 
Q 2797 -91 1919 -91 
Q 1588 -91 1214 -16 
Q 841 59 441 206 
L 441 856 
Q 825 641 1194 531 
Q 1563 422 1919 422 
Q 2459 422 2753 634 
Q 3047 847 3047 1241 
Q 3047 1584 2836 1778 
Q 2625 1972 2144 2069 
L 1759 2144 
Q 1053 2284 737 2584 
Q 422 2884 422 3419 
Q 422 4038 858 4394 
Q 1294 4750 2059 4750 
Q 2388 4750 2728 4690 
Q 3069 4631 3425 4513 
z
" transform="scale(0.015625)"/>
       <path id="DejaVuSans-70" d="M 1159 525 
L 1159 -1331 
L 581 -1331 
L 581 3500 
L 1159 3500 
L 1159 2969 
Q 1341 3281 1617 3432 
Q 1894 3584 2278 3584 
Q 2916 3584 3314 3078 
Q 3713 2572 3713 1747 
Q 3713 922 3314 415 
Q 2916 -91 2278 -91 
Q 1894 -91 1617 61 
Q 1341 213 1159 525 
z
M 3116 1747 
Q 3116 2381 2855 2742 
Q 2594 3103 2138 3103 
Q 1681 3103 1420 2742 
Q 1159 2381 1159 1747 
Q 1159 1113 1420 752 
Q 1681 391 2138 391 
Q 2594 391 2855 752 
Q 3116 1113 3116 1747 
z
" transform="scale(0.015625)"/>
       <path id="DejaVuSans-63" d="M 3122 3366 
L 3122 2828 
Q 2878 2963 2633 3030 
Q 2388 3097 2138 3097 
Q 1578 3097 1268 2742 
Q 959 2388 959 1747 
Q 959 1106 1268 751 
Q 1578 397 2138 397 
Q 2388 397 2633 464 
Q 2878 531 3122 666 
L 3122 134 
Q 2881 22 2623 -34 
Q 2366 -91 2075 -91 
Q 1284 -91 818 406 
Q 353 903 353 1747 
Q 353 2603 823 3093 
Q 1294 3584 2113 3584 
Q 2378 3584 2631 3529 
Q 2884 3475 3122 3366 
z
" transform="scale(0.015625)"/>
       <path id="DejaVuSans-2f" d="M 1625 4666 
L 2156 4666 
L 531 -594 
L 0 -594 
L 1625 4666 
z
" transform="scale(0.015625)"/>
       <path id="DejaVuSans-75" d="M 544 1381 
L 544 3500 
L 1119 3500 
L 1119 1403 
Q 1119 906 1312 657 
Q 1506 409 1894 409 
Q 2359 409 2629 706 
Q 2900 1003 2900 1516 
L 2900 3500 
L 3475 3500 
L 3475 0 
L 2900 0 
L 2900 538 
Q 2691 219 2414 64 
Q 2138 -91 1772 -91 
Q 1169 -91 856 284 
Q 544 659 544 1381 
z
M 1991 3584 
L 1991 3584 
z
" transform="scale(0.015625)"/>
       <path id="DejaVuSans-62" d="M 3116 1747 
Q 3116 2381 2855 2742 
Q 2594 3103 2138 3103 
Q 1681 3103 1420 2742 
Q 1159 2381 1159 1747 
Q 1159 1113 1420 752 
Q 1681 391 2138 391 
Q 2594 391 2855 752 
Q 3116 1113 3116 1747 
z
M 1159 2969 
Q 1341 3281 1617 3432 
Q 1894 3584 2278 3584 
Q 2916 3584 3314 3078 
Q 3713 2572 3713 1747 
Q 3713 922 3314 415 
Q 2916 -91 2278 -91 
Q 1894 -91 1617 61 
Q 1341 213 1159 525 
L 1159 0 
L 581 0 
L 581 4863 
L 1159 4863 
L 1159 2969 
z
" transform="scale(0.015625)"/>
       <path id="DejaVuSans-69" d="M 603 3500 
L 1178 3500 
L 1178 0 
L 603 0 
L 603 3500 
z
M 603 4863 
L 1178 4863 
L 1178 4134 
L 603 4134 
L 603 4863 
z
" transform="scale(0.015625)"/>
       <path id="DejaVuSans-6f" d="M 1959 3097 
Q 1497 3097 1228 2736 
Q 959 2375 959 1747 
Q 959 1119 1226 758 
Q 1494 397 1959 397 
Q 2419 397 2687 759 
Q 2956 1122 2956 1747 
Q 2956 2369 2687 2733 
Q 2419 3097 1959 3097 
z
M 1959 3584 
Q 2709 3584 3137 3096 
Q 3566 2609 3566 1747 
Q 3566 888 3137 398 
Q 2709 -91 1959 -91 
Q 1206 -91 779 398 
Q 353 888 353 1747 
Q 353 2609 779 3096 
Q 1206 3584 1959 3584 
z
" transform="scale(0.015625)"/>
       <path id="DejaVuSans-6e" d="M 3513 2113 
L 3513 0 
L 2938 0 
L 2938 2094 
Q 2938 2591 2744 2837 
Q 2550 3084 2163 3084 
Q 1697 3084 1428 2787 
Q 1159 2491 1159 1978 
L 1159 0 
L 581 0 
L 581 3500 
L 1159 3500 
L 1159 2956 
Q 1366 3272 1645 3428 
Q 1925 3584 2291 3584 
Q 2894 3584 3203 3211 
Q 3513 2838 3513 2113 
z
" transform="scale(0.015625)"/>
       <path id="DejaVuSans-44" d="M 1259 4147 
L 1259 519 
L 2022 519 
Q 2988 519 3436 956 
Q 3884 1394 3884 2338 
Q 3884 3275 3436 3711 
Q 2988 4147 2022 4147 
L 1259 4147 
z
M 628 4666 
L 1925 4666 
Q 3281 4666 3915 4102 
Q 4550 3538 4550 2338 
Q 4550 1131 3912 565 
Q 3275 0 1925 0 
L 628 0 
L 628 4666 
z
" transform="scale(0.015625)"/>
      </defs>
      <use xlink:href="#DejaVuSans-50"/>
      <use xlink:href="#DejaVuSans-61" transform="translate(55.802734 0)"/>
      <use xlink:href="#DejaVuSans-72" transform="translate(117.082031 0)"/>
      <use xlink:href="#DejaVuSans-61" transform="translate(158.195312 0)"/>
      <use xlink:href="#DejaVuSans-6d" transform="translate(219.474609 0)"/>
      <use xlink:href="#DejaVuSans-65" transform="translate(316.886719 0)"/>
      <use xlink:href="#DejaVuSans-74" transform="translate(378.410156 0)"/>
      <use xlink:href="#DejaVuSans-65" transform="translate(417.619141 0)"/>
      <use xlink:href="#DejaVuSans-72" transform="translate(479.142578 0)"/>
      <use xlink:href="#DejaVuSans-20" transform="translate(520.255859 0)"/>
      <use xlink:href="#DejaVuSans-53" transform="translate(552.042969 0)"/>
      <use xlink:href="#DejaVuSans-70" transform="translate(615.519531 0)"/>
      <use xlink:href="#DejaVuSans-61" transform="translate(678.996094 0)"/>
      <use xlink:href="#DejaVuSans-63" transform="translate(740.275391 0)"/>
      <use xlink:href="#DejaVuSans-65" transform="translate(795.255859 0)"/>
      <use xlink:href="#DejaVuSans-20" transform="translate(856.779297 0)"/>
      <use xlink:href="#DejaVuSans-2f" transform="translate(888.566406 0)"/>
      <use xlink:href="#DejaVuSans-20" transform="translate(922.257812 0)"/>
      <use xlink:href="#DejaVuSans-50" transform="translate(954.044922 0)"/>
      <use xlink:href="#DejaVuSans-65" transform="translate(1010.722656 0)"/>
      <use xlink:href="#DejaVuSans-72" transform="translate(1072.246094 0)"/>
      <use xlink:href="#DejaVuSans-74" transform="translate(1113.359375 0)"/>
      <use xlink:href="#DejaVuSans-75" transform="translate(1152.568359 0)"/>
      <use xlink:href="#DejaVuSans-72" transform="translate(1215.947266 0)"/>
      <use xlink:href="#DejaVuSans-62" transform="translate(1257.060547 0)"/>
      <use xlink:href="#DejaVuSans-61" transform="translate(1320.537109 0)"/>
      <use xlink:href="#DejaVuSans-74" transform="translate(1381.816406 0)"/>
      <use xlink:href="#DejaVuSans-69" transform="translate(1421.025391 0)"/>
      <use xlink:href="#DejaVuSans-6f" transform="translate(1448.808594 0)"/>
      <use xlink:href="#DejaVuSans-6e" transform="translate(1509.990234 0)"/>
      <use xlink:href="#DejaVuSans-20" transform="translate(1573.369141 0)"/>
      <use xlink:href="#DejaVuSans-44" transform="translate(1605.15625 0)"/>
      <use xlink:href="#DejaVuSans-69" transform="translate(1682.158203 0)"/>
      <use xlink:href="#DejaVuSans-72" transform="translate(1709.941406 0)"/>
      <use xlink:href="#DejaVuSans-65" transform="translate(1748.804688 0)"/>
      <use xlink:href="#DejaVuSans-63" transform="translate(1810.328125 0)"/>
      <use xlink:href="#DejaVuSans-74" transform="translate(1865.308594 0)"/>
      <use xlink:href="#DejaVuSans-69" transform="translate(1904.517578 0)"/>
      <use xlink:href="#DejaVuSans-6f" transform="translate(1932.300781 0)"/>
      <use xlink:href="#DejaVuSans-6e" transform="translate(1993.482422 0)"/>
     </g>
    </g>
   </g>
   <g id="matplotlib.axis_2">
    <g id="ytick_1">
     <g id="line2d_10">
      <defs>
       <path id="m925e3b04ae" d="M 0 0 
L -3.5 0 
" style="stroke: #000000; stroke-width: 0.8"/>
      </defs>
      <g>
       <use xlink:href="#m925e3b04ae" x="40.603125" y="300.858281" style="stroke: #000000; stroke-width: 0.8"/>
      </g>
     </g>
     <g id="text_11">
      <!-- 0 -->
      <g transform="translate(27.240625 304.6575) scale(0.1 -0.1)">
       <use xlink:href="#DejaVuSans-30"/>
      </g>
     </g>
    </g>
    <g id="ytick_2">
     <g id="line2d_11">
      <g>
       <use xlink:href="#m925e3b04ae" x="40.603125" y="253.358281" style="stroke: #000000; stroke-width: 0.8"/>
      </g>
     </g>
     <g id="text_12">
      <!-- 5 -->
      <g transform="translate(27.240625 257.1575) scale(0.1 -0.1)">
       <use xlink:href="#DejaVuSans-35"/>
      </g>
     </g>
    </g>
    <g id="ytick_3">
     <g id="line2d_12">
      <g>
       <use xlink:href="#m925e3b04ae" x="40.603125" y="205.858281" style="stroke: #000000; stroke-width: 0.8"/>
      </g>
     </g>
     <g id="text_13">
      <!-- 10 -->
      <g transform="translate(20.878125 209.6575) scale(0.1 -0.1)">
       <use xlink:href="#DejaVuSans-31"/>
       <use xlink:href="#DejaVuSans-30" transform="translate(63.623047 0)"/>
      </g>
     </g>
    </g>
    <g id="ytick_4">
     <g id="line2d_13">
      <g>
       <use xlink:href="#m925e3b04ae" x="40.603125" y="158.358281" style="stroke: #000000; stroke-width: 0.8"/>
      </g>
     </g>
     <g id="text_14">
      <!-- 15 -->
      <g transform="translate(20.878125 162.1575) scale(0.1 -0.1)">
       <use xlink:href="#DejaVuSans-31"/>
       <use xlink:href="#DejaVuSans-35" transform="translate(63.623047 0)"/>
      </g>
     </g>
    </g>
    <g id="ytick_5">
     <g id="line2d_14">
      <g>
       <use xlink:href="#m925e3b04ae" x="40.603125" y="110.858281" style="stroke: #000000; stroke-width: 0.8"/>
      </g>
     </g>
     <g id="text_15">
      <!-- 20 -->
      <g transform="translate(20.878125 114.6575) scale(0.1 -0.1)">
       <use xlink:href="#DejaVuSans-32"/>
       <use xlink:href="#DejaVuSans-30" transform="translate(63.623047 0)"/>
      </g>
     </g>
    </g>
    <g id="ytick_6">
     <g id="line2d_15">
      <g>
       <use xlink:href="#m925e3b04ae" x="40.603125" y="63.358281" style="stroke: #000000; stroke-width: 0.8"/>
      </g>
     </g>
     <g id="text_16">
      <!-- 25 -->
      <g transform="translate(20.878125 67.1575) scale(0.1 -0.1)">
       <use xlink:href="#DejaVuSans-32"/>
       <use xlink:href="#DejaVuSans-35" transform="translate(63.623047 0)"/>
      </g>
     </g>
    </g>
    <g id="text_17">
     <!-- Loss -->
     <g transform="translate(14.798438 178.825469) rotate(-90) scale(0.1 -0.1)">
      <defs>
       <path id="DejaVuSans-4c" d="M 628 4666 
L 1259 4666 
L 1259 531 
L 3531 531 
L 3531 0 
L 628 0 
L 628 4666 
z
" transform="scale(0.015625)"/>
       <path id="DejaVuSans-73" d="M 2834 3397 
L 2834 2853 
Q 2591 2978 2328 3040 
Q 2066 3103 1784 3103 
Q 1356 3103 1142 2972 
Q 928 2841 928 2578 
Q 928 2378 1081 2264 
Q 1234 2150 1697 2047 
L 1894 2003 
Q 2506 1872 2764 1633 
Q 3022 1394 3022 966 
Q 3022 478 2636 193 
Q 2250 -91 1575 -91 
Q 1294 -91 989 -36 
Q 684 19 347 128 
L 347 722 
Q 666 556 975 473 
Q 1284 391 1588 391 
Q 1994 391 2212 530 
Q 2431 669 2431 922 
Q 2431 1156 2273 1281 
Q 2116 1406 1581 1522 
L 1381 1569 
Q 847 1681 609 1914 
Q 372 2147 372 2553 
Q 372 3047 722 3315 
Q 1072 3584 1716 3584 
Q 2034 3584 2315 3537 
Q 2597 3491 2834 3397 
z
" transform="scale(0.015625)"/>
      </defs>
      <use xlink:href="#DejaVuSans-4c"/>
      <use xlink:href="#DejaVuSans-6f" transform="translate(53.962891 0)"/>
      <use xlink:href="#DejaVuSans-73" transform="translate(115.144531 0)"/>
      <use xlink:href="#DejaVuSans-73" transform="translate(167.244141 0)"/>
     </g>
    </g>
   </g>
   <g id="line2d_16">
    <path d="M 54.480625 34.858281 
L 58.664796 59.148147 
L 62.848967 81.670835 
L 67.033138 102.521811 
L 71.217308 121.793528 
L 75.401479 139.575421 
L 79.58565 155.953913 
L 82.375097 166.134554 
L 85.164545 175.752562 
L 87.953992 184.83131 
L 90.743439 193.393576 
L 93.532886 201.461544 
L 96.322334 209.056799 
L 99.111781 216.200333 
L 101.901228 222.912543 
L 104.690675 229.213228 
L 107.480122 235.121593 
L 110.26957 240.656248 
L 113.059017 245.835207 
L 115.848464 250.675887 
L 118.637911 255.195113 
L 121.427359 259.409111 
L 124.216806 263.333514 
L 127.006253 266.983357 
L 129.7957 270.373082 
L 132.585148 273.516534 
L 135.374595 276.426963 
L 138.164042 279.117023 
L 140.953489 281.598773 
L 145.13766 284.95573 
L 149.321831 287.905821 
L 153.506002 290.482206 
L 157.690173 292.715033 
L 161.874344 294.631434 
L 166.058514 296.255528 
L 170.242685 297.608416 
L 174.426856 298.708188 
L 178.611027 299.569918 
L 182.795198 300.205664 
L 186.979369 300.624469 
L 191.16354 300.832365 
L 195.34771 300.832365 
L 199.531881 300.624469 
L 203.716052 300.205664 
L 207.900223 299.569918 
L 212.084394 298.708188 
L 216.268565 297.608416 
L 220.452736 296.255528 
L 224.636906 294.631434 
L 228.821077 292.715033 
L 233.005248 290.482206 
L 237.189419 287.905821 
L 241.37359 284.95573 
L 244.163037 282.765137 
L 246.952484 280.383206 
L 249.741932 277.798771 
L 252.531379 275.000071 
L 255.320826 271.97475 
L 258.110273 268.709855 
L 260.89972 265.191839 
L 263.689168 261.406558 
L 266.478615 257.339275 
L 269.268062 252.974654 
L 272.057509 248.296766 
L 274.846957 243.289087 
L 277.636404 237.934494 
L 280.425851 232.215273 
L 283.215298 226.113111 
L 286.004746 219.609102 
L 288.794193 212.683743 
L 291.58364 205.316934 
L 294.373087 197.487984 
L 297.162535 189.175603 
L 299.951982 180.357906 
L 302.741429 171.012412 
L 305.530876 161.116047 
L 308.320323 150.645139 
L 311.109771 139.575421 
L 313.899218 127.882031 
L 316.688665 115.539513 
L 320.872836 95.751462 
L 325.057007 74.35367 
L 329.241178 51.252679 
L 332.030625 34.858281 
L 332.030625 34.858281 
" clip-path="url(#pfcedaf837b)" style="fill: none; stroke: #d32f2f; stroke-width: 2.5; stroke-linecap: square"/>
   </g>
   <g id="line2d_17">
    <path d="M 193.255625 314.158281 
L 193.255625 21.558281 
" clip-path="url(#pfcedaf837b)" style="fill: none; stroke-dasharray: 1.5,2.475; stroke-dashoffset: 0; stroke: #555555; stroke-width: 1.5"/>
   </g>
   <g id="patch_4">
    <path d="M 40.603125 314.158281 
L 40.603125 21.558281 
" style="fill: none; stroke: #000000; stroke-width: 0.8; stroke-linejoin: miter; stroke-linecap: square"/>
   </g>
   <g id="patch_5">
    <path d="M 345.908125 314.158281 
L 345.908125 21.558281 
" style="fill: none; stroke: #000000; stroke-width: 0.8; stroke-linejoin: miter; stroke-linecap: square"/>
   </g>
   <g id="patch_6">
    <path d="M 40.603125 314.158281 
L 345.908125 314.158281 
" style="fill: none; stroke: #000000; stroke-width: 0.8; stroke-linejoin: miter; stroke-linecap: square"/>
   </g>
   <g id="patch_7">
    <path d="M 40.603125 21.558281 
L 345.908125 21.558281 
" style="fill: none; stroke: #000000; stroke-width: 0.8; stroke-linejoin: miter; stroke-linecap: square"/>
   </g>
   <g id="patch_8">
    <path d="M 245.224505 252.377381 
Q 234.757508 267.513608 224.290511 282.649836 
L 226.141126 283.929573 
Q 221.494066 288.012381 216.847006 292.09519 
Q 219.02658 286.306066 221.206153 280.516943 
L 223.056768 281.796679 
Q 233.523765 266.660451 243.990762 251.524223 
L 245.224505 252.377381 
z
" style="stroke: #000000; stroke-linecap: round"/>
   </g>
   <g id="text_18">
    <!-- Sharp Spike -->
    <g transform="translate(248.765625 232.660469) scale(0.1 -0.1)">
     <defs>
      <path id="DejaVuSans-68" d="M 3513 2113 
L 3513 0 
L 2938 0 
L 2938 2094 
Q 2938 2591 2744 2837 
Q 2550 3084 2163 3084 
Q 1697 3084 1428 2787 
Q 1159 2491 1159 1978 
L 1159 0 
L 581 0 
L 581 4863 
L 1159 4863 
L 1159 2956 
Q 1366 3272 1645 3428 
Q 1925 3584 2291 3584 
Q 2894 3584 3203 3211 
Q 3513 2838 3513 2113 
z
" transform="scale(0.015625)"/>
      <path id="DejaVuSans-6b" d="M 581 4863 
L 1159 4863 
L 1159 1991 
L 2875 3500 
L 3609 3500 
L 1753 1863 
L 3688 0 
L 2938 0 
L 1159 1709 
L 1159 0 
L 581 0 
L 581 4863 
z
" transform="scale(0.015625)"/>
     </defs>
     <use xlink:href="#DejaVuSans-53"/>
     <use xlink:href="#DejaVuSans-68" transform="translate(63.476562 0)"/>
     <use xlink:href="#DejaVuSans-61" transform="translate(126.855469 0)"/>
     <use xlink:href="#DejaVuSans-72" transform="translate(188.134766 0)"/>
     <use xlink:href="#DejaVuSans-70" transform="translate(229.248047 0)"/>
     <use xlink:href="#DejaVuSans-20" transform="translate(292.724609 0)"/>
     <use xlink:href="#DejaVuSans-53" transform="translate(324.511719 0)"/>
     <use xlink:href="#DejaVuSans-70" transform="translate(387.988281 0)"/>
     <use xlink:href="#DejaVuSans-69" transform="translate(451.464844 0)"/>
     <use xlink:href="#DejaVuSans-6b" transform="translate(479.248047 0)"/>
     <use xlink:href="#DejaVuSans-65" transform="translate(533.533203 0)"/>
    </g>
    <!-- (Vulnerable) -->
    <g transform="translate(248.765625 243.858281) scale(0.1 -0.1)">
     <defs>
      <path id="DejaVuSans-28" d="M 1984 4856 
Q 1566 4138 1362 3434 
Q 1159 2731 1159 2009 
Q 1159 1288 1364 580 
Q 1569 -128 1984 -844 
L 1484 -844 
Q 1016 -109 783 600 
Q 550 1309 550 2009 
Q 550 2706 781 3412 
Q 1013 4119 1484 4856 
L 1984 4856 
z
" transform="scale(0.015625)"/>
      <path id="DejaVuSans-56" d="M 1831 0 
L 50 4666 
L 709 4666 
L 2188 738 
L 3669 4666 
L 4325 4666 
L 2547 0 
L 1831 0 
z
" transform="scale(0.015625)"/>
      <path id="DejaVuSans-6c" d="M 603 4863 
L 1178 4863 
L 1178 0 
L 603 0 
L 603 4863 
z
" transform="scale(0.015625)"/>
      <path id="DejaVuSans-29" d="M 513 4856 
L 1013 4856 
Q 1481 4119 1714 3412 
Q 1947 2706 1947 2009 
Q 1947 1309 1714 600 
Q 1481 -109 1013 -844 
L 513 -844 
Q 928 -128 1133 580 
Q 1338 1288 1338 2009 
Q 1338 2731 1133 3434 
Q 928 4138 513 4856 
z
" transform="scale(0.015625)"/>
     </defs>
     <use xlink:href="#DejaVuSans-28"/>
     <use xlink:href="#DejaVuSans-56" transform="translate(39.013672 0)"/>
     <use xlink:href="#DejaVuSans-75" transform="translate(100.671875 0)"/>
     <use xlink:href="#DejaVuSans-6c" transform="translate(164.050781 0)"/>
     <use xlink:href="#DejaVuSans-6e" transform="translate(191.833984 0)"/>
     <use xlink:href="#DejaVuSans-65" transform="translate(255.212891 0)"/>
     <use xlink:href="#DejaVuSans-72" transform="translate(316.736328 0)"/>
     <use xlink:href="#DejaVuSans-61" transform="translate(357.849609 0)"/>
     <use xlink:href="#DejaVuSans-62" transform="translate(419.128906 0)"/>
     <use xlink:href="#DejaVuSans-6c" transform="translate(482.605469 0)"/>
     <use xlink:href="#DejaVuSans-65" transform="translate(510.388672 0)"/>
     <use xlink:href="#DejaVuSans-29" transform="translate(571.912109 0)"/>
    </g>
   </g>
   <g id="text_19">
    <!-- Standard CNN Landscape (Sharp Minima) -->
    <g transform="translate(64.993047 15.558281) scale(0.11 -0.11)">
     <defs>
      <path id="DejaVuSans-Bold-53" d="M 3834 4519 
L 3834 3531 
Q 3450 3703 3084 3790 
Q 2719 3878 2394 3878 
Q 1963 3878 1756 3759 
Q 1550 3641 1550 3391 
Q 1550 3203 1689 3098 
Q 1828 2994 2194 2919 
L 2706 2816 
Q 3484 2659 3812 2340 
Q 4141 2022 4141 1434 
Q 4141 663 3683 286 
Q 3225 -91 2284 -91 
Q 1841 -91 1394 -6 
Q 947 78 500 244 
L 500 1259 
Q 947 1022 1364 901 
Q 1781 781 2169 781 
Q 2563 781 2772 912 
Q 2981 1044 2981 1288 
Q 2981 1506 2839 1625 
Q 2697 1744 2272 1838 
L 1806 1941 
Q 1106 2091 782 2419 
Q 459 2747 459 3303 
Q 459 4000 909 4375 
Q 1359 4750 2203 4750 
Q 2588 4750 2994 4692 
Q 3400 4634 3834 4519 
z
" transform="scale(0.015625)"/>
      <path id="DejaVuSans-Bold-74" d="M 1759 4494 
L 1759 3500 
L 2913 3500 
L 2913 2700 
L 1759 2700 
L 1759 1216 
Q 1759 972 1856 886 
Q 1953 800 2241 800 
L 2816 800 
L 2816 0 
L 1856 0 
Q 1194 0 917 276 
Q 641 553 641 1216 
L 641 2700 
L 84 2700 
L 84 3500 
L 641 3500 
L 641 4494 
L 1759 4494 
z
" transform="scale(0.015625)"/>
      <path id="DejaVuSans-Bold-61" d="M 2106 1575 
Q 1756 1575 1579 1456 
Q 1403 1338 1403 1106 
Q 1403 894 1545 773 
Q 1688 653 1941 653 
Q 2256 653 2472 879 
Q 2688 1106 2688 1447 
L 2688 1575 
L 2106 1575 
z
M 3816 1997 
L 3816 0 
L 2688 0 
L 2688 519 
Q 2463 200 2181 54 
Q 1900 -91 1497 -91 
Q 953 -91 614 226 
Q 275 544 275 1050 
Q 275 1666 698 1953 
Q 1122 2241 2028 2241 
L 2688 2241 
L 2688 2328 
Q 2688 2594 2478 2717 
Q 2269 2841 1825 2841 
Q 1466 2841 1156 2769 
Q 847 2697 581 2553 
L 581 3406 
Q 941 3494 1303 3539 
Q 1666 3584 2028 3584 
Q 2975 3584 3395 3211 
Q 3816 2838 3816 1997 
z
" transform="scale(0.015625)"/>
      <path id="DejaVuSans-Bold-6e" d="M 4056 2131 
L 4056 0 
L 2931 0 
L 2931 347 
L 2931 1631 
Q 2931 2084 2911 2256 
Q 2891 2428 2841 2509 
Q 2775 2619 2662 2680 
Q 2550 2741 2406 2741 
Q 2056 2741 1856 2470 
Q 1656 2200 1656 1722 
L 1656 0 
L 538 0 
L 538 3500 
L 1656 3500 
L 1656 2988 
Q 1909 3294 2193 3439 
Q 2478 3584 2822 3584 
Q 3428 3584 3742 3212 
Q 4056 2841 4056 2131 
z
" transform="scale(0.015625)"/>
      <path id="DejaVuSans-Bold-64" d="M 2919 2988 
L 2919 4863 
L 4044 4863 
L 4044 0 
L 2919 0 
L 2919 506 
Q 2688 197 2409 53 
Q 2131 -91 1766 -91 
Q 1119 -91 703 423 
Q 288 938 288 1747 
Q 288 2556 703 3070 
Q 1119 3584 1766 3584 
Q 2128 3584 2408 3439 
Q 2688 3294 2919 2988 
z
M 2181 722 
Q 2541 722 2730 984 
Q 2919 1247 2919 1747 
Q 2919 2247 2730 2509 
Q 2541 2772 2181 2772 
Q 1825 2772 1636 2509 
Q 1447 2247 1447 1747 
Q 1447 1247 1636 984 
Q 1825 722 2181 722 
z
" transform="scale(0.015625)"/>
      <path id="DejaVuSans-Bold-72" d="M 3138 2547 
Q 2991 2616 2845 2648 
Q 2700 2681 2553 2681 
Q 2122 2681 1889 2404 
Q 1656 2128 1656 1613 
L 1656 0 
L 538 0 
L 538 3500 
L 1656 3500 
L 1656 2925 
Q 1872 3269 2151 3426 
Q 2431 3584 2822 3584 
Q 2878 3584 2943 3579 
Q 3009 3575 3134 3559 
L 3138 2547 
z
" transform="scale(0.015625)"/>
      <path id="DejaVuSans-Bold-20" transform="scale(0.015625)"/>
      <path id="DejaVuSans-Bold-43" d="M 4288 256 
Q 3956 84 3597 -3 
Q 3238 -91 2847 -91 
Q 1681 -91 1000 561 
Q 319 1213 319 2328 
Q 319 3447 1000 4098 
Q 1681 4750 2847 4750 
Q 3238 4750 3597 4662 
Q 3956 4575 4288 4403 
L 4288 3438 
Q 3953 3666 3628 3772 
Q 3303 3878 2944 3878 
Q 2300 3878 1931 3465 
Q 1563 3053 1563 2328 
Q 1563 1606 1931 1193 
Q 2300 781 2944 781 
Q 3303 781 3628 887 
Q 3953 994 4288 1222 
L 4288 256 
z
" transform="scale(0.015625)"/>
      <path id="DejaVuSans-Bold-4e" d="M 588 4666 
L 1931 4666 
L 3628 1466 
L 3628 4666 
L 4769 4666 
L 4769 0 
L 3425 0 
L 1728 3200 
L 1728 0 
L 588 0 
L 588 4666 
z
" transform="scale(0.015625)"/>
      <path id="DejaVuSans-Bold-4c" d="M 588 4666 
L 1791 4666 
L 1791 909 
L 3903 909 
L 3903 0 
L 588 0 
L 588 4666 
z
" transform="scale(0.015625)"/>
      <path id="DejaVuSans-Bold-73" d="M 3272 3391 
L 3272 2541 
Q 2913 2691 2578 2766 
Q 2244 2841 1947 2841 
Q 1628 2841 1473 2761 
Q 1319 2681 1319 2516 
Q 1319 2381 1436 2309 
Q 1553 2238 1856 2203 
L 2053 2175 
Q 2913 2066 3209 1816 
Q 3506 1566 3506 1031 
Q 3506 472 3093 190 
Q 2681 -91 1863 -91 
Q 1516 -91 1145 -36 
Q 775 19 384 128 
L 384 978 
Q 719 816 1070 734 
Q 1422 653 1784 653 
Q 2113 653 2278 743 
Q 2444 834 2444 1013 
Q 2444 1163 2330 1236 
Q 2216 1309 1875 1350 
L 1678 1375 
Q 931 1469 631 1722 
Q 331 1975 331 2491 
Q 331 3047 712 3315 
Q 1094 3584 1881 3584 
Q 2191 3584 2531 3537 
Q 2872 3491 3272 3391 
z
" transform="scale(0.015625)"/>
      <path id="DejaVuSans-Bold-63" d="M 3366 3391 
L 3366 2478 
Q 3138 2634 2908 2709 
Q 2678 2784 2431 2784 
Q 1963 2784 1702 2511 
Q 1441 2238 1441 1747 
Q 1441 1256 1702 982 
Q 1963 709 2431 709 
Q 2694 709 2930 787 
Q 3166 866 3366 1019 
L 3366 103 
Q 3103 6 2833 -42 
Q 2563 -91 2291 -91 
Q 1344 -91 809 395 
Q 275 881 275 1747 
Q 275 2613 809 3098 
Q 1344 3584 2291 3584 
Q 2566 3584 2833 3536 
Q 3100 3488 3366 3391 
z
" transform="scale(0.015625)"/>
      <path id="DejaVuSans-Bold-70" d="M 1656 506 
L 1656 -1331 
L 538 -1331 
L 538 3500 
L 1656 3500 
L 1656 2988 
Q 1888 3294 2169 3439 
Q 2450 3584 2816 3584 
Q 3463 3584 3878 3070 
Q 4294 2556 4294 1747 
Q 4294 938 3878 423 
Q 3463 -91 2816 -91 
Q 2450 -91 2169 54 
Q 1888 200 1656 506 
z
M 2400 2772 
Q 2041 2772 1848 2508 
Q 1656 2244 1656 1747 
Q 1656 1250 1848 986 
Q 2041 722 2400 722 
Q 2759 722 2948 984 
Q 3138 1247 3138 1747 
Q 3138 2247 2948 2509 
Q 2759 2772 2400 2772 
z
" transform="scale(0.015625)"/>
      <path id="DejaVuSans-Bold-65" d="M 4031 1759 
L 4031 1441 
L 1416 1441 
Q 1456 1047 1700 850 
Q 1944 653 2381 653 
Q 2734 653 3104 758 
Q 3475 863 3866 1075 
L 3866 213 
Q 3469 63 3072 -14 
Q 2675 -91 2278 -91 
Q 1328 -91 801 392 
Q 275 875 275 1747 
Q 275 2603 792 3093 
Q 1309 3584 2216 3584 
Q 3041 3584 3536 3087 
Q 4031 2591 4031 1759 
z
M 2881 2131 
Q 2881 2450 2695 2645 
Q 2509 2841 2209 2841 
Q 1884 2841 1681 2658 
Q 1478 2475 1428 2131 
L 2881 2131 
z
" transform="scale(0.015625)"/>
      <path id="DejaVuSans-Bold-28" d="M 2413 -844 
L 1484 -844 
Q 1006 -72 778 623 
Q 550 1319 550 2003 
Q 550 2688 779 3389 
Q 1009 4091 1484 4856 
L 2413 4856 
Q 2013 4116 1813 3408 
Q 1613 2700 1613 2009 
Q 1613 1319 1811 609 
Q 2009 -100 2413 -844 
z
" transform="scale(0.015625)"/>
      <path id="DejaVuSans-Bold-68" d="M 4056 2131 
L 4056 0 
L 2931 0 
L 2931 347 
L 2931 1625 
Q 2931 2084 2911 2256 
Q 2891 2428 2841 2509 
Q 2775 2619 2662 2680 
Q 2550 2741 2406 2741 
Q 2056 2741 1856 2470 
Q 1656 2200 1656 1722 
L 1656 0 
L 538 0 
L 538 4863 
L 1656 4863 
L 1656 2988 
Q 1909 3294 2193 3439 
Q 2478 3584 2822 3584 
Q 3428 3584 3742 3212 
Q 4056 2841 4056 2131 
z
" transform="scale(0.015625)"/>
      <path id="DejaVuSans-Bold-4d" d="M 588 4666 
L 2119 4666 
L 3181 2169 
L 4250 4666 
L 5778 4666 
L 5778 0 
L 4641 0 
L 4641 3413 
L 3566 897 
L 2803 897 
L 1728 3413 
L 1728 0 
L 588 0 
L 588 4666 
z
" transform="scale(0.015625)"/>
      <path id="DejaVuSans-Bold-69" d="M 538 3500 
L 1656 3500 
L 1656 0 
L 538 0 
L 538 3500 
z
M 538 4863 
L 1656 4863 
L 1656 3950 
L 538 3950 
L 538 4863 
z
" transform="scale(0.015625)"/>
      <path id="DejaVuSans-Bold-6d" d="M 3781 2919 
Q 3994 3244 4286 3414 
Q 4578 3584 4928 3584 
Q 5531 3584 5847 3212 
Q 6163 2841 6163 2131 
L 6163 0 
L 5038 0 
L 5038 1825 
Q 5041 1866 5042 1909 
Q 5044 1953 5044 2034 
Q 5044 2406 4934 2573 
Q 4825 2741 4581 2741 
Q 4263 2741 4089 2478 
Q 3916 2216 3909 1719 
L 3909 0 
L 2784 0 
L 2784 1825 
Q 2784 2406 2684 2573 
Q 2584 2741 2328 2741 
Q 2006 2741 1831 2477 
Q 1656 2213 1656 1722 
L 1656 0 
L 531 0 
L 531 3500 
L 1656 3500 
L 1656 2988 
Q 1863 3284 2130 3434 
Q 2397 3584 2719 3584 
Q 3081 3584 3359 3409 
Q 3638 3234 3781 2919 
z
" transform="scale(0.015625)"/>
      <path id="DejaVuSans-Bold-29" d="M 513 -844 
Q 913 -100 1113 609 
Q 1313 1319 1313 2009 
Q 1313 2700 1113 3408 
Q 913 4116 513 4856 
L 1441 4856 
Q 1916 4091 2145 3389 
Q 2375 2688 2375 2003 
Q 2375 1319 2147 623 
Q 1919 -72 1441 -844 
L 513 -844 
z
" transform="scale(0.015625)"/>
     </defs>
     <use xlink:href="#DejaVuSans-Bold-53"/>
     <use xlink:href="#DejaVuSans-Bold-74" transform="translate(72.021484 0)"/>
     <use xlink:href="#DejaVuSans-Bold-61" transform="translate(119.824219 0)"/>
     <use xlink:href="#DejaVuSans-Bold-6e" transform="translate(187.304688 0)"/>
     <use xlink:href="#DejaVuSans-Bold-64" transform="translate(258.496094 0)"/>
     <use xlink:href="#DejaVuSans-Bold-61" transform="translate(330.078125 0)"/>
     <use xlink:href="#DejaVuSans-Bold-72" transform="translate(397.558594 0)"/>
     <use xlink:href="#DejaVuSans-Bold-64" transform="translate(446.875 0)"/>
     <use xlink:href="#DejaVuSans-Bold-20" transform="translate(518.457031 0)"/>
     <use xlink:href="#DejaVuSans-Bold-43" transform="translate(553.271484 0)"/>
     <use xlink:href="#DejaVuSans-Bold-4e" transform="translate(626.660156 0)"/>
     <use xlink:href="#DejaVuSans-Bold-4e" transform="translate(710.351562 0)"/>
     <use xlink:href="#DejaVuSans-Bold-20" transform="translate(794.042969 0)"/>
     <use xlink:href="#DejaVuSans-Bold-4c" transform="translate(828.857422 0)"/>
     <use xlink:href="#DejaVuSans-Bold-61" transform="translate(892.578125 0)"/>
     <use xlink:href="#DejaVuSans-Bold-6e" transform="translate(960.058594 0)"/>
     <use xlink:href="#DejaVuSans-Bold-64" transform="translate(1031.25 0)"/>
     <use xlink:href="#DejaVuSans-Bold-73" transform="translate(1102.832031 0)"/>
     <use xlink:href="#DejaVuSans-Bold-63" transform="translate(1162.353516 0)"/>
     <use xlink:href="#DejaVuSans-Bold-61" transform="translate(1221.630859 0)"/>
     <use xlink:href="#DejaVuSans-Bold-70" transform="translate(1289.111328 0)"/>
     <use xlink:href="#DejaVuSans-Bold-65" transform="translate(1360.693359 0)"/>
     <use xlink:href="#DejaVuSans-Bold-20" transform="translate(1428.515625 0)"/>
     <use xlink:href="#DejaVuSans-Bold-28" transform="translate(1463.330078 0)"/>
     <use xlink:href="#DejaVuSans-Bold-53" transform="translate(1509.033203 0)"/>
     <use xlink:href="#DejaVuSans-Bold-68" transform="translate(1581.054688 0)"/>
     <use xlink:href="#DejaVuSans-Bold-61" transform="translate(1652.246094 0)"/>
     <use xlink:href="#DejaVuSans-Bold-72" transform="translate(1719.726562 0)"/>
     <use xlink:href="#DejaVuSans-Bold-70" transform="translate(1769.042969 0)"/>
     <use xlink:href="#DejaVuSans-Bold-20" transform="translate(1840.625 0)"/>
     <use xlink:href="#DejaVuSans-Bold-4d" transform="translate(1875.439453 0)"/>
     <use xlink:href="#DejaVuSans-Bold-69" transform="translate(1974.951172 0)"/>
     <use xlink:href="#DejaVuSans-Bold-6e" transform="translate(2009.228516 0)"/>
     <use xlink:href="#DejaVuSans-Bold-69" transform="translate(2080.419922 0)"/>
     <use xlink:href="#DejaVuSans-Bold-6d" transform="translate(2114.697266 0)"/>
     <use xlink:href="#DejaVuSans-Bold-61" transform="translate(2218.896484 0)"/>
     <use xlink:href="#DejaVuSans-Bold-29" transform="translate(2286.376953 0)"/>
    </g>
   </g>
   <g id="legend_1">
    <g id="patch_9">
     <path d="M 47.603125 58.936406 
L 185.603125 58.936406 
Q 187.603125 58.936406 187.603125 56.936406 
L 187.603125 28.558281 
Q 187.603125 26.558281 185.603125 26.558281 
L 47.603125 26.558281 
Q 45.603125 26.558281 45.603125 28.558281 
L 45.603125 56.936406 
Q 45.603125 58.936406 47.603125 58.936406 
z
" style="fill: #ffffff; opacity: 0.8; stroke: #cccccc; stroke-linejoin: miter"/>
    </g>
    <g id="line2d_18">
     <path d="M 49.603125 34.656719 
L 59.603125 34.656719 
L 69.603125 34.656719 
" style="fill: none; stroke: #d32f2f; stroke-width: 2.5; stroke-linecap: square"/>
    </g>
    <g id="text_20">
     <!-- Loss Landscape -->
     <g transform="translate(77.603125 38.156719) scale(0.1 -0.1)">
      <defs>
       <path id="DejaVuSans-64" d="M 2906 2969 
L 2906 4863 
L 3481 4863 
L 3481 0 
L 2906 0 
L 2906 525 
Q 2725 213 2448 61 
Q 2172 -91 1784 -91 
Q 1150 -91 751 415 
Q 353 922 353 1747 
Q 353 2572 751 3078 
Q 1150 3584 1784 3584 
Q 2172 3584 2448 3432 
Q 2725 3281 2906 2969 
z
M 947 1747 
Q 947 1113 1208 752 
Q 1469 391 1925 391 
Q 2381 391 2643 752 
Q 2906 1113 2906 1747 
Q 2906 2381 2643 2742 
Q 2381 3103 1925 3103 
Q 1469 3103 1208 2742 
Q 947 2381 947 1747 
z
" transform="scale(0.015625)"/>
      </defs>
      <use xlink:href="#DejaVuSans-4c"/>
      <use xlink:href="#DejaVuSans-6f" transform="translate(53.962891 0)"/>
      <use xlink:href="#DejaVuSans-73" transform="translate(115.144531 0)"/>
      <use xlink:href="#DejaVuSans-73" transform="translate(167.244141 0)"/>
      <use xlink:href="#DejaVuSans-20" transform="translate(219.34375 0)"/>
      <use xlink:href="#DejaVuSans-4c" transform="translate(251.130859 0)"/>
      <use xlink:href="#DejaVuSans-61" transform="translate(306.84375 0)"/>
      <use xlink:href="#DejaVuSans-6e" transform="translate(368.123047 0)"/>
      <use xlink:href="#DejaVuSans-64" transform="translate(431.501953 0)"/>
      <use xlink:href="#DejaVuSans-73" transform="translate(494.978516 0)"/>
      <use xlink:href="#DejaVuSans-63" transform="translate(547.078125 0)"/>
      <use xlink:href="#DejaVuSans-61" transform="translate(602.058594 0)"/>
      <use xlink:href="#DejaVuSans-70" transform="translate(663.337891 0)"/>
      <use xlink:href="#DejaVuSans-65" transform="translate(726.814453 0)"/>
     </g>
    </g>
    <g id="patch_10">
     <path d="M 49.603125 52.836406 
L 69.603125 52.836406 
L 69.603125 45.836406 
L 49.603125 45.836406 
z
" style="fill: #b0bec5; opacity: 0.3; stroke: #b0bec5; stroke-linejoin: miter"/>
    </g>
    <g id="text_21">
     <!-- Perturbation Range $\varepsilon$ -->
     <g transform="translate(77.603125 52.836406) scale(0.1 -0.1)">
      <defs>
       <path id="DejaVuSans-52" d="M 2841 2188 
Q 3044 2119 3236 1894 
Q 3428 1669 3622 1275 
L 4263 0 
L 3584 0 
L 2988 1197 
Q 2756 1666 2539 1819 
Q 2322 1972 1947 1972 
L 1259 1972 
L 1259 0 
L 628 0 
L 628 4666 
L 2053 4666 
Q 2853 4666 3247 4331 
Q 3641 3997 3641 3322 
Q 3641 2881 3436 2590 
Q 3231 2300 2841 2188 
z
M 1259 4147 
L 1259 2491 
L 2053 2491 
Q 2509 2491 2742 2702 
Q 2975 2913 2975 3322 
Q 2975 3731 2742 3939 
Q 2509 4147 2053 4147 
L 1259 4147 
z
" transform="scale(0.015625)"/>
       <path id="DejaVuSans-67" d="M 2906 1791 
Q 2906 2416 2648 2759 
Q 2391 3103 1925 3103 
Q 1463 3103 1205 2759 
Q 947 2416 947 1791 
Q 947 1169 1205 825 
Q 1463 481 1925 481 
Q 2391 481 2648 825 
Q 2906 1169 2906 1791 
z
M 3481 434 
Q 3481 -459 3084 -895 
Q 2688 -1331 1869 -1331 
Q 1566 -1331 1297 -1286 
Q 1028 -1241 775 -1147 
L 775 -588 
Q 1028 -725 1275 -790 
Q 1522 -856 1778 -856 
Q 2344 -856 2625 -561 
Q 2906 -266 2906 331 
L 2906 616 
Q 2728 306 2450 153 
Q 2172 0 1784 0 
Q 1141 0 747 490 
Q 353 981 353 1791 
Q 353 2603 747 3093 
Q 1141 3584 1784 3584 
Q 2172 3584 2450 3431 
Q 2728 3278 2906 2969 
L 2906 3500 
L 3481 3500 
L 3481 434 
z
" transform="scale(0.015625)"/>
       <path id="DejaVuSans-Oblique-3b5" d="M 1263 1888 
Q 925 1963 778 2166 
Q 669 2309 669 2503 
Q 669 3034 1175 3344 
Q 1575 3588 2188 3588 
Q 2425 3588 2684 3550 
Q 2944 3513 3234 3438 
L 3134 2916 
Q 2847 3006 2606 3047 
Q 2359 3088 2138 3088 
Q 1766 3088 1522 2944 
Q 1228 2772 1228 2522 
Q 1228 2356 1381 2241 
Q 1563 2103 1925 2103 
L 2409 2103 
L 2319 1628 
L 1856 1628 
Q 1425 1628 1172 1469 
Q 828 1253 828 916 
Q 828 703 1013 563 
Q 1244 388 1716 388 
Q 2006 388 2284 444 
Q 2563 503 2806 619 
L 2700 84 
Q 2403 -3 2131 -47 
Q 1859 -91 1609 -91 
Q 866 -91 516 194 
Q 250 413 250 781 
Q 250 1278 600 1584 
Q 859 1813 1263 1888 
z
" transform="scale(0.015625)"/>
      </defs>
      <use xlink:href="#DejaVuSans-50" transform="translate(0 0.015625)"/>
      <use xlink:href="#DejaVuSans-65" transform="translate(60.302734 0.015625)"/>
      <use xlink:href="#DejaVuSans-72" transform="translate(121.826172 0.015625)"/>
      <use xlink:href="#DejaVuSans-74" transform="translate(162.939453 0.015625)"/>
      <use xlink:href="#DejaVuSans-75" transform="translate(202.148438 0.015625)"/>
      <use xlink:href="#DejaVuSans-72" transform="translate(265.527344 0.015625)"/>
      <use xlink:href="#DejaVuSans-62" transform="translate(306.640625 0.015625)"/>
      <use xlink:href="#DejaVuSans-61" transform="translate(370.117188 0.015625)"/>
      <use xlink:href="#DejaVuSans-74" transform="translate(431.396484 0.015625)"/>
      <use xlink:href="#DejaVuSans-69" transform="translate(470.605469 0.015625)"/>
      <use xlink:href="#DejaVuSans-6f" transform="translate(498.388672 0.015625)"/>
      <use xlink:href="#DejaVuSans-6e" transform="translate(559.570312 0.015625)"/>
      <use xlink:href="#DejaVuSans-20" transform="translate(622.949219 0.015625)"/>
      <use xlink:href="#DejaVuSans-52" transform="translate(654.736328 0.015625)"/>
      <use xlink:href="#DejaVuSans-61" transform="translate(724.21875 0.015625)"/>
      <use xlink:href="#DejaVuSans-6e" transform="translate(785.498047 0.015625)"/>
      <use xlink:href="#DejaVuSans-67" transform="translate(848.876953 0.015625)"/>
      <use xlink:href="#DejaVuSans-65" transform="translate(912.353516 0.015625)"/>
      <use xlink:href="#DejaVuSans-20" transform="translate(973.876953 0.015625)"/>
      <use xlink:href="#DejaVuSans-Oblique-3b5" transform="translate(1005.664062 0.015625)"/>
     </g>
    </g>
   </g>
  </g>
  <g id="axes_2">
   <g id="patch_11">
    <path d="M 399.928125 314.158281 
L 705.233125 314.158281 
L 705.233125 21.558281 
L 399.928125 21.558281 
z
" style="fill: #ffffff"/>
   </g>
   <g id="FillBetweenPolyCollection_2">
    <defs>
     <path id="m28f5da1d27" d="M 413.805625 -50.85625 
L 413.805625 -316.85625 
L 415.200349 -311.536384 
L 416.595072 -306.270255 
L 417.989796 -301.057861 
L 419.384519 -295.899203 
L 420.779243 -290.794282 
L 422.173967 -285.743096 
L 423.56869 -280.745647 
L 424.963414 -275.801933 
L 426.358138 -270.911956 
L 427.752861 -266.075714 
L 429.147585 -261.293209 
L 430.542308 -256.564439 
L 431.937032 -251.889406 
L 433.331756 -247.268108 
L 434.726479 -242.700547 
L 436.121203 -238.186721 
L 437.515927 -233.726632 
L 438.91065 -229.320279 
L 440.305374 -224.967661 
L 441.700097 -220.66878 
L 443.094821 -216.423635 
L 444.489545 -212.232225 
L 445.884268 -208.094552 
L 447.278992 -204.010615 
L 448.673715 -199.980414 
L 450.068439 -196.003948 
L 451.463163 -192.081219 
L 452.857886 -188.212226 
L 454.25261 -184.396969 
L 455.647334 -180.635447 
L 457.042057 -176.927662 
L 458.436781 -173.273613 
L 459.831504 -169.6733 
L 461.226228 -166.126723 
L 462.620952 -162.633882 
L 464.015675 -159.194777 
L 465.410399 -155.809408 
L 466.805122 -152.477775 
L 468.199846 -149.199878 
L 469.59457 -145.975717 
L 470.989293 -142.805292 
L 472.384017 -139.688603 
L 473.778741 -136.62565 
L 475.173464 -133.616433 
L 476.568188 -130.660952 
L 477.962911 -127.759207 
L 479.357635 -124.911198 
L 480.752359 -122.116925 
L 482.147082 -119.376388 
L 483.541806 -116.689588 
L 484.93653 -114.056523 
L 486.331253 -111.477194 
L 487.725977 -108.951601 
L 489.1207 -106.479744 
L 490.515424 -104.061624 
L 491.910148 -101.697239 
L 493.304871 -99.38659 
L 494.699595 -97.129677 
L 496.094318 -94.926501 
L 497.489042 -92.77706 
L 498.883766 -90.681355 
L 500.278489 -88.639387 
L 501.673213 -86.651154 
L 503.067937 -84.716658 
L 504.46266 -82.835897 
L 505.857384 -81.008872 
L 507.252107 -79.235584 
L 508.646831 -77.516031 
L 510.041555 -75.850215 
L 511.436278 -74.238134 
L 512.831002 -72.67979 
L 514.225726 -71.175181 
L 515.620449 -69.724309 
L 517.015173 -68.327172 
L 518.409896 -66.983772 
L 519.80462 -65.694108 
L 521.199344 -64.458179 
L 522.594067 -63.275987 
L 523.988791 -62.147531 
L 525.383514 -61.07281 
L 526.778238 -60.051826 
L 528.172962 -59.084578 
L 529.567685 -58.171065 
L 530.962409 -57.311289 
L 532.357133 -56.505249 
L 533.751856 -55.752945 
L 535.14658 -55.054376 
L 536.541303 -54.409544 
L 537.936027 -53.818448 
L 539.330751 -53.281088 
L 540.725474 -52.797464 
L 542.120198 -52.367575 
L 543.514921 -51.991423 
L 544.909645 -51.669007 
L 546.304369 -51.400327 
L 547.699092 -51.185383 
L 549.093816 -51.024175 
L 550.48854 -50.916703 
L 551.883263 -50.862967 
L 553.277987 -50.862967 
L 554.67271 -50.916703 
L 556.067434 -51.024175 
L 557.462158 -51.185383 
L 558.856881 -51.400327 
L 560.251605 -51.669007 
L 561.646329 -51.991423 
L 563.041052 -52.367575 
L 564.435776 -52.797464 
L 565.830499 -53.281088 
L 567.225223 -53.818448 
L 568.619947 -54.409544 
L 570.01467 -55.054376 
L 571.409394 -55.752945 
L 572.804117 -56.505249 
L 574.198841 -57.311289 
L 575.593565 -58.171065 
L 576.988288 -59.084578 
L 578.383012 -60.051826 
L 579.777736 -61.07281 
L 581.172459 -62.147531 
L 582.567183 -63.275987 
L 583.961906 -64.458179 
L 585.35663 -65.694108 
L 586.751354 -66.983772 
L 588.146077 -68.327172 
L 589.540801 -69.724309 
L 590.935524 -71.175181 
L 592.330248 -72.67979 
L 593.724972 -74.238134 
L 595.119695 -75.850215 
L 596.514419 -77.516031 
L 597.909143 -79.235584 
L 599.303866 -81.008872 
L 600.69859 -82.835897 
L 602.093313 -84.716658 
L 603.488037 -86.651154 
L 604.882761 -88.639387 
L 606.277484 -90.681355 
L 607.672208 -92.77706 
L 609.066932 -94.926501 
L 610.461655 -97.129677 
L 611.856379 -99.38659 
L 613.251102 -101.697239 
L 614.645826 -104.061624 
L 616.04055 -106.479744 
L 617.435273 -108.951601 
L 618.829997 -111.477194 
L 620.22472 -114.056523 
L 621.619444 -116.689588 
L 623.014168 -119.376388 
L 624.408891 -122.116925 
L 625.803615 -124.911198 
L 627.198339 -127.759207 
L 628.593062 -130.660952 
L 629.987786 -133.616433 
L 631.382509 -136.62565 
L 632.777233 -139.688603 
L 634.171957 -142.805292 
L 635.56668 -145.975717 
L 636.961404 -149.199878 
L 638.356128 -152.477775 
L 639.750851 -155.809408 
L 641.145575 -159.194777 
L 642.540298 -162.633882 
L 643.935022 -166.126723 
L 645.329746 -169.6733 
L 646.724469 -173.273613 
L 648.119193 -176.927662 
L 649.513916 -180.635447 
L 650.90864 -184.396969 
L 652.303364 -188.212226 
L 653.698087 -192.081219 
L 655.092811 -196.003948 
L 656.487535 -199.980414 
L 657.882258 -204.010615 
L 659.276982 -208.094552 
L 660.671705 -212.232225 
L 662.066429 -216.423635 
L 663.461153 -220.66878 
L 664.855876 -224.967661 
L 666.2506 -229.320279 
L 667.645323 -233.726632 
L 669.040047 -238.186721 
L 670.434771 -242.700547 
L 671.829494 -247.268108 
L 673.224218 -251.889406 
L 674.618942 -256.564439 
L 676.013665 -261.293209 
L 677.408389 -266.075714 
L 678.803112 -270.911956 
L 680.197836 -275.801933 
L 681.59256 -280.745647 
L 682.987283 -285.743096 
L 684.382007 -290.794282 
L 685.776731 -295.899203 
L 687.171454 -301.057861 
L 688.566178 -306.270255 
L 689.960901 -311.536384 
L 691.355625 -316.85625 
L 691.355625 -50.85625 
L 691.355625 -50.85625 
L 689.960901 -50.85625 
L 688.566178 -50.85625 
L 687.171454 -50.85625 
L 685.776731 -50.85625 
L 684.382007 -50.85625 
L 682.987283 -50.85625 
L 681.59256 -50.85625 
L 680.197836 -50.85625 
L 678.803112 -50.85625 
L 677.408389 -50.85625 
L 676.013665 -50.85625 
L 674.618942 -50.85625 
L 673.224218 -50.85625 
L 671.829494 -50.85625 
L 670.434771 -50.85625 
L 669.040047 -50.85625 
L 667.645323 -50.85625 
L 666.2506 -50.85625 
L 664.855876 -50.85625 
L 663.461153 -50.85625 
L 662.066429 -50.85625 
L 660.671705 -50.85625 
L 659.276982 -50.85625 
L 657.882258 -50.85625 
L 656.487535 -50.85625 
L 655.092811 -50.85625 
L 653.698087 -50.85625 
L 652.303364 -50.85625 
L 650.90864 -50.85625 
L 649.513916 -50.85625 
L 648.119193 -50.85625 
L 646.724469 -50.85625 
L 645.329746 -50.85625 
L 643.935022 -50.85625 
L 642.540298 -50.85625 
L 641.145575 -50.85625 
L 639.750851 -50.85625 
L 638.356128 -50.85625 
L 636.961404 -50.85625 
L 635.56668 -50.85625 
L 634.171957 -50.85625 
L 632.777233 -50.85625 
L 631.382509 -50.85625 
L 629.987786 -50.85625 
L 628.593062 -50.85625 
L 627.198339 -50.85625 
L 625.803615 -50.85625 
L 624.408891 -50.85625 
L 623.014168 -50.85625 
L 621.619444 -50.85625 
L 620.22472 -50.85625 
L 618.829997 -50.85625 
L 617.435273 -50.85625 
L 616.04055 -50.85625 
L 614.645826 -50.85625 
L 613.251102 -50.85625 
L 611.856379 -50.85625 
L 610.461655 -50.85625 
L 609.066932 -50.85625 
L 607.672208 -50.85625 
L 606.277484 -50.85625 
L 604.882761 -50.85625 
L 603.488037 -50.85625 
L 602.093313 -50.85625 
L 600.69859 -50.85625 
L 599.303866 -50.85625 
L 597.909143 -50.85625 
L 596.514419 -50.85625 
L 595.119695 -50.85625 
L 593.724972 -50.85625 
L 592.330248 -50.85625 
L 590.935524 -50.85625 
L 589.540801 -50.85625 
L 588.146077 -50.85625 
L 586.751354 -50.85625 
L 585.35663 -50.85625 
L 583.961906 -50.85625 
L 582.567183 -50.85625 
L 581.172459 -50.85625 
L 579.777736 -50.85625 
L 578.383012 -50.85625 
L 576.988288 -50.85625 
L 575.593565 -50.85625 
L 574.198841 -50.85625 
L 572.804117 -50.85625 
L 571.409394 -50.85625 
L 570.01467 -50.85625 
L 568.619947 -50.85625 
L 567.225223 -50.85625 
L 565.830499 -50.85625 
L 564.435776 -50.85625 
L 563.041052 -50.85625 
L 561.646329 -50.85625 
L 560.251605 -50.85625 
L 558.856881 -50.85625 
L 557.462158 -50.85625 
L 556.067434 -50.85625 
L 554.67271 -50.85625 
L 553.277987 -50.85625 
L 551.883263 -50.85625 
L 550.48854 -50.85625 
L 549.093816 -50.85625 
L 547.699092 -50.85625 
L 546.304369 -50.85625 
L 544.909645 -50.85625 
L 543.514921 -50.85625 
L 542.120198 -50.85625 
L 540.725474 -50.85625 
L 539.330751 -50.85625 
L 537.936027 -50.85625 
L 536.541303 -50.85625 
L 535.14658 -50.85625 
L 533.751856 -50.85625 
L 532.357133 -50.85625 
L 530.962409 -50.85625 
L 529.567685 -50.85625 
L 528.172962 -50.85625 
L 526.778238 -50.85625 
L 525.383514 -50.85625 
L 523.988791 -50.85625 
L 522.594067 -50.85625 
L 521.199344 -50.85625 
L 519.80462 -50.85625 
L 518.409896 -50.85625 
L 517.015173 -50.85625 
L 515.620449 -50.85625 
L 514.225726 -50.85625 
L 512.831002 -50.85625 
L 511.436278 -50.85625 
L 510.041555 -50.85625 
L 508.646831 -50.85625 
L 507.252107 -50.85625 
L 505.857384 -50.85625 
L 504.46266 -50.85625 
L 503.067937 -50.85625 
L 501.673213 -50.85625 
L 500.278489 -50.85625 
L 498.883766 -50.85625 
L 497.489042 -50.85625 
L 496.094318 -50.85625 
L 494.699595 -50.85625 
L 493.304871 -50.85625 
L 491.910148 -50.85625 
L 490.515424 -50.85625 
L 489.1207 -50.85625 
L 487.725977 -50.85625 
L 486.331253 -50.85625 
L 484.93653 -50.85625 
L 483.541806 -50.85625 
L 482.147082 -50.85625 
L 480.752359 -50.85625 
L 479.357635 -50.85625 
L 477.962911 -50.85625 
L 476.568188 -50.85625 
L 475.173464 -50.85625 
L 473.778741 -50.85625 
L 472.384017 -50.85625 
L 470.989293 -50.85625 
L 469.59457 -50.85625 
L 468.199846 -50.85625 
L 466.805122 -50.85625 
L 465.410399 -50.85625 
L 464.015675 -50.85625 
L 462.620952 -50.85625 
L 461.226228 -50.85625 
L 459.831504 -50.85625 
L 458.436781 -50.85625 
L 457.042057 -50.85625 
L 455.647334 -50.85625 
L 454.25261 -50.85625 
L 452.857886 -50.85625 
L 451.463163 -50.85625 
L 450.068439 -50.85625 
L 448.673715 -50.85625 
L 447.278992 -50.85625 
L 445.884268 -50.85625 
L 444.489545 -50.85625 
L 443.094821 -50.85625 
L 441.700097 -50.85625 
L 440.305374 -50.85625 
L 438.91065 -50.85625 
L 437.515927 -50.85625 
L 436.121203 -50.85625 
L 434.726479 -50.85625 
L 433.331756 -50.85625 
L 431.937032 -50.85625 
L 430.542308 -50.85625 
L 429.147585 -50.85625 
L 427.752861 -50.85625 
L 426.358138 -50.85625 
L 424.963414 -50.85625 
L 423.56869 -50.85625 
L 422.173967 -50.85625 
L 420.779243 -50.85625 
L 419.384519 -50.85625 
L 417.989796 -50.85625 
L 416.595072 -50.85625 
L 415.200349 -50.85625 
L 413.805625 -50.85625 
z
" style="stroke: #e8f5e9; stroke-opacity: 0.5"/>
    </defs>
    <g clip-path="url(#p8a181aa61c)">
     <use xlink:href="#m28f5da1d27" x="0" y="351.714531" style="fill: #e8f5e9; fill-opacity: 0.5; stroke: #e8f5e9; stroke-opacity: 0.5"/>
    </g>
   </g>
   <g id="patch_12">
    <path d="M 531.764375 314.158281 
L 573.396875 314.158281 
L 573.396875 21.558281 
L 531.764375 21.558281 
z
" clip-path="url(#p8a181aa61c)" style="fill: #b0bec5; opacity: 0.3; stroke: #b0bec5; stroke-linejoin: miter"/>
   </g>
   <g id="matplotlib.axis_3">
    <g id="xtick_10">
     <g id="line2d_19">
      <g>
       <use xlink:href="#m42cf5c4d99" x="413.805625" y="314.158281" style="stroke: #000000; stroke-width: 0.8"/>
      </g>
     </g>
     <g id="text_22">
      <!-- −2.0 -->
      <g transform="translate(401.664219 328.756719) scale(0.1 -0.1)">
       <use xlink:href="#DejaVuSans-2212"/>
       <use xlink:href="#DejaVuSans-32" transform="translate(83.789062 0)"/>
       <use xlink:href="#DejaVuSans-2e" transform="translate(147.412109 0)"/>
       <use xlink:href="#DejaVuSans-30" transform="translate(179.199219 0)"/>
      </g>
     </g>
    </g>
    <g id="xtick_11">
     <g id="line2d_20">
      <g>
       <use xlink:href="#m42cf5c4d99" x="448.499375" y="314.158281" style="stroke: #000000; stroke-width: 0.8"/>
      </g>
     </g>
     <g id="text_23">
      <!-- −1.5 -->
      <g transform="translate(436.357969 328.756719) scale(0.1 -0.1)">
       <use xlink:href="#DejaVuSans-2212"/>
       <use xlink:href="#DejaVuSans-31" transform="translate(83.789062 0)"/>
       <use xlink:href="#DejaVuSans-2e" transform="translate(147.412109 0)"/>
       <use xlink:href="#DejaVuSans-35" transform="translate(179.199219 0)"/>
      </g>
     </g>
    </g>
    <g id="xtick_12">
     <g id="line2d_21">
      <g>
       <use xlink:href="#m42cf5c4d99" x="483.193125" y="314.158281" style="stroke: #000000; stroke-width: 0.8"/>
      </g>
     </g>
     <g id="text_24">
      <!-- −1.0 -->
      <g transform="translate(471.051719 328.756719) scale(0.1 -0.1)">
       <use xlink:href="#DejaVuSans-2212"/>
       <use xlink:href="#DejaVuSans-31" transform="translate(83.789062 0)"/>
       <use xlink:href="#DejaVuSans-2e" transform="translate(147.412109 0)"/>
       <use xlink:href="#DejaVuSans-30" transform="translate(179.199219 0)"/>
      </g>
     </g>
    </g>
    <g id="xtick_13">
     <g id="line2d_22">
      <g>
       <use xlink:href="#m42cf5c4d99" x="517.886875" y="314.158281" style="stroke: #000000; stroke-width: 0.8"/>
      </g>
     </g>
     <g id="text_25">
      <!-- −0.5 -->
      <g transform="translate(505.745469 328.756719) scale(0.1 -0.1)">
       <use xlink:href="#DejaVuSans-2212"/>
       <use xlink:href="#DejaVuSans-30" transform="translate(83.789062 0)"/>
       <use xlink:href="#DejaVuSans-2e" transform="translate(147.412109 0)"/>
       <use xlink:href="#DejaVuSans-35" transform="translate(179.199219 0)"/>
      </g>
     </g>
    </g>
    <g id="xtick_14">
     <g id="line2d_23">
      <g>
       <use xlink:href="#m42cf5c4d99" x="552.580625" y="314.158281" style="stroke: #000000; stroke-width: 0.8"/>
      </g>
     </g>
     <g id="text_26">
      <!-- 0.0 -->
      <g transform="translate(544.629063 328.756719) scale(0.1 -0.1)">
       <use xlink:href="#DejaVuSans-30"/>
       <use xlink:href="#DejaVuSans-2e" transform="translate(63.623047 0)"/>
       <use xlink:href="#DejaVuSans-30" transform="translate(95.410156 0)"/>
      </g>
     </g>
    </g>
    <g id="xtick_15">
     <g id="line2d_24">
      <g>
       <use xlink:href="#m42cf5c4d99" x="587.274375" y="314.158281" style="stroke: #000000; stroke-width: 0.8"/>
      </g>
     </g>
     <g id="text_27">
      <!-- 0.5 -->
      <g transform="translate(579.322813 328.756719) scale(0.1 -0.1)">
       <use xlink:href="#DejaVuSans-30"/>
       <use xlink:href="#DejaVuSans-2e" transform="translate(63.623047 0)"/>
       <use xlink:href="#DejaVuSans-35" transform="translate(95.410156 0)"/>
      </g>
     </g>
    </g>
    <g id="xtick_16">
     <g id="line2d_25">
      <g>
       <use xlink:href="#m42cf5c4d99" x="621.968125" y="314.158281" style="stroke: #000000; stroke-width: 0.8"/>
      </g>
     </g>
     <g id="text_28">
      <!-- 1.0 -->
      <g transform="translate(614.016563 328.756719) scale(0.1 -0.1)">
       <use xlink:href="#DejaVuSans-31"/>
       <use xlink:href="#DejaVuSans-2e" transform="translate(63.623047 0)"/>
       <use xlink:href="#DejaVuSans-30" transform="translate(95.410156 0)"/>
      </g>
     </g>
    </g>
    <g id="xtick_17">
     <g id="line2d_26">
      <g>
       <use xlink:href="#m42cf5c4d99" x="656.661875" y="314.158281" style="stroke: #000000; stroke-width: 0.8"/>
      </g>
     </g>
     <g id="text_29">
      <!-- 1.5 -->
      <g transform="translate(648.710313 328.756719) scale(0.1 -0.1)">
       <use xlink:href="#DejaVuSans-31"/>
       <use xlink:href="#DejaVuSans-2e" transform="translate(63.623047 0)"/>
       <use xlink:href="#DejaVuSans-35" transform="translate(95.410156 0)"/>
      </g>
     </g>
    </g>
    <g id="xtick_18">
     <g id="line2d_27">
      <g>
       <use xlink:href="#m42cf5c4d99" x="691.355625" y="314.158281" style="stroke: #000000; stroke-width: 0.8"/>
      </g>
     </g>
     <g id="text_30">
      <!-- 2.0 -->
      <g transform="translate(683.404063 328.756719) scale(0.1 -0.1)">
       <use xlink:href="#DejaVuSans-32"/>
       <use xlink:href="#DejaVuSans-2e" transform="translate(63.623047 0)"/>
       <use xlink:href="#DejaVuSans-30" transform="translate(95.410156 0)"/>
      </g>
     </g>
    </g>
    <g id="text_31">
     <!-- Parameter Space / Perturbation Direction -->
     <g transform="translate(449.738438 342.434844) scale(0.1 -0.1)">
      <use xlink:href="#DejaVuSans-50"/>
      <use xlink:href="#DejaVuSans-61" transform="translate(55.802734 0)"/>
      <use xlink:href="#DejaVuSans-72" transform="translate(117.082031 0)"/>
      <use xlink:href="#DejaVuSans-61" transform="translate(158.195312 0)"/>
      <use xlink:href="#DejaVuSans-6d" transform="translate(219.474609 0)"/>
      <use xlink:href="#DejaVuSans-65" transform="translate(316.886719 0)"/>
      <use xlink:href="#DejaVuSans-74" transform="translate(378.410156 0)"/>
      <use xlink:href="#DejaVuSans-65" transform="translate(417.619141 0)"/>
      <use xlink:href="#DejaVuSans-72" transform="translate(479.142578 0)"/>
      <use xlink:href="#DejaVuSans-20" transform="translate(520.255859 0)"/>
      <use xlink:href="#DejaVuSans-53" transform="translate(552.042969 0)"/>
      <use xlink:href="#DejaVuSans-70" transform="translate(615.519531 0)"/>
      <use xlink:href="#DejaVuSans-61" transform="translate(678.996094 0)"/>
      <use xlink:href="#DejaVuSans-63" transform="translate(740.275391 0)"/>
      <use xlink:href="#DejaVuSans-65" transform="translate(795.255859 0)"/>
      <use xlink:href="#DejaVuSans-20" transform="translate(856.779297 0)"/>
      <use xlink:href="#DejaVuSans-2f" transform="translate(888.566406 0)"/>
      <use xlink:href="#DejaVuSans-20" transform="translate(922.257812 0)"/>
      <use xlink:href="#DejaVuSans-50" transform="translate(954.044922 0)"/>
      <use xlink:href="#DejaVuSans-65" transform="translate(1010.722656 0)"/>
      <use xlink:href="#DejaVuSans-72" transform="translate(1072.246094 0)"/>
      <use xlink:href="#DejaVuSans-74" transform="translate(1113.359375 0)"/>
      <use xlink:href="#DejaVuSans-75" transform="translate(1152.568359 0)"/>
      <use xlink:href="#DejaVuSans-72" transform="translate(1215.947266 0)"/>
      <use xlink:href="#DejaVuSans-62" transform="translate(1257.060547 0)"/>
      <use xlink:href="#DejaVuSans-61" transform="translate(1320.537109 0)"/>
      <use xlink:href="#DejaVuSans-74" transform="translate(1381.816406 0)"/>
      <use xlink:href="#DejaVuSans-69" transform="translate(1421.025391 0)"/>
      <use xlink:href="#DejaVuSans-6f" transform="translate(1448.808594 0)"/>
      <use xlink:href="#DejaVuSans-6e" transform="translate(1509.990234 0)"/>
      <use xlink:href="#DejaVuSans-20" transform="translate(1573.369141 0)"/>
      <use xlink:href="#DejaVuSans-44" transform="translate(1605.15625 0)"/>
      <use xlink:href="#DejaVuSans-69" transform="translate(1682.158203 0)"/>
      <use xlink:href="#DejaVuSans-72" transform="translate(1709.941406 0)"/>
      <use xlink:href="#DejaVuSans-65" transform="translate(1748.804688 0)"/>
      <use xlink:href="#DejaVuSans-63" transform="translate(1810.328125 0)"/>
      <use xlink:href="#DejaVuSans-74" transform="translate(1865.308594 0)"/>
      <use xlink:href="#DejaVuSans-69" transform="translate(1904.517578 0)"/>
      <use xlink:href="#DejaVuSans-6f" transform="translate(1932.300781 0)"/>
      <use xlink:href="#DejaVuSans-6e" transform="translate(1993.482422 0)"/>
     </g>
    </g>
   </g>
   <g id="matplotlib.axis_4">
    <g id="ytick_7">
     <g id="line2d_28">
      <g>
       <use xlink:href="#m925e3b04ae" x="399.928125" y="300.858281" style="stroke: #000000; stroke-width: 0.8"/>
      </g>
     </g>
     <g id="text_32">
      <!-- 0.00 -->
      <g transform="translate(370.6625 304.6575) scale(0.1 -0.1)">
       <use xlink:href="#DejaVuSans-30"/>
       <use xlink:href="#DejaVuSans-2e" transform="translate(63.623047 0)"/>
       <use xlink:href="#DejaVuSans-30" transform="translate(95.410156 0)"/>
       <use xlink:href="#DejaVuSans-30" transform="translate(159.033203 0)"/>
      </g>
     </g>
    </g>
    <g id="ytick_8">
     <g id="line2d_29">
      <g>
       <use xlink:href="#m925e3b04ae" x="399.928125" y="267.608281" style="stroke: #000000; stroke-width: 0.8"/>
      </g>
     </g>
     <g id="text_33">
      <!-- 0.25 -->
      <g transform="translate(370.6625 271.4075) scale(0.1 -0.1)">
       <use xlink:href="#DejaVuSans-30"/>
       <use xlink:href="#DejaVuSans-2e" transform="translate(63.623047 0)"/>
       <use xlink:href="#DejaVuSans-32" transform="translate(95.410156 0)"/>
       <use xlink:href="#DejaVuSans-35" transform="translate(159.033203 0)"/>
      </g>
     </g>
    </g>
    <g id="ytick_9">
     <g id="line2d_30">
      <g>
       <use xlink:href="#m925e3b04ae" x="399.928125" y="234.358281" style="stroke: #000000; stroke-width: 0.8"/>
      </g>
     </g>
     <g id="text_34">
      <!-- 0.50 -->
      <g transform="translate(370.6625 238.1575) scale(0.1 -0.1)">
       <use xlink:href="#DejaVuSans-30"/>
       <use xlink:href="#DejaVuSans-2e" transform="translate(63.623047 0)"/>
       <use xlink:href="#DejaVuSans-35" transform="translate(95.410156 0)"/>
       <use xlink:href="#DejaVuSans-30" transform="translate(159.033203 0)"/>
      </g>
     </g>
    </g>
    <g id="ytick_10">
     <g id="line2d_31">
      <g>
       <use xlink:href="#m925e3b04ae" x="399.928125" y="201.108281" style="stroke: #000000; stroke-width: 0.8"/>
      </g>
     </g>
     <g id="text_35">
      <!-- 0.75 -->
      <g transform="translate(370.6625 204.9075) scale(0.1 -0.1)">
       <defs>
        <path id="DejaVuSans-37" d="M 525 4666 
L 3525 4666 
L 3525 4397 
L 1831 0 
L 1172 0 
L 2766 4134 
L 525 4134 
L 525 4666 
z
" transform="scale(0.015625)"/>
       </defs>
       <use xlink:href="#DejaVuSans-30"/>
       <use xlink:href="#DejaVuSans-2e" transform="translate(63.623047 0)"/>
       <use xlink:href="#DejaVuSans-37" transform="translate(95.410156 0)"/>
       <use xlink:href="#DejaVuSans-35" transform="translate(159.033203 0)"/>
      </g>
     </g>
    </g>
    <g id="ytick_11">
     <g id="line2d_32">
      <g>
       <use xlink:href="#m925e3b04ae" x="399.928125" y="167.858281" style="stroke: #000000; stroke-width: 0.8"/>
      </g>
     </g>
     <g id="text_36">
      <!-- 1.00 -->
      <g transform="translate(370.6625 171.6575) scale(0.1 -0.1)">
       <use xlink:href="#DejaVuSans-31"/>
       <use xlink:href="#DejaVuSans-2e" transform="translate(63.623047 0)"/>
       <use xlink:href="#DejaVuSans-30" transform="translate(95.410156 0)"/>
       <use xlink:href="#DejaVuSans-30" transform="translate(159.033203 0)"/>
      </g>
     </g>
    </g>
    <g id="ytick_12">
     <g id="line2d_33">
      <g>
       <use xlink:href="#m925e3b04ae" x="399.928125" y="134.608281" style="stroke: #000000; stroke-width: 0.8"/>
      </g>
     </g>
     <g id="text_37">
      <!-- 1.25 -->
      <g transform="translate(370.6625 138.4075) scale(0.1 -0.1)">
       <use xlink:href="#DejaVuSans-31"/>
       <use xlink:href="#DejaVuSans-2e" transform="translate(63.623047 0)"/>
       <use xlink:href="#DejaVuSans-32" transform="translate(95.410156 0)"/>
       <use xlink:href="#DejaVuSans-35" transform="translate(159.033203 0)"/>
      </g>
     </g>
    </g>
    <g id="ytick_13">
     <g id="line2d_34">
      <g>
       <use xlink:href="#m925e3b04ae" x="399.928125" y="101.358281" style="stroke: #000000; stroke-width: 0.8"/>
      </g>
     </g>
     <g id="text_38">
      <!-- 1.50 -->
      <g transform="translate(370.6625 105.1575) scale(0.1 -0.1)">
       <use xlink:href="#DejaVuSans-31"/>
       <use xlink:href="#DejaVuSans-2e" transform="translate(63.623047 0)"/>
       <use xlink:href="#DejaVuSans-35" transform="translate(95.410156 0)"/>
       <use xlink:href="#DejaVuSans-30" transform="translate(159.033203 0)"/>
      </g>
     </g>
    </g>
    <g id="ytick_14">
     <g id="line2d_35">
      <g>
       <use xlink:href="#m925e3b04ae" x="399.928125" y="68.108281" style="stroke: #000000; stroke-width: 0.8"/>
      </g>
     </g>
     <g id="text_39">
      <!-- 1.75 -->
      <g transform="translate(370.6625 71.9075) scale(0.1 -0.1)">
       <use xlink:href="#DejaVuSans-31"/>
       <use xlink:href="#DejaVuSans-2e" transform="translate(63.623047 0)"/>
       <use xlink:href="#DejaVuSans-37" transform="translate(95.410156 0)"/>
       <use xlink:href="#DejaVuSans-35" transform="translate(159.033203 0)"/>
      </g>
     </g>
    </g>
    <g id="ytick_15">
     <g id="line2d_36">
      <g>
       <use xlink:href="#m925e3b04ae" x="399.928125" y="34.858281" style="stroke: #000000; stroke-width: 0.8"/>
      </g>
     </g>
     <g id="text_40">
      <!-- 2.00 -->
      <g transform="translate(370.6625 38.6575) scale(0.1 -0.1)">
       <use xlink:href="#DejaVuSans-32"/>
       <use xlink:href="#DejaVuSans-2e" transform="translate(63.623047 0)"/>
       <use xlink:href="#DejaVuSans-30" transform="translate(95.410156 0)"/>
       <use xlink:href="#DejaVuSans-30" transform="translate(159.033203 0)"/>
      </g>
     </g>
    </g>
    <g id="text_41">
     <!-- Loss -->
     <g transform="translate(364.582812 178.825469) rotate(-90) scale(0.1 -0.1)">
      <use xlink:href="#DejaVuSans-4c"/>
      <use xlink:href="#DejaVuSans-6f" transform="translate(53.962891 0)"/>
      <use xlink:href="#DejaVuSans-73" transform="translate(115.144531 0)"/>
      <use xlink:href="#DejaVuSans-73" transform="translate(167.244141 0)"/>
     </g>
    </g>
   </g>
   <g id="line2d_37">
    <path d="M 413.805625 34.858281 
L 419.384519 55.815328 
L 424.963414 75.912598 
L 430.542308 95.150092 
L 436.121203 113.52781 
L 441.700097 131.045751 
L 447.278992 147.703916 
L 452.857886 163.502305 
L 458.436781 178.440918 
L 462.620952 189.080649 
L 466.805122 199.236757 
L 470.989293 208.90924 
L 475.173464 218.098098 
L 479.357635 226.803333 
L 483.541806 235.024944 
L 487.725977 242.76293 
L 491.910148 250.017292 
L 496.094318 256.78803 
L 500.278489 263.075144 
L 504.46266 268.878634 
L 508.646831 274.1985 
L 512.831002 279.034741 
L 517.015173 283.387359 
L 519.80462 286.020424 
L 522.594067 288.438544 
L 525.383514 290.641721 
L 528.172962 292.629954 
L 530.962409 294.403242 
L 533.751856 295.961587 
L 536.541303 297.304987 
L 539.330751 298.433443 
L 542.120198 299.346956 
L 544.909645 300.045524 
L 547.699092 300.529148 
L 550.48854 300.797828 
L 553.277987 300.851564 
L 556.067434 300.690356 
L 558.856881 300.314204 
L 561.646329 299.723108 
L 564.435776 298.917068 
L 567.225223 297.896083 
L 570.01467 296.660155 
L 572.804117 295.209282 
L 575.593565 293.543466 
L 578.383012 291.662705 
L 581.172459 289.567001 
L 583.961906 287.256352 
L 586.751354 284.730759 
L 589.540801 281.990222 
L 592.330248 279.034741 
L 596.514419 274.1985 
L 600.69859 268.878634 
L 604.882761 263.075144 
L 609.066932 256.78803 
L 613.251102 250.017292 
L 617.435273 242.76293 
L 621.619444 235.024944 
L 625.803615 226.803333 
L 629.987786 218.098098 
L 634.171957 208.90924 
L 638.356128 199.236757 
L 642.540298 189.080649 
L 646.724469 178.440918 
L 650.90864 167.317563 
L 656.487535 151.734118 
L 662.066429 135.290897 
L 667.645323 117.987899 
L 673.224218 99.825126 
L 678.803112 80.802576 
L 684.382007 60.920249 
L 689.960901 40.178147 
L 691.355625 34.858281 
L 691.355625 34.858281 
" clip-path="url(#p8a181aa61c)" style="fill: none; stroke: #388e3c; stroke-width: 2.5; stroke-linecap: square"/>
   </g>
   <g id="line2d_38">
    <path d="M 552.580625 314.158281 
L 552.580625 21.558281 
" clip-path="url(#p8a181aa61c)" style="fill: none; stroke-dasharray: 1.5,2.475; stroke-dashoffset: 0; stroke: #555555; stroke-width: 1.5"/>
   </g>
   <g id="patch_13">
    <path d="M 399.928125 314.158281 
L 399.928125 21.558281 
" style="fill: none; stroke: #000000; stroke-width: 0.8; stroke-linejoin: miter; stroke-linecap: square"/>
   </g>
   <g id="patch_14">
    <path d="M 705.233125 314.158281 
L 705.233125 21.558281 
" style="fill: none; stroke: #000000; stroke-width: 0.8; stroke-linejoin: miter; stroke-linecap: square"/>
   </g>
   <g id="patch_15">
    <path d="M 399.928125 314.158281 
L 705.233125 314.158281 
" style="fill: none; stroke: #000000; stroke-width: 0.8; stroke-linejoin: miter; stroke-linecap: square"/>
   </g>
   <g id="patch_16">
    <path d="M 399.928125 21.558281 
L 705.233125 21.558281 
" style="fill: none; stroke: #000000; stroke-width: 0.8; stroke-linejoin: miter; stroke-linecap: square"/>
   </g>
   <g id="patch_17">
    <path d="M 605.257717 157.595667 
Q 590.954306 214.141355 576.650895 270.687043 
L 578.832191 271.238809 
Q 575.906298 276.689018 572.980406 282.139226 
Q 572.997903 275.95333 573.0154 269.767433 
L 575.196697 270.319199 
Q 589.500108 213.773511 603.80352 157.227823 
L 605.257717 157.595667 
z
" style="stroke: #000000; stroke-linecap: round"/>
   </g>
   <g id="text_42">
    <!-- Flat Basin -->
    <g transform="translate(608.090625 130.060469) scale(0.1 -0.1)">
     <defs>
      <path id="DejaVuSans-46" d="M 628 4666 
L 3309 4666 
L 3309 4134 
L 1259 4134 
L 1259 2759 
L 3109 2759 
L 3109 2228 
L 1259 2228 
L 1259 0 
L 628 0 
L 628 4666 
z
" transform="scale(0.015625)"/>
      <path id="DejaVuSans-42" d="M 1259 2228 
L 1259 519 
L 2272 519 
Q 2781 519 3026 730 
Q 3272 941 3272 1375 
Q 3272 1813 3026 2020 
Q 2781 2228 2272 2228 
L 1259 2228 
z
M 1259 4147 
L 1259 2741 
L 2194 2741 
Q 2656 2741 2882 2914 
Q 3109 3088 3109 3444 
Q 3109 3797 2882 3972 
Q 2656 4147 2194 4147 
L 1259 4147 
z
M 628 4666 
L 2241 4666 
Q 2963 4666 3353 4366 
Q 3744 4066 3744 3513 
Q 3744 3084 3544 2831 
Q 3344 2578 2956 2516 
Q 3422 2416 3680 2098 
Q 3938 1781 3938 1306 
Q 3938 681 3513 340 
Q 3088 0 2303 0 
L 628 0 
L 628 4666 
z
" transform="scale(0.015625)"/>
     </defs>
     <use xlink:href="#DejaVuSans-46"/>
     <use xlink:href="#DejaVuSans-6c" transform="translate(57.519531 0)"/>
     <use xlink:href="#DejaVuSans-61" transform="translate(85.302734 0)"/>
     <use xlink:href="#DejaVuSans-74" transform="translate(146.582031 0)"/>
     <use xlink:href="#DejaVuSans-20" transform="translate(185.791016 0)"/>
     <use xlink:href="#DejaVuSans-42" transform="translate(217.578125 0)"/>
     <use xlink:href="#DejaVuSans-61" transform="translate(286.181641 0)"/>
     <use xlink:href="#DejaVuSans-73" transform="translate(347.460938 0)"/>
     <use xlink:href="#DejaVuSans-69" transform="translate(399.560547 0)"/>
     <use xlink:href="#DejaVuSans-6e" transform="translate(427.34375 0)"/>
    </g>
    <!-- (Robust) -->
    <g transform="translate(608.090625 141.258281) scale(0.1 -0.1)">
     <use xlink:href="#DejaVuSans-28"/>
     <use xlink:href="#DejaVuSans-52" transform="translate(39.013672 0)"/>
     <use xlink:href="#DejaVuSans-6f" transform="translate(103.996094 0)"/>
     <use xlink:href="#DejaVuSans-62" transform="translate(165.177734 0)"/>
     <use xlink:href="#DejaVuSans-75" transform="translate(228.654297 0)"/>
     <use xlink:href="#DejaVuSans-73" transform="translate(292.033203 0)"/>
     <use xlink:href="#DejaVuSans-74" transform="translate(344.132812 0)"/>
     <use xlink:href="#DejaVuSans-29" transform="translate(383.341797 0)"/>
    </g>
   </g>
   <g id="text_43">
    <!-- RHAN Landscape (Flat Minima) -->
    <g transform="translate(456.545469 15.558281) scale(0.11 -0.11)">
     <defs>
      <path id="DejaVuSans-Bold-52" d="M 2297 2597 
Q 2675 2597 2839 2737 
Q 3003 2878 3003 3200 
Q 3003 3519 2839 3656 
Q 2675 3794 2297 3794 
L 1791 3794 
L 1791 2597 
L 2297 2597 
z
M 1791 1766 
L 1791 0 
L 588 0 
L 588 4666 
L 2425 4666 
Q 3347 4666 3776 4356 
Q 4206 4047 4206 3378 
Q 4206 2916 3982 2619 
Q 3759 2322 3309 2181 
Q 3556 2125 3751 1926 
Q 3947 1728 4147 1325 
L 4800 0 
L 3519 0 
L 2950 1159 
Q 2778 1509 2601 1637 
Q 2425 1766 2131 1766 
L 1791 1766 
z
" transform="scale(0.015625)"/>
      <path id="DejaVuSans-Bold-48" d="M 588 4666 
L 1791 4666 
L 1791 2888 
L 3566 2888 
L 3566 4666 
L 4769 4666 
L 4769 0 
L 3566 0 
L 3566 1978 
L 1791 1978 
L 1791 0 
L 588 0 
L 588 4666 
z
" transform="scale(0.015625)"/>
      <path id="DejaVuSans-Bold-41" d="M 3419 850 
L 1538 850 
L 1241 0 
L 31 0 
L 1759 4666 
L 3194 4666 
L 4922 0 
L 3713 0 
L 3419 850 
z
M 1838 1716 
L 3116 1716 
L 2478 3572 
L 1838 1716 
z
" transform="scale(0.015625)"/>
      <path id="DejaVuSans-Bold-46" d="M 588 4666 
L 3834 4666 
L 3834 3756 
L 1791 3756 
L 1791 2888 
L 3713 2888 
L 3713 1978 
L 1791 1978 
L 1791 0 
L 588 0 
L 588 4666 
z
" transform="scale(0.015625)"/>
      <path id="DejaVuSans-Bold-6c" d="M 538 4863 
L 1656 4863 
L 1656 0 
L 538 0 
L 538 4863 
z
" transform="scale(0.015625)"/>
     </defs>
     <use xlink:href="#DejaVuSans-Bold-52"/>
     <use xlink:href="#DejaVuSans-Bold-48" transform="translate(77.001953 0)"/>
     <use xlink:href="#DejaVuSans-Bold-41" transform="translate(160.693359 0)"/>
     <use xlink:href="#DejaVuSans-Bold-4e" transform="translate(238.085938 0)"/>
     <use xlink:href="#DejaVuSans-Bold-20" transform="translate(321.777344 0)"/>
     <use xlink:href="#DejaVuSans-Bold-4c" transform="translate(356.591797 0)"/>
     <use xlink:href="#DejaVuSans-Bold-61" transform="translate(420.3125 0)"/>
     <use xlink:href="#DejaVuSans-Bold-6e" transform="translate(487.792969 0)"/>
     <use xlink:href="#DejaVuSans-Bold-64" transform="translate(558.984375 0)"/>
     <use xlink:href="#DejaVuSans-Bold-73" transform="translate(630.566406 0)"/>
     <use xlink:href="#DejaVuSans-Bold-63" transform="translate(690.087891 0)"/>
     <use xlink:href="#DejaVuSans-Bold-61" transform="translate(749.365234 0)"/>
     <use xlink:href="#DejaVuSans-Bold-70" transform="translate(816.845703 0)"/>
     <use xlink:href="#DejaVuSans-Bold-65" transform="translate(888.427734 0)"/>
     <use xlink:href="#DejaVuSans-Bold-20" transform="translate(956.25 0)"/>
     <use xlink:href="#DejaVuSans-Bold-28" transform="translate(991.064453 0)"/>
     <use xlink:href="#DejaVuSans-Bold-46" transform="translate(1036.767578 0)"/>
     <use xlink:href="#DejaVuSans-Bold-6c" transform="translate(1105.078125 0)"/>
     <use xlink:href="#DejaVuSans-Bold-61" transform="translate(1139.355469 0)"/>
     <use xlink:href="#DejaVuSans-Bold-74" transform="translate(1206.835938 0)"/>
     <use xlink:href="#DejaVuSans-Bold-20" transform="translate(1254.638672 0)"/>
     <use xlink:href="#DejaVuSans-Bold-4d" transform="translate(1289.453125 0)"/>
     <use xlink:href="#DejaVuSans-Bold-69" transform="translate(1388.964844 0)"/>
     <use xlink:href="#DejaVuSans-Bold-6e" transform="translate(1423.242188 0)"/>
     <use xlink:href="#DejaVuSans-Bold-69" transform="translate(1494.433594 0)"/>
     <use xlink:href="#DejaVuSans-Bold-6d" transform="translate(1528.710938 0)"/>
     <use xlink:href="#DejaVuSans-Bold-61" transform="translate(1632.910156 0)"/>
     <use xlink:href="#DejaVuSans-Bold-29" transform="translate(1700.390625 0)"/>
    </g>
   </g>
   <g id="legend_2">
    <g id="patch_18">
     <path d="M 406.928125 58.936406 
L 544.928125 58.936406 
Q 546.928125 58.936406 546.928125 56.936406 
L 546.928125 28.558281 
Q 546.928125 26.558281 544.928125 26.558281 
L 406.928125 26.558281 
Q 404.928125 26.558281 404.928125 28.558281 
L 404.928125 56.936406 
Q 404.928125 58.936406 406.928125 58.936406 
z
" style="fill: #ffffff; opacity: 0.8; stroke: #cccccc; stroke-linejoin: miter"/>
    </g>
    <g id="line2d_39">
     <path d="M 408.928125 34.656719 
L 418.928125 34.656719 
L 428.928125 34.656719 
" style="fill: none; stroke: #388e3c; stroke-width: 2.5; stroke-linecap: square"/>
    </g>
    <g id="text_44">
     <!-- Loss Landscape -->
     <g transform="translate(436.928125 38.156719) scale(0.1 -0.1)">
      <use xlink:href="#DejaVuSans-4c"/>
      <use xlink:href="#DejaVuSans-6f" transform="translate(53.962891 0)"/>
      <use xlink:href="#DejaVuSans-73" transform="translate(115.144531 0)"/>
      <use xlink:href="#DejaVuSans-73" transform="translate(167.244141 0)"/>
      <use xlink:href="#DejaVuSans-20" transform="translate(219.34375 0)"/>
      <use xlink:href="#DejaVuSans-4c" transform="translate(251.130859 0)"/>
      <use xlink:href="#DejaVuSans-61" transform="translate(306.84375 0)"/>
      <use xlink:href="#DejaVuSans-6e" transform="translate(368.123047 0)"/>
      <use xlink:href="#DejaVuSans-64" transform="translate(431.501953 0)"/>
      <use xlink:href="#DejaVuSans-73" transform="translate(494.978516 0)"/>
      <use xlink:href="#DejaVuSans-63" transform="translate(547.078125 0)"/>
      <use xlink:href="#DejaVuSans-61" transform="translate(602.058594 0)"/>
      <use xlink:href="#DejaVuSans-70" transform="translate(663.337891 0)"/>
      <use xlink:href="#DejaVuSans-65" transform="translate(726.814453 0)"/>
     </g>
    </g>
    <g id="patch_19">
     <path d="M 408.928125 52.836406 
L 428.928125 52.836406 
L 428.928125 45.836406 
L 408.928125 45.836406 
z
" style="fill: #b0bec5; opacity: 0.3; stroke: #b0bec5; stroke-linejoin: miter"/>
    </g>
    <g id="text_45">
     <!-- Perturbation Range $\varepsilon$ -->
     <g transform="translate(436.928125 52.836406) scale(0.1 -0.1)">
      <use xlink:href="#DejaVuSans-50" transform="translate(0 0.015625)"/>
      <use xlink:href="#DejaVuSans-65" transform="translate(60.302734 0.015625)"/>
      <use xlink:href="#DejaVuSans-72" transform="translate(121.826172 0.015625)"/>
      <use xlink:href="#DejaVuSans-74" transform="translate(162.939453 0.015625)"/>
      <use xlink:href="#DejaVuSans-75" transform="translate(202.148438 0.015625)"/>
      <use xlink:href="#DejaVuSans-72" transform="translate(265.527344 0.015625)"/>
      <use xlink:href="#DejaVuSans-62" transform="translate(306.640625 0.015625)"/>
      <use xlink:href="#DejaVuSans-61" transform="translate(370.117188 0.015625)"/>
      <use xlink:href="#DejaVuSans-74" transform="translate(431.396484 0.015625)"/>
      <use xlink:href="#DejaVuSans-69" transform="translate(470.605469 0.015625)"/>
      <use xlink:href="#DejaVuSans-6f" transform="translate(498.388672 0.015625)"/>
      <use xlink:href="#DejaVuSans-6e" transform="translate(559.570312 0.015625)"/>
      <use xlink:href="#DejaVuSans-20" transform="translate(622.949219 0.015625)"/>
      <use xlink:href="#DejaVuSans-52" transform="translate(654.736328 0.015625)"/>
      <use xlink:href="#DejaVuSans-61" transform="translate(724.21875 0.015625)"/>
      <use xlink:href="#DejaVuSans-6e" transform="translate(785.498047 0.015625)"/>
      <use xlink:href="#DejaVuSans-67" transform="translate(848.876953 0.015625)"/>
      <use xlink:href="#DejaVuSans-65" transform="translate(912.353516 0.015625)"/>
      <use xlink:href="#DejaVuSans-20" transform="translate(973.876953 0.015625)"/>
      <use xlink:href="#DejaVuSans-Oblique-3b5" transform="translate(1005.664062 0.015625)"/>
     </g>
    </g>
   </g>
  </g>
 </g>
 <defs>
  <clipPath id="pfcedaf837b">
   <rect x="40.603125" y="21.558281" width="305.305" height="292.6"/>
  </clipPath>
  <clipPath id="p8a181aa61c">
   <rect x="399.928125" y="21.558281" width="305.305" height="292.6"/>
  </clipPath>
 </defs>
</svg>
