<?xml version="1.0" encoding="utf-8" standalone="no"?>
<!DOCTYPE svg PUBLIC "-//W3C//DTD SVG 1.1//EN"
  "http://www.w3.org/Graphics/SVG/1.1/DTD/svg11.dtd">
<svg xmlns:xlink="http://www.w3.org/1999/xlink" width="712.8pt" height="388.8pt" viewBox="0 0 712.8 388.8" xmlns="http://www.w3.org/2000/svg" version="1.1">
 <metadata>
  <rdf:RDF xmlns:dc="http://purl.org/dc/elements/1.1/" xmlns:cc="http://creativecommons.org/ns#" xmlns:rdf="http://www.w3.org/1999/02/22-rdf-syntax-ns#">
   <cc:Work>
    <dc:type rdf:resource="http://purl.org/dc/dcmitype/StillImage"/>
    <dc:date>2026-07-07T07:10:54.654093</dc:date>
    <dc:format>image/svg+xml</dc:format>
    <dc:creator>
     <cc:Agent>
      <dc:title>Matplotlib v3.10.9, https://matplotlib.org/</dc:title>
     </cc:Agent>
    </dc:creator>
   </cc:Work>
  </rdf:RDF>
 </metadata>
 <defs>
  <style type="text/css">*{stroke-linejoin: round; stroke-linecap: butt}</style>
 </defs>
 <g id="figure_1">
  <g id="patch_1">
   <path d="M 0 388.8 
L 712.8 388.8 
L 712.8 0 
L 0 0 
z
" style="fill: #ffffff"/>
  </g>
  <g id="axes_1">
   <g id="patch_2">
    <path d="M 111.96 153.216 
L 251.64 153.216 
L 251.64 115.776 
L 111.96 115.776 
z
" clip-path="url(#p959606d198)" style="fill: #e3f2fd; stroke: #1e88e5; stroke-width: 1.5"/>
   </g>
   <g id="patch_3">
    <path d="M 111.96 220.608 
L 251.64 220.608 
L 251.64 183.168 
L 111.96 183.168 
z
" clip-path="url(#p959606d198)" style="fill: #e8f5e9; stroke: #43a047; stroke-width: 1.5"/>
   </g>
   <g id="patch_4">
    <path d="M 111.96 288 
L 251.64 288 
L 251.64 250.56 
L 111.96 250.56 
z
" clip-path="url(#p959606d198)" style="fill: #fff3e0; stroke: #fb8c00; stroke-width: 1.5"/>
   </g>
   <g id="patch_5">
    <path d="M 111.96 355.392 
L 251.64 355.392 
L 251.64 317.952 
L 111.96 317.952 
z
" clip-path="url(#p959606d198)" style="fill: #ffebee; stroke: #e53935; stroke-width: 1.5"/>
   </g>
   <g id="patch_6">
    <path d="M 454.176 153.216 
L 607.824 153.216 
L 607.824 115.776 
L 454.176 115.776 
z
" clip-path="url(#p959606d198)" style="fill: #e3f2fd; stroke: #1e88e5; stroke-width: 1.5"/>
   </g>
   <g id="patch_7">
    <path d="M 454.176 220.608 
L 607.824 220.608 
L 607.824 183.168 
L 454.176 183.168 
z
" clip-path="url(#p959606d198)" style="fill: #e8f5e9; stroke: #43a047; stroke-width: 1.5"/>
   </g>
   <g id="patch_8">
    <path d="M 454.176 288 
L 607.824 288 
L 607.824 250.56 
L 454.176 250.56 
z
" clip-path="url(#p959606d198)" style="fill: #fff3e0; stroke: #fb8c00; stroke-width: 1.5"/>
   </g>
   <g id="patch_9">
    <path d="M 454.176 355.392 
L 607.824 355.392 
L 607.824 317.952 
L 454.176 317.952 
z
" clip-path="url(#p959606d198)" style="fill: #ffebee; stroke: #e53935; stroke-width: 1.5"/>
   </g>
   <g id="text_1">
    <!-- Human Visual Pathway vs. RHAN Component Mapping -->
    <g transform="translate(158.518672 29.664) scale(0.13 -0.13)">
     <defs>
      <path id="DejaVuSans-Bold-48" d="M 588 4666 
L 1791 4666 
L 1791 2888 
L 3566 2888 
L 3566 4666 
L 4769 4666 
L 4769 0 
L 3566 0 
L 3566 1978 
L 1791 1978 
L 1791 0 
L 588 0 
L 588 4666 
z
" transform="scale(0.015625)"/>
      <path id="DejaVuSans-Bold-75" d="M 500 1363 
L 500 3500 
L 1625 3500 
L 1625 3150 
Q 1625 2866 1622 2436 
Q 1619 2006 1619 1863 
Q 1619 1441 1641 1255 
Q 1663 1069 1716 984 
Q 1784 875 1895 815 
Q 2006 756 2150 756 
Q 2500 756 2700 1025 
Q 2900 1294 2900 1772 
L 2900 3500 
L 4019 3500 
L 4019 0 
L 2900 0 
L 2900 506 
Q 2647 200 2364 54 
Q 2081 -91 1741 -91 
Q 1134 -91 817 281 
Q 500 653 500 1363 
z
" transform="scale(0.015625)"/>
      <path id="DejaVuSans-Bold-6d" d="M 3781 2919 
Q 3994 3244 4286 3414 
Q 4578 3584 4928 3584 
Q 5531 3584 5847 3212 
Q 6163 2841 6163 2131 
L 6163 0 
L 5038 0 
L 5038 1825 
Q 5041 1866 5042 1909 
Q 5044 1953 5044 2034 
Q 5044 2406 4934 2573 
Q 4825 2741 4581 2741 
Q 4263 2741 4089 2478 
Q 3916 2216 3909 1719 
L 3909 0 
L 2784 0 
L 2784 1825 
Q 2784 2406 2684 2573 
Q 2584 2741 2328 2741 
Q 2006 2741 1831 2477 
Q 1656 2213 1656 1722 
L 1656 0 
L 531 0 
L 531 3500 
L 1656 3500 
L 1656 2988 
Q 1863 3284 2130 3434 
Q 2397 3584 2719 3584 
Q 3081 3584 3359 3409 
Q 3638 3234 3781 2919 
z
" transform="scale(0.015625)"/>
      <path id="DejaVuSans-Bold-61" d="M 2106 1575 
Q 1756 1575 1579 1456 
Q 1403 1338 1403 1106 
Q 1403 894 1545 773 
Q 1688 653 1941 653 
Q 2256 653 2472 879 
Q 2688 1106 2688 1447 
L 2688 1575 
L 2106 1575 
z
M 3816 1997 
L 3816 0 
L 2688 0 
L 2688 519 
Q 2463 200 2181 54 
Q 1900 -91 1497 -91 
Q 953 -91 614 226 
Q 275 544 275 1050 
Q 275 1666 698 1953 
Q 1122 2241 2028 2241 
L 2688 2241 
L 2688 2328 
Q 2688 2594 2478 2717 
Q 2269 2841 1825 2841 
Q 1466 2841 1156 2769 
Q 847 2697 581 2553 
L 581 3406 
Q 941 3494 1303 3539 
Q 1666 3584 2028 3584 
Q 2975 3584 3395 3211 
Q 3816 2838 3816 1997 
z
" transform="scale(0.015625)"/>
      <path id="DejaVuSans-Bold-6e" d="M 4056 2131 
L 4056 0 
L 2931 0 
L 2931 347 
L 2931 1631 
Q 2931 2084 2911 2256 
Q 2891 2428 2841 2509 
Q 2775 2619 2662 2680 
Q 2550 2741 2406 2741 
Q 2056 2741 1856 2470 
Q 1656 2200 1656 1722 
L 1656 0 
L 538 0 
L 538 3500 
L 1656 3500 
L 1656 2988 
Q 1909 3294 2193 3439 
Q 2478 3584 2822 3584 
Q 3428 3584 3742 3212 
Q 4056 2841 4056 2131 
z
" transform="scale(0.015625)"/>
      <path id="DejaVuSans-Bold-20" transform="scale(0.015625)"/>
      <path id="DejaVuSans-Bold-56" d="M 31 4666 
L 1241 4666 
L 2478 1222 
L 3713 4666 
L 4922 4666 
L 3194 0 
L 1759 0 
L 31 4666 
z
" transform="scale(0.015625)"/>
      <path id="DejaVuSans-Bold-69" d="M 538 3500 
L 1656 3500 
L 1656 0 
L 538 0 
L 538 3500 
z
M 538 4863 
L 1656 4863 
L 1656 3950 
L 538 3950 
L 538 4863 
z
" transform="scale(0.015625)"/>
      <path id="DejaVuSans-Bold-73" d="M 3272 3391 
L 3272 2541 
Q 2913 2691 2578 2766 
Q 2244 2841 1947 2841 
Q 1628 2841 1473 2761 
Q 1319 2681 1319 2516 
Q 1319 2381 1436 2309 
Q 1553 2238 1856 2203 
L 2053 2175 
Q 2913 2066 3209 1816 
Q 3506 1566 3506 1031 
Q 3506 472 3093 190 
Q 2681 -91 1863 -91 
Q 1516 -91 1145 -36 
Q 775 19 384 128 
L 384 978 
Q 719 816 1070 734 
Q 1422 653 1784 653 
Q 2113 653 2278 743 
Q 2444 834 2444 1013 
Q 2444 1163 2330 1236 
Q 2216 1309 1875 1350 
L 1678 1375 
Q 931 1469 631 1722 
Q 331 1975 331 2491 
Q 331 3047 712 3315 
Q 1094 3584 1881 3584 
Q 2191 3584 2531 3537 
Q 2872 3491 3272 3391 
z
" transform="scale(0.015625)"/>
      <path id="DejaVuSans-Bold-6c" d="M 538 4863 
L 1656 4863 
L 1656 0 
L 538 0 
L 538 4863 
z
" transform="scale(0.015625)"/>
      <path id="DejaVuSans-Bold-50" d="M 588 4666 
L 2584 4666 
Q 3475 4666 3951 4270 
Q 4428 3875 4428 3144 
Q 4428 2409 3951 2014 
Q 3475 1619 2584 1619 
L 1791 1619 
L 1791 0 
L 588 0 
L 588 4666 
z
M 1791 3794 
L 1791 2491 
L 2456 2491 
Q 2806 2491 2997 2661 
Q 3188 2831 3188 3144 
Q 3188 3456 2997 3625 
Q 2806 3794 2456 3794 
L 1791 3794 
z
" transform="scale(0.015625)"/>
      <path id="DejaVuSans-Bold-74" d="M 1759 4494 
L 1759 3500 
L 2913 3500 
L 2913 2700 
L 1759 2700 
L 1759 1216 
Q 1759 972 1856 886 
Q 1953 800 2241 800 
L 2816 800 
L 2816 0 
L 1856 0 
Q 1194 0 917 276 
Q 641 553 641 1216 
L 641 2700 
L 84 2700 
L 84 3500 
L 641 3500 
L 641 4494 
L 1759 4494 
z
" transform="scale(0.015625)"/>
      <path id="DejaVuSans-Bold-68" d="M 4056 2131 
L 4056 0 
L 2931 0 
L 2931 347 
L 2931 1625 
Q 2931 2084 2911 2256 
Q 2891 2428 2841 2509 
Q 2775 2619 2662 2680 
Q 2550 2741 2406 2741 
Q 2056 2741 1856 2470 
Q 1656 2200 1656 1722 
L 1656 0 
L 538 0 
L 538 4863 
L 1656 4863 
L 1656 2988 
Q 1909 3294 2193 3439 
Q 2478 3584 2822 3584 
Q 3428 3584 3742 3212 
Q 4056 2841 4056 2131 
z
" transform="scale(0.015625)"/>
      <path id="DejaVuSans-Bold-77" d="M 225 3500 
L 1313 3500 
L 1900 1088 
L 2491 3500 
L 3425 3500 
L 4013 1113 
L 4603 3500 
L 5691 3500 
L 4769 0 
L 3547 0 
L 2956 2406 
L 2369 0 
L 1147 0 
L 225 3500 
z
" transform="scale(0.015625)"/>
      <path id="DejaVuSans-Bold-79" d="M 78 3500 
L 1197 3500 
L 2138 1125 
L 2938 3500 
L 4056 3500 
L 2584 -331 
Q 2363 -916 2067 -1148 
Q 1772 -1381 1288 -1381 
L 641 -1381 
L 641 -647 
L 991 -647 
Q 1275 -647 1404 -556 
Q 1534 -466 1606 -231 
L 1638 -134 
L 78 3500 
z
" transform="scale(0.015625)"/>
      <path id="DejaVuSans-Bold-76" d="M 97 3500 
L 1216 3500 
L 2088 1081 
L 2956 3500 
L 4078 3500 
L 2700 0 
L 1472 0 
L 97 3500 
z
" transform="scale(0.015625)"/>
      <path id="DejaVuSans-Bold-2e" d="M 653 1209 
L 1778 1209 
L 1778 0 
L 653 0 
L 653 1209 
z
" transform="scale(0.015625)"/>
      <path id="DejaVuSans-Bold-52" d="M 2297 2597 
Q 2675 2597 2839 2737 
Q 3003 2878 3003 3200 
Q 3003 3519 2839 3656 
Q 2675 3794 2297 3794 
L 1791 3794 
L 1791 2597 
L 2297 2597 
z
M 1791 1766 
L 1791 0 
L 588 0 
L 588 4666 
L 2425 4666 
Q 3347 4666 3776 4356 
Q 4206 4047 4206 3378 
Q 4206 2916 3982 2619 
Q 3759 2322 3309 2181 
Q 3556 2125 3751 1926 
Q 3947 1728 4147 1325 
L 4800 0 
L 3519 0 
L 2950 1159 
Q 2778 1509 2601 1637 
Q 2425 1766 2131 1766 
L 1791 1766 
z
" transform="scale(0.015625)"/>
      <path id="DejaVuSans-Bold-41" d="M 3419 850 
L 1538 850 
L 1241 0 
L 31 0 
L 1759 4666 
L 3194 4666 
L 4922 0 
L 3713 0 
L 3419 850 
z
M 1838 1716 
L 3116 1716 
L 2478 3572 
L 1838 1716 
z
" transform="scale(0.015625)"/>
      <path id="DejaVuSans-Bold-4e" d="M 588 4666 
L 1931 4666 
L 3628 1466 
L 3628 4666 
L 4769 4666 
L 4769 0 
L 3425 0 
L 1728 3200 
L 1728 0 
L 588 0 
L 588 4666 
z
" transform="scale(0.015625)"/>
      <path id="DejaVuSans-Bold-43" d="M 4288 256 
Q 3956 84 3597 -3 
Q 3238 -91 2847 -91 
Q 1681 -91 1000 561 
Q 319 1213 319 2328 
Q 319 3447 1000 4098 
Q 1681 4750 2847 4750 
Q 3238 4750 3597 4662 
Q 3956 4575 4288 4403 
L 4288 3438 
Q 3953 3666 3628 3772 
Q 3303 3878 2944 3878 
Q 2300 3878 1931 3465 
Q 1563 3053 1563 2328 
Q 1563 1606 1931 1193 
Q 2300 781 2944 781 
Q 3303 781 3628 887 
Q 3953 994 4288 1222 
L 4288 256 
z
" transform="scale(0.015625)"/>
      <path id="DejaVuSans-Bold-6f" d="M 2203 2784 
Q 1831 2784 1636 2517 
Q 1441 2250 1441 1747 
Q 1441 1244 1636 976 
Q 1831 709 2203 709 
Q 2569 709 2762 976 
Q 2956 1244 2956 1747 
Q 2956 2250 2762 2517 
Q 2569 2784 2203 2784 
z
M 2203 3584 
Q 3106 3584 3614 3096 
Q 4122 2609 4122 1747 
Q 4122 884 3614 396 
Q 3106 -91 2203 -91 
Q 1297 -91 786 396 
Q 275 884 275 1747 
Q 275 2609 786 3096 
Q 1297 3584 2203 3584 
z
" transform="scale(0.015625)"/>
      <path id="DejaVuSans-Bold-70" d="M 1656 506 
L 1656 -1331 
L 538 -1331 
L 538 3500 
L 1656 3500 
L 1656 2988 
Q 1888 3294 2169 3439 
Q 2450 3584 2816 3584 
Q 3463 3584 3878 3070 
Q 4294 2556 4294 1747 
Q 4294 938 3878 423 
Q 3463 -91 2816 -91 
Q 2450 -91 2169 54 
Q 1888 200 1656 506 
z
M 2400 2772 
Q 2041 2772 1848 2508 
Q 1656 2244 1656 1747 
Q 1656 1250 1848 986 
Q 2041 722 2400 722 
Q 2759 722 2948 984 
Q 3138 1247 3138 1747 
Q 3138 2247 2948 2509 
Q 2759 2772 2400 2772 
z
" transform="scale(0.015625)"/>
      <path id="DejaVuSans-Bold-65" d="M 4031 1759 
L 4031 1441 
L 1416 1441 
Q 1456 1047 1700 850 
Q 1944 653 2381 653 
Q 2734 653 3104 758 
Q 3475 863 3866 1075 
L 3866 213 
Q 3469 63 3072 -14 
Q 2675 -91 2278 -91 
Q 1328 -91 801 392 
Q 275 875 275 1747 
Q 275 2603 792 3093 
Q 1309 3584 2216 3584 
Q 3041 3584 3536 3087 
Q 4031 2591 4031 1759 
z
M 2881 2131 
Q 2881 2450 2695 2645 
Q 2509 2841 2209 2841 
Q 1884 2841 1681 2658 
Q 1478 2475 1428 2131 
L 2881 2131 
z
" transform="scale(0.015625)"/>
      <path id="DejaVuSans-Bold-4d" d="M 588 4666 
L 2119 4666 
L 3181 2169 
L 4250 4666 
L 5778 4666 
L 5778 0 
L 4641 0 
L 4641 3413 
L 3566 897 
L 2803 897 
L 1728 3413 
L 1728 0 
L 588 0 
L 588 4666 
z
" transform="scale(0.015625)"/>
      <path id="DejaVuSans-Bold-67" d="M 2919 594 
Q 2688 288 2409 144 
Q 2131 0 1766 0 
Q 1125 0 706 504 
Q 288 1009 288 1791 
Q 288 2575 706 3076 
Q 1125 3578 1766 3578 
Q 2131 3578 2409 3434 
Q 2688 3291 2919 2981 
L 2919 3500 
L 4044 3500 
L 4044 353 
Q 4044 -491 3511 -936 
Q 2978 -1381 1966 -1381 
Q 1638 -1381 1331 -1331 
Q 1025 -1281 716 -1178 
L 716 -306 
Q 1009 -475 1290 -558 
Q 1572 -641 1856 -641 
Q 2406 -641 2662 -400 
Q 2919 -159 2919 353 
L 2919 594 
z
M 2181 2772 
Q 1834 2772 1640 2515 
Q 1447 2259 1447 1791 
Q 1447 1309 1634 1061 
Q 1822 813 2181 813 
Q 2531 813 2725 1069 
Q 2919 1325 2919 1791 
Q 2919 2259 2725 2515 
Q 2531 2772 2181 2772 
z
" transform="scale(0.015625)"/>
     </defs>
     <use xlink:href="#DejaVuSans-Bold-48"/>
     <use xlink:href="#DejaVuSans-Bold-75" transform="translate(83.691406 0)"/>
     <use xlink:href="#DejaVuSans-Bold-6d" transform="translate(154.882812 0)"/>
     <use xlink:href="#DejaVuSans-Bold-61" transform="translate(259.082031 0)"/>
     <use xlink:href="#DejaVuSans-Bold-6e" transform="translate(326.5625 0)"/>
     <use xlink:href="#DejaVuSans-Bold-20" transform="translate(397.753906 0)"/>
     <use xlink:href="#DejaVuSans-Bold-56" transform="translate(432.568359 0)"/>
     <use xlink:href="#DejaVuSans-Bold-69" transform="translate(508.210938 0)"/>
     <use xlink:href="#DejaVuSans-Bold-73" transform="translate(542.488281 0)"/>
     <use xlink:href="#DejaVuSans-Bold-75" transform="translate(602.009766 0)"/>
     <use xlink:href="#DejaVuSans-Bold-61" transform="translate(673.201172 0)"/>
     <use xlink:href="#DejaVuSans-Bold-6c" transform="translate(740.681641 0)"/>
     <use xlink:href="#DejaVuSans-Bold-20" transform="translate(774.958984 0)"/>
     <use xlink:href="#DejaVuSans-Bold-50" transform="translate(809.773438 0)"/>
     <use xlink:href="#DejaVuSans-Bold-61" transform="translate(880.439453 0)"/>
     <use xlink:href="#DejaVuSans-Bold-74" transform="translate(947.919922 0)"/>
     <use xlink:href="#DejaVuSans-Bold-68" transform="translate(995.722656 0)"/>
     <use xlink:href="#DejaVuSans-Bold-77" transform="translate(1066.914062 0)"/>
     <use xlink:href="#DejaVuSans-Bold-61" transform="translate(1159.296875 0)"/>
     <use xlink:href="#DejaVuSans-Bold-79" transform="translate(1223.652344 0)"/>
     <use xlink:href="#DejaVuSans-Bold-20" transform="translate(1288.837891 0)"/>
     <use xlink:href="#DejaVuSans-Bold-76" transform="translate(1323.652344 0)"/>
     <use xlink:href="#DejaVuSans-Bold-73" transform="translate(1388.837891 0)"/>
     <use xlink:href="#DejaVuSans-Bold-2e" transform="translate(1448.359375 0)"/>
     <use xlink:href="#DejaVuSans-Bold-20" transform="translate(1486.347656 0)"/>
     <use xlink:href="#DejaVuSans-Bold-52" transform="translate(1521.162109 0)"/>
     <use xlink:href="#DejaVuSans-Bold-48" transform="translate(1598.164062 0)"/>
     <use xlink:href="#DejaVuSans-Bold-41" transform="translate(1681.855469 0)"/>
     <use xlink:href="#DejaVuSans-Bold-4e" transform="translate(1759.248047 0)"/>
     <use xlink:href="#DejaVuSans-Bold-20" transform="translate(1842.939453 0)"/>
     <use xlink:href="#DejaVuSans-Bold-43" transform="translate(1877.753906 0)"/>
     <use xlink:href="#DejaVuSans-Bold-6f" transform="translate(1951.142578 0)"/>
     <use xlink:href="#DejaVuSans-Bold-6d" transform="translate(2019.84375 0)"/>
     <use xlink:href="#DejaVuSans-Bold-70" transform="translate(2124.042969 0)"/>
     <use xlink:href="#DejaVuSans-Bold-6f" transform="translate(2195.625 0)"/>
     <use xlink:href="#DejaVuSans-Bold-6e" transform="translate(2264.326172 0)"/>
     <use xlink:href="#DejaVuSans-Bold-65" transform="translate(2335.517578 0)"/>
     <use xlink:href="#DejaVuSans-Bold-6e" transform="translate(2403.339844 0)"/>
     <use xlink:href="#DejaVuSans-Bold-74" transform="translate(2474.53125 0)"/>
     <use xlink:href="#DejaVuSans-Bold-20" transform="translate(2522.333984 0)"/>
     <use xlink:href="#DejaVuSans-Bold-4d" transform="translate(2557.148438 0)"/>
     <use xlink:href="#DejaVuSans-Bold-61" transform="translate(2656.660156 0)"/>
     <use xlink:href="#DejaVuSans-Bold-70" transform="translate(2724.140625 0)"/>
     <use xlink:href="#DejaVuSans-Bold-70" transform="translate(2795.722656 0)"/>
     <use xlink:href="#DejaVuSans-Bold-69" transform="translate(2867.304688 0)"/>
     <use xlink:href="#DejaVuSans-Bold-6e" transform="translate(2901.582031 0)"/>
     <use xlink:href="#DejaVuSans-Bold-67" transform="translate(2972.773438 0)"/>
    </g>
   </g>
   <g id="text_2">
    <!-- Human Pathway -->
    <g style="fill: #555555" transform="translate(131.659766 82.08) scale(0.11 -0.11)">
     <use xlink:href="#DejaVuSans-Bold-48"/>
     <use xlink:href="#DejaVuSans-Bold-75" transform="translate(83.691406 0)"/>
     <use xlink:href="#DejaVuSans-Bold-6d" transform="translate(154.882812 0)"/>
     <use xlink:href="#DejaVuSans-Bold-61" transform="translate(259.082031 0)"/>
     <use xlink:href="#DejaVuSans-Bold-6e" transform="translate(326.5625 0)"/>
     <use xlink:href="#DejaVuSans-Bold-20" transform="translate(397.753906 0)"/>
     <use xlink:href="#DejaVuSans-Bold-50" transform="translate(432.568359 0)"/>
     <use xlink:href="#DejaVuSans-Bold-61" transform="translate(503.234375 0)"/>
     <use xlink:href="#DejaVuSans-Bold-74" transform="translate(570.714844 0)"/>
     <use xlink:href="#DejaVuSans-Bold-68" transform="translate(618.517578 0)"/>
     <use xlink:href="#DejaVuSans-Bold-77" transform="translate(689.708984 0)"/>
     <use xlink:href="#DejaVuSans-Bold-61" transform="translate(782.091797 0)"/>
     <use xlink:href="#DejaVuSans-Bold-79" transform="translate(846.447266 0)"/>
    </g>
   </g>
   <g id="text_3">
    <!-- Retina / Photoreceptors -->
    <g style="fill: #111111" transform="translate(121.383984 131.363437) scale(0.09 -0.09)">
     <defs>
      <path id="DejaVuSans-Bold-2f" d="M 1644 4666 
L 2338 4666 
L 691 -594 
L 0 -594 
L 1644 4666 
z
" transform="scale(0.015625)"/>
      <path id="DejaVuSans-Bold-72" d="M 3138 2547 
Q 2991 2616 2845 2648 
Q 2700 2681 2553 2681 
Q 2122 2681 1889 2404 
Q 1656 2128 1656 1613 
L 1656 0 
L 538 0 
L 538 3500 
L 1656 3500 
L 1656 2925 
Q 1872 3269 2151 3426 
Q 2431 3584 2822 3584 
Q 2878 3584 2943 3579 
Q 3009 3575 3134 3559 
L 3138 2547 
z
" transform="scale(0.015625)"/>
      <path id="DejaVuSans-Bold-63" d="M 3366 3391 
L 3366 2478 
Q 3138 2634 2908 2709 
Q 2678 2784 2431 2784 
Q 1963 2784 1702 2511 
Q 1441 2238 1441 1747 
Q 1441 1256 1702 982 
Q 1963 709 2431 709 
Q 2694 709 2930 787 
Q 3166 866 3366 1019 
L 3366 103 
Q 3103 6 2833 -42 
Q 2563 -91 2291 -91 
Q 1344 -91 809 395 
Q 275 881 275 1747 
Q 275 2613 809 3098 
Q 1344 3584 2291 3584 
Q 2566 3584 2833 3536 
Q 3100 3488 3366 3391 
z
" transform="scale(0.015625)"/>
     </defs>
     <use xlink:href="#DejaVuSans-Bold-52"/>
     <use xlink:href="#DejaVuSans-Bold-65" transform="translate(77.001953 0)"/>
     <use xlink:href="#DejaVuSans-Bold-74" transform="translate(144.824219 0)"/>
     <use xlink:href="#DejaVuSans-Bold-69" transform="translate(192.626953 0)"/>
     <use xlink:href="#DejaVuSans-Bold-6e" transform="translate(226.904297 0)"/>
     <use xlink:href="#DejaVuSans-Bold-61" transform="translate(298.095703 0)"/>
     <use xlink:href="#DejaVuSans-Bold-20" transform="translate(365.576172 0)"/>
     <use xlink:href="#DejaVuSans-Bold-2f" transform="translate(400.390625 0)"/>
     <use xlink:href="#DejaVuSans-Bold-20" transform="translate(436.914062 0)"/>
     <use xlink:href="#DejaVuSans-Bold-50" transform="translate(471.728516 0)"/>
     <use xlink:href="#DejaVuSans-Bold-68" transform="translate(545.019531 0)"/>
     <use xlink:href="#DejaVuSans-Bold-6f" transform="translate(616.210938 0)"/>
     <use xlink:href="#DejaVuSans-Bold-74" transform="translate(684.912109 0)"/>
     <use xlink:href="#DejaVuSans-Bold-6f" transform="translate(732.714844 0)"/>
     <use xlink:href="#DejaVuSans-Bold-72" transform="translate(801.416016 0)"/>
     <use xlink:href="#DejaVuSans-Bold-65" transform="translate(850.732422 0)"/>
     <use xlink:href="#DejaVuSans-Bold-63" transform="translate(918.554688 0)"/>
     <use xlink:href="#DejaVuSans-Bold-65" transform="translate(977.832031 0)"/>
     <use xlink:href="#DejaVuSans-Bold-70" transform="translate(1045.654297 0)"/>
     <use xlink:href="#DejaVuSans-Bold-74" transform="translate(1117.236328 0)"/>
     <use xlink:href="#DejaVuSans-Bold-6f" transform="translate(1165.039062 0)"/>
     <use xlink:href="#DejaVuSans-Bold-72" transform="translate(1233.740234 0)"/>
     <use xlink:href="#DejaVuSans-Bold-73" transform="translate(1283.056641 0)"/>
    </g>
   </g>
   <g id="text_4">
    <!-- Image capture -->
    <g style="fill: #555555" transform="translate(154.426758 144.053531) scale(0.075 -0.075)">
     <defs>
      <path id="DejaVuSans-Oblique-49" d="M 1081 4666 
L 1716 4666 
L 806 0 
L 172 0 
L 1081 4666 
z
" transform="scale(0.015625)"/>
      <path id="DejaVuSans-Oblique-6d" d="M 5747 2113 
L 5338 0 
L 4763 0 
L 5166 2094 
Q 5191 2228 5203 2325 
Q 5216 2422 5216 2491 
Q 5216 2772 5059 2928 
Q 4903 3084 4622 3084 
Q 4203 3084 3875 2770 
Q 3547 2456 3450 1953 
L 3066 0 
L 2491 0 
L 2900 2094 
Q 2925 2209 2937 2307 
Q 2950 2406 2950 2484 
Q 2950 2769 2794 2926 
Q 2638 3084 2363 3084 
Q 1938 3084 1609 2770 
Q 1281 2456 1184 1953 
L 800 0 
L 225 0 
L 909 3500 
L 1484 3500 
L 1375 2956 
Q 1609 3263 1923 3423 
Q 2238 3584 2597 3584 
Q 2978 3584 3223 3384 
Q 3469 3184 3519 2828 
Q 3781 3197 4126 3390 
Q 4472 3584 4856 3584 
Q 5306 3584 5551 3325 
Q 5797 3066 5797 2591 
Q 5797 2488 5784 2364 
Q 5772 2241 5747 2113 
z
" transform="scale(0.015625)"/>
      <path id="DejaVuSans-Oblique-61" d="M 3438 1997 
L 3047 0 
L 2472 0 
L 2578 531 
Q 2325 219 2001 64 
Q 1678 -91 1281 -91 
Q 834 -91 548 182 
Q 263 456 263 884 
Q 263 1497 752 1853 
Q 1241 2209 2100 2209 
L 2900 2209 
L 2931 2363 
Q 2938 2388 2941 2417 
Q 2944 2447 2944 2509 
Q 2944 2788 2717 2942 
Q 2491 3097 2081 3097 
Q 1800 3097 1504 3025 
Q 1209 2953 897 2809 
L 997 3341 
Q 1322 3463 1633 3523 
Q 1944 3584 2234 3584 
Q 2853 3584 3176 3315 
Q 3500 3047 3500 2534 
Q 3500 2431 3484 2292 
Q 3469 2153 3438 1997 
z
M 2816 1759 
L 2241 1759 
Q 1534 1759 1195 1570 
Q 856 1381 856 984 
Q 856 709 1029 553 
Q 1203 397 1509 397 
Q 1978 397 2328 733 
Q 2678 1069 2791 1631 
L 2816 1759 
z
" transform="scale(0.015625)"/>
      <path id="DejaVuSans-Oblique-67" d="M 3816 3500 
L 3219 434 
Q 3047 -456 2561 -893 
Q 2075 -1331 1253 -1331 
Q 950 -1331 690 -1286 
Q 431 -1241 206 -1147 
L 313 -588 
Q 525 -725 762 -790 
Q 1000 -856 1269 -856 
Q 1816 -856 2167 -557 
Q 2519 -259 2631 300 
L 2681 563 
Q 2441 288 2122 144 
Q 1803 0 1434 0 
Q 903 0 598 351 
Q 294 703 294 1319 
Q 294 1803 478 2267 
Q 663 2731 997 3091 
Q 1219 3328 1514 3456 
Q 1809 3584 2131 3584 
Q 2484 3584 2746 3420 
Q 3009 3256 3138 2956 
L 3238 3500 
L 3816 3500 
z
M 2950 2216 
Q 2950 2641 2750 2872 
Q 2550 3103 2181 3103 
Q 1953 3103 1747 3012 
Q 1541 2922 1394 2759 
Q 1156 2491 1023 2127 
Q 891 1763 891 1375 
Q 891 944 1092 712 
Q 1294 481 1672 481 
Q 2219 481 2584 976 
Q 2950 1472 2950 2216 
z
" transform="scale(0.015625)"/>
      <path id="DejaVuSans-Oblique-65" d="M 3078 2063 
Q 3088 2113 3092 2166 
Q 3097 2219 3097 2272 
Q 3097 2653 2873 2875 
Q 2650 3097 2266 3097 
Q 1838 3097 1509 2826 
Q 1181 2556 1013 2059 
L 3078 2063 
z
M 3578 1613 
L 903 1613 
Q 884 1494 878 1425 
Q 872 1356 872 1306 
Q 872 872 1139 634 
Q 1406 397 1894 397 
Q 2269 397 2603 481 
Q 2938 566 3225 728 
L 3116 159 
Q 2806 34 2476 -28 
Q 2147 -91 1806 -91 
Q 1078 -91 686 257 
Q 294 606 294 1247 
Q 294 1794 489 2264 
Q 684 2734 1063 3103 
Q 1306 3334 1642 3459 
Q 1978 3584 2356 3584 
Q 2950 3584 3301 3228 
Q 3653 2872 3653 2272 
Q 3653 2128 3634 1964 
Q 3616 1800 3578 1613 
z
" transform="scale(0.015625)"/>
      <path id="DejaVuSans-Oblique-20" transform="scale(0.015625)"/>
      <path id="DejaVuSans-Oblique-63" d="M 3431 3366 
L 3316 2797 
Q 3109 2947 2876 3022 
Q 2644 3097 2394 3097 
Q 2119 3097 1870 3000 
Q 1622 2903 1453 2725 
Q 1184 2453 1037 2087 
Q 891 1722 891 1331 
Q 891 859 1127 628 
Q 1363 397 1844 397 
Q 2081 397 2348 469 
Q 2616 541 2906 684 
L 2797 116 
Q 2547 13 2283 -39 
Q 2019 -91 1741 -91 
Q 1044 -91 669 257 
Q 294 606 294 1253 
Q 294 1797 489 2255 
Q 684 2713 1069 3078 
Q 1331 3328 1684 3456 
Q 2038 3584 2456 3584 
Q 2700 3584 2940 3529 
Q 3181 3475 3431 3366 
z
" transform="scale(0.015625)"/>
      <path id="DejaVuSans-Oblique-70" d="M 3175 2156 
Q 3175 2616 2975 2859 
Q 2775 3103 2400 3103 
Q 2144 3103 1911 2972 
Q 1678 2841 1497 2591 
Q 1319 2344 1212 1994 
Q 1106 1644 1106 1300 
Q 1106 863 1306 627 
Q 1506 391 1875 391 
Q 2147 391 2380 519 
Q 2613 647 2778 891 
Q 2956 1147 3065 1494 
Q 3175 1841 3175 2156 
z
M 1394 2969 
Q 1625 3272 1939 3428 
Q 2253 3584 2638 3584 
Q 3175 3584 3472 3232 
Q 3769 2881 3769 2247 
Q 3769 1728 3584 1258 
Q 3400 788 3053 416 
Q 2822 169 2531 39 
Q 2241 -91 1919 -91 
Q 1547 -91 1294 64 
Q 1041 219 916 525 
L 556 -1331 
L -19 -1331 
L 922 3500 
L 1497 3500 
L 1394 2969 
z
" transform="scale(0.015625)"/>
      <path id="DejaVuSans-Oblique-74" d="M 2706 3500 
L 2619 3053 
L 1472 3053 
L 1100 1153 
Q 1081 1047 1072 975 
Q 1063 903 1063 863 
Q 1063 663 1183 572 
Q 1303 481 1569 481 
L 2150 481 
L 2053 0 
L 1503 0 
Q 991 0 739 200 
Q 488 400 488 806 
Q 488 878 497 964 
Q 506 1050 525 1153 
L 897 3053 
L 409 3053 
L 500 3500 
L 978 3500 
L 1172 4494 
L 1747 4494 
L 1556 3500 
L 2706 3500 
z
" transform="scale(0.015625)"/>
      <path id="DejaVuSans-Oblique-75" d="M 428 1388 
L 838 3500 
L 1416 3500 
L 1006 1409 
Q 975 1256 961 1147 
Q 947 1038 947 966 
Q 947 700 1109 554 
Q 1272 409 1569 409 
Q 2031 409 2368 721 
Q 2706 1034 2809 1563 
L 3194 3500 
L 3769 3500 
L 3091 0 
L 2516 0 
L 2631 550 
Q 2388 244 2052 76 
Q 1716 -91 1338 -91 
Q 878 -91 622 161 
Q 366 413 366 863 
Q 366 956 381 1097 
Q 397 1238 428 1388 
z
" transform="scale(0.015625)"/>
      <path id="DejaVuSans-Oblique-72" d="M 2853 2969 
Q 2766 3016 2653 3041 
Q 2541 3066 2413 3066 
Q 1953 3066 1609 2717 
Q 1266 2369 1153 1784 
L 800 0 
L 225 0 
L 909 3500 
L 1484 3500 
L 1375 2956 
Q 1603 3259 1920 3421 
Q 2238 3584 2597 3584 
Q 2691 3584 2781 3573 
Q 2872 3563 2963 3538 
L 2853 2969 
z
" transform="scale(0.015625)"/>
     </defs>
     <use xlink:href="#DejaVuSans-Oblique-49"/>
     <use xlink:href="#DejaVuSans-Oblique-6d" transform="translate(29.492188 0)"/>
     <use xlink:href="#DejaVuSans-Oblique-61" transform="translate(126.904297 0)"/>
     <use xlink:href="#DejaVuSans-Oblique-67" transform="translate(188.183594 0)"/>
     <use xlink:href="#DejaVuSans-Oblique-65" transform="translate(251.660156 0)"/>
     <use xlink:href="#DejaVuSans-Oblique-20" transform="translate(313.183594 0)"/>
     <use xlink:href="#DejaVuSans-Oblique-63" transform="translate(344.970703 0)"/>
     <use xlink:href="#DejaVuSans-Oblique-61" transform="translate(399.951172 0)"/>
     <use xlink:href="#DejaVuSans-Oblique-70" transform="translate(461.230469 0)"/>
     <use xlink:href="#DejaVuSans-Oblique-74" transform="translate(524.707031 0)"/>
     <use xlink:href="#DejaVuSans-Oblique-75" transform="translate(563.916016 0)"/>
     <use xlink:href="#DejaVuSans-Oblique-72" transform="translate(627.294922 0)"/>
     <use xlink:href="#DejaVuSans-Oblique-65" transform="translate(668.408203 0)"/>
    </g>
   </g>
   <g id="text_5">
    <!-- LGN / V1 V2 Cortex -->
    <g style="fill: #111111" transform="translate(133.616953 198.755437) scale(0.09 -0.09)">
     <defs>
      <path id="DejaVuSans-Bold-4c" d="M 588 4666 
L 1791 4666 
L 1791 909 
L 3903 909 
L 3903 0 
L 588 0 
L 588 4666 
z
" transform="scale(0.015625)"/>
      <path id="DejaVuSans-Bold-47" d="M 4781 347 
Q 4331 128 3847 18 
Q 3363 -91 2847 -91 
Q 1681 -91 1000 561 
Q 319 1213 319 2328 
Q 319 3456 1012 4103 
Q 1706 4750 2913 4750 
Q 3378 4750 3804 4662 
Q 4231 4575 4609 4403 
L 4609 3438 
Q 4219 3659 3833 3768 
Q 3447 3878 3059 3878 
Q 2341 3878 1952 3476 
Q 1563 3075 1563 2328 
Q 1563 1588 1938 1184 
Q 2313 781 3003 781 
Q 3191 781 3352 804 
Q 3513 828 3641 878 
L 3641 1784 
L 2906 1784 
L 2906 2591 
L 4781 2591 
L 4781 347 
z
" transform="scale(0.015625)"/>
      <path id="DejaVuSans-Bold-31" d="M 750 831 
L 1813 831 
L 1813 3847 
L 722 3622 
L 722 4441 
L 1806 4666 
L 2950 4666 
L 2950 831 
L 4013 831 
L 4013 0 
L 750 0 
L 750 831 
z
" transform="scale(0.015625)"/>
      <path id="DejaVuSans-Bold-32" d="M 1844 884 
L 3897 884 
L 3897 0 
L 506 0 
L 506 884 
L 2209 2388 
Q 2438 2594 2547 2791 
Q 2656 2988 2656 3200 
Q 2656 3528 2436 3728 
Q 2216 3928 1850 3928 
Q 1569 3928 1234 3808 
Q 900 3688 519 3450 
L 519 4475 
Q 925 4609 1322 4679 
Q 1719 4750 2100 4750 
Q 2938 4750 3402 4381 
Q 3866 4013 3866 3353 
Q 3866 2972 3669 2642 
Q 3472 2313 2841 1759 
L 1844 884 
z
" transform="scale(0.015625)"/>
      <path id="DejaVuSans-Bold-78" d="M 1422 1791 
L 159 3500 
L 1344 3500 
L 2059 2463 
L 2784 3500 
L 3969 3500 
L 2706 1797 
L 4031 0 
L 2847 0 
L 2059 1106 
L 1281 0 
L 97 0 
L 1422 1791 
z
" transform="scale(0.015625)"/>
     </defs>
     <use xlink:href="#DejaVuSans-Bold-4c"/>
     <use xlink:href="#DejaVuSans-Bold-47" transform="translate(63.720703 0)"/>
     <use xlink:href="#DejaVuSans-Bold-4e" transform="translate(145.800781 0)"/>
     <use xlink:href="#DejaVuSans-Bold-20" transform="translate(229.492188 0)"/>
     <use xlink:href="#DejaVuSans-Bold-2f" transform="translate(264.306641 0)"/>
     <use xlink:href="#DejaVuSans-Bold-20" transform="translate(300.830078 0)"/>
     <use xlink:href="#DejaVuSans-Bold-56" transform="translate(335.644531 0)"/>
     <use xlink:href="#DejaVuSans-Bold-31" transform="translate(413.037109 0)"/>
     <use xlink:href="#DejaVuSans-Bold-20" transform="translate(482.617188 0)"/>
     <use xlink:href="#DejaVuSans-Bold-56" transform="translate(517.431641 0)"/>
     <use xlink:href="#DejaVuSans-Bold-32" transform="translate(594.824219 0)"/>
     <use xlink:href="#DejaVuSans-Bold-20" transform="translate(664.404297 0)"/>
     <use xlink:href="#DejaVuSans-Bold-43" transform="translate(699.21875 0)"/>
     <use xlink:href="#DejaVuSans-Bold-6f" transform="translate(772.607422 0)"/>
     <use xlink:href="#DejaVuSans-Bold-72" transform="translate(841.308594 0)"/>
     <use xlink:href="#DejaVuSans-Bold-74" transform="translate(890.625 0)"/>
     <use xlink:href="#DejaVuSans-Bold-65" transform="translate(938.427734 0)"/>
     <use xlink:href="#DejaVuSans-Bold-78" transform="translate(1006.25 0)"/>
    </g>
   </g>
   <g id="text_6">
    <!-- Local frequency mapping -->
    <g style="fill: #555555" transform="translate(134.227734 211.445531) scale(0.075 -0.075)">
     <defs>
      <path id="DejaVuSans-Oblique-4c" d="M 1075 4666 
L 1709 4666 
L 909 525 
L 3181 525 
L 3078 0 
L 172 0 
L 1075 4666 
z
" transform="scale(0.015625)"/>
      <path id="DejaVuSans-Oblique-6f" d="M 1625 -91 
Q 1009 -91 651 289 
Q 294 669 294 1325 
Q 294 1706 417 2101 
Q 541 2497 738 2766 
Q 1047 3184 1428 3384 
Q 1809 3584 2291 3584 
Q 2888 3584 3255 3212 
Q 3622 2841 3622 2241 
Q 3622 1825 3500 1412 
Q 3378 1000 3181 728 
Q 2875 309 2494 109 
Q 2113 -91 1625 -91 
z
M 891 1344 
Q 891 869 1089 633 
Q 1288 397 1691 397 
Q 2269 397 2648 901 
Q 3028 1406 3028 2181 
Q 3028 2634 2825 2865 
Q 2622 3097 2228 3097 
Q 1903 3097 1650 2945 
Q 1397 2794 1197 2484 
Q 1050 2253 970 1956 
Q 891 1659 891 1344 
z
" transform="scale(0.015625)"/>
      <path id="DejaVuSans-Oblique-6c" d="M 1172 4863 
L 1747 4863 
L 800 0 
L 225 0 
L 1172 4863 
z
" transform="scale(0.015625)"/>
      <path id="DejaVuSans-Oblique-66" d="M 3059 4863 
L 2969 4384 
L 2419 4384 
Q 2106 4384 1964 4261 
Q 1822 4138 1753 3809 
L 1691 3500 
L 2638 3500 
L 2553 3053 
L 1606 3053 
L 1013 0 
L 434 0 
L 1031 3053 
L 481 3053 
L 563 3500 
L 1113 3500 
L 1159 3744 
Q 1278 4363 1576 4613 
Q 1875 4863 2516 4863 
L 3059 4863 
z
" transform="scale(0.015625)"/>
      <path id="DejaVuSans-Oblique-71" d="M 2669 525 
Q 2438 222 2123 65 
Q 1809 -91 1428 -91 
Q 897 -91 595 267 
Q 294 625 294 1253 
Q 294 1759 480 2231 
Q 666 2703 1013 3078 
Q 1238 3322 1530 3453 
Q 1822 3584 2144 3584 
Q 2531 3584 2781 3431 
Q 3031 3278 3144 2969 
L 3244 3494 
L 3822 3494 
L 2888 -1319 
L 2309 -1319 
L 2669 525 
z
M 891 1338 
Q 891 875 1084 633 
Q 1278 391 1644 391 
Q 2188 391 2572 911 
Q 2956 1431 2956 2175 
Q 2956 2625 2757 2864 
Q 2559 3103 2188 3103 
Q 1916 3103 1684 2976 
Q 1453 2850 1281 2606 
Q 1100 2350 995 2006 
Q 891 1663 891 1338 
z
" transform="scale(0.015625)"/>
      <path id="DejaVuSans-Oblique-6e" d="M 3566 2113 
L 3156 0 
L 2578 0 
L 2988 2091 
Q 3016 2238 3031 2350 
Q 3047 2463 3047 2528 
Q 3047 2791 2881 2937 
Q 2716 3084 2419 3084 
Q 1956 3084 1622 2776 
Q 1288 2469 1184 1941 
L 800 0 
L 225 0 
L 903 3500 
L 1478 3500 
L 1363 2950 
Q 1603 3253 1940 3418 
Q 2278 3584 2650 3584 
Q 3113 3584 3367 3334 
Q 3622 3084 3622 2631 
Q 3622 2519 3608 2391 
Q 3594 2263 3566 2113 
z
" transform="scale(0.015625)"/>
      <path id="DejaVuSans-Oblique-79" d="M 1588 -325 
Q 1188 -997 936 -1164 
Q 684 -1331 294 -1331 
L -159 -1331 
L -63 -850 
L 269 -850 
Q 509 -850 678 -719 
Q 847 -588 1056 -206 
L 1234 128 
L 459 3500 
L 1069 3500 
L 1650 819 
L 3256 3500 
L 3859 3500 
L 1588 -325 
z
" transform="scale(0.015625)"/>
      <path id="DejaVuSans-Oblique-69" d="M 1172 4863 
L 1747 4863 
L 1606 4134 
L 1031 4134 
L 1172 4863 
z
M 909 3500 
L 1484 3500 
L 800 0 
L 225 0 
L 909 3500 
z
" transform="scale(0.015625)"/>
     </defs>
     <use xlink:href="#DejaVuSans-Oblique-4c"/>
     <use xlink:href="#DejaVuSans-Oblique-6f" transform="translate(55.712891 0)"/>
     <use xlink:href="#DejaVuSans-Oblique-63" transform="translate(116.894531 0)"/>
     <use xlink:href="#DejaVuSans-Oblique-61" transform="translate(171.875 0)"/>
     <use xlink:href="#DejaVuSans-Oblique-6c" transform="translate(233.154297 0)"/>
     <use xlink:href="#DejaVuSans-Oblique-20" transform="translate(260.9375 0)"/>
     <use xlink:href="#DejaVuSans-Oblique-66" transform="translate(292.724609 0)"/>
     <use xlink:href="#DejaVuSans-Oblique-72" transform="translate(327.929688 0)"/>
     <use xlink:href="#DejaVuSans-Oblique-65" transform="translate(369.042969 0)"/>
     <use xlink:href="#DejaVuSans-Oblique-71" transform="translate(430.566406 0)"/>
     <use xlink:href="#DejaVuSans-Oblique-75" transform="translate(494.042969 0)"/>
     <use xlink:href="#DejaVuSans-Oblique-65" transform="translate(557.421875 0)"/>
     <use xlink:href="#DejaVuSans-Oblique-6e" transform="translate(618.945312 0)"/>
     <use xlink:href="#DejaVuSans-Oblique-63" transform="translate(682.324219 0)"/>
     <use xlink:href="#DejaVuSans-Oblique-79" transform="translate(737.304688 0)"/>
     <use xlink:href="#DejaVuSans-Oblique-20" transform="translate(796.484375 0)"/>
     <use xlink:href="#DejaVuSans-Oblique-6d" transform="translate(828.271484 0)"/>
     <use xlink:href="#DejaVuSans-Oblique-61" transform="translate(925.683594 0)"/>
     <use xlink:href="#DejaVuSans-Oblique-70" transform="translate(986.962891 0)"/>
     <use xlink:href="#DejaVuSans-Oblique-70" transform="translate(1050.439453 0)"/>
     <use xlink:href="#DejaVuSans-Oblique-69" transform="translate(1113.916016 0)"/>
     <use xlink:href="#DejaVuSans-Oblique-6e" transform="translate(1141.699219 0)"/>
     <use xlink:href="#DejaVuSans-Oblique-67" transform="translate(1205.078125 0)"/>
    </g>
   </g>
   <g id="text_7">
    <!-- Ventral &amp; Dorsal Streams -->
    <g style="fill: #111111" transform="translate(117.364922 266.147437) scale(0.09 -0.09)">
     <defs>
      <path id="DejaVuSans-Bold-26" d="M 2497 3097 
L 3775 1691 
Q 3941 1909 4027 2181 
Q 4113 2453 4128 2797 
L 5100 2797 
Q 5053 2228 4879 1784 
Q 4706 1341 4397 1006 
L 5313 0 
L 3988 0 
L 3681 341 
Q 3353 122 2990 15 
Q 2628 -91 2222 -91 
Q 1400 -91 892 342 
Q 384 775 384 1459 
Q 384 1916 607 2267 
Q 831 2619 1338 2950 
Q 1206 3116 1143 3281 
Q 1081 3447 1081 3628 
Q 1081 4138 1478 4444 
Q 1875 4750 2534 4750 
Q 2819 4750 3126 4704 
Q 3434 4659 3769 4569 
L 3769 3700 
Q 3475 3850 3212 3922 
Q 2950 3994 2700 3994 
Q 2459 3994 2326 3901 
Q 2194 3809 2194 3641 
Q 2194 3534 2270 3398 
Q 2347 3263 2497 3097 
z
M 1875 2322 
Q 1672 2175 1569 1989 
Q 1466 1803 1466 1581 
Q 1466 1222 1731 969 
Q 1997 716 2369 716 
Q 2578 716 2759 780 
Q 2941 844 3097 972 
L 1875 2322 
z
" transform="scale(0.015625)"/>
      <path id="DejaVuSans-Bold-44" d="M 1791 3756 
L 1791 909 
L 2222 909 
Q 2959 909 3348 1275 
Q 3738 1641 3738 2338 
Q 3738 3031 3350 3393 
Q 2963 3756 2222 3756 
L 1791 3756 
z
M 588 4666 
L 1856 4666 
Q 2919 4666 3439 4514 
Q 3959 4363 4331 4000 
Q 4659 3684 4818 3271 
Q 4978 2859 4978 2338 
Q 4978 1809 4818 1395 
Q 4659 981 4331 666 
Q 3956 303 3431 151 
Q 2906 0 1856 0 
L 588 0 
L 588 4666 
z
" transform="scale(0.015625)"/>
      <path id="DejaVuSans-Bold-53" d="M 3834 4519 
L 3834 3531 
Q 3450 3703 3084 3790 
Q 2719 3878 2394 3878 
Q 1963 3878 1756 3759 
Q 1550 3641 1550 3391 
Q 1550 3203 1689 3098 
Q 1828 2994 2194 2919 
L 2706 2816 
Q 3484 2659 3812 2340 
Q 4141 2022 4141 1434 
Q 4141 663 3683 286 
Q 3225 -91 2284 -91 
Q 1841 -91 1394 -6 
Q 947 78 500 244 
L 500 1259 
Q 947 1022 1364 901 
Q 1781 781 2169 781 
Q 2563 781 2772 912 
Q 2981 1044 2981 1288 
Q 2981 1506 2839 1625 
Q 2697 1744 2272 1838 
L 1806 1941 
Q 1106 2091 782 2419 
Q 459 2747 459 3303 
Q 459 4000 909 4375 
Q 1359 4750 2203 4750 
Q 2588 4750 2994 4692 
Q 3400 4634 3834 4519 
z
" transform="scale(0.015625)"/>
     </defs>
     <use xlink:href="#DejaVuSans-Bold-56"/>
     <use xlink:href="#DejaVuSans-Bold-65" transform="translate(71.892578 0)"/>
     <use xlink:href="#DejaVuSans-Bold-6e" transform="translate(139.714844 0)"/>
     <use xlink:href="#DejaVuSans-Bold-74" transform="translate(210.90625 0)"/>
     <use xlink:href="#DejaVuSans-Bold-72" transform="translate(258.708984 0)"/>
     <use xlink:href="#DejaVuSans-Bold-61" transform="translate(308.025391 0)"/>
     <use xlink:href="#DejaVuSans-Bold-6c" transform="translate(375.505859 0)"/>
     <use xlink:href="#DejaVuSans-Bold-20" transform="translate(409.783203 0)"/>
     <use xlink:href="#DejaVuSans-Bold-26" transform="translate(444.597656 0)"/>
     <use xlink:href="#DejaVuSans-Bold-20" transform="translate(531.804688 0)"/>
     <use xlink:href="#DejaVuSans-Bold-44" transform="translate(566.619141 0)"/>
     <use xlink:href="#DejaVuSans-Bold-6f" transform="translate(649.626953 0)"/>
     <use xlink:href="#DejaVuSans-Bold-72" transform="translate(718.328125 0)"/>
     <use xlink:href="#DejaVuSans-Bold-73" transform="translate(767.644531 0)"/>
     <use xlink:href="#DejaVuSans-Bold-61" transform="translate(827.166016 0)"/>
     <use xlink:href="#DejaVuSans-Bold-6c" transform="translate(894.646484 0)"/>
     <use xlink:href="#DejaVuSans-Bold-20" transform="translate(928.923828 0)"/>
     <use xlink:href="#DejaVuSans-Bold-53" transform="translate(963.738281 0)"/>
     <use xlink:href="#DejaVuSans-Bold-74" transform="translate(1035.759766 0)"/>
     <use xlink:href="#DejaVuSans-Bold-72" transform="translate(1083.5625 0)"/>
     <use xlink:href="#DejaVuSans-Bold-65" transform="translate(1132.878906 0)"/>
     <use xlink:href="#DejaVuSans-Bold-61" transform="translate(1200.701172 0)"/>
     <use xlink:href="#DejaVuSans-Bold-6d" transform="translate(1268.181641 0)"/>
     <use xlink:href="#DejaVuSans-Bold-73" transform="translate(1372.380859 0)"/>
    </g>
   </g>
   <g id="text_8">
    <!-- What &amp; Where extraction -->
    <g style="fill: #555555" transform="translate(134.125195 278.837531) scale(0.075 -0.075)">
     <defs>
      <path id="DejaVuSans-Oblique-57" d="M 616 4666 
L 1228 4666 
L 1453 697 
L 3213 4666 
L 3916 4666 
L 4147 697 
L 5888 4666 
L 6528 4666 
L 4453 0 
L 3659 0 
L 3444 3891 
L 1697 0 
L 903 0 
L 616 4666 
z
" transform="scale(0.015625)"/>
      <path id="DejaVuSans-Oblique-68" d="M 3566 2113 
L 3156 0 
L 2578 0 
L 2988 2091 
Q 3016 2238 3031 2350 
Q 3047 2463 3047 2528 
Q 3047 2791 2881 2937 
Q 2716 3084 2419 3084 
Q 1956 3084 1617 2771 
Q 1278 2459 1178 1941 
L 800 0 
L 225 0 
L 1172 4863 
L 1747 4863 
L 1375 2950 
Q 1594 3244 1934 3414 
Q 2275 3584 2650 3584 
Q 3113 3584 3367 3334 
Q 3622 3084 3622 2631 
Q 3622 2519 3608 2391 
Q 3594 2263 3566 2113 
z
" transform="scale(0.015625)"/>
      <path id="DejaVuSans-Oblique-26" d="M 3022 813 
L 1691 2509 
Q 1313 2234 1117 1925 
Q 922 1616 922 1294 
Q 922 897 1189 656 
Q 1456 416 1900 416 
Q 2194 416 2480 517 
Q 2766 619 3022 813 
z
M 4709 2503 
Q 4569 2006 4339 1593 
Q 4109 1181 3788 844 
L 4441 0 
L 3653 0 
L 3322 434 
Q 2991 175 2609 42 
Q 2228 -91 1813 -91 
Q 1122 -91 711 250 
Q 300 591 300 1153 
Q 300 1634 589 2062 
Q 878 2491 1447 2853 
Q 1350 2997 1304 3145 
Q 1259 3294 1259 3463 
Q 1259 3675 1331 3865 
Q 1403 4056 1538 4213 
Q 1753 4469 2078 4609 
Q 2403 4750 2778 4750 
Q 3022 4750 3269 4694 
Q 3516 4638 3769 4525 
L 3659 3956 
Q 3425 4103 3192 4179 
Q 2959 4256 2741 4256 
Q 2353 4256 2111 4054 
Q 1869 3853 1869 3541 
Q 1869 3403 1928 3268 
Q 1988 3134 2203 2859 
L 3475 1234 
Q 3709 1481 3875 1801 
Q 4041 2122 4128 2503 
L 4709 2503 
z
" transform="scale(0.015625)"/>
      <path id="DejaVuSans-Oblique-78" d="M 3841 3500 
L 2234 1784 
L 3219 0 
L 2559 0 
L 1819 1388 
L 531 0 
L -166 0 
L 1556 1844 
L 641 3500 
L 1300 3500 
L 1972 2234 
L 3144 3500 
L 3841 3500 
z
" transform="scale(0.015625)"/>
     </defs>
     <use xlink:href="#DejaVuSans-Oblique-57"/>
     <use xlink:href="#DejaVuSans-Oblique-68" transform="translate(98.876953 0)"/>
     <use xlink:href="#DejaVuSans-Oblique-61" transform="translate(162.255859 0)"/>
     <use xlink:href="#DejaVuSans-Oblique-74" transform="translate(223.535156 0)"/>
     <use xlink:href="#DejaVuSans-Oblique-20" transform="translate(262.744141 0)"/>
     <use xlink:href="#DejaVuSans-Oblique-26" transform="translate(294.53125 0)"/>
     <use xlink:href="#DejaVuSans-Oblique-20" transform="translate(372.509766 0)"/>
     <use xlink:href="#DejaVuSans-Oblique-57" transform="translate(404.296875 0)"/>
     <use xlink:href="#DejaVuSans-Oblique-68" transform="translate(503.173828 0)"/>
     <use xlink:href="#DejaVuSans-Oblique-65" transform="translate(566.552734 0)"/>
     <use xlink:href="#DejaVuSans-Oblique-72" transform="translate(628.076172 0)"/>
     <use xlink:href="#DejaVuSans-Oblique-65" transform="translate(669.189453 0)"/>
     <use xlink:href="#DejaVuSans-Oblique-20" transform="translate(730.712891 0)"/>
     <use xlink:href="#DejaVuSans-Oblique-65" transform="translate(762.5 0)"/>
     <use xlink:href="#DejaVuSans-Oblique-78" transform="translate(824.023438 0)"/>
     <use xlink:href="#DejaVuSans-Oblique-74" transform="translate(883.203125 0)"/>
     <use xlink:href="#DejaVuSans-Oblique-72" transform="translate(922.412109 0)"/>
     <use xlink:href="#DejaVuSans-Oblique-61" transform="translate(963.525391 0)"/>
     <use xlink:href="#DejaVuSans-Oblique-63" transform="translate(1024.804688 0)"/>
     <use xlink:href="#DejaVuSans-Oblique-74" transform="translate(1079.785156 0)"/>
     <use xlink:href="#DejaVuSans-Oblique-69" transform="translate(1118.994141 0)"/>
     <use xlink:href="#DejaVuSans-Oblique-6f" transform="translate(1146.777344 0)"/>
     <use xlink:href="#DejaVuSans-Oblique-6e" transform="translate(1207.958984 0)"/>
    </g>
   </g>
   <g id="text_9">
    <!-- Synaptic Feedback Loops -->
    <g style="fill: #111111" transform="translate(117.582891 333.504281) scale(0.09 -0.09)">
     <defs>
      <path id="DejaVuSans-Bold-46" d="M 588 4666 
L 3834 4666 
L 3834 3756 
L 1791 3756 
L 1791 2888 
L 3713 2888 
L 3713 1978 
L 1791 1978 
L 1791 0 
L 588 0 
L 588 4666 
z
" transform="scale(0.015625)"/>
      <path id="DejaVuSans-Bold-64" d="M 2919 2988 
L 2919 4863 
L 4044 4863 
L 4044 0 
L 2919 0 
L 2919 506 
Q 2688 197 2409 53 
Q 2131 -91 1766 -91 
Q 1119 -91 703 423 
Q 288 938 288 1747 
Q 288 2556 703 3070 
Q 1119 3584 1766 3584 
Q 2128 3584 2408 3439 
Q 2688 3294 2919 2988 
z
M 2181 722 
Q 2541 722 2730 984 
Q 2919 1247 2919 1747 
Q 2919 2247 2730 2509 
Q 2541 2772 2181 2772 
Q 1825 2772 1636 2509 
Q 1447 2247 1447 1747 
Q 1447 1247 1636 984 
Q 1825 722 2181 722 
z
" transform="scale(0.015625)"/>
      <path id="DejaVuSans-Bold-62" d="M 2400 722 
Q 2759 722 2948 984 
Q 3138 1247 3138 1747 
Q 3138 2247 2948 2509 
Q 2759 2772 2400 2772 
Q 2041 2772 1848 2508 
Q 1656 2244 1656 1747 
Q 1656 1250 1848 986 
Q 2041 722 2400 722 
z
M 1656 2988 
Q 1888 3294 2169 3439 
Q 2450 3584 2816 3584 
Q 3463 3584 3878 3070 
Q 4294 2556 4294 1747 
Q 4294 938 3878 423 
Q 3463 -91 2816 -91 
Q 2450 -91 2169 54 
Q 1888 200 1656 506 
L 1656 0 
L 538 0 
L 538 4863 
L 1656 4863 
L 1656 2988 
z
" transform="scale(0.015625)"/>
      <path id="DejaVuSans-Bold-6b" d="M 538 4863 
L 1656 4863 
L 1656 2216 
L 2944 3500 
L 4244 3500 
L 2534 1894 
L 4378 0 
L 3022 0 
L 1656 1459 
L 1656 0 
L 538 0 
L 538 4863 
z
" transform="scale(0.015625)"/>
     </defs>
     <use xlink:href="#DejaVuSans-Bold-53"/>
     <use xlink:href="#DejaVuSans-Bold-79" transform="translate(72.021484 0)"/>
     <use xlink:href="#DejaVuSans-Bold-6e" transform="translate(137.207031 0)"/>
     <use xlink:href="#DejaVuSans-Bold-61" transform="translate(208.398438 0)"/>
     <use xlink:href="#DejaVuSans-Bold-70" transform="translate(275.878906 0)"/>
     <use xlink:href="#DejaVuSans-Bold-74" transform="translate(347.460938 0)"/>
     <use xlink:href="#DejaVuSans-Bold-69" transform="translate(395.263672 0)"/>
     <use xlink:href="#DejaVuSans-Bold-63" transform="translate(429.541016 0)"/>
     <use xlink:href="#DejaVuSans-Bold-20" transform="translate(488.818359 0)"/>
     <use xlink:href="#DejaVuSans-Bold-46" transform="translate(523.632812 0)"/>
     <use xlink:href="#DejaVuSans-Bold-65" transform="translate(587.943359 0)"/>
     <use xlink:href="#DejaVuSans-Bold-65" transform="translate(655.765625 0)"/>
     <use xlink:href="#DejaVuSans-Bold-64" transform="translate(723.587891 0)"/>
     <use xlink:href="#DejaVuSans-Bold-62" transform="translate(795.169922 0)"/>
     <use xlink:href="#DejaVuSans-Bold-61" transform="translate(866.751953 0)"/>
     <use xlink:href="#DejaVuSans-Bold-63" transform="translate(934.232422 0)"/>
     <use xlink:href="#DejaVuSans-Bold-6b" transform="translate(993.509766 0)"/>
     <use xlink:href="#DejaVuSans-Bold-20" transform="translate(1060.013672 0)"/>
     <use xlink:href="#DejaVuSans-Bold-4c" transform="translate(1094.828125 0)"/>
     <use xlink:href="#DejaVuSans-Bold-6f" transform="translate(1158.548828 0)"/>
     <use xlink:href="#DejaVuSans-Bold-6f" transform="translate(1227.25 0)"/>
     <use xlink:href="#DejaVuSans-Bold-70" transform="translate(1295.951172 0)"/>
     <use xlink:href="#DejaVuSans-Bold-73" transform="translate(1367.533203 0)"/>
    </g>
   </g>
   <g id="text_10">
    <!-- Active predictive coding -->
    <g style="fill: #555555" transform="translate(136.461328 346.229531) scale(0.075 -0.075)">
     <defs>
      <path id="DejaVuSans-Oblique-41" d="M 2356 4666 
L 3072 4666 
L 3938 0 
L 3278 0 
L 3084 1197 
L 984 1197 
L 325 0 
L -341 0 
L 2356 4666 
z
M 2584 4044 
L 1275 1722 
L 2988 1722 
L 2584 4044 
z
" transform="scale(0.015625)"/>
      <path id="DejaVuSans-Oblique-76" d="M 459 3500 
L 1069 3500 
L 1581 525 
L 3256 3500 
L 3866 3500 
L 1875 0 
L 1100 0 
L 459 3500 
z
" transform="scale(0.015625)"/>
      <path id="DejaVuSans-Oblique-64" d="M 2675 525 
Q 2444 222 2128 65 
Q 1813 -91 1428 -91 
Q 903 -91 598 267 
Q 294 625 294 1247 
Q 294 1766 478 2236 
Q 663 2706 1013 3078 
Q 1244 3325 1534 3454 
Q 1825 3584 2144 3584 
Q 2481 3584 2739 3421 
Q 2997 3259 3138 2956 
L 3513 4863 
L 4091 4863 
L 3144 0 
L 2566 0 
L 2675 525 
z
M 891 1350 
Q 891 897 1095 644 
Q 1300 391 1663 391 
Q 1931 391 2161 520 
Q 2391 650 2566 903 
Q 2750 1166 2856 1509 
Q 2963 1853 2963 2188 
Q 2963 2622 2758 2865 
Q 2553 3109 2194 3109 
Q 1922 3109 1687 2981 
Q 1453 2853 1288 2613 
Q 1106 2353 998 2009 
Q 891 1666 891 1350 
z
" transform="scale(0.015625)"/>
     </defs>
     <use xlink:href="#DejaVuSans-Oblique-41"/>
     <use xlink:href="#DejaVuSans-Oblique-63" transform="translate(68.408203 0)"/>
     <use xlink:href="#DejaVuSans-Oblique-74" transform="translate(123.388672 0)"/>
     <use xlink:href="#DejaVuSans-Oblique-69" transform="translate(162.597656 0)"/>
     <use xlink:href="#DejaVuSans-Oblique-76" transform="translate(190.380859 0)"/>
     <use xlink:href="#DejaVuSans-Oblique-65" transform="translate(249.560547 0)"/>
     <use xlink:href="#DejaVuSans-Oblique-20" transform="translate(311.083984 0)"/>
     <use xlink:href="#DejaVuSans-Oblique-70" transform="translate(342.871094 0)"/>
     <use xlink:href="#DejaVuSans-Oblique-72" transform="translate(406.347656 0)"/>
     <use xlink:href="#DejaVuSans-Oblique-65" transform="translate(447.460938 0)"/>
     <use xlink:href="#DejaVuSans-Oblique-64" transform="translate(508.984375 0)"/>
     <use xlink:href="#DejaVuSans-Oblique-69" transform="translate(572.460938 0)"/>
     <use xlink:href="#DejaVuSans-Oblique-63" transform="translate(600.244141 0)"/>
     <use xlink:href="#DejaVuSans-Oblique-74" transform="translate(655.224609 0)"/>
     <use xlink:href="#DejaVuSans-Oblique-69" transform="translate(694.433594 0)"/>
     <use xlink:href="#DejaVuSans-Oblique-76" transform="translate(722.216797 0)"/>
     <use xlink:href="#DejaVuSans-Oblique-65" transform="translate(781.396484 0)"/>
     <use xlink:href="#DejaVuSans-Oblique-20" transform="translate(842.919922 0)"/>
     <use xlink:href="#DejaVuSans-Oblique-63" transform="translate(874.707031 0)"/>
     <use xlink:href="#DejaVuSans-Oblique-6f" transform="translate(929.6875 0)"/>
     <use xlink:href="#DejaVuSans-Oblique-64" transform="translate(990.869141 0)"/>
     <use xlink:href="#DejaVuSans-Oblique-69" transform="translate(1054.345703 0)"/>
     <use xlink:href="#DejaVuSans-Oblique-6e" transform="translate(1082.128906 0)"/>
     <use xlink:href="#DejaVuSans-Oblique-67" transform="translate(1145.507812 0)"/>
    </g>
   </g>
   <g id="patch_10">
    <path d="M 181.8 155.215969 
Q 181.8 168.190529 181.8 179.488039 
" style="fill: none; stroke: #1f77b4; stroke-width: 1.5; stroke-linecap: round"/>
    <path d="M 184.2 174.688039 
L 181.8 179.488039 
L 179.4 174.688039 
z
" style="fill: #1f77b4; stroke: #1f77b4; stroke-width: 1.5; stroke-linecap: round"/>
   </g>
   <g id="patch_11">
    <path d="M 181.8 222.607969 
Q 181.8 235.582529 181.8 246.880039 
" style="fill: none; stroke: #1f77b4; stroke-width: 1.5; stroke-linecap: round"/>
    <path d="M 184.2 242.080039 
L 181.8 246.880039 
L 179.4 242.080039 
z
" style="fill: #1f77b4; stroke: #1f77b4; stroke-width: 1.5; stroke-linecap: round"/>
   </g>
   <g id="patch_12">
    <path d="M 181.8 289.999969 
Q 181.8 302.974529 181.8 314.272039 
" style="fill: none; stroke: #1f77b4; stroke-width: 1.5; stroke-linecap: round"/>
    <path d="M 184.2 309.472039 
L 181.8 314.272039 
L 179.4 309.472039 
z
" style="fill: #1f77b4; stroke: #1f77b4; stroke-width: 1.5; stroke-linecap: round"/>
   </g>
   <g id="text_11">
    <!-- RHAN Model Mapping -->
    <g style="fill: #555555" transform="translate(463.8725 82.08) scale(0.11 -0.11)">
     <use xlink:href="#DejaVuSans-Bold-52"/>
     <use xlink:href="#DejaVuSans-Bold-48" transform="translate(77.001953 0)"/>
     <use xlink:href="#DejaVuSans-Bold-41" transform="translate(160.693359 0)"/>
     <use xlink:href="#DejaVuSans-Bold-4e" transform="translate(238.085938 0)"/>
     <use xlink:href="#DejaVuSans-Bold-20" transform="translate(321.777344 0)"/>
     <use xlink:href="#DejaVuSans-Bold-4d" transform="translate(356.591797 0)"/>
     <use xlink:href="#DejaVuSans-Bold-6f" transform="translate(456.103516 0)"/>
     <use xlink:href="#DejaVuSans-Bold-64" transform="translate(524.804688 0)"/>
     <use xlink:href="#DejaVuSans-Bold-65" transform="translate(596.386719 0)"/>
     <use xlink:href="#DejaVuSans-Bold-6c" transform="translate(664.208984 0)"/>
     <use xlink:href="#DejaVuSans-Bold-20" transform="translate(698.486328 0)"/>
     <use xlink:href="#DejaVuSans-Bold-4d" transform="translate(733.300781 0)"/>
     <use xlink:href="#DejaVuSans-Bold-61" transform="translate(832.8125 0)"/>
     <use xlink:href="#DejaVuSans-Bold-70" transform="translate(900.292969 0)"/>
     <use xlink:href="#DejaVuSans-Bold-70" transform="translate(971.875 0)"/>
     <use xlink:href="#DejaVuSans-Bold-69" transform="translate(1043.457031 0)"/>
     <use xlink:href="#DejaVuSans-Bold-6e" transform="translate(1077.734375 0)"/>
     <use xlink:href="#DejaVuSans-Bold-67" transform="translate(1148.925781 0)"/>
    </g>
   </g>
   <g id="text_12">
    <!-- Input Tensors -->
    <g style="fill: #111111" transform="translate(496.584141 131.363437) scale(0.09 -0.09)">
     <defs>
      <path id="DejaVuSans-Bold-49" d="M 588 4666 
L 1791 4666 
L 1791 0 
L 588 0 
L 588 4666 
z
" transform="scale(0.015625)"/>
      <path id="DejaVuSans-Bold-54" d="M 31 4666 
L 4331 4666 
L 4331 3756 
L 2784 3756 
L 2784 0 
L 1581 0 
L 1581 3756 
L 31 3756 
L 31 4666 
z
" transform="scale(0.015625)"/>
     </defs>
     <use xlink:href="#DejaVuSans-Bold-49"/>
     <use xlink:href="#DejaVuSans-Bold-6e" transform="translate(37.207031 0)"/>
     <use xlink:href="#DejaVuSans-Bold-70" transform="translate(108.398438 0)"/>
     <use xlink:href="#DejaVuSans-Bold-75" transform="translate(179.980469 0)"/>
     <use xlink:href="#DejaVuSans-Bold-74" transform="translate(251.171875 0)"/>
     <use xlink:href="#DejaVuSans-Bold-20" transform="translate(298.974609 0)"/>
     <use xlink:href="#DejaVuSans-Bold-54" transform="translate(333.789062 0)"/>
     <use xlink:href="#DejaVuSans-Bold-65" transform="translate(388.751953 0)"/>
     <use xlink:href="#DejaVuSans-Bold-6e" transform="translate(456.574219 0)"/>
     <use xlink:href="#DejaVuSans-Bold-73" transform="translate(527.765625 0)"/>
     <use xlink:href="#DejaVuSans-Bold-6f" transform="translate(587.287109 0)"/>
     <use xlink:href="#DejaVuSans-Bold-72" transform="translate(655.988281 0)"/>
     <use xlink:href="#DejaVuSans-Bold-73" transform="translate(705.304688 0)"/>
    </g>
   </g>
   <g id="text_13">
    <!-- Image matrices -->
    <g style="fill: #555555" transform="translate(501.735938 144.053531) scale(0.075 -0.075)">
     <defs>
      <path id="DejaVuSans-Oblique-73" d="M 3200 3397 
L 3091 2853 
Q 2863 2978 2609 3040 
Q 2356 3103 2088 3103 
Q 1634 3103 1373 2948 
Q 1113 2794 1113 2528 
Q 1113 2219 1719 2053 
Q 1766 2041 1788 2034 
L 1972 1978 
Q 2547 1819 2739 1644 
Q 2931 1469 2931 1166 
Q 2931 609 2489 259 
Q 2047 -91 1331 -91 
Q 1053 -91 747 -37 
Q 441 16 72 128 
L 184 722 
Q 500 559 806 475 
Q 1113 391 1394 391 
Q 1816 391 2080 572 
Q 2344 753 2344 1031 
Q 2344 1331 1650 1516 
L 1591 1531 
L 1394 1581 
Q 956 1697 753 1886 
Q 550 2075 550 2369 
Q 550 2928 970 3256 
Q 1391 3584 2113 3584 
Q 2397 3584 2667 3537 
Q 2938 3491 3200 3397 
z
" transform="scale(0.015625)"/>
     </defs>
     <use xlink:href="#DejaVuSans-Oblique-49"/>
     <use xlink:href="#DejaVuSans-Oblique-6d" transform="translate(29.492188 0)"/>
     <use xlink:href="#DejaVuSans-Oblique-61" transform="translate(126.904297 0)"/>
     <use xlink:href="#DejaVuSans-Oblique-67" transform="translate(188.183594 0)"/>
     <use xlink:href="#DejaVuSans-Oblique-65" transform="translate(251.660156 0)"/>
     <use xlink:href="#DejaVuSans-Oblique-20" transform="translate(313.183594 0)"/>
     <use xlink:href="#DejaVuSans-Oblique-6d" transform="translate(344.970703 0)"/>
     <use xlink:href="#DejaVuSans-Oblique-61" transform="translate(442.382812 0)"/>
     <use xlink:href="#DejaVuSans-Oblique-74" transform="translate(503.662109 0)"/>
     <use xlink:href="#DejaVuSans-Oblique-72" transform="translate(542.871094 0)"/>
     <use xlink:href="#DejaVuSans-Oblique-69" transform="translate(583.984375 0)"/>
     <use xlink:href="#DejaVuSans-Oblique-63" transform="translate(611.767578 0)"/>
     <use xlink:href="#DejaVuSans-Oblique-65" transform="translate(666.748047 0)"/>
     <use xlink:href="#DejaVuSans-Oblique-73" transform="translate(728.271484 0)"/>
    </g>
   </g>
   <g id="text_14">
    <!-- Convolutional Stem -->
    <g style="fill: #111111" transform="translate(481.363594 198.755437) scale(0.09 -0.09)">
     <use xlink:href="#DejaVuSans-Bold-43"/>
     <use xlink:href="#DejaVuSans-Bold-6f" transform="translate(73.388672 0)"/>
     <use xlink:href="#DejaVuSans-Bold-6e" transform="translate(142.089844 0)"/>
     <use xlink:href="#DejaVuSans-Bold-76" transform="translate(213.28125 0)"/>
     <use xlink:href="#DejaVuSans-Bold-6f" transform="translate(278.466797 0)"/>
     <use xlink:href="#DejaVuSans-Bold-6c" transform="translate(347.167969 0)"/>
     <use xlink:href="#DejaVuSans-Bold-75" transform="translate(381.445312 0)"/>
     <use xlink:href="#DejaVuSans-Bold-74" transform="translate(452.636719 0)"/>
     <use xlink:href="#DejaVuSans-Bold-69" transform="translate(500.439453 0)"/>
     <use xlink:href="#DejaVuSans-Bold-6f" transform="translate(534.716797 0)"/>
     <use xlink:href="#DejaVuSans-Bold-6e" transform="translate(603.417969 0)"/>
     <use xlink:href="#DejaVuSans-Bold-61" transform="translate(674.609375 0)"/>
     <use xlink:href="#DejaVuSans-Bold-6c" transform="translate(742.089844 0)"/>
     <use xlink:href="#DejaVuSans-Bold-20" transform="translate(776.367188 0)"/>
     <use xlink:href="#DejaVuSans-Bold-53" transform="translate(811.181641 0)"/>
     <use xlink:href="#DejaVuSans-Bold-74" transform="translate(883.203125 0)"/>
     <use xlink:href="#DejaVuSans-Bold-65" transform="translate(931.005859 0)"/>
     <use xlink:href="#DejaVuSans-Bold-6d" transform="translate(998.828125 0)"/>
    </g>
   </g>
   <g id="text_15">
    <!-- Local feature kernels -->
    <g style="fill: #555555" transform="translate(491.50957 211.445531) scale(0.075 -0.075)">
     <defs>
      <path id="DejaVuSans-Oblique-6b" d="M 1172 4863 
L 1747 4863 
L 1197 2028 
L 3169 3500 
L 3916 3500 
L 1716 1825 
L 3322 0 
L 2625 0 
L 1131 1709 
L 800 0 
L 225 0 
L 1172 4863 
z
" transform="scale(0.015625)"/>
     </defs>
     <use xlink:href="#DejaVuSans-Oblique-4c"/>
     <use xlink:href="#DejaVuSans-Oblique-6f" transform="translate(55.712891 0)"/>
     <use xlink:href="#DejaVuSans-Oblique-63" transform="translate(116.894531 0)"/>
     <use xlink:href="#DejaVuSans-Oblique-61" transform="translate(171.875 0)"/>
     <use xlink:href="#DejaVuSans-Oblique-6c" transform="translate(233.154297 0)"/>
     <use xlink:href="#DejaVuSans-Oblique-20" transform="translate(260.9375 0)"/>
     <use xlink:href="#DejaVuSans-Oblique-66" transform="translate(292.724609 0)"/>
     <use xlink:href="#DejaVuSans-Oblique-65" transform="translate(327.929688 0)"/>
     <use xlink:href="#DejaVuSans-Oblique-61" transform="translate(389.453125 0)"/>
     <use xlink:href="#DejaVuSans-Oblique-74" transform="translate(450.732422 0)"/>
     <use xlink:href="#DejaVuSans-Oblique-75" transform="translate(489.941406 0)"/>
     <use xlink:href="#DejaVuSans-Oblique-72" transform="translate(553.320312 0)"/>
     <use xlink:href="#DejaVuSans-Oblique-65" transform="translate(594.433594 0)"/>
     <use xlink:href="#DejaVuSans-Oblique-20" transform="translate(655.957031 0)"/>
     <use xlink:href="#DejaVuSans-Oblique-6b" transform="translate(687.744141 0)"/>
     <use xlink:href="#DejaVuSans-Oblique-65" transform="translate(745.654297 0)"/>
     <use xlink:href="#DejaVuSans-Oblique-72" transform="translate(807.177734 0)"/>
     <use xlink:href="#DejaVuSans-Oblique-6e" transform="translate(848.291016 0)"/>
     <use xlink:href="#DejaVuSans-Oblique-65" transform="translate(911.669922 0)"/>
     <use xlink:href="#DejaVuSans-Oblique-6c" transform="translate(973.193359 0)"/>
     <use xlink:href="#DejaVuSans-Oblique-73" transform="translate(1000.976562 0)"/>
    </g>
   </g>
   <g id="text_16">
    <!-- Dual Transformers -->
    <g style="fill: #111111" transform="translate(484.295625 266.147437) scale(0.09 -0.09)">
     <defs>
      <path id="DejaVuSans-Bold-66" d="M 2841 4863 
L 2841 4128 
L 2222 4128 
Q 1984 4128 1890 4042 
Q 1797 3956 1797 3744 
L 1797 3500 
L 2753 3500 
L 2753 2700 
L 1797 2700 
L 1797 0 
L 678 0 
L 678 2700 
L 122 2700 
L 122 3500 
L 678 3500 
L 678 3744 
Q 678 4316 997 4589 
Q 1316 4863 1984 4863 
L 2841 4863 
z
" transform="scale(0.015625)"/>
     </defs>
     <use xlink:href="#DejaVuSans-Bold-44"/>
     <use xlink:href="#DejaVuSans-Bold-75" transform="translate(83.007812 0)"/>
     <use xlink:href="#DejaVuSans-Bold-61" transform="translate(154.199219 0)"/>
     <use xlink:href="#DejaVuSans-Bold-6c" transform="translate(221.679688 0)"/>
     <use xlink:href="#DejaVuSans-Bold-20" transform="translate(255.957031 0)"/>
     <use xlink:href="#DejaVuSans-Bold-54" transform="translate(290.771484 0)"/>
     <use xlink:href="#DejaVuSans-Bold-72" transform="translate(347.984375 0)"/>
     <use xlink:href="#DejaVuSans-Bold-61" transform="translate(397.300781 0)"/>
     <use xlink:href="#DejaVuSans-Bold-6e" transform="translate(464.78125 0)"/>
     <use xlink:href="#DejaVuSans-Bold-73" transform="translate(535.972656 0)"/>
     <use xlink:href="#DejaVuSans-Bold-66" transform="translate(595.494141 0)"/>
     <use xlink:href="#DejaVuSans-Bold-6f" transform="translate(639 0)"/>
     <use xlink:href="#DejaVuSans-Bold-72" transform="translate(707.701172 0)"/>
     <use xlink:href="#DejaVuSans-Bold-6d" transform="translate(757.017578 0)"/>
     <use xlink:href="#DejaVuSans-Bold-65" transform="translate(861.216797 0)"/>
     <use xlink:href="#DejaVuSans-Bold-72" transform="translate(929.039062 0)"/>
     <use xlink:href="#DejaVuSans-Bold-73" transform="translate(978.355469 0)"/>
    </g>
   </g>
   <g id="text_17">
    <!-- Separate semantic/layout weights -->
    <g style="fill: #555555" transform="translate(466.90957 278.837531) scale(0.075 -0.075)">
     <defs>
      <path id="DejaVuSans-Oblique-53" d="M 3859 4513 
L 3738 3897 
Q 3422 4066 3111 4152 
Q 2800 4238 2509 4238 
Q 1944 4238 1609 3991 
Q 1275 3744 1275 3334 
Q 1275 3109 1398 2989 
Q 1522 2869 2034 2731 
L 2413 2638 
Q 3053 2472 3303 2217 
Q 3553 1963 3553 1503 
Q 3553 797 2998 353 
Q 2444 -91 1538 -91 
Q 1166 -91 791 -17 
Q 416 56 38 206 
L 166 856 
Q 513 641 861 531 
Q 1209 422 1556 422 
Q 2147 422 2503 684 
Q 2859 947 2859 1369 
Q 2859 1650 2717 1795 
Q 2575 1941 2106 2059 
L 1728 2156 
Q 1081 2325 845 2545 
Q 609 2766 609 3163 
Q 609 3859 1145 4304 
Q 1681 4750 2541 4750 
Q 2875 4750 3203 4690 
Q 3531 4631 3859 4513 
z
" transform="scale(0.015625)"/>
      <path id="DejaVuSans-Oblique-2f" d="M 2175 4666 
L 2731 4666 
L 84 -594 
L -469 -594 
L 2175 4666 
z
" transform="scale(0.015625)"/>
      <path id="DejaVuSans-Oblique-77" d="M 544 3500 
L 1113 3500 
L 1259 684 
L 2566 3500 
L 3231 3500 
L 3425 684 
L 4666 3500 
L 5241 3500 
L 3641 0 
L 2969 0 
L 2797 2900 
L 1459 0 
L 781 0 
L 544 3500 
z
" transform="scale(0.015625)"/>
     </defs>
     <use xlink:href="#DejaVuSans-Oblique-53"/>
     <use xlink:href="#DejaVuSans-Oblique-65" transform="translate(63.476562 0)"/>
     <use xlink:href="#DejaVuSans-Oblique-70" transform="translate(125 0)"/>
     <use xlink:href="#DejaVuSans-Oblique-61" transform="translate(188.476562 0)"/>
     <use xlink:href="#DejaVuSans-Oblique-72" transform="translate(249.755859 0)"/>
     <use xlink:href="#DejaVuSans-Oblique-61" transform="translate(290.869141 0)"/>
     <use xlink:href="#DejaVuSans-Oblique-74" transform="translate(352.148438 0)"/>
     <use xlink:href="#DejaVuSans-Oblique-65" transform="translate(391.357422 0)"/>
     <use xlink:href="#DejaVuSans-Oblique-20" transform="translate(452.880859 0)"/>
     <use xlink:href="#DejaVuSans-Oblique-73" transform="translate(484.667969 0)"/>
     <use xlink:href="#DejaVuSans-Oblique-65" transform="translate(536.767578 0)"/>
     <use xlink:href="#DejaVuSans-Oblique-6d" transform="translate(598.291016 0)"/>
     <use xlink:href="#DejaVuSans-Oblique-61" transform="translate(695.703125 0)"/>
     <use xlink:href="#DejaVuSans-Oblique-6e" transform="translate(756.982422 0)"/>
     <use xlink:href="#DejaVuSans-Oblique-74" transform="translate(820.361328 0)"/>
     <use xlink:href="#DejaVuSans-Oblique-69" transform="translate(859.570312 0)"/>
     <use xlink:href="#DejaVuSans-Oblique-63" transform="translate(887.353516 0)"/>
     <use xlink:href="#DejaVuSans-Oblique-2f" transform="translate(942.333984 0)"/>
     <use xlink:href="#DejaVuSans-Oblique-6c" transform="translate(976.025391 0)"/>
     <use xlink:href="#DejaVuSans-Oblique-61" transform="translate(1003.808594 0)"/>
     <use xlink:href="#DejaVuSans-Oblique-79" transform="translate(1065.087891 0)"/>
     <use xlink:href="#DejaVuSans-Oblique-6f" transform="translate(1124.267578 0)"/>
     <use xlink:href="#DejaVuSans-Oblique-75" transform="translate(1185.449219 0)"/>
     <use xlink:href="#DejaVuSans-Oblique-74" transform="translate(1248.828125 0)"/>
     <use xlink:href="#DejaVuSans-Oblique-20" transform="translate(1288.037109 0)"/>
     <use xlink:href="#DejaVuSans-Oblique-77" transform="translate(1319.824219 0)"/>
     <use xlink:href="#DejaVuSans-Oblique-65" transform="translate(1401.611328 0)"/>
     <use xlink:href="#DejaVuSans-Oblique-69" transform="translate(1463.134766 0)"/>
     <use xlink:href="#DejaVuSans-Oblique-67" transform="translate(1490.917969 0)"/>
     <use xlink:href="#DejaVuSans-Oblique-68" transform="translate(1554.394531 0)"/>
     <use xlink:href="#DejaVuSans-Oblique-74" transform="translate(1617.773438 0)"/>
     <use xlink:href="#DejaVuSans-Oblique-73" transform="translate(1656.982422 0)"/>
    </g>
   </g>
   <g id="text_18">
    <!-- Error Gating &amp; Recurrence -->
    <g style="fill: #111111" transform="translate(463.902891 333.504281) scale(0.09 -0.09)">
     <defs>
      <path id="DejaVuSans-Bold-45" d="M 588 4666 
L 3834 4666 
L 3834 3756 
L 1791 3756 
L 1791 2888 
L 3713 2888 
L 3713 1978 
L 1791 1978 
L 1791 909 
L 3903 909 
L 3903 0 
L 588 0 
L 588 4666 
z
" transform="scale(0.015625)"/>
     </defs>
     <use xlink:href="#DejaVuSans-Bold-45"/>
     <use xlink:href="#DejaVuSans-Bold-72" transform="translate(68.310547 0)"/>
     <use xlink:href="#DejaVuSans-Bold-72" transform="translate(117.626953 0)"/>
     <use xlink:href="#DejaVuSans-Bold-6f" transform="translate(166.943359 0)"/>
     <use xlink:href="#DejaVuSans-Bold-72" transform="translate(235.644531 0)"/>
     <use xlink:href="#DejaVuSans-Bold-20" transform="translate(284.960938 0)"/>
     <use xlink:href="#DejaVuSans-Bold-47" transform="translate(319.775391 0)"/>
     <use xlink:href="#DejaVuSans-Bold-61" transform="translate(401.855469 0)"/>
     <use xlink:href="#DejaVuSans-Bold-74" transform="translate(469.335938 0)"/>
     <use xlink:href="#DejaVuSans-Bold-69" transform="translate(517.138672 0)"/>
     <use xlink:href="#DejaVuSans-Bold-6e" transform="translate(551.416016 0)"/>
     <use xlink:href="#DejaVuSans-Bold-67" transform="translate(622.607422 0)"/>
     <use xlink:href="#DejaVuSans-Bold-20" transform="translate(694.189453 0)"/>
     <use xlink:href="#DejaVuSans-Bold-26" transform="translate(729.003906 0)"/>
     <use xlink:href="#DejaVuSans-Bold-20" transform="translate(816.210938 0)"/>
     <use xlink:href="#DejaVuSans-Bold-52" transform="translate(851.025391 0)"/>
     <use xlink:href="#DejaVuSans-Bold-65" transform="translate(928.027344 0)"/>
     <use xlink:href="#DejaVuSans-Bold-63" transform="translate(995.849609 0)"/>
     <use xlink:href="#DejaVuSans-Bold-75" transform="translate(1055.126953 0)"/>
     <use xlink:href="#DejaVuSans-Bold-72" transform="translate(1126.318359 0)"/>
     <use xlink:href="#DejaVuSans-Bold-72" transform="translate(1175.634766 0)"/>
     <use xlink:href="#DejaVuSans-Bold-65" transform="translate(1224.951172 0)"/>
     <use xlink:href="#DejaVuSans-Bold-6e" transform="translate(1292.773438 0)"/>
     <use xlink:href="#DejaVuSans-Bold-63" transform="translate(1363.964844 0)"/>
     <use xlink:href="#DejaVuSans-Bold-65" transform="translate(1423.242188 0)"/>
    </g>
   </g>
   <g id="text_19">
    <!-- Feedback iteration loop -->
    <g style="fill: #555555" transform="translate(486.698438 346.229531) scale(0.075 -0.075)">
     <defs>
      <path id="DejaVuSans-Oblique-46" d="M 1081 4666 
L 3756 4666 
L 3653 4134 
L 1606 4134 
L 1338 2759 
L 3188 2759 
L 3084 2228 
L 1234 2228 
L 800 0 
L 172 0 
L 1081 4666 
z
" transform="scale(0.015625)"/>
      <path id="DejaVuSans-Oblique-62" d="M 3169 2138 
Q 3169 2591 2961 2847 
Q 2753 3103 2388 3103 
Q 2122 3103 1889 2973 
Q 1656 2844 1484 2597 
Q 1303 2338 1198 1995 
Q 1094 1653 1094 1313 
Q 1094 881 1298 636 
Q 1503 391 1863 391 
Q 2134 391 2365 517 
Q 2597 644 2772 891 
Q 2950 1147 3059 1487 
Q 3169 1828 3169 2138 
z
M 1381 2969 
Q 1594 3256 1914 3420 
Q 2234 3584 2584 3584 
Q 3122 3584 3439 3221 
Q 3756 2859 3756 2241 
Q 3756 1734 3570 1259 
Q 3384 784 3041 416 
Q 2816 172 2522 40 
Q 2228 -91 1906 -91 
Q 1566 -91 1316 65 
Q 1066 222 909 531 
L 806 0 
L 231 0 
L 1178 4863 
L 1753 4863 
L 1381 2969 
z
" transform="scale(0.015625)"/>
     </defs>
     <use xlink:href="#DejaVuSans-Oblique-46"/>
     <use xlink:href="#DejaVuSans-Oblique-65" transform="translate(57.519531 0)"/>
     <use xlink:href="#DejaVuSans-Oblique-65" transform="translate(119.042969 0)"/>
     <use xlink:href="#DejaVuSans-Oblique-64" transform="translate(180.566406 0)"/>
     <use xlink:href="#DejaVuSans-Oblique-62" transform="translate(244.042969 0)"/>
     <use xlink:href="#DejaVuSans-Oblique-61" transform="translate(307.519531 0)"/>
     <use xlink:href="#DejaVuSans-Oblique-63" transform="translate(368.798828 0)"/>
     <use xlink:href="#DejaVuSans-Oblique-6b" transform="translate(423.779297 0)"/>
     <use xlink:href="#DejaVuSans-Oblique-20" transform="translate(481.689453 0)"/>
     <use xlink:href="#DejaVuSans-Oblique-69" transform="translate(513.476562 0)"/>
     <use xlink:href="#DejaVuSans-Oblique-74" transform="translate(541.259766 0)"/>
     <use xlink:href="#DejaVuSans-Oblique-65" transform="translate(580.46875 0)"/>
     <use xlink:href="#DejaVuSans-Oblique-72" transform="translate(641.992188 0)"/>
     <use xlink:href="#DejaVuSans-Oblique-61" transform="translate(683.105469 0)"/>
     <use xlink:href="#DejaVuSans-Oblique-74" transform="translate(744.384766 0)"/>
     <use xlink:href="#DejaVuSans-Oblique-69" transform="translate(783.59375 0)"/>
     <use xlink:href="#DejaVuSans-Oblique-6f" transform="translate(811.376953 0)"/>
     <use xlink:href="#DejaVuSans-Oblique-6e" transform="translate(872.558594 0)"/>
     <use xlink:href="#DejaVuSans-Oblique-20" transform="translate(935.9375 0)"/>
     <use xlink:href="#DejaVuSans-Oblique-6c" transform="translate(967.724609 0)"/>
     <use xlink:href="#DejaVuSans-Oblique-6f" transform="translate(995.507812 0)"/>
     <use xlink:href="#DejaVuSans-Oblique-6f" transform="translate(1056.689453 0)"/>
     <use xlink:href="#DejaVuSans-Oblique-70" transform="translate(1117.871094 0)"/>
    </g>
   </g>
   <g id="patch_13">
    <path d="M 531 155.215969 
Q 531 168.190529 531 179.488039 
" style="fill: none; stroke: #1f77b4; stroke-width: 1.5; stroke-linecap: round"/>
    <path d="M 533.4 174.688039 
L 531 179.488039 
L 528.6 174.688039 
z
" style="fill: #1f77b4; stroke: #1f77b4; stroke-width: 1.5; stroke-linecap: round"/>
   </g>
   <g id="patch_14">
    <path d="M 531 222.607969 
Q 531 235.582529 531 246.880039 
" style="fill: none; stroke: #1f77b4; stroke-width: 1.5; stroke-linecap: round"/>
    <path d="M 533.4 242.080039 
L 531 246.880039 
L 528.6 242.080039 
z
" style="fill: #1f77b4; stroke: #1f77b4; stroke-width: 1.5; stroke-linecap: round"/>
   </g>
   <g id="patch_15">
    <path d="M 531 289.999969 
Q 531 302.974529 531 314.272039 
" style="fill: none; stroke: #1f77b4; stroke-width: 1.5; stroke-linecap: round"/>
    <path d="M 533.4 309.472039 
L 531 314.272039 
L 528.6 309.472039 
z
" style="fill: #1f77b4; stroke: #1f77b4; stroke-width: 1.5; stroke-linecap: round"/>
   </g>
   <g id="patch_16">
    <path d="M 260.623737 134.496 
Q 352.907216 134.496 444.072662 134.496 
" style="fill: none; stroke-dasharray: 3.7,1.6; stroke-dashoffset: 0; stroke: #90a4ae; stroke-linecap: round"/>
    <path d="M 439.272662 132.096 
L 444.072662 134.496 
L 439.272662 136.896 
z
" style="fill: #90a4ae; stroke-dasharray: 3.7,1.6; stroke-dashoffset: 0; stroke: #90a4ae; stroke-linecap: round"/>
   </g>
   <g id="patch_17">
    <path d="M 260.623737 201.888 
Q 352.907216 201.888 444.072662 201.888 
" style="fill: none; stroke-dasharray: 3.7,1.6; stroke-dashoffset: 0; stroke: #90a4ae; stroke-linecap: round"/>
    <path d="M 439.272662 199.488 
L 444.072662 201.888 
L 439.272662 204.288 
z
" style="fill: #90a4ae; stroke-dasharray: 3.7,1.6; stroke-dashoffset: 0; stroke: #90a4ae; stroke-linecap: round"/>
   </g>
   <g id="patch_18">
    <path d="M 260.623737 269.28 
Q 352.907216 269.28 444.072662 269.28 
" style="fill: none; stroke-dasharray: 3.7,1.6; stroke-dashoffset: 0; stroke: #90a4ae; stroke-linecap: round"/>
    <path d="M 439.272662 266.88 
L 444.072662 269.28 
L 439.272662 271.68 
z
" style="fill: #90a4ae; stroke-dasharray: 3.7,1.6; stroke-dashoffset: 0; stroke: #90a4ae; stroke-linecap: round"/>
   </g>
   <g id="patch_19">
    <path d="M 260.623737 336.672 
Q 352.907216 336.672 444.072662 336.672 
" style="fill: none; stroke-dasharray: 3.7,1.6; stroke-dashoffset: 0; stroke: #90a4ae; stroke-linecap: round"/>
    <path d="M 439.272662 334.272 
L 444.072662 336.672 
L 439.272662 339.072 
z
" style="fill: #90a4ae; stroke-dasharray: 3.7,1.6; stroke-dashoffset: 0; stroke: #90a4ae; stroke-linecap: round"/>
   </g>
  </g>
 </g>
 <defs>
  <clipPath id="p959606d198">
   <rect x="7.2" y="7.2" width="698.4" height="374.4"/>
  </clipPath>
 </defs>
</svg>
