<?xml version="1.0" encoding="utf-8" standalone="no"?>
<!DOCTYPE svg PUBLIC "-//W3C//DTD SVG 1.1//EN"
  "http://www.w3.org/Graphics/SVG/1.1/DTD/svg11.dtd">
<svg xmlns:xlink="http://www.w3.org/1999/xlink" width="604.8pt" height="424.8pt" viewBox="0 0 604.8 424.8" xmlns="http://www.w3.org/2000/svg" version="1.1">
 <metadata>
  <rdf:RDF xmlns:dc="http://purl.org/dc/elements/1.1/" xmlns:cc="http://creativecommons.org/ns#" xmlns:rdf="http://www.w3.org/1999/02/22-rdf-syntax-ns#">
   <cc:Work>
    <dc:type rdf:resource="http://purl.org/dc/dcmitype/StillImage"/>
    <dc:date>2026-07-07T07:49:29.268096</dc:date>
    <dc:format>image/svg+xml</dc:format>
    <dc:creator>
     <cc:Agent>
      <dc:title>Matplotlib v3.10.9, https://matplotlib.org/</dc:title>
     </cc:Agent>
    </dc:creator>
   </cc:Work>
  </rdf:RDF>
 </metadata>
 <defs>
  <style type="text/css">*{stroke-linejoin: round; stroke-linecap: butt}</style>
 </defs>
 <g id="figure_1">
  <g id="patch_1">
   <path d="M 0 424.8 
L 604.8 424.8 
L 604.8 0 
L 0 0 
z
" style="fill: #ffffff"/>
  </g>
  <g id="axes_1">
   <g id="patch_2">
    <path d="M 231.552 113.22 
L 373.248 113.22 
L 373.248 79.02 
L 231.552 79.02 
z
" clip-path="url(#pff41107eac)" style="fill: #f8f9fa; stroke: #1f77b4; stroke-width: 1.5"/>
   </g>
   <g id="patch_3">
    <path d="M 231.552 174.78 
L 373.248 174.78 
L 373.248 140.58 
L 231.552 140.58 
z
" clip-path="url(#pff41107eac)" style="fill: #f8f9fa; stroke: #1f77b4; stroke-width: 1.5"/>
   </g>
   <g id="patch_4">
    <path d="M 249.264 232.92 
L 355.536 232.92 
L 355.536 205.56 
L 249.264 205.56 
z
" clip-path="url(#pff41107eac)" style="fill: #f8f9fa; stroke: #1f77b4; stroke-width: 1.5"/>
   </g>
   <g id="patch_5">
    <path d="M 89.856 304.74 
L 219.744 304.74 
L 219.744 256.86 
L 89.856 256.86 
z
" clip-path="url(#pff41107eac)" style="fill: #fff0f5; stroke: #1f77b4; stroke-width: 1.5"/>
   </g>
   <g id="patch_6">
    <path d="M 385.056 304.74 
L 514.944 304.74 
L 514.944 256.86 
L 385.056 256.86 
z
" clip-path="url(#pff41107eac)" style="fill: #e0ffff; stroke: #1f77b4; stroke-width: 1.5"/>
   </g>
   <g id="patch_7">
    <path d="M 237.456 366.3 
L 367.344 366.3 
L 367.344 332.1 
L 237.456 332.1 
z
" clip-path="url(#pff41107eac)" style="fill: #f8f9fa; stroke: #1f77b4; stroke-width: 1.5"/>
   </g>
   <g id="patch_8">
    <path d="M 225.648 410.76 
L 379.152 410.76 
L 379.152 383.4 
L 225.648 383.4 
z
" clip-path="url(#pff41107eac)" style="fill: #f8f9fa; stroke: #1f77b4; stroke-width: 1.5"/>
   </g>
   <g id="text_1">
    <!-- Dual-Stream Attention Token Processing -->
    <g transform="translate(153.837422 41.4) scale(0.13 -0.13)">
     <defs>
      <path id="DejaVuSans-Bold-44" d="M 1791 3756 
L 1791 909 
L 2222 909 
Q 2959 909 3348 1275 
Q 3738 1641 3738 2338 
Q 3738 3031 3350 3393 
Q 2963 3756 2222 3756 
L 1791 3756 
z
M 588 4666 
L 1856 4666 
Q 2919 4666 3439 4514 
Q 3959 4363 4331 4000 
Q 4659 3684 4818 3271 
Q 4978 2859 4978 2338 
Q 4978 1809 4818 1395 
Q 4659 981 4331 666 
Q 3956 303 3431 151 
Q 2906 0 1856 0 
L 588 0 
L 588 4666 
z
" transform="scale(0.015625)"/>
      <path id="DejaVuSans-Bold-75" d="M 500 1363 
L 500 3500 
L 1625 3500 
L 1625 3150 
Q 1625 2866 1622 2436 
Q 1619 2006 1619 1863 
Q 1619 1441 1641 1255 
Q 1663 1069 1716 984 
Q 1784 875 1895 815 
Q 2006 756 2150 756 
Q 2500 756 2700 1025 
Q 2900 1294 2900 1772 
L 2900 3500 
L 4019 3500 
L 4019 0 
L 2900 0 
L 2900 506 
Q 2647 200 2364 54 
Q 2081 -91 1741 -91 
Q 1134 -91 817 281 
Q 500 653 500 1363 
z
" transform="scale(0.015625)"/>
      <path id="DejaVuSans-Bold-61" d="M 2106 1575 
Q 1756 1575 1579 1456 
Q 1403 1338 1403 1106 
Q 1403 894 1545 773 
Q 1688 653 1941 653 
Q 2256 653 2472 879 
Q 2688 1106 2688 1447 
L 2688 1575 
L 2106 1575 
z
M 3816 1997 
L 3816 0 
L 2688 0 
L 2688 519 
Q 2463 200 2181 54 
Q 1900 -91 1497 -91 
Q 953 -91 614 226 
Q 275 544 275 1050 
Q 275 1666 698 1953 
Q 1122 2241 2028 2241 
L 2688 2241 
L 2688 2328 
Q 2688 2594 2478 2717 
Q 2269 2841 1825 2841 
Q 1466 2841 1156 2769 
Q 847 2697 581 2553 
L 581 3406 
Q 941 3494 1303 3539 
Q 1666 3584 2028 3584 
Q 2975 3584 3395 3211 
Q 3816 2838 3816 1997 
z
" transform="scale(0.015625)"/>
      <path id="DejaVuSans-Bold-6c" d="M 538 4863 
L 1656 4863 
L 1656 0 
L 538 0 
L 538 4863 
z
" transform="scale(0.015625)"/>
      <path id="DejaVuSans-Bold-2d" d="M 347 2297 
L 2309 2297 
L 2309 1388 
L 347 1388 
L 347 2297 
z
" transform="scale(0.015625)"/>
      <path id="DejaVuSans-Bold-53" d="M 3834 4519 
L 3834 3531 
Q 3450 3703 3084 3790 
Q 2719 3878 2394 3878 
Q 1963 3878 1756 3759 
Q 1550 3641 1550 3391 
Q 1550 3203 1689 3098 
Q 1828 2994 2194 2919 
L 2706 2816 
Q 3484 2659 3812 2340 
Q 4141 2022 4141 1434 
Q 4141 663 3683 286 
Q 3225 -91 2284 -91 
Q 1841 -91 1394 -6 
Q 947 78 500 244 
L 500 1259 
Q 947 1022 1364 901 
Q 1781 781 2169 781 
Q 2563 781 2772 912 
Q 2981 1044 2981 1288 
Q 2981 1506 2839 1625 
Q 2697 1744 2272 1838 
L 1806 1941 
Q 1106 2091 782 2419 
Q 459 2747 459 3303 
Q 459 4000 909 4375 
Q 1359 4750 2203 4750 
Q 2588 4750 2994 4692 
Q 3400 4634 3834 4519 
z
" transform="scale(0.015625)"/>
      <path id="DejaVuSans-Bold-74" d="M 1759 4494 
L 1759 3500 
L 2913 3500 
L 2913 2700 
L 1759 2700 
L 1759 1216 
Q 1759 972 1856 886 
Q 1953 800 2241 800 
L 2816 800 
L 2816 0 
L 1856 0 
Q 1194 0 917 276 
Q 641 553 641 1216 
L 641 2700 
L 84 2700 
L 84 3500 
L 641 3500 
L 641 4494 
L 1759 4494 
z
" transform="scale(0.015625)"/>
      <path id="DejaVuSans-Bold-72" d="M 3138 2547 
Q 2991 2616 2845 2648 
Q 2700 2681 2553 2681 
Q 2122 2681 1889 2404 
Q 1656 2128 1656 1613 
L 1656 0 
L 538 0 
L 538 3500 
L 1656 3500 
L 1656 2925 
Q 1872 3269 2151 3426 
Q 2431 3584 2822 3584 
Q 2878 3584 2943 3579 
Q 3009 3575 3134 3559 
L 3138 2547 
z
" transform="scale(0.015625)"/>
      <path id="DejaVuSans-Bold-65" d="M 4031 1759 
L 4031 1441 
L 1416 1441 
Q 1456 1047 1700 850 
Q 1944 653 2381 653 
Q 2734 653 3104 758 
Q 3475 863 3866 1075 
L 3866 213 
Q 3469 63 3072 -14 
Q 2675 -91 2278 -91 
Q 1328 -91 801 392 
Q 275 875 275 1747 
Q 275 2603 792 3093 
Q 1309 3584 2216 3584 
Q 3041 3584 3536 3087 
Q 4031 2591 4031 1759 
z
M 2881 2131 
Q 2881 2450 2695 2645 
Q 2509 2841 2209 2841 
Q 1884 2841 1681 2658 
Q 1478 2475 1428 2131 
L 2881 2131 
z
" transform="scale(0.015625)"/>
      <path id="DejaVuSans-Bold-6d" d="M 3781 2919 
Q 3994 3244 4286 3414 
Q 4578 3584 4928 3584 
Q 5531 3584 5847 3212 
Q 6163 2841 6163 2131 
L 6163 0 
L 5038 0 
L 5038 1825 
Q 5041 1866 5042 1909 
Q 5044 1953 5044 2034 
Q 5044 2406 4934 2573 
Q 4825 2741 4581 2741 
Q 4263 2741 4089 2478 
Q 3916 2216 3909 1719 
L 3909 0 
L 2784 0 
L 2784 1825 
Q 2784 2406 2684 2573 
Q 2584 2741 2328 2741 
Q 2006 2741 1831 2477 
Q 1656 2213 1656 1722 
L 1656 0 
L 531 0 
L 531 3500 
L 1656 3500 
L 1656 2988 
Q 1863 3284 2130 3434 
Q 2397 3584 2719 3584 
Q 3081 3584 3359 3409 
Q 3638 3234 3781 2919 
z
" transform="scale(0.015625)"/>
      <path id="DejaVuSans-Bold-20" transform="scale(0.015625)"/>
      <path id="DejaVuSans-Bold-41" d="M 3419 850 
L 1538 850 
L 1241 0 
L 31 0 
L 1759 4666 
L 3194 4666 
L 4922 0 
L 3713 0 
L 3419 850 
z
M 1838 1716 
L 3116 1716 
L 2478 3572 
L 1838 1716 
z
" transform="scale(0.015625)"/>
      <path id="DejaVuSans-Bold-6e" d="M 4056 2131 
L 4056 0 
L 2931 0 
L 2931 347 
L 2931 1631 
Q 2931 2084 2911 2256 
Q 2891 2428 2841 2509 
Q 2775 2619 2662 2680 
Q 2550 2741 2406 2741 
Q 2056 2741 1856 2470 
Q 1656 2200 1656 1722 
L 1656 0 
L 538 0 
L 538 3500 
L 1656 3500 
L 1656 2988 
Q 1909 3294 2193 3439 
Q 2478 3584 2822 3584 
Q 3428 3584 3742 3212 
Q 4056 2841 4056 2131 
z
" transform="scale(0.015625)"/>
      <path id="DejaVuSans-Bold-69" d="M 538 3500 
L 1656 3500 
L 1656 0 
L 538 0 
L 538 3500 
z
M 538 4863 
L 1656 4863 
L 1656 3950 
L 538 3950 
L 538 4863 
z
" transform="scale(0.015625)"/>
      <path id="DejaVuSans-Bold-6f" d="M 2203 2784 
Q 1831 2784 1636 2517 
Q 1441 2250 1441 1747 
Q 1441 1244 1636 976 
Q 1831 709 2203 709 
Q 2569 709 2762 976 
Q 2956 1244 2956 1747 
Q 2956 2250 2762 2517 
Q 2569 2784 2203 2784 
z
M 2203 3584 
Q 3106 3584 3614 3096 
Q 4122 2609 4122 1747 
Q 4122 884 3614 396 
Q 3106 -91 2203 -91 
Q 1297 -91 786 396 
Q 275 884 275 1747 
Q 275 2609 786 3096 
Q 1297 3584 2203 3584 
z
" transform="scale(0.015625)"/>
      <path id="DejaVuSans-Bold-54" d="M 31 4666 
L 4331 4666 
L 4331 3756 
L 2784 3756 
L 2784 0 
L 1581 0 
L 1581 3756 
L 31 3756 
L 31 4666 
z
" transform="scale(0.015625)"/>
      <path id="DejaVuSans-Bold-6b" d="M 538 4863 
L 1656 4863 
L 1656 2216 
L 2944 3500 
L 4244 3500 
L 2534 1894 
L 4378 0 
L 3022 0 
L 1656 1459 
L 1656 0 
L 538 0 
L 538 4863 
z
" transform="scale(0.015625)"/>
      <path id="DejaVuSans-Bold-50" d="M 588 4666 
L 2584 4666 
Q 3475 4666 3951 4270 
Q 4428 3875 4428 3144 
Q 4428 2409 3951 2014 
Q 3475 1619 2584 1619 
L 1791 1619 
L 1791 0 
L 588 0 
L 588 4666 
z
M 1791 3794 
L 1791 2491 
L 2456 2491 
Q 2806 2491 2997 2661 
Q 3188 2831 3188 3144 
Q 3188 3456 2997 3625 
Q 2806 3794 2456 3794 
L 1791 3794 
z
" transform="scale(0.015625)"/>
      <path id="DejaVuSans-Bold-63" d="M 3366 3391 
L 3366 2478 
Q 3138 2634 2908 2709 
Q 2678 2784 2431 2784 
Q 1963 2784 1702 2511 
Q 1441 2238 1441 1747 
Q 1441 1256 1702 982 
Q 1963 709 2431 709 
Q 2694 709 2930 787 
Q 3166 866 3366 1019 
L 3366 103 
Q 3103 6 2833 -42 
Q 2563 -91 2291 -91 
Q 1344 -91 809 395 
Q 275 881 275 1747 
Q 275 2613 809 3098 
Q 1344 3584 2291 3584 
Q 2566 3584 2833 3536 
Q 3100 3488 3366 3391 
z
" transform="scale(0.015625)"/>
      <path id="DejaVuSans-Bold-73" d="M 3272 3391 
L 3272 2541 
Q 2913 2691 2578 2766 
Q 2244 2841 1947 2841 
Q 1628 2841 1473 2761 
Q 1319 2681 1319 2516 
Q 1319 2381 1436 2309 
Q 1553 2238 1856 2203 
L 2053 2175 
Q 2913 2066 3209 1816 
Q 3506 1566 3506 1031 
Q 3506 472 3093 190 
Q 2681 -91 1863 -91 
Q 1516 -91 1145 -36 
Q 775 19 384 128 
L 384 978 
Q 719 816 1070 734 
Q 1422 653 1784 653 
Q 2113 653 2278 743 
Q 2444 834 2444 1013 
Q 2444 1163 2330 1236 
Q 2216 1309 1875 1350 
L 1678 1375 
Q 931 1469 631 1722 
Q 331 1975 331 2491 
Q 331 3047 712 3315 
Q 1094 3584 1881 3584 
Q 2191 3584 2531 3537 
Q 2872 3491 3272 3391 
z
" transform="scale(0.015625)"/>
      <path id="DejaVuSans-Bold-67" d="M 2919 594 
Q 2688 288 2409 144 
Q 2131 0 1766 0 
Q 1125 0 706 504 
Q 288 1009 288 1791 
Q 288 2575 706 3076 
Q 1125 3578 1766 3578 
Q 2131 3578 2409 3434 
Q 2688 3291 2919 2981 
L 2919 3500 
L 4044 3500 
L 4044 353 
Q 4044 -491 3511 -936 
Q 2978 -1381 1966 -1381 
Q 1638 -1381 1331 -1331 
Q 1025 -1281 716 -1178 
L 716 -306 
Q 1009 -475 1290 -558 
Q 1572 -641 1856 -641 
Q 2406 -641 2662 -400 
Q 2919 -159 2919 353 
L 2919 594 
z
M 2181 2772 
Q 1834 2772 1640 2515 
Q 1447 2259 1447 1791 
Q 1447 1309 1634 1061 
Q 1822 813 2181 813 
Q 2531 813 2725 1069 
Q 2919 1325 2919 1791 
Q 2919 2259 2725 2515 
Q 2531 2772 2181 2772 
z
" transform="scale(0.015625)"/>
     </defs>
     <use xlink:href="#DejaVuSans-Bold-44"/>
     <use xlink:href="#DejaVuSans-Bold-75" transform="translate(83.007812 0)"/>
     <use xlink:href="#DejaVuSans-Bold-61" transform="translate(154.199219 0)"/>
     <use xlink:href="#DejaVuSans-Bold-6c" transform="translate(221.679688 0)"/>
     <use xlink:href="#DejaVuSans-Bold-2d" transform="translate(255.957031 0)"/>
     <use xlink:href="#DejaVuSans-Bold-53" transform="translate(297.460938 0)"/>
     <use xlink:href="#DejaVuSans-Bold-74" transform="translate(369.482422 0)"/>
     <use xlink:href="#DejaVuSans-Bold-72" transform="translate(417.285156 0)"/>
     <use xlink:href="#DejaVuSans-Bold-65" transform="translate(466.601562 0)"/>
     <use xlink:href="#DejaVuSans-Bold-61" transform="translate(534.423828 0)"/>
     <use xlink:href="#DejaVuSans-Bold-6d" transform="translate(601.904297 0)"/>
     <use xlink:href="#DejaVuSans-Bold-20" transform="translate(706.103516 0)"/>
     <use xlink:href="#DejaVuSans-Bold-41" transform="translate(740.917969 0)"/>
     <use xlink:href="#DejaVuSans-Bold-74" transform="translate(818.310547 0)"/>
     <use xlink:href="#DejaVuSans-Bold-74" transform="translate(866.113281 0)"/>
     <use xlink:href="#DejaVuSans-Bold-65" transform="translate(913.916016 0)"/>
     <use xlink:href="#DejaVuSans-Bold-6e" transform="translate(981.738281 0)"/>
     <use xlink:href="#DejaVuSans-Bold-74" transform="translate(1052.929688 0)"/>
     <use xlink:href="#DejaVuSans-Bold-69" transform="translate(1100.732422 0)"/>
     <use xlink:href="#DejaVuSans-Bold-6f" transform="translate(1135.009766 0)"/>
     <use xlink:href="#DejaVuSans-Bold-6e" transform="translate(1203.710938 0)"/>
     <use xlink:href="#DejaVuSans-Bold-20" transform="translate(1274.902344 0)"/>
     <use xlink:href="#DejaVuSans-Bold-54" transform="translate(1309.716797 0)"/>
     <use xlink:href="#DejaVuSans-Bold-6f" transform="translate(1364.679688 0)"/>
     <use xlink:href="#DejaVuSans-Bold-6b" transform="translate(1433.380859 0)"/>
     <use xlink:href="#DejaVuSans-Bold-65" transform="translate(1497.259766 0)"/>
     <use xlink:href="#DejaVuSans-Bold-6e" transform="translate(1565.082031 0)"/>
     <use xlink:href="#DejaVuSans-Bold-20" transform="translate(1636.273438 0)"/>
     <use xlink:href="#DejaVuSans-Bold-50" transform="translate(1671.087891 0)"/>
     <use xlink:href="#DejaVuSans-Bold-72" transform="translate(1744.378906 0)"/>
     <use xlink:href="#DejaVuSans-Bold-6f" transform="translate(1793.695312 0)"/>
     <use xlink:href="#DejaVuSans-Bold-63" transform="translate(1862.396484 0)"/>
     <use xlink:href="#DejaVuSans-Bold-65" transform="translate(1921.673828 0)"/>
     <use xlink:href="#DejaVuSans-Bold-73" transform="translate(1989.496094 0)"/>
     <use xlink:href="#DejaVuSans-Bold-73" transform="translate(2049.017578 0)"/>
     <use xlink:href="#DejaVuSans-Bold-69" transform="translate(2108.539062 0)"/>
     <use xlink:href="#DejaVuSans-Bold-6e" transform="translate(2142.816406 0)"/>
     <use xlink:href="#DejaVuSans-Bold-67" transform="translate(2214.007812 0)"/>
    </g>
   </g>
   <g id="text_2">
    <!-- Input Patch Tokens -->
    <g style="fill: #111111" transform="translate(254.201484 93.473437) scale(0.09 -0.09)">
     <defs>
      <path id="DejaVuSans-Bold-49" d="M 588 4666 
L 1791 4666 
L 1791 0 
L 588 0 
L 588 4666 
z
" transform="scale(0.015625)"/>
      <path id="DejaVuSans-Bold-70" d="M 1656 506 
L 1656 -1331 
L 538 -1331 
L 538 3500 
L 1656 3500 
L 1656 2988 
Q 1888 3294 2169 3439 
Q 2450 3584 2816 3584 
Q 3463 3584 3878 3070 
Q 4294 2556 4294 1747 
Q 4294 938 3878 423 
Q 3463 -91 2816 -91 
Q 2450 -91 2169 54 
Q 1888 200 1656 506 
z
M 2400 2772 
Q 2041 2772 1848 2508 
Q 1656 2244 1656 1747 
Q 1656 1250 1848 986 
Q 2041 722 2400 722 
Q 2759 722 2948 984 
Q 3138 1247 3138 1747 
Q 3138 2247 2948 2509 
Q 2759 2772 2400 2772 
z
" transform="scale(0.015625)"/>
      <path id="DejaVuSans-Bold-68" d="M 4056 2131 
L 4056 0 
L 2931 0 
L 2931 347 
L 2931 1625 
Q 2931 2084 2911 2256 
Q 2891 2428 2841 2509 
Q 2775 2619 2662 2680 
Q 2550 2741 2406 2741 
Q 2056 2741 1856 2470 
Q 1656 2200 1656 1722 
L 1656 0 
L 538 0 
L 538 4863 
L 1656 4863 
L 1656 2988 
Q 1909 3294 2193 3439 
Q 2478 3584 2822 3584 
Q 3428 3584 3742 3212 
Q 4056 2841 4056 2131 
z
" transform="scale(0.015625)"/>
     </defs>
     <use xlink:href="#DejaVuSans-Bold-49"/>
     <use xlink:href="#DejaVuSans-Bold-6e" transform="translate(37.207031 0)"/>
     <use xlink:href="#DejaVuSans-Bold-70" transform="translate(108.398438 0)"/>
     <use xlink:href="#DejaVuSans-Bold-75" transform="translate(179.980469 0)"/>
     <use xlink:href="#DejaVuSans-Bold-74" transform="translate(251.171875 0)"/>
     <use xlink:href="#DejaVuSans-Bold-20" transform="translate(298.974609 0)"/>
     <use xlink:href="#DejaVuSans-Bold-50" transform="translate(333.789062 0)"/>
     <use xlink:href="#DejaVuSans-Bold-61" transform="translate(404.455078 0)"/>
     <use xlink:href="#DejaVuSans-Bold-74" transform="translate(471.935547 0)"/>
     <use xlink:href="#DejaVuSans-Bold-63" transform="translate(519.738281 0)"/>
     <use xlink:href="#DejaVuSans-Bold-68" transform="translate(579.015625 0)"/>
     <use xlink:href="#DejaVuSans-Bold-20" transform="translate(650.207031 0)"/>
     <use xlink:href="#DejaVuSans-Bold-54" transform="translate(685.021484 0)"/>
     <use xlink:href="#DejaVuSans-Bold-6f" transform="translate(739.984375 0)"/>
     <use xlink:href="#DejaVuSans-Bold-6b" transform="translate(808.685547 0)"/>
     <use xlink:href="#DejaVuSans-Bold-65" transform="translate(872.564453 0)"/>
     <use xlink:href="#DejaVuSans-Bold-6e" transform="translate(940.386719 0)"/>
     <use xlink:href="#DejaVuSans-Bold-73" transform="translate(1011.578125 0)"/>
    </g>
   </g>
   <g id="text_3">
    <!-- Sequence: [Seq_Len, Embed_Dim] -->
    <g style="fill: #555555" transform="translate(237.871289 104.925234) scale(0.075 -0.075)">
     <defs>
      <path id="DejaVuSans-Oblique-53" d="M 3859 4513 
L 3738 3897 
Q 3422 4066 3111 4152 
Q 2800 4238 2509 4238 
Q 1944 4238 1609 3991 
Q 1275 3744 1275 3334 
Q 1275 3109 1398 2989 
Q 1522 2869 2034 2731 
L 2413 2638 
Q 3053 2472 3303 2217 
Q 3553 1963 3553 1503 
Q 3553 797 2998 353 
Q 2444 -91 1538 -91 
Q 1166 -91 791 -17 
Q 416 56 38 206 
L 166 856 
Q 513 641 861 531 
Q 1209 422 1556 422 
Q 2147 422 2503 684 
Q 2859 947 2859 1369 
Q 2859 1650 2717 1795 
Q 2575 1941 2106 2059 
L 1728 2156 
Q 1081 2325 845 2545 
Q 609 2766 609 3163 
Q 609 3859 1145 4304 
Q 1681 4750 2541 4750 
Q 2875 4750 3203 4690 
Q 3531 4631 3859 4513 
z
" transform="scale(0.015625)"/>
      <path id="DejaVuSans-Oblique-65" d="M 3078 2063 
Q 3088 2113 3092 2166 
Q 3097 2219 3097 2272 
Q 3097 2653 2873 2875 
Q 2650 3097 2266 3097 
Q 1838 3097 1509 2826 
Q 1181 2556 1013 2059 
L 3078 2063 
z
M 3578 1613 
L 903 1613 
Q 884 1494 878 1425 
Q 872 1356 872 1306 
Q 872 872 1139 634 
Q 1406 397 1894 397 
Q 2269 397 2603 481 
Q 2938 566 3225 728 
L 3116 159 
Q 2806 34 2476 -28 
Q 2147 -91 1806 -91 
Q 1078 -91 686 257 
Q 294 606 294 1247 
Q 294 1794 489 2264 
Q 684 2734 1063 3103 
Q 1306 3334 1642 3459 
Q 1978 3584 2356 3584 
Q 2950 3584 3301 3228 
Q 3653 2872 3653 2272 
Q 3653 2128 3634 1964 
Q 3616 1800 3578 1613 
z
" transform="scale(0.015625)"/>
      <path id="DejaVuSans-Oblique-71" d="M 2669 525 
Q 2438 222 2123 65 
Q 1809 -91 1428 -91 
Q 897 -91 595 267 
Q 294 625 294 1253 
Q 294 1759 480 2231 
Q 666 2703 1013 3078 
Q 1238 3322 1530 3453 
Q 1822 3584 2144 3584 
Q 2531 3584 2781 3431 
Q 3031 3278 3144 2969 
L 3244 3494 
L 3822 3494 
L 2888 -1319 
L 2309 -1319 
L 2669 525 
z
M 891 1338 
Q 891 875 1084 633 
Q 1278 391 1644 391 
Q 2188 391 2572 911 
Q 2956 1431 2956 2175 
Q 2956 2625 2757 2864 
Q 2559 3103 2188 3103 
Q 1916 3103 1684 2976 
Q 1453 2850 1281 2606 
Q 1100 2350 995 2006 
Q 891 1663 891 1338 
z
" transform="scale(0.015625)"/>
      <path id="DejaVuSans-Oblique-75" d="M 428 1388 
L 838 3500 
L 1416 3500 
L 1006 1409 
Q 975 1256 961 1147 
Q 947 1038 947 966 
Q 947 700 1109 554 
Q 1272 409 1569 409 
Q 2031 409 2368 721 
Q 2706 1034 2809 1563 
L 3194 3500 
L 3769 3500 
L 3091 0 
L 2516 0 
L 2631 550 
Q 2388 244 2052 76 
Q 1716 -91 1338 -91 
Q 878 -91 622 161 
Q 366 413 366 863 
Q 366 956 381 1097 
Q 397 1238 428 1388 
z
" transform="scale(0.015625)"/>
      <path id="DejaVuSans-Oblique-6e" d="M 3566 2113 
L 3156 0 
L 2578 0 
L 2988 2091 
Q 3016 2238 3031 2350 
Q 3047 2463 3047 2528 
Q 3047 2791 2881 2937 
Q 2716 3084 2419 3084 
Q 1956 3084 1622 2776 
Q 1288 2469 1184 1941 
L 800 0 
L 225 0 
L 903 3500 
L 1478 3500 
L 1363 2950 
Q 1603 3253 1940 3418 
Q 2278 3584 2650 3584 
Q 3113 3584 3367 3334 
Q 3622 3084 3622 2631 
Q 3622 2519 3608 2391 
Q 3594 2263 3566 2113 
z
" transform="scale(0.015625)"/>
      <path id="DejaVuSans-Oblique-63" d="M 3431 3366 
L 3316 2797 
Q 3109 2947 2876 3022 
Q 2644 3097 2394 3097 
Q 2119 3097 1870 3000 
Q 1622 2903 1453 2725 
Q 1184 2453 1037 2087 
Q 891 1722 891 1331 
Q 891 859 1127 628 
Q 1363 397 1844 397 
Q 2081 397 2348 469 
Q 2616 541 2906 684 
L 2797 116 
Q 2547 13 2283 -39 
Q 2019 -91 1741 -91 
Q 1044 -91 669 257 
Q 294 606 294 1253 
Q 294 1797 489 2255 
Q 684 2713 1069 3078 
Q 1331 3328 1684 3456 
Q 2038 3584 2456 3584 
Q 2700 3584 2940 3529 
Q 3181 3475 3431 3366 
z
" transform="scale(0.015625)"/>
      <path id="DejaVuSans-Oblique-3a" d="M 978 3309 
L 1638 3309 
L 1484 2516 
L 825 2516 
L 978 3309 
z
M 488 794 
L 1147 794 
L 991 0 
L 331 0 
L 488 794 
z
" transform="scale(0.015625)"/>
      <path id="DejaVuSans-Oblique-20" transform="scale(0.015625)"/>
      <path id="DejaVuSans-Oblique-5b" d="M 1363 4863 
L 2688 4863 
L 2597 4416 
L 1850 4416 
L 916 -397 
L 1663 -397 
L 1581 -844 
L 256 -844 
L 1363 4863 
z
" transform="scale(0.015625)"/>
      <path id="DejaVuSans-Oblique-5f" d="M 3263 -1063 
L 3263 -1509 
L -63 -1509 
L -63 -1063 
L 3263 -1063 
z
" transform="scale(0.015625)"/>
      <path id="DejaVuSans-Oblique-4c" d="M 1075 4666 
L 1709 4666 
L 909 525 
L 3181 525 
L 3078 0 
L 172 0 
L 1075 4666 
z
" transform="scale(0.015625)"/>
      <path id="DejaVuSans-Oblique-2c" d="M 575 794 
L 1234 794 
L 1131 256 
L 422 -744 
L 19 -744 
L 469 256 
L 575 794 
z
" transform="scale(0.015625)"/>
      <path id="DejaVuSans-Oblique-45" d="M 1081 4666 
L 4031 4666 
L 3928 4134 
L 1606 4134 
L 1338 2753 
L 3566 2753 
L 3463 2222 
L 1234 2222 
L 909 531 
L 3284 531 
L 3181 0 
L 172 0 
L 1081 4666 
z
" transform="scale(0.015625)"/>
      <path id="DejaVuSans-Oblique-6d" d="M 5747 2113 
L 5338 0 
L 4763 0 
L 5166 2094 
Q 5191 2228 5203 2325 
Q 5216 2422 5216 2491 
Q 5216 2772 5059 2928 
Q 4903 3084 4622 3084 
Q 4203 3084 3875 2770 
Q 3547 2456 3450 1953 
L 3066 0 
L 2491 0 
L 2900 2094 
Q 2925 2209 2937 2307 
Q 2950 2406 2950 2484 
Q 2950 2769 2794 2926 
Q 2638 3084 2363 3084 
Q 1938 3084 1609 2770 
Q 1281 2456 1184 1953 
L 800 0 
L 225 0 
L 909 3500 
L 1484 3500 
L 1375 2956 
Q 1609 3263 1923 3423 
Q 2238 3584 2597 3584 
Q 2978 3584 3223 3384 
Q 3469 3184 3519 2828 
Q 3781 3197 4126 3390 
Q 4472 3584 4856 3584 
Q 5306 3584 5551 3325 
Q 5797 3066 5797 2591 
Q 5797 2488 5784 2364 
Q 5772 2241 5747 2113 
z
" transform="scale(0.015625)"/>
      <path id="DejaVuSans-Oblique-62" d="M 3169 2138 
Q 3169 2591 2961 2847 
Q 2753 3103 2388 3103 
Q 2122 3103 1889 2973 
Q 1656 2844 1484 2597 
Q 1303 2338 1198 1995 
Q 1094 1653 1094 1313 
Q 1094 881 1298 636 
Q 1503 391 1863 391 
Q 2134 391 2365 517 
Q 2597 644 2772 891 
Q 2950 1147 3059 1487 
Q 3169 1828 3169 2138 
z
M 1381 2969 
Q 1594 3256 1914 3420 
Q 2234 3584 2584 3584 
Q 3122 3584 3439 3221 
Q 3756 2859 3756 2241 
Q 3756 1734 3570 1259 
Q 3384 784 3041 416 
Q 2816 172 2522 40 
Q 2228 -91 1906 -91 
Q 1566 -91 1316 65 
Q 1066 222 909 531 
L 806 0 
L 231 0 
L 1178 4863 
L 1753 4863 
L 1381 2969 
z
" transform="scale(0.015625)"/>
      <path id="DejaVuSans-Oblique-64" d="M 2675 525 
Q 2444 222 2128 65 
Q 1813 -91 1428 -91 
Q 903 -91 598 267 
Q 294 625 294 1247 
Q 294 1766 478 2236 
Q 663 2706 1013 3078 
Q 1244 3325 1534 3454 
Q 1825 3584 2144 3584 
Q 2481 3584 2739 3421 
Q 2997 3259 3138 2956 
L 3513 4863 
L 4091 4863 
L 3144 0 
L 2566 0 
L 2675 525 
z
M 891 1350 
Q 891 897 1095 644 
Q 1300 391 1663 391 
Q 1931 391 2161 520 
Q 2391 650 2566 903 
Q 2750 1166 2856 1509 
Q 2963 1853 2963 2188 
Q 2963 2622 2758 2865 
Q 2553 3109 2194 3109 
Q 1922 3109 1687 2981 
Q 1453 2853 1288 2613 
Q 1106 2353 998 2009 
Q 891 1666 891 1350 
z
" transform="scale(0.015625)"/>
      <path id="DejaVuSans-Oblique-44" d="M 1081 4666 
L 2438 4666 
Q 3519 4666 4070 4208 
Q 4622 3750 4622 2847 
Q 4622 2250 4412 1698 
Q 4203 1147 3834 769 
Q 3463 381 2891 190 
Q 2319 0 1538 0 
L 172 0 
L 1081 4666 
z
M 1613 4147 
L 909 519 
L 1734 519 
Q 2794 519 3375 1128 
Q 3956 1738 3956 2847 
Q 3956 3519 3581 3833 
Q 3206 4147 2406 4147 
L 1613 4147 
z
" transform="scale(0.015625)"/>
      <path id="DejaVuSans-Oblique-69" d="M 1172 4863 
L 1747 4863 
L 1606 4134 
L 1031 4134 
L 1172 4863 
z
M 909 3500 
L 1484 3500 
L 800 0 
L 225 0 
L 909 3500 
z
" transform="scale(0.015625)"/>
      <path id="DejaVuSans-Oblique-5d" d="M 2188 4863 
L 1081 -844 
L -244 -844 
L -159 -397 
L 588 -397 
L 1522 4416 
L 781 4416 
L 863 4863 
L 2188 4863 
z
" transform="scale(0.015625)"/>
     </defs>
     <use xlink:href="#DejaVuSans-Oblique-53"/>
     <use xlink:href="#DejaVuSans-Oblique-65" transform="translate(63.476562 0)"/>
     <use xlink:href="#DejaVuSans-Oblique-71" transform="translate(125 0)"/>
     <use xlink:href="#DejaVuSans-Oblique-75" transform="translate(188.476562 0)"/>
     <use xlink:href="#DejaVuSans-Oblique-65" transform="translate(251.855469 0)"/>
     <use xlink:href="#DejaVuSans-Oblique-6e" transform="translate(313.378906 0)"/>
     <use xlink:href="#DejaVuSans-Oblique-63" transform="translate(376.757812 0)"/>
     <use xlink:href="#DejaVuSans-Oblique-65" transform="translate(431.738281 0)"/>
     <use xlink:href="#DejaVuSans-Oblique-3a" transform="translate(493.261719 0)"/>
     <use xlink:href="#DejaVuSans-Oblique-20" transform="translate(526.953125 0)"/>
     <use xlink:href="#DejaVuSans-Oblique-5b" transform="translate(558.740234 0)"/>
     <use xlink:href="#DejaVuSans-Oblique-53" transform="translate(597.753906 0)"/>
     <use xlink:href="#DejaVuSans-Oblique-65" transform="translate(661.230469 0)"/>
     <use xlink:href="#DejaVuSans-Oblique-71" transform="translate(722.753906 0)"/>
     <use xlink:href="#DejaVuSans-Oblique-5f" transform="translate(786.230469 0)"/>
     <use xlink:href="#DejaVuSans-Oblique-4c" transform="translate(836.230469 0)"/>
     <use xlink:href="#DejaVuSans-Oblique-65" transform="translate(891.943359 0)"/>
     <use xlink:href="#DejaVuSans-Oblique-6e" transform="translate(953.466797 0)"/>
     <use xlink:href="#DejaVuSans-Oblique-2c" transform="translate(1016.845703 0)"/>
     <use xlink:href="#DejaVuSans-Oblique-20" transform="translate(1048.632812 0)"/>
     <use xlink:href="#DejaVuSans-Oblique-45" transform="translate(1080.419922 0)"/>
     <use xlink:href="#DejaVuSans-Oblique-6d" transform="translate(1143.603516 0)"/>
     <use xlink:href="#DejaVuSans-Oblique-62" transform="translate(1241.015625 0)"/>
     <use xlink:href="#DejaVuSans-Oblique-65" transform="translate(1304.492188 0)"/>
     <use xlink:href="#DejaVuSans-Oblique-64" transform="translate(1366.015625 0)"/>
     <use xlink:href="#DejaVuSans-Oblique-5f" transform="translate(1429.492188 0)"/>
     <use xlink:href="#DejaVuSans-Oblique-44" transform="translate(1479.492188 0)"/>
     <use xlink:href="#DejaVuSans-Oblique-69" transform="translate(1556.494141 0)"/>
     <use xlink:href="#DejaVuSans-Oblique-6d" transform="translate(1584.277344 0)"/>
     <use xlink:href="#DejaVuSans-Oblique-5d" transform="translate(1681.689453 0)"/>
    </g>
   </g>
   <g id="text_4">
    <!-- Positional Encoding -->
    <g style="fill: #111111" transform="translate(252.429609 154.998281) scale(0.09 -0.09)">
     <defs>
      <path id="DejaVuSans-Bold-45" d="M 588 4666 
L 3834 4666 
L 3834 3756 
L 1791 3756 
L 1791 2888 
L 3713 2888 
L 3713 1978 
L 1791 1978 
L 1791 909 
L 3903 909 
L 3903 0 
L 588 0 
L 588 4666 
z
" transform="scale(0.015625)"/>
      <path id="DejaVuSans-Bold-64" d="M 2919 2988 
L 2919 4863 
L 4044 4863 
L 4044 0 
L 2919 0 
L 2919 506 
Q 2688 197 2409 53 
Q 2131 -91 1766 -91 
Q 1119 -91 703 423 
Q 288 938 288 1747 
Q 288 2556 703 3070 
Q 1119 3584 1766 3584 
Q 2128 3584 2408 3439 
Q 2688 3294 2919 2988 
z
M 2181 722 
Q 2541 722 2730 984 
Q 2919 1247 2919 1747 
Q 2919 2247 2730 2509 
Q 2541 2772 2181 2772 
Q 1825 2772 1636 2509 
Q 1447 2247 1447 1747 
Q 1447 1247 1636 984 
Q 1825 722 2181 722 
z
" transform="scale(0.015625)"/>
     </defs>
     <use xlink:href="#DejaVuSans-Bold-50"/>
     <use xlink:href="#DejaVuSans-Bold-6f" transform="translate(73.291016 0)"/>
     <use xlink:href="#DejaVuSans-Bold-73" transform="translate(141.992188 0)"/>
     <use xlink:href="#DejaVuSans-Bold-69" transform="translate(201.513672 0)"/>
     <use xlink:href="#DejaVuSans-Bold-74" transform="translate(235.791016 0)"/>
     <use xlink:href="#DejaVuSans-Bold-69" transform="translate(283.59375 0)"/>
     <use xlink:href="#DejaVuSans-Bold-6f" transform="translate(317.871094 0)"/>
     <use xlink:href="#DejaVuSans-Bold-6e" transform="translate(386.572266 0)"/>
     <use xlink:href="#DejaVuSans-Bold-61" transform="translate(457.763672 0)"/>
     <use xlink:href="#DejaVuSans-Bold-6c" transform="translate(525.244141 0)"/>
     <use xlink:href="#DejaVuSans-Bold-20" transform="translate(559.521484 0)"/>
     <use xlink:href="#DejaVuSans-Bold-45" transform="translate(594.335938 0)"/>
     <use xlink:href="#DejaVuSans-Bold-6e" transform="translate(662.646484 0)"/>
     <use xlink:href="#DejaVuSans-Bold-63" transform="translate(733.837891 0)"/>
     <use xlink:href="#DejaVuSans-Bold-6f" transform="translate(793.115234 0)"/>
     <use xlink:href="#DejaVuSans-Bold-64" transform="translate(861.816406 0)"/>
     <use xlink:href="#DejaVuSans-Bold-69" transform="translate(933.398438 0)"/>
     <use xlink:href="#DejaVuSans-Bold-6e" transform="translate(967.675781 0)"/>
     <use xlink:href="#DejaVuSans-Bold-67" transform="translate(1038.867188 0)"/>
    </g>
   </g>
   <g id="text_5">
    <!-- Sinusoidal / Learnable Add -->
    <g style="fill: #555555" transform="translate(252.407812 166.589531) scale(0.075 -0.075)">
     <defs>
      <path id="DejaVuSans-Oblique-73" d="M 3200 3397 
L 3091 2853 
Q 2863 2978 2609 3040 
Q 2356 3103 2088 3103 
Q 1634 3103 1373 2948 
Q 1113 2794 1113 2528 
Q 1113 2219 1719 2053 
Q 1766 2041 1788 2034 
L 1972 1978 
Q 2547 1819 2739 1644 
Q 2931 1469 2931 1166 
Q 2931 609 2489 259 
Q 2047 -91 1331 -91 
Q 1053 -91 747 -37 
Q 441 16 72 128 
L 184 722 
Q 500 559 806 475 
Q 1113 391 1394 391 
Q 1816 391 2080 572 
Q 2344 753 2344 1031 
Q 2344 1331 1650 1516 
L 1591 1531 
L 1394 1581 
Q 956 1697 753 1886 
Q 550 2075 550 2369 
Q 550 2928 970 3256 
Q 1391 3584 2113 3584 
Q 2397 3584 2667 3537 
Q 2938 3491 3200 3397 
z
" transform="scale(0.015625)"/>
      <path id="DejaVuSans-Oblique-6f" d="M 1625 -91 
Q 1009 -91 651 289 
Q 294 669 294 1325 
Q 294 1706 417 2101 
Q 541 2497 738 2766 
Q 1047 3184 1428 3384 
Q 1809 3584 2291 3584 
Q 2888 3584 3255 3212 
Q 3622 2841 3622 2241 
Q 3622 1825 3500 1412 
Q 3378 1000 3181 728 
Q 2875 309 2494 109 
Q 2113 -91 1625 -91 
z
M 891 1344 
Q 891 869 1089 633 
Q 1288 397 1691 397 
Q 2269 397 2648 901 
Q 3028 1406 3028 2181 
Q 3028 2634 2825 2865 
Q 2622 3097 2228 3097 
Q 1903 3097 1650 2945 
Q 1397 2794 1197 2484 
Q 1050 2253 970 1956 
Q 891 1659 891 1344 
z
" transform="scale(0.015625)"/>
      <path id="DejaVuSans-Oblique-61" d="M 3438 1997 
L 3047 0 
L 2472 0 
L 2578 531 
Q 2325 219 2001 64 
Q 1678 -91 1281 -91 
Q 834 -91 548 182 
Q 263 456 263 884 
Q 263 1497 752 1853 
Q 1241 2209 2100 2209 
L 2900 2209 
L 2931 2363 
Q 2938 2388 2941 2417 
Q 2944 2447 2944 2509 
Q 2944 2788 2717 2942 
Q 2491 3097 2081 3097 
Q 1800 3097 1504 3025 
Q 1209 2953 897 2809 
L 997 3341 
Q 1322 3463 1633 3523 
Q 1944 3584 2234 3584 
Q 2853 3584 3176 3315 
Q 3500 3047 3500 2534 
Q 3500 2431 3484 2292 
Q 3469 2153 3438 1997 
z
M 2816 1759 
L 2241 1759 
Q 1534 1759 1195 1570 
Q 856 1381 856 984 
Q 856 709 1029 553 
Q 1203 397 1509 397 
Q 1978 397 2328 733 
Q 2678 1069 2791 1631 
L 2816 1759 
z
" transform="scale(0.015625)"/>
      <path id="DejaVuSans-Oblique-6c" d="M 1172 4863 
L 1747 4863 
L 800 0 
L 225 0 
L 1172 4863 
z
" transform="scale(0.015625)"/>
      <path id="DejaVuSans-Oblique-2f" d="M 2175 4666 
L 2731 4666 
L 84 -594 
L -469 -594 
L 2175 4666 
z
" transform="scale(0.015625)"/>
      <path id="DejaVuSans-Oblique-72" d="M 2853 2969 
Q 2766 3016 2653 3041 
Q 2541 3066 2413 3066 
Q 1953 3066 1609 2717 
Q 1266 2369 1153 1784 
L 800 0 
L 225 0 
L 909 3500 
L 1484 3500 
L 1375 2956 
Q 1603 3259 1920 3421 
Q 2238 3584 2597 3584 
Q 2691 3584 2781 3573 
Q 2872 3563 2963 3538 
L 2853 2969 
z
" transform="scale(0.015625)"/>
      <path id="DejaVuSans-Oblique-41" d="M 2356 4666 
L 3072 4666 
L 3938 0 
L 3278 0 
L 3084 1197 
L 984 1197 
L 325 0 
L -341 0 
L 2356 4666 
z
M 2584 4044 
L 1275 1722 
L 2988 1722 
L 2584 4044 
z
" transform="scale(0.015625)"/>
     </defs>
     <use xlink:href="#DejaVuSans-Oblique-53"/>
     <use xlink:href="#DejaVuSans-Oblique-69" transform="translate(63.476562 0)"/>
     <use xlink:href="#DejaVuSans-Oblique-6e" transform="translate(91.259766 0)"/>
     <use xlink:href="#DejaVuSans-Oblique-75" transform="translate(154.638672 0)"/>
     <use xlink:href="#DejaVuSans-Oblique-73" transform="translate(218.017578 0)"/>
     <use xlink:href="#DejaVuSans-Oblique-6f" transform="translate(270.117188 0)"/>
     <use xlink:href="#DejaVuSans-Oblique-69" transform="translate(331.298828 0)"/>
     <use xlink:href="#DejaVuSans-Oblique-64" transform="translate(359.082031 0)"/>
     <use xlink:href="#DejaVuSans-Oblique-61" transform="translate(422.558594 0)"/>
     <use xlink:href="#DejaVuSans-Oblique-6c" transform="translate(483.837891 0)"/>
     <use xlink:href="#DejaVuSans-Oblique-20" transform="translate(511.621094 0)"/>
     <use xlink:href="#DejaVuSans-Oblique-2f" transform="translate(543.408203 0)"/>
     <use xlink:href="#DejaVuSans-Oblique-20" transform="translate(577.099609 0)"/>
     <use xlink:href="#DejaVuSans-Oblique-4c" transform="translate(608.886719 0)"/>
     <use xlink:href="#DejaVuSans-Oblique-65" transform="translate(664.599609 0)"/>
     <use xlink:href="#DejaVuSans-Oblique-61" transform="translate(726.123047 0)"/>
     <use xlink:href="#DejaVuSans-Oblique-72" transform="translate(787.402344 0)"/>
     <use xlink:href="#DejaVuSans-Oblique-6e" transform="translate(828.515625 0)"/>
     <use xlink:href="#DejaVuSans-Oblique-61" transform="translate(891.894531 0)"/>
     <use xlink:href="#DejaVuSans-Oblique-62" transform="translate(953.173828 0)"/>
     <use xlink:href="#DejaVuSans-Oblique-6c" transform="translate(1016.650391 0)"/>
     <use xlink:href="#DejaVuSans-Oblique-65" transform="translate(1044.433594 0)"/>
     <use xlink:href="#DejaVuSans-Oblique-20" transform="translate(1105.957031 0)"/>
     <use xlink:href="#DejaVuSans-Oblique-41" transform="translate(1137.744141 0)"/>
     <use xlink:href="#DejaVuSans-Oblique-64" transform="translate(1206.152344 0)"/>
     <use xlink:href="#DejaVuSans-Oblique-64" transform="translate(1269.628906 0)"/>
    </g>
   </g>
   <g id="patch_9">
    <path d="M 302.4 115.220566 
Q 302.4 126.898846 302.4 136.900074 
" style="fill: none; stroke: #1f77b4; stroke-width: 1.5; stroke-linecap: round"/>
    <path d="M 304.8 132.100074 
L 302.4 136.900074 
L 300 132.100074 
z
" style="fill: #1f77b4; stroke: #1f77b4; stroke-width: 1.5; stroke-linecap: round"/>
   </g>
   <g id="text_6">
    <!-- Channel Split (50/50) -->
    <g style="fill: #111111" transform="translate(248.743125 217.619438) scale(0.09 -0.09)">
     <defs>
      <path id="DejaVuSans-Bold-43" d="M 4288 256 
Q 3956 84 3597 -3 
Q 3238 -91 2847 -91 
Q 1681 -91 1000 561 
Q 319 1213 319 2328 
Q 319 3447 1000 4098 
Q 1681 4750 2847 4750 
Q 3238 4750 3597 4662 
Q 3956 4575 4288 4403 
L 4288 3438 
Q 3953 3666 3628 3772 
Q 3303 3878 2944 3878 
Q 2300 3878 1931 3465 
Q 1563 3053 1563 2328 
Q 1563 1606 1931 1193 
Q 2300 781 2944 781 
Q 3303 781 3628 887 
Q 3953 994 4288 1222 
L 4288 256 
z
" transform="scale(0.015625)"/>
      <path id="DejaVuSans-Bold-28" d="M 2413 -844 
L 1484 -844 
Q 1006 -72 778 623 
Q 550 1319 550 2003 
Q 550 2688 779 3389 
Q 1009 4091 1484 4856 
L 2413 4856 
Q 2013 4116 1813 3408 
Q 1613 2700 1613 2009 
Q 1613 1319 1811 609 
Q 2009 -100 2413 -844 
z
" transform="scale(0.015625)"/>
      <path id="DejaVuSans-Bold-35" d="M 678 4666 
L 3669 4666 
L 3669 3781 
L 1638 3781 
L 1638 3059 
Q 1775 3097 1914 3117 
Q 2053 3138 2203 3138 
Q 3056 3138 3531 2711 
Q 4006 2284 4006 1522 
Q 4006 766 3489 337 
Q 2972 -91 2053 -91 
Q 1656 -91 1267 -14 
Q 878 63 494 219 
L 494 1166 
Q 875 947 1217 837 
Q 1559 728 1863 728 
Q 2300 728 2551 942 
Q 2803 1156 2803 1522 
Q 2803 1891 2551 2103 
Q 2300 2316 1863 2316 
Q 1603 2316 1309 2248 
Q 1016 2181 678 2041 
L 678 4666 
z
" transform="scale(0.015625)"/>
      <path id="DejaVuSans-Bold-30" d="M 2944 2338 
Q 2944 3213 2780 3570 
Q 2616 3928 2228 3928 
Q 1841 3928 1675 3570 
Q 1509 3213 1509 2338 
Q 1509 1453 1675 1090 
Q 1841 728 2228 728 
Q 2613 728 2778 1090 
Q 2944 1453 2944 2338 
z
M 4147 2328 
Q 4147 1169 3647 539 
Q 3147 -91 2228 -91 
Q 1306 -91 806 539 
Q 306 1169 306 2328 
Q 306 3491 806 4120 
Q 1306 4750 2228 4750 
Q 3147 4750 3647 4120 
Q 4147 3491 4147 2328 
z
" transform="scale(0.015625)"/>
      <path id="DejaVuSans-Bold-2f" d="M 1644 4666 
L 2338 4666 
L 691 -594 
L 0 -594 
L 1644 4666 
z
" transform="scale(0.015625)"/>
      <path id="DejaVuSans-Bold-29" d="M 513 -844 
Q 913 -100 1113 609 
Q 1313 1319 1313 2009 
Q 1313 2700 1113 3408 
Q 913 4116 513 4856 
L 1441 4856 
Q 1916 4091 2145 3389 
Q 2375 2688 2375 2003 
Q 2375 1319 2147 623 
Q 1919 -72 1441 -844 
L 513 -844 
z
" transform="scale(0.015625)"/>
     </defs>
     <use xlink:href="#DejaVuSans-Bold-43"/>
     <use xlink:href="#DejaVuSans-Bold-68" transform="translate(73.388672 0)"/>
     <use xlink:href="#DejaVuSans-Bold-61" transform="translate(144.580078 0)"/>
     <use xlink:href="#DejaVuSans-Bold-6e" transform="translate(212.060547 0)"/>
     <use xlink:href="#DejaVuSans-Bold-6e" transform="translate(283.251953 0)"/>
     <use xlink:href="#DejaVuSans-Bold-65" transform="translate(354.443359 0)"/>
     <use xlink:href="#DejaVuSans-Bold-6c" transform="translate(422.265625 0)"/>
     <use xlink:href="#DejaVuSans-Bold-20" transform="translate(456.542969 0)"/>
     <use xlink:href="#DejaVuSans-Bold-53" transform="translate(491.357422 0)"/>
     <use xlink:href="#DejaVuSans-Bold-70" transform="translate(563.378906 0)"/>
     <use xlink:href="#DejaVuSans-Bold-6c" transform="translate(634.960938 0)"/>
     <use xlink:href="#DejaVuSans-Bold-69" transform="translate(669.238281 0)"/>
     <use xlink:href="#DejaVuSans-Bold-74" transform="translate(703.515625 0)"/>
     <use xlink:href="#DejaVuSans-Bold-20" transform="translate(751.318359 0)"/>
     <use xlink:href="#DejaVuSans-Bold-28" transform="translate(786.132812 0)"/>
     <use xlink:href="#DejaVuSans-Bold-35" transform="translate(831.835938 0)"/>
     <use xlink:href="#DejaVuSans-Bold-30" transform="translate(901.416016 0)"/>
     <use xlink:href="#DejaVuSans-Bold-2f" transform="translate(970.996094 0)"/>
     <use xlink:href="#DejaVuSans-Bold-35" transform="translate(1007.519531 0)"/>
     <use xlink:href="#DejaVuSans-Bold-30" transform="translate(1077.099609 0)"/>
     <use xlink:href="#DejaVuSans-Bold-29" transform="translate(1146.679688 0)"/>
    </g>
   </g>
   <g id="text_7">
    <!-- Split along embedding dimension -->
    <g style="fill: #555555" transform="translate(239.483789 226.781531) scale(0.075 -0.075)">
     <defs>
      <path id="DejaVuSans-Oblique-70" d="M 3175 2156 
Q 3175 2616 2975 2859 
Q 2775 3103 2400 3103 
Q 2144 3103 1911 2972 
Q 1678 2841 1497 2591 
Q 1319 2344 1212 1994 
Q 1106 1644 1106 1300 
Q 1106 863 1306 627 
Q 1506 391 1875 391 
Q 2147 391 2380 519 
Q 2613 647 2778 891 
Q 2956 1147 3065 1494 
Q 3175 1841 3175 2156 
z
M 1394 2969 
Q 1625 3272 1939 3428 
Q 2253 3584 2638 3584 
Q 3175 3584 3472 3232 
Q 3769 2881 3769 2247 
Q 3769 1728 3584 1258 
Q 3400 788 3053 416 
Q 2822 169 2531 39 
Q 2241 -91 1919 -91 
Q 1547 -91 1294 64 
Q 1041 219 916 525 
L 556 -1331 
L -19 -1331 
L 922 3500 
L 1497 3500 
L 1394 2969 
z
" transform="scale(0.015625)"/>
      <path id="DejaVuSans-Oblique-74" d="M 2706 3500 
L 2619 3053 
L 1472 3053 
L 1100 1153 
Q 1081 1047 1072 975 
Q 1063 903 1063 863 
Q 1063 663 1183 572 
Q 1303 481 1569 481 
L 2150 481 
L 2053 0 
L 1503 0 
Q 991 0 739 200 
Q 488 400 488 806 
Q 488 878 497 964 
Q 506 1050 525 1153 
L 897 3053 
L 409 3053 
L 500 3500 
L 978 3500 
L 1172 4494 
L 1747 4494 
L 1556 3500 
L 2706 3500 
z
" transform="scale(0.015625)"/>
      <path id="DejaVuSans-Oblique-67" d="M 3816 3500 
L 3219 434 
Q 3047 -456 2561 -893 
Q 2075 -1331 1253 -1331 
Q 950 -1331 690 -1286 
Q 431 -1241 206 -1147 
L 313 -588 
Q 525 -725 762 -790 
Q 1000 -856 1269 -856 
Q 1816 -856 2167 -557 
Q 2519 -259 2631 300 
L 2681 563 
Q 2441 288 2122 144 
Q 1803 0 1434 0 
Q 903 0 598 351 
Q 294 703 294 1319 
Q 294 1803 478 2267 
Q 663 2731 997 3091 
Q 1219 3328 1514 3456 
Q 1809 3584 2131 3584 
Q 2484 3584 2746 3420 
Q 3009 3256 3138 2956 
L 3238 3500 
L 3816 3500 
z
M 2950 2216 
Q 2950 2641 2750 2872 
Q 2550 3103 2181 3103 
Q 1953 3103 1747 3012 
Q 1541 2922 1394 2759 
Q 1156 2491 1023 2127 
Q 891 1763 891 1375 
Q 891 944 1092 712 
Q 1294 481 1672 481 
Q 2219 481 2584 976 
Q 2950 1472 2950 2216 
z
" transform="scale(0.015625)"/>
     </defs>
     <use xlink:href="#DejaVuSans-Oblique-53"/>
     <use xlink:href="#DejaVuSans-Oblique-70" transform="translate(63.476562 0)"/>
     <use xlink:href="#DejaVuSans-Oblique-6c" transform="translate(126.953125 0)"/>
     <use xlink:href="#DejaVuSans-Oblique-69" transform="translate(154.736328 0)"/>
     <use xlink:href="#DejaVuSans-Oblique-74" transform="translate(182.519531 0)"/>
     <use xlink:href="#DejaVuSans-Oblique-20" transform="translate(221.728516 0)"/>
     <use xlink:href="#DejaVuSans-Oblique-61" transform="translate(253.515625 0)"/>
     <use xlink:href="#DejaVuSans-Oblique-6c" transform="translate(314.794922 0)"/>
     <use xlink:href="#DejaVuSans-Oblique-6f" transform="translate(342.578125 0)"/>
     <use xlink:href="#DejaVuSans-Oblique-6e" transform="translate(403.759766 0)"/>
     <use xlink:href="#DejaVuSans-Oblique-67" transform="translate(467.138672 0)"/>
     <use xlink:href="#DejaVuSans-Oblique-20" transform="translate(530.615234 0)"/>
     <use xlink:href="#DejaVuSans-Oblique-65" transform="translate(562.402344 0)"/>
     <use xlink:href="#DejaVuSans-Oblique-6d" transform="translate(623.925781 0)"/>
     <use xlink:href="#DejaVuSans-Oblique-62" transform="translate(721.337891 0)"/>
     <use xlink:href="#DejaVuSans-Oblique-65" transform="translate(784.814453 0)"/>
     <use xlink:href="#DejaVuSans-Oblique-64" transform="translate(846.337891 0)"/>
     <use xlink:href="#DejaVuSans-Oblique-64" transform="translate(909.814453 0)"/>
     <use xlink:href="#DejaVuSans-Oblique-69" transform="translate(973.291016 0)"/>
     <use xlink:href="#DejaVuSans-Oblique-6e" transform="translate(1001.074219 0)"/>
     <use xlink:href="#DejaVuSans-Oblique-67" transform="translate(1064.453125 0)"/>
     <use xlink:href="#DejaVuSans-Oblique-20" transform="translate(1127.929688 0)"/>
     <use xlink:href="#DejaVuSans-Oblique-64" transform="translate(1159.716797 0)"/>
     <use xlink:href="#DejaVuSans-Oblique-69" transform="translate(1223.193359 0)"/>
     <use xlink:href="#DejaVuSans-Oblique-6d" transform="translate(1250.976562 0)"/>
     <use xlink:href="#DejaVuSans-Oblique-65" transform="translate(1348.388672 0)"/>
     <use xlink:href="#DejaVuSans-Oblique-6e" transform="translate(1409.912109 0)"/>
     <use xlink:href="#DejaVuSans-Oblique-73" transform="translate(1473.291016 0)"/>
     <use xlink:href="#DejaVuSans-Oblique-69" transform="translate(1525.390625 0)"/>
     <use xlink:href="#DejaVuSans-Oblique-6f" transform="translate(1553.173828 0)"/>
     <use xlink:href="#DejaVuSans-Oblique-6e" transform="translate(1614.355469 0)"/>
    </g>
   </g>
   <g id="patch_10">
    <path d="M 302.4 176.782654 
Q 302.4 190.171918 302.4 201.884132 
" style="fill: none; stroke: #1f77b4; stroke-width: 1.5; stroke-linecap: round"/>
    <path d="M 304.8 197.084132 
L 302.4 201.884132 
L 300 197.084132 
z
" style="fill: #1f77b4; stroke: #1f77b4; stroke-width: 1.5; stroke-linecap: round"/>
   </g>
   <g id="text_8">
    <!-- Ventral Transformer -->
    <g style="fill: #111111" transform="translate(103.852266 271.027266) scale(0.09 -0.09)">
     <defs>
      <path id="DejaVuSans-Bold-56" d="M 31 4666 
L 1241 4666 
L 2478 1222 
L 3713 4666 
L 4922 4666 
L 3194 0 
L 1759 0 
L 31 4666 
z
" transform="scale(0.015625)"/>
      <path id="DejaVuSans-Bold-66" d="M 2841 4863 
L 2841 4128 
L 2222 4128 
Q 1984 4128 1890 4042 
Q 1797 3956 1797 3744 
L 1797 3500 
L 2753 3500 
L 2753 2700 
L 1797 2700 
L 1797 0 
L 678 0 
L 678 2700 
L 122 2700 
L 122 3500 
L 678 3500 
L 678 3744 
Q 678 4316 997 4589 
Q 1316 4863 1984 4863 
L 2841 4863 
z
" transform="scale(0.015625)"/>
     </defs>
     <use xlink:href="#DejaVuSans-Bold-56"/>
     <use xlink:href="#DejaVuSans-Bold-65" transform="translate(71.892578 0)"/>
     <use xlink:href="#DejaVuSans-Bold-6e" transform="translate(139.714844 0)"/>
     <use xlink:href="#DejaVuSans-Bold-74" transform="translate(210.90625 0)"/>
     <use xlink:href="#DejaVuSans-Bold-72" transform="translate(258.708984 0)"/>
     <use xlink:href="#DejaVuSans-Bold-61" transform="translate(308.025391 0)"/>
     <use xlink:href="#DejaVuSans-Bold-6c" transform="translate(375.505859 0)"/>
     <use xlink:href="#DejaVuSans-Bold-20" transform="translate(409.783203 0)"/>
     <use xlink:href="#DejaVuSans-Bold-54" transform="translate(444.597656 0)"/>
     <use xlink:href="#DejaVuSans-Bold-72" transform="translate(501.810547 0)"/>
     <use xlink:href="#DejaVuSans-Bold-61" transform="translate(551.126953 0)"/>
     <use xlink:href="#DejaVuSans-Bold-6e" transform="translate(618.607422 0)"/>
     <use xlink:href="#DejaVuSans-Bold-73" transform="translate(689.798828 0)"/>
     <use xlink:href="#DejaVuSans-Bold-66" transform="translate(749.320312 0)"/>
     <use xlink:href="#DejaVuSans-Bold-6f" transform="translate(792.826172 0)"/>
     <use xlink:href="#DejaVuSans-Bold-72" transform="translate(861.527344 0)"/>
     <use xlink:href="#DejaVuSans-Bold-6d" transform="translate(910.84375 0)"/>
     <use xlink:href="#DejaVuSans-Bold-65" transform="translate(1015.042969 0)"/>
     <use xlink:href="#DejaVuSans-Bold-72" transform="translate(1082.865234 0)"/>
    </g>
    <!-- (What Pathway) -->
    <g style="fill: #111111" transform="translate(114.207187 281.105297) scale(0.09 -0.09)">
     <defs>
      <path id="DejaVuSans-Bold-57" d="M 191 4666 
L 1344 4666 
L 2150 1275 
L 2950 4666 
L 4109 4666 
L 4909 1275 
L 5716 4666 
L 6859 4666 
L 5759 0 
L 4372 0 
L 3525 3547 
L 2688 0 
L 1300 0 
L 191 4666 
z
" transform="scale(0.015625)"/>
      <path id="DejaVuSans-Bold-77" d="M 225 3500 
L 1313 3500 
L 1900 1088 
L 2491 3500 
L 3425 3500 
L 4013 1113 
L 4603 3500 
L 5691 3500 
L 4769 0 
L 3547 0 
L 2956 2406 
L 2369 0 
L 1147 0 
L 225 3500 
z
" transform="scale(0.015625)"/>
      <path id="DejaVuSans-Bold-79" d="M 78 3500 
L 1197 3500 
L 2138 1125 
L 2938 3500 
L 4056 3500 
L 2584 -331 
Q 2363 -916 2067 -1148 
Q 1772 -1381 1288 -1381 
L 641 -1381 
L 641 -647 
L 991 -647 
Q 1275 -647 1404 -556 
Q 1534 -466 1606 -231 
L 1638 -134 
L 78 3500 
z
" transform="scale(0.015625)"/>
     </defs>
     <use xlink:href="#DejaVuSans-Bold-28"/>
     <use xlink:href="#DejaVuSans-Bold-57" transform="translate(45.703125 0)"/>
     <use xlink:href="#DejaVuSans-Bold-68" transform="translate(156.005859 0)"/>
     <use xlink:href="#DejaVuSans-Bold-61" transform="translate(227.197266 0)"/>
     <use xlink:href="#DejaVuSans-Bold-74" transform="translate(294.677734 0)"/>
     <use xlink:href="#DejaVuSans-Bold-20" transform="translate(342.480469 0)"/>
     <use xlink:href="#DejaVuSans-Bold-50" transform="translate(377.294922 0)"/>
     <use xlink:href="#DejaVuSans-Bold-61" transform="translate(447.960938 0)"/>
     <use xlink:href="#DejaVuSans-Bold-74" transform="translate(515.441406 0)"/>
     <use xlink:href="#DejaVuSans-Bold-68" transform="translate(563.244141 0)"/>
     <use xlink:href="#DejaVuSans-Bold-77" transform="translate(634.435547 0)"/>
     <use xlink:href="#DejaVuSans-Bold-61" transform="translate(726.818359 0)"/>
     <use xlink:href="#DejaVuSans-Bold-79" transform="translate(791.173828 0)"/>
     <use xlink:href="#DejaVuSans-Bold-29" transform="translate(856.359375 0)"/>
    </g>
   </g>
   <g id="text_9">
    <!-- Identity / Texture (0.5 * Dim) -->
    <g style="fill: #555555" transform="translate(100.809375 292.445531) scale(0.075 -0.075)">
     <defs>
      <path id="DejaVuSans-Oblique-49" d="M 1081 4666 
L 1716 4666 
L 806 0 
L 172 0 
L 1081 4666 
z
" transform="scale(0.015625)"/>
      <path id="DejaVuSans-Oblique-79" d="M 1588 -325 
Q 1188 -997 936 -1164 
Q 684 -1331 294 -1331 
L -159 -1331 
L -63 -850 
L 269 -850 
Q 509 -850 678 -719 
Q 847 -588 1056 -206 
L 1234 128 
L 459 3500 
L 1069 3500 
L 1650 819 
L 3256 3500 
L 3859 3500 
L 1588 -325 
z
" transform="scale(0.015625)"/>
      <path id="DejaVuSans-Oblique-54" d="M 378 4666 
L 4325 4666 
L 4225 4134 
L 2559 4134 
L 1759 0 
L 1125 0 
L 1925 4134 
L 275 4134 
L 378 4666 
z
" transform="scale(0.015625)"/>
      <path id="DejaVuSans-Oblique-78" d="M 3841 3500 
L 2234 1784 
L 3219 0 
L 2559 0 
L 1819 1388 
L 531 0 
L -166 0 
L 1556 1844 
L 641 3500 
L 1300 3500 
L 1972 2234 
L 3144 3500 
L 3841 3500 
z
" transform="scale(0.015625)"/>
      <path id="DejaVuSans-Oblique-28" d="M 2731 4856 
Q 1903 3822 1495 2892 
Q 1088 1963 1088 1100 
Q 1088 606 1206 120 
Q 1325 -366 1563 -844 
L 1063 -844 
Q 775 -306 634 201 
Q 494 709 494 1197 
Q 494 2125 923 3036 
Q 1353 3947 2222 4856 
L 2731 4856 
z
" transform="scale(0.015625)"/>
      <path id="DejaVuSans-Oblique-30" d="M 2444 4750 
Q 3078 4750 3414 4328 
Q 3750 3906 3750 3116 
Q 3750 2516 3592 1923 
Q 3434 1331 3150 863 
Q 2859 394 2467 151 
Q 2075 -91 1600 -91 
Q 988 -91 653 334 
Q 319 759 319 1544 
Q 319 2138 480 2733 
Q 641 3328 928 3794 
Q 1216 4263 1602 4506 
Q 1988 4750 2444 4750 
z
M 2406 4250 
Q 2169 4250 1955 4123 
Q 1741 3997 1569 3750 
Q 1281 3338 1111 2720 
Q 941 2103 941 1453 
Q 941 938 1123 673 
Q 1306 409 1663 409 
Q 1913 409 2125 536 
Q 2338 663 2509 909 
Q 2794 1319 2961 1936 
Q 3128 2553 3128 3206 
Q 3128 3722 2945 3986 
Q 2763 4250 2406 4250 
z
" transform="scale(0.015625)"/>
      <path id="DejaVuSans-Oblique-2e" d="M 525 794 
L 1184 794 
L 1031 0 
L 372 0 
L 525 794 
z
" transform="scale(0.015625)"/>
      <path id="DejaVuSans-Oblique-35" d="M 3719 4666 
L 3622 4141 
L 1691 4141 
L 1466 2988 
Q 1609 3034 1757 3056 
Q 1906 3078 2059 3078 
Q 2706 3078 3081 2731 
Q 3456 2384 3456 1791 
Q 3456 1375 3264 994 
Q 3072 613 2719 325 
Q 2469 125 2108 17 
Q 1747 -91 1319 -91 
Q 1038 -91 744 -41 
Q 450 9 128 109 
L 244 697 
Q 531 556 820 486 
Q 1109 416 1403 416 
Q 2013 416 2411 781 
Q 2809 1147 2809 1697 
Q 2809 2103 2548 2328 
Q 2288 2553 1819 2553 
Q 1572 2553 1305 2495 
Q 1038 2438 756 2322 
L 1209 4666 
L 3719 4666 
z
" transform="scale(0.015625)"/>
      <path id="DejaVuSans-Oblique-2a" d="M 3009 3897 
L 1888 3291 
L 3009 2681 
L 2828 2375 
L 1778 3009 
L 1778 1831 
L 1422 1831 
L 1422 3009 
L 372 2375 
L 191 2681 
L 1313 3291 
L 191 3897 
L 372 4206 
L 1422 3572 
L 1422 4750 
L 1778 4750 
L 1778 3572 
L 2828 4206 
L 3009 3897 
z
" transform="scale(0.015625)"/>
      <path id="DejaVuSans-Oblique-29" d="M -397 -844 
Q 434 191 840 1120 
Q 1247 2050 1247 2913 
Q 1247 3406 1130 3892 
Q 1013 4378 775 4856 
L 1275 4856 
Q 1563 4316 1703 3812 
Q 1844 3309 1844 2822 
Q 1844 1891 1411 973 
Q 978 56 116 -844 
L -397 -844 
z
" transform="scale(0.015625)"/>
     </defs>
     <use xlink:href="#DejaVuSans-Oblique-49"/>
     <use xlink:href="#DejaVuSans-Oblique-64" transform="translate(29.492188 0)"/>
     <use xlink:href="#DejaVuSans-Oblique-65" transform="translate(92.96875 0)"/>
     <use xlink:href="#DejaVuSans-Oblique-6e" transform="translate(154.492188 0)"/>
     <use xlink:href="#DejaVuSans-Oblique-74" transform="translate(217.871094 0)"/>
     <use xlink:href="#DejaVuSans-Oblique-69" transform="translate(257.080078 0)"/>
     <use xlink:href="#DejaVuSans-Oblique-74" transform="translate(284.863281 0)"/>
     <use xlink:href="#DejaVuSans-Oblique-79" transform="translate(324.072266 0)"/>
     <use xlink:href="#DejaVuSans-Oblique-20" transform="translate(383.251953 0)"/>
     <use xlink:href="#DejaVuSans-Oblique-2f" transform="translate(415.039062 0)"/>
     <use xlink:href="#DejaVuSans-Oblique-20" transform="translate(448.730469 0)"/>
     <use xlink:href="#DejaVuSans-Oblique-54" transform="translate(480.517578 0)"/>
     <use xlink:href="#DejaVuSans-Oblique-65" transform="translate(529.226562 0)"/>
     <use xlink:href="#DejaVuSans-Oblique-78" transform="translate(590.75 0)"/>
     <use xlink:href="#DejaVuSans-Oblique-74" transform="translate(649.929688 0)"/>
     <use xlink:href="#DejaVuSans-Oblique-75" transform="translate(689.138672 0)"/>
     <use xlink:href="#DejaVuSans-Oblique-72" transform="translate(752.517578 0)"/>
     <use xlink:href="#DejaVuSans-Oblique-65" transform="translate(793.630859 0)"/>
     <use xlink:href="#DejaVuSans-Oblique-20" transform="translate(855.154297 0)"/>
     <use xlink:href="#DejaVuSans-Oblique-28" transform="translate(886.941406 0)"/>
     <use xlink:href="#DejaVuSans-Oblique-30" transform="translate(925.955078 0)"/>
     <use xlink:href="#DejaVuSans-Oblique-2e" transform="translate(989.578125 0)"/>
     <use xlink:href="#DejaVuSans-Oblique-35" transform="translate(1021.365234 0)"/>
     <use xlink:href="#DejaVuSans-Oblique-20" transform="translate(1084.988281 0)"/>
     <use xlink:href="#DejaVuSans-Oblique-2a" transform="translate(1116.775391 0)"/>
     <use xlink:href="#DejaVuSans-Oblique-20" transform="translate(1166.775391 0)"/>
     <use xlink:href="#DejaVuSans-Oblique-44" transform="translate(1198.5625 0)"/>
     <use xlink:href="#DejaVuSans-Oblique-69" transform="translate(1275.564453 0)"/>
     <use xlink:href="#DejaVuSans-Oblique-6d" transform="translate(1303.347656 0)"/>
     <use xlink:href="#DejaVuSans-Oblique-29" transform="translate(1400.759766 0)"/>
    </g>
   </g>
   <g id="text_10">
    <!-- Dorsal Transformer -->
    <g style="fill: #111111" transform="translate(401.188359 271.027266) scale(0.09 -0.09)">
     <use xlink:href="#DejaVuSans-Bold-44"/>
     <use xlink:href="#DejaVuSans-Bold-6f" transform="translate(83.007812 0)"/>
     <use xlink:href="#DejaVuSans-Bold-72" transform="translate(151.708984 0)"/>
     <use xlink:href="#DejaVuSans-Bold-73" transform="translate(201.025391 0)"/>
     <use xlink:href="#DejaVuSans-Bold-61" transform="translate(260.546875 0)"/>
     <use xlink:href="#DejaVuSans-Bold-6c" transform="translate(328.027344 0)"/>
     <use xlink:href="#DejaVuSans-Bold-20" transform="translate(362.304688 0)"/>
     <use xlink:href="#DejaVuSans-Bold-54" transform="translate(397.119141 0)"/>
     <use xlink:href="#DejaVuSans-Bold-72" transform="translate(454.332031 0)"/>
     <use xlink:href="#DejaVuSans-Bold-61" transform="translate(503.648438 0)"/>
     <use xlink:href="#DejaVuSans-Bold-6e" transform="translate(571.128906 0)"/>
     <use xlink:href="#DejaVuSans-Bold-73" transform="translate(642.320312 0)"/>
     <use xlink:href="#DejaVuSans-Bold-66" transform="translate(701.841797 0)"/>
     <use xlink:href="#DejaVuSans-Bold-6f" transform="translate(745.347656 0)"/>
     <use xlink:href="#DejaVuSans-Bold-72" transform="translate(814.048828 0)"/>
     <use xlink:href="#DejaVuSans-Bold-6d" transform="translate(863.365234 0)"/>
     <use xlink:href="#DejaVuSans-Bold-65" transform="translate(967.564453 0)"/>
     <use xlink:href="#DejaVuSans-Bold-72" transform="translate(1035.386719 0)"/>
    </g>
    <!-- (Where Pathway) -->
    <g style="fill: #111111" transform="translate(406.27125 281.105297) scale(0.09 -0.09)">
     <use xlink:href="#DejaVuSans-Bold-28"/>
     <use xlink:href="#DejaVuSans-Bold-57" transform="translate(45.703125 0)"/>
     <use xlink:href="#DejaVuSans-Bold-68" transform="translate(156.005859 0)"/>
     <use xlink:href="#DejaVuSans-Bold-65" transform="translate(227.197266 0)"/>
     <use xlink:href="#DejaVuSans-Bold-72" transform="translate(295.019531 0)"/>
     <use xlink:href="#DejaVuSans-Bold-65" transform="translate(344.335938 0)"/>
     <use xlink:href="#DejaVuSans-Bold-20" transform="translate(412.158203 0)"/>
     <use xlink:href="#DejaVuSans-Bold-50" transform="translate(446.972656 0)"/>
     <use xlink:href="#DejaVuSans-Bold-61" transform="translate(517.638672 0)"/>
     <use xlink:href="#DejaVuSans-Bold-74" transform="translate(585.119141 0)"/>
     <use xlink:href="#DejaVuSans-Bold-68" transform="translate(632.921875 0)"/>
     <use xlink:href="#DejaVuSans-Bold-77" transform="translate(704.113281 0)"/>
     <use xlink:href="#DejaVuSans-Bold-61" transform="translate(796.496094 0)"/>
     <use xlink:href="#DejaVuSans-Bold-79" transform="translate(860.851562 0)"/>
     <use xlink:href="#DejaVuSans-Bold-29" transform="translate(926.037109 0)"/>
    </g>
   </g>
   <g id="text_11">
    <!-- Spatial Layout (0.5 * Dim) -->
    <g style="fill: #555555" transform="translate(401.226562 292.445531) scale(0.075 -0.075)">
     <use xlink:href="#DejaVuSans-Oblique-53"/>
     <use xlink:href="#DejaVuSans-Oblique-70" transform="translate(63.476562 0)"/>
     <use xlink:href="#DejaVuSans-Oblique-61" transform="translate(126.953125 0)"/>
     <use xlink:href="#DejaVuSans-Oblique-74" transform="translate(188.232422 0)"/>
     <use xlink:href="#DejaVuSans-Oblique-69" transform="translate(227.441406 0)"/>
     <use xlink:href="#DejaVuSans-Oblique-61" transform="translate(255.224609 0)"/>
     <use xlink:href="#DejaVuSans-Oblique-6c" transform="translate(316.503906 0)"/>
     <use xlink:href="#DejaVuSans-Oblique-20" transform="translate(344.287109 0)"/>
     <use xlink:href="#DejaVuSans-Oblique-4c" transform="translate(376.074219 0)"/>
     <use xlink:href="#DejaVuSans-Oblique-61" transform="translate(431.787109 0)"/>
     <use xlink:href="#DejaVuSans-Oblique-79" transform="translate(493.066406 0)"/>
     <use xlink:href="#DejaVuSans-Oblique-6f" transform="translate(552.246094 0)"/>
     <use xlink:href="#DejaVuSans-Oblique-75" transform="translate(613.427734 0)"/>
     <use xlink:href="#DejaVuSans-Oblique-74" transform="translate(676.806641 0)"/>
     <use xlink:href="#DejaVuSans-Oblique-20" transform="translate(716.015625 0)"/>
     <use xlink:href="#DejaVuSans-Oblique-28" transform="translate(747.802734 0)"/>
     <use xlink:href="#DejaVuSans-Oblique-30" transform="translate(786.816406 0)"/>
     <use xlink:href="#DejaVuSans-Oblique-2e" transform="translate(850.439453 0)"/>
     <use xlink:href="#DejaVuSans-Oblique-35" transform="translate(882.226562 0)"/>
     <use xlink:href="#DejaVuSans-Oblique-20" transform="translate(945.849609 0)"/>
     <use xlink:href="#DejaVuSans-Oblique-2a" transform="translate(977.636719 0)"/>
     <use xlink:href="#DejaVuSans-Oblique-20" transform="translate(1027.636719 0)"/>
     <use xlink:href="#DejaVuSans-Oblique-44" transform="translate(1059.423828 0)"/>
     <use xlink:href="#DejaVuSans-Oblique-69" transform="translate(1136.425781 0)"/>
     <use xlink:href="#DejaVuSans-Oblique-6d" transform="translate(1164.208984 0)"/>
     <use xlink:href="#DejaVuSans-Oblique-29" transform="translate(1261.621094 0)"/>
    </g>
   </g>
   <g id="patch_11">
    <path d="M 247.404586 219.980506 
Q 202.030656 238.050535 158.214769 255.500079 
" style="fill: none; stroke: #1f77b4; stroke-width: 1.5; stroke-linecap: round"/>
    <path d="M 163.562115 255.953834 
L 158.214769 255.500079 
L 161.786181 251.494455 
z
" style="fill: #1f77b4; stroke: #1f77b4; stroke-width: 1.5; stroke-linecap: round"/>
   </g>
   <g id="patch_12">
    <path d="M 357.395414 219.980506 
Q 402.769344 238.050535 446.585231 255.500079 
" style="fill: none; stroke: #1f77b4; stroke-width: 1.5; stroke-linecap: round"/>
    <path d="M 443.013819 251.494455 
L 446.585231 255.500079 
L 441.237885 255.953834 
z
" style="fill: #1f77b4; stroke: #1f77b4; stroke-width: 1.5; stroke-linecap: round"/>
   </g>
   <g id="text_12">
    <!-- Concatenate &amp; Project -->
    <g style="fill: #111111" transform="translate(245.371641 346.518281) scale(0.09 -0.09)">
     <defs>
      <path id="DejaVuSans-Bold-26" d="M 2497 3097 
L 3775 1691 
Q 3941 1909 4027 2181 
Q 4113 2453 4128 2797 
L 5100 2797 
Q 5053 2228 4879 1784 
Q 4706 1341 4397 1006 
L 5313 0 
L 3988 0 
L 3681 341 
Q 3353 122 2990 15 
Q 2628 -91 2222 -91 
Q 1400 -91 892 342 
Q 384 775 384 1459 
Q 384 1916 607 2267 
Q 831 2619 1338 2950 
Q 1206 3116 1143 3281 
Q 1081 3447 1081 3628 
Q 1081 4138 1478 4444 
Q 1875 4750 2534 4750 
Q 2819 4750 3126 4704 
Q 3434 4659 3769 4569 
L 3769 3700 
Q 3475 3850 3212 3922 
Q 2950 3994 2700 3994 
Q 2459 3994 2326 3901 
Q 2194 3809 2194 3641 
Q 2194 3534 2270 3398 
Q 2347 3263 2497 3097 
z
M 1875 2322 
Q 1672 2175 1569 1989 
Q 1466 1803 1466 1581 
Q 1466 1222 1731 969 
Q 1997 716 2369 716 
Q 2578 716 2759 780 
Q 2941 844 3097 972 
L 1875 2322 
z
" transform="scale(0.015625)"/>
      <path id="DejaVuSans-Bold-6a" d="M 538 3500 
L 1656 3500 
L 1656 63 
Q 1656 -641 1318 -1011 
Q 981 -1381 341 -1381 
L -213 -1381 
L -213 -647 
L -19 -647 
Q 300 -647 419 -503 
Q 538 -359 538 63 
L 538 3500 
z
M 538 4863 
L 1656 4863 
L 1656 3950 
L 538 3950 
L 538 4863 
z
" transform="scale(0.015625)"/>
     </defs>
     <use xlink:href="#DejaVuSans-Bold-43"/>
     <use xlink:href="#DejaVuSans-Bold-6f" transform="translate(73.388672 0)"/>
     <use xlink:href="#DejaVuSans-Bold-6e" transform="translate(142.089844 0)"/>
     <use xlink:href="#DejaVuSans-Bold-63" transform="translate(213.28125 0)"/>
     <use xlink:href="#DejaVuSans-Bold-61" transform="translate(272.558594 0)"/>
     <use xlink:href="#DejaVuSans-Bold-74" transform="translate(340.039062 0)"/>
     <use xlink:href="#DejaVuSans-Bold-65" transform="translate(387.841797 0)"/>
     <use xlink:href="#DejaVuSans-Bold-6e" transform="translate(455.664062 0)"/>
     <use xlink:href="#DejaVuSans-Bold-61" transform="translate(526.855469 0)"/>
     <use xlink:href="#DejaVuSans-Bold-74" transform="translate(594.335938 0)"/>
     <use xlink:href="#DejaVuSans-Bold-65" transform="translate(642.138672 0)"/>
     <use xlink:href="#DejaVuSans-Bold-20" transform="translate(709.960938 0)"/>
     <use xlink:href="#DejaVuSans-Bold-26" transform="translate(744.775391 0)"/>
     <use xlink:href="#DejaVuSans-Bold-20" transform="translate(831.982422 0)"/>
     <use xlink:href="#DejaVuSans-Bold-50" transform="translate(866.796875 0)"/>
     <use xlink:href="#DejaVuSans-Bold-72" transform="translate(940.087891 0)"/>
     <use xlink:href="#DejaVuSans-Bold-6f" transform="translate(989.404297 0)"/>
     <use xlink:href="#DejaVuSans-Bold-6a" transform="translate(1058.105469 0)"/>
     <use xlink:href="#DejaVuSans-Bold-65" transform="translate(1092.382812 0)"/>
     <use xlink:href="#DejaVuSans-Bold-63" transform="translate(1160.205078 0)"/>
     <use xlink:href="#DejaVuSans-Bold-74" transform="translate(1219.482422 0)"/>
    </g>
   </g>
   <g id="text_13">
    <!-- Re-assemble [Seq_Len, Embed_Dim] -->
    <g style="fill: #555555" transform="translate(233.47207 358.005234) scale(0.075 -0.075)">
     <defs>
      <path id="DejaVuSans-Oblique-52" d="M 1613 4147 
L 1294 2491 
L 2106 2491 
Q 2584 2491 2879 2755 
Q 3175 3019 3175 3444 
Q 3175 3784 2976 3965 
Q 2778 4147 2406 4147 
L 1613 4147 
z
M 2772 2241 
Q 2972 2194 3105 2009 
Q 3238 1825 3413 1275 
L 3809 0 
L 3144 0 
L 2778 1197 
Q 2638 1659 2453 1815 
Q 2269 1972 1888 1972 
L 1191 1972 
L 806 0 
L 172 0 
L 1081 4666 
L 2503 4666 
Q 3150 4666 3495 4373 
Q 3841 4081 3841 3531 
Q 3841 3044 3547 2687 
Q 3253 2331 2772 2241 
z
" transform="scale(0.015625)"/>
      <path id="DejaVuSans-Oblique-2d" d="M 391 2009 
L 2075 2009 
L 1978 1497 
L 288 1497 
L 391 2009 
z
" transform="scale(0.015625)"/>
     </defs>
     <use xlink:href="#DejaVuSans-Oblique-52"/>
     <use xlink:href="#DejaVuSans-Oblique-65" transform="translate(69.482422 0)"/>
     <use xlink:href="#DejaVuSans-Oblique-2d" transform="translate(131.005859 0)"/>
     <use xlink:href="#DejaVuSans-Oblique-61" transform="translate(167.089844 0)"/>
     <use xlink:href="#DejaVuSans-Oblique-73" transform="translate(228.369141 0)"/>
     <use xlink:href="#DejaVuSans-Oblique-73" transform="translate(280.46875 0)"/>
     <use xlink:href="#DejaVuSans-Oblique-65" transform="translate(332.568359 0)"/>
     <use xlink:href="#DejaVuSans-Oblique-6d" transform="translate(394.091797 0)"/>
     <use xlink:href="#DejaVuSans-Oblique-62" transform="translate(491.503906 0)"/>
     <use xlink:href="#DejaVuSans-Oblique-6c" transform="translate(554.980469 0)"/>
     <use xlink:href="#DejaVuSans-Oblique-65" transform="translate(582.763672 0)"/>
     <use xlink:href="#DejaVuSans-Oblique-20" transform="translate(644.287109 0)"/>
     <use xlink:href="#DejaVuSans-Oblique-5b" transform="translate(676.074219 0)"/>
     <use xlink:href="#DejaVuSans-Oblique-53" transform="translate(715.087891 0)"/>
     <use xlink:href="#DejaVuSans-Oblique-65" transform="translate(778.564453 0)"/>
     <use xlink:href="#DejaVuSans-Oblique-71" transform="translate(840.087891 0)"/>
     <use xlink:href="#DejaVuSans-Oblique-5f" transform="translate(903.564453 0)"/>
     <use xlink:href="#DejaVuSans-Oblique-4c" transform="translate(953.564453 0)"/>
     <use xlink:href="#DejaVuSans-Oblique-65" transform="translate(1009.277344 0)"/>
     <use xlink:href="#DejaVuSans-Oblique-6e" transform="translate(1070.800781 0)"/>
     <use xlink:href="#DejaVuSans-Oblique-2c" transform="translate(1134.179688 0)"/>
     <use xlink:href="#DejaVuSans-Oblique-20" transform="translate(1165.966797 0)"/>
     <use xlink:href="#DejaVuSans-Oblique-45" transform="translate(1197.753906 0)"/>
     <use xlink:href="#DejaVuSans-Oblique-6d" transform="translate(1260.9375 0)"/>
     <use xlink:href="#DejaVuSans-Oblique-62" transform="translate(1358.349609 0)"/>
     <use xlink:href="#DejaVuSans-Oblique-65" transform="translate(1421.826172 0)"/>
     <use xlink:href="#DejaVuSans-Oblique-64" transform="translate(1483.349609 0)"/>
     <use xlink:href="#DejaVuSans-Oblique-5f" transform="translate(1546.826172 0)"/>
     <use xlink:href="#DejaVuSans-Oblique-44" transform="translate(1596.826172 0)"/>
     <use xlink:href="#DejaVuSans-Oblique-69" transform="translate(1673.828125 0)"/>
     <use xlink:href="#DejaVuSans-Oblique-6d" transform="translate(1701.611328 0)"/>
     <use xlink:href="#DejaVuSans-Oblique-5d" transform="translate(1799.023438 0)"/>
    </g>
   </g>
   <g id="patch_13">
    <path d="M 156.674188 305.437923 
Q 196.127061 320.12965 234.008315 334.236128 
" style="fill: none; stroke: #1f77b4; stroke-width: 1.5; stroke-linecap: round"/>
    <path d="M 230.347624 330.311929 
L 234.008315 334.236128 
L 228.672541 334.810162 
z
" style="fill: #1f77b4; stroke: #1f77b4; stroke-width: 1.5; stroke-linecap: round"/>
   </g>
   <g id="patch_14">
    <path d="M 448.125812 305.437923 
Q 408.672939 320.12965 370.791685 334.236128 
" style="fill: none; stroke: #1f77b4; stroke-width: 1.5; stroke-linecap: round"/>
    <path d="M 376.127459 334.810162 
L 370.791685 334.236128 
L 374.452376 330.311929 
z
" style="fill: #1f77b4; stroke: #1f77b4; stroke-width: 1.5; stroke-linecap: round"/>
   </g>
   <g id="text_14">
    <!-- Output Shared Representation -->
    <g style="fill: #111111" transform="translate(220.086211 399.701406) scale(0.095 -0.095)">
     <defs>
      <path id="DejaVuSans-Bold-4f" d="M 2719 3878 
Q 2169 3878 1866 3472 
Q 1563 3066 1563 2328 
Q 1563 1594 1866 1187 
Q 2169 781 2719 781 
Q 3272 781 3575 1187 
Q 3878 1594 3878 2328 
Q 3878 3066 3575 3472 
Q 3272 3878 2719 3878 
z
M 2719 4750 
Q 3844 4750 4481 4106 
Q 5119 3463 5119 2328 
Q 5119 1197 4481 553 
Q 3844 -91 2719 -91 
Q 1597 -91 958 553 
Q 319 1197 319 2328 
Q 319 3463 958 4106 
Q 1597 4750 2719 4750 
z
" transform="scale(0.015625)"/>
      <path id="DejaVuSans-Bold-52" d="M 2297 2597 
Q 2675 2597 2839 2737 
Q 3003 2878 3003 3200 
Q 3003 3519 2839 3656 
Q 2675 3794 2297 3794 
L 1791 3794 
L 1791 2597 
L 2297 2597 
z
M 1791 1766 
L 1791 0 
L 588 0 
L 588 4666 
L 2425 4666 
Q 3347 4666 3776 4356 
Q 4206 4047 4206 3378 
Q 4206 2916 3982 2619 
Q 3759 2322 3309 2181 
Q 3556 2125 3751 1926 
Q 3947 1728 4147 1325 
L 4800 0 
L 3519 0 
L 2950 1159 
Q 2778 1509 2601 1637 
Q 2425 1766 2131 1766 
L 1791 1766 
z
" transform="scale(0.015625)"/>
     </defs>
     <use xlink:href="#DejaVuSans-Bold-4f"/>
     <use xlink:href="#DejaVuSans-Bold-75" transform="translate(85.009766 0)"/>
     <use xlink:href="#DejaVuSans-Bold-74" transform="translate(156.201172 0)"/>
     <use xlink:href="#DejaVuSans-Bold-70" transform="translate(204.003906 0)"/>
     <use xlink:href="#DejaVuSans-Bold-75" transform="translate(275.585938 0)"/>
     <use xlink:href="#DejaVuSans-Bold-74" transform="translate(346.777344 0)"/>
     <use xlink:href="#DejaVuSans-Bold-20" transform="translate(394.580078 0)"/>
     <use xlink:href="#DejaVuSans-Bold-53" transform="translate(429.394531 0)"/>
     <use xlink:href="#DejaVuSans-Bold-68" transform="translate(501.416016 0)"/>
     <use xlink:href="#DejaVuSans-Bold-61" transform="translate(572.607422 0)"/>
     <use xlink:href="#DejaVuSans-Bold-72" transform="translate(640.087891 0)"/>
     <use xlink:href="#DejaVuSans-Bold-65" transform="translate(689.404297 0)"/>
     <use xlink:href="#DejaVuSans-Bold-64" transform="translate(757.226562 0)"/>
     <use xlink:href="#DejaVuSans-Bold-20" transform="translate(828.808594 0)"/>
     <use xlink:href="#DejaVuSans-Bold-52" transform="translate(863.623047 0)"/>
     <use xlink:href="#DejaVuSans-Bold-65" transform="translate(940.625 0)"/>
     <use xlink:href="#DejaVuSans-Bold-70" transform="translate(1008.447266 0)"/>
     <use xlink:href="#DejaVuSans-Bold-72" transform="translate(1080.029297 0)"/>
     <use xlink:href="#DejaVuSans-Bold-65" transform="translate(1129.345703 0)"/>
     <use xlink:href="#DejaVuSans-Bold-73" transform="translate(1197.167969 0)"/>
     <use xlink:href="#DejaVuSans-Bold-65" transform="translate(1256.689453 0)"/>
     <use xlink:href="#DejaVuSans-Bold-6e" transform="translate(1324.511719 0)"/>
     <use xlink:href="#DejaVuSans-Bold-74" transform="translate(1395.703125 0)"/>
     <use xlink:href="#DejaVuSans-Bold-61" transform="translate(1443.505859 0)"/>
     <use xlink:href="#DejaVuSans-Bold-74" transform="translate(1510.986328 0)"/>
     <use xlink:href="#DejaVuSans-Bold-69" transform="translate(1558.789062 0)"/>
     <use xlink:href="#DejaVuSans-Bold-6f" transform="translate(1593.066406 0)"/>
     <use xlink:href="#DejaVuSans-Bold-6e" transform="translate(1661.767578 0)"/>
    </g>
   </g>
   <g id="patch_15">
    <path d="M 302.4 368.299731 
Q 302.4 374.848957 302.4 379.721131 
" style="fill: none; stroke: #1f77b4; stroke-width: 1.5; stroke-linecap: round"/>
    <path d="M 304.8 374.921131 
L 302.4 379.721131 
L 300 374.921131 
z
" style="fill: #1f77b4; stroke: #1f77b4; stroke-width: 1.5; stroke-linecap: round"/>
   </g>
  </g>
 </g>
 <defs>
  <clipPath id="pff41107eac">
   <rect x="7.2" y="7.2" width="590.4" height="410.4"/>
  </clipPath>
 </defs>
</svg>
