<?xml version="1.0" encoding="utf-8" standalone="no"?>
<!DOCTYPE svg PUBLIC "-//W3C//DTD SVG 1.1//EN"
  "http://www.w3.org/Graphics/SVG/1.1/DTD/svg11.dtd">
<svg xmlns:xlink="http://www.w3.org/1999/xlink" width="712.8pt" height="460.8pt" viewBox="0 0 712.8 460.8" xmlns="http://www.w3.org/2000/svg" version="1.1">
 <metadata>
  <rdf:RDF xmlns:dc="http://purl.org/dc/elements/1.1/" xmlns:cc="http://creativecommons.org/ns#" xmlns:rdf="http://www.w3.org/1999/02/22-rdf-syntax-ns#">
   <cc:Work>
    <dc:type rdf:resource="http://purl.org/dc/dcmitype/StillImage"/>
    <dc:date>2026-07-07T07:49:27.507800</dc:date>
    <dc:format>image/svg+xml</dc:format>
    <dc:creator>
     <cc:Agent>
      <dc:title>Matplotlib v3.10.9, https://matplotlib.org/</dc:title>
     </cc:Agent>
    </dc:creator>
   </cc:Work>
  </rdf:RDF>
 </metadata>
 <defs>
  <style type="text/css">*{stroke-linejoin: round; stroke-linecap: butt}</style>
 </defs>
 <g id="figure_1">
  <g id="patch_1">
   <path d="M 0 460.8 
L 712.8 460.8 
L 712.8 0 
L 0 0 
z
" style="fill: #ffffff"/>
  </g>
  <g id="axes_1">
   <g id="patch_2">
    <path d="M 118.944 150.685714 
L 244.656 150.685714 
L 244.656 118.8 
L 118.944 118.8 
z
" clip-path="url(#p9cb5cdbdfb)" style="fill: #f8f9fa; stroke: #1f77b4; stroke-width: 1.5"/>
   </g>
   <g id="patch_3">
    <path d="M 118.944 208.08 
L 244.656 208.08 
L 244.656 176.194286 
L 118.944 176.194286 
z
" clip-path="url(#p9cb5cdbdfb)" style="fill: #f8f9fa; stroke: #1f77b4; stroke-width: 1.5"/>
   </g>
   <g id="patch_4">
    <path d="M 118.944 265.474286 
L 244.656 265.474286 
L 244.656 233.588571 
L 118.944 233.588571 
z
" clip-path="url(#p9cb5cdbdfb)" style="fill: #f8f9fa; stroke: #1f77b4; stroke-width: 1.5"/>
   </g>
   <g id="patch_5">
    <path d="M 63.072 322.868571 
L 160.848 322.868571 
L 160.848 290.982857 
L 63.072 290.982857 
z
" clip-path="url(#p9cb5cdbdfb)" style="fill: #fff0f5; stroke: #1f77b4; stroke-width: 1.5"/>
   </g>
   <g id="patch_6">
    <path d="M 202.752 322.868571 
L 300.528 322.868571 
L 300.528 290.982857 
L 202.752 290.982857 
z
" clip-path="url(#p9cb5cdbdfb)" style="fill: #e0ffff; stroke: #1f77b4; stroke-width: 1.5"/>
   </g>
   <g id="patch_7">
    <path d="M 118.944 380.262857 
L 244.656 380.262857 
L 244.656 348.377143 
L 118.944 348.377143 
z
" clip-path="url(#p9cb5cdbdfb)" style="fill: #f8f9fa; stroke: #1f77b4; stroke-width: 1.5"/>
   </g>
   <g id="patch_8">
    <path d="M 118.944 437.657143 
L 244.656 437.657143 
L 244.656 405.771429 
L 118.944 405.771429 
z
" clip-path="url(#p9cb5cdbdfb)" style="fill: #f8f9fa; stroke: #1f77b4; stroke-width: 1.5"/>
   </g>
   <g id="patch_9">
    <path d="M 461.16 150.685714 
L 600.84 150.685714 
L 600.84 118.8 
L 461.16 118.8 
z
" clip-path="url(#p9cb5cdbdfb)" style="fill: #f8f9fa; stroke: #1f77b4; stroke-width: 1.5"/>
   </g>
   <g id="patch_10">
    <path d="M 461.16 208.08 
L 600.84 208.08 
L 600.84 176.194286 
L 461.16 176.194286 
z
" clip-path="url(#p9cb5cdbdfb)" style="fill: #f8f9fa; stroke: #1f77b4; stroke-width: 1.5"/>
   </g>
   <g id="patch_11">
    <path d="M 461.16 265.474286 
L 600.84 265.474286 
L 600.84 233.588571 
L 461.16 233.588571 
z
" clip-path="url(#p9cb5cdbdfb)" style="fill: #f8f9fa; stroke: #1f77b4; stroke-width: 1.5"/>
   </g>
   <g id="patch_12">
    <path d="M 408.78 322.868571 
L 513.54 322.868571 
L 513.54 290.982857 
L 408.78 290.982857 
z
" clip-path="url(#p9cb5cdbdfb)" style="fill: #fff0f5; stroke: #1f77b4; stroke-width: 1.5"/>
   </g>
   <g id="patch_13">
    <path d="M 548.46 322.868571 
L 653.22 322.868571 
L 653.22 290.982857 
L 548.46 290.982857 
z
" clip-path="url(#p9cb5cdbdfb)" style="fill: #e0ffff; stroke: #1f77b4; stroke-width: 1.5"/>
   </g>
   <g id="patch_14">
    <path d="M 461.16 380.262857 
L 600.84 380.262857 
L 600.84 348.377143 
L 461.16 348.377143 
z
" clip-path="url(#p9cb5cdbdfb)" style="fill: #f8f9fa; stroke: #1f77b4; stroke-width: 1.5"/>
   </g>
   <g id="patch_15">
    <path d="M 461.16 437.657143 
L 600.84 437.657143 
L 600.84 405.771429 
L 461.16 405.771429 
z
" clip-path="url(#p9cb5cdbdfb)" style="fill: #f8f9fa; stroke: #1f77b4; stroke-width: 1.5"/>
   </g>
   <g id="text_1">
    <!-- Biological Inspiration Behind RHAN -->
    <g transform="translate(217.792344 39.085714) scale(0.14 -0.14)">
     <defs>
      <path id="DejaVuSans-Bold-42" d="M 2456 2859 
Q 2741 2859 2887 2984 
Q 3034 3109 3034 3353 
Q 3034 3594 2887 3720 
Q 2741 3847 2456 3847 
L 1791 3847 
L 1791 2859 
L 2456 2859 
z
M 2497 819 
Q 2859 819 3042 972 
Q 3225 1125 3225 1434 
Q 3225 1738 3044 1889 
Q 2863 2041 2497 2041 
L 1791 2041 
L 1791 819 
L 2497 819 
z
M 3616 2497 
Q 4003 2384 4215 2081 
Q 4428 1778 4428 1338 
Q 4428 663 3972 331 
Q 3516 0 2584 0 
L 588 0 
L 588 4666 
L 2394 4666 
Q 3366 4666 3802 4372 
Q 4238 4078 4238 3431 
Q 4238 3091 4078 2852 
Q 3919 2613 3616 2497 
z
" transform="scale(0.015625)"/>
      <path id="DejaVuSans-Bold-69" d="M 538 3500 
L 1656 3500 
L 1656 0 
L 538 0 
L 538 3500 
z
M 538 4863 
L 1656 4863 
L 1656 3950 
L 538 3950 
L 538 4863 
z
" transform="scale(0.015625)"/>
      <path id="DejaVuSans-Bold-6f" d="M 2203 2784 
Q 1831 2784 1636 2517 
Q 1441 2250 1441 1747 
Q 1441 1244 1636 976 
Q 1831 709 2203 709 
Q 2569 709 2762 976 
Q 2956 1244 2956 1747 
Q 2956 2250 2762 2517 
Q 2569 2784 2203 2784 
z
M 2203 3584 
Q 3106 3584 3614 3096 
Q 4122 2609 4122 1747 
Q 4122 884 3614 396 
Q 3106 -91 2203 -91 
Q 1297 -91 786 396 
Q 275 884 275 1747 
Q 275 2609 786 3096 
Q 1297 3584 2203 3584 
z
" transform="scale(0.015625)"/>
      <path id="DejaVuSans-Bold-6c" d="M 538 4863 
L 1656 4863 
L 1656 0 
L 538 0 
L 538 4863 
z
" transform="scale(0.015625)"/>
      <path id="DejaVuSans-Bold-67" d="M 2919 594 
Q 2688 288 2409 144 
Q 2131 0 1766 0 
Q 1125 0 706 504 
Q 288 1009 288 1791 
Q 288 2575 706 3076 
Q 1125 3578 1766 3578 
Q 2131 3578 2409 3434 
Q 2688 3291 2919 2981 
L 2919 3500 
L 4044 3500 
L 4044 353 
Q 4044 -491 3511 -936 
Q 2978 -1381 1966 -1381 
Q 1638 -1381 1331 -1331 
Q 1025 -1281 716 -1178 
L 716 -306 
Q 1009 -475 1290 -558 
Q 1572 -641 1856 -641 
Q 2406 -641 2662 -400 
Q 2919 -159 2919 353 
L 2919 594 
z
M 2181 2772 
Q 1834 2772 1640 2515 
Q 1447 2259 1447 1791 
Q 1447 1309 1634 1061 
Q 1822 813 2181 813 
Q 2531 813 2725 1069 
Q 2919 1325 2919 1791 
Q 2919 2259 2725 2515 
Q 2531 2772 2181 2772 
z
" transform="scale(0.015625)"/>
      <path id="DejaVuSans-Bold-63" d="M 3366 3391 
L 3366 2478 
Q 3138 2634 2908 2709 
Q 2678 2784 2431 2784 
Q 1963 2784 1702 2511 
Q 1441 2238 1441 1747 
Q 1441 1256 1702 982 
Q 1963 709 2431 709 
Q 2694 709 2930 787 
Q 3166 866 3366 1019 
L 3366 103 
Q 3103 6 2833 -42 
Q 2563 -91 2291 -91 
Q 1344 -91 809 395 
Q 275 881 275 1747 
Q 275 2613 809 3098 
Q 1344 3584 2291 3584 
Q 2566 3584 2833 3536 
Q 3100 3488 3366 3391 
z
" transform="scale(0.015625)"/>
      <path id="DejaVuSans-Bold-61" d="M 2106 1575 
Q 1756 1575 1579 1456 
Q 1403 1338 1403 1106 
Q 1403 894 1545 773 
Q 1688 653 1941 653 
Q 2256 653 2472 879 
Q 2688 1106 2688 1447 
L 2688 1575 
L 2106 1575 
z
M 3816 1997 
L 3816 0 
L 2688 0 
L 2688 519 
Q 2463 200 2181 54 
Q 1900 -91 1497 -91 
Q 953 -91 614 226 
Q 275 544 275 1050 
Q 275 1666 698 1953 
Q 1122 2241 2028 2241 
L 2688 2241 
L 2688 2328 
Q 2688 2594 2478 2717 
Q 2269 2841 1825 2841 
Q 1466 2841 1156 2769 
Q 847 2697 581 2553 
L 581 3406 
Q 941 3494 1303 3539 
Q 1666 3584 2028 3584 
Q 2975 3584 3395 3211 
Q 3816 2838 3816 1997 
z
" transform="scale(0.015625)"/>
      <path id="DejaVuSans-Bold-20" transform="scale(0.015625)"/>
      <path id="DejaVuSans-Bold-49" d="M 588 4666 
L 1791 4666 
L 1791 0 
L 588 0 
L 588 4666 
z
" transform="scale(0.015625)"/>
      <path id="DejaVuSans-Bold-6e" d="M 4056 2131 
L 4056 0 
L 2931 0 
L 2931 347 
L 2931 1631 
Q 2931 2084 2911 2256 
Q 2891 2428 2841 2509 
Q 2775 2619 2662 2680 
Q 2550 2741 2406 2741 
Q 2056 2741 1856 2470 
Q 1656 2200 1656 1722 
L 1656 0 
L 538 0 
L 538 3500 
L 1656 3500 
L 1656 2988 
Q 1909 3294 2193 3439 
Q 2478 3584 2822 3584 
Q 3428 3584 3742 3212 
Q 4056 2841 4056 2131 
z
" transform="scale(0.015625)"/>
      <path id="DejaVuSans-Bold-73" d="M 3272 3391 
L 3272 2541 
Q 2913 2691 2578 2766 
Q 2244 2841 1947 2841 
Q 1628 2841 1473 2761 
Q 1319 2681 1319 2516 
Q 1319 2381 1436 2309 
Q 1553 2238 1856 2203 
L 2053 2175 
Q 2913 2066 3209 1816 
Q 3506 1566 3506 1031 
Q 3506 472 3093 190 
Q 2681 -91 1863 -91 
Q 1516 -91 1145 -36 
Q 775 19 384 128 
L 384 978 
Q 719 816 1070 734 
Q 1422 653 1784 653 
Q 2113 653 2278 743 
Q 2444 834 2444 1013 
Q 2444 1163 2330 1236 
Q 2216 1309 1875 1350 
L 1678 1375 
Q 931 1469 631 1722 
Q 331 1975 331 2491 
Q 331 3047 712 3315 
Q 1094 3584 1881 3584 
Q 2191 3584 2531 3537 
Q 2872 3491 3272 3391 
z
" transform="scale(0.015625)"/>
      <path id="DejaVuSans-Bold-70" d="M 1656 506 
L 1656 -1331 
L 538 -1331 
L 538 3500 
L 1656 3500 
L 1656 2988 
Q 1888 3294 2169 3439 
Q 2450 3584 2816 3584 
Q 3463 3584 3878 3070 
Q 4294 2556 4294 1747 
Q 4294 938 3878 423 
Q 3463 -91 2816 -91 
Q 2450 -91 2169 54 
Q 1888 200 1656 506 
z
M 2400 2772 
Q 2041 2772 1848 2508 
Q 1656 2244 1656 1747 
Q 1656 1250 1848 986 
Q 2041 722 2400 722 
Q 2759 722 2948 984 
Q 3138 1247 3138 1747 
Q 3138 2247 2948 2509 
Q 2759 2772 2400 2772 
z
" transform="scale(0.015625)"/>
      <path id="DejaVuSans-Bold-72" d="M 3138 2547 
Q 2991 2616 2845 2648 
Q 2700 2681 2553 2681 
Q 2122 2681 1889 2404 
Q 1656 2128 1656 1613 
L 1656 0 
L 538 0 
L 538 3500 
L 1656 3500 
L 1656 2925 
Q 1872 3269 2151 3426 
Q 2431 3584 2822 3584 
Q 2878 3584 2943 3579 
Q 3009 3575 3134 3559 
L 3138 2547 
z
" transform="scale(0.015625)"/>
      <path id="DejaVuSans-Bold-74" d="M 1759 4494 
L 1759 3500 
L 2913 3500 
L 2913 2700 
L 1759 2700 
L 1759 1216 
Q 1759 972 1856 886 
Q 1953 800 2241 800 
L 2816 800 
L 2816 0 
L 1856 0 
Q 1194 0 917 276 
Q 641 553 641 1216 
L 641 2700 
L 84 2700 
L 84 3500 
L 641 3500 
L 641 4494 
L 1759 4494 
z
" transform="scale(0.015625)"/>
      <path id="DejaVuSans-Bold-65" d="M 4031 1759 
L 4031 1441 
L 1416 1441 
Q 1456 1047 1700 850 
Q 1944 653 2381 653 
Q 2734 653 3104 758 
Q 3475 863 3866 1075 
L 3866 213 
Q 3469 63 3072 -14 
Q 2675 -91 2278 -91 
Q 1328 -91 801 392 
Q 275 875 275 1747 
Q 275 2603 792 3093 
Q 1309 3584 2216 3584 
Q 3041 3584 3536 3087 
Q 4031 2591 4031 1759 
z
M 2881 2131 
Q 2881 2450 2695 2645 
Q 2509 2841 2209 2841 
Q 1884 2841 1681 2658 
Q 1478 2475 1428 2131 
L 2881 2131 
z
" transform="scale(0.015625)"/>
      <path id="DejaVuSans-Bold-68" d="M 4056 2131 
L 4056 0 
L 2931 0 
L 2931 347 
L 2931 1625 
Q 2931 2084 2911 2256 
Q 2891 2428 2841 2509 
Q 2775 2619 2662 2680 
Q 2550 2741 2406 2741 
Q 2056 2741 1856 2470 
Q 1656 2200 1656 1722 
L 1656 0 
L 538 0 
L 538 4863 
L 1656 4863 
L 1656 2988 
Q 1909 3294 2193 3439 
Q 2478 3584 2822 3584 
Q 3428 3584 3742 3212 
Q 4056 2841 4056 2131 
z
" transform="scale(0.015625)"/>
      <path id="DejaVuSans-Bold-64" d="M 2919 2988 
L 2919 4863 
L 4044 4863 
L 4044 0 
L 2919 0 
L 2919 506 
Q 2688 197 2409 53 
Q 2131 -91 1766 -91 
Q 1119 -91 703 423 
Q 288 938 288 1747 
Q 288 2556 703 3070 
Q 1119 3584 1766 3584 
Q 2128 3584 2408 3439 
Q 2688 3294 2919 2988 
z
M 2181 722 
Q 2541 722 2730 984 
Q 2919 1247 2919 1747 
Q 2919 2247 2730 2509 
Q 2541 2772 2181 2772 
Q 1825 2772 1636 2509 
Q 1447 2247 1447 1747 
Q 1447 1247 1636 984 
Q 1825 722 2181 722 
z
" transform="scale(0.015625)"/>
      <path id="DejaVuSans-Bold-52" d="M 2297 2597 
Q 2675 2597 2839 2737 
Q 3003 2878 3003 3200 
Q 3003 3519 2839 3656 
Q 2675 3794 2297 3794 
L 1791 3794 
L 1791 2597 
L 2297 2597 
z
M 1791 1766 
L 1791 0 
L 588 0 
L 588 4666 
L 2425 4666 
Q 3347 4666 3776 4356 
Q 4206 4047 4206 3378 
Q 4206 2916 3982 2619 
Q 3759 2322 3309 2181 
Q 3556 2125 3751 1926 
Q 3947 1728 4147 1325 
L 4800 0 
L 3519 0 
L 2950 1159 
Q 2778 1509 2601 1637 
Q 2425 1766 2131 1766 
L 1791 1766 
z
" transform="scale(0.015625)"/>
      <path id="DejaVuSans-Bold-48" d="M 588 4666 
L 1791 4666 
L 1791 2888 
L 3566 2888 
L 3566 4666 
L 4769 4666 
L 4769 0 
L 3566 0 
L 3566 1978 
L 1791 1978 
L 1791 0 
L 588 0 
L 588 4666 
z
" transform="scale(0.015625)"/>
      <path id="DejaVuSans-Bold-41" d="M 3419 850 
L 1538 850 
L 1241 0 
L 31 0 
L 1759 4666 
L 3194 4666 
L 4922 0 
L 3713 0 
L 3419 850 
z
M 1838 1716 
L 3116 1716 
L 2478 3572 
L 1838 1716 
z
" transform="scale(0.015625)"/>
      <path id="DejaVuSans-Bold-4e" d="M 588 4666 
L 1931 4666 
L 3628 1466 
L 3628 4666 
L 4769 4666 
L 4769 0 
L 3425 0 
L 1728 3200 
L 1728 0 
L 588 0 
L 588 4666 
z
" transform="scale(0.015625)"/>
     </defs>
     <use xlink:href="#DejaVuSans-Bold-42"/>
     <use xlink:href="#DejaVuSans-Bold-69" transform="translate(76.220703 0)"/>
     <use xlink:href="#DejaVuSans-Bold-6f" transform="translate(110.498047 0)"/>
     <use xlink:href="#DejaVuSans-Bold-6c" transform="translate(179.199219 0)"/>
     <use xlink:href="#DejaVuSans-Bold-6f" transform="translate(213.476562 0)"/>
     <use xlink:href="#DejaVuSans-Bold-67" transform="translate(282.177734 0)"/>
     <use xlink:href="#DejaVuSans-Bold-69" transform="translate(353.759766 0)"/>
     <use xlink:href="#DejaVuSans-Bold-63" transform="translate(388.037109 0)"/>
     <use xlink:href="#DejaVuSans-Bold-61" transform="translate(447.314453 0)"/>
     <use xlink:href="#DejaVuSans-Bold-6c" transform="translate(514.794922 0)"/>
     <use xlink:href="#DejaVuSans-Bold-20" transform="translate(549.072266 0)"/>
     <use xlink:href="#DejaVuSans-Bold-49" transform="translate(583.886719 0)"/>
     <use xlink:href="#DejaVuSans-Bold-6e" transform="translate(621.09375 0)"/>
     <use xlink:href="#DejaVuSans-Bold-73" transform="translate(692.285156 0)"/>
     <use xlink:href="#DejaVuSans-Bold-70" transform="translate(751.806641 0)"/>
     <use xlink:href="#DejaVuSans-Bold-69" transform="translate(823.388672 0)"/>
     <use xlink:href="#DejaVuSans-Bold-72" transform="translate(857.666016 0)"/>
     <use xlink:href="#DejaVuSans-Bold-61" transform="translate(906.982422 0)"/>
     <use xlink:href="#DejaVuSans-Bold-74" transform="translate(974.462891 0)"/>
     <use xlink:href="#DejaVuSans-Bold-69" transform="translate(1022.265625 0)"/>
     <use xlink:href="#DejaVuSans-Bold-6f" transform="translate(1056.542969 0)"/>
     <use xlink:href="#DejaVuSans-Bold-6e" transform="translate(1125.244141 0)"/>
     <use xlink:href="#DejaVuSans-Bold-20" transform="translate(1196.435547 0)"/>
     <use xlink:href="#DejaVuSans-Bold-42" transform="translate(1231.25 0)"/>
     <use xlink:href="#DejaVuSans-Bold-65" transform="translate(1307.470703 0)"/>
     <use xlink:href="#DejaVuSans-Bold-68" transform="translate(1375.292969 0)"/>
     <use xlink:href="#DejaVuSans-Bold-69" transform="translate(1446.484375 0)"/>
     <use xlink:href="#DejaVuSans-Bold-6e" transform="translate(1480.761719 0)"/>
     <use xlink:href="#DejaVuSans-Bold-64" transform="translate(1551.953125 0)"/>
     <use xlink:href="#DejaVuSans-Bold-20" transform="translate(1623.535156 0)"/>
     <use xlink:href="#DejaVuSans-Bold-52" transform="translate(1658.349609 0)"/>
     <use xlink:href="#DejaVuSans-Bold-48" transform="translate(1735.351562 0)"/>
     <use xlink:href="#DejaVuSans-Bold-41" transform="translate(1819.042969 0)"/>
     <use xlink:href="#DejaVuSans-Bold-4e" transform="translate(1896.435547 0)"/>
    </g>
   </g>
   <g id="text_2">
    <!-- Human Visual System -->
    <g style="fill: #1f77b4" transform="translate(114.352813 83.725714) scale(0.11 -0.11)">
     <defs>
      <path id="DejaVuSans-Bold-75" d="M 500 1363 
L 500 3500 
L 1625 3500 
L 1625 3150 
Q 1625 2866 1622 2436 
Q 1619 2006 1619 1863 
Q 1619 1441 1641 1255 
Q 1663 1069 1716 984 
Q 1784 875 1895 815 
Q 2006 756 2150 756 
Q 2500 756 2700 1025 
Q 2900 1294 2900 1772 
L 2900 3500 
L 4019 3500 
L 4019 0 
L 2900 0 
L 2900 506 
Q 2647 200 2364 54 
Q 2081 -91 1741 -91 
Q 1134 -91 817 281 
Q 500 653 500 1363 
z
" transform="scale(0.015625)"/>
      <path id="DejaVuSans-Bold-6d" d="M 3781 2919 
Q 3994 3244 4286 3414 
Q 4578 3584 4928 3584 
Q 5531 3584 5847 3212 
Q 6163 2841 6163 2131 
L 6163 0 
L 5038 0 
L 5038 1825 
Q 5041 1866 5042 1909 
Q 5044 1953 5044 2034 
Q 5044 2406 4934 2573 
Q 4825 2741 4581 2741 
Q 4263 2741 4089 2478 
Q 3916 2216 3909 1719 
L 3909 0 
L 2784 0 
L 2784 1825 
Q 2784 2406 2684 2573 
Q 2584 2741 2328 2741 
Q 2006 2741 1831 2477 
Q 1656 2213 1656 1722 
L 1656 0 
L 531 0 
L 531 3500 
L 1656 3500 
L 1656 2988 
Q 1863 3284 2130 3434 
Q 2397 3584 2719 3584 
Q 3081 3584 3359 3409 
Q 3638 3234 3781 2919 
z
" transform="scale(0.015625)"/>
      <path id="DejaVuSans-Bold-56" d="M 31 4666 
L 1241 4666 
L 2478 1222 
L 3713 4666 
L 4922 4666 
L 3194 0 
L 1759 0 
L 31 4666 
z
" transform="scale(0.015625)"/>
      <path id="DejaVuSans-Bold-53" d="M 3834 4519 
L 3834 3531 
Q 3450 3703 3084 3790 
Q 2719 3878 2394 3878 
Q 1963 3878 1756 3759 
Q 1550 3641 1550 3391 
Q 1550 3203 1689 3098 
Q 1828 2994 2194 2919 
L 2706 2816 
Q 3484 2659 3812 2340 
Q 4141 2022 4141 1434 
Q 4141 663 3683 286 
Q 3225 -91 2284 -91 
Q 1841 -91 1394 -6 
Q 947 78 500 244 
L 500 1259 
Q 947 1022 1364 901 
Q 1781 781 2169 781 
Q 2563 781 2772 912 
Q 2981 1044 2981 1288 
Q 2981 1506 2839 1625 
Q 2697 1744 2272 1838 
L 1806 1941 
Q 1106 2091 782 2419 
Q 459 2747 459 3303 
Q 459 4000 909 4375 
Q 1359 4750 2203 4750 
Q 2588 4750 2994 4692 
Q 3400 4634 3834 4519 
z
" transform="scale(0.015625)"/>
      <path id="DejaVuSans-Bold-79" d="M 78 3500 
L 1197 3500 
L 2138 1125 
L 2938 3500 
L 4056 3500 
L 2584 -331 
Q 2363 -916 2067 -1148 
Q 1772 -1381 1288 -1381 
L 641 -1381 
L 641 -647 
L 991 -647 
Q 1275 -647 1404 -556 
Q 1534 -466 1606 -231 
L 1638 -134 
L 78 3500 
z
" transform="scale(0.015625)"/>
     </defs>
     <use xlink:href="#DejaVuSans-Bold-48"/>
     <use xlink:href="#DejaVuSans-Bold-75" transform="translate(83.691406 0)"/>
     <use xlink:href="#DejaVuSans-Bold-6d" transform="translate(154.882812 0)"/>
     <use xlink:href="#DejaVuSans-Bold-61" transform="translate(259.082031 0)"/>
     <use xlink:href="#DejaVuSans-Bold-6e" transform="translate(326.5625 0)"/>
     <use xlink:href="#DejaVuSans-Bold-20" transform="translate(397.753906 0)"/>
     <use xlink:href="#DejaVuSans-Bold-56" transform="translate(432.568359 0)"/>
     <use xlink:href="#DejaVuSans-Bold-69" transform="translate(508.210938 0)"/>
     <use xlink:href="#DejaVuSans-Bold-73" transform="translate(542.488281 0)"/>
     <use xlink:href="#DejaVuSans-Bold-75" transform="translate(602.009766 0)"/>
     <use xlink:href="#DejaVuSans-Bold-61" transform="translate(673.201172 0)"/>
     <use xlink:href="#DejaVuSans-Bold-6c" transform="translate(740.681641 0)"/>
     <use xlink:href="#DejaVuSans-Bold-20" transform="translate(774.958984 0)"/>
     <use xlink:href="#DejaVuSans-Bold-53" transform="translate(809.773438 0)"/>
     <use xlink:href="#DejaVuSans-Bold-79" transform="translate(881.794922 0)"/>
     <use xlink:href="#DejaVuSans-Bold-73" transform="translate(946.980469 0)"/>
     <use xlink:href="#DejaVuSans-Bold-74" transform="translate(1006.501953 0)"/>
     <use xlink:href="#DejaVuSans-Bold-65" transform="translate(1054.304688 0)"/>
     <use xlink:href="#DejaVuSans-Bold-6d" transform="translate(1122.126953 0)"/>
    </g>
   </g>
   <g id="text_3">
    <!-- RHAN Architecture -->
    <g style="fill: #1f77b4" transform="translate(472.751563 83.725714) scale(0.11 -0.11)">
     <use xlink:href="#DejaVuSans-Bold-52"/>
     <use xlink:href="#DejaVuSans-Bold-48" transform="translate(77.001953 0)"/>
     <use xlink:href="#DejaVuSans-Bold-41" transform="translate(160.693359 0)"/>
     <use xlink:href="#DejaVuSans-Bold-4e" transform="translate(238.085938 0)"/>
     <use xlink:href="#DejaVuSans-Bold-20" transform="translate(321.777344 0)"/>
     <use xlink:href="#DejaVuSans-Bold-41" transform="translate(356.591797 0)"/>
     <use xlink:href="#DejaVuSans-Bold-72" transform="translate(433.984375 0)"/>
     <use xlink:href="#DejaVuSans-Bold-63" transform="translate(483.300781 0)"/>
     <use xlink:href="#DejaVuSans-Bold-68" transform="translate(542.578125 0)"/>
     <use xlink:href="#DejaVuSans-Bold-69" transform="translate(613.769531 0)"/>
     <use xlink:href="#DejaVuSans-Bold-74" transform="translate(648.046875 0)"/>
     <use xlink:href="#DejaVuSans-Bold-65" transform="translate(695.849609 0)"/>
     <use xlink:href="#DejaVuSans-Bold-63" transform="translate(763.671875 0)"/>
     <use xlink:href="#DejaVuSans-Bold-74" transform="translate(822.949219 0)"/>
     <use xlink:href="#DejaVuSans-Bold-75" transform="translate(870.751953 0)"/>
     <use xlink:href="#DejaVuSans-Bold-72" transform="translate(941.943359 0)"/>
     <use xlink:href="#DejaVuSans-Bold-65" transform="translate(991.259766 0)"/>
    </g>
   </g>
   <g id="text_4">
    <!-- Retina -->
    <g style="fill: #111111" transform="translate(164.435039 137.364263) scale(0.095 -0.095)">
     <use xlink:href="#DejaVuSans-Bold-52"/>
     <use xlink:href="#DejaVuSans-Bold-65" transform="translate(77.001953 0)"/>
     <use xlink:href="#DejaVuSans-Bold-74" transform="translate(144.824219 0)"/>
     <use xlink:href="#DejaVuSans-Bold-69" transform="translate(192.626953 0)"/>
     <use xlink:href="#DejaVuSans-Bold-6e" transform="translate(226.904297 0)"/>
     <use xlink:href="#DejaVuSans-Bold-61" transform="translate(298.095703 0)"/>
    </g>
   </g>
   <g id="text_5">
    <!-- LGN -->
    <g style="fill: #111111" transform="translate(170.899492 194.758549) scale(0.095 -0.095)">
     <defs>
      <path id="DejaVuSans-Bold-4c" d="M 588 4666 
L 1791 4666 
L 1791 909 
L 3903 909 
L 3903 0 
L 588 0 
L 588 4666 
z
" transform="scale(0.015625)"/>
      <path id="DejaVuSans-Bold-47" d="M 4781 347 
Q 4331 128 3847 18 
Q 3363 -91 2847 -91 
Q 1681 -91 1000 561 
Q 319 1213 319 2328 
Q 319 3456 1012 4103 
Q 1706 4750 2913 4750 
Q 3378 4750 3804 4662 
Q 4231 4575 4609 4403 
L 4609 3438 
Q 4219 3659 3833 3768 
Q 3447 3878 3059 3878 
Q 2341 3878 1952 3476 
Q 1563 3075 1563 2328 
Q 1563 1588 1938 1184 
Q 2313 781 3003 781 
Q 3191 781 3352 804 
Q 3513 828 3641 878 
L 3641 1784 
L 2906 1784 
L 2906 2591 
L 4781 2591 
L 4781 347 
z
" transform="scale(0.015625)"/>
     </defs>
     <use xlink:href="#DejaVuSans-Bold-4c"/>
     <use xlink:href="#DejaVuSans-Bold-47" transform="translate(63.720703 0)"/>
     <use xlink:href="#DejaVuSans-Bold-4e" transform="translate(145.800781 0)"/>
    </g>
   </g>
   <g id="text_6">
    <!-- Primary Visual Cortex (V1) -->
    <g style="fill: #111111" transform="translate(110.558906 252.115725) scale(0.095 -0.095)">
     <defs>
      <path id="DejaVuSans-Bold-50" d="M 588 4666 
L 2584 4666 
Q 3475 4666 3951 4270 
Q 4428 3875 4428 3144 
Q 4428 2409 3951 2014 
Q 3475 1619 2584 1619 
L 1791 1619 
L 1791 0 
L 588 0 
L 588 4666 
z
M 1791 3794 
L 1791 2491 
L 2456 2491 
Q 2806 2491 2997 2661 
Q 3188 2831 3188 3144 
Q 3188 3456 2997 3625 
Q 2806 3794 2456 3794 
L 1791 3794 
z
" transform="scale(0.015625)"/>
      <path id="DejaVuSans-Bold-43" d="M 4288 256 
Q 3956 84 3597 -3 
Q 3238 -91 2847 -91 
Q 1681 -91 1000 561 
Q 319 1213 319 2328 
Q 319 3447 1000 4098 
Q 1681 4750 2847 4750 
Q 3238 4750 3597 4662 
Q 3956 4575 4288 4403 
L 4288 3438 
Q 3953 3666 3628 3772 
Q 3303 3878 2944 3878 
Q 2300 3878 1931 3465 
Q 1563 3053 1563 2328 
Q 1563 1606 1931 1193 
Q 2300 781 2944 781 
Q 3303 781 3628 887 
Q 3953 994 4288 1222 
L 4288 256 
z
" transform="scale(0.015625)"/>
      <path id="DejaVuSans-Bold-78" d="M 1422 1791 
L 159 3500 
L 1344 3500 
L 2059 2463 
L 2784 3500 
L 3969 3500 
L 2706 1797 
L 4031 0 
L 2847 0 
L 2059 1106 
L 1281 0 
L 97 0 
L 1422 1791 
z
" transform="scale(0.015625)"/>
      <path id="DejaVuSans-Bold-28" d="M 2413 -844 
L 1484 -844 
Q 1006 -72 778 623 
Q 550 1319 550 2003 
Q 550 2688 779 3389 
Q 1009 4091 1484 4856 
L 2413 4856 
Q 2013 4116 1813 3408 
Q 1613 2700 1613 2009 
Q 1613 1319 1811 609 
Q 2009 -100 2413 -844 
z
" transform="scale(0.015625)"/>
      <path id="DejaVuSans-Bold-31" d="M 750 831 
L 1813 831 
L 1813 3847 
L 722 3622 
L 722 4441 
L 1806 4666 
L 2950 4666 
L 2950 831 
L 4013 831 
L 4013 0 
L 750 0 
L 750 831 
z
" transform="scale(0.015625)"/>
      <path id="DejaVuSans-Bold-29" d="M 513 -844 
Q 913 -100 1113 609 
Q 1313 1319 1313 2009 
Q 1313 2700 1113 3408 
Q 913 4116 513 4856 
L 1441 4856 
Q 1916 4091 2145 3389 
Q 2375 2688 2375 2003 
Q 2375 1319 2147 623 
Q 1919 -72 1441 -844 
L 513 -844 
z
" transform="scale(0.015625)"/>
     </defs>
     <use xlink:href="#DejaVuSans-Bold-50"/>
     <use xlink:href="#DejaVuSans-Bold-72" transform="translate(73.291016 0)"/>
     <use xlink:href="#DejaVuSans-Bold-69" transform="translate(122.607422 0)"/>
     <use xlink:href="#DejaVuSans-Bold-6d" transform="translate(156.884766 0)"/>
     <use xlink:href="#DejaVuSans-Bold-61" transform="translate(261.083984 0)"/>
     <use xlink:href="#DejaVuSans-Bold-72" transform="translate(328.564453 0)"/>
     <use xlink:href="#DejaVuSans-Bold-79" transform="translate(377.880859 0)"/>
     <use xlink:href="#DejaVuSans-Bold-20" transform="translate(443.066406 0)"/>
     <use xlink:href="#DejaVuSans-Bold-56" transform="translate(477.880859 0)"/>
     <use xlink:href="#DejaVuSans-Bold-69" transform="translate(553.523438 0)"/>
     <use xlink:href="#DejaVuSans-Bold-73" transform="translate(587.800781 0)"/>
     <use xlink:href="#DejaVuSans-Bold-75" transform="translate(647.322266 0)"/>
     <use xlink:href="#DejaVuSans-Bold-61" transform="translate(718.513672 0)"/>
     <use xlink:href="#DejaVuSans-Bold-6c" transform="translate(785.994141 0)"/>
     <use xlink:href="#DejaVuSans-Bold-20" transform="translate(820.271484 0)"/>
     <use xlink:href="#DejaVuSans-Bold-43" transform="translate(855.085938 0)"/>
     <use xlink:href="#DejaVuSans-Bold-6f" transform="translate(928.474609 0)"/>
     <use xlink:href="#DejaVuSans-Bold-72" transform="translate(997.175781 0)"/>
     <use xlink:href="#DejaVuSans-Bold-74" transform="translate(1046.492188 0)"/>
     <use xlink:href="#DejaVuSans-Bold-65" transform="translate(1094.294922 0)"/>
     <use xlink:href="#DejaVuSans-Bold-78" transform="translate(1162.117188 0)"/>
     <use xlink:href="#DejaVuSans-Bold-20" transform="translate(1226.619141 0)"/>
     <use xlink:href="#DejaVuSans-Bold-28" transform="translate(1261.433594 0)"/>
     <use xlink:href="#DejaVuSans-Bold-56" transform="translate(1307.136719 0)"/>
     <use xlink:href="#DejaVuSans-Bold-31" transform="translate(1384.529297 0)"/>
     <use xlink:href="#DejaVuSans-Bold-29" transform="translate(1454.109375 0)"/>
    </g>
   </g>
   <g id="text_7">
    <!-- Ventral Path (What) -->
    <g style="fill: #111111" transform="translate(58.535859 309.547121) scale(0.095 -0.095)">
     <defs>
      <path id="DejaVuSans-Bold-57" d="M 191 4666 
L 1344 4666 
L 2150 1275 
L 2950 4666 
L 4109 4666 
L 4909 1275 
L 5716 4666 
L 6859 4666 
L 5759 0 
L 4372 0 
L 3525 3547 
L 2688 0 
L 1300 0 
L 191 4666 
z
" transform="scale(0.015625)"/>
     </defs>
     <use xlink:href="#DejaVuSans-Bold-56"/>
     <use xlink:href="#DejaVuSans-Bold-65" transform="translate(71.892578 0)"/>
     <use xlink:href="#DejaVuSans-Bold-6e" transform="translate(139.714844 0)"/>
     <use xlink:href="#DejaVuSans-Bold-74" transform="translate(210.90625 0)"/>
     <use xlink:href="#DejaVuSans-Bold-72" transform="translate(258.708984 0)"/>
     <use xlink:href="#DejaVuSans-Bold-61" transform="translate(308.025391 0)"/>
     <use xlink:href="#DejaVuSans-Bold-6c" transform="translate(375.505859 0)"/>
     <use xlink:href="#DejaVuSans-Bold-20" transform="translate(409.783203 0)"/>
     <use xlink:href="#DejaVuSans-Bold-50" transform="translate(444.597656 0)"/>
     <use xlink:href="#DejaVuSans-Bold-61" transform="translate(515.263672 0)"/>
     <use xlink:href="#DejaVuSans-Bold-74" transform="translate(582.744141 0)"/>
     <use xlink:href="#DejaVuSans-Bold-68" transform="translate(630.546875 0)"/>
     <use xlink:href="#DejaVuSans-Bold-20" transform="translate(701.738281 0)"/>
     <use xlink:href="#DejaVuSans-Bold-28" transform="translate(736.552734 0)"/>
     <use xlink:href="#DejaVuSans-Bold-57" transform="translate(782.255859 0)"/>
     <use xlink:href="#DejaVuSans-Bold-68" transform="translate(892.558594 0)"/>
     <use xlink:href="#DejaVuSans-Bold-61" transform="translate(963.75 0)"/>
     <use xlink:href="#DejaVuSans-Bold-74" transform="translate(1031.230469 0)"/>
     <use xlink:href="#DejaVuSans-Bold-29" transform="translate(1079.033203 0)"/>
    </g>
   </g>
   <g id="text_8">
    <!-- Dorsal Path (Where) -->
    <g style="fill: #111111" transform="translate(197.160469 309.547121) scale(0.095 -0.095)">
     <defs>
      <path id="DejaVuSans-Bold-44" d="M 1791 3756 
L 1791 909 
L 2222 909 
Q 2959 909 3348 1275 
Q 3738 1641 3738 2338 
Q 3738 3031 3350 3393 
Q 2963 3756 2222 3756 
L 1791 3756 
z
M 588 4666 
L 1856 4666 
Q 2919 4666 3439 4514 
Q 3959 4363 4331 4000 
Q 4659 3684 4818 3271 
Q 4978 2859 4978 2338 
Q 4978 1809 4818 1395 
Q 4659 981 4331 666 
Q 3956 303 3431 151 
Q 2906 0 1856 0 
L 588 0 
L 588 4666 
z
" transform="scale(0.015625)"/>
     </defs>
     <use xlink:href="#DejaVuSans-Bold-44"/>
     <use xlink:href="#DejaVuSans-Bold-6f" transform="translate(83.007812 0)"/>
     <use xlink:href="#DejaVuSans-Bold-72" transform="translate(151.708984 0)"/>
     <use xlink:href="#DejaVuSans-Bold-73" transform="translate(201.025391 0)"/>
     <use xlink:href="#DejaVuSans-Bold-61" transform="translate(260.546875 0)"/>
     <use xlink:href="#DejaVuSans-Bold-6c" transform="translate(328.027344 0)"/>
     <use xlink:href="#DejaVuSans-Bold-20" transform="translate(362.304688 0)"/>
     <use xlink:href="#DejaVuSans-Bold-50" transform="translate(397.119141 0)"/>
     <use xlink:href="#DejaVuSans-Bold-61" transform="translate(467.785156 0)"/>
     <use xlink:href="#DejaVuSans-Bold-74" transform="translate(535.265625 0)"/>
     <use xlink:href="#DejaVuSans-Bold-68" transform="translate(583.068359 0)"/>
     <use xlink:href="#DejaVuSans-Bold-20" transform="translate(654.259766 0)"/>
     <use xlink:href="#DejaVuSans-Bold-28" transform="translate(689.074219 0)"/>
     <use xlink:href="#DejaVuSans-Bold-57" transform="translate(734.777344 0)"/>
     <use xlink:href="#DejaVuSans-Bold-68" transform="translate(845.080078 0)"/>
     <use xlink:href="#DejaVuSans-Bold-65" transform="translate(916.271484 0)"/>
     <use xlink:href="#DejaVuSans-Bold-72" transform="translate(984.09375 0)"/>
     <use xlink:href="#DejaVuSans-Bold-65" transform="translate(1033.410156 0)"/>
     <use xlink:href="#DejaVuSans-Bold-29" transform="translate(1101.232422 0)"/>
    </g>
   </g>
   <g id="text_9">
    <!-- IT Cortex -->
    <g style="fill: #111111" transform="translate(157.491133 366.941406) scale(0.095 -0.095)">
     <defs>
      <path id="DejaVuSans-Bold-54" d="M 31 4666 
L 4331 4666 
L 4331 3756 
L 2784 3756 
L 2784 0 
L 1581 0 
L 1581 3756 
L 31 3756 
L 31 4666 
z
" transform="scale(0.015625)"/>
     </defs>
     <use xlink:href="#DejaVuSans-Bold-49"/>
     <use xlink:href="#DejaVuSans-Bold-54" transform="translate(37.207031 0)"/>
     <use xlink:href="#DejaVuSans-Bold-20" transform="translate(105.419922 0)"/>
     <use xlink:href="#DejaVuSans-Bold-43" transform="translate(140.234375 0)"/>
     <use xlink:href="#DejaVuSans-Bold-6f" transform="translate(213.623047 0)"/>
     <use xlink:href="#DejaVuSans-Bold-72" transform="translate(282.324219 0)"/>
     <use xlink:href="#DejaVuSans-Bold-74" transform="translate(331.640625 0)"/>
     <use xlink:href="#DejaVuSans-Bold-65" transform="translate(379.443359 0)"/>
     <use xlink:href="#DejaVuSans-Bold-78" transform="translate(447.265625 0)"/>
    </g>
   </g>
   <g id="text_10">
    <!-- Perception &amp; Decision -->
    <g style="fill: #111111" transform="translate(122.614258 424.335692) scale(0.095 -0.095)">
     <defs>
      <path id="DejaVuSans-Bold-26" d="M 2497 3097 
L 3775 1691 
Q 3941 1909 4027 2181 
Q 4113 2453 4128 2797 
L 5100 2797 
Q 5053 2228 4879 1784 
Q 4706 1341 4397 1006 
L 5313 0 
L 3988 0 
L 3681 341 
Q 3353 122 2990 15 
Q 2628 -91 2222 -91 
Q 1400 -91 892 342 
Q 384 775 384 1459 
Q 384 1916 607 2267 
Q 831 2619 1338 2950 
Q 1206 3116 1143 3281 
Q 1081 3447 1081 3628 
Q 1081 4138 1478 4444 
Q 1875 4750 2534 4750 
Q 2819 4750 3126 4704 
Q 3434 4659 3769 4569 
L 3769 3700 
Q 3475 3850 3212 3922 
Q 2950 3994 2700 3994 
Q 2459 3994 2326 3901 
Q 2194 3809 2194 3641 
Q 2194 3534 2270 3398 
Q 2347 3263 2497 3097 
z
M 1875 2322 
Q 1672 2175 1569 1989 
Q 1466 1803 1466 1581 
Q 1466 1222 1731 969 
Q 1997 716 2369 716 
Q 2578 716 2759 780 
Q 2941 844 3097 972 
L 1875 2322 
z
" transform="scale(0.015625)"/>
     </defs>
     <use xlink:href="#DejaVuSans-Bold-50"/>
     <use xlink:href="#DejaVuSans-Bold-65" transform="translate(73.291016 0)"/>
     <use xlink:href="#DejaVuSans-Bold-72" transform="translate(141.113281 0)"/>
     <use xlink:href="#DejaVuSans-Bold-63" transform="translate(190.429688 0)"/>
     <use xlink:href="#DejaVuSans-Bold-65" transform="translate(249.707031 0)"/>
     <use xlink:href="#DejaVuSans-Bold-70" transform="translate(317.529297 0)"/>
     <use xlink:href="#DejaVuSans-Bold-74" transform="translate(389.111328 0)"/>
     <use xlink:href="#DejaVuSans-Bold-69" transform="translate(436.914062 0)"/>
     <use xlink:href="#DejaVuSans-Bold-6f" transform="translate(471.191406 0)"/>
     <use xlink:href="#DejaVuSans-Bold-6e" transform="translate(539.892578 0)"/>
     <use xlink:href="#DejaVuSans-Bold-20" transform="translate(611.083984 0)"/>
     <use xlink:href="#DejaVuSans-Bold-26" transform="translate(645.898438 0)"/>
     <use xlink:href="#DejaVuSans-Bold-20" transform="translate(733.105469 0)"/>
     <use xlink:href="#DejaVuSans-Bold-44" transform="translate(767.919922 0)"/>
     <use xlink:href="#DejaVuSans-Bold-65" transform="translate(850.927734 0)"/>
     <use xlink:href="#DejaVuSans-Bold-63" transform="translate(918.75 0)"/>
     <use xlink:href="#DejaVuSans-Bold-69" transform="translate(978.027344 0)"/>
     <use xlink:href="#DejaVuSans-Bold-73" transform="translate(1012.304688 0)"/>
     <use xlink:href="#DejaVuSans-Bold-69" transform="translate(1071.826172 0)"/>
     <use xlink:href="#DejaVuSans-Bold-6f" transform="translate(1106.103516 0)"/>
     <use xlink:href="#DejaVuSans-Bold-6e" transform="translate(1174.804688 0)"/>
    </g>
   </g>
   <g id="patch_16">
    <path d="M 181.8 152.687913 
Q 181.8 163.441103 181.8 172.517242 
" style="fill: none; stroke: #1f77b4; stroke-width: 1.5; stroke-linecap: round"/>
    <path d="M 184.2 167.717242 
L 181.8 172.517242 
L 179.4 167.717242 
z
" style="fill: #1f77b4; stroke: #1f77b4; stroke-width: 1.5; stroke-linecap: round"/>
   </g>
   <g id="patch_17">
    <path d="M 181.8 210.082199 
Q 181.8 220.835389 181.8 229.911528 
" style="fill: none; stroke: #1f77b4; stroke-width: 1.5; stroke-linecap: round"/>
    <path d="M 184.2 225.111528 
L 181.8 229.911528 
L 179.4 225.111528 
z
" style="fill: #1f77b4; stroke: #1f77b4; stroke-width: 1.5; stroke-linecap: round"/>
   </g>
   <g id="patch_18">
    <path d="M 179.920151 266.160887 
Q 146.879588 278.228722 115.414292 289.721201 
" style="fill: none; stroke: #1f77b4; stroke-width: 1.5; stroke-linecap: round"/>
    <path d="M 120.746351 290.328777 
L 115.414292 289.721201 
L 119.099588 285.820099 
z
" style="fill: #1f77b4; stroke: #1f77b4; stroke-width: 1.5; stroke-linecap: round"/>
   </g>
   <g id="patch_19">
    <path d="M 183.679849 266.160887 
Q 216.720412 278.228722 248.185708 289.721201 
" style="fill: none; stroke: #1f77b4; stroke-width: 1.5; stroke-linecap: round"/>
    <path d="M 244.500412 285.820099 
L 248.185708 289.721201 
L 242.853649 290.328777 
z
" style="fill: #1f77b4; stroke: #1f77b4; stroke-width: 1.5; stroke-linecap: round"/>
   </g>
   <g id="patch_20">
    <path d="M 113.839849 323.555173 
Q 146.880412 335.623008 178.345708 347.115487 
" style="fill: none; stroke: #1f77b4; stroke-width: 1.5; stroke-linecap: round"/>
    <path d="M 174.660412 343.214385 
L 178.345708 347.115487 
L 173.013649 347.723063 
z
" style="fill: #1f77b4; stroke: #1f77b4; stroke-width: 1.5; stroke-linecap: round"/>
   </g>
   <g id="patch_21">
    <path d="M 249.760151 323.555173 
Q 216.719588 335.623008 185.254292 347.115487 
" style="fill: none; stroke: #1f77b4; stroke-width: 1.5; stroke-linecap: round"/>
    <path d="M 190.586351 347.723063 
L 185.254292 347.115487 
L 188.939588 343.214385 
z
" style="fill: #1f77b4; stroke: #1f77b4; stroke-width: 1.5; stroke-linecap: round"/>
   </g>
   <g id="patch_22">
    <path d="M 181.8 382.265056 
Q 181.8 393.018246 181.8 402.094385 
" style="fill: none; stroke: #1f77b4; stroke-width: 1.5; stroke-linecap: round"/>
    <path d="M 184.2 397.294385 
L 181.8 402.094385 
L 179.4 397.294385 
z
" style="fill: #1f77b4; stroke: #1f77b4; stroke-width: 1.5; stroke-linecap: round"/>
   </g>
   <g id="patch_23">
    <path d="M 132.912 362.320623 
Q 132.912 278.229947 132.912 195.816322 
" style="fill: none; stroke-dasharray: 5.55,2.4; stroke-dashoffset: 0; stroke: #d32f2f; stroke-width: 1.5; stroke-linecap: round"/>
    <path d="M 130.512 200.616322 
L 132.912 195.816322 
L 135.312 200.616322 
z
" style="fill: #d32f2f; stroke-dasharray: 5.55,2.4; stroke-dashoffset: 0; stroke: #d32f2f; stroke-width: 1.5; stroke-linecap: round"/>
   </g>
   <g id="text_11">
    <!-- Top-down -->
    <g style="fill: #d32f2f" transform="translate(79.00575 266.08175) scale(0.08 -0.08)">
     <defs>
      <path id="DejaVuSans-54" d="M -19 4666 
L 3928 4666 
L 3928 4134 
L 2272 4134 
L 2272 0 
L 1638 0 
L 1638 4134 
L -19 4134 
L -19 4666 
z
" transform="scale(0.015625)"/>
      <path id="DejaVuSans-6f" d="M 1959 3097 
Q 1497 3097 1228 2736 
Q 959 2375 959 1747 
Q 959 1119 1226 758 
Q 1494 397 1959 397 
Q 2419 397 2687 759 
Q 2956 1122 2956 1747 
Q 2956 2369 2687 2733 
Q 2419 3097 1959 3097 
z
M 1959 3584 
Q 2709 3584 3137 3096 
Q 3566 2609 3566 1747 
Q 3566 888 3137 398 
Q 2709 -91 1959 -91 
Q 1206 -91 779 398 
Q 353 888 353 1747 
Q 353 2609 779 3096 
Q 1206 3584 1959 3584 
z
" transform="scale(0.015625)"/>
      <path id="DejaVuSans-70" d="M 1159 525 
L 1159 -1331 
L 581 -1331 
L 581 3500 
L 1159 3500 
L 1159 2969 
Q 1341 3281 1617 3432 
Q 1894 3584 2278 3584 
Q 2916 3584 3314 3078 
Q 3713 2572 3713 1747 
Q 3713 922 3314 415 
Q 2916 -91 2278 -91 
Q 1894 -91 1617 61 
Q 1341 213 1159 525 
z
M 3116 1747 
Q 3116 2381 2855 2742 
Q 2594 3103 2138 3103 
Q 1681 3103 1420 2742 
Q 1159 2381 1159 1747 
Q 1159 1113 1420 752 
Q 1681 391 2138 391 
Q 2594 391 2855 752 
Q 3116 1113 3116 1747 
z
" transform="scale(0.015625)"/>
      <path id="DejaVuSans-2d" d="M 313 2009 
L 1997 2009 
L 1997 1497 
L 313 1497 
L 313 2009 
z
" transform="scale(0.015625)"/>
      <path id="DejaVuSans-64" d="M 2906 2969 
L 2906 4863 
L 3481 4863 
L 3481 0 
L 2906 0 
L 2906 525 
Q 2725 213 2448 61 
Q 2172 -91 1784 -91 
Q 1150 -91 751 415 
Q 353 922 353 1747 
Q 353 2572 751 3078 
Q 1150 3584 1784 3584 
Q 2172 3584 2448 3432 
Q 2725 3281 2906 2969 
z
M 947 1747 
Q 947 1113 1208 752 
Q 1469 391 1925 391 
Q 2381 391 2643 752 
Q 2906 1113 2906 1747 
Q 2906 2381 2643 2742 
Q 2381 3103 1925 3103 
Q 1469 3103 1208 2742 
Q 947 2381 947 1747 
z
" transform="scale(0.015625)"/>
      <path id="DejaVuSans-77" d="M 269 3500 
L 844 3500 
L 1563 769 
L 2278 3500 
L 2956 3500 
L 3675 769 
L 4391 3500 
L 4966 3500 
L 4050 0 
L 3372 0 
L 2619 2869 
L 1863 0 
L 1184 0 
L 269 3500 
z
" transform="scale(0.015625)"/>
      <path id="DejaVuSans-6e" d="M 3513 2113 
L 3513 0 
L 2938 0 
L 2938 2094 
Q 2938 2591 2744 2837 
Q 2550 3084 2163 3084 
Q 1697 3084 1428 2787 
Q 1159 2491 1159 1978 
L 1159 0 
L 581 0 
L 581 3500 
L 1159 3500 
L 1159 2956 
Q 1366 3272 1645 3428 
Q 1925 3584 2291 3584 
Q 2894 3584 3203 3211 
Q 3513 2838 3513 2113 
z
" transform="scale(0.015625)"/>
     </defs>
     <use xlink:href="#DejaVuSans-54"/>
     <use xlink:href="#DejaVuSans-6f" transform="translate(44.083984 0)"/>
     <use xlink:href="#DejaVuSans-70" transform="translate(105.265625 0)"/>
     <use xlink:href="#DejaVuSans-2d" transform="translate(168.742188 0)"/>
     <use xlink:href="#DejaVuSans-64" transform="translate(204.826172 0)"/>
     <use xlink:href="#DejaVuSans-6f" transform="translate(268.302734 0)"/>
     <use xlink:href="#DejaVuSans-77" transform="translate(329.484375 0)"/>
     <use xlink:href="#DejaVuSans-6e" transform="translate(411.271484 0)"/>
    </g>
    <!-- feedback -->
    <g style="fill: #d32f2f" transform="translate(79.61575 275.04) scale(0.08 -0.08)">
     <defs>
      <path id="DejaVuSans-66" d="M 2375 4863 
L 2375 4384 
L 1825 4384 
Q 1516 4384 1395 4259 
Q 1275 4134 1275 3809 
L 1275 3500 
L 2222 3500 
L 2222 3053 
L 1275 3053 
L 1275 0 
L 697 0 
L 697 3053 
L 147 3053 
L 147 3500 
L 697 3500 
L 697 3744 
Q 697 4328 969 4595 
Q 1241 4863 1831 4863 
L 2375 4863 
z
" transform="scale(0.015625)"/>
      <path id="DejaVuSans-65" d="M 3597 1894 
L 3597 1613 
L 953 1613 
Q 991 1019 1311 708 
Q 1631 397 2203 397 
Q 2534 397 2845 478 
Q 3156 559 3463 722 
L 3463 178 
Q 3153 47 2828 -22 
Q 2503 -91 2169 -91 
Q 1331 -91 842 396 
Q 353 884 353 1716 
Q 353 2575 817 3079 
Q 1281 3584 2069 3584 
Q 2775 3584 3186 3129 
Q 3597 2675 3597 1894 
z
M 3022 2063 
Q 3016 2534 2758 2815 
Q 2500 3097 2075 3097 
Q 1594 3097 1305 2825 
Q 1016 2553 972 2059 
L 3022 2063 
z
" transform="scale(0.015625)"/>
      <path id="DejaVuSans-62" d="M 3116 1747 
Q 3116 2381 2855 2742 
Q 2594 3103 2138 3103 
Q 1681 3103 1420 2742 
Q 1159 2381 1159 1747 
Q 1159 1113 1420 752 
Q 1681 391 2138 391 
Q 2594 391 2855 752 
Q 3116 1113 3116 1747 
z
M 1159 2969 
Q 1341 3281 1617 3432 
Q 1894 3584 2278 3584 
Q 2916 3584 3314 3078 
Q 3713 2572 3713 1747 
Q 3713 922 3314 415 
Q 2916 -91 2278 -91 
Q 1894 -91 1617 61 
Q 1341 213 1159 525 
L 1159 0 
L 581 0 
L 581 4863 
L 1159 4863 
L 1159 2969 
z
" transform="scale(0.015625)"/>
      <path id="DejaVuSans-61" d="M 2194 1759 
Q 1497 1759 1228 1600 
Q 959 1441 959 1056 
Q 959 750 1161 570 
Q 1363 391 1709 391 
Q 2188 391 2477 730 
Q 2766 1069 2766 1631 
L 2766 1759 
L 2194 1759 
z
M 3341 1997 
L 3341 0 
L 2766 0 
L 2766 531 
Q 2569 213 2275 61 
Q 1981 -91 1556 -91 
Q 1019 -91 701 211 
Q 384 513 384 1019 
Q 384 1609 779 1909 
Q 1175 2209 1959 2209 
L 2766 2209 
L 2766 2266 
Q 2766 2663 2505 2880 
Q 2244 3097 1772 3097 
Q 1472 3097 1187 3025 
Q 903 2953 641 2809 
L 641 3341 
Q 956 3463 1253 3523 
Q 1550 3584 1831 3584 
Q 2591 3584 2966 3190 
Q 3341 2797 3341 1997 
z
" transform="scale(0.015625)"/>
      <path id="DejaVuSans-63" d="M 3122 3366 
L 3122 2828 
Q 2878 2963 2633 3030 
Q 2388 3097 2138 3097 
Q 1578 3097 1268 2742 
Q 959 2388 959 1747 
Q 959 1106 1268 751 
Q 1578 397 2138 397 
Q 2388 397 2633 464 
Q 2878 531 3122 666 
L 3122 134 
Q 2881 22 2623 -34 
Q 2366 -91 2075 -91 
Q 1284 -91 818 406 
Q 353 903 353 1747 
Q 353 2603 823 3093 
Q 1294 3584 2113 3584 
Q 2378 3584 2631 3529 
Q 2884 3475 3122 3366 
z
" transform="scale(0.015625)"/>
      <path id="DejaVuSans-6b" d="M 581 4863 
L 1159 4863 
L 1159 1991 
L 2875 3500 
L 3609 3500 
L 1753 1863 
L 3688 0 
L 2938 0 
L 1159 1709 
L 1159 0 
L 581 0 
L 581 4863 
z
" transform="scale(0.015625)"/>
     </defs>
     <use xlink:href="#DejaVuSans-66"/>
     <use xlink:href="#DejaVuSans-65" transform="translate(35.205078 0)"/>
     <use xlink:href="#DejaVuSans-65" transform="translate(96.728516 0)"/>
     <use xlink:href="#DejaVuSans-64" transform="translate(158.251953 0)"/>
     <use xlink:href="#DejaVuSans-62" transform="translate(221.728516 0)"/>
     <use xlink:href="#DejaVuSans-61" transform="translate(285.205078 0)"/>
     <use xlink:href="#DejaVuSans-63" transform="translate(346.484375 0)"/>
     <use xlink:href="#DejaVuSans-6b" transform="translate(401.464844 0)"/>
    </g>
   </g>
   <g id="text_12">
    <!-- Input Tensors -->
    <g style="fill: #111111" transform="translate(494.672148 137.364263) scale(0.095 -0.095)">
     <use xlink:href="#DejaVuSans-Bold-49"/>
     <use xlink:href="#DejaVuSans-Bold-6e" transform="translate(37.207031 0)"/>
     <use xlink:href="#DejaVuSans-Bold-70" transform="translate(108.398438 0)"/>
     <use xlink:href="#DejaVuSans-Bold-75" transform="translate(179.980469 0)"/>
     <use xlink:href="#DejaVuSans-Bold-74" transform="translate(251.171875 0)"/>
     <use xlink:href="#DejaVuSans-Bold-20" transform="translate(298.974609 0)"/>
     <use xlink:href="#DejaVuSans-Bold-54" transform="translate(333.789062 0)"/>
     <use xlink:href="#DejaVuSans-Bold-65" transform="translate(388.751953 0)"/>
     <use xlink:href="#DejaVuSans-Bold-6e" transform="translate(456.574219 0)"/>
     <use xlink:href="#DejaVuSans-Bold-73" transform="translate(527.765625 0)"/>
     <use xlink:href="#DejaVuSans-Bold-6f" transform="translate(587.287109 0)"/>
     <use xlink:href="#DejaVuSans-Bold-72" transform="translate(655.988281 0)"/>
     <use xlink:href="#DejaVuSans-Bold-73" transform="translate(705.304688 0)"/>
    </g>
   </g>
   <g id="text_13">
    <!-- Convolutional Stem -->
    <g style="fill: #111111" transform="translate(478.606016 194.758549) scale(0.095 -0.095)">
     <defs>
      <path id="DejaVuSans-Bold-76" d="M 97 3500 
L 1216 3500 
L 2088 1081 
L 2956 3500 
L 4078 3500 
L 2700 0 
L 1472 0 
L 97 3500 
z
" transform="scale(0.015625)"/>
     </defs>
     <use xlink:href="#DejaVuSans-Bold-43"/>
     <use xlink:href="#DejaVuSans-Bold-6f" transform="translate(73.388672 0)"/>
     <use xlink:href="#DejaVuSans-Bold-6e" transform="translate(142.089844 0)"/>
     <use xlink:href="#DejaVuSans-Bold-76" transform="translate(213.28125 0)"/>
     <use xlink:href="#DejaVuSans-Bold-6f" transform="translate(278.466797 0)"/>
     <use xlink:href="#DejaVuSans-Bold-6c" transform="translate(347.167969 0)"/>
     <use xlink:href="#DejaVuSans-Bold-75" transform="translate(381.445312 0)"/>
     <use xlink:href="#DejaVuSans-Bold-74" transform="translate(452.636719 0)"/>
     <use xlink:href="#DejaVuSans-Bold-69" transform="translate(500.439453 0)"/>
     <use xlink:href="#DejaVuSans-Bold-6f" transform="translate(534.716797 0)"/>
     <use xlink:href="#DejaVuSans-Bold-6e" transform="translate(603.417969 0)"/>
     <use xlink:href="#DejaVuSans-Bold-61" transform="translate(674.609375 0)"/>
     <use xlink:href="#DejaVuSans-Bold-6c" transform="translate(742.089844 0)"/>
     <use xlink:href="#DejaVuSans-Bold-20" transform="translate(776.367188 0)"/>
     <use xlink:href="#DejaVuSans-Bold-53" transform="translate(811.181641 0)"/>
     <use xlink:href="#DejaVuSans-Bold-74" transform="translate(883.203125 0)"/>
     <use xlink:href="#DejaVuSans-Bold-65" transform="translate(931.005859 0)"/>
     <use xlink:href="#DejaVuSans-Bold-6d" transform="translate(998.828125 0)"/>
    </g>
   </g>
   <g id="text_14">
    <!-- Patch Tokenizer -->
    <g style="fill: #111111" transform="translate(488.847461 252.152835) scale(0.095 -0.095)">
     <defs>
      <path id="DejaVuSans-Bold-6b" d="M 538 4863 
L 1656 4863 
L 1656 2216 
L 2944 3500 
L 4244 3500 
L 2534 1894 
L 4378 0 
L 3022 0 
L 1656 1459 
L 1656 0 
L 538 0 
L 538 4863 
z
" transform="scale(0.015625)"/>
      <path id="DejaVuSans-Bold-7a" d="M 366 3500 
L 3419 3500 
L 3419 2719 
L 1575 800 
L 3419 800 
L 3419 0 
L 288 0 
L 288 781 
L 2131 2700 
L 366 2700 
L 366 3500 
z
" transform="scale(0.015625)"/>
     </defs>
     <use xlink:href="#DejaVuSans-Bold-50"/>
     <use xlink:href="#DejaVuSans-Bold-61" transform="translate(70.666016 0)"/>
     <use xlink:href="#DejaVuSans-Bold-74" transform="translate(138.146484 0)"/>
     <use xlink:href="#DejaVuSans-Bold-63" transform="translate(185.949219 0)"/>
     <use xlink:href="#DejaVuSans-Bold-68" transform="translate(245.226562 0)"/>
     <use xlink:href="#DejaVuSans-Bold-20" transform="translate(316.417969 0)"/>
     <use xlink:href="#DejaVuSans-Bold-54" transform="translate(351.232422 0)"/>
     <use xlink:href="#DejaVuSans-Bold-6f" transform="translate(406.195312 0)"/>
     <use xlink:href="#DejaVuSans-Bold-6b" transform="translate(474.896484 0)"/>
     <use xlink:href="#DejaVuSans-Bold-65" transform="translate(538.775391 0)"/>
     <use xlink:href="#DejaVuSans-Bold-6e" transform="translate(606.597656 0)"/>
     <use xlink:href="#DejaVuSans-Bold-69" transform="translate(677.789062 0)"/>
     <use xlink:href="#DejaVuSans-Bold-7a" transform="translate(712.066406 0)"/>
     <use xlink:href="#DejaVuSans-Bold-65" transform="translate(770.269531 0)"/>
     <use xlink:href="#DejaVuSans-Bold-72" transform="translate(838.091797 0)"/>
    </g>
   </g>
   <g id="text_15">
    <!-- Ventral Transformer -->
    <g style="fill: #111111" transform="translate(407.381836 309.547121) scale(0.095 -0.095)">
     <defs>
      <path id="DejaVuSans-Bold-66" d="M 2841 4863 
L 2841 4128 
L 2222 4128 
Q 1984 4128 1890 4042 
Q 1797 3956 1797 3744 
L 1797 3500 
L 2753 3500 
L 2753 2700 
L 1797 2700 
L 1797 0 
L 678 0 
L 678 2700 
L 122 2700 
L 122 3500 
L 678 3500 
L 678 3744 
Q 678 4316 997 4589 
Q 1316 4863 1984 4863 
L 2841 4863 
z
" transform="scale(0.015625)"/>
     </defs>
     <use xlink:href="#DejaVuSans-Bold-56"/>
     <use xlink:href="#DejaVuSans-Bold-65" transform="translate(71.892578 0)"/>
     <use xlink:href="#DejaVuSans-Bold-6e" transform="translate(139.714844 0)"/>
     <use xlink:href="#DejaVuSans-Bold-74" transform="translate(210.90625 0)"/>
     <use xlink:href="#DejaVuSans-Bold-72" transform="translate(258.708984 0)"/>
     <use xlink:href="#DejaVuSans-Bold-61" transform="translate(308.025391 0)"/>
     <use xlink:href="#DejaVuSans-Bold-6c" transform="translate(375.505859 0)"/>
     <use xlink:href="#DejaVuSans-Bold-20" transform="translate(409.783203 0)"/>
     <use xlink:href="#DejaVuSans-Bold-54" transform="translate(444.597656 0)"/>
     <use xlink:href="#DejaVuSans-Bold-72" transform="translate(501.810547 0)"/>
     <use xlink:href="#DejaVuSans-Bold-61" transform="translate(551.126953 0)"/>
     <use xlink:href="#DejaVuSans-Bold-6e" transform="translate(618.607422 0)"/>
     <use xlink:href="#DejaVuSans-Bold-73" transform="translate(689.798828 0)"/>
     <use xlink:href="#DejaVuSans-Bold-66" transform="translate(749.320312 0)"/>
     <use xlink:href="#DejaVuSans-Bold-6f" transform="translate(792.826172 0)"/>
     <use xlink:href="#DejaVuSans-Bold-72" transform="translate(861.527344 0)"/>
     <use xlink:href="#DejaVuSans-Bold-6d" transform="translate(910.84375 0)"/>
     <use xlink:href="#DejaVuSans-Bold-65" transform="translate(1015.042969 0)"/>
     <use xlink:href="#DejaVuSans-Bold-72" transform="translate(1082.865234 0)"/>
    </g>
   </g>
   <g id="text_16">
    <!-- Dorsal Transformer -->
    <g style="fill: #111111" transform="translate(549.316602 309.547121) scale(0.095 -0.095)">
     <use xlink:href="#DejaVuSans-Bold-44"/>
     <use xlink:href="#DejaVuSans-Bold-6f" transform="translate(83.007812 0)"/>
     <use xlink:href="#DejaVuSans-Bold-72" transform="translate(151.708984 0)"/>
     <use xlink:href="#DejaVuSans-Bold-73" transform="translate(201.025391 0)"/>
     <use xlink:href="#DejaVuSans-Bold-61" transform="translate(260.546875 0)"/>
     <use xlink:href="#DejaVuSans-Bold-6c" transform="translate(328.027344 0)"/>
     <use xlink:href="#DejaVuSans-Bold-20" transform="translate(362.304688 0)"/>
     <use xlink:href="#DejaVuSans-Bold-54" transform="translate(397.119141 0)"/>
     <use xlink:href="#DejaVuSans-Bold-72" transform="translate(454.332031 0)"/>
     <use xlink:href="#DejaVuSans-Bold-61" transform="translate(503.648438 0)"/>
     <use xlink:href="#DejaVuSans-Bold-6e" transform="translate(571.128906 0)"/>
     <use xlink:href="#DejaVuSans-Bold-73" transform="translate(642.320312 0)"/>
     <use xlink:href="#DejaVuSans-Bold-66" transform="translate(701.841797 0)"/>
     <use xlink:href="#DejaVuSans-Bold-6f" transform="translate(745.347656 0)"/>
     <use xlink:href="#DejaVuSans-Bold-72" transform="translate(814.048828 0)"/>
     <use xlink:href="#DejaVuSans-Bold-6d" transform="translate(863.365234 0)"/>
     <use xlink:href="#DejaVuSans-Bold-65" transform="translate(967.564453 0)"/>
     <use xlink:href="#DejaVuSans-Bold-72" transform="translate(1035.386719 0)"/>
    </g>
   </g>
   <g id="text_17">
    <!-- Recurrent Feedback Loop -->
    <g style="fill: #111111" transform="translate(462.625977 366.941406) scale(0.095 -0.095)">
     <defs>
      <path id="DejaVuSans-Bold-46" d="M 588 4666 
L 3834 4666 
L 3834 3756 
L 1791 3756 
L 1791 2888 
L 3713 2888 
L 3713 1978 
L 1791 1978 
L 1791 0 
L 588 0 
L 588 4666 
z
" transform="scale(0.015625)"/>
      <path id="DejaVuSans-Bold-62" d="M 2400 722 
Q 2759 722 2948 984 
Q 3138 1247 3138 1747 
Q 3138 2247 2948 2509 
Q 2759 2772 2400 2772 
Q 2041 2772 1848 2508 
Q 1656 2244 1656 1747 
Q 1656 1250 1848 986 
Q 2041 722 2400 722 
z
M 1656 2988 
Q 1888 3294 2169 3439 
Q 2450 3584 2816 3584 
Q 3463 3584 3878 3070 
Q 4294 2556 4294 1747 
Q 4294 938 3878 423 
Q 3463 -91 2816 -91 
Q 2450 -91 2169 54 
Q 1888 200 1656 506 
L 1656 0 
L 538 0 
L 538 4863 
L 1656 4863 
L 1656 2988 
z
" transform="scale(0.015625)"/>
     </defs>
     <use xlink:href="#DejaVuSans-Bold-52"/>
     <use xlink:href="#DejaVuSans-Bold-65" transform="translate(77.001953 0)"/>
     <use xlink:href="#DejaVuSans-Bold-63" transform="translate(144.824219 0)"/>
     <use xlink:href="#DejaVuSans-Bold-75" transform="translate(204.101562 0)"/>
     <use xlink:href="#DejaVuSans-Bold-72" transform="translate(275.292969 0)"/>
     <use xlink:href="#DejaVuSans-Bold-72" transform="translate(324.609375 0)"/>
     <use xlink:href="#DejaVuSans-Bold-65" transform="translate(373.925781 0)"/>
     <use xlink:href="#DejaVuSans-Bold-6e" transform="translate(441.748047 0)"/>
     <use xlink:href="#DejaVuSans-Bold-74" transform="translate(512.939453 0)"/>
     <use xlink:href="#DejaVuSans-Bold-20" transform="translate(560.742188 0)"/>
     <use xlink:href="#DejaVuSans-Bold-46" transform="translate(595.556641 0)"/>
     <use xlink:href="#DejaVuSans-Bold-65" transform="translate(659.867188 0)"/>
     <use xlink:href="#DejaVuSans-Bold-65" transform="translate(727.689453 0)"/>
     <use xlink:href="#DejaVuSans-Bold-64" transform="translate(795.511719 0)"/>
     <use xlink:href="#DejaVuSans-Bold-62" transform="translate(867.09375 0)"/>
     <use xlink:href="#DejaVuSans-Bold-61" transform="translate(938.675781 0)"/>
     <use xlink:href="#DejaVuSans-Bold-63" transform="translate(1006.15625 0)"/>
     <use xlink:href="#DejaVuSans-Bold-6b" transform="translate(1065.433594 0)"/>
     <use xlink:href="#DejaVuSans-Bold-20" transform="translate(1131.9375 0)"/>
     <use xlink:href="#DejaVuSans-Bold-4c" transform="translate(1166.751953 0)"/>
     <use xlink:href="#DejaVuSans-Bold-6f" transform="translate(1230.472656 0)"/>
     <use xlink:href="#DejaVuSans-Bold-6f" transform="translate(1299.173828 0)"/>
     <use xlink:href="#DejaVuSans-Bold-70" transform="translate(1367.875 0)"/>
    </g>
   </g>
   <g id="text_18">
    <!-- Prototype Head Prediction -->
    <g style="fill: #111111" transform="translate(459.847227 424.298583) scale(0.095 -0.095)">
     <use xlink:href="#DejaVuSans-Bold-50"/>
     <use xlink:href="#DejaVuSans-Bold-72" transform="translate(73.291016 0)"/>
     <use xlink:href="#DejaVuSans-Bold-6f" transform="translate(122.607422 0)"/>
     <use xlink:href="#DejaVuSans-Bold-74" transform="translate(191.308594 0)"/>
     <use xlink:href="#DejaVuSans-Bold-6f" transform="translate(239.111328 0)"/>
     <use xlink:href="#DejaVuSans-Bold-74" transform="translate(307.8125 0)"/>
     <use xlink:href="#DejaVuSans-Bold-79" transform="translate(355.615234 0)"/>
     <use xlink:href="#DejaVuSans-Bold-70" transform="translate(420.800781 0)"/>
     <use xlink:href="#DejaVuSans-Bold-65" transform="translate(492.382812 0)"/>
     <use xlink:href="#DejaVuSans-Bold-20" transform="translate(560.205078 0)"/>
     <use xlink:href="#DejaVuSans-Bold-48" transform="translate(595.019531 0)"/>
     <use xlink:href="#DejaVuSans-Bold-65" transform="translate(678.710938 0)"/>
     <use xlink:href="#DejaVuSans-Bold-61" transform="translate(746.533203 0)"/>
     <use xlink:href="#DejaVuSans-Bold-64" transform="translate(814.013672 0)"/>
     <use xlink:href="#DejaVuSans-Bold-20" transform="translate(885.595703 0)"/>
     <use xlink:href="#DejaVuSans-Bold-50" transform="translate(920.410156 0)"/>
     <use xlink:href="#DejaVuSans-Bold-72" transform="translate(993.701172 0)"/>
     <use xlink:href="#DejaVuSans-Bold-65" transform="translate(1043.017578 0)"/>
     <use xlink:href="#DejaVuSans-Bold-64" transform="translate(1110.839844 0)"/>
     <use xlink:href="#DejaVuSans-Bold-69" transform="translate(1182.421875 0)"/>
     <use xlink:href="#DejaVuSans-Bold-63" transform="translate(1216.699219 0)"/>
     <use xlink:href="#DejaVuSans-Bold-74" transform="translate(1275.976562 0)"/>
     <use xlink:href="#DejaVuSans-Bold-69" transform="translate(1323.779297 0)"/>
     <use xlink:href="#DejaVuSans-Bold-6f" transform="translate(1358.056641 0)"/>
     <use xlink:href="#DejaVuSans-Bold-6e" transform="translate(1426.757812 0)"/>
    </g>
   </g>
   <g id="patch_24">
    <path d="M 531 152.687913 
Q 531 163.441103 531 172.517242 
" style="fill: none; stroke: #1f77b4; stroke-width: 1.5; stroke-linecap: round"/>
    <path d="M 533.4 167.717242 
L 531 172.517242 
L 528.6 167.717242 
z
" style="fill: #1f77b4; stroke: #1f77b4; stroke-width: 1.5; stroke-linecap: round"/>
   </g>
   <g id="patch_25">
    <path d="M 531 210.082199 
Q 531 220.835389 531 229.911528 
" style="fill: none; stroke: #1f77b4; stroke-width: 1.5; stroke-linecap: round"/>
    <path d="M 533.4 225.111528 
L 531 229.911528 
L 528.6 225.111528 
z
" style="fill: #1f77b4; stroke: #1f77b4; stroke-width: 1.5; stroke-linecap: round"/>
   </g>
   <g id="patch_26">
    <path d="M 529.120151 266.160887 
Q 496.079588 278.228722 464.614292 289.721201 
" style="fill: none; stroke: #1f77b4; stroke-width: 1.5; stroke-linecap: round"/>
    <path d="M 469.946351 290.328777 
L 464.614292 289.721201 
L 468.299588 285.820099 
z
" style="fill: #1f77b4; stroke: #1f77b4; stroke-width: 1.5; stroke-linecap: round"/>
   </g>
   <g id="patch_27">
    <path d="M 532.879849 266.160887 
Q 565.920412 278.228722 597.385708 289.721201 
" style="fill: none; stroke: #1f77b4; stroke-width: 1.5; stroke-linecap: round"/>
    <path d="M 593.700412 285.820099 
L 597.385708 289.721201 
L 592.053649 290.328777 
z
" style="fill: #1f77b4; stroke: #1f77b4; stroke-width: 1.5; stroke-linecap: round"/>
   </g>
   <g id="patch_28">
    <path d="M 463.039849 323.555173 
Q 496.080412 335.623008 527.545708 347.115487 
" style="fill: none; stroke: #1f77b4; stroke-width: 1.5; stroke-linecap: round"/>
    <path d="M 523.860412 343.214385 
L 527.545708 347.115487 
L 522.213649 347.723063 
z
" style="fill: #1f77b4; stroke: #1f77b4; stroke-width: 1.5; stroke-linecap: round"/>
   </g>
   <g id="patch_29">
    <path d="M 598.960151 323.555173 
Q 565.919588 335.623008 534.454292 347.115487 
" style="fill: none; stroke: #1f77b4; stroke-width: 1.5; stroke-linecap: round"/>
    <path d="M 539.786351 347.723063 
L 534.454292 347.115487 
L 538.139588 343.214385 
z
" style="fill: #1f77b4; stroke: #1f77b4; stroke-width: 1.5; stroke-linecap: round"/>
   </g>
   <g id="patch_30">
    <path d="M 531 382.265056 
Q 531 393.018246 531 402.094385 
" style="fill: none; stroke: #1f77b4; stroke-width: 1.5; stroke-linecap: round"/>
    <path d="M 533.4 397.294385 
L 531 402.094385 
L 528.6 397.294385 
z
" style="fill: #1f77b4; stroke: #1f77b4; stroke-width: 1.5; stroke-linecap: round"/>
   </g>
   <g id="patch_31">
    <path d="M 253.639524 134.742857 
Q 352.90869 134.742857 451.059823 134.742857 
" style="fill: none; stroke-dasharray: 3.7,1.6; stroke-dashoffset: 0; stroke: #78909c; stroke-linecap: round"/>
    <path d="M 446.259823 132.342857 
L 451.059823 134.742857 
L 446.259823 137.142857 
z
" style="fill: #78909c; stroke-dasharray: 3.7,1.6; stroke-dashoffset: 0; stroke: #78909c; stroke-linecap: round"/>
   </g>
   <g id="patch_32">
    <path d="M 253.639524 192.137143 
Q 352.90869 192.137143 451.059823 192.137143 
" style="fill: none; stroke-dasharray: 3.7,1.6; stroke-dashoffset: 0; stroke: #78909c; stroke-linecap: round"/>
    <path d="M 446.259823 189.737143 
L 451.059823 192.137143 
L 446.259823 194.537143 
z
" style="fill: #78909c; stroke-dasharray: 3.7,1.6; stroke-dashoffset: 0; stroke: #78909c; stroke-linecap: round"/>
   </g>
   <g id="patch_33">
    <path d="M 253.639524 249.531429 
Q 352.90869 249.531429 451.059823 249.531429 
" style="fill: none; stroke-dasharray: 3.7,1.6; stroke-dashoffset: 0; stroke: #78909c; stroke-linecap: round"/>
    <path d="M 446.259823 247.131429 
L 451.059823 249.531429 
L 446.259823 251.931429 
z
" style="fill: #78909c; stroke-dasharray: 3.7,1.6; stroke-dashoffset: 0; stroke: #78909c; stroke-linecap: round"/>
   </g>
   <g id="patch_34">
    <path d="M 253.639524 364.32 
Q 352.90869 364.32 451.059823 364.32 
" style="fill: none; stroke-dasharray: 3.7,1.6; stroke-dashoffset: 0; stroke: #78909c; stroke-linecap: round"/>
    <path d="M 446.259823 361.92 
L 451.059823 364.32 
L 446.259823 366.72 
z
" style="fill: #78909c; stroke-dasharray: 3.7,1.6; stroke-dashoffset: 0; stroke: #78909c; stroke-linecap: round"/>
   </g>
   <g id="patch_35">
    <path d="M 253.639524 421.714286 
Q 352.90869 421.714286 451.059823 421.714286 
" style="fill: none; stroke-dasharray: 3.7,1.6; stroke-dashoffset: 0; stroke: #78909c; stroke-linecap: round"/>
    <path d="M 446.259823 419.314286 
L 451.059823 421.714286 
L 446.259823 424.114286 
z
" style="fill: #78909c; stroke-dasharray: 3.7,1.6; stroke-dashoffset: 0; stroke: #78909c; stroke-linecap: round"/>
   </g>
  </g>
 </g>
 <defs>
  <clipPath id="p9cb5cdbdfb">
   <rect x="7.2" y="7.2" width="698.4" height="446.4"/>
  </clipPath>
 </defs>
</svg>
