<?xml version="1.0" encoding="utf-8" standalone="no"?>
<!DOCTYPE svg PUBLIC "-//W3C//DTD SVG 1.1//EN"
  "http://www.w3.org/Graphics/SVG/1.1/DTD/svg11.dtd">
<svg xmlns:xlink="http://www.w3.org/1999/xlink" width="712.8pt" height="439.2pt" viewBox="0 0 712.8 439.2" xmlns="http://www.w3.org/2000/svg" version="1.1">
 <metadata>
  <rdf:RDF xmlns:dc="http://purl.org/dc/elements/1.1/" xmlns:cc="http://creativecommons.org/ns#" xmlns:rdf="http://www.w3.org/1999/02/22-rdf-syntax-ns#">
   <cc:Work>
    <dc:type rdf:resource="http://purl.org/dc/dcmitype/StillImage"/>
    <dc:date>2026-07-07T07:49:32.095599</dc:date>
    <dc:format>image/svg+xml</dc:format>
    <dc:creator>
     <cc:Agent>
      <dc:title>Matplotlib v3.10.9, https://matplotlib.org/</dc:title>
     </cc:Agent>
    </dc:creator>
   </cc:Work>
  </rdf:RDF>
 </metadata>
 <defs>
  <style type="text/css">*{stroke-linejoin: round; stroke-linecap: butt}</style>
 </defs>
 <g id="figure_1">
  <g id="patch_1">
   <path d="M 0 439.2 
L 712.8 439.2 
L 712.8 0 
L 0 0 
z
" style="fill: #ffffff"/>
  </g>
  <g id="axes_1">
   <g id="patch_2">
    <path d="M 84.024 123.677419 
L 209.736 123.677419 
L 209.736 82.567742 
L 84.024 82.567742 
z
" clip-path="url(#pf023a99395)" style="fill: #f8f9fa; stroke: #1f77b4; stroke-width: 1.5"/>
   </g>
   <g id="patch_3">
    <path d="M 84.024 216.174194 
L 209.736 216.174194 
L 209.736 181.916129 
L 84.024 181.916129 
z
" clip-path="url(#pf023a99395)" style="fill: #fff0f5; stroke: #d32f2f; stroke-width: 1.5"/>
   </g>
   <g id="patch_4">
    <path d="M 503.064 123.677419 
L 628.776 123.677419 
L 628.776 82.567742 
L 503.064 82.567742 
z
" clip-path="url(#pf023a99395)" style="fill: #f8f9fa; stroke: #1f77b4; stroke-width: 1.5"/>
   </g>
   <g id="patch_5">
    <path d="M 84.024 298.393548 
L 209.736 298.393548 
L 209.736 264.135484 
L 84.024 264.135484 
z
" clip-path="url(#pf023a99395)" style="fill: #f8f9fa; stroke: #1f77b4; stroke-width: 1.5"/>
   </g>
   <g id="patch_6">
    <path d="M 503.064 298.393548 
L 628.776 298.393548 
L 628.776 264.135484 
L 503.064 264.135484 
z
" clip-path="url(#pf023a99395)" style="fill: #f8f9fa; stroke: #1f77b4; stroke-width: 1.5"/>
   </g>
   <g id="patch_7">
    <path d="M 293.544 123.677419 
L 419.256 123.677419 
L 419.256 82.567742 
L 293.544 82.567742 
z
" clip-path="url(#pf023a99395)" style="fill: #e0ffff; stroke: #1f77b4; stroke-width: 1.5"/>
   </g>
   <g id="patch_8">
    <path d="M 293.544 216.174194 
L 419.256 216.174194 
L 419.256 181.916129 
L 293.544 181.916129 
z
" clip-path="url(#pf023a99395)" style="fill: #f8f9fa; stroke: #1f77b4; stroke-width: 1.5"/>
   </g>
   <g id="patch_9">
    <path d="M 272.592 356.632258 
L 440.208 356.632258 
L 440.208 315.522581 
L 272.592 315.522581 
z
" clip-path="url(#pf023a99395)" style="fill: #f8f9fa; stroke: #1f77b4; stroke-width: 1.5"/>
   </g>
   <g id="text_1">
    <!-- Adversarial Temporal Consistency &amp; Causality -->
    <g transform="translate(188.248047 34.606452) scale(0.13 -0.13)">
     <defs>
      <path id="DejaVuSans-Bold-41" d="M 3419 850 
L 1538 850 
L 1241 0 
L 31 0 
L 1759 4666 
L 3194 4666 
L 4922 0 
L 3713 0 
L 3419 850 
z
M 1838 1716 
L 3116 1716 
L 2478 3572 
L 1838 1716 
z
" transform="scale(0.015625)"/>
      <path id="DejaVuSans-Bold-64" d="M 2919 2988 
L 2919 4863 
L 4044 4863 
L 4044 0 
L 2919 0 
L 2919 506 
Q 2688 197 2409 53 
Q 2131 -91 1766 -91 
Q 1119 -91 703 423 
Q 288 938 288 1747 
Q 288 2556 703 3070 
Q 1119 3584 1766 3584 
Q 2128 3584 2408 3439 
Q 2688 3294 2919 2988 
z
M 2181 722 
Q 2541 722 2730 984 
Q 2919 1247 2919 1747 
Q 2919 2247 2730 2509 
Q 2541 2772 2181 2772 
Q 1825 2772 1636 2509 
Q 1447 2247 1447 1747 
Q 1447 1247 1636 984 
Q 1825 722 2181 722 
z
" transform="scale(0.015625)"/>
      <path id="DejaVuSans-Bold-76" d="M 97 3500 
L 1216 3500 
L 2088 1081 
L 2956 3500 
L 4078 3500 
L 2700 0 
L 1472 0 
L 97 3500 
z
" transform="scale(0.015625)"/>
      <path id="DejaVuSans-Bold-65" d="M 4031 1759 
L 4031 1441 
L 1416 1441 
Q 1456 1047 1700 850 
Q 1944 653 2381 653 
Q 2734 653 3104 758 
Q 3475 863 3866 1075 
L 3866 213 
Q 3469 63 3072 -14 
Q 2675 -91 2278 -91 
Q 1328 -91 801 392 
Q 275 875 275 1747 
Q 275 2603 792 3093 
Q 1309 3584 2216 3584 
Q 3041 3584 3536 3087 
Q 4031 2591 4031 1759 
z
M 2881 2131 
Q 2881 2450 2695 2645 
Q 2509 2841 2209 2841 
Q 1884 2841 1681 2658 
Q 1478 2475 1428 2131 
L 2881 2131 
z
" transform="scale(0.015625)"/>
      <path id="DejaVuSans-Bold-72" d="M 3138 2547 
Q 2991 2616 2845 2648 
Q 2700 2681 2553 2681 
Q 2122 2681 1889 2404 
Q 1656 2128 1656 1613 
L 1656 0 
L 538 0 
L 538 3500 
L 1656 3500 
L 1656 2925 
Q 1872 3269 2151 3426 
Q 2431 3584 2822 3584 
Q 2878 3584 2943 3579 
Q 3009 3575 3134 3559 
L 3138 2547 
z
" transform="scale(0.015625)"/>
      <path id="DejaVuSans-Bold-73" d="M 3272 3391 
L 3272 2541 
Q 2913 2691 2578 2766 
Q 2244 2841 1947 2841 
Q 1628 2841 1473 2761 
Q 1319 2681 1319 2516 
Q 1319 2381 1436 2309 
Q 1553 2238 1856 2203 
L 2053 2175 
Q 2913 2066 3209 1816 
Q 3506 1566 3506 1031 
Q 3506 472 3093 190 
Q 2681 -91 1863 -91 
Q 1516 -91 1145 -36 
Q 775 19 384 128 
L 384 978 
Q 719 816 1070 734 
Q 1422 653 1784 653 
Q 2113 653 2278 743 
Q 2444 834 2444 1013 
Q 2444 1163 2330 1236 
Q 2216 1309 1875 1350 
L 1678 1375 
Q 931 1469 631 1722 
Q 331 1975 331 2491 
Q 331 3047 712 3315 
Q 1094 3584 1881 3584 
Q 2191 3584 2531 3537 
Q 2872 3491 3272 3391 
z
" transform="scale(0.015625)"/>
      <path id="DejaVuSans-Bold-61" d="M 2106 1575 
Q 1756 1575 1579 1456 
Q 1403 1338 1403 1106 
Q 1403 894 1545 773 
Q 1688 653 1941 653 
Q 2256 653 2472 879 
Q 2688 1106 2688 1447 
L 2688 1575 
L 2106 1575 
z
M 3816 1997 
L 3816 0 
L 2688 0 
L 2688 519 
Q 2463 200 2181 54 
Q 1900 -91 1497 -91 
Q 953 -91 614 226 
Q 275 544 275 1050 
Q 275 1666 698 1953 
Q 1122 2241 2028 2241 
L 2688 2241 
L 2688 2328 
Q 2688 2594 2478 2717 
Q 2269 2841 1825 2841 
Q 1466 2841 1156 2769 
Q 847 2697 581 2553 
L 581 3406 
Q 941 3494 1303 3539 
Q 1666 3584 2028 3584 
Q 2975 3584 3395 3211 
Q 3816 2838 3816 1997 
z
" transform="scale(0.015625)"/>
      <path id="DejaVuSans-Bold-69" d="M 538 3500 
L 1656 3500 
L 1656 0 
L 538 0 
L 538 3500 
z
M 538 4863 
L 1656 4863 
L 1656 3950 
L 538 3950 
L 538 4863 
z
" transform="scale(0.015625)"/>
      <path id="DejaVuSans-Bold-6c" d="M 538 4863 
L 1656 4863 
L 1656 0 
L 538 0 
L 538 4863 
z
" transform="scale(0.015625)"/>
      <path id="DejaVuSans-Bold-20" transform="scale(0.015625)"/>
      <path id="DejaVuSans-Bold-54" d="M 31 4666 
L 4331 4666 
L 4331 3756 
L 2784 3756 
L 2784 0 
L 1581 0 
L 1581 3756 
L 31 3756 
L 31 4666 
z
" transform="scale(0.015625)"/>
      <path id="DejaVuSans-Bold-6d" d="M 3781 2919 
Q 3994 3244 4286 3414 
Q 4578 3584 4928 3584 
Q 5531 3584 5847 3212 
Q 6163 2841 6163 2131 
L 6163 0 
L 5038 0 
L 5038 1825 
Q 5041 1866 5042 1909 
Q 5044 1953 5044 2034 
Q 5044 2406 4934 2573 
Q 4825 2741 4581 2741 
Q 4263 2741 4089 2478 
Q 3916 2216 3909 1719 
L 3909 0 
L 2784 0 
L 2784 1825 
Q 2784 2406 2684 2573 
Q 2584 2741 2328 2741 
Q 2006 2741 1831 2477 
Q 1656 2213 1656 1722 
L 1656 0 
L 531 0 
L 531 3500 
L 1656 3500 
L 1656 2988 
Q 1863 3284 2130 3434 
Q 2397 3584 2719 3584 
Q 3081 3584 3359 3409 
Q 3638 3234 3781 2919 
z
" transform="scale(0.015625)"/>
      <path id="DejaVuSans-Bold-70" d="M 1656 506 
L 1656 -1331 
L 538 -1331 
L 538 3500 
L 1656 3500 
L 1656 2988 
Q 1888 3294 2169 3439 
Q 2450 3584 2816 3584 
Q 3463 3584 3878 3070 
Q 4294 2556 4294 1747 
Q 4294 938 3878 423 
Q 3463 -91 2816 -91 
Q 2450 -91 2169 54 
Q 1888 200 1656 506 
z
M 2400 2772 
Q 2041 2772 1848 2508 
Q 1656 2244 1656 1747 
Q 1656 1250 1848 986 
Q 2041 722 2400 722 
Q 2759 722 2948 984 
Q 3138 1247 3138 1747 
Q 3138 2247 2948 2509 
Q 2759 2772 2400 2772 
z
" transform="scale(0.015625)"/>
      <path id="DejaVuSans-Bold-6f" d="M 2203 2784 
Q 1831 2784 1636 2517 
Q 1441 2250 1441 1747 
Q 1441 1244 1636 976 
Q 1831 709 2203 709 
Q 2569 709 2762 976 
Q 2956 1244 2956 1747 
Q 2956 2250 2762 2517 
Q 2569 2784 2203 2784 
z
M 2203 3584 
Q 3106 3584 3614 3096 
Q 4122 2609 4122 1747 
Q 4122 884 3614 396 
Q 3106 -91 2203 -91 
Q 1297 -91 786 396 
Q 275 884 275 1747 
Q 275 2609 786 3096 
Q 1297 3584 2203 3584 
z
" transform="scale(0.015625)"/>
      <path id="DejaVuSans-Bold-43" d="M 4288 256 
Q 3956 84 3597 -3 
Q 3238 -91 2847 -91 
Q 1681 -91 1000 561 
Q 319 1213 319 2328 
Q 319 3447 1000 4098 
Q 1681 4750 2847 4750 
Q 3238 4750 3597 4662 
Q 3956 4575 4288 4403 
L 4288 3438 
Q 3953 3666 3628 3772 
Q 3303 3878 2944 3878 
Q 2300 3878 1931 3465 
Q 1563 3053 1563 2328 
Q 1563 1606 1931 1193 
Q 2300 781 2944 781 
Q 3303 781 3628 887 
Q 3953 994 4288 1222 
L 4288 256 
z
" transform="scale(0.015625)"/>
      <path id="DejaVuSans-Bold-6e" d="M 4056 2131 
L 4056 0 
L 2931 0 
L 2931 347 
L 2931 1631 
Q 2931 2084 2911 2256 
Q 2891 2428 2841 2509 
Q 2775 2619 2662 2680 
Q 2550 2741 2406 2741 
Q 2056 2741 1856 2470 
Q 1656 2200 1656 1722 
L 1656 0 
L 538 0 
L 538 3500 
L 1656 3500 
L 1656 2988 
Q 1909 3294 2193 3439 
Q 2478 3584 2822 3584 
Q 3428 3584 3742 3212 
Q 4056 2841 4056 2131 
z
" transform="scale(0.015625)"/>
      <path id="DejaVuSans-Bold-74" d="M 1759 4494 
L 1759 3500 
L 2913 3500 
L 2913 2700 
L 1759 2700 
L 1759 1216 
Q 1759 972 1856 886 
Q 1953 800 2241 800 
L 2816 800 
L 2816 0 
L 1856 0 
Q 1194 0 917 276 
Q 641 553 641 1216 
L 641 2700 
L 84 2700 
L 84 3500 
L 641 3500 
L 641 4494 
L 1759 4494 
z
" transform="scale(0.015625)"/>
      <path id="DejaVuSans-Bold-63" d="M 3366 3391 
L 3366 2478 
Q 3138 2634 2908 2709 
Q 2678 2784 2431 2784 
Q 1963 2784 1702 2511 
Q 1441 2238 1441 1747 
Q 1441 1256 1702 982 
Q 1963 709 2431 709 
Q 2694 709 2930 787 
Q 3166 866 3366 1019 
L 3366 103 
Q 3103 6 2833 -42 
Q 2563 -91 2291 -91 
Q 1344 -91 809 395 
Q 275 881 275 1747 
Q 275 2613 809 3098 
Q 1344 3584 2291 3584 
Q 2566 3584 2833 3536 
Q 3100 3488 3366 3391 
z
" transform="scale(0.015625)"/>
      <path id="DejaVuSans-Bold-79" d="M 78 3500 
L 1197 3500 
L 2138 1125 
L 2938 3500 
L 4056 3500 
L 2584 -331 
Q 2363 -916 2067 -1148 
Q 1772 -1381 1288 -1381 
L 641 -1381 
L 641 -647 
L 991 -647 
Q 1275 -647 1404 -556 
Q 1534 -466 1606 -231 
L 1638 -134 
L 78 3500 
z
" transform="scale(0.015625)"/>
      <path id="DejaVuSans-Bold-26" d="M 2497 3097 
L 3775 1691 
Q 3941 1909 4027 2181 
Q 4113 2453 4128 2797 
L 5100 2797 
Q 5053 2228 4879 1784 
Q 4706 1341 4397 1006 
L 5313 0 
L 3988 0 
L 3681 341 
Q 3353 122 2990 15 
Q 2628 -91 2222 -91 
Q 1400 -91 892 342 
Q 384 775 384 1459 
Q 384 1916 607 2267 
Q 831 2619 1338 2950 
Q 1206 3116 1143 3281 
Q 1081 3447 1081 3628 
Q 1081 4138 1478 4444 
Q 1875 4750 2534 4750 
Q 2819 4750 3126 4704 
Q 3434 4659 3769 4569 
L 3769 3700 
Q 3475 3850 3212 3922 
Q 2950 3994 2700 3994 
Q 2459 3994 2326 3901 
Q 2194 3809 2194 3641 
Q 2194 3534 2270 3398 
Q 2347 3263 2497 3097 
z
M 1875 2322 
Q 1672 2175 1569 1989 
Q 1466 1803 1466 1581 
Q 1466 1222 1731 969 
Q 1997 716 2369 716 
Q 2578 716 2759 780 
Q 2941 844 3097 972 
L 1875 2322 
z
" transform="scale(0.015625)"/>
      <path id="DejaVuSans-Bold-75" d="M 500 1363 
L 500 3500 
L 1625 3500 
L 1625 3150 
Q 1625 2866 1622 2436 
Q 1619 2006 1619 1863 
Q 1619 1441 1641 1255 
Q 1663 1069 1716 984 
Q 1784 875 1895 815 
Q 2006 756 2150 756 
Q 2500 756 2700 1025 
Q 2900 1294 2900 1772 
L 2900 3500 
L 4019 3500 
L 4019 0 
L 2900 0 
L 2900 506 
Q 2647 200 2364 54 
Q 2081 -91 1741 -91 
Q 1134 -91 817 281 
Q 500 653 500 1363 
z
" transform="scale(0.015625)"/>
     </defs>
     <use xlink:href="#DejaVuSans-Bold-41"/>
     <use xlink:href="#DejaVuSans-Bold-64" transform="translate(77.392578 0)"/>
     <use xlink:href="#DejaVuSans-Bold-76" transform="translate(148.974609 0)"/>
     <use xlink:href="#DejaVuSans-Bold-65" transform="translate(214.160156 0)"/>
     <use xlink:href="#DejaVuSans-Bold-72" transform="translate(281.982422 0)"/>
     <use xlink:href="#DejaVuSans-Bold-73" transform="translate(331.298828 0)"/>
     <use xlink:href="#DejaVuSans-Bold-61" transform="translate(390.820312 0)"/>
     <use xlink:href="#DejaVuSans-Bold-72" transform="translate(458.300781 0)"/>
     <use xlink:href="#DejaVuSans-Bold-69" transform="translate(507.617188 0)"/>
     <use xlink:href="#DejaVuSans-Bold-61" transform="translate(541.894531 0)"/>
     <use xlink:href="#DejaVuSans-Bold-6c" transform="translate(609.375 0)"/>
     <use xlink:href="#DejaVuSans-Bold-20" transform="translate(643.652344 0)"/>
     <use xlink:href="#DejaVuSans-Bold-54" transform="translate(678.466797 0)"/>
     <use xlink:href="#DejaVuSans-Bold-65" transform="translate(733.429688 0)"/>
     <use xlink:href="#DejaVuSans-Bold-6d" transform="translate(801.251953 0)"/>
     <use xlink:href="#DejaVuSans-Bold-70" transform="translate(905.451172 0)"/>
     <use xlink:href="#DejaVuSans-Bold-6f" transform="translate(977.033203 0)"/>
     <use xlink:href="#DejaVuSans-Bold-72" transform="translate(1045.734375 0)"/>
     <use xlink:href="#DejaVuSans-Bold-61" transform="translate(1095.050781 0)"/>
     <use xlink:href="#DejaVuSans-Bold-6c" transform="translate(1162.53125 0)"/>
     <use xlink:href="#DejaVuSans-Bold-20" transform="translate(1196.808594 0)"/>
     <use xlink:href="#DejaVuSans-Bold-43" transform="translate(1231.623047 0)"/>
     <use xlink:href="#DejaVuSans-Bold-6f" transform="translate(1305.011719 0)"/>
     <use xlink:href="#DejaVuSans-Bold-6e" transform="translate(1373.712891 0)"/>
     <use xlink:href="#DejaVuSans-Bold-73" transform="translate(1444.904297 0)"/>
     <use xlink:href="#DejaVuSans-Bold-69" transform="translate(1504.425781 0)"/>
     <use xlink:href="#DejaVuSans-Bold-73" transform="translate(1538.703125 0)"/>
     <use xlink:href="#DejaVuSans-Bold-74" transform="translate(1598.224609 0)"/>
     <use xlink:href="#DejaVuSans-Bold-65" transform="translate(1646.027344 0)"/>
     <use xlink:href="#DejaVuSans-Bold-6e" transform="translate(1713.849609 0)"/>
     <use xlink:href="#DejaVuSans-Bold-63" transform="translate(1785.041016 0)"/>
     <use xlink:href="#DejaVuSans-Bold-79" transform="translate(1844.318359 0)"/>
     <use xlink:href="#DejaVuSans-Bold-20" transform="translate(1909.503906 0)"/>
     <use xlink:href="#DejaVuSans-Bold-26" transform="translate(1944.318359 0)"/>
     <use xlink:href="#DejaVuSans-Bold-20" transform="translate(2031.525391 0)"/>
     <use xlink:href="#DejaVuSans-Bold-43" transform="translate(2066.339844 0)"/>
     <use xlink:href="#DejaVuSans-Bold-61" transform="translate(2139.728516 0)"/>
     <use xlink:href="#DejaVuSans-Bold-75" transform="translate(2207.208984 0)"/>
     <use xlink:href="#DejaVuSans-Bold-73" transform="translate(2278.400391 0)"/>
     <use xlink:href="#DejaVuSans-Bold-61" transform="translate(2337.921875 0)"/>
     <use xlink:href="#DejaVuSans-Bold-6c" transform="translate(2405.402344 0)"/>
     <use xlink:href="#DejaVuSans-Bold-69" transform="translate(2439.679688 0)"/>
     <use xlink:href="#DejaVuSans-Bold-74" transform="translate(2473.957031 0)"/>
     <use xlink:href="#DejaVuSans-Bold-79" transform="translate(2521.759766 0)"/>
    </g>
   </g>
   <g id="text_2">
    <!-- Clean Frame (t) -->
    <g style="fill: #111111" transform="translate(105.376133 105.743987) scale(0.095 -0.095)">
     <defs>
      <path id="DejaVuSans-Bold-46" d="M 588 4666 
L 3834 4666 
L 3834 3756 
L 1791 3756 
L 1791 2888 
L 3713 2888 
L 3713 1978 
L 1791 1978 
L 1791 0 
L 588 0 
L 588 4666 
z
" transform="scale(0.015625)"/>
      <path id="DejaVuSans-Bold-28" d="M 2413 -844 
L 1484 -844 
Q 1006 -72 778 623 
Q 550 1319 550 2003 
Q 550 2688 779 3389 
Q 1009 4091 1484 4856 
L 2413 4856 
Q 2013 4116 1813 3408 
Q 1613 2700 1613 2009 
Q 1613 1319 1811 609 
Q 2009 -100 2413 -844 
z
" transform="scale(0.015625)"/>
      <path id="DejaVuSans-Bold-29" d="M 513 -844 
Q 913 -100 1113 609 
Q 1313 1319 1313 2009 
Q 1313 2700 1113 3408 
Q 913 4116 513 4856 
L 1441 4856 
Q 1916 4091 2145 3389 
Q 2375 2688 2375 2003 
Q 2375 1319 2147 623 
Q 1919 -72 1441 -844 
L 513 -844 
z
" transform="scale(0.015625)"/>
     </defs>
     <use xlink:href="#DejaVuSans-Bold-43"/>
     <use xlink:href="#DejaVuSans-Bold-6c" transform="translate(73.388672 0)"/>
     <use xlink:href="#DejaVuSans-Bold-65" transform="translate(107.666016 0)"/>
     <use xlink:href="#DejaVuSans-Bold-61" transform="translate(175.488281 0)"/>
     <use xlink:href="#DejaVuSans-Bold-6e" transform="translate(242.96875 0)"/>
     <use xlink:href="#DejaVuSans-Bold-20" transform="translate(314.160156 0)"/>
     <use xlink:href="#DejaVuSans-Bold-46" transform="translate(348.974609 0)"/>
     <use xlink:href="#DejaVuSans-Bold-72" transform="translate(410.910156 0)"/>
     <use xlink:href="#DejaVuSans-Bold-61" transform="translate(460.226562 0)"/>
     <use xlink:href="#DejaVuSans-Bold-6d" transform="translate(527.707031 0)"/>
     <use xlink:href="#DejaVuSans-Bold-65" transform="translate(631.90625 0)"/>
     <use xlink:href="#DejaVuSans-Bold-20" transform="translate(699.728516 0)"/>
     <use xlink:href="#DejaVuSans-Bold-28" transform="translate(734.542969 0)"/>
     <use xlink:href="#DejaVuSans-Bold-74" transform="translate(780.246094 0)"/>
     <use xlink:href="#DejaVuSans-Bold-29" transform="translate(828.048828 0)"/>
    </g>
   </g>
   <g id="text_3">
    <!-- Adversarial Frame (t) -->
    <g style="fill: #111111" transform="translate(92.73375 196.389889) scale(0.09 -0.09)">
     <use xlink:href="#DejaVuSans-Bold-41"/>
     <use xlink:href="#DejaVuSans-Bold-64" transform="translate(77.392578 0)"/>
     <use xlink:href="#DejaVuSans-Bold-76" transform="translate(148.974609 0)"/>
     <use xlink:href="#DejaVuSans-Bold-65" transform="translate(214.160156 0)"/>
     <use xlink:href="#DejaVuSans-Bold-72" transform="translate(281.982422 0)"/>
     <use xlink:href="#DejaVuSans-Bold-73" transform="translate(331.298828 0)"/>
     <use xlink:href="#DejaVuSans-Bold-61" transform="translate(390.820312 0)"/>
     <use xlink:href="#DejaVuSans-Bold-72" transform="translate(458.300781 0)"/>
     <use xlink:href="#DejaVuSans-Bold-69" transform="translate(507.617188 0)"/>
     <use xlink:href="#DejaVuSans-Bold-61" transform="translate(541.894531 0)"/>
     <use xlink:href="#DejaVuSans-Bold-6c" transform="translate(609.375 0)"/>
     <use xlink:href="#DejaVuSans-Bold-20" transform="translate(643.652344 0)"/>
     <use xlink:href="#DejaVuSans-Bold-46" transform="translate(678.466797 0)"/>
     <use xlink:href="#DejaVuSans-Bold-72" transform="translate(740.402344 0)"/>
     <use xlink:href="#DejaVuSans-Bold-61" transform="translate(789.71875 0)"/>
     <use xlink:href="#DejaVuSans-Bold-6d" transform="translate(857.199219 0)"/>
     <use xlink:href="#DejaVuSans-Bold-65" transform="translate(961.398438 0)"/>
     <use xlink:href="#DejaVuSans-Bold-20" transform="translate(1029.220703 0)"/>
     <use xlink:href="#DejaVuSans-Bold-28" transform="translate(1064.035156 0)"/>
     <use xlink:href="#DejaVuSans-Bold-74" transform="translate(1109.738281 0)"/>
     <use xlink:href="#DejaVuSans-Bold-29" transform="translate(1157.541016 0)"/>
    </g>
   </g>
   <g id="text_4">
    <!-- Noised: x + delta -->
    <g style="fill: #555555" transform="translate(114.397969 207.966305) scale(0.075 -0.075)">
     <defs>
      <path id="DejaVuSans-Oblique-4e" d="M 1081 4666 
L 1931 4666 
L 3219 666 
L 4000 4666 
L 4616 4666 
L 3706 0 
L 2853 0 
L 1569 4025 
L 788 0 
L 172 0 
L 1081 4666 
z
" transform="scale(0.015625)"/>
      <path id="DejaVuSans-Oblique-6f" d="M 1625 -91 
Q 1009 -91 651 289 
Q 294 669 294 1325 
Q 294 1706 417 2101 
Q 541 2497 738 2766 
Q 1047 3184 1428 3384 
Q 1809 3584 2291 3584 
Q 2888 3584 3255 3212 
Q 3622 2841 3622 2241 
Q 3622 1825 3500 1412 
Q 3378 1000 3181 728 
Q 2875 309 2494 109 
Q 2113 -91 1625 -91 
z
M 891 1344 
Q 891 869 1089 633 
Q 1288 397 1691 397 
Q 2269 397 2648 901 
Q 3028 1406 3028 2181 
Q 3028 2634 2825 2865 
Q 2622 3097 2228 3097 
Q 1903 3097 1650 2945 
Q 1397 2794 1197 2484 
Q 1050 2253 970 1956 
Q 891 1659 891 1344 
z
" transform="scale(0.015625)"/>
      <path id="DejaVuSans-Oblique-69" d="M 1172 4863 
L 1747 4863 
L 1606 4134 
L 1031 4134 
L 1172 4863 
z
M 909 3500 
L 1484 3500 
L 800 0 
L 225 0 
L 909 3500 
z
" transform="scale(0.015625)"/>
      <path id="DejaVuSans-Oblique-73" d="M 3200 3397 
L 3091 2853 
Q 2863 2978 2609 3040 
Q 2356 3103 2088 3103 
Q 1634 3103 1373 2948 
Q 1113 2794 1113 2528 
Q 1113 2219 1719 2053 
Q 1766 2041 1788 2034 
L 1972 1978 
Q 2547 1819 2739 1644 
Q 2931 1469 2931 1166 
Q 2931 609 2489 259 
Q 2047 -91 1331 -91 
Q 1053 -91 747 -37 
Q 441 16 72 128 
L 184 722 
Q 500 559 806 475 
Q 1113 391 1394 391 
Q 1816 391 2080 572 
Q 2344 753 2344 1031 
Q 2344 1331 1650 1516 
L 1591 1531 
L 1394 1581 
Q 956 1697 753 1886 
Q 550 2075 550 2369 
Q 550 2928 970 3256 
Q 1391 3584 2113 3584 
Q 2397 3584 2667 3537 
Q 2938 3491 3200 3397 
z
" transform="scale(0.015625)"/>
      <path id="DejaVuSans-Oblique-65" d="M 3078 2063 
Q 3088 2113 3092 2166 
Q 3097 2219 3097 2272 
Q 3097 2653 2873 2875 
Q 2650 3097 2266 3097 
Q 1838 3097 1509 2826 
Q 1181 2556 1013 2059 
L 3078 2063 
z
M 3578 1613 
L 903 1613 
Q 884 1494 878 1425 
Q 872 1356 872 1306 
Q 872 872 1139 634 
Q 1406 397 1894 397 
Q 2269 397 2603 481 
Q 2938 566 3225 728 
L 3116 159 
Q 2806 34 2476 -28 
Q 2147 -91 1806 -91 
Q 1078 -91 686 257 
Q 294 606 294 1247 
Q 294 1794 489 2264 
Q 684 2734 1063 3103 
Q 1306 3334 1642 3459 
Q 1978 3584 2356 3584 
Q 2950 3584 3301 3228 
Q 3653 2872 3653 2272 
Q 3653 2128 3634 1964 
Q 3616 1800 3578 1613 
z
" transform="scale(0.015625)"/>
      <path id="DejaVuSans-Oblique-64" d="M 2675 525 
Q 2444 222 2128 65 
Q 1813 -91 1428 -91 
Q 903 -91 598 267 
Q 294 625 294 1247 
Q 294 1766 478 2236 
Q 663 2706 1013 3078 
Q 1244 3325 1534 3454 
Q 1825 3584 2144 3584 
Q 2481 3584 2739 3421 
Q 2997 3259 3138 2956 
L 3513 4863 
L 4091 4863 
L 3144 0 
L 2566 0 
L 2675 525 
z
M 891 1350 
Q 891 897 1095 644 
Q 1300 391 1663 391 
Q 1931 391 2161 520 
Q 2391 650 2566 903 
Q 2750 1166 2856 1509 
Q 2963 1853 2963 2188 
Q 2963 2622 2758 2865 
Q 2553 3109 2194 3109 
Q 1922 3109 1687 2981 
Q 1453 2853 1288 2613 
Q 1106 2353 998 2009 
Q 891 1666 891 1350 
z
" transform="scale(0.015625)"/>
      <path id="DejaVuSans-Oblique-3a" d="M 978 3309 
L 1638 3309 
L 1484 2516 
L 825 2516 
L 978 3309 
z
M 488 794 
L 1147 794 
L 991 0 
L 331 0 
L 488 794 
z
" transform="scale(0.015625)"/>
      <path id="DejaVuSans-Oblique-20" transform="scale(0.015625)"/>
      <path id="DejaVuSans-Oblique-78" d="M 3841 3500 
L 2234 1784 
L 3219 0 
L 2559 0 
L 1819 1388 
L 531 0 
L -166 0 
L 1556 1844 
L 641 3500 
L 1300 3500 
L 1972 2234 
L 3144 3500 
L 3841 3500 
z
" transform="scale(0.015625)"/>
      <path id="DejaVuSans-Oblique-2b" d="M 2944 4013 
L 2944 2272 
L 4684 2272 
L 4684 1741 
L 2944 1741 
L 2944 0 
L 2419 0 
L 2419 1741 
L 678 1741 
L 678 2272 
L 2419 2272 
L 2419 4013 
L 2944 4013 
z
" transform="scale(0.015625)"/>
      <path id="DejaVuSans-Oblique-6c" d="M 1172 4863 
L 1747 4863 
L 800 0 
L 225 0 
L 1172 4863 
z
" transform="scale(0.015625)"/>
      <path id="DejaVuSans-Oblique-74" d="M 2706 3500 
L 2619 3053 
L 1472 3053 
L 1100 1153 
Q 1081 1047 1072 975 
Q 1063 903 1063 863 
Q 1063 663 1183 572 
Q 1303 481 1569 481 
L 2150 481 
L 2053 0 
L 1503 0 
Q 991 0 739 200 
Q 488 400 488 806 
Q 488 878 497 964 
Q 506 1050 525 1153 
L 897 3053 
L 409 3053 
L 500 3500 
L 978 3500 
L 1172 4494 
L 1747 4494 
L 1556 3500 
L 2706 3500 
z
" transform="scale(0.015625)"/>
      <path id="DejaVuSans-Oblique-61" d="M 3438 1997 
L 3047 0 
L 2472 0 
L 2578 531 
Q 2325 219 2001 64 
Q 1678 -91 1281 -91 
Q 834 -91 548 182 
Q 263 456 263 884 
Q 263 1497 752 1853 
Q 1241 2209 2100 2209 
L 2900 2209 
L 2931 2363 
Q 2938 2388 2941 2417 
Q 2944 2447 2944 2509 
Q 2944 2788 2717 2942 
Q 2491 3097 2081 3097 
Q 1800 3097 1504 3025 
Q 1209 2953 897 2809 
L 997 3341 
Q 1322 3463 1633 3523 
Q 1944 3584 2234 3584 
Q 2853 3584 3176 3315 
Q 3500 3047 3500 2534 
Q 3500 2431 3484 2292 
Q 3469 2153 3438 1997 
z
M 2816 1759 
L 2241 1759 
Q 1534 1759 1195 1570 
Q 856 1381 856 984 
Q 856 709 1029 553 
Q 1203 397 1509 397 
Q 1978 397 2328 733 
Q 2678 1069 2791 1631 
L 2816 1759 
z
" transform="scale(0.015625)"/>
     </defs>
     <use xlink:href="#DejaVuSans-Oblique-4e"/>
     <use xlink:href="#DejaVuSans-Oblique-6f" transform="translate(74.804688 0)"/>
     <use xlink:href="#DejaVuSans-Oblique-69" transform="translate(135.986328 0)"/>
     <use xlink:href="#DejaVuSans-Oblique-73" transform="translate(163.769531 0)"/>
     <use xlink:href="#DejaVuSans-Oblique-65" transform="translate(215.869141 0)"/>
     <use xlink:href="#DejaVuSans-Oblique-64" transform="translate(277.392578 0)"/>
     <use xlink:href="#DejaVuSans-Oblique-3a" transform="translate(340.869141 0)"/>
     <use xlink:href="#DejaVuSans-Oblique-20" transform="translate(374.560547 0)"/>
     <use xlink:href="#DejaVuSans-Oblique-78" transform="translate(406.347656 0)"/>
     <use xlink:href="#DejaVuSans-Oblique-20" transform="translate(465.527344 0)"/>
     <use xlink:href="#DejaVuSans-Oblique-2b" transform="translate(497.314453 0)"/>
     <use xlink:href="#DejaVuSans-Oblique-20" transform="translate(581.103516 0)"/>
     <use xlink:href="#DejaVuSans-Oblique-64" transform="translate(612.890625 0)"/>
     <use xlink:href="#DejaVuSans-Oblique-65" transform="translate(676.367188 0)"/>
     <use xlink:href="#DejaVuSans-Oblique-6c" transform="translate(737.890625 0)"/>
     <use xlink:href="#DejaVuSans-Oblique-74" transform="translate(765.673828 0)"/>
     <use xlink:href="#DejaVuSans-Oblique-61" transform="translate(804.882812 0)"/>
    </g>
   </g>
   <g id="patch_10">
    <path d="M 146.88 125.678664 
Q 146.88 152.796834 146.88 178.237952 
" style="fill: none; stroke: #d32f2f; stroke-width: 1.5; stroke-linecap: round"/>
    <path d="M 149.28 173.437952 
L 146.88 178.237952 
L 144.48 173.437952 
z
" style="fill: #d32f2f; stroke: #d32f2f; stroke-width: 1.5; stroke-linecap: round"/>
   </g>
   <g id="text_5">
    <!-- PGD-10 -->
    <g style="fill: #d32f2f" transform="translate(171.324 142.125621) scale(0.08 -0.08)">
     <defs>
      <path id="DejaVuSans-50" d="M 1259 4147 
L 1259 2394 
L 2053 2394 
Q 2494 2394 2734 2622 
Q 2975 2850 2975 3272 
Q 2975 3691 2734 3919 
Q 2494 4147 2053 4147 
L 1259 4147 
z
M 628 4666 
L 2053 4666 
Q 2838 4666 3239 4311 
Q 3641 3956 3641 3272 
Q 3641 2581 3239 2228 
Q 2838 1875 2053 1875 
L 1259 1875 
L 1259 0 
L 628 0 
L 628 4666 
z
" transform="scale(0.015625)"/>
      <path id="DejaVuSans-47" d="M 3809 666 
L 3809 1919 
L 2778 1919 
L 2778 2438 
L 4434 2438 
L 4434 434 
Q 4069 175 3628 42 
Q 3188 -91 2688 -91 
Q 1594 -91 976 548 
Q 359 1188 359 2328 
Q 359 3472 976 4111 
Q 1594 4750 2688 4750 
Q 3144 4750 3555 4637 
Q 3966 4525 4313 4306 
L 4313 3634 
Q 3963 3931 3569 4081 
Q 3175 4231 2741 4231 
Q 1884 4231 1454 3753 
Q 1025 3275 1025 2328 
Q 1025 1384 1454 906 
Q 1884 428 2741 428 
Q 3075 428 3337 486 
Q 3600 544 3809 666 
z
" transform="scale(0.015625)"/>
      <path id="DejaVuSans-44" d="M 1259 4147 
L 1259 519 
L 2022 519 
Q 2988 519 3436 956 
Q 3884 1394 3884 2338 
Q 3884 3275 3436 3711 
Q 2988 4147 2022 4147 
L 1259 4147 
z
M 628 4666 
L 1925 4666 
Q 3281 4666 3915 4102 
Q 4550 3538 4550 2338 
Q 4550 1131 3912 565 
Q 3275 0 1925 0 
L 628 0 
L 628 4666 
z
" transform="scale(0.015625)"/>
      <path id="DejaVuSans-2d" d="M 313 2009 
L 1997 2009 
L 1997 1497 
L 313 1497 
L 313 2009 
z
" transform="scale(0.015625)"/>
      <path id="DejaVuSans-31" d="M 794 531 
L 1825 531 
L 1825 4091 
L 703 3866 
L 703 4441 
L 1819 4666 
L 2450 4666 
L 2450 531 
L 3481 531 
L 3481 0 
L 794 0 
L 794 531 
z
" transform="scale(0.015625)"/>
      <path id="DejaVuSans-30" d="M 2034 4250 
Q 1547 4250 1301 3770 
Q 1056 3291 1056 2328 
Q 1056 1369 1301 889 
Q 1547 409 2034 409 
Q 2525 409 2770 889 
Q 3016 1369 3016 2328 
Q 3016 3291 2770 3770 
Q 2525 4250 2034 4250 
z
M 2034 4750 
Q 2819 4750 3233 4129 
Q 3647 3509 3647 2328 
Q 3647 1150 3233 529 
Q 2819 -91 2034 -91 
Q 1250 -91 836 529 
Q 422 1150 422 2328 
Q 422 3509 836 4129 
Q 1250 4750 2034 4750 
z
" transform="scale(0.015625)"/>
     </defs>
     <use xlink:href="#DejaVuSans-50"/>
     <use xlink:href="#DejaVuSans-47" transform="translate(60.302734 0)"/>
     <use xlink:href="#DejaVuSans-44" transform="translate(137.792969 0)"/>
     <use xlink:href="#DejaVuSans-2d" transform="translate(214.794922 0)"/>
     <use xlink:href="#DejaVuSans-31" transform="translate(250.878906 0)"/>
     <use xlink:href="#DejaVuSans-30" transform="translate(314.501953 0)"/>
    </g>
    <!-- Attack -->
    <g style="fill: #d32f2f" transform="translate(171.324 151.083871) scale(0.08 -0.08)">
     <defs>
      <path id="DejaVuSans-41" d="M 2188 4044 
L 1331 1722 
L 3047 1722 
L 2188 4044 
z
M 1831 4666 
L 2547 4666 
L 4325 0 
L 3669 0 
L 3244 1197 
L 1141 1197 
L 716 0 
L 50 0 
L 1831 4666 
z
" transform="scale(0.015625)"/>
      <path id="DejaVuSans-74" d="M 1172 4494 
L 1172 3500 
L 2356 3500 
L 2356 3053 
L 1172 3053 
L 1172 1153 
Q 1172 725 1289 603 
Q 1406 481 1766 481 
L 2356 481 
L 2356 0 
L 1766 0 
Q 1100 0 847 248 
Q 594 497 594 1153 
L 594 3053 
L 172 3053 
L 172 3500 
L 594 3500 
L 594 4494 
L 1172 4494 
z
" transform="scale(0.015625)"/>
      <path id="DejaVuSans-61" d="M 2194 1759 
Q 1497 1759 1228 1600 
Q 959 1441 959 1056 
Q 959 750 1161 570 
Q 1363 391 1709 391 
Q 2188 391 2477 730 
Q 2766 1069 2766 1631 
L 2766 1759 
L 2194 1759 
z
M 3341 1997 
L 3341 0 
L 2766 0 
L 2766 531 
Q 2569 213 2275 61 
Q 1981 -91 1556 -91 
Q 1019 -91 701 211 
Q 384 513 384 1019 
Q 384 1609 779 1909 
Q 1175 2209 1959 2209 
L 2766 2209 
L 2766 2266 
Q 2766 2663 2505 2880 
Q 2244 3097 1772 3097 
Q 1472 3097 1187 3025 
Q 903 2953 641 2809 
L 641 3341 
Q 956 3463 1253 3523 
Q 1550 3584 1831 3584 
Q 2591 3584 2966 3190 
Q 3341 2797 3341 1997 
z
" transform="scale(0.015625)"/>
      <path id="DejaVuSans-63" d="M 3122 3366 
L 3122 2828 
Q 2878 2963 2633 3030 
Q 2388 3097 2138 3097 
Q 1578 3097 1268 2742 
Q 959 2388 959 1747 
Q 959 1106 1268 751 
Q 1578 397 2138 397 
Q 2388 397 2633 464 
Q 2878 531 3122 666 
L 3122 134 
Q 2881 22 2623 -34 
Q 2366 -91 2075 -91 
Q 1284 -91 818 406 
Q 353 903 353 1747 
Q 353 2603 823 3093 
Q 1294 3584 2113 3584 
Q 2378 3584 2631 3529 
Q 2884 3475 3122 3366 
z
" transform="scale(0.015625)"/>
      <path id="DejaVuSans-6b" d="M 581 4863 
L 1159 4863 
L 1159 1991 
L 2875 3500 
L 3609 3500 
L 1753 1863 
L 3688 0 
L 2938 0 
L 1159 1709 
L 1159 0 
L 581 0 
L 581 4863 
z
" transform="scale(0.015625)"/>
     </defs>
     <use xlink:href="#DejaVuSans-41"/>
     <use xlink:href="#DejaVuSans-74" transform="translate(66.658203 0)"/>
     <use xlink:href="#DejaVuSans-74" transform="translate(105.867188 0)"/>
     <use xlink:href="#DejaVuSans-61" transform="translate(145.076172 0)"/>
     <use xlink:href="#DejaVuSans-63" transform="translate(206.355469 0)"/>
     <use xlink:href="#DejaVuSans-6b" transform="translate(261.335938 0)"/>
    </g>
   </g>
   <g id="text_6">
    <!-- Clean Frame (t+1) -->
    <g style="fill: #111111" transform="translate(517.13082 105.743987) scale(0.095 -0.095)">
     <defs>
      <path id="DejaVuSans-Bold-2b" d="M 3053 4013 
L 3053 2375 
L 4684 2375 
L 4684 1638 
L 3053 1638 
L 3053 0 
L 2309 0 
L 2309 1638 
L 678 1638 
L 678 2375 
L 2309 2375 
L 2309 4013 
L 3053 4013 
z
" transform="scale(0.015625)"/>
      <path id="DejaVuSans-Bold-31" d="M 750 831 
L 1813 831 
L 1813 3847 
L 722 3622 
L 722 4441 
L 1806 4666 
L 2950 4666 
L 2950 831 
L 4013 831 
L 4013 0 
L 750 0 
L 750 831 
z
" transform="scale(0.015625)"/>
     </defs>
     <use xlink:href="#DejaVuSans-Bold-43"/>
     <use xlink:href="#DejaVuSans-Bold-6c" transform="translate(73.388672 0)"/>
     <use xlink:href="#DejaVuSans-Bold-65" transform="translate(107.666016 0)"/>
     <use xlink:href="#DejaVuSans-Bold-61" transform="translate(175.488281 0)"/>
     <use xlink:href="#DejaVuSans-Bold-6e" transform="translate(242.96875 0)"/>
     <use xlink:href="#DejaVuSans-Bold-20" transform="translate(314.160156 0)"/>
     <use xlink:href="#DejaVuSans-Bold-46" transform="translate(348.974609 0)"/>
     <use xlink:href="#DejaVuSans-Bold-72" transform="translate(410.910156 0)"/>
     <use xlink:href="#DejaVuSans-Bold-61" transform="translate(460.226562 0)"/>
     <use xlink:href="#DejaVuSans-Bold-6d" transform="translate(527.707031 0)"/>
     <use xlink:href="#DejaVuSans-Bold-65" transform="translate(631.90625 0)"/>
     <use xlink:href="#DejaVuSans-Bold-20" transform="translate(699.728516 0)"/>
     <use xlink:href="#DejaVuSans-Bold-28" transform="translate(734.542969 0)"/>
     <use xlink:href="#DejaVuSans-Bold-74" transform="translate(780.246094 0)"/>
     <use xlink:href="#DejaVuSans-Bold-2b" transform="translate(828.048828 0)"/>
     <use xlink:href="#DejaVuSans-Bold-31" transform="translate(911.837891 0)"/>
     <use xlink:href="#DejaVuSans-Bold-29" transform="translate(981.417969 0)"/>
    </g>
   </g>
   <g id="text_7">
    <!-- Adv Representation z_adv -->
    <g style="fill: #111111" transform="translate(77.265781 283.753813) scale(0.095 -0.095)">
     <defs>
      <path id="DejaVuSans-Bold-52" d="M 2297 2597 
Q 2675 2597 2839 2737 
Q 3003 2878 3003 3200 
Q 3003 3519 2839 3656 
Q 2675 3794 2297 3794 
L 1791 3794 
L 1791 2597 
L 2297 2597 
z
M 1791 1766 
L 1791 0 
L 588 0 
L 588 4666 
L 2425 4666 
Q 3347 4666 3776 4356 
Q 4206 4047 4206 3378 
Q 4206 2916 3982 2619 
Q 3759 2322 3309 2181 
Q 3556 2125 3751 1926 
Q 3947 1728 4147 1325 
L 4800 0 
L 3519 0 
L 2950 1159 
Q 2778 1509 2601 1637 
Q 2425 1766 2131 1766 
L 1791 1766 
z
" transform="scale(0.015625)"/>
      <path id="DejaVuSans-Bold-7a" d="M 366 3500 
L 3419 3500 
L 3419 2719 
L 1575 800 
L 3419 800 
L 3419 0 
L 288 0 
L 288 781 
L 2131 2700 
L 366 2700 
L 366 3500 
z
" transform="scale(0.015625)"/>
      <path id="DejaVuSans-Bold-5f" d="M 3200 -916 
L 3200 -1509 
L 0 -1509 
L 0 -916 
L 3200 -916 
z
" transform="scale(0.015625)"/>
     </defs>
     <use xlink:href="#DejaVuSans-Bold-41"/>
     <use xlink:href="#DejaVuSans-Bold-64" transform="translate(77.392578 0)"/>
     <use xlink:href="#DejaVuSans-Bold-76" transform="translate(148.974609 0)"/>
     <use xlink:href="#DejaVuSans-Bold-20" transform="translate(214.160156 0)"/>
     <use xlink:href="#DejaVuSans-Bold-52" transform="translate(248.974609 0)"/>
     <use xlink:href="#DejaVuSans-Bold-65" transform="translate(325.976562 0)"/>
     <use xlink:href="#DejaVuSans-Bold-70" transform="translate(393.798828 0)"/>
     <use xlink:href="#DejaVuSans-Bold-72" transform="translate(465.380859 0)"/>
     <use xlink:href="#DejaVuSans-Bold-65" transform="translate(514.697266 0)"/>
     <use xlink:href="#DejaVuSans-Bold-73" transform="translate(582.519531 0)"/>
     <use xlink:href="#DejaVuSans-Bold-65" transform="translate(642.041016 0)"/>
     <use xlink:href="#DejaVuSans-Bold-6e" transform="translate(709.863281 0)"/>
     <use xlink:href="#DejaVuSans-Bold-74" transform="translate(781.054688 0)"/>
     <use xlink:href="#DejaVuSans-Bold-61" transform="translate(828.857422 0)"/>
     <use xlink:href="#DejaVuSans-Bold-74" transform="translate(896.337891 0)"/>
     <use xlink:href="#DejaVuSans-Bold-69" transform="translate(944.140625 0)"/>
     <use xlink:href="#DejaVuSans-Bold-6f" transform="translate(978.417969 0)"/>
     <use xlink:href="#DejaVuSans-Bold-6e" transform="translate(1047.119141 0)"/>
     <use xlink:href="#DejaVuSans-Bold-20" transform="translate(1118.310547 0)"/>
     <use xlink:href="#DejaVuSans-Bold-7a" transform="translate(1153.125 0)"/>
     <use xlink:href="#DejaVuSans-Bold-5f" transform="translate(1211.328125 0)"/>
     <use xlink:href="#DejaVuSans-Bold-61" transform="translate(1261.328125 0)"/>
     <use xlink:href="#DejaVuSans-Bold-64" transform="translate(1328.808594 0)"/>
     <use xlink:href="#DejaVuSans-Bold-76" transform="translate(1400.390625 0)"/>
    </g>
   </g>
   <g id="text_8">
    <!-- Clean Representation z_next -->
    <g style="fill: #111111" transform="translate(489.31957 283.753813) scale(0.095 -0.095)">
     <defs>
      <path id="DejaVuSans-Bold-78" d="M 1422 1791 
L 159 3500 
L 1344 3500 
L 2059 2463 
L 2784 3500 
L 3969 3500 
L 2706 1797 
L 4031 0 
L 2847 0 
L 2059 1106 
L 1281 0 
L 97 0 
L 1422 1791 
z
" transform="scale(0.015625)"/>
     </defs>
     <use xlink:href="#DejaVuSans-Bold-43"/>
     <use xlink:href="#DejaVuSans-Bold-6c" transform="translate(73.388672 0)"/>
     <use xlink:href="#DejaVuSans-Bold-65" transform="translate(107.666016 0)"/>
     <use xlink:href="#DejaVuSans-Bold-61" transform="translate(175.488281 0)"/>
     <use xlink:href="#DejaVuSans-Bold-6e" transform="translate(242.96875 0)"/>
     <use xlink:href="#DejaVuSans-Bold-20" transform="translate(314.160156 0)"/>
     <use xlink:href="#DejaVuSans-Bold-52" transform="translate(348.974609 0)"/>
     <use xlink:href="#DejaVuSans-Bold-65" transform="translate(425.976562 0)"/>
     <use xlink:href="#DejaVuSans-Bold-70" transform="translate(493.798828 0)"/>
     <use xlink:href="#DejaVuSans-Bold-72" transform="translate(565.380859 0)"/>
     <use xlink:href="#DejaVuSans-Bold-65" transform="translate(614.697266 0)"/>
     <use xlink:href="#DejaVuSans-Bold-73" transform="translate(682.519531 0)"/>
     <use xlink:href="#DejaVuSans-Bold-65" transform="translate(742.041016 0)"/>
     <use xlink:href="#DejaVuSans-Bold-6e" transform="translate(809.863281 0)"/>
     <use xlink:href="#DejaVuSans-Bold-74" transform="translate(881.054688 0)"/>
     <use xlink:href="#DejaVuSans-Bold-61" transform="translate(928.857422 0)"/>
     <use xlink:href="#DejaVuSans-Bold-74" transform="translate(996.337891 0)"/>
     <use xlink:href="#DejaVuSans-Bold-69" transform="translate(1044.140625 0)"/>
     <use xlink:href="#DejaVuSans-Bold-6f" transform="translate(1078.417969 0)"/>
     <use xlink:href="#DejaVuSans-Bold-6e" transform="translate(1147.119141 0)"/>
     <use xlink:href="#DejaVuSans-Bold-20" transform="translate(1218.310547 0)"/>
     <use xlink:href="#DejaVuSans-Bold-7a" transform="translate(1253.125 0)"/>
     <use xlink:href="#DejaVuSans-Bold-5f" transform="translate(1311.328125 0)"/>
     <use xlink:href="#DejaVuSans-Bold-6e" transform="translate(1361.328125 0)"/>
     <use xlink:href="#DejaVuSans-Bold-65" transform="translate(1432.519531 0)"/>
     <use xlink:href="#DejaVuSans-Bold-78" transform="translate(1500.341797 0)"/>
     <use xlink:href="#DejaVuSans-Bold-74" transform="translate(1564.84375 0)"/>
    </g>
   </g>
   <g id="patch_11">
    <path d="M 146.88 218.173556 
Q 146.88 240.154433 146.88 260.458259 
" style="fill: none; stroke: #1f77b4; stroke-width: 1.5; stroke-linecap: round"/>
    <path d="M 149.28 255.658259 
L 146.88 260.458259 
L 144.48 255.658259 
z
" style="fill: #1f77b4; stroke: #1f77b4; stroke-width: 1.5; stroke-linecap: round"/>
   </g>
   <g id="patch_12">
    <path d="M 565.92 125.679187 
Q 565.92 193.90804 565.92 260.459842 
" style="fill: none; stroke: #1f77b4; stroke-width: 1.5; stroke-linecap: round"/>
    <path d="M 568.32 255.659842 
L 565.92 260.459842 
L 563.52 255.659842 
z
" style="fill: #1f77b4; stroke: #1f77b4; stroke-width: 1.5; stroke-linecap: round"/>
   </g>
   <g id="text_9">
    <!-- Motion Encoder -->
    <g style="fill: #111111" transform="translate(314.542852 100.425026) scale(0.095 -0.095)">
     <defs>
      <path id="DejaVuSans-Bold-4d" d="M 588 4666 
L 2119 4666 
L 3181 2169 
L 4250 4666 
L 5778 4666 
L 5778 0 
L 4641 0 
L 4641 3413 
L 3566 897 
L 2803 897 
L 1728 3413 
L 1728 0 
L 588 0 
L 588 4666 
z
" transform="scale(0.015625)"/>
      <path id="DejaVuSans-Bold-45" d="M 588 4666 
L 3834 4666 
L 3834 3756 
L 1791 3756 
L 1791 2888 
L 3713 2888 
L 3713 1978 
L 1791 1978 
L 1791 909 
L 3903 909 
L 3903 0 
L 588 0 
L 588 4666 
z
" transform="scale(0.015625)"/>
     </defs>
     <use xlink:href="#DejaVuSans-Bold-4d"/>
     <use xlink:href="#DejaVuSans-Bold-6f" transform="translate(99.511719 0)"/>
     <use xlink:href="#DejaVuSans-Bold-74" transform="translate(168.212891 0)"/>
     <use xlink:href="#DejaVuSans-Bold-69" transform="translate(216.015625 0)"/>
     <use xlink:href="#DejaVuSans-Bold-6f" transform="translate(250.292969 0)"/>
     <use xlink:href="#DejaVuSans-Bold-6e" transform="translate(318.994141 0)"/>
     <use xlink:href="#DejaVuSans-Bold-20" transform="translate(390.185547 0)"/>
     <use xlink:href="#DejaVuSans-Bold-45" transform="translate(425 0)"/>
     <use xlink:href="#DejaVuSans-Bold-6e" transform="translate(493.310547 0)"/>
     <use xlink:href="#DejaVuSans-Bold-63" transform="translate(564.501953 0)"/>
     <use xlink:href="#DejaVuSans-Bold-6f" transform="translate(623.779297 0)"/>
     <use xlink:href="#DejaVuSans-Bold-64" transform="translate(692.480469 0)"/>
     <use xlink:href="#DejaVuSans-Bold-65" transform="translate(764.0625 0)"/>
     <use xlink:href="#DejaVuSans-Bold-72" transform="translate(831.884766 0)"/>
    </g>
    <!-- (Temporal Diff) -->
    <g style="fill: #111111" transform="translate(316.078438 111.062948) scale(0.095 -0.095)">
     <defs>
      <path id="DejaVuSans-Bold-44" d="M 1791 3756 
L 1791 909 
L 2222 909 
Q 2959 909 3348 1275 
Q 3738 1641 3738 2338 
Q 3738 3031 3350 3393 
Q 2963 3756 2222 3756 
L 1791 3756 
z
M 588 4666 
L 1856 4666 
Q 2919 4666 3439 4514 
Q 3959 4363 4331 4000 
Q 4659 3684 4818 3271 
Q 4978 2859 4978 2338 
Q 4978 1809 4818 1395 
Q 4659 981 4331 666 
Q 3956 303 3431 151 
Q 2906 0 1856 0 
L 588 0 
L 588 4666 
z
" transform="scale(0.015625)"/>
      <path id="DejaVuSans-Bold-66" d="M 2841 4863 
L 2841 4128 
L 2222 4128 
Q 1984 4128 1890 4042 
Q 1797 3956 1797 3744 
L 1797 3500 
L 2753 3500 
L 2753 2700 
L 1797 2700 
L 1797 0 
L 678 0 
L 678 2700 
L 122 2700 
L 122 3500 
L 678 3500 
L 678 3744 
Q 678 4316 997 4589 
Q 1316 4863 1984 4863 
L 2841 4863 
z
" transform="scale(0.015625)"/>
     </defs>
     <use xlink:href="#DejaVuSans-Bold-28"/>
     <use xlink:href="#DejaVuSans-Bold-54" transform="translate(45.703125 0)"/>
     <use xlink:href="#DejaVuSans-Bold-65" transform="translate(100.666016 0)"/>
     <use xlink:href="#DejaVuSans-Bold-6d" transform="translate(168.488281 0)"/>
     <use xlink:href="#DejaVuSans-Bold-70" transform="translate(272.6875 0)"/>
     <use xlink:href="#DejaVuSans-Bold-6f" transform="translate(344.269531 0)"/>
     <use xlink:href="#DejaVuSans-Bold-72" transform="translate(412.970703 0)"/>
     <use xlink:href="#DejaVuSans-Bold-61" transform="translate(462.287109 0)"/>
     <use xlink:href="#DejaVuSans-Bold-6c" transform="translate(529.767578 0)"/>
     <use xlink:href="#DejaVuSans-Bold-20" transform="translate(564.044922 0)"/>
     <use xlink:href="#DejaVuSans-Bold-44" transform="translate(598.859375 0)"/>
     <use xlink:href="#DejaVuSans-Bold-69" transform="translate(681.867188 0)"/>
     <use xlink:href="#DejaVuSans-Bold-66" transform="translate(716.144531 0)"/>
     <use xlink:href="#DejaVuSans-Bold-66" transform="translate(759.650391 0)"/>
     <use xlink:href="#DejaVuSans-Bold-29" transform="translate(803.15625 0)"/>
    </g>
   </g>
   <g id="patch_13">
    <path d="M 211.733499 103.122581 
Q 251.63759 103.122581 289.864629 103.122581 
" style="fill: none; stroke: #1f77b4; stroke-width: 1.5; stroke-linecap: round"/>
    <path d="M 285.064629 100.722581 
L 289.864629 103.122581 
L 285.064629 105.522581 
z
" style="fill: #1f77b4; stroke: #1f77b4; stroke-width: 1.5; stroke-linecap: round"/>
   </g>
   <g id="patch_14">
    <path d="M 501.066501 103.122581 
Q 461.16241 103.122581 422.935371 103.122581 
" style="fill: none; stroke: #1f77b4; stroke-width: 1.5; stroke-linecap: round"/>
    <path d="M 427.735371 105.522581 
L 422.935371 103.122581 
L 427.735371 100.722581 
z
" style="fill: #1f77b4; stroke: #1f77b4; stroke-width: 1.5; stroke-linecap: round"/>
   </g>
   <g id="text_10">
    <!-- Motion Vector (m) -->
    <g style="fill: #111111" transform="translate(307.938867 201.666568) scale(0.095 -0.095)">
     <defs>
      <path id="DejaVuSans-Bold-56" d="M 31 4666 
L 1241 4666 
L 2478 1222 
L 3713 4666 
L 4922 4666 
L 3194 0 
L 1759 0 
L 31 4666 
z
" transform="scale(0.015625)"/>
     </defs>
     <use xlink:href="#DejaVuSans-Bold-4d"/>
     <use xlink:href="#DejaVuSans-Bold-6f" transform="translate(99.511719 0)"/>
     <use xlink:href="#DejaVuSans-Bold-74" transform="translate(168.212891 0)"/>
     <use xlink:href="#DejaVuSans-Bold-69" transform="translate(216.015625 0)"/>
     <use xlink:href="#DejaVuSans-Bold-6f" transform="translate(250.292969 0)"/>
     <use xlink:href="#DejaVuSans-Bold-6e" transform="translate(318.994141 0)"/>
     <use xlink:href="#DejaVuSans-Bold-20" transform="translate(390.185547 0)"/>
     <use xlink:href="#DejaVuSans-Bold-56" transform="translate(425 0)"/>
     <use xlink:href="#DejaVuSans-Bold-65" transform="translate(496.892578 0)"/>
     <use xlink:href="#DejaVuSans-Bold-63" transform="translate(564.714844 0)"/>
     <use xlink:href="#DejaVuSans-Bold-74" transform="translate(623.992188 0)"/>
     <use xlink:href="#DejaVuSans-Bold-6f" transform="translate(671.794922 0)"/>
     <use xlink:href="#DejaVuSans-Bold-72" transform="translate(740.496094 0)"/>
     <use xlink:href="#DejaVuSans-Bold-20" transform="translate(789.8125 0)"/>
     <use xlink:href="#DejaVuSans-Bold-28" transform="translate(824.626953 0)"/>
     <use xlink:href="#DejaVuSans-Bold-6d" transform="translate(870.330078 0)"/>
     <use xlink:href="#DejaVuSans-Bold-29" transform="translate(974.529297 0)"/>
    </g>
   </g>
   <g id="patch_15">
    <path d="M 356.4 125.678664 
Q 356.4 152.796834 356.4 178.237952 
" style="fill: none; stroke: #1f77b4; stroke-width: 1.5; stroke-linecap: round"/>
    <path d="M 358.8 173.437952 
L 356.4 178.237952 
L 354 173.437952 
z
" style="fill: #1f77b4; stroke: #1f77b4; stroke-width: 1.5; stroke-linecap: round"/>
   </g>
   <g id="text_11">
    <!-- Adversarial TDV Constraint -->
    <g style="fill: #111111" transform="translate(287.434688 332.394405) scale(0.09 -0.09)">
     <use xlink:href="#DejaVuSans-Bold-41"/>
     <use xlink:href="#DejaVuSans-Bold-64" transform="translate(77.392578 0)"/>
     <use xlink:href="#DejaVuSans-Bold-76" transform="translate(148.974609 0)"/>
     <use xlink:href="#DejaVuSans-Bold-65" transform="translate(214.160156 0)"/>
     <use xlink:href="#DejaVuSans-Bold-72" transform="translate(281.982422 0)"/>
     <use xlink:href="#DejaVuSans-Bold-73" transform="translate(331.298828 0)"/>
     <use xlink:href="#DejaVuSans-Bold-61" transform="translate(390.820312 0)"/>
     <use xlink:href="#DejaVuSans-Bold-72" transform="translate(458.300781 0)"/>
     <use xlink:href="#DejaVuSans-Bold-69" transform="translate(507.617188 0)"/>
     <use xlink:href="#DejaVuSans-Bold-61" transform="translate(541.894531 0)"/>
     <use xlink:href="#DejaVuSans-Bold-6c" transform="translate(609.375 0)"/>
     <use xlink:href="#DejaVuSans-Bold-20" transform="translate(643.652344 0)"/>
     <use xlink:href="#DejaVuSans-Bold-54" transform="translate(678.466797 0)"/>
     <use xlink:href="#DejaVuSans-Bold-44" transform="translate(746.679688 0)"/>
     <use xlink:href="#DejaVuSans-Bold-56" transform="translate(829.6875 0)"/>
     <use xlink:href="#DejaVuSans-Bold-20" transform="translate(907.080078 0)"/>
     <use xlink:href="#DejaVuSans-Bold-43" transform="translate(941.894531 0)"/>
     <use xlink:href="#DejaVuSans-Bold-6f" transform="translate(1015.283203 0)"/>
     <use xlink:href="#DejaVuSans-Bold-6e" transform="translate(1083.984375 0)"/>
     <use xlink:href="#DejaVuSans-Bold-73" transform="translate(1155.175781 0)"/>
     <use xlink:href="#DejaVuSans-Bold-74" transform="translate(1214.697266 0)"/>
     <use xlink:href="#DejaVuSans-Bold-72" transform="translate(1262.5 0)"/>
     <use xlink:href="#DejaVuSans-Bold-61" transform="translate(1311.816406 0)"/>
     <use xlink:href="#DejaVuSans-Bold-69" transform="translate(1379.296875 0)"/>
     <use xlink:href="#DejaVuSans-Bold-6e" transform="translate(1413.574219 0)"/>
     <use xlink:href="#DejaVuSans-Bold-74" transform="translate(1484.765625 0)"/>
    </g>
   </g>
   <g id="text_12">
    <!-- $z_{adv} + m \approx z_{next}$ -->
    <g style="fill: #555555" transform="translate(328.6875 346.368886) scale(0.075 -0.075)">
     <defs>
      <path id="DejaVuSans-Oblique-7a" d="M 744 3500 
L 3475 3500 
L 3372 2975 
L 738 459 
L 2913 459 
L 2822 0 
L -19 0 
L 84 525 
L 2719 3041 
L 653 3041 
L 744 3500 
z
" transform="scale(0.015625)"/>
      <path id="DejaVuSans-Oblique-76" d="M 459 3500 
L 1069 3500 
L 1581 525 
L 3256 3500 
L 3866 3500 
L 1875 0 
L 1100 0 
L 459 3500 
z
" transform="scale(0.015625)"/>
      <path id="DejaVuSans-2b" d="M 2944 4013 
L 2944 2272 
L 4684 2272 
L 4684 1741 
L 2944 1741 
L 2944 0 
L 2419 0 
L 2419 1741 
L 678 1741 
L 678 2272 
L 2419 2272 
L 2419 4013 
L 2944 4013 
z
" transform="scale(0.015625)"/>
      <path id="DejaVuSans-Oblique-6d" d="M 5747 2113 
L 5338 0 
L 4763 0 
L 5166 2094 
Q 5191 2228 5203 2325 
Q 5216 2422 5216 2491 
Q 5216 2772 5059 2928 
Q 4903 3084 4622 3084 
Q 4203 3084 3875 2770 
Q 3547 2456 3450 1953 
L 3066 0 
L 2491 0 
L 2900 2094 
Q 2925 2209 2937 2307 
Q 2950 2406 2950 2484 
Q 2950 2769 2794 2926 
Q 2638 3084 2363 3084 
Q 1938 3084 1609 2770 
Q 1281 2456 1184 1953 
L 800 0 
L 225 0 
L 909 3500 
L 1484 3500 
L 1375 2956 
Q 1609 3263 1923 3423 
Q 2238 3584 2597 3584 
Q 2978 3584 3223 3384 
Q 3469 3184 3519 2828 
Q 3781 3197 4126 3390 
Q 4472 3584 4856 3584 
Q 5306 3584 5551 3325 
Q 5797 3066 5797 2591 
Q 5797 2488 5784 2364 
Q 5772 2241 5747 2113 
z
" transform="scale(0.015625)"/>
      <path id="DejaVuSans-2248" d="M 4684 1947 
L 4684 1388 
Q 4356 1144 4076 1036 
Q 3797 928 3494 928 
Q 3150 928 2694 1113 
Q 2663 1125 2641 1134 
Q 2622 1141 2575 1159 
Q 2091 1350 1797 1350 
Q 1522 1350 1253 1231 
Q 984 1113 678 850 
L 678 1409 
Q 1006 1653 1286 1761 
Q 1566 1869 1869 1869 
Q 2213 1869 2672 1684 
Q 2706 1669 2722 1663 
Q 2741 1656 2788 1638 
Q 3272 1447 3566 1447 
Q 3834 1447 4098 1564 
Q 4363 1681 4684 1947 
z
M 4684 3163 
L 4684 2606 
Q 4356 2359 4076 2251 
Q 3797 2144 3494 2144 
Q 3150 2144 2694 2328 
Q 2663 2341 2641 2350 
Q 2622 2356 2575 2375 
Q 2091 2566 1797 2566 
Q 1522 2566 1253 2447 
Q 984 2328 678 2069 
L 678 2625 
Q 1006 2869 1286 2976 
Q 1566 3084 1869 3084 
Q 2213 3084 2672 2900 
Q 2703 2888 2719 2881 
Q 2741 2872 2788 2853 
Q 3272 2663 3566 2663 
Q 3834 2663 4098 2780 
Q 4363 2897 4684 3163 
z
" transform="scale(0.015625)"/>
      <path id="DejaVuSans-Oblique-6e" d="M 3566 2113 
L 3156 0 
L 2578 0 
L 2988 2091 
Q 3016 2238 3031 2350 
Q 3047 2463 3047 2528 
Q 3047 2791 2881 2937 
Q 2716 3084 2419 3084 
Q 1956 3084 1622 2776 
Q 1288 2469 1184 1941 
L 800 0 
L 225 0 
L 903 3500 
L 1478 3500 
L 1363 2950 
Q 1603 3253 1940 3418 
Q 2278 3584 2650 3584 
Q 3113 3584 3367 3334 
Q 3622 3084 3622 2631 
Q 3622 2519 3608 2391 
Q 3594 2263 3566 2113 
z
" transform="scale(0.015625)"/>
     </defs>
     <use xlink:href="#DejaVuSans-Oblique-7a" transform="translate(0 0.296875)"/>
     <use xlink:href="#DejaVuSans-Oblique-61" transform="translate(52.490234 -16.109375) scale(0.7)"/>
     <use xlink:href="#DejaVuSans-Oblique-64" transform="translate(95.385742 -16.109375) scale(0.7)"/>
     <use xlink:href="#DejaVuSans-Oblique-76" transform="translate(139.819336 -16.109375) scale(0.7)"/>
     <use xlink:href="#DejaVuSans-2b" transform="translate(203.461914 0.296875)"/>
     <use xlink:href="#DejaVuSans-Oblique-6d" transform="translate(306.733398 0.296875)"/>
     <use xlink:href="#DejaVuSans-2248" transform="translate(423.62793 0.296875)"/>
     <use xlink:href="#DejaVuSans-Oblique-7a" transform="translate(526.899414 0.296875)"/>
     <use xlink:href="#DejaVuSans-Oblique-6e" transform="translate(579.389648 -16.109375) scale(0.7)"/>
     <use xlink:href="#DejaVuSans-Oblique-65" transform="translate(623.754883 -16.109375) scale(0.7)"/>
     <use xlink:href="#DejaVuSans-Oblique-78" transform="translate(666.821289 -16.109375) scale(0.7)"/>
     <use xlink:href="#DejaVuSans-Oblique-74" transform="translate(708.24707 -16.109375) scale(0.7)"/>
    </g>
   </g>
   <g id="patch_16">
    <path d="M 148.794376 298.967409 
Q 209.735464 317.235323 269.070124 335.021689 
" style="fill: none; stroke: #1f77b4; stroke-width: 1.5; stroke-linecap: round"/>
    <path d="M 265.161395 331.344485 
L 269.070124 335.021689 
L 263.783123 335.94235 
z
" style="fill: #1f77b4; stroke: #1f77b4; stroke-width: 1.5; stroke-linecap: round"/>
   </g>
   <g id="patch_17">
    <path d="M 356.4 218.172197 
Q 356.4 265.847682 356.4 311.846115 
" style="fill: none; stroke: #1f77b4; stroke-width: 1.5; stroke-linecap: round"/>
    <path d="M 358.8 307.046115 
L 356.4 311.846115 
L 354 307.046115 
z
" style="fill: #1f77b4; stroke: #1f77b4; stroke-width: 1.5; stroke-linecap: round"/>
   </g>
   <g id="patch_18">
    <path d="M 564.005624 298.967409 
Q 503.064536 317.235323 443.729876 335.021689 
" style="fill: none; stroke: #1f77b4; stroke-width: 1.5; stroke-linecap: round"/>
    <path d="M 449.016877 335.94235 
L 443.729876 335.021689 
L 447.638605 331.344485 
z
" style="fill: #1f77b4; stroke: #1f77b4; stroke-width: 1.5; stroke-linecap: round"/>
   </g>
   <g id="text_13">
    <!-- Implication: Adversarial perturbations cannot break temporal causality boundaries. -->
    <g style="fill: #1f77b4" transform="translate(131.637422 397.741935) scale(0.095 -0.095)">
     <defs>
      <path id="DejaVuSans-Bold-49" d="M 588 4666 
L 1791 4666 
L 1791 0 
L 588 0 
L 588 4666 
z
" transform="scale(0.015625)"/>
      <path id="DejaVuSans-Bold-3a" d="M 716 3500 
L 1844 3500 
L 1844 2291 
L 716 2291 
L 716 3500 
z
M 716 1209 
L 1844 1209 
L 1844 0 
L 716 0 
L 716 1209 
z
" transform="scale(0.015625)"/>
      <path id="DejaVuSans-Bold-62" d="M 2400 722 
Q 2759 722 2948 984 
Q 3138 1247 3138 1747 
Q 3138 2247 2948 2509 
Q 2759 2772 2400 2772 
Q 2041 2772 1848 2508 
Q 1656 2244 1656 1747 
Q 1656 1250 1848 986 
Q 2041 722 2400 722 
z
M 1656 2988 
Q 1888 3294 2169 3439 
Q 2450 3584 2816 3584 
Q 3463 3584 3878 3070 
Q 4294 2556 4294 1747 
Q 4294 938 3878 423 
Q 3463 -91 2816 -91 
Q 2450 -91 2169 54 
Q 1888 200 1656 506 
L 1656 0 
L 538 0 
L 538 4863 
L 1656 4863 
L 1656 2988 
z
" transform="scale(0.015625)"/>
      <path id="DejaVuSans-Bold-6b" d="M 538 4863 
L 1656 4863 
L 1656 2216 
L 2944 3500 
L 4244 3500 
L 2534 1894 
L 4378 0 
L 3022 0 
L 1656 1459 
L 1656 0 
L 538 0 
L 538 4863 
z
" transform="scale(0.015625)"/>
      <path id="DejaVuSans-Bold-2e" d="M 653 1209 
L 1778 1209 
L 1778 0 
L 653 0 
L 653 1209 
z
" transform="scale(0.015625)"/>
     </defs>
     <use xlink:href="#DejaVuSans-Bold-49"/>
     <use xlink:href="#DejaVuSans-Bold-6d" transform="translate(37.207031 0)"/>
     <use xlink:href="#DejaVuSans-Bold-70" transform="translate(141.40625 0)"/>
     <use xlink:href="#DejaVuSans-Bold-6c" transform="translate(212.988281 0)"/>
     <use xlink:href="#DejaVuSans-Bold-69" transform="translate(247.265625 0)"/>
     <use xlink:href="#DejaVuSans-Bold-63" transform="translate(281.542969 0)"/>
     <use xlink:href="#DejaVuSans-Bold-61" transform="translate(340.820312 0)"/>
     <use xlink:href="#DejaVuSans-Bold-74" transform="translate(408.300781 0)"/>
     <use xlink:href="#DejaVuSans-Bold-69" transform="translate(456.103516 0)"/>
     <use xlink:href="#DejaVuSans-Bold-6f" transform="translate(490.380859 0)"/>
     <use xlink:href="#DejaVuSans-Bold-6e" transform="translate(559.082031 0)"/>
     <use xlink:href="#DejaVuSans-Bold-3a" transform="translate(630.273438 0)"/>
     <use xlink:href="#DejaVuSans-Bold-20" transform="translate(670.263672 0)"/>
     <use xlink:href="#DejaVuSans-Bold-41" transform="translate(705.078125 0)"/>
     <use xlink:href="#DejaVuSans-Bold-64" transform="translate(782.470703 0)"/>
     <use xlink:href="#DejaVuSans-Bold-76" transform="translate(854.052734 0)"/>
     <use xlink:href="#DejaVuSans-Bold-65" transform="translate(919.238281 0)"/>
     <use xlink:href="#DejaVuSans-Bold-72" transform="translate(987.060547 0)"/>
     <use xlink:href="#DejaVuSans-Bold-73" transform="translate(1036.376953 0)"/>
     <use xlink:href="#DejaVuSans-Bold-61" transform="translate(1095.898438 0)"/>
     <use xlink:href="#DejaVuSans-Bold-72" transform="translate(1163.378906 0)"/>
     <use xlink:href="#DejaVuSans-Bold-69" transform="translate(1212.695312 0)"/>
     <use xlink:href="#DejaVuSans-Bold-61" transform="translate(1246.972656 0)"/>
     <use xlink:href="#DejaVuSans-Bold-6c" transform="translate(1314.453125 0)"/>
     <use xlink:href="#DejaVuSans-Bold-20" transform="translate(1348.730469 0)"/>
     <use xlink:href="#DejaVuSans-Bold-70" transform="translate(1383.544922 0)"/>
     <use xlink:href="#DejaVuSans-Bold-65" transform="translate(1455.126953 0)"/>
     <use xlink:href="#DejaVuSans-Bold-72" transform="translate(1522.949219 0)"/>
     <use xlink:href="#DejaVuSans-Bold-74" transform="translate(1572.265625 0)"/>
     <use xlink:href="#DejaVuSans-Bold-75" transform="translate(1620.068359 0)"/>
     <use xlink:href="#DejaVuSans-Bold-72" transform="translate(1691.259766 0)"/>
     <use xlink:href="#DejaVuSans-Bold-62" transform="translate(1740.576172 0)"/>
     <use xlink:href="#DejaVuSans-Bold-61" transform="translate(1812.158203 0)"/>
     <use xlink:href="#DejaVuSans-Bold-74" transform="translate(1879.638672 0)"/>
     <use xlink:href="#DejaVuSans-Bold-69" transform="translate(1927.441406 0)"/>
     <use xlink:href="#DejaVuSans-Bold-6f" transform="translate(1961.71875 0)"/>
     <use xlink:href="#DejaVuSans-Bold-6e" transform="translate(2030.419922 0)"/>
     <use xlink:href="#DejaVuSans-Bold-73" transform="translate(2101.611328 0)"/>
     <use xlink:href="#DejaVuSans-Bold-20" transform="translate(2161.132812 0)"/>
     <use xlink:href="#DejaVuSans-Bold-63" transform="translate(2195.947266 0)"/>
     <use xlink:href="#DejaVuSans-Bold-61" transform="translate(2255.224609 0)"/>
     <use xlink:href="#DejaVuSans-Bold-6e" transform="translate(2322.705078 0)"/>
     <use xlink:href="#DejaVuSans-Bold-6e" transform="translate(2393.896484 0)"/>
     <use xlink:href="#DejaVuSans-Bold-6f" transform="translate(2465.087891 0)"/>
     <use xlink:href="#DejaVuSans-Bold-74" transform="translate(2533.789062 0)"/>
     <use xlink:href="#DejaVuSans-Bold-20" transform="translate(2581.591797 0)"/>
     <use xlink:href="#DejaVuSans-Bold-62" transform="translate(2616.40625 0)"/>
     <use xlink:href="#DejaVuSans-Bold-72" transform="translate(2687.988281 0)"/>
     <use xlink:href="#DejaVuSans-Bold-65" transform="translate(2737.304688 0)"/>
     <use xlink:href="#DejaVuSans-Bold-61" transform="translate(2805.126953 0)"/>
     <use xlink:href="#DejaVuSans-Bold-6b" transform="translate(2872.607422 0)"/>
     <use xlink:href="#DejaVuSans-Bold-20" transform="translate(2939.111328 0)"/>
     <use xlink:href="#DejaVuSans-Bold-74" transform="translate(2973.925781 0)"/>
     <use xlink:href="#DejaVuSans-Bold-65" transform="translate(3021.728516 0)"/>
     <use xlink:href="#DejaVuSans-Bold-6d" transform="translate(3089.550781 0)"/>
     <use xlink:href="#DejaVuSans-Bold-70" transform="translate(3193.75 0)"/>
     <use xlink:href="#DejaVuSans-Bold-6f" transform="translate(3265.332031 0)"/>
     <use xlink:href="#DejaVuSans-Bold-72" transform="translate(3334.033203 0)"/>
     <use xlink:href="#DejaVuSans-Bold-61" transform="translate(3383.349609 0)"/>
     <use xlink:href="#DejaVuSans-Bold-6c" transform="translate(3450.830078 0)"/>
     <use xlink:href="#DejaVuSans-Bold-20" transform="translate(3485.107422 0)"/>
     <use xlink:href="#DejaVuSans-Bold-63" transform="translate(3519.921875 0)"/>
     <use xlink:href="#DejaVuSans-Bold-61" transform="translate(3579.199219 0)"/>
     <use xlink:href="#DejaVuSans-Bold-75" transform="translate(3646.679688 0)"/>
     <use xlink:href="#DejaVuSans-Bold-73" transform="translate(3717.871094 0)"/>
     <use xlink:href="#DejaVuSans-Bold-61" transform="translate(3777.392578 0)"/>
     <use xlink:href="#DejaVuSans-Bold-6c" transform="translate(3844.873047 0)"/>
     <use xlink:href="#DejaVuSans-Bold-69" transform="translate(3879.150391 0)"/>
     <use xlink:href="#DejaVuSans-Bold-74" transform="translate(3913.427734 0)"/>
     <use xlink:href="#DejaVuSans-Bold-79" transform="translate(3961.230469 0)"/>
     <use xlink:href="#DejaVuSans-Bold-20" transform="translate(4026.416016 0)"/>
     <use xlink:href="#DejaVuSans-Bold-62" transform="translate(4061.230469 0)"/>
     <use xlink:href="#DejaVuSans-Bold-6f" transform="translate(4132.8125 0)"/>
     <use xlink:href="#DejaVuSans-Bold-75" transform="translate(4201.513672 0)"/>
     <use xlink:href="#DejaVuSans-Bold-6e" transform="translate(4272.705078 0)"/>
     <use xlink:href="#DejaVuSans-Bold-64" transform="translate(4343.896484 0)"/>
     <use xlink:href="#DejaVuSans-Bold-61" transform="translate(4415.478516 0)"/>
     <use xlink:href="#DejaVuSans-Bold-72" transform="translate(4482.958984 0)"/>
     <use xlink:href="#DejaVuSans-Bold-69" transform="translate(4532.275391 0)"/>
     <use xlink:href="#DejaVuSans-Bold-65" transform="translate(4566.552734 0)"/>
     <use xlink:href="#DejaVuSans-Bold-73" transform="translate(4634.375 0)"/>
     <use xlink:href="#DejaVuSans-Bold-2e" transform="translate(4693.896484 0)"/>
    </g>
   </g>
  </g>
 </g>
 <defs>
  <clipPath id="pf023a99395">
   <rect x="7.2" y="7.2" width="698.4" height="424.8"/>
  </clipPath>
 </defs>
</svg>
