<?xml version="1.0" encoding="utf-8" standalone="no"?>
<!DOCTYPE svg PUBLIC "-//W3C//DTD SVG 1.1//EN"
  "http://www.w3.org/Graphics/SVG/1.1/DTD/svg11.dtd">
<svg xmlns:xlink="http://www.w3.org/1999/xlink" width="784.8pt" height="388.518281pt" viewBox="0 0 784.8 388.518281" xmlns="http://www.w3.org/2000/svg" version="1.1">
 <metadata>
  <rdf:RDF xmlns:dc="http://purl.org/dc/elements/1.1/" xmlns:cc="http://creativecommons.org/ns#" xmlns:rdf="http://www.w3.org/1999/02/22-rdf-syntax-ns#">
   <cc:Work>
    <dc:type rdf:resource="http://purl.org/dc/dcmitype/StillImage"/>
    <dc:date>2026-07-07T07:49:30.829479</dc:date>
    <dc:format>image/svg+xml</dc:format>
    <dc:creator>
     <cc:Agent>
      <dc:title>Matplotlib v3.10.9, https://matplotlib.org/</dc:title>
     </cc:Agent>
    </dc:creator>
   </cc:Work>
  </rdf:RDF>
 </metadata>
 <defs>
  <style type="text/css">*{stroke-linejoin: round; stroke-linecap: butt}</style>
 </defs>
 <g id="figure_1">
  <g id="patch_1">
   <path d="M 0 388.518281 
L 784.8 388.518281 
L 784.8 0 
L 0 0 
z
" style="fill: #ffffff"/>
  </g>
  <g id="axes_1">
   <g id="patch_2">
    <path d="M 206.315576 278.986545 
C 224.557834 274.356459 241.084382 266.482736 252.255438 257.09947 
C 263.426494 247.716205 268.329992 237.589499 265.885993 228.949643 
C 263.441994 220.309786 253.850039 213.862185 239.222646 211.026849 
C 224.595253 208.191512 206.126683 209.199933 187.884424 213.830018 
C 169.642166 218.460103 153.115618 226.333827 141.944562 235.717092 
C 130.773506 245.100358 125.870008 255.227064 128.314007 263.86692 
C 130.758006 272.506776 140.349961 278.954377 154.977354 281.789714 
C 169.604747 284.62505 188.073317 283.61663 206.315576 278.986545 
z
" clip-path="url(#pe54a8da916)" style="fill: #ffcdd2; opacity: 0.6; stroke: #ffcdd2; stroke-linejoin: miter"/>
   </g>
   <g id="patch_3">
    <path d="M 206.315576 144.076545 
C 224.557834 139.446459 241.084382 131.572736 252.255438 122.18947 
C 263.426494 112.806205 268.329992 102.679499 265.885993 94.039643 
C 263.441994 85.399786 253.850039 78.952185 239.222646 76.116849 
C 224.595253 73.281512 206.126683 74.289933 187.884424 78.920018 
C 169.642166 83.550103 153.115618 91.423827 141.944562 100.807092 
C 130.773506 110.190358 125.870008 120.317064 128.314007 128.95692 
C 130.758006 137.596776 140.349961 144.044377 154.977354 146.879714 
C 169.604747 149.71505 188.073317 148.70663 206.315576 144.076545 
z
" clip-path="url(#pe54a8da916)" style="fill: #c8e6c9; opacity: 0.6; stroke: #c8e6c9; stroke-linejoin: miter"/>
   </g>
   <g id="line2d_1">
    <path d="M 7.2 178.953281 
L 387 178.953281 
" clip-path="url(#pe54a8da916)" style="fill: none; stroke-dasharray: 7.4,3.2; stroke-dashoffset: 0; stroke: #d32f2f; stroke-width: 2"/>
   </g>
   <g id="text_1">
    <!-- Decision Boundary -->
    <g style="fill: #d32f2f" transform="translate(30.9375 169.959281) scale(0.08 -0.08)">
     <defs>
      <path id="DejaVuSans-Bold-44" d="M 1791 3756 
L 1791 909 
L 2222 909 
Q 2959 909 3348 1275 
Q 3738 1641 3738 2338 
Q 3738 3031 3350 3393 
Q 2963 3756 2222 3756 
L 1791 3756 
z
M 588 4666 
L 1856 4666 
Q 2919 4666 3439 4514 
Q 3959 4363 4331 4000 
Q 4659 3684 4818 3271 
Q 4978 2859 4978 2338 
Q 4978 1809 4818 1395 
Q 4659 981 4331 666 
Q 3956 303 3431 151 
Q 2906 0 1856 0 
L 588 0 
L 588 4666 
z
" transform="scale(0.015625)"/>
      <path id="DejaVuSans-Bold-65" d="M 4031 1759 
L 4031 1441 
L 1416 1441 
Q 1456 1047 1700 850 
Q 1944 653 2381 653 
Q 2734 653 3104 758 
Q 3475 863 3866 1075 
L 3866 213 
Q 3469 63 3072 -14 
Q 2675 -91 2278 -91 
Q 1328 -91 801 392 
Q 275 875 275 1747 
Q 275 2603 792 3093 
Q 1309 3584 2216 3584 
Q 3041 3584 3536 3087 
Q 4031 2591 4031 1759 
z
M 2881 2131 
Q 2881 2450 2695 2645 
Q 2509 2841 2209 2841 
Q 1884 2841 1681 2658 
Q 1478 2475 1428 2131 
L 2881 2131 
z
" transform="scale(0.015625)"/>
      <path id="DejaVuSans-Bold-63" d="M 3366 3391 
L 3366 2478 
Q 3138 2634 2908 2709 
Q 2678 2784 2431 2784 
Q 1963 2784 1702 2511 
Q 1441 2238 1441 1747 
Q 1441 1256 1702 982 
Q 1963 709 2431 709 
Q 2694 709 2930 787 
Q 3166 866 3366 1019 
L 3366 103 
Q 3103 6 2833 -42 
Q 2563 -91 2291 -91 
Q 1344 -91 809 395 
Q 275 881 275 1747 
Q 275 2613 809 3098 
Q 1344 3584 2291 3584 
Q 2566 3584 2833 3536 
Q 3100 3488 3366 3391 
z
" transform="scale(0.015625)"/>
      <path id="DejaVuSans-Bold-69" d="M 538 3500 
L 1656 3500 
L 1656 0 
L 538 0 
L 538 3500 
z
M 538 4863 
L 1656 4863 
L 1656 3950 
L 538 3950 
L 538 4863 
z
" transform="scale(0.015625)"/>
      <path id="DejaVuSans-Bold-73" d="M 3272 3391 
L 3272 2541 
Q 2913 2691 2578 2766 
Q 2244 2841 1947 2841 
Q 1628 2841 1473 2761 
Q 1319 2681 1319 2516 
Q 1319 2381 1436 2309 
Q 1553 2238 1856 2203 
L 2053 2175 
Q 2913 2066 3209 1816 
Q 3506 1566 3506 1031 
Q 3506 472 3093 190 
Q 2681 -91 1863 -91 
Q 1516 -91 1145 -36 
Q 775 19 384 128 
L 384 978 
Q 719 816 1070 734 
Q 1422 653 1784 653 
Q 2113 653 2278 743 
Q 2444 834 2444 1013 
Q 2444 1163 2330 1236 
Q 2216 1309 1875 1350 
L 1678 1375 
Q 931 1469 631 1722 
Q 331 1975 331 2491 
Q 331 3047 712 3315 
Q 1094 3584 1881 3584 
Q 2191 3584 2531 3537 
Q 2872 3491 3272 3391 
z
" transform="scale(0.015625)"/>
      <path id="DejaVuSans-Bold-6f" d="M 2203 2784 
Q 1831 2784 1636 2517 
Q 1441 2250 1441 1747 
Q 1441 1244 1636 976 
Q 1831 709 2203 709 
Q 2569 709 2762 976 
Q 2956 1244 2956 1747 
Q 2956 2250 2762 2517 
Q 2569 2784 2203 2784 
z
M 2203 3584 
Q 3106 3584 3614 3096 
Q 4122 2609 4122 1747 
Q 4122 884 3614 396 
Q 3106 -91 2203 -91 
Q 1297 -91 786 396 
Q 275 884 275 1747 
Q 275 2609 786 3096 
Q 1297 3584 2203 3584 
z
" transform="scale(0.015625)"/>
      <path id="DejaVuSans-Bold-6e" d="M 4056 2131 
L 4056 0 
L 2931 0 
L 2931 347 
L 2931 1631 
Q 2931 2084 2911 2256 
Q 2891 2428 2841 2509 
Q 2775 2619 2662 2680 
Q 2550 2741 2406 2741 
Q 2056 2741 1856 2470 
Q 1656 2200 1656 1722 
L 1656 0 
L 538 0 
L 538 3500 
L 1656 3500 
L 1656 2988 
Q 1909 3294 2193 3439 
Q 2478 3584 2822 3584 
Q 3428 3584 3742 3212 
Q 4056 2841 4056 2131 
z
" transform="scale(0.015625)"/>
      <path id="DejaVuSans-Bold-20" transform="scale(0.015625)"/>
      <path id="DejaVuSans-Bold-42" d="M 2456 2859 
Q 2741 2859 2887 2984 
Q 3034 3109 3034 3353 
Q 3034 3594 2887 3720 
Q 2741 3847 2456 3847 
L 1791 3847 
L 1791 2859 
L 2456 2859 
z
M 2497 819 
Q 2859 819 3042 972 
Q 3225 1125 3225 1434 
Q 3225 1738 3044 1889 
Q 2863 2041 2497 2041 
L 1791 2041 
L 1791 819 
L 2497 819 
z
M 3616 2497 
Q 4003 2384 4215 2081 
Q 4428 1778 4428 1338 
Q 4428 663 3972 331 
Q 3516 0 2584 0 
L 588 0 
L 588 4666 
L 2394 4666 
Q 3366 4666 3802 4372 
Q 4238 4078 4238 3431 
Q 4238 3091 4078 2852 
Q 3919 2613 3616 2497 
z
" transform="scale(0.015625)"/>
      <path id="DejaVuSans-Bold-75" d="M 500 1363 
L 500 3500 
L 1625 3500 
L 1625 3150 
Q 1625 2866 1622 2436 
Q 1619 2006 1619 1863 
Q 1619 1441 1641 1255 
Q 1663 1069 1716 984 
Q 1784 875 1895 815 
Q 2006 756 2150 756 
Q 2500 756 2700 1025 
Q 2900 1294 2900 1772 
L 2900 3500 
L 4019 3500 
L 4019 0 
L 2900 0 
L 2900 506 
Q 2647 200 2364 54 
Q 2081 -91 1741 -91 
Q 1134 -91 817 281 
Q 500 653 500 1363 
z
" transform="scale(0.015625)"/>
      <path id="DejaVuSans-Bold-64" d="M 2919 2988 
L 2919 4863 
L 4044 4863 
L 4044 0 
L 2919 0 
L 2919 506 
Q 2688 197 2409 53 
Q 2131 -91 1766 -91 
Q 1119 -91 703 423 
Q 288 938 288 1747 
Q 288 2556 703 3070 
Q 1119 3584 1766 3584 
Q 2128 3584 2408 3439 
Q 2688 3294 2919 2988 
z
M 2181 722 
Q 2541 722 2730 984 
Q 2919 1247 2919 1747 
Q 2919 2247 2730 2509 
Q 2541 2772 2181 2772 
Q 1825 2772 1636 2509 
Q 1447 2247 1447 1747 
Q 1447 1247 1636 984 
Q 1825 722 2181 722 
z
" transform="scale(0.015625)"/>
      <path id="DejaVuSans-Bold-61" d="M 2106 1575 
Q 1756 1575 1579 1456 
Q 1403 1338 1403 1106 
Q 1403 894 1545 773 
Q 1688 653 1941 653 
Q 2256 653 2472 879 
Q 2688 1106 2688 1447 
L 2688 1575 
L 2106 1575 
z
M 3816 1997 
L 3816 0 
L 2688 0 
L 2688 519 
Q 2463 200 2181 54 
Q 1900 -91 1497 -91 
Q 953 -91 614 226 
Q 275 544 275 1050 
Q 275 1666 698 1953 
Q 1122 2241 2028 2241 
L 2688 2241 
L 2688 2328 
Q 2688 2594 2478 2717 
Q 2269 2841 1825 2841 
Q 1466 2841 1156 2769 
Q 847 2697 581 2553 
L 581 3406 
Q 941 3494 1303 3539 
Q 1666 3584 2028 3584 
Q 2975 3584 3395 3211 
Q 3816 2838 3816 1997 
z
" transform="scale(0.015625)"/>
      <path id="DejaVuSans-Bold-72" d="M 3138 2547 
Q 2991 2616 2845 2648 
Q 2700 2681 2553 2681 
Q 2122 2681 1889 2404 
Q 1656 2128 1656 1613 
L 1656 0 
L 538 0 
L 538 3500 
L 1656 3500 
L 1656 2925 
Q 1872 3269 2151 3426 
Q 2431 3584 2822 3584 
Q 2878 3584 2943 3579 
Q 3009 3575 3134 3559 
L 3138 2547 
z
" transform="scale(0.015625)"/>
      <path id="DejaVuSans-Bold-79" d="M 78 3500 
L 1197 3500 
L 2138 1125 
L 2938 3500 
L 4056 3500 
L 2584 -331 
Q 2363 -916 2067 -1148 
Q 1772 -1381 1288 -1381 
L 641 -1381 
L 641 -647 
L 991 -647 
Q 1275 -647 1404 -556 
Q 1534 -466 1606 -231 
L 1638 -134 
L 78 3500 
z
" transform="scale(0.015625)"/>
     </defs>
     <use xlink:href="#DejaVuSans-Bold-44"/>
     <use xlink:href="#DejaVuSans-Bold-65" transform="translate(83.007812 0)"/>
     <use xlink:href="#DejaVuSans-Bold-63" transform="translate(150.830078 0)"/>
     <use xlink:href="#DejaVuSans-Bold-69" transform="translate(210.107422 0)"/>
     <use xlink:href="#DejaVuSans-Bold-73" transform="translate(244.384766 0)"/>
     <use xlink:href="#DejaVuSans-Bold-69" transform="translate(303.90625 0)"/>
     <use xlink:href="#DejaVuSans-Bold-6f" transform="translate(338.183594 0)"/>
     <use xlink:href="#DejaVuSans-Bold-6e" transform="translate(406.884766 0)"/>
     <use xlink:href="#DejaVuSans-Bold-20" transform="translate(478.076172 0)"/>
     <use xlink:href="#DejaVuSans-Bold-42" transform="translate(512.890625 0)"/>
     <use xlink:href="#DejaVuSans-Bold-6f" transform="translate(589.111328 0)"/>
     <use xlink:href="#DejaVuSans-Bold-75" transform="translate(657.8125 0)"/>
     <use xlink:href="#DejaVuSans-Bold-6e" transform="translate(729.003906 0)"/>
     <use xlink:href="#DejaVuSans-Bold-64" transform="translate(800.195312 0)"/>
     <use xlink:href="#DejaVuSans-Bold-61" transform="translate(871.777344 0)"/>
     <use xlink:href="#DejaVuSans-Bold-72" transform="translate(939.257812 0)"/>
     <use xlink:href="#DejaVuSans-Bold-79" transform="translate(988.574219 0)"/>
    </g>
   </g>
   <g id="text_2">
    <!-- Automobile Class -->
    <g style="fill: #5d4037" transform="translate(153.227109 248.891719) scale(0.09 -0.09)">
     <defs>
      <path id="DejaVuSans-Bold-41" d="M 3419 850 
L 1538 850 
L 1241 0 
L 31 0 
L 1759 4666 
L 3194 4666 
L 4922 0 
L 3713 0 
L 3419 850 
z
M 1838 1716 
L 3116 1716 
L 2478 3572 
L 1838 1716 
z
" transform="scale(0.015625)"/>
      <path id="DejaVuSans-Bold-74" d="M 1759 4494 
L 1759 3500 
L 2913 3500 
L 2913 2700 
L 1759 2700 
L 1759 1216 
Q 1759 972 1856 886 
Q 1953 800 2241 800 
L 2816 800 
L 2816 0 
L 1856 0 
Q 1194 0 917 276 
Q 641 553 641 1216 
L 641 2700 
L 84 2700 
L 84 3500 
L 641 3500 
L 641 4494 
L 1759 4494 
z
" transform="scale(0.015625)"/>
      <path id="DejaVuSans-Bold-6d" d="M 3781 2919 
Q 3994 3244 4286 3414 
Q 4578 3584 4928 3584 
Q 5531 3584 5847 3212 
Q 6163 2841 6163 2131 
L 6163 0 
L 5038 0 
L 5038 1825 
Q 5041 1866 5042 1909 
Q 5044 1953 5044 2034 
Q 5044 2406 4934 2573 
Q 4825 2741 4581 2741 
Q 4263 2741 4089 2478 
Q 3916 2216 3909 1719 
L 3909 0 
L 2784 0 
L 2784 1825 
Q 2784 2406 2684 2573 
Q 2584 2741 2328 2741 
Q 2006 2741 1831 2477 
Q 1656 2213 1656 1722 
L 1656 0 
L 531 0 
L 531 3500 
L 1656 3500 
L 1656 2988 
Q 1863 3284 2130 3434 
Q 2397 3584 2719 3584 
Q 3081 3584 3359 3409 
Q 3638 3234 3781 2919 
z
" transform="scale(0.015625)"/>
      <path id="DejaVuSans-Bold-62" d="M 2400 722 
Q 2759 722 2948 984 
Q 3138 1247 3138 1747 
Q 3138 2247 2948 2509 
Q 2759 2772 2400 2772 
Q 2041 2772 1848 2508 
Q 1656 2244 1656 1747 
Q 1656 1250 1848 986 
Q 2041 722 2400 722 
z
M 1656 2988 
Q 1888 3294 2169 3439 
Q 2450 3584 2816 3584 
Q 3463 3584 3878 3070 
Q 4294 2556 4294 1747 
Q 4294 938 3878 423 
Q 3463 -91 2816 -91 
Q 2450 -91 2169 54 
Q 1888 200 1656 506 
L 1656 0 
L 538 0 
L 538 4863 
L 1656 4863 
L 1656 2988 
z
" transform="scale(0.015625)"/>
      <path id="DejaVuSans-Bold-6c" d="M 538 4863 
L 1656 4863 
L 1656 0 
L 538 0 
L 538 4863 
z
" transform="scale(0.015625)"/>
      <path id="DejaVuSans-Bold-43" d="M 4288 256 
Q 3956 84 3597 -3 
Q 3238 -91 2847 -91 
Q 1681 -91 1000 561 
Q 319 1213 319 2328 
Q 319 3447 1000 4098 
Q 1681 4750 2847 4750 
Q 3238 4750 3597 4662 
Q 3956 4575 4288 4403 
L 4288 3438 
Q 3953 3666 3628 3772 
Q 3303 3878 2944 3878 
Q 2300 3878 1931 3465 
Q 1563 3053 1563 2328 
Q 1563 1606 1931 1193 
Q 2300 781 2944 781 
Q 3303 781 3628 887 
Q 3953 994 4288 1222 
L 4288 256 
z
" transform="scale(0.015625)"/>
     </defs>
     <use xlink:href="#DejaVuSans-Bold-41"/>
     <use xlink:href="#DejaVuSans-Bold-75" transform="translate(77.392578 0)"/>
     <use xlink:href="#DejaVuSans-Bold-74" transform="translate(148.583984 0)"/>
     <use xlink:href="#DejaVuSans-Bold-6f" transform="translate(196.386719 0)"/>
     <use xlink:href="#DejaVuSans-Bold-6d" transform="translate(265.087891 0)"/>
     <use xlink:href="#DejaVuSans-Bold-6f" transform="translate(369.287109 0)"/>
     <use xlink:href="#DejaVuSans-Bold-62" transform="translate(437.988281 0)"/>
     <use xlink:href="#DejaVuSans-Bold-69" transform="translate(509.570312 0)"/>
     <use xlink:href="#DejaVuSans-Bold-6c" transform="translate(543.847656 0)"/>
     <use xlink:href="#DejaVuSans-Bold-65" transform="translate(578.125 0)"/>
     <use xlink:href="#DejaVuSans-Bold-20" transform="translate(645.947266 0)"/>
     <use xlink:href="#DejaVuSans-Bold-43" transform="translate(680.761719 0)"/>
     <use xlink:href="#DejaVuSans-Bold-6c" transform="translate(754.150391 0)"/>
     <use xlink:href="#DejaVuSans-Bold-61" transform="translate(788.427734 0)"/>
     <use xlink:href="#DejaVuSans-Bold-73" transform="translate(855.908203 0)"/>
     <use xlink:href="#DejaVuSans-Bold-73" transform="translate(915.429688 0)"/>
    </g>
   </g>
   <g id="text_3">
    <!-- Truck Class -->
    <g style="fill: #1b5e20" transform="translate(168.6375 113.981719) scale(0.09 -0.09)">
     <defs>
      <path id="DejaVuSans-Bold-54" d="M 31 4666 
L 4331 4666 
L 4331 3756 
L 2784 3756 
L 2784 0 
L 1581 0 
L 1581 3756 
L 31 3756 
L 31 4666 
z
" transform="scale(0.015625)"/>
      <path id="DejaVuSans-Bold-6b" d="M 538 4863 
L 1656 4863 
L 1656 2216 
L 2944 3500 
L 4244 3500 
L 2534 1894 
L 4378 0 
L 3022 0 
L 1656 1459 
L 1656 0 
L 538 0 
L 538 4863 
z
" transform="scale(0.015625)"/>
     </defs>
     <use xlink:href="#DejaVuSans-Bold-54"/>
     <use xlink:href="#DejaVuSans-Bold-72" transform="translate(57.212891 0)"/>
     <use xlink:href="#DejaVuSans-Bold-75" transform="translate(106.529297 0)"/>
     <use xlink:href="#DejaVuSans-Bold-63" transform="translate(177.720703 0)"/>
     <use xlink:href="#DejaVuSans-Bold-6b" transform="translate(236.998047 0)"/>
     <use xlink:href="#DejaVuSans-Bold-20" transform="translate(303.501953 0)"/>
     <use xlink:href="#DejaVuSans-Bold-43" transform="translate(338.316406 0)"/>
     <use xlink:href="#DejaVuSans-Bold-6c" transform="translate(411.705078 0)"/>
     <use xlink:href="#DejaVuSans-Bold-61" transform="translate(445.982422 0)"/>
     <use xlink:href="#DejaVuSans-Bold-73" transform="translate(513.462891 0)"/>
     <use xlink:href="#DejaVuSans-Bold-73" transform="translate(572.984375 0)"/>
    </g>
   </g>
   <g id="PathCollection_1">
    <defs>
     <path id="m1664cccbb2" d="M 0 4.472136 
C 1.186024 4.472136 2.323632 4.000923 3.162278 3.162278 
C 4.000923 2.323632 4.472136 1.186024 4.472136 0 
C 4.472136 -1.186024 4.000923 -2.323632 3.162278 -3.162278 
C 2.323632 -4.000923 1.186024 -4.472136 0 -4.472136 
C -1.186024 -4.472136 -2.323632 -4.000923 -3.162278 -3.162278 
C -4.000923 -2.323632 -4.472136 -1.186024 -4.472136 0 
C -4.472136 1.186024 -4.000923 2.323632 -3.162278 3.162278 
C -2.323632 4.000923 -1.186024 4.472136 0 4.472136 
z
" style="stroke: #1f77b4"/>
    </defs>
    <g clip-path="url(#pe54a8da916)">
     <use xlink:href="#m1664cccbb2" x="173.3625" y="237.414281" style="fill: #1f77b4; stroke: #1f77b4"/>
    </g>
   </g>
   <g id="text_4">
    <!-- Clean $x$ -->
    <g style="fill: #1f77b4" transform="translate(154.9575 255.402281) scale(0.09 -0.09)">
     <defs>
      <path id="DejaVuSans-Oblique-78" d="M 3841 3500 
L 2234 1784 
L 3219 0 
L 2559 0 
L 1819 1388 
L 531 0 
L -166 0 
L 1556 1844 
L 641 3500 
L 1300 3500 
L 1972 2234 
L 3144 3500 
L 3841 3500 
z
" transform="scale(0.015625)"/>
     </defs>
     <use xlink:href="#DejaVuSans-Bold-43" transform="translate(0 0.015625)"/>
     <use xlink:href="#DejaVuSans-Bold-6c" transform="translate(73.388672 0.015625)"/>
     <use xlink:href="#DejaVuSans-Bold-65" transform="translate(107.666016 0.015625)"/>
     <use xlink:href="#DejaVuSans-Bold-61" transform="translate(175.488281 0.015625)"/>
     <use xlink:href="#DejaVuSans-Bold-6e" transform="translate(242.96875 0.015625)"/>
     <use xlink:href="#DejaVuSans-Bold-20" transform="translate(314.160156 0.015625)"/>
     <use xlink:href="#DejaVuSans-Oblique-78" transform="translate(348.974609 0.015625)"/>
    </g>
   </g>
   <g id="PathCollection_2">
    <defs>
     <path id="m4adc1ac7e0" d="M 0 4.472136 
C 1.186024 4.472136 2.323632 4.000923 3.162278 3.162278 
C 4.000923 2.323632 4.472136 1.186024 4.472136 0 
C 4.472136 -1.186024 4.000923 -2.323632 3.162278 -3.162278 
C 2.323632 -4.000923 1.186024 -4.472136 0 -4.472136 
C -1.186024 -4.472136 -2.323632 -4.000923 -3.162278 -3.162278 
C -4.000923 -2.323632 -4.472136 -1.186024 -4.472136 0 
C -4.472136 1.186024 -4.000923 2.323632 -3.162278 3.162278 
C -2.323632 4.000923 -1.186024 4.472136 0 4.472136 
z
" style="stroke: #e53935"/>
    </defs>
    <g clip-path="url(#pe54a8da916)">
     <use xlink:href="#m4adc1ac7e0" x="220.8375" y="120.492281" style="fill: #e53935; stroke: #e53935"/>
    </g>
   </g>
   <g id="text_5">
    <!-- Adv $x_{adv}$ (Fools model) -->
    <g style="fill: #e53935" transform="translate(164.7225 102.504281) scale(0.09 -0.09)">
     <defs>
      <path id="DejaVuSans-Bold-76" d="M 97 3500 
L 1216 3500 
L 2088 1081 
L 2956 3500 
L 4078 3500 
L 2700 0 
L 1472 0 
L 97 3500 
z
" transform="scale(0.015625)"/>
      <path id="DejaVuSans-Oblique-61" d="M 3438 1997 
L 3047 0 
L 2472 0 
L 2578 531 
Q 2325 219 2001 64 
Q 1678 -91 1281 -91 
Q 834 -91 548 182 
Q 263 456 263 884 
Q 263 1497 752 1853 
Q 1241 2209 2100 2209 
L 2900 2209 
L 2931 2363 
Q 2938 2388 2941 2417 
Q 2944 2447 2944 2509 
Q 2944 2788 2717 2942 
Q 2491 3097 2081 3097 
Q 1800 3097 1504 3025 
Q 1209 2953 897 2809 
L 997 3341 
Q 1322 3463 1633 3523 
Q 1944 3584 2234 3584 
Q 2853 3584 3176 3315 
Q 3500 3047 3500 2534 
Q 3500 2431 3484 2292 
Q 3469 2153 3438 1997 
z
M 2816 1759 
L 2241 1759 
Q 1534 1759 1195 1570 
Q 856 1381 856 984 
Q 856 709 1029 553 
Q 1203 397 1509 397 
Q 1978 397 2328 733 
Q 2678 1069 2791 1631 
L 2816 1759 
z
" transform="scale(0.015625)"/>
      <path id="DejaVuSans-Oblique-64" d="M 2675 525 
Q 2444 222 2128 65 
Q 1813 -91 1428 -91 
Q 903 -91 598 267 
Q 294 625 294 1247 
Q 294 1766 478 2236 
Q 663 2706 1013 3078 
Q 1244 3325 1534 3454 
Q 1825 3584 2144 3584 
Q 2481 3584 2739 3421 
Q 2997 3259 3138 2956 
L 3513 4863 
L 4091 4863 
L 3144 0 
L 2566 0 
L 2675 525 
z
M 891 1350 
Q 891 897 1095 644 
Q 1300 391 1663 391 
Q 1931 391 2161 520 
Q 2391 650 2566 903 
Q 2750 1166 2856 1509 
Q 2963 1853 2963 2188 
Q 2963 2622 2758 2865 
Q 2553 3109 2194 3109 
Q 1922 3109 1687 2981 
Q 1453 2853 1288 2613 
Q 1106 2353 998 2009 
Q 891 1666 891 1350 
z
" transform="scale(0.015625)"/>
      <path id="DejaVuSans-Oblique-76" d="M 459 3500 
L 1069 3500 
L 1581 525 
L 3256 3500 
L 3866 3500 
L 1875 0 
L 1100 0 
L 459 3500 
z
" transform="scale(0.015625)"/>
      <path id="DejaVuSans-Bold-28" d="M 2413 -844 
L 1484 -844 
Q 1006 -72 778 623 
Q 550 1319 550 2003 
Q 550 2688 779 3389 
Q 1009 4091 1484 4856 
L 2413 4856 
Q 2013 4116 1813 3408 
Q 1613 2700 1613 2009 
Q 1613 1319 1811 609 
Q 2009 -100 2413 -844 
z
" transform="scale(0.015625)"/>
      <path id="DejaVuSans-Bold-46" d="M 588 4666 
L 3834 4666 
L 3834 3756 
L 1791 3756 
L 1791 2888 
L 3713 2888 
L 3713 1978 
L 1791 1978 
L 1791 0 
L 588 0 
L 588 4666 
z
" transform="scale(0.015625)"/>
      <path id="DejaVuSans-Bold-29" d="M 513 -844 
Q 913 -100 1113 609 
Q 1313 1319 1313 2009 
Q 1313 2700 1113 3408 
Q 913 4116 513 4856 
L 1441 4856 
Q 1916 4091 2145 3389 
Q 2375 2688 2375 2003 
Q 2375 1319 2147 623 
Q 1919 -72 1441 -844 
L 513 -844 
z
" transform="scale(0.015625)"/>
     </defs>
     <use xlink:href="#DejaVuSans-Bold-41" transform="translate(0 0.015625)"/>
     <use xlink:href="#DejaVuSans-Bold-64" transform="translate(77.392578 0.015625)"/>
     <use xlink:href="#DejaVuSans-Bold-76" transform="translate(148.974609 0.015625)"/>
     <use xlink:href="#DejaVuSans-Bold-20" transform="translate(214.160156 0.015625)"/>
     <use xlink:href="#DejaVuSans-Oblique-78" transform="translate(248.974609 0.015625)"/>
     <use xlink:href="#DejaVuSans-Oblique-61" transform="translate(308.154297 -16.390625) scale(0.7)"/>
     <use xlink:href="#DejaVuSans-Oblique-64" transform="translate(351.049805 -16.390625) scale(0.7)"/>
     <use xlink:href="#DejaVuSans-Oblique-76" transform="translate(395.483398 -16.390625) scale(0.7)"/>
     <use xlink:href="#DejaVuSans-Bold-20" transform="translate(439.643555 0.015625)"/>
     <use xlink:href="#DejaVuSans-Bold-28" transform="translate(474.458008 0.015625)"/>
     <use xlink:href="#DejaVuSans-Bold-46" transform="translate(520.161133 0.015625)"/>
     <use xlink:href="#DejaVuSans-Bold-6f" transform="translate(588.47168 0.015625)"/>
     <use xlink:href="#DejaVuSans-Bold-6f" transform="translate(657.172852 0.015625)"/>
     <use xlink:href="#DejaVuSans-Bold-6c" transform="translate(725.874023 0.015625)"/>
     <use xlink:href="#DejaVuSans-Bold-73" transform="translate(760.151367 0.015625)"/>
     <use xlink:href="#DejaVuSans-Bold-20" transform="translate(819.672852 0.015625)"/>
     <use xlink:href="#DejaVuSans-Bold-6d" transform="translate(854.487305 0.015625)"/>
     <use xlink:href="#DejaVuSans-Bold-6f" transform="translate(958.686523 0.015625)"/>
     <use xlink:href="#DejaVuSans-Bold-64" transform="translate(1027.387695 0.015625)"/>
     <use xlink:href="#DejaVuSans-Bold-65" transform="translate(1098.969727 0.015625)"/>
     <use xlink:href="#DejaVuSans-Bold-6c" transform="translate(1166.791992 0.015625)"/>
     <use xlink:href="#DejaVuSans-Bold-29" transform="translate(1201.069336 0.015625)"/>
    </g>
   </g>
   <g id="patch_4">
    <path d="M 178.827457 226.55138 
Q 197.099954 178.953402 214.771411 132.921071 
" style="fill: none; stroke-dasharray: 1.5,2.475; stroke-dashoffset: 0; stroke: #f44336; stroke-width: 1.5; stroke-linecap: round"/>
    <path d="M 211.470704 135.938576 
L 214.771411 132.921071 
L 215.20499 137.37214 
" style="fill: none; stroke-dasharray: 1.5,2.475; stroke-dashoffset: 0; stroke: #f44336; stroke-width: 1.5; stroke-linecap: round"/>
   </g>
   <g id="text_6">
    <!-- Adversarial Shift -->
    <g style="fill: #f44336" transform="translate(188.569657 181.481093) rotate(-70) scale(0.08 -0.08)">
     <defs>
      <path id="DejaVuSans-41" d="M 2188 4044 
L 1331 1722 
L 3047 1722 
L 2188 4044 
z
M 1831 4666 
L 2547 4666 
L 4325 0 
L 3669 0 
L 3244 1197 
L 1141 1197 
L 716 0 
L 50 0 
L 1831 4666 
z
" transform="scale(0.015625)"/>
      <path id="DejaVuSans-64" d="M 2906 2969 
L 2906 4863 
L 3481 4863 
L 3481 0 
L 2906 0 
L 2906 525 
Q 2725 213 2448 61 
Q 2172 -91 1784 -91 
Q 1150 -91 751 415 
Q 353 922 353 1747 
Q 353 2572 751 3078 
Q 1150 3584 1784 3584 
Q 2172 3584 2448 3432 
Q 2725 3281 2906 2969 
z
M 947 1747 
Q 947 1113 1208 752 
Q 1469 391 1925 391 
Q 2381 391 2643 752 
Q 2906 1113 2906 1747 
Q 2906 2381 2643 2742 
Q 2381 3103 1925 3103 
Q 1469 3103 1208 2742 
Q 947 2381 947 1747 
z
" transform="scale(0.015625)"/>
      <path id="DejaVuSans-76" d="M 191 3500 
L 800 3500 
L 1894 563 
L 2988 3500 
L 3597 3500 
L 2284 0 
L 1503 0 
L 191 3500 
z
" transform="scale(0.015625)"/>
      <path id="DejaVuSans-65" d="M 3597 1894 
L 3597 1613 
L 953 1613 
Q 991 1019 1311 708 
Q 1631 397 2203 397 
Q 2534 397 2845 478 
Q 3156 559 3463 722 
L 3463 178 
Q 3153 47 2828 -22 
Q 2503 -91 2169 -91 
Q 1331 -91 842 396 
Q 353 884 353 1716 
Q 353 2575 817 3079 
Q 1281 3584 2069 3584 
Q 2775 3584 3186 3129 
Q 3597 2675 3597 1894 
z
M 3022 2063 
Q 3016 2534 2758 2815 
Q 2500 3097 2075 3097 
Q 1594 3097 1305 2825 
Q 1016 2553 972 2059 
L 3022 2063 
z
" transform="scale(0.015625)"/>
      <path id="DejaVuSans-72" d="M 2631 2963 
Q 2534 3019 2420 3045 
Q 2306 3072 2169 3072 
Q 1681 3072 1420 2755 
Q 1159 2438 1159 1844 
L 1159 0 
L 581 0 
L 581 3500 
L 1159 3500 
L 1159 2956 
Q 1341 3275 1631 3429 
Q 1922 3584 2338 3584 
Q 2397 3584 2469 3576 
Q 2541 3569 2628 3553 
L 2631 2963 
z
" transform="scale(0.015625)"/>
      <path id="DejaVuSans-73" d="M 2834 3397 
L 2834 2853 
Q 2591 2978 2328 3040 
Q 2066 3103 1784 3103 
Q 1356 3103 1142 2972 
Q 928 2841 928 2578 
Q 928 2378 1081 2264 
Q 1234 2150 1697 2047 
L 1894 2003 
Q 2506 1872 2764 1633 
Q 3022 1394 3022 966 
Q 3022 478 2636 193 
Q 2250 -91 1575 -91 
Q 1294 -91 989 -36 
Q 684 19 347 128 
L 347 722 
Q 666 556 975 473 
Q 1284 391 1588 391 
Q 1994 391 2212 530 
Q 2431 669 2431 922 
Q 2431 1156 2273 1281 
Q 2116 1406 1581 1522 
L 1381 1569 
Q 847 1681 609 1914 
Q 372 2147 372 2553 
Q 372 3047 722 3315 
Q 1072 3584 1716 3584 
Q 2034 3584 2315 3537 
Q 2597 3491 2834 3397 
z
" transform="scale(0.015625)"/>
      <path id="DejaVuSans-61" d="M 2194 1759 
Q 1497 1759 1228 1600 
Q 959 1441 959 1056 
Q 959 750 1161 570 
Q 1363 391 1709 391 
Q 2188 391 2477 730 
Q 2766 1069 2766 1631 
L 2766 1759 
L 2194 1759 
z
M 3341 1997 
L 3341 0 
L 2766 0 
L 2766 531 
Q 2569 213 2275 61 
Q 1981 -91 1556 -91 
Q 1019 -91 701 211 
Q 384 513 384 1019 
Q 384 1609 779 1909 
Q 1175 2209 1959 2209 
L 2766 2209 
L 2766 2266 
Q 2766 2663 2505 2880 
Q 2244 3097 1772 3097 
Q 1472 3097 1187 3025 
Q 903 2953 641 2809 
L 641 3341 
Q 956 3463 1253 3523 
Q 1550 3584 1831 3584 
Q 2591 3584 2966 3190 
Q 3341 2797 3341 1997 
z
" transform="scale(0.015625)"/>
      <path id="DejaVuSans-69" d="M 603 3500 
L 1178 3500 
L 1178 0 
L 603 0 
L 603 3500 
z
M 603 4863 
L 1178 4863 
L 1178 4134 
L 603 4134 
L 603 4863 
z
" transform="scale(0.015625)"/>
      <path id="DejaVuSans-6c" d="M 603 4863 
L 1178 4863 
L 1178 0 
L 603 0 
L 603 4863 
z
" transform="scale(0.015625)"/>
      <path id="DejaVuSans-20" transform="scale(0.015625)"/>
      <path id="DejaVuSans-53" d="M 3425 4513 
L 3425 3897 
Q 3066 4069 2747 4153 
Q 2428 4238 2131 4238 
Q 1616 4238 1336 4038 
Q 1056 3838 1056 3469 
Q 1056 3159 1242 3001 
Q 1428 2844 1947 2747 
L 2328 2669 
Q 3034 2534 3370 2195 
Q 3706 1856 3706 1288 
Q 3706 609 3251 259 
Q 2797 -91 1919 -91 
Q 1588 -91 1214 -16 
Q 841 59 441 206 
L 441 856 
Q 825 641 1194 531 
Q 1563 422 1919 422 
Q 2459 422 2753 634 
Q 3047 847 3047 1241 
Q 3047 1584 2836 1778 
Q 2625 1972 2144 2069 
L 1759 2144 
Q 1053 2284 737 2584 
Q 422 2884 422 3419 
Q 422 4038 858 4394 
Q 1294 4750 2059 4750 
Q 2388 4750 2728 4690 
Q 3069 4631 3425 4513 
z
" transform="scale(0.015625)"/>
      <path id="DejaVuSans-68" d="M 3513 2113 
L 3513 0 
L 2938 0 
L 2938 2094 
Q 2938 2591 2744 2837 
Q 2550 3084 2163 3084 
Q 1697 3084 1428 2787 
Q 1159 2491 1159 1978 
L 1159 0 
L 581 0 
L 581 4863 
L 1159 4863 
L 1159 2956 
Q 1366 3272 1645 3428 
Q 1925 3584 2291 3584 
Q 2894 3584 3203 3211 
Q 3513 2838 3513 2113 
z
" transform="scale(0.015625)"/>
      <path id="DejaVuSans-66" d="M 2375 4863 
L 2375 4384 
L 1825 4384 
Q 1516 4384 1395 4259 
Q 1275 4134 1275 3809 
L 1275 3500 
L 2222 3500 
L 2222 3053 
L 1275 3053 
L 1275 0 
L 697 0 
L 697 3053 
L 147 3053 
L 147 3500 
L 697 3500 
L 697 3744 
Q 697 4328 969 4595 
Q 1241 4863 1831 4863 
L 2375 4863 
z
" transform="scale(0.015625)"/>
      <path id="DejaVuSans-74" d="M 1172 4494 
L 1172 3500 
L 2356 3500 
L 2356 3053 
L 1172 3053 
L 1172 1153 
Q 1172 725 1289 603 
Q 1406 481 1766 481 
L 2356 481 
L 2356 0 
L 1766 0 
Q 1100 0 847 248 
Q 594 497 594 1153 
L 594 3053 
L 172 3053 
L 172 3500 
L 594 3500 
L 594 4494 
L 1172 4494 
z
" transform="scale(0.015625)"/>
     </defs>
     <use xlink:href="#DejaVuSans-41"/>
     <use xlink:href="#DejaVuSans-64" transform="translate(66.658203 0)"/>
     <use xlink:href="#DejaVuSans-76" transform="translate(130.134766 0)"/>
     <use xlink:href="#DejaVuSans-65" transform="translate(189.314453 0)"/>
     <use xlink:href="#DejaVuSans-72" transform="translate(250.837891 0)"/>
     <use xlink:href="#DejaVuSans-73" transform="translate(291.951172 0)"/>
     <use xlink:href="#DejaVuSans-61" transform="translate(344.050781 0)"/>
     <use xlink:href="#DejaVuSans-72" transform="translate(405.330078 0)"/>
     <use xlink:href="#DejaVuSans-69" transform="translate(446.443359 0)"/>
     <use xlink:href="#DejaVuSans-61" transform="translate(474.226562 0)"/>
     <use xlink:href="#DejaVuSans-6c" transform="translate(535.505859 0)"/>
     <use xlink:href="#DejaVuSans-20" transform="translate(563.289062 0)"/>
     <use xlink:href="#DejaVuSans-53" transform="translate(595.076172 0)"/>
     <use xlink:href="#DejaVuSans-68" transform="translate(658.552734 0)"/>
     <use xlink:href="#DejaVuSans-69" transform="translate(721.931641 0)"/>
     <use xlink:href="#DejaVuSans-66" transform="translate(749.714844 0)"/>
     <use xlink:href="#DejaVuSans-74" transform="translate(783.169922 0)"/>
    </g>
    <!-- (Crosses Boundary) -->
    <g style="fill: #f44336" transform="translate(196.987658 184.544995) rotate(-70) scale(0.08 -0.08)">
     <defs>
      <path id="DejaVuSans-28" d="M 1984 4856 
Q 1566 4138 1362 3434 
Q 1159 2731 1159 2009 
Q 1159 1288 1364 580 
Q 1569 -128 1984 -844 
L 1484 -844 
Q 1016 -109 783 600 
Q 550 1309 550 2009 
Q 550 2706 781 3412 
Q 1013 4119 1484 4856 
L 1984 4856 
z
" transform="scale(0.015625)"/>
      <path id="DejaVuSans-43" d="M 4122 4306 
L 4122 3641 
Q 3803 3938 3442 4084 
Q 3081 4231 2675 4231 
Q 1875 4231 1450 3742 
Q 1025 3253 1025 2328 
Q 1025 1406 1450 917 
Q 1875 428 2675 428 
Q 3081 428 3442 575 
Q 3803 722 4122 1019 
L 4122 359 
Q 3791 134 3420 21 
Q 3050 -91 2638 -91 
Q 1578 -91 968 557 
Q 359 1206 359 2328 
Q 359 3453 968 4101 
Q 1578 4750 2638 4750 
Q 3056 4750 3426 4639 
Q 3797 4528 4122 4306 
z
" transform="scale(0.015625)"/>
      <path id="DejaVuSans-6f" d="M 1959 3097 
Q 1497 3097 1228 2736 
Q 959 2375 959 1747 
Q 959 1119 1226 758 
Q 1494 397 1959 397 
Q 2419 397 2687 759 
Q 2956 1122 2956 1747 
Q 2956 2369 2687 2733 
Q 2419 3097 1959 3097 
z
M 1959 3584 
Q 2709 3584 3137 3096 
Q 3566 2609 3566 1747 
Q 3566 888 3137 398 
Q 2709 -91 1959 -91 
Q 1206 -91 779 398 
Q 353 888 353 1747 
Q 353 2609 779 3096 
Q 1206 3584 1959 3584 
z
" transform="scale(0.015625)"/>
      <path id="DejaVuSans-42" d="M 1259 2228 
L 1259 519 
L 2272 519 
Q 2781 519 3026 730 
Q 3272 941 3272 1375 
Q 3272 1813 3026 2020 
Q 2781 2228 2272 2228 
L 1259 2228 
z
M 1259 4147 
L 1259 2741 
L 2194 2741 
Q 2656 2741 2882 2914 
Q 3109 3088 3109 3444 
Q 3109 3797 2882 3972 
Q 2656 4147 2194 4147 
L 1259 4147 
z
M 628 4666 
L 2241 4666 
Q 2963 4666 3353 4366 
Q 3744 4066 3744 3513 
Q 3744 3084 3544 2831 
Q 3344 2578 2956 2516 
Q 3422 2416 3680 2098 
Q 3938 1781 3938 1306 
Q 3938 681 3513 340 
Q 3088 0 2303 0 
L 628 0 
L 628 4666 
z
" transform="scale(0.015625)"/>
      <path id="DejaVuSans-75" d="M 544 1381 
L 544 3500 
L 1119 3500 
L 1119 1403 
Q 1119 906 1312 657 
Q 1506 409 1894 409 
Q 2359 409 2629 706 
Q 2900 1003 2900 1516 
L 2900 3500 
L 3475 3500 
L 3475 0 
L 2900 0 
L 2900 538 
Q 2691 219 2414 64 
Q 2138 -91 1772 -91 
Q 1169 -91 856 284 
Q 544 659 544 1381 
z
M 1991 3584 
L 1991 3584 
z
" transform="scale(0.015625)"/>
      <path id="DejaVuSans-6e" d="M 3513 2113 
L 3513 0 
L 2938 0 
L 2938 2094 
Q 2938 2591 2744 2837 
Q 2550 3084 2163 3084 
Q 1697 3084 1428 2787 
Q 1159 2491 1159 1978 
L 1159 0 
L 581 0 
L 581 3500 
L 1159 3500 
L 1159 2956 
Q 1366 3272 1645 3428 
Q 1925 3584 2291 3584 
Q 2894 3584 3203 3211 
Q 3513 2838 3513 2113 
z
" transform="scale(0.015625)"/>
      <path id="DejaVuSans-79" d="M 2059 -325 
Q 1816 -950 1584 -1140 
Q 1353 -1331 966 -1331 
L 506 -1331 
L 506 -850 
L 844 -850 
Q 1081 -850 1212 -737 
Q 1344 -625 1503 -206 
L 1606 56 
L 191 3500 
L 800 3500 
L 1894 763 
L 2988 3500 
L 3597 3500 
L 2059 -325 
z
" transform="scale(0.015625)"/>
      <path id="DejaVuSans-29" d="M 513 4856 
L 1013 4856 
Q 1481 4119 1714 3412 
Q 1947 2706 1947 2009 
Q 1947 1309 1714 600 
Q 1481 -109 1013 -844 
L 513 -844 
Q 928 -128 1133 580 
Q 1338 1288 1338 2009 
Q 1338 2731 1133 3434 
Q 928 4138 513 4856 
z
" transform="scale(0.015625)"/>
     </defs>
     <use xlink:href="#DejaVuSans-28"/>
     <use xlink:href="#DejaVuSans-43" transform="translate(39.013672 0)"/>
     <use xlink:href="#DejaVuSans-72" transform="translate(108.837891 0)"/>
     <use xlink:href="#DejaVuSans-6f" transform="translate(147.701172 0)"/>
     <use xlink:href="#DejaVuSans-73" transform="translate(208.882812 0)"/>
     <use xlink:href="#DejaVuSans-73" transform="translate(260.982422 0)"/>
     <use xlink:href="#DejaVuSans-65" transform="translate(313.082031 0)"/>
     <use xlink:href="#DejaVuSans-73" transform="translate(374.605469 0)"/>
     <use xlink:href="#DejaVuSans-20" transform="translate(426.705078 0)"/>
     <use xlink:href="#DejaVuSans-42" transform="translate(458.492188 0)"/>
     <use xlink:href="#DejaVuSans-6f" transform="translate(527.095703 0)"/>
     <use xlink:href="#DejaVuSans-75" transform="translate(588.277344 0)"/>
     <use xlink:href="#DejaVuSans-6e" transform="translate(651.65625 0)"/>
     <use xlink:href="#DejaVuSans-64" transform="translate(715.035156 0)"/>
     <use xlink:href="#DejaVuSans-61" transform="translate(778.511719 0)"/>
     <use xlink:href="#DejaVuSans-72" transform="translate(839.791016 0)"/>
     <use xlink:href="#DejaVuSans-79" transform="translate(880.904297 0)"/>
     <use xlink:href="#DejaVuSans-29" transform="translate(940.083984 0)"/>
    </g>
   </g>
   <g id="text_7">
    <!-- Panel A: Traditional Network -->
    <g style="fill: #111111" transform="translate(108.276719 15.558281) scale(0.11 -0.11)">
     <defs>
      <path id="DejaVuSans-Bold-50" d="M 588 4666 
L 2584 4666 
Q 3475 4666 3951 4270 
Q 4428 3875 4428 3144 
Q 4428 2409 3951 2014 
Q 3475 1619 2584 1619 
L 1791 1619 
L 1791 0 
L 588 0 
L 588 4666 
z
M 1791 3794 
L 1791 2491 
L 2456 2491 
Q 2806 2491 2997 2661 
Q 3188 2831 3188 3144 
Q 3188 3456 2997 3625 
Q 2806 3794 2456 3794 
L 1791 3794 
z
" transform="scale(0.015625)"/>
      <path id="DejaVuSans-Bold-3a" d="M 716 3500 
L 1844 3500 
L 1844 2291 
L 716 2291 
L 716 3500 
z
M 716 1209 
L 1844 1209 
L 1844 0 
L 716 0 
L 716 1209 
z
" transform="scale(0.015625)"/>
      <path id="DejaVuSans-Bold-4e" d="M 588 4666 
L 1931 4666 
L 3628 1466 
L 3628 4666 
L 4769 4666 
L 4769 0 
L 3425 0 
L 1728 3200 
L 1728 0 
L 588 0 
L 588 4666 
z
" transform="scale(0.015625)"/>
      <path id="DejaVuSans-Bold-77" d="M 225 3500 
L 1313 3500 
L 1900 1088 
L 2491 3500 
L 3425 3500 
L 4013 1113 
L 4603 3500 
L 5691 3500 
L 4769 0 
L 3547 0 
L 2956 2406 
L 2369 0 
L 1147 0 
L 225 3500 
z
" transform="scale(0.015625)"/>
     </defs>
     <use xlink:href="#DejaVuSans-Bold-50"/>
     <use xlink:href="#DejaVuSans-Bold-61" transform="translate(70.666016 0)"/>
     <use xlink:href="#DejaVuSans-Bold-6e" transform="translate(138.146484 0)"/>
     <use xlink:href="#DejaVuSans-Bold-65" transform="translate(209.337891 0)"/>
     <use xlink:href="#DejaVuSans-Bold-6c" transform="translate(277.160156 0)"/>
     <use xlink:href="#DejaVuSans-Bold-20" transform="translate(311.4375 0)"/>
     <use xlink:href="#DejaVuSans-Bold-41" transform="translate(346.251953 0)"/>
     <use xlink:href="#DejaVuSans-Bold-3a" transform="translate(425.519531 0)"/>
     <use xlink:href="#DejaVuSans-Bold-20" transform="translate(465.509766 0)"/>
     <use xlink:href="#DejaVuSans-Bold-54" transform="translate(500.324219 0)"/>
     <use xlink:href="#DejaVuSans-Bold-72" transform="translate(557.537109 0)"/>
     <use xlink:href="#DejaVuSans-Bold-61" transform="translate(606.853516 0)"/>
     <use xlink:href="#DejaVuSans-Bold-64" transform="translate(674.333984 0)"/>
     <use xlink:href="#DejaVuSans-Bold-69" transform="translate(745.916016 0)"/>
     <use xlink:href="#DejaVuSans-Bold-74" transform="translate(780.193359 0)"/>
     <use xlink:href="#DejaVuSans-Bold-69" transform="translate(827.996094 0)"/>
     <use xlink:href="#DejaVuSans-Bold-6f" transform="translate(862.273438 0)"/>
     <use xlink:href="#DejaVuSans-Bold-6e" transform="translate(930.974609 0)"/>
     <use xlink:href="#DejaVuSans-Bold-61" transform="translate(1002.166016 0)"/>
     <use xlink:href="#DejaVuSans-Bold-6c" transform="translate(1069.646484 0)"/>
     <use xlink:href="#DejaVuSans-Bold-20" transform="translate(1103.923828 0)"/>
     <use xlink:href="#DejaVuSans-Bold-4e" transform="translate(1138.738281 0)"/>
     <use xlink:href="#DejaVuSans-Bold-65" transform="translate(1222.429688 0)"/>
     <use xlink:href="#DejaVuSans-Bold-74" transform="translate(1290.251953 0)"/>
     <use xlink:href="#DejaVuSans-Bold-77" transform="translate(1338.054688 0)"/>
     <use xlink:href="#DejaVuSans-Bold-6f" transform="translate(1430.4375 0)"/>
     <use xlink:href="#DejaVuSans-Bold-72" transform="translate(1499.138672 0)"/>
     <use xlink:href="#DejaVuSans-Bold-6b" transform="translate(1548.455078 0)"/>
    </g>
   </g>
  </g>
  <g id="axes_2">
   <g id="patch_5">
    <path d="M 599.987434 280.851966 
C 619.445843 275.913208 636.815224 266.599196 648.270173 254.961233 
C 659.725121 243.323269 664.330391 230.311542 661.071726 218.791733 
C 657.81306 207.271925 646.956514 198.184576 630.893117 193.53107 
C 614.829719 188.877564 594.870975 189.037839 575.412566 193.976597 
C 555.954157 198.915354 538.584776 208.229366 527.129827 219.86733 
C 515.674879 231.505294 511.069609 244.517021 514.328274 256.036829 
C 517.58694 267.556638 528.443486 276.643987 544.506883 281.297492 
C 560.570281 285.950998 580.529025 285.790723 599.987434 280.851966 
z
" clip-path="url(#p1c197a7e37)" style="fill: #ffcdd2; opacity: 0.7; stroke: #ffcdd2; stroke-linejoin: miter"/>
   </g>
   <g id="patch_6">
    <path d="M 596.301204 119.41966 
C 614.543462 114.789575 631.134744 107.144695 642.421012 98.168716 
C 653.707279 89.192737 658.767059 79.618509 656.485993 71.554643 
C 654.204927 63.490777 644.769254 57.595652 630.257072 55.167603 
C 615.74489 52.739553 597.341055 53.976817 579.098796 58.606902 
C 560.856538 63.236987 544.265256 70.881867 532.978988 79.857846 
C 521.692721 88.833825 516.632941 98.408054 518.914007 106.47192 
C 521.195073 114.535786 530.630746 120.43091 545.142928 122.85896 
C 559.65511 125.28701 578.058945 124.049745 596.301204 119.41966 
z
" clip-path="url(#p1c197a7e37)" style="fill: #c8e6c9; opacity: 0.7; stroke: #c8e6c9; stroke-linejoin: miter"/>
   </g>
   <g id="line2d_2">
    <path d="M 397.8 165.462281 
L 777.6 165.462281 
" clip-path="url(#p1c197a7e37)" style="fill: none; stroke: #4caf50; stroke-width: 2.5; stroke-linecap: square"/>
   </g>
   <g id="text_8">
    <!-- Robust Decision Margin -->
    <g style="fill: #4caf50" transform="translate(421.5375 156.468281) scale(0.08 -0.08)">
     <defs>
      <path id="DejaVuSans-Bold-52" d="M 2297 2597 
Q 2675 2597 2839 2737 
Q 3003 2878 3003 3200 
Q 3003 3519 2839 3656 
Q 2675 3794 2297 3794 
L 1791 3794 
L 1791 2597 
L 2297 2597 
z
M 1791 1766 
L 1791 0 
L 588 0 
L 588 4666 
L 2425 4666 
Q 3347 4666 3776 4356 
Q 4206 4047 4206 3378 
Q 4206 2916 3982 2619 
Q 3759 2322 3309 2181 
Q 3556 2125 3751 1926 
Q 3947 1728 4147 1325 
L 4800 0 
L 3519 0 
L 2950 1159 
Q 2778 1509 2601 1637 
Q 2425 1766 2131 1766 
L 1791 1766 
z
" transform="scale(0.015625)"/>
      <path id="DejaVuSans-Bold-4d" d="M 588 4666 
L 2119 4666 
L 3181 2169 
L 4250 4666 
L 5778 4666 
L 5778 0 
L 4641 0 
L 4641 3413 
L 3566 897 
L 2803 897 
L 1728 3413 
L 1728 0 
L 588 0 
L 588 4666 
z
" transform="scale(0.015625)"/>
      <path id="DejaVuSans-Bold-67" d="M 2919 594 
Q 2688 288 2409 144 
Q 2131 0 1766 0 
Q 1125 0 706 504 
Q 288 1009 288 1791 
Q 288 2575 706 3076 
Q 1125 3578 1766 3578 
Q 2131 3578 2409 3434 
Q 2688 3291 2919 2981 
L 2919 3500 
L 4044 3500 
L 4044 353 
Q 4044 -491 3511 -936 
Q 2978 -1381 1966 -1381 
Q 1638 -1381 1331 -1331 
Q 1025 -1281 716 -1178 
L 716 -306 
Q 1009 -475 1290 -558 
Q 1572 -641 1856 -641 
Q 2406 -641 2662 -400 
Q 2919 -159 2919 353 
L 2919 594 
z
M 2181 2772 
Q 1834 2772 1640 2515 
Q 1447 2259 1447 1791 
Q 1447 1309 1634 1061 
Q 1822 813 2181 813 
Q 2531 813 2725 1069 
Q 2919 1325 2919 1791 
Q 2919 2259 2725 2515 
Q 2531 2772 2181 2772 
z
" transform="scale(0.015625)"/>
     </defs>
     <use xlink:href="#DejaVuSans-Bold-52"/>
     <use xlink:href="#DejaVuSans-Bold-6f" transform="translate(77.001953 0)"/>
     <use xlink:href="#DejaVuSans-Bold-62" transform="translate(145.703125 0)"/>
     <use xlink:href="#DejaVuSans-Bold-75" transform="translate(217.285156 0)"/>
     <use xlink:href="#DejaVuSans-Bold-73" transform="translate(288.476562 0)"/>
     <use xlink:href="#DejaVuSans-Bold-74" transform="translate(347.998047 0)"/>
     <use xlink:href="#DejaVuSans-Bold-20" transform="translate(395.800781 0)"/>
     <use xlink:href="#DejaVuSans-Bold-44" transform="translate(430.615234 0)"/>
     <use xlink:href="#DejaVuSans-Bold-65" transform="translate(513.623047 0)"/>
     <use xlink:href="#DejaVuSans-Bold-63" transform="translate(581.445312 0)"/>
     <use xlink:href="#DejaVuSans-Bold-69" transform="translate(640.722656 0)"/>
     <use xlink:href="#DejaVuSans-Bold-73" transform="translate(675 0)"/>
     <use xlink:href="#DejaVuSans-Bold-69" transform="translate(734.521484 0)"/>
     <use xlink:href="#DejaVuSans-Bold-6f" transform="translate(768.798828 0)"/>
     <use xlink:href="#DejaVuSans-Bold-6e" transform="translate(837.5 0)"/>
     <use xlink:href="#DejaVuSans-Bold-20" transform="translate(908.691406 0)"/>
     <use xlink:href="#DejaVuSans-Bold-4d" transform="translate(943.505859 0)"/>
     <use xlink:href="#DejaVuSans-Bold-61" transform="translate(1043.017578 0)"/>
     <use xlink:href="#DejaVuSans-Bold-72" transform="translate(1110.498047 0)"/>
     <use xlink:href="#DejaVuSans-Bold-67" transform="translate(1159.814453 0)"/>
     <use xlink:href="#DejaVuSans-Bold-69" transform="translate(1231.396484 0)"/>
     <use xlink:href="#DejaVuSans-Bold-6e" transform="translate(1265.673828 0)"/>
    </g>
   </g>
   <g id="text_9">
    <!-- Automobile Manifold -->
    <g style="fill: #5d4037" transform="translate(534.991641 239.897719) scale(0.09 -0.09)">
     <defs>
      <path id="DejaVuSans-Bold-66" d="M 2841 4863 
L 2841 4128 
L 2222 4128 
Q 1984 4128 1890 4042 
Q 1797 3956 1797 3744 
L 1797 3500 
L 2753 3500 
L 2753 2700 
L 1797 2700 
L 1797 0 
L 678 0 
L 678 2700 
L 122 2700 
L 122 3500 
L 678 3500 
L 678 3744 
Q 678 4316 997 4589 
Q 1316 4863 1984 4863 
L 2841 4863 
z
" transform="scale(0.015625)"/>
     </defs>
     <use xlink:href="#DejaVuSans-Bold-41"/>
     <use xlink:href="#DejaVuSans-Bold-75" transform="translate(77.392578 0)"/>
     <use xlink:href="#DejaVuSans-Bold-74" transform="translate(148.583984 0)"/>
     <use xlink:href="#DejaVuSans-Bold-6f" transform="translate(196.386719 0)"/>
     <use xlink:href="#DejaVuSans-Bold-6d" transform="translate(265.087891 0)"/>
     <use xlink:href="#DejaVuSans-Bold-6f" transform="translate(369.287109 0)"/>
     <use xlink:href="#DejaVuSans-Bold-62" transform="translate(437.988281 0)"/>
     <use xlink:href="#DejaVuSans-Bold-69" transform="translate(509.570312 0)"/>
     <use xlink:href="#DejaVuSans-Bold-6c" transform="translate(543.847656 0)"/>
     <use xlink:href="#DejaVuSans-Bold-65" transform="translate(578.125 0)"/>
     <use xlink:href="#DejaVuSans-Bold-20" transform="translate(645.947266 0)"/>
     <use xlink:href="#DejaVuSans-Bold-4d" transform="translate(680.761719 0)"/>
     <use xlink:href="#DejaVuSans-Bold-61" transform="translate(780.273438 0)"/>
     <use xlink:href="#DejaVuSans-Bold-6e" transform="translate(847.753906 0)"/>
     <use xlink:href="#DejaVuSans-Bold-69" transform="translate(918.945312 0)"/>
     <use xlink:href="#DejaVuSans-Bold-66" transform="translate(953.222656 0)"/>
     <use xlink:href="#DejaVuSans-Bold-6f" transform="translate(996.728516 0)"/>
     <use xlink:href="#DejaVuSans-Bold-6c" transform="translate(1065.429688 0)"/>
     <use xlink:href="#DejaVuSans-Bold-64" transform="translate(1099.707031 0)"/>
    </g>
   </g>
   <g id="text_10">
    <!-- Truck Manifold -->
    <g style="fill: #1b5e20" transform="translate(550.402031 91.496719) scale(0.09 -0.09)">
     <use xlink:href="#DejaVuSans-Bold-54"/>
     <use xlink:href="#DejaVuSans-Bold-72" transform="translate(57.212891 0)"/>
     <use xlink:href="#DejaVuSans-Bold-75" transform="translate(106.529297 0)"/>
     <use xlink:href="#DejaVuSans-Bold-63" transform="translate(177.720703 0)"/>
     <use xlink:href="#DejaVuSans-Bold-6b" transform="translate(236.998047 0)"/>
     <use xlink:href="#DejaVuSans-Bold-20" transform="translate(303.501953 0)"/>
     <use xlink:href="#DejaVuSans-Bold-4d" transform="translate(338.316406 0)"/>
     <use xlink:href="#DejaVuSans-Bold-61" transform="translate(437.828125 0)"/>
     <use xlink:href="#DejaVuSans-Bold-6e" transform="translate(505.308594 0)"/>
     <use xlink:href="#DejaVuSans-Bold-69" transform="translate(576.5 0)"/>
     <use xlink:href="#DejaVuSans-Bold-66" transform="translate(610.777344 0)"/>
     <use xlink:href="#DejaVuSans-Bold-6f" transform="translate(654.283203 0)"/>
     <use xlink:href="#DejaVuSans-Bold-6c" transform="translate(722.984375 0)"/>
     <use xlink:href="#DejaVuSans-Bold-64" transform="translate(757.261719 0)"/>
    </g>
   </g>
   <g id="PathCollection_3">
    <g clip-path="url(#p1c197a7e37)">
     <use xlink:href="#m1664cccbb2" x="549.72" y="237.414281" style="fill: #1f77b4; stroke: #1f77b4"/>
    </g>
   </g>
   <g id="text_11">
    <!-- Clean $z$ -->
    <g style="fill: #1f77b4" transform="translate(531.63 255.402281) scale(0.09 -0.09)">
     <defs>
      <path id="DejaVuSans-Oblique-7a" d="M 744 3500 
L 3475 3500 
L 3372 2975 
L 738 459 
L 2913 459 
L 2822 0 
L -19 0 
L 84 525 
L 2719 3041 
L 653 3041 
L 744 3500 
z
" transform="scale(0.015625)"/>
     </defs>
     <use xlink:href="#DejaVuSans-Bold-43" transform="translate(0 0.015625)"/>
     <use xlink:href="#DejaVuSans-Bold-6c" transform="translate(73.388672 0.015625)"/>
     <use xlink:href="#DejaVuSans-Bold-65" transform="translate(107.666016 0.015625)"/>
     <use xlink:href="#DejaVuSans-Bold-61" transform="translate(175.488281 0.015625)"/>
     <use xlink:href="#DejaVuSans-Bold-6e" transform="translate(242.96875 0.015625)"/>
     <use xlink:href="#DejaVuSans-Bold-20" transform="translate(314.160156 0.015625)"/>
     <use xlink:href="#DejaVuSans-Oblique-7a" transform="translate(348.974609 0.015625)"/>
    </g>
   </g>
   <g id="PathCollection_4">
    <g clip-path="url(#p1c197a7e37)">
     <use xlink:href="#m4adc1ac7e0" x="597.195" y="228.420281" style="fill: #e53935; stroke: #e53935"/>
    </g>
   </g>
   <g id="text_12">
    <!-- Adv $z_{adv}$ -->
    <g style="fill: #e53935" transform="translate(591.9525 214.929281) scale(0.09 -0.09)">
     <use xlink:href="#DejaVuSans-Bold-41" transform="translate(0 0.015625)"/>
     <use xlink:href="#DejaVuSans-Bold-64" transform="translate(77.392578 0.015625)"/>
     <use xlink:href="#DejaVuSans-Bold-76" transform="translate(148.974609 0.015625)"/>
     <use xlink:href="#DejaVuSans-Bold-20" transform="translate(214.160156 0.015625)"/>
     <use xlink:href="#DejaVuSans-Oblique-7a" transform="translate(248.974609 0.015625)"/>
     <use xlink:href="#DejaVuSans-Oblique-61" transform="translate(301.464844 -16.390625) scale(0.7)"/>
     <use xlink:href="#DejaVuSans-Oblique-64" transform="translate(344.360352 -16.390625) scale(0.7)"/>
     <use xlink:href="#DejaVuSans-Oblique-76" transform="translate(388.793945 -16.390625) scale(0.7)"/>
    </g>
   </g>
   <g id="patch_7">
    <path d="M 561.172648 236.113105 
Q 573.456768 233.591981 584.098078 231.408019 
" style="fill: none; stroke: #4caf50; stroke-width: 1.5; stroke-linecap: round"/>
    <path d="M 579.777662 230.25303 
L 584.098078 231.408019 
L 580.581837 234.171359 
" style="fill: none; stroke: #4caf50; stroke-width: 1.5; stroke-linecap: round"/>
   </g>
   <g id="text_13">
    <!-- Invariant Map -->
    <g style="fill: #4caf50" transform="translate(573.4575 223.923281) scale(0.08 -0.08)">
     <defs>
      <path id="DejaVuSans-49" d="M 628 4666 
L 1259 4666 
L 1259 0 
L 628 0 
L 628 4666 
z
" transform="scale(0.015625)"/>
      <path id="DejaVuSans-4d" d="M 628 4666 
L 1569 4666 
L 2759 1491 
L 3956 4666 
L 4897 4666 
L 4897 0 
L 4281 0 
L 4281 4097 
L 3078 897 
L 2444 897 
L 1241 4097 
L 1241 0 
L 628 0 
L 628 4666 
z
" transform="scale(0.015625)"/>
      <path id="DejaVuSans-70" d="M 1159 525 
L 1159 -1331 
L 581 -1331 
L 581 3500 
L 1159 3500 
L 1159 2969 
Q 1341 3281 1617 3432 
Q 1894 3584 2278 3584 
Q 2916 3584 3314 3078 
Q 3713 2572 3713 1747 
Q 3713 922 3314 415 
Q 2916 -91 2278 -91 
Q 1894 -91 1617 61 
Q 1341 213 1159 525 
z
M 3116 1747 
Q 3116 2381 2855 2742 
Q 2594 3103 2138 3103 
Q 1681 3103 1420 2742 
Q 1159 2381 1159 1747 
Q 1159 1113 1420 752 
Q 1681 391 2138 391 
Q 2594 391 2855 752 
Q 3116 1113 3116 1747 
z
" transform="scale(0.015625)"/>
     </defs>
     <use xlink:href="#DejaVuSans-49"/>
     <use xlink:href="#DejaVuSans-6e" transform="translate(29.492188 0)"/>
     <use xlink:href="#DejaVuSans-76" transform="translate(92.871094 0)"/>
     <use xlink:href="#DejaVuSans-61" transform="translate(152.050781 0)"/>
     <use xlink:href="#DejaVuSans-72" transform="translate(213.330078 0)"/>
     <use xlink:href="#DejaVuSans-69" transform="translate(254.443359 0)"/>
     <use xlink:href="#DejaVuSans-61" transform="translate(282.226562 0)"/>
     <use xlink:href="#DejaVuSans-6e" transform="translate(343.505859 0)"/>
     <use xlink:href="#DejaVuSans-74" transform="translate(406.884766 0)"/>
     <use xlink:href="#DejaVuSans-20" transform="translate(446.09375 0)"/>
     <use xlink:href="#DejaVuSans-4d" transform="translate(477.880859 0)"/>
     <use xlink:href="#DejaVuSans-61" transform="translate(564.160156 0)"/>
     <use xlink:href="#DejaVuSans-70" transform="translate(625.439453 0)"/>
    </g>
   </g>
   <g id="text_14">
    <!-- Panel B: SAIL Representation -->
    <g style="fill: #111111" transform="translate(496.85375 15.558281) scale(0.11 -0.11)">
     <defs>
      <path id="DejaVuSans-Bold-53" d="M 3834 4519 
L 3834 3531 
Q 3450 3703 3084 3790 
Q 2719 3878 2394 3878 
Q 1963 3878 1756 3759 
Q 1550 3641 1550 3391 
Q 1550 3203 1689 3098 
Q 1828 2994 2194 2919 
L 2706 2816 
Q 3484 2659 3812 2340 
Q 4141 2022 4141 1434 
Q 4141 663 3683 286 
Q 3225 -91 2284 -91 
Q 1841 -91 1394 -6 
Q 947 78 500 244 
L 500 1259 
Q 947 1022 1364 901 
Q 1781 781 2169 781 
Q 2563 781 2772 912 
Q 2981 1044 2981 1288 
Q 2981 1506 2839 1625 
Q 2697 1744 2272 1838 
L 1806 1941 
Q 1106 2091 782 2419 
Q 459 2747 459 3303 
Q 459 4000 909 4375 
Q 1359 4750 2203 4750 
Q 2588 4750 2994 4692 
Q 3400 4634 3834 4519 
z
" transform="scale(0.015625)"/>
      <path id="DejaVuSans-Bold-49" d="M 588 4666 
L 1791 4666 
L 1791 0 
L 588 0 
L 588 4666 
z
" transform="scale(0.015625)"/>
      <path id="DejaVuSans-Bold-4c" d="M 588 4666 
L 1791 4666 
L 1791 909 
L 3903 909 
L 3903 0 
L 588 0 
L 588 4666 
z
" transform="scale(0.015625)"/>
      <path id="DejaVuSans-Bold-70" d="M 1656 506 
L 1656 -1331 
L 538 -1331 
L 538 3500 
L 1656 3500 
L 1656 2988 
Q 1888 3294 2169 3439 
Q 2450 3584 2816 3584 
Q 3463 3584 3878 3070 
Q 4294 2556 4294 1747 
Q 4294 938 3878 423 
Q 3463 -91 2816 -91 
Q 2450 -91 2169 54 
Q 1888 200 1656 506 
z
M 2400 2772 
Q 2041 2772 1848 2508 
Q 1656 2244 1656 1747 
Q 1656 1250 1848 986 
Q 2041 722 2400 722 
Q 2759 722 2948 984 
Q 3138 1247 3138 1747 
Q 3138 2247 2948 2509 
Q 2759 2772 2400 2772 
z
" transform="scale(0.015625)"/>
     </defs>
     <use xlink:href="#DejaVuSans-Bold-50"/>
     <use xlink:href="#DejaVuSans-Bold-61" transform="translate(70.666016 0)"/>
     <use xlink:href="#DejaVuSans-Bold-6e" transform="translate(138.146484 0)"/>
     <use xlink:href="#DejaVuSans-Bold-65" transform="translate(209.337891 0)"/>
     <use xlink:href="#DejaVuSans-Bold-6c" transform="translate(277.160156 0)"/>
     <use xlink:href="#DejaVuSans-Bold-20" transform="translate(311.4375 0)"/>
     <use xlink:href="#DejaVuSans-Bold-42" transform="translate(346.251953 0)"/>
     <use xlink:href="#DejaVuSans-Bold-3a" transform="translate(422.472656 0)"/>
     <use xlink:href="#DejaVuSans-Bold-20" transform="translate(462.462891 0)"/>
     <use xlink:href="#DejaVuSans-Bold-53" transform="translate(497.277344 0)"/>
     <use xlink:href="#DejaVuSans-Bold-41" transform="translate(569.298828 0)"/>
     <use xlink:href="#DejaVuSans-Bold-49" transform="translate(646.691406 0)"/>
     <use xlink:href="#DejaVuSans-Bold-4c" transform="translate(683.898438 0)"/>
     <use xlink:href="#DejaVuSans-Bold-20" transform="translate(747.619141 0)"/>
     <use xlink:href="#DejaVuSans-Bold-52" transform="translate(782.433594 0)"/>
     <use xlink:href="#DejaVuSans-Bold-65" transform="translate(859.435547 0)"/>
     <use xlink:href="#DejaVuSans-Bold-70" transform="translate(927.257812 0)"/>
     <use xlink:href="#DejaVuSans-Bold-72" transform="translate(998.839844 0)"/>
     <use xlink:href="#DejaVuSans-Bold-65" transform="translate(1048.15625 0)"/>
     <use xlink:href="#DejaVuSans-Bold-73" transform="translate(1115.978516 0)"/>
     <use xlink:href="#DejaVuSans-Bold-65" transform="translate(1175.5 0)"/>
     <use xlink:href="#DejaVuSans-Bold-6e" transform="translate(1243.322266 0)"/>
     <use xlink:href="#DejaVuSans-Bold-74" transform="translate(1314.513672 0)"/>
     <use xlink:href="#DejaVuSans-Bold-61" transform="translate(1362.316406 0)"/>
     <use xlink:href="#DejaVuSans-Bold-74" transform="translate(1429.796875 0)"/>
     <use xlink:href="#DejaVuSans-Bold-69" transform="translate(1477.599609 0)"/>
     <use xlink:href="#DejaVuSans-Bold-6f" transform="translate(1511.876953 0)"/>
     <use xlink:href="#DejaVuSans-Bold-6e" transform="translate(1580.578125 0)"/>
    </g>
   </g>
  </g>
 </g>
 <defs>
  <clipPath id="pe54a8da916">
   <rect x="7.2" y="21.558281" width="379.8" height="359.76"/>
  </clipPath>
  <clipPath id="p1c197a7e37">
   <rect x="397.8" y="21.558281" width="379.8" height="359.76"/>
  </clipPath>
 </defs>
</svg>
